<?xml version="1.0" encoding="iso-8859-1"?>
<!-- Generator: Adobe Illustrator 19.0.0, SVG Export Plug-In . SVG Version: 6.00 Build 0)  -->
<svg version="1.1" id="Layer_1" xmlns="http://www.w3.org/2000/svg" xmlns:xlink="http://www.w3.org/1999/xlink" x="0px" y="0px"
	 viewBox="0 0 511.999 511.999" style="enable-background:new 0 0 511.999 511.999;" xml:space="preserve">
<g>
	<g>
		<circle cx="147.042" cy="417.542" r="8.562"/>
	</g>
</g>
<g>
	<g>
		<path d="M207.681,434.944H64.865c-10.746,0-19.488-8.743-19.488-19.488V132.079c0-10.739,8.742-19.476,19.488-19.476h142.816
			c4.73,0,8.562-3.834,8.562-8.562c0-4.729-3.832-8.562-8.562-8.562H64.865c-20.189,0-36.612,16.419-36.612,36.601v283.377
			c0,20.189,16.425,36.612,36.612,36.612h142.816c4.73,0,8.562-3.834,8.562-8.562C216.244,438.778,212.41,434.944,207.681,434.944z"
			/>
	</g>
</g>
<g>
	<g>
		<path d="M209.767,148.977H62.781c-4.73,0-8.562,3.834-8.562,8.562s3.832,8.562,8.562,8.562h146.986
			c4.73,0,8.562-3.834,8.562-8.562S214.496,148.977,209.767,148.977z"/>
	</g>
</g>
<g>
	<g>
		<path d="M209.767,380.146H62.781c-4.73,0-8.562,3.834-8.562,8.562s3.832,8.562,8.562,8.562h146.986
			c4.73,0,8.562-3.834,8.562-8.562S214.496,380.146,209.767,380.146z"/>
	</g>
</g>
<g>
	<g>
		<circle cx="265.704" cy="40.527" r="8.562"/>
	</g>
</g>
<g>
	<g>
		<circle cx="321.073" cy="40.527" r="8.562"/>
	</g>
</g>
<g>
	<g>
		<circle cx="293.389" cy="40.527" r="8.562"/>
	</g>
</g>
<g>
	<g>
		<path d="M446.643,62.87H263.994c-4.73,0-8.562,3.834-8.562,8.562s3.833,8.562,8.562,8.562h182.649c4.73,0,8.562-3.834,8.562-8.562
			S451.373,62.87,446.643,62.87z"/>
	</g>
</g>
<g>
	<g>
		<path d="M446.643,329.013H263.994c-4.73,0-8.562,3.834-8.562,8.562v34.328c0,4.729,3.833,8.562,8.562,8.562h182.649
			c4.73,0,8.562-3.834,8.562-8.562v-34.328C455.205,332.846,451.373,329.013,446.643,329.013z M438.081,363.339H272.556v-17.203
			h165.525V363.339z"/>
	</g>
</g>
<g>
	<g>
		<path d="M475.184,95.614c-4.73,0-8.562,3.834-8.562,8.562v390.698H244.015V311.956c0-3.018-1.589-5.813-4.182-7.357
			l-57.172-34.044h52.79c4.73,0,8.562-3.834,8.562-8.562V225.19c0-4.729-3.832-8.562-8.562-8.562c-4.73,0-8.562,3.834-8.562,8.562
			v28.241h-75.343c-3.854,0-7.233,2.574-8.255,6.29c-1.022,3.716,0.564,7.657,3.876,9.629l79.724,47.473v186.614
			c0,4.729,3.832,8.562,8.562,8.562h239.731c4.73,0,8.562-3.834,8.562-8.562v-399.26C483.746,99.448,479.914,95.614,475.184,95.614z
			"/>
	</g>
</g>
<g>
	<g>
		<path d="M475.184,0H235.453c-4.73,0-8.562,3.834-8.562,8.562v183.522c0,4.729,3.832,8.562,8.562,8.562
			c4.73,0,8.562-3.834,8.562-8.562V17.125h222.607v52.803c0,4.729,3.832,8.562,8.562,8.562s8.562-3.834,8.562-8.562V8.562
			C483.746,3.834,479.914,0,475.184,0z"/>
	</g>
</g>
<g>
	<g>
		<path d="M446.643,96.927H263.994c-4.73,0-8.562,3.834-8.562,8.562v68.12c0,4.729,3.833,8.562,8.562,8.562h182.649
			c4.73,0,8.562-3.834,8.562-8.562v-68.12C455.205,100.761,451.373,96.927,446.643,96.927z M438.081,165.048H272.556v-50.996
			h165.525V165.048z"/>
	</g>
</g>
<g>
	<g>
		<path d="M446.643,394.31H332.419c-4.73,0-8.562,3.834-8.562,8.562c0,4.729,3.832,8.562,8.562,8.562h105.662v50.996H272.556
			v-50.996h29.611c4.73,0,8.562-3.834,8.562-8.562c0-4.729-3.832-8.562-8.562-8.562h-38.173c-4.73,0-8.562,3.834-8.562,8.562v68.12
			h0c0,4.729,3.833,8.562,8.562,8.562h182.649c4.73,0,8.562-3.834,8.562-8.562v-68.12
			C455.205,398.143,451.373,394.31,446.643,394.31z"/>
	</g>
</g>
<g>
	<g>
		<path d="M446.643,199.386h-20.61c-4.73,0-8.562,3.834-8.562,8.562s3.832,8.562,8.562,8.562h12.048v77.884H272.556V216.51h121.512
			c4.73,0,8.562-3.834,8.562-8.562s-3.832-8.562-8.562-8.562H263.994c-4.73,0-8.562,3.834-8.562,8.562v95.008
			c0,4.729,3.833,8.562,8.562,8.562h182.649c4.73,0,8.562-3.834,8.562-8.562v-95.008
			C455.205,203.219,451.373,199.386,446.643,199.386z"/>
	</g>
</g>
<g>
</g>
<g>
</g>
<g>
</g>
<g>
</g>
<g>
</g>
<g>
</g>
<g>
</g>
<g>
</g>
<g>
</g>
<g>
</g>
<g>
</g>
<g>
</g>
<g>
</g>
<g>
</g>
<g>
</g>
</svg>
