<?xml version="1.0" encoding="iso-8859-1"?>
<!-- Generator: Adobe Illustrator 19.0.0, SVG Export Plug-In . SVG Version: 6.00 Build 0)  -->
<svg version="1.1" id="Layer_1" xmlns="http://www.w3.org/2000/svg" xmlns:xlink="http://www.w3.org/1999/xlink" x="0px" y="0px"
	 viewBox="0 0 511.999 511.999" style="enable-background:new 0 0 511.999 511.999;" xml:space="preserve">
<g>
	<g>
		<path d="M470.316,32.427H41.683C18.7,32.427,0,51.127,0,74.111v40.433c0,4.965,4.024,8.991,8.991,8.991
			c4.967,0,8.991-4.026,8.991-8.991V74.111c0-13.069,10.632-23.701,23.701-23.701h428.634c13.069,0,23.701,10.633,23.701,23.701
			v267.002c0,4.965,4.024,8.991,8.991,8.991s8.991-4.025,8.991-8.991V74.111C512,51.127,493.3,32.427,470.316,32.427z"/>
	</g>
</g>
<g>
	<g>
		<path d="M503.009,365.419c-4.967,0-8.991,4.025-8.991,8.991c0,13.069-10.632,23.701-23.701,23.701H41.683
			c-13.069,0.001-23.701-10.632-23.701-23.701V149.308c0-4.965-4.024-8.991-8.991-8.991c-4.966,0-8.991,4.026-8.991,8.991V374.41
			c0,22.984,18.7,41.684,41.683,41.684h171.839l-10.923,45.496h-42.501c-4.967,0-8.991,4.025-8.991,8.991s4.024,8.991,8.991,8.991
			h49.59h92.623h49.591c4.967,0,8.991-4.025,8.991-8.991s-4.024-8.991-8.991-8.991h-42.503l-10.922-45.496h171.839
			c22.984,0,41.683-18.7,41.683-41.683C512,369.445,507.975,365.419,503.009,365.419z M221.094,461.589l10.923-45.496h47.968
			l10.922,45.496H221.094z"/>
	</g>
</g>
<g>
	<g>
		<path d="M472.65,353.264H39.35c-4.966,0-8.991,4.025-8.991,8.991s4.026,8.991,8.991,8.991H472.65c4.967,0,8.991-4.025,8.991-8.991
			S477.617,353.264,472.65,353.264z"/>
	</g>
</g>
<g>
	<g>
		<path d="M472.65,77.276H39.35c-4.966,0-8.991,4.026-8.991,8.991s4.024,8.991,8.991,8.991H472.65c4.966,0,8.991-4.025,8.991-8.991
			S477.617,77.276,472.65,77.276z"/>
	</g>
</g>
<g>
	<g>
		<path d="M118.619,129.376c0-10.416-8.474-18.89-18.89-18.89H85.874c-10.415,0-18.89,8.474-18.89,18.89v29.917
			c0,10.416,8.474,18.89,18.89,18.89H99.73c10.415,0,18.89-8.474,18.89-18.89v-29.917H118.619z M100.638,159.292h-0.001
			c0,0.501-0.408,0.909-0.909,0.909H85.874c-0.501,0-0.909-0.408-0.909-0.909v-29.917c0-0.501,0.408-0.909,0.909-0.909H99.73
			c0.501,0,0.909,0.408,0.909,0.909V159.292z"/>
	</g>
</g>
<g>
	<g>
		<path d="M219.811,110.486h-13.855c-10.415,0-18.89,8.474-18.89,18.89v29.917c0,10.416,8.474,18.89,18.89,18.89h13.855
			c10.415,0,18.89-8.474,18.89-18.89v-29.917C238.701,118.96,230.227,110.486,219.811,110.486z M220.719,159.292
			c0,0.501-0.408,0.909-0.909,0.909h-13.855c-0.501,0-0.909-0.408-0.909-0.909v-29.917c0-0.501,0.408-0.909,0.909-0.909h13.855
			c0.501,0,0.909,0.408,0.909,0.909V159.292z"/>
	</g>
</g>
<g>
	<g>
		<path d="M366.85,110.486h-13.855c-10.415,0-18.89,8.474-18.89,18.89v29.917c0,10.416,8.474,18.89,18.89,18.89h13.855
			c10.415,0,18.89-8.474,18.89-18.89v-29.917C385.74,118.96,377.266,110.486,366.85,110.486z M367.759,159.292
			c0,0.501-0.408,0.909-0.909,0.909h-13.855c-0.501,0-0.909-0.408-0.909-0.909v-29.917c0-0.501,0.408-0.909,0.909-0.909h13.855
			c0.501,0,0.909,0.408,0.909,0.909V159.292z"/>
	</g>
</g>
<g>
	<g>
		<path d="M280.234,110.486h-13.855c-10.415,0-18.89,8.474-18.89,18.89v29.917c0,10.416,8.474,18.89,18.89,18.89h13.855
			c10.415,0,18.89-8.474,18.89-18.89v-29.917C299.124,118.96,290.65,110.486,280.234,110.486z M281.143,159.292
			c0,0.501-0.408,0.909-0.909,0.909h-13.855c-0.501,0-0.909-0.408-0.909-0.909v-29.917c0-0.501,0.408-0.909,0.909-0.909h13.855
			c0.501,0,0.909,0.408,0.909,0.909V159.292z"/>
	</g>
</g>
<g>
	<g>
		<path d="M137.929,110.486c-4.966,0-8.991,4.026-8.991,8.991v49.716c0,4.965,4.024,8.991,8.991,8.991
			c4.967,0,8.991-4.026,8.991-8.991v-49.716C146.919,114.511,142.895,110.486,137.929,110.486z"/>
	</g>
</g>
<g>
	<g>
		<path d="M169.286,110.486c-4.966,0-8.991,4.026-8.991,8.991v49.716c0,4.965,4.024,8.991,8.991,8.991
			c4.967,0,8.991-4.026,8.991-8.991v-49.716C178.277,114.511,174.253,110.486,169.286,110.486z"/>
	</g>
</g>
<g>
	<g>
		<path d="M405.813,110.486c-4.967,0-8.991,4.026-8.991,8.991v49.716c0,4.965,4.025,8.991,8.991,8.991
			c4.966,0,8.991-4.026,8.991-8.991v-49.716C414.803,114.511,410.779,110.486,405.813,110.486z"/>
	</g>
</g>
<g>
	<g>
		<path d="M316.137,110.486c-4.967,0-8.991,4.026-8.991,8.991v49.716c0,4.965,4.024,8.991,8.991,8.991
			c4.966,0,8.991-4.026,8.991-8.991v-49.716C325.128,114.511,321.104,110.486,316.137,110.486z"/>
	</g>
</g>
<g>
	<g>
		<path d="M436.025,110.486c-4.967,0-8.991,4.026-8.991,8.991v49.716c0,4.965,4.024,8.991,8.991,8.991
			c4.966,0,8.991-4.026,8.991-8.991v-49.716C445.016,114.511,440.992,110.486,436.025,110.486z"/>
	</g>
</g>
<g>
	<g>
		<path d="M99.73,270.339H85.874c-10.415,0-18.89,8.474-18.89,18.89v29.917c0,10.416,8.474,18.89,18.89,18.89H99.73
			c10.415,0,18.89-8.474,18.89-18.89v-29.917C118.62,278.813,110.146,270.339,99.73,270.339z M100.638,319.145
			c0,0.501-0.408,0.909-0.909,0.909H85.874c-0.501,0-0.909-0.408-0.909-0.909v-29.917c0-0.501,0.408-0.909,0.909-0.909H99.73
			c0.501,0,0.909,0.408,0.909,0.909V319.145z"/>
	</g>
</g>
<g>
	<g>
		<path d="M219.811,270.339h-13.855c-10.415,0-18.89,8.474-18.89,18.89v29.917c0,10.416,8.474,18.89,18.89,18.89h13.855
			c10.415,0,18.89-8.474,18.89-18.89v-29.917C238.701,278.813,230.227,270.339,219.811,270.339z M220.719,319.145
			c0,0.501-0.408,0.909-0.909,0.909h-13.855c-0.501,0-0.909-0.408-0.909-0.909v-29.917c0-0.501,0.408-0.909,0.909-0.909h13.855
			c0.501,0,0.909,0.408,0.909,0.909V319.145z"/>
	</g>
</g>
<g>
	<g>
		<path d="M366.851,270.339h-13.855c-10.415,0-18.89,8.474-18.89,18.89v29.917c0,10.416,8.474,18.89,18.89,18.89h13.855
			c10.415,0,18.89-8.474,18.89-18.89v-29.917C385.742,278.813,377.267,270.339,366.851,270.339z M367.76,319.145
			c0,0.501-0.408,0.909-0.909,0.909h-13.855c-0.501,0-0.909-0.408-0.909-0.909v-29.917c0-0.501,0.408-0.909,0.909-0.909h13.855
			c0.501,0,0.909,0.408,0.909,0.909V319.145z"/>
	</g>
</g>
<g>
	<g>
		<path d="M426.126,270.339H412.27c-10.415,0-18.89,8.474-18.89,18.89v29.917c0,10.416,8.474,18.89,18.89,18.89h13.855
			c10.415,0,18.89-8.474,18.89-18.89v-29.917C445.016,278.813,436.541,270.339,426.126,270.339z M427.035,319.145
			c0,0.501-0.408,0.909-0.909,0.909H412.27c-0.501,0-0.909-0.408-0.909-0.909v-29.917c0-0.501,0.408-0.909,0.909-0.909h13.855
			c0.501,0,0.909,0.408,0.909,0.909V319.145z"/>
	</g>
</g>
<g>
	<g>
		<path d="M256.479,270.339c-4.967,0-8.991,4.026-8.991,8.991v49.716c0,4.965,4.026,8.991,8.991,8.991
			c4.966,0,8.991-4.026,8.991-8.991v-49.716C265.47,274.364,261.445,270.339,256.479,270.339z"/>
	</g>
</g>
<g>
	<g>
		<path d="M286.308,270.339c-4.966,0-8.991,4.026-8.991,8.991v49.716c0,4.965,4.024,8.991,8.991,8.991
			c4.967,0,8.991-4.026,8.991-8.991v-49.716C295.299,274.364,291.275,270.339,286.308,270.339z"/>
	</g>
</g>
<g>
	<g>
		<path d="M137.929,270.339c-4.966,0-8.991,4.025-8.991,8.991v49.716c0,4.965,4.024,8.991,8.991,8.991
			c4.967,0,8.991-4.026,8.991-8.991v-49.716C146.919,274.364,142.894,270.339,137.929,270.339z"/>
	</g>
</g>
<g>
	<g>
		<path d="M169.286,270.339c-4.966,0-8.991,4.026-8.991,8.991v49.716c0,4.965,4.024,8.991,8.991,8.991
			c4.967,0,8.991-4.026,8.991-8.991v-49.716C178.277,274.364,174.253,270.339,169.286,270.339z"/>
	</g>
</g>
<g>
	<g>
		<path d="M316.137,316.26c-4.967,0-8.991,4.025-8.991,8.991v3.794c0,4.965,4.024,8.991,8.991,8.991
			c4.966,0,8.991-4.026,8.991-8.991v-3.794C325.128,320.285,321.104,316.26,316.137,316.26z"/>
	</g>
</g>
<g>
	<g>
		<path d="M316.137,270.339c-4.967,0-8.991,4.025-8.991,8.991v21.946c0,4.965,4.024,8.991,8.991,8.991
			c4.966,0,8.991-4.026,8.991-8.991v-21.946C325.128,274.364,321.104,270.339,316.137,270.339z"/>
	</g>
</g>
<g>
	<g>
		<path d="M426.126,190.413H412.27c-10.415,0-18.89,8.474-18.89,18.889v29.918c0,10.415,8.474,18.889,18.89,18.889h13.855
			c10.415,0,18.89-8.474,18.89-18.889v-29.918C445.016,198.887,436.542,190.413,426.126,190.413z M427.035,239.22
			c0,0.5-0.408,0.907-0.909,0.907H412.27c-0.501,0-0.909-0.408-0.909-0.907v-29.918c0-0.5,0.408-0.907,0.909-0.907h13.855
			c0.501,0,0.909,0.408,0.909,0.907V239.22z"/>
	</g>
</g>
<g>
	<g>
		<path d="M315.944,211.367c-4.966,0-8.991,4.026-8.991,8.991v18.86c0,0.5-0.408,0.907-0.909,0.907h-13.855
			c-0.501,0-0.909-0.408-0.909-0.907v-29.918c0-0.5,0.408-0.907,0.909-0.907h13.855c4.967,0,8.991-4.025,8.991-8.991
			s-4.024-8.991-8.991-8.991h-13.855c-10.415,0-18.89,8.474-18.89,18.889v29.918c0,10.415,8.474,18.889,18.89,18.889h13.855
			c10.415,0.001,18.89-8.473,18.89-18.888v-18.862C324.935,215.393,320.911,211.367,315.944,211.367z"/>
	</g>
</g>
<g>
	<g>
		<path d="M159.004,190.413h-13.855c-10.415,0-18.89,8.474-18.89,18.889v29.918c0,10.415,8.474,18.889,18.89,18.889h13.855
			c10.416,0,18.89-8.474,18.89-18.889v-29.918C177.894,198.887,169.42,190.413,159.004,190.413z M159.914,239.22
			c0,0.5-0.408,0.907-0.909,0.907H145.15c-0.501,0-0.909-0.408-0.909-0.907v-29.918c0-0.5,0.408-0.907,0.909-0.907h13.855
			c0.501,0,0.909,0.408,0.909,0.907V239.22z"/>
	</g>
</g>
<g>
	<g>
		<path d="M245.622,190.413h-13.855c-10.415,0-18.89,8.474-18.89,18.889v29.918c0,10.415,8.474,18.889,18.89,18.889h13.855
			c10.416,0,18.89-8.474,18.89-18.889v-29.918C264.512,198.887,256.038,190.413,245.622,190.413z M246.531,239.22
			c0,0.5-0.408,0.907-0.909,0.907h-13.855c-0.501,0-0.909-0.408-0.909-0.907v-29.918c0-0.5,0.408-0.907,0.909-0.907h13.855
			c0.501,0,0.909,0.408,0.909,0.907V239.22z"/>
	</g>
</g>
<g>
	<g>
		<path d="M374.073,190.413c-4.966,0-8.991,4.026-8.991,8.991v49.714c0,4.965,4.024,8.991,8.991,8.991
			c4.967,0,8.991-4.026,8.991-8.991v-49.714C383.063,194.438,379.039,190.413,374.073,190.413z"/>
	</g>
</g>
<g>
	<g>
		<path d="M342.714,190.413c-4.967,0-8.991,4.026-8.991,8.991v49.714c0,4.965,4.024,8.991,8.991,8.991s8.991-4.026,8.991-8.991
			v-49.714C351.705,194.438,347.68,190.413,342.714,190.413z"/>
	</g>
</g>
<g>
	<g>
		<path d="M106.186,190.413c-4.967,0-8.991,4.026-8.991,8.991v49.714c0,4.965,4.025,8.991,8.991,8.991
			c4.966,0,8.991-4.026,8.991-8.991v-49.714C115.177,194.438,111.153,190.413,106.186,190.413z"/>
	</g>
</g>
<g>
	<g>
		<path d="M195.863,190.413c-4.967,0-8.991,4.026-8.991,8.991v49.714c0,4.965,4.024,8.991,8.991,8.991
			c4.966,0,8.991-4.026,8.991-8.991v-49.714C204.854,194.438,200.829,190.413,195.863,190.413z"/>
	</g>
</g>
<g>
	<g>
		<path d="M75.975,190.413c-4.967,0-8.991,4.026-8.991,8.991v49.714c0,4.965,4.024,8.991,8.991,8.991
			c4.966,0,8.991-4.026,8.991-8.991v-49.714C84.966,194.438,80.941,190.413,75.975,190.413z"/>
	</g>
</g>
<g>
</g>
<g>
</g>
<g>
</g>
<g>
</g>
<g>
</g>
<g>
</g>
<g>
</g>
<g>
</g>
<g>
</g>
<g>
</g>
<g>
</g>
<g>
</g>
<g>
</g>
<g>
</g>
<g>
</g>
</svg>
