<?xml version="1.0" encoding="iso-8859-1"?>
<!-- Generator: Adobe Illustrator 19.0.0, SVG Export Plug-In . SVG Version: 6.00 Build 0)  -->
<svg version="1.1" id="Layer_1" xmlns="http://www.w3.org/2000/svg" xmlns:xlink="http://www.w3.org/1999/xlink" x="0px" y="0px"
	 viewBox="0 0 512 512" style="enable-background:new 0 0 512 512;" xml:space="preserve">
<g>
	<g>
		<path d="M503.009,64.167H8.991C4.024,64.167,0,68.193,0,73.158v106.691c0,4.965,4.024,8.991,8.991,8.991
			c4.967,0,8.991-4.026,8.991-8.991v-97.7h476.037v347.702h-19.66c-4.967,0-8.991,4.025-8.991,8.991s4.024,8.991,8.991,8.991h28.651
			c4.966,0,8.991-4.025,8.991-8.991V73.158C512,68.193,507.975,64.167,503.009,64.167z"/>
	</g>
</g>
<g>
	<g>
		<path d="M442.59,429.851H17.982V213.415c0-4.965-4.024-8.991-8.991-8.991c-4.966,0-8.991,4.026-8.991,8.991v225.427
			c0,4.965,4.024,8.991,8.991,8.991H442.59c4.967,0,8.991-4.025,8.991-8.991S447.556,429.851,442.59,429.851z"/>
	</g>
</g>
<g>
	<g>
		<path d="M475.077,119.311H36.925c-4.966,0-8.991,4.026-8.991,8.991s4.024,8.991,8.991,8.991h438.152
			c4.966,0,8.991-4.025,8.991-8.991S480.043,119.311,475.077,119.311z"/>
	</g>
</g>
<g>
	<g>
		<circle cx="39.202" cy="101.932" r="8.991"/>
	</g>
</g>
<g>
	<g>
		<circle cx="97.34" cy="101.932" r="8.991"/>
	</g>
</g>
<g>
	<g>
		<circle cx="68.273" cy="101.932" r="8.991"/>
	</g>
</g>
<g>
	<g>
		<path d="M224.914,161.867H108.039c-4.966,0-8.991,4.025-8.991,8.991s4.024,8.991,8.991,8.991h116.875
			c4.966,0,8.991-4.025,8.991-8.991S229.88,161.867,224.914,161.867z"/>
	</g>
</g>
<g>
	<g>
		<path d="M224.914,193.547h-44.952c-4.966,0-8.991,4.025-8.991,8.991s4.024,8.991,8.991,8.991h44.952
			c4.966,0,8.991-4.026,8.991-8.991S229.88,193.547,224.914,193.547z"/>
	</g>
</g>
<g>
	<g>
		<path d="M151.193,193.547h-24.606c-4.967,0-8.991,4.025-8.991,8.991s4.024,8.991,8.991,8.991h24.606
			c4.966,0,8.991-4.026,8.991-8.991S156.159,193.547,151.193,193.547z"/>
	</g>
</g>
<g>
	<g>
		<path d="M224.914,225.227h-73.721c-4.967,0-8.991,4.026-8.991,8.991c0,4.965,4.024,8.991,8.991,8.991h73.721
			c4.966,0,8.991-4.026,8.991-8.991C233.905,229.253,229.88,225.227,224.914,225.227z"/>
	</g>
</g>
<g>
	<g>
		<path d="M224.914,256.907h-26.971c-4.967,0-8.991,4.026-8.991,8.991c0,4.965,4.024,8.991,8.991,8.991h26.971
			c4.966,0,8.991-4.026,8.991-8.991C233.905,260.933,229.88,256.907,224.914,256.907z"/>
	</g>
</g>
<g>
	<g>
		<path d="M170.786,256.907h-50.572c-4.965,0-8.991,4.026-8.991,8.991c0,4.965,4.024,8.991,8.991,8.991h50.572
			c4.966,0,8.991-4.026,8.991-8.991C179.777,260.933,175.752,256.907,170.786,256.907z"/>
	</g>
</g>
<g>
	<g>
		<path d="M224.914,288.587H70.279c-4.967,0-8.991,4.026-8.991,8.991s4.024,8.991,8.991,8.991h154.635
			c4.966,0,8.991-4.025,8.991-8.991S229.88,288.587,224.914,288.587z"/>
	</g>
</g>
<g>
	<g>
		<path d="M224.914,320.267h-44.952c-4.966,0-8.991,4.026-8.991,8.991s4.024,8.991,8.991,8.991h44.952
			c4.966,0,8.991-4.025,8.991-8.991S229.88,320.267,224.914,320.267z"/>
	</g>
</g>
<g>
	<g>
		<path d="M224.914,351.947h-86.308c-4.966,0-8.991,4.025-8.991,8.991s4.024,8.991,8.991,8.991h86.308
			c4.966,0,8.991-4.025,8.991-8.991S229.88,351.947,224.914,351.947z"/>
	</g>
</g>
<g>
	<g>
		<path d="M224.914,383.626h-44.952c-4.966,0-8.991,4.025-8.991,8.991s4.024,8.991,8.991,8.991h44.952
			c4.966,0,8.991-4.025,8.991-8.991S229.88,383.626,224.914,383.626z"/>
	</g>
</g>
<g>
	<g>
		<path d="M325.605,161.867h-55.739c-4.967,0-8.991,4.025-8.991,8.991s4.026,8.991,8.991,8.991h55.739
			c4.966,0,8.991-4.025,8.991-8.991S330.572,161.867,325.605,161.867z"/>
	</g>
</g>
<g>
	<g>
		<path d="M379.547,193.547H269.866c-4.967,0-8.991,4.025-8.991,8.991s4.026,8.991,8.991,8.991h109.682
			c4.966,0,8.991-4.026,8.991-8.991S384.514,193.547,379.547,193.547z"/>
	</g>
</g>
<g>
	<g>
		<path d="M343.587,225.227h-73.721c-4.967,0-8.991,4.026-8.991,8.991c0,4.965,4.026,8.991,8.991,8.991h73.721
			c4.967,0,8.991-4.026,8.991-8.991C352.577,229.253,348.553,225.227,343.587,225.227z"/>
	</g>
</g>
<g>
	<g>
		<path d="M377.749,256.907H269.866c-4.967,0-8.991,4.026-8.991,8.991c0,4.965,4.024,8.991,8.991,8.991h107.884
			c4.966,0,8.991-4.026,8.991-8.991C386.74,260.933,382.716,256.907,377.749,256.907z"/>
	</g>
</g>
<g>
	<g>
		<path d="M313.019,288.587h-43.154c-4.966,0-8.991,4.026-8.991,8.991s4.024,8.991,8.991,8.991h43.154
			c4.966,0,8.991-4.025,8.991-8.991S317.986,288.587,313.019,288.587z"/>
	</g>
</g>
<g>
	<g>
		<path d="M408.317,288.587H339.99c-4.966,0-8.991,4.026-8.991,8.991s4.025,8.991,8.991,8.991h68.327
			c4.967,0,8.991-4.025,8.991-8.991S413.283,288.587,408.317,288.587z"/>
	</g>
</g>
<g>
	<g>
		<path d="M460.461,320.267H269.866c-4.966,0-8.991,4.026-8.991,8.991s4.024,8.991,8.991,8.991h190.596
			c4.966,0,8.991-4.025,8.991-8.991S465.428,320.267,460.461,320.267z"/>
	</g>
</g>
<g>
	<g>
		<path d="M393.932,351.947H269.866c-4.966,0-8.991,4.025-8.991,8.991s4.024,8.991,8.991,8.991h124.066
			c4.966,0,8.991-4.025,8.991-8.991S398.898,351.947,393.932,351.947z"/>
	</g>
</g>
<g>
	<g>
		<path d="M348.98,383.626h-79.114c-4.966,0-8.991,4.025-8.991,8.991s4.024,8.991,8.991,8.991h79.114
			c4.967,0,8.991-4.025,8.991-8.991S353.946,383.626,348.98,383.626z"/>
	</g>
</g>
<g>
</g>
<g>
</g>
<g>
</g>
<g>
</g>
<g>
</g>
<g>
</g>
<g>
</g>
<g>
</g>
<g>
</g>
<g>
</g>
<g>
</g>
<g>
</g>
<g>
</g>
<g>
</g>
<g>
</g>
</svg>
