<?xml version="1.0" encoding="iso-8859-1"?>
<!-- Generator: Adobe Illustrator 19.0.0, SVG Export Plug-In . SVG Version: 6.00 Build 0)  -->
<svg version="1.1" id="Layer_1" xmlns="http://www.w3.org/2000/svg" xmlns:xlink="http://www.w3.org/1999/xlink" x="0px" y="0px"
	 viewBox="0 0 512 512" style="enable-background:new 0 0 512 512;" xml:space="preserve">
<g>
	<g>
		<path d="M503.009,64.167H8.991C4.026,64.167,0,68.193,0,73.158v106.691c0,4.965,4.026,8.991,8.991,8.991
			c4.965,0,8.991-4.026,8.991-8.991v-97.7h476.037v347.702h-19.661c-4.965,0-8.991,4.025-8.991,8.991s4.025,8.991,8.991,8.991
			h28.652c4.965,0,8.991-4.025,8.991-8.991V73.158C512,68.193,507.975,64.167,503.009,64.167z"/>
	</g>
</g>
<g>
	<g>
		<path d="M442.59,429.852H17.982V213.415c0-4.965-4.026-8.991-8.991-8.991c-4.965,0-8.991,4.026-8.991,8.991v225.427
			c0,4.965,4.026,8.991,8.991,8.991H442.59c4.965,0,8.991-4.025,8.991-8.991S447.555,429.852,442.59,429.852z"/>
	</g>
</g>
<g>
	<g>
		<path d="M475.077,119.311H36.925c-4.965,0-8.991,4.026-8.991,8.991s4.025,8.991,8.991,8.991h438.152
			c4.965,0,8.991-4.025,8.991-8.991S480.042,119.311,475.077,119.311z"/>
	</g>
</g>
<g>
	<g>
		<circle cx="39.202" cy="101.932" r="8.991"/>
	</g>
</g>
<g>
	<g>
		<circle cx="97.34" cy="101.932" r="8.991"/>
	</g>
</g>
<g>
	<g>
		<circle cx="68.273" cy="101.932" r="8.991"/>
	</g>
</g>
<g>
	<g>
		<path d="M107.659,164.84H57.313c-4.965,0-8.991,4.025-8.991,8.991v50.346c0,4.965,4.026,8.991,8.991,8.991h50.346
			c4.965,0,8.991-4.025,8.991-8.991v-50.346C116.65,168.866,112.625,164.84,107.659,164.84z M98.669,215.187H66.304v-32.365h32.365
			V215.187z"/>
	</g>
</g>
<g>
	<g>
		<circle cx="82.486" cy="199.009" r="8.991"/>
	</g>
</g>
<g>
	<g>
		<path d="M454.687,172.033H150.813c-4.965,0-8.991,4.026-8.991,8.991c0,4.965,4.026,8.991,8.991,8.991h303.875
			c4.965,0,8.991-4.026,8.991-8.991C463.679,176.059,459.653,172.033,454.687,172.033z"/>
	</g>
</g>
<g>
	<g>
		<path d="M291.062,209.792H150.813c-4.965,0-8.991,4.026-8.991,8.991s4.026,8.991,8.991,8.991h140.249
			c4.965,0,8.991-4.025,8.991-8.991S296.028,209.792,291.062,209.792z"/>
	</g>
</g>
<g>
	<g>
		<path d="M107.659,250.251H57.313c-4.965,0-8.991,4.025-8.991,8.991v50.346c0,4.965,4.026,8.991,8.991,8.991h50.346
			c4.965,0,8.991-4.026,8.991-8.991v-50.346C116.65,254.276,112.625,250.251,107.659,250.251z M98.669,300.597H66.304v-32.365
			h32.365V300.597z"/>
	</g>
</g>
<g>
	<g>
		<circle cx="82.486" cy="284.41" r="8.991"/>
	</g>
</g>
<g>
	<g>
		<path d="M454.687,257.443H290.369c-4.965,0-8.991,4.025-8.991,8.991s4.025,8.991,8.991,8.991h164.318
			c4.965,0,8.991-4.026,8.991-8.991S459.653,257.443,454.687,257.443z"/>
	</g>
</g>
<g>
	<g>
		<path d="M264.396,257.443H150.813c-4.965,0-8.991,4.025-8.991,8.991s4.026,8.991,8.991,8.991h113.583
			c4.965,0,8.991-4.026,8.991-8.991S269.361,257.443,264.396,257.443z"/>
	</g>
</g>
<g>
	<g>
		<path d="M291.062,295.202H150.813c-4.965,0-8.991,4.026-8.991,8.991c0,4.965,4.026,8.991,8.991,8.991h140.249
			c4.965,0,8.991-4.025,8.991-8.991S296.028,295.202,291.062,295.202z"/>
	</g>
</g>
<g>
	<g>
		<path d="M107.659,335.661H57.313c-4.965,0-8.991,4.025-8.991,8.991v50.346c0,4.965,4.026,8.991,8.991,8.991h50.346
			c4.965,0,8.991-4.025,8.991-8.991v-50.346C116.65,339.686,112.625,335.661,107.659,335.661z M98.669,386.007H66.304v-32.365
			h32.365V386.007z"/>
	</g>
</g>
<g>
	<g>
		<path d="M454.687,342.854H386.27c-4.965,0-8.991,4.026-8.991,8.991c0,4.965,4.025,8.991,8.991,8.991h68.416
			c4.965,0,8.991-4.026,8.991-8.991C463.677,346.879,459.653,342.854,454.687,342.854z"/>
	</g>
</g>
<g>
	<g>
		<path d="M361.495,342.854H150.813c-4.965,0-8.991,4.026-8.991,8.991c0,4.965,4.026,8.991,8.991,8.991h210.683
			c4.964,0,8.99-4.026,8.99-8.991C370.486,346.879,366.46,342.854,361.495,342.854z"/>
	</g>
</g>
<g>
	<g>
		<path d="M291.062,380.613H150.813c-4.965,0-8.991,4.025-8.991,8.991s4.026,8.991,8.991,8.991h140.249
			c4.965,0,8.991-4.025,8.991-8.991S296.028,380.613,291.062,380.613z"/>
	</g>
</g>
<g>
</g>
<g>
</g>
<g>
</g>
<g>
</g>
<g>
</g>
<g>
</g>
<g>
</g>
<g>
</g>
<g>
</g>
<g>
</g>
<g>
</g>
<g>
</g>
<g>
</g>
<g>
</g>
<g>
</g>
</svg>
