<?xml version="1.0" encoding="iso-8859-1"?>
<!-- Generator: Adobe Illustrator 19.0.0, SVG Export Plug-In . SVG Version: 6.00 Build 0)  -->
<svg version="1.1" id="Layer_1" xmlns="http://www.w3.org/2000/svg" xmlns:xlink="http://www.w3.org/1999/xlink" x="0px" y="0px"
	 viewBox="0 0 512 512" style="enable-background:new 0 0 512 512;" xml:space="preserve">
<g>
	<g>
		<path d="M503.009,64.167H8.991C4.026,64.167,0,68.193,0,73.158v106.691c0,4.965,4.026,8.991,8.991,8.991
			c4.965,0,8.991-4.026,8.991-8.991v-97.7h476.037v347.702h-19.661c-4.965,0-8.991,4.025-8.991,8.991s4.025,8.991,8.991,8.991
			h28.652c4.965,0,8.991-4.025,8.991-8.991V73.158C512,68.193,507.975,64.167,503.009,64.167z"/>
	</g>
</g>
<g>
	<g>
		<path d="M475.075,119.311H36.923c-4.965,0-8.991,4.026-8.991,8.991s4.026,8.991,8.991,8.991h438.152
			c4.965,0,8.991-4.025,8.991-8.991S480.041,119.311,475.075,119.311z"/>
	</g>
</g>
<g>
	<g>
		<circle cx="39.202" cy="101.932" r="8.991"/>
	</g>
</g>
<g>
	<g>
		<circle cx="97.34" cy="101.932" r="8.991"/>
	</g>
</g>
<g>
	<g>
		<circle cx="68.273" cy="101.932" r="8.991"/>
	</g>
</g>
<g>
	<g>
		<path d="M201.533,189.663c-2.781-1.243-6.003-0.995-8.562,0.663c-2.557,1.657-4.101,4.497-4.101,7.544v53.486l-20.832,12.328
			l-20.831-12.328V197.87c0-3.047-1.544-5.887-4.101-7.544c-2.557-1.658-5.782-1.907-8.562-0.663
			c-29.543,13.215-48.632,42.648-48.632,74.982c0,30.89,17.228,58.899,44.365,72.942v69.993c0,4.965,4.026,8.991,8.991,8.991
			c4.965,0,8.991-4.026,8.991-8.991v-75.683c0-3.598-2.145-6.849-5.451-8.264c-23.64-10.126-38.915-33.279-38.915-58.986
			c0-20.269,9.605-39.078,25.33-51.052v42.889c0,3.178,1.677,6.119,4.411,7.738l29.822,17.648c2.824,1.671,6.334,1.671,9.159,0
			l29.823-17.648c2.734-1.618,4.411-4.56,4.411-7.738v-42.889c15.723,11.975,25.33,30.785,25.33,51.052
			c0.001,25.707-15.274,48.86-38.913,58.986c-3.306,1.417-5.451,4.668-5.451,8.264v75.683c0,4.965,4.026,8.991,8.991,8.991
			c4.965,0,8.991-4.026,8.991-8.991v-69.993c27.138-14.041,44.365-42.052,44.365-72.942
			C250.164,232.312,231.076,202.88,201.533,189.663z"/>
	</g>
</g>
<g>
	<g>
		<path d="M430.558,200.802h-15.117c-4.965,0-8.991,4.026-8.991,8.991c0,4.965,4.026,8.991,8.991,8.991h6.126v57.538H284.914V265.72
			c24.044-3.852,43.084-22.892,46.936-46.936h53.621c4.965,0,8.991-4.025,8.991-8.991s-4.025-8.991-8.991-8.991h-61.9
			c-4.965,0-8.991,4.025-8.991,8.991c0,21.317-17.341,38.658-38.658,38.658c-4.965,0-8.991,4.025-8.991,8.991v27.87
			c0,4.965,4.025,8.991,8.991,8.991h50.346v113.278c0,4.965,4.025,8.991,8.991,8.991s8.991-4.026,8.991-8.991V294.303h34.163
			v113.278c0,4.965,4.025,8.991,8.991,8.991s8.991-4.026,8.991-8.991V294.303h34.164c4.965,0,8.991-4.025,8.991-8.991v-75.519
			C439.548,204.828,435.523,200.802,430.558,200.802z"/>
	</g>
</g>
<g>
	<g>
		<path d="M442.59,429.852H17.982V213.415c0-4.965-4.026-8.991-8.991-8.991c-4.965,0-8.991,4.026-8.991,8.991v225.427
			c0,4.965,4.026,8.991,8.991,8.991H442.59c4.965,0,8.991-4.025,8.991-8.991S447.555,429.852,442.59,429.852z"/>
	</g>
</g>
<g>
</g>
<g>
</g>
<g>
</g>
<g>
</g>
<g>
</g>
<g>
</g>
<g>
</g>
<g>
</g>
<g>
</g>
<g>
</g>
<g>
</g>
<g>
</g>
<g>
</g>
<g>
</g>
<g>
</g>
</svg>
