<?xml version="1.0" encoding="iso-8859-1"?>
<!-- Generator: Adobe Illustrator 19.0.0, SVG Export Plug-In . SVG Version: 6.00 Build 0)  -->
<svg version="1.1" id="Layer_1" xmlns="http://www.w3.org/2000/svg" xmlns:xlink="http://www.w3.org/1999/xlink" x="0px" y="0px"
	 viewBox="0 0 512 512" style="enable-background:new 0 0 512 512;" xml:space="preserve">
<g>
	<g>
		<path d="M503.009,64.167H8.991C4.026,64.167,0,68.193,0,73.158v106.691c0,4.965,4.026,8.991,8.991,8.991
			c4.965,0,8.991-4.026,8.991-8.991v-97.7h476.037v347.702h-19.66c-4.967,0-8.991,4.025-8.991,8.991s4.024,8.991,8.991,8.991h28.651
			c4.966,0,8.991-4.025,8.991-8.991V73.158C512,68.193,507.975,64.167,503.009,64.167z"/>
	</g>
</g>
<g>
	<g>
		<path d="M442.59,429.851H17.982V213.415c0-4.965-4.026-8.991-8.991-8.991c-4.965,0-8.991,4.026-8.991,8.991v225.427
			c0,4.965,4.026,8.991,8.991,8.991H442.59c4.967,0,8.991-4.025,8.991-8.991S447.556,429.851,442.59,429.851z"/>
	</g>
</g>
<g>
	<g>
		<path d="M475.075,119.311H36.923c-4.965,0-8.991,4.026-8.991,8.991s4.026,8.991,8.991,8.991h438.152
			c4.966,0,8.991-4.025,8.991-8.991S480.042,119.311,475.075,119.311z"/>
	</g>
</g>
<g>
	<g>
		<circle cx="39.202" cy="101.932" r="8.991"/>
	</g>
</g>
<g>
	<g>
		<circle cx="97.34" cy="101.932" r="8.991"/>
	</g>
</g>
<g>
	<g>
		<circle cx="68.273" cy="101.932" r="8.991"/>
	</g>
</g>
<g>
	<g>
		<path d="M425.027,211.336H290.769c-4.966,0-8.991,4.025-8.991,8.991s4.024,8.991,8.991,8.991h18.577v88.709H95.964v-88.709
			h165.434c4.965,0,8.991-4.025,8.991-8.991s-4.024-8.991-8.991-8.991H86.972c-4.965,0-8.991,4.025-8.991,8.991v106.691
			c0,4.965,4.026,8.991,8.991,8.991h338.054c4.967,0,8.991-4.026,8.991-8.991V220.327
			C434.017,215.362,429.993,211.336,425.027,211.336z M416.037,318.027h-88.709v-88.709h88.709V318.027z"/>
	</g>
</g>
<g>
	<g>
		<path d="M404.279,292.35l-9.905-9.904c5.656-11.042,3.88-24.94-5.353-34.173h-0.001c-11.451-11.449-30.083-11.451-41.535,0
			c-11.451,11.452-11.451,30.084,0,41.535c5.725,5.725,13.246,8.588,20.768,8.588c4.607,0,9.21-1.086,13.406-3.236l9.904,9.904
			c1.756,1.755,4.058,2.634,6.358,2.634s4.602-0.878,6.358-2.634C407.791,301.553,407.791,295.86,404.279,292.35z M376.31,277.089
			c-0.001,0.001-0.002,0.002-0.004,0.004c-0.001,0.001-0.001,0.001-0.002,0.002c-4.441,4.437-11.664,4.438-16.103-0.001
			c-4.44-4.44-4.44-11.665,0-16.107c2.22-2.22,5.136-3.33,8.052-3.33s5.833,1.11,8.055,3.33
			C380.745,265.426,380.746,272.65,376.31,277.089z"/>
	</g>
</g>
<g>
	<g>
		<path d="M158.904,291.055h-44.355c-4.965,0-8.991,4.026-8.991,8.991c0,4.965,4.026,8.991,8.991,8.991h44.355
			c4.965,0,8.991-4.026,8.991-8.991C167.894,295.08,163.869,291.055,158.904,291.055z"/>
	</g>
</g>
<g>
</g>
<g>
</g>
<g>
</g>
<g>
</g>
<g>
</g>
<g>
</g>
<g>
</g>
<g>
</g>
<g>
</g>
<g>
</g>
<g>
</g>
<g>
</g>
<g>
</g>
<g>
</g>
<g>
</g>
</svg>
