<?xml version="1.0" encoding="iso-8859-1"?>
<!-- Generator: Adobe Illustrator 19.0.0, SVG Export Plug-In . SVG Version: 6.00 Build 0)  -->
<svg version="1.1" id="Layer_1" xmlns="http://www.w3.org/2000/svg" xmlns:xlink="http://www.w3.org/1999/xlink" x="0px" y="0px"
	 viewBox="0 0 512 512" style="enable-background:new 0 0 512 512;" xml:space="preserve">
<g>
	<g>
		<path d="M503.009,64.167H8.991C4.026,64.167,0,68.193,0,73.158v106.691c0,4.965,4.026,8.991,8.991,8.991
			c4.965,0,8.991-4.026,8.991-8.991v-97.7h476.037v347.702h-19.661c-4.965,0-8.991,4.025-8.991,8.991s4.025,8.991,8.991,8.991
			h28.652c4.965,0,8.991-4.025,8.991-8.991V73.158C512,68.193,507.975,64.167,503.009,64.167z"/>
	</g>
</g>
<g>
	<g>
		<path d="M442.59,429.852H17.982V213.415c0-4.965-4.026-8.991-8.991-8.991c-4.965,0-8.991,4.026-8.991,8.991v225.427
			c0,4.965,4.026,8.991,8.991,8.991H442.59c4.965,0,8.991-4.025,8.991-8.991S447.555,429.852,442.59,429.852z"/>
	</g>
</g>
<g>
	<g>
		<path d="M475.075,119.311H36.923c-4.965,0-8.991,4.026-8.991,8.991s4.026,8.991,8.991,8.991h438.152
			c4.965,0,8.991-4.025,8.991-8.991S480.041,119.311,475.075,119.311z"/>
	</g>
</g>
<g>
	<g>
		<circle cx="39.202" cy="101.932" r="8.991"/>
	</g>
</g>
<g>
	<g>
		<circle cx="97.34" cy="101.932" r="8.991"/>
	</g>
</g>
<g>
	<g>
		<circle cx="68.273" cy="101.932" r="8.991"/>
	</g>
</g>
<g>
	<g>
		<path d="M464.591,168.045H47.406c-4.965,0-8.991,4.026-8.991,8.991v211.404c0,4.965,4.025,8.991,8.991,8.991h265.34
			c4.965,0,8.991-4.025,8.991-8.991s-4.025-8.991-8.991-8.991h-47.751v-87.726h90.16v87.726h-15.236
			c-4.965,0-8.991,4.026-8.991,8.991s4.026,8.991,8.991,8.991h124.672c4.965,0,8.991-4.025,8.991-8.991V177.036
			C473.582,172.07,469.556,168.045,464.591,168.045z M138.86,379.449H56.396v-87.726h82.464V379.449z M147.85,232.348
			c-4.965,0-8.991,4.025-8.991,8.991v32.402H56.395v-87.714h82.464v26.342c0,4.965,4.025,8.991,8.991,8.991s8.991-4.025,8.991-8.991
			v-26.342h90.172v87.714H156.84v-32.402C156.84,236.374,152.815,232.348,147.85,232.348z M247.013,379.449h-90.172v-87.726h90.172
			V379.449z M455.6,379.449h-82.464v-87.726H455.6V379.449z M455.6,273.741h-82.464v-72.562c0-4.965-4.026-8.991-8.991-8.991
			c-4.965,0-8.991,4.025-8.991,8.991v72.562h-90.16v-87.714H455.6V273.741z"/>
	</g>
</g>
<g>
	<g>
		<path d="M214.772,230.199l17.618-17.618c3.511-3.511,3.511-9.204,0-12.714c-3.511-3.511-9.204-3.511-12.714,0l-17.618,17.618
			l-17.618-17.618c-3.511-3.511-9.204-3.511-12.714,0c-3.511,3.511-3.511,9.204,0,12.714l17.618,17.618l-17.618,17.618
			c-3.511,3.51-3.511,9.203,0,12.714c1.755,1.755,4.057,2.634,6.357,2.634c2.3,0,4.602-0.878,6.357-2.634l17.618-17.618
			l17.618,17.618c1.755,1.755,4.057,2.634,6.357,2.634c2.3,0,4.602-0.878,6.357-2.634c3.511-3.511,3.511-9.204,0-12.714
			L214.772,230.199z"/>
	</g>
</g>
<g>
	<g>
		<path d="M438.817,303.323h-47.951c-4.965,0-8.991,4.025-8.991,8.991v47.951c0,4.965,4.025,8.991,8.991,8.991h47.951
			c4.965,0,8.991-4.026,8.991-8.991v-47.951C447.808,307.348,443.783,303.323,438.817,303.323z M429.826,351.274h-29.969v-29.969
			h29.969V351.274z"/>
	</g>
</g>
<g>
</g>
<g>
</g>
<g>
</g>
<g>
</g>
<g>
</g>
<g>
</g>
<g>
</g>
<g>
</g>
<g>
</g>
<g>
</g>
<g>
</g>
<g>
</g>
<g>
</g>
<g>
</g>
<g>
</g>
</svg>
