<?xml version="1.0" encoding="iso-8859-1"?>
<!-- Generator: Adobe Illustrator 19.0.0, SVG Export Plug-In . SVG Version: 6.00 Build 0)  -->
<svg version="1.1" id="Layer_1" xmlns="http://www.w3.org/2000/svg" xmlns:xlink="http://www.w3.org/1999/xlink" x="0px" y="0px"
	 viewBox="0 0 512 512" style="enable-background:new 0 0 512 512;" xml:space="preserve">
<g>
	<g>
		<path d="M503.009,64.167H8.991C4.024,64.167,0,68.193,0,73.158v106.691c0,4.965,4.024,8.991,8.991,8.991
			c4.967,0,8.991-4.026,8.991-8.991v-97.7h476.037v347.702h-19.66c-4.967,0-8.991,4.025-8.991,8.991s4.024,8.991,8.991,8.991h28.651
			c4.966,0,8.991-4.025,8.991-8.991V73.158C512,68.193,507.975,64.167,503.009,64.167z"/>
	</g>
</g>
<g>
	<g>
		<path d="M442.59,429.851H17.982V213.415c0-4.965-4.024-8.991-8.991-8.991c-4.966,0-8.991,4.026-8.991,8.991v225.427
			c0,4.965,4.024,8.991,8.991,8.991H442.59c4.967,0,8.991-4.025,8.991-8.991S447.556,429.851,442.59,429.851z"/>
	</g>
</g>
<g>
	<g>
		<path d="M475.077,119.311H36.925c-4.966,0-8.991,4.026-8.991,8.991s4.024,8.991,8.991,8.991h438.152
			c4.966,0,8.991-4.025,8.991-8.991S480.043,119.311,475.077,119.311z"/>
	</g>
</g>
<g>
	<g>
		<circle cx="39.202" cy="101.932" r="8.991"/>
	</g>
</g>
<g>
	<g>
		<circle cx="97.34" cy="101.932" r="8.991"/>
	</g>
</g>
<g>
	<g>
		<circle cx="68.273" cy="101.932" r="8.991"/>
	</g>
</g>
<g>
	<g>
		<path d="M90.513,232.879v-68.671c0-4.965-4.024-8.991-8.991-8.991c-4.967,0-8.991,4.025-8.991,8.991v68.674
			c-13.984,3.934-24.268,16.795-24.268,32.018c0,18.342,14.922,33.265,33.265,33.265c18.342,0,33.265-14.922,33.265-33.265
			C114.793,249.672,104.503,236.81,90.513,232.879z M81.529,280.184c-8.427,0-15.283-6.856-15.283-15.283
			c0-8.414,6.835-15.26,15.246-15.282c0.011,0,0.022,0.001,0.032,0.001c0.013,0,0.025-0.001,0.037-0.001
			c8.413,0.017,15.251,6.865,15.251,15.282C96.812,273.328,89.956,280.184,81.529,280.184z"/>
	</g>
</g>
<g>
	<g>
		<path d="M81.523,305.658c-4.967,0-8.991,4.026-8.991,8.991v86.905c0,4.965,4.024,8.991,8.991,8.991
			c4.966,0,8.991-4.026,8.991-8.991v-86.905C90.513,309.684,86.489,305.658,81.523,305.658z"/>
	</g>
</g>
<g>
	<g>
		<path d="M168.769,155.218c-4.966,0-8.991,4.026-8.991,8.991v95.111c0,4.965,4.024,8.991,8.991,8.991
			c4.967,0,8.991-4.026,8.991-8.991v-95.111C177.76,159.243,173.736,155.218,168.769,155.218z"/>
	</g>
</g>
<g>
	<g>
		<path d="M193.037,299.065c-4.967,0-8.991,4.025-8.991,8.991c0,8.411-6.829,15.253-15.234,15.281c-0.014,0-0.029-0.002-0.043-0.002
			c-0.017,0-0.032,0.002-0.049,0.002c-8.408-0.024-15.24-6.868-15.24-15.281c0-8.427,6.856-15.283,15.283-15.283
			c4.967,0,8.991-4.026,8.991-8.991c0-4.965-4.024-8.991-8.991-8.991c-18.342,0-33.265,14.922-33.265,33.265
			c0,15.229,10.29,28.091,24.28,32.022v61.477c0,4.965,4.025,8.991,8.991,8.991c4.967,0,8.991-4.026,8.991-8.991v-61.48
			c13.984-3.934,24.268-16.795,24.268-32.018C202.028,303.09,198.004,299.065,193.037,299.065z"/>
	</g>
</g>
<g>
	<g>
		<path d="M256.004,155.218c-4.967,0-8.991,4.025-8.991,8.991V303.86c0,4.965,4.024,8.991,8.991,8.991
			c4.966,0,8.991-4.026,8.991-8.991V164.209C264.995,159.243,260.971,155.218,256.004,155.218z"/>
	</g>
</g>
<g>
	<g>
		<path d="M256.001,326.115c-18.342,0-33.265,14.922-33.265,33.265c0,15.228,10.289,28.09,24.278,32.02v10.154
			c0,4.965,4.024,8.991,8.991,8.991c4.966,0,8.991-4.026,8.991-8.991v-10.155c13.985-3.934,24.27-16.794,24.27-32.019
			C289.265,341.037,274.343,326.115,256.001,326.115z M256.001,374.663c-8.427,0-15.283-6.856-15.283-15.283
			s6.856-15.283,15.283-15.283c8.427,0,15.283,6.856,15.283,15.283S264.428,374.663,256.001,374.663z"/>
	</g>
</g>
<g>
	<g>
		<path d="M352.229,196.921v-32.712c0-4.965-4.024-8.991-8.991-8.991c-4.966,0-8.991,4.025-8.991,8.991v32.711
			c-13.987,3.932-24.276,16.794-24.276,32.02c0,15.227,10.289,28.089,24.276,32.02v53.688c0,4.965,4.024,8.991,8.991,8.991
			c4.967,0,8.991-4.025,8.991-8.991v-53.69c13.985-3.933,24.272-16.794,24.272-32.019
			C376.5,213.714,366.214,200.855,352.229,196.921z M343.235,244.223c-8.427,0-15.283-6.856-15.283-15.283
			c0-8.424,6.85-15.276,15.272-15.282c0.005,0,0.008,0,0.013,0c0.004,0,0.007,0,0.011,0c8.421,0.007,15.27,6.859,15.27,15.282
			C358.519,237.367,351.663,244.223,343.235,244.223z"/>
	</g>
</g>
<g>
	<g>
		<path d="M343.238,334.427c-4.966,0-8.991,4.025-8.991,8.991v58.136c0,4.965,4.024,8.991,8.991,8.991
			c4.967,0,8.991-4.026,8.991-8.991v-58.136C352.229,338.453,348.204,334.427,343.238,334.427z"/>
	</g>
</g>
<g>
	<g>
		<path d="M439.465,232.882v-68.673c0-4.965-4.024-8.991-8.991-8.991c-4.967,0-8.991,4.025-8.991,8.991v68.672
			c-13.987,3.933-24.275,16.794-24.275,32.021c0,15.227,10.288,28.087,24.275,32.02v104.633c0,4.965,4.024,8.991,8.991,8.991
			c4.966,0,8.991-4.026,8.991-8.991V296.921c13.986-3.933,24.273-16.794,24.273-32.019
			C463.737,249.676,453.451,236.815,439.465,232.882z M430.473,280.184c-8.427,0-15.283-6.856-15.283-15.283
			c0-8.415,6.837-15.263,15.248-15.282c0.012,0,0.024,0.001,0.036,0.001c0.012,0,0.023-0.001,0.035-0.001
			c8.412,0.019,15.247,6.867,15.247,15.282C445.756,273.328,438.9,280.184,430.473,280.184z"/>
	</g>
</g>
<g>
</g>
<g>
</g>
<g>
</g>
<g>
</g>
<g>
</g>
<g>
</g>
<g>
</g>
<g>
</g>
<g>
</g>
<g>
</g>
<g>
</g>
<g>
</g>
<g>
</g>
<g>
</g>
<g>
</g>
</svg>
