<?xml version="1.0" encoding="iso-8859-1"?>
<!-- Generator: Adobe Illustrator 19.0.0, SVG Export Plug-In . SVG Version: 6.00 Build 0)  -->
<svg version="1.1" id="Layer_1" xmlns="http://www.w3.org/2000/svg" xmlns:xlink="http://www.w3.org/1999/xlink" x="0px" y="0px"
	 viewBox="0 0 512 512" style="enable-background:new 0 0 512 512;" xml:space="preserve">
<g>
	<g>
		<path d="M503.009,64.167H8.991C4.026,64.167,0,68.193,0,73.158v106.691c0,4.965,4.026,8.991,8.991,8.991
			c4.965,0,8.991-4.026,8.991-8.991v-97.7h476.037v347.702h-19.661c-4.965,0-8.991,4.025-8.991,8.991s4.025,8.991,8.991,8.991
			h28.652c4.965,0,8.991-4.025,8.991-8.991V73.158C512,68.193,507.975,64.167,503.009,64.167z"/>
	</g>
</g>
<g>
	<g>
		<path d="M442.59,429.852H17.982V213.415c0-4.965-4.026-8.991-8.991-8.991c-4.965,0-8.991,4.026-8.991,8.991v225.427
			c0,4.965,4.026,8.991,8.991,8.991H442.59c4.965,0,8.991-4.025,8.991-8.991S447.555,429.852,442.59,429.852z"/>
	</g>
</g>
<g>
	<g>
		<path d="M475.077,119.311H36.925c-4.965,0-8.991,4.026-8.991,8.991s4.025,8.991,8.991,8.991h438.152
			c4.965,0,8.991-4.025,8.991-8.991S480.042,119.311,475.077,119.311z"/>
	</g>
</g>
<g>
	<g>
		<path d="M85.955,161.867H49.991c-4.965,0-8.991,4.025-8.991,8.991s4.025,8.991,8.991,8.991h35.963
			c4.965,0,8.991-4.025,8.991-8.991S90.92,161.867,85.955,161.867z"/>
	</g>
</g>
<g>
	<g>
		<path d="M85.955,199.529H49.991c-4.965,0-8.991,4.026-8.991,8.991c0,4.965,4.025,8.991,8.991,8.991h35.963
			c4.965,0,8.991-4.026,8.991-8.991C94.945,203.555,90.92,199.529,85.955,199.529z"/>
	</g>
</g>
<g>
	<g>
		<path d="M85.955,237.19H49.991c-4.965,0-8.991,4.025-8.991,8.991s4.025,8.991,8.991,8.991h35.963c4.965,0,8.991-4.026,8.991-8.991
			S90.92,237.19,85.955,237.19z"/>
	</g>
</g>
<g>
	<g>
		<path d="M85.955,274.852H49.991c-4.965,0-8.991,4.026-8.991,8.991c0,4.965,4.025,8.991,8.991,8.991h35.963
			c4.965,0,8.991-4.026,8.991-8.991C94.945,278.877,90.92,274.852,85.955,274.852z"/>
	</g>
</g>
<g>
	<g>
		<path d="M85.955,312.514H49.991c-4.965,0-8.991,4.025-8.991,8.991s4.025,8.991,8.991,8.991h35.963
			c4.965,0,8.991-4.025,8.991-8.991S90.92,312.514,85.955,312.514z"/>
	</g>
</g>
<g>
	<g>
		<path d="M85.955,350.174H49.991c-4.965,0-8.991,4.025-8.991,8.991s4.025,8.991,8.991,8.991h35.963
			c4.965,0,8.991-4.026,8.991-8.991S90.92,350.174,85.955,350.174z"/>
	</g>
</g>
<g>
	<g>
		<path d="M85.955,387.836H49.991c-4.965,0-8.991,4.025-8.991,8.991s4.025,8.991,8.991,8.991h35.963
			c4.965,0,8.991-4.025,8.991-8.991S90.92,387.836,85.955,387.836z"/>
	</g>
</g>
<g>
	<g>
		<path d="M270.566,161.867H144.694c-4.965,0-8.991,4.025-8.991,8.991s4.026,8.991,8.991,8.991h125.871
			c4.965,0,8.991-4.025,8.991-8.991S275.531,161.867,270.566,161.867z"/>
	</g>
</g>
<g>
	<g>
		<path d="M448.134,199.529h-303.44c-4.965,0-8.991,4.026-8.991,8.991c0,4.965,4.026,8.991,8.991,8.991h303.44
			c4.965,0,8.991-4.026,8.991-8.991C457.125,203.555,453.099,199.529,448.134,199.529z"/>
	</g>
</g>
<g>
	<g>
		<path d="M324.511,237.19H144.694c-4.965,0-8.991,4.025-8.991,8.991s4.026,8.991,8.991,8.991h179.816
			c4.965,0,8.991-4.026,8.991-8.991S329.476,237.19,324.511,237.19z"/>
	</g>
</g>
<g>
	<g>
		<path d="M448.134,274.852h-303.44c-4.965,0-8.991,4.026-8.991,8.991c0,4.965,4.026,8.991,8.991,8.991h303.44
			c4.965,0,8.991-4.026,8.991-8.991C457.125,278.877,453.099,274.852,448.134,274.852z"/>
	</g>
</g>
<g>
	<g>
		<path d="M216.621,312.514h-71.926c-4.965,0-8.991,4.025-8.991,8.991s4.026,8.991,8.991,8.991h71.926
			c4.965,0,8.991-4.025,8.991-8.991S221.586,312.514,216.621,312.514z"/>
	</g>
</g>
<g>
	<g>
		<path d="M400.033,350.174H144.694c-4.965,0-8.991,4.025-8.991,8.991s4.026,8.991,8.991,8.991h255.339
			c4.965,0,8.991-4.025,8.991-8.991C409.024,354.2,404.999,350.174,400.033,350.174z"/>
	</g>
</g>
<g>
	<g>
		<path d="M301.734,387.836H144.694c-4.965,0-8.991,4.025-8.991,8.991s4.026,8.991,8.991,8.991h157.039
			c4.965,0,8.991-4.025,8.991-8.991S306.699,387.836,301.734,387.836z"/>
	</g>
</g>
<g>
	<g>
		<circle cx="39.202" cy="101.932" r="8.991"/>
	</g>
</g>
<g>
	<g>
		<circle cx="97.34" cy="101.932" r="8.991"/>
	</g>
</g>
<g>
	<g>
		<circle cx="68.273" cy="101.932" r="8.991"/>
	</g>
</g>
<g>
</g>
<g>
</g>
<g>
</g>
<g>
</g>
<g>
</g>
<g>
</g>
<g>
</g>
<g>
</g>
<g>
</g>
<g>
</g>
<g>
</g>
<g>
</g>
<g>
</g>
<g>
</g>
<g>
</g>
</svg>
