<?xml version="1.0" encoding="iso-8859-1"?>
<!-- Generator: Adobe Illustrator 19.0.0, SVG Export Plug-In . SVG Version: 6.00 Build 0)  -->
<svg version="1.1" id="Layer_1" xmlns="http://www.w3.org/2000/svg" xmlns:xlink="http://www.w3.org/1999/xlink" x="0px" y="0px"
	 viewBox="0 0 512 512" style="enable-background:new 0 0 512 512;" xml:space="preserve">
<g>
	<g>
		<path d="M503.009,64.167H8.991C4.026,64.167,0,68.193,0,73.158v106.691c0,4.965,4.026,8.991,8.991,8.991
			c4.965,0,8.991-4.026,8.991-8.991v-97.7h476.037v347.702h-19.66c-4.967,0-8.991,4.025-8.991,8.991s4.024,8.991,8.991,8.991h28.651
			c4.966,0,8.991-4.025,8.991-8.991V73.158C512,68.193,507.975,64.167,503.009,64.167z"/>
	</g>
</g>
<g>
	<g>
		<path d="M442.59,429.851H17.982V213.415c0-4.965-4.026-8.991-8.991-8.991c-4.965,0-8.991,4.026-8.991,8.991v225.427
			c0,4.965,4.026,8.991,8.991,8.991H442.59c4.967,0,8.991-4.025,8.991-8.991S447.556,429.851,442.59,429.851z"/>
	</g>
</g>
<g>
	<g>
		<path d="M475.075,119.311H36.923c-4.965,0-8.991,4.026-8.991,8.991s4.026,8.991,8.991,8.991h438.152
			c4.966,0,8.991-4.025,8.991-8.991S480.042,119.311,475.075,119.311z"/>
	</g>
</g>
<g>
	<g>
		<circle cx="39.202" cy="101.932" r="8.991"/>
	</g>
</g>
<g>
	<g>
		<circle cx="97.34" cy="101.932" r="8.991"/>
	</g>
</g>
<g>
	<g>
		<circle cx="68.273" cy="101.932" r="8.991"/>
	</g>
</g>
<g>
	<g>
		<path d="M234.75,203.253c-3.687-1.213-7.738,0.077-10.045,3.201l-15.632,21.181l-15.632-21.181
			c-2.306-3.124-6.359-4.415-10.045-3.201c-3.689,1.213-6.181,4.657-6.181,8.54v55.144c0,4.965,4.025,8.991,8.991,8.991
			s8.991-4.026,8.991-8.991v-27.821l6.641,8.999c1.695,2.297,4.38,3.651,7.235,3.651c2.854,0,5.539-1.355,7.235-3.651l6.641-8.999
			v27.821c0,4.965,4.025,8.991,8.991,8.991s8.991-4.025,8.991-8.991v-55.144C240.931,207.91,238.439,204.466,234.75,203.253z"/>
	</g>
</g>
<g>
	<g>
		<path d="M141.55,202.801c-13.001,0-23.576,10.577-23.576,23.576v25.974c0,13,10.577,23.576,23.576,23.576
			s23.576-10.577,23.576-23.576v-25.974C165.126,213.378,154.551,202.801,141.55,202.801z M147.144,252.351
			c0,3.084-2.509,5.595-5.595,5.595c-3.086,0-5.595-2.51-5.595-5.595v-25.974c0-3.084,2.51-5.595,5.595-5.595
			c3.084,0,5.595,2.51,5.595,5.595V252.351z"/>
	</g>
</g>
<g>
	<g>
		<path d="M97.99,243.361c-4.965,0-8.991,4.026-8.991,8.991c0,3.084-2.51,5.595-5.595,5.595c-3.084,0-5.595-2.51-5.595-5.595
			v-25.975c0-3.084,2.509-5.594,5.595-5.594c3.084,0,5.595,2.509,5.595,5.595c0,4.965,4.025,8.991,8.991,8.991
			s8.991-4.026,8.991-8.991c0-12.999-10.577-23.576-23.576-23.576s-23.576,10.576-23.576,23.576v25.974
			c0,12.999,10.576,23.576,23.576,23.576c13.001,0,23.576-10.577,23.576-23.576C106.981,247.387,102.956,243.361,97.99,243.361z"/>
	</g>
</g>
<g>
	<g>
		<circle cx="46.443" cy="263.335" r="8.991"/>
	</g>
</g>
<g>
	<g>
		<path d="M346.735,202.802c-4.967,0-8.991,4.026-8.991,8.991v24.469l-18.805-29.323c-2.155-3.36-6.267-4.896-10.097-3.774
			c-3.83,1.123-6.463,4.637-6.463,8.628v55.144c0,4.965,4.024,8.991,8.991,8.991s8.991-4.025,8.991-8.991v-24.469l18.805,29.323
			c1.684,2.625,4.563,4.138,7.568,4.138c0.84,0,1.691-0.119,2.528-0.363c3.83-1.123,6.463-4.637,6.463-8.628v-55.145h0.001
			C355.725,206.827,351.701,202.802,346.735,202.802z"/>
	</g>
</g>
<g>
	<g>
		<path d="M408.471,257.946h-20.4v-9.59h8.412c4.966,0,8.991-4.025,8.991-8.991s-4.024-8.991-8.991-8.991h-8.412v-9.59h20.4
			c4.966,0,8.991-4.026,8.991-8.991c0-4.965-4.024-8.991-8.991-8.991h-29.39c-4.966,0-8.991,4.026-8.991,8.991v55.144
			c0,4.965,4.024,8.991,8.991,8.991h29.39c4.966,0,8.991-4.026,8.991-8.991C417.462,261.971,413.438,257.946,408.471,257.946z"/>
	</g>
</g>
<g>
	<g>
		<path d="M463.67,202.802h-29.39c-4.967,0-8.991,4.026-8.991,8.991c0,4.965,4.024,8.991,8.991,8.991h5.705v46.153
			c0,4.965,4.024,8.991,8.991,8.991c4.967,0,8.991-4.026,8.991-8.991v-46.153h5.704c4.967,0,8.991-4.026,8.991-8.991
			C472.661,206.827,468.637,202.802,463.67,202.802z"/>
	</g>
</g>
<g>
	<g>
		<circle cx="284.997" cy="263.335" r="8.991"/>
	</g>
</g>
<g>
	<g>
		<path d="M216.041,296.481c-12.999,0-23.576,10.576-23.576,23.576v25.974c0,13,10.577,23.576,23.576,23.576
			s23.576-10.576,23.576-23.576v-25.974C239.617,307.057,229.041,296.481,216.041,296.481z M221.635,346.032
			c0,3.084-2.509,5.595-5.595,5.595s-5.595-2.509-5.595-5.595v-25.974c0-3.084,2.51-5.595,5.595-5.595
			c3.084,0,5.595,2.509,5.595,5.595V346.032z"/>
	</g>
</g>
<g>
	<g>
		<path d="M345.708,337.041c-4.967,0-8.991,4.025-8.991,8.991c0,3.084-2.51,5.595-5.595,5.595c-3.084,0-5.593-2.509-5.593-5.595
			v-25.974c0-3.086,2.509-5.595,5.593-5.595c3.084,0,5.595,2.509,5.595,5.595c0,4.965,4.024,8.991,8.991,8.991
			c4.967,0,8.991-4.026,8.991-8.991c0-13-10.576-23.576-23.576-23.576c-13,0-23.575,10.576-23.575,23.576v25.974
			c0,13,10.576,23.576,23.575,23.576c1.952,0,3.848-0.239,5.664-0.688c0.55,4.439,4.335,7.874,8.921,7.874
			c4.966,0,8.991-4.026,8.991-8.991v-21.771C354.699,341.066,350.675,337.041,345.708,337.041z"/>
	</g>
</g>
<g>
	<g>
		<path d="M287.57,340.342c6.388-4.312,10.597-11.616,10.597-19.885c0-13.22-10.755-23.975-23.975-23.975h-14.406
			c-4.965,0-8.991,4.025-8.991,8.991v55.144c0,4.965,4.026,8.991,8.991,8.991c4.967,0,8.991-4.025,8.991-8.991v-16.183h0.303
			l12.37,20.782c1.681,2.826,4.669,4.393,7.733,4.393c1.564,0,3.149-0.408,4.59-1.266c4.268-2.54,5.668-8.058,3.126-12.325
			L287.57,340.342z M274.192,326.451h-5.415v-11.988h5.415c3.305,0,5.994,2.689,5.994,5.994S277.497,326.451,274.192,326.451z"/>
	</g>
</g>
<g>
	<g>
		<circle cx="175.285" cy="358.218" r="8.991"/>
	</g>
</g>
<g>
</g>
<g>
</g>
<g>
</g>
<g>
</g>
<g>
</g>
<g>
</g>
<g>
</g>
<g>
</g>
<g>
</g>
<g>
</g>
<g>
</g>
<g>
</g>
<g>
</g>
<g>
</g>
<g>
</g>
</svg>
