<?xml version="1.0" encoding="iso-8859-1"?>
<!-- Generator: Adobe Illustrator 19.0.0, SVG Export Plug-In . SVG Version: 6.00 Build 0)  -->
<svg version="1.1" id="Layer_1" xmlns="http://www.w3.org/2000/svg" xmlns:xlink="http://www.w3.org/1999/xlink" x="0px" y="0px"
	 viewBox="0 0 512 512" style="enable-background:new 0 0 512 512;" xml:space="preserve">
<g>
	<g>
		<path d="M503.009,64.167H8.991C4.024,64.167,0,68.193,0,73.158v106.691c0,4.965,4.024,8.991,8.991,8.991
			c4.967,0,8.991-4.026,8.991-8.991v-97.7h476.037v347.702h-19.66c-4.967,0-8.991,4.025-8.991,8.991s4.024,8.991,8.991,8.991h28.651
			c4.966,0,8.991-4.025,8.991-8.991V73.158C512,68.193,507.975,64.167,503.009,64.167z"/>
	</g>
</g>
<g>
	<g>
		<path d="M442.59,429.851H17.982V213.415c0-4.965-4.024-8.991-8.991-8.991c-4.966,0-8.991,4.026-8.991,8.991v225.427
			c0,4.965,4.024,8.991,8.991,8.991H442.59c4.967,0,8.991-4.025,8.991-8.991S447.556,429.851,442.59,429.851z"/>
	</g>
</g>
<g>
	<g>
		<path d="M475.077,119.311H36.925c-4.966,0-8.991,4.026-8.991,8.991s4.024,8.991,8.991,8.991h438.152
			c4.966,0,8.991-4.025,8.991-8.991S480.043,119.311,475.077,119.311z"/>
	</g>
</g>
<g>
	<g>
		<circle cx="39.202" cy="101.932" r="8.991"/>
	</g>
</g>
<g>
	<g>
		<circle cx="97.34" cy="101.932" r="8.991"/>
	</g>
</g>
<g>
	<g>
		<circle cx="68.273" cy="101.932" r="8.991"/>
	</g>
</g>
<g>
	<g>
		<path d="M199.101,189.624c-2.6-4.23-8.136-5.553-12.368-2.955c-4.23,2.599-5.554,8.136-2.955,12.367
			c6.137,9.991,9.38,21.507,9.38,33.303c0,35.143-28.592,63.735-63.735,63.735c-35.142,0-63.734-28.592-63.734-63.735
			s28.592-63.735,63.734-63.735c14.03,0,27.337,4.468,38.479,12.92c3.957,3.002,9.596,2.226,12.598-1.729
			c3.001-3.956,2.226-9.595-1.729-12.597c-14.295-10.844-31.36-16.577-49.348-16.577c-45.058,0-81.716,36.659-81.716,81.717
			c0,45.058,36.657,81.717,81.716,81.717c45.058,0,81.717-36.659,81.717-81.717C211.141,217.218,206.978,202.447,199.101,189.624z"
			/>
	</g>
</g>
<g>
	<g>
		<path d="M153.189,247.068c7.498-6.603,12.242-16.264,12.242-27.016c0-19.854-16.154-36.008-36.008-36.008
			c-19.854,0-36.006,16.154-36.006,36.008c0,10.753,4.744,20.413,12.242,27.017c-7.497,6.603-12.242,16.264-12.242,27.017
			c0,4.965,4.024,8.991,8.991,8.991c4.967,0,8.991-4.025,8.991-8.991c0-9.939,8.086-18.026,18.025-18.026
			c9.939,0,18.026,8.086,18.026,18.025c0,4.965,4.024,8.991,8.991,8.991c4.967,0,8.991-4.025,8.991-8.991
			C165.431,263.332,160.687,253.672,153.189,247.068z M129.423,238.078c-9.939,0-18.025-8.087-18.025-18.026
			s8.086-18.026,18.025-18.026c9.939,0,18.026,8.087,18.026,18.026S139.362,238.078,129.423,238.078z"/>
	</g>
</g>
<g>
	<g>
		<path d="M291.071,175.653h-39.56c-4.967,0-8.991,4.025-8.991,8.991s4.024,8.991,8.991,8.991h39.56
			c4.967,0,8.991-4.026,8.991-8.991S296.037,175.653,291.071,175.653z"/>
	</g>
</g>
<g>
	<g>
		<path d="M455.303,211.377H251.511c-4.967,0-8.991,4.026-8.991,8.991c0,4.965,4.024,8.991,8.991,8.991h203.792
			c4.967,0,8.991-4.026,8.991-8.991C464.294,215.402,460.268,211.377,455.303,211.377z"/>
	</g>
</g>
<g>
	<g>
		<path d="M455.303,282.824H251.511c-4.967,0-8.991,4.026-8.991,8.991c0,4.965,4.024,8.991,8.991,8.991h203.792
			c4.967,0,8.991-4.026,8.991-8.991C464.294,286.849,460.268,282.824,455.303,282.824z"/>
	</g>
</g>
<g>
	<g>
		<path d="M455.303,344.92h-75.426c-4.967,0-8.991,4.025-8.991,8.991s4.024,8.991,8.991,8.991h75.426
			c4.967,0,8.991-4.025,8.991-8.991S460.268,344.92,455.303,344.92z"/>
	</g>
</g>
<g>
	<g>
		<path d="M348.909,344.92H56.698c-4.967,0-8.991,4.025-8.991,8.991s4.024,8.991,8.991,8.991h292.211
			c4.965,0,8.991-4.025,8.991-8.991S353.876,344.92,348.909,344.92z"/>
	</g>
</g>
<g>
	<g>
		<path d="M455.303,380.644H212.847c-4.967,0-8.991,4.026-8.991,8.991s4.024,8.991,8.991,8.991h242.456
			c4.967,0,8.991-4.025,8.991-8.991S460.268,380.644,455.303,380.644z"/>
	</g>
</g>
<g>
	<g>
		<path d="M180.082,380.644H56.698c-4.967,0-8.991,4.026-8.991,8.991s4.024,8.991,8.991,8.991h123.384
			c4.967,0,8.991-4.025,8.991-8.991S185.049,380.644,180.082,380.644z"/>
	</g>
</g>
<g>
	<g>
		<path d="M291.071,247.1h-39.56c-4.967,0-8.991,4.025-8.991,8.991s4.024,8.991,8.991,8.991h39.56c4.967,0,8.991-4.025,8.991-8.991
			S296.037,247.1,291.071,247.1z"/>
	</g>
</g>
<g>
</g>
<g>
</g>
<g>
</g>
<g>
</g>
<g>
</g>
<g>
</g>
<g>
</g>
<g>
</g>
<g>
</g>
<g>
</g>
<g>
</g>
<g>
</g>
<g>
</g>
<g>
</g>
<g>
</g>
</svg>
