<?xml version="1.0" encoding="iso-8859-1"?>
<!-- Generator: Adobe Illustrator 19.0.0, SVG Export Plug-In . SVG Version: 6.00 Build 0)  -->
<svg version="1.1" id="Layer_1" xmlns="http://www.w3.org/2000/svg" xmlns:xlink="http://www.w3.org/1999/xlink" x="0px" y="0px"
	 viewBox="0 0 512 512" style="enable-background:new 0 0 512 512;" xml:space="preserve">
<g>
	<g>
		<path d="M503.009,64.167H8.991C4.026,64.167,0,68.193,0,73.158v106.691c0,4.965,4.026,8.991,8.991,8.991
			c4.965,0,8.991-4.026,8.991-8.991v-97.7h476.037v347.702h-19.66c-4.967,0-8.991,4.025-8.991,8.991s4.024,8.991,8.991,8.991h28.651
			c4.966,0,8.991-4.025,8.991-8.991V73.158C512,68.193,507.975,64.167,503.009,64.167z"/>
	</g>
</g>
<g>
	<g>
		<path d="M442.59,429.851H17.982V213.415c0-4.965-4.026-8.991-8.991-8.991c-4.965,0-8.991,4.026-8.991,8.991v225.427
			c0,4.965,4.026,8.991,8.991,8.991H442.59c4.967,0,8.991-4.025,8.991-8.991S447.556,429.851,442.59,429.851z"/>
	</g>
</g>
<g>
	<g>
		<path d="M475.075,119.311H36.923c-4.965,0-8.991,4.026-8.991,8.991s4.026,8.991,8.991,8.991h438.152
			c4.966,0,8.991-4.025,8.991-8.991S480.042,119.311,475.075,119.311z"/>
	</g>
</g>
<g>
	<g>
		<circle cx="39.202" cy="101.932" r="8.991"/>
	</g>
</g>
<g>
	<g>
		<circle cx="97.34" cy="101.932" r="8.991"/>
	</g>
</g>
<g>
	<g>
		<circle cx="68.273" cy="101.932" r="8.991"/>
	</g>
</g>
<g>
	<g>
		<path d="M146.413,156.473H47.712c-4.965,0-8.991,4.026-8.991,8.991v237.02c0,4.965,4.025,8.991,8.991,8.991h98.701
			c4.965,0,8.991-4.025,8.991-8.991v-237.02C155.404,160.498,151.379,156.473,146.413,156.473z M56.703,393.493V174.455h80.719
			v219.039H56.703z"/>
	</g>
</g>
<g>
	<g>
		<path d="M460.371,204.424c4.967,0,8.991-4.026,8.991-8.991v-29.969c0-4.965-4.024-8.991-8.991-8.991H361.67
			c-4.967,0-8.991,4.026-8.991,8.991v237.02c0,4.965,4.024,8.991,8.991,8.991h98.701c4.967,0,8.991-4.025,8.991-8.991V225.402
			c0-4.965-4.024-8.991-8.991-8.991s-8.991,4.026-8.991,8.991v168.091h-80.719V174.455h80.719v20.979
			C451.38,200.398,455.405,204.424,460.371,204.424z"/>
	</g>
</g>
<g>
	<g>
		<path d="M325.725,191.008H182.36c-4.965,0-8.991,4.025-8.991,8.991V367.95c0,4.965,4.026,8.991,8.991,8.991
			s8.991-4.026,8.991-8.991V208.99h125.383v149.969H215.821c-4.965,0-8.991,4.026-8.991,8.991c0,4.965,4.025,8.991,8.991,8.991
			h109.904c4.966,0,8.991-4.026,8.991-8.991V199.999C334.716,195.034,330.691,191.008,325.725,191.008z"/>
	</g>
</g>
<g>
	<g>
		<path d="M289.166,276.189l-61.256-35.366c-2.781-1.606-6.21-1.606-8.991,0c-2.781,1.606-4.495,4.573-4.495,7.786v70.734
			c0,3.212,1.713,6.178,4.495,7.785c1.391,0.803,2.943,1.205,4.495,1.205c1.552,0,3.105-0.402,4.495-1.205l61.256-35.366
			c2.781-1.606,4.495-4.573,4.495-7.786S291.947,277.795,289.166,276.189z M232.405,303.767v-39.588l34.284,19.794L232.405,303.767z
			"/>
	</g>
</g>
<g>
	<g>
		<path d="M325.725,393.493H182.36c-4.965,0-8.991,4.026-8.991,8.991c0,4.965,4.026,8.991,8.991,8.991h143.365
			c4.966,0,8.991-4.026,8.991-8.991C334.716,397.519,330.69,393.493,325.725,393.493z"/>
	</g>
</g>
<g>
	<g>
		<path d="M325.725,156.473H182.36c-4.965,0-8.991,4.026-8.991,8.991s4.026,8.991,8.991,8.991h143.365
			c4.966,0,8.991-4.025,8.991-8.991S330.69,156.473,325.725,156.473z"/>
	</g>
</g>
<g>
</g>
<g>
</g>
<g>
</g>
<g>
</g>
<g>
</g>
<g>
</g>
<g>
</g>
<g>
</g>
<g>
</g>
<g>
</g>
<g>
</g>
<g>
</g>
<g>
</g>
<g>
</g>
<g>
</g>
</svg>
