<?xml version="1.0" encoding="iso-8859-1"?>
<!-- Generator: Adobe Illustrator 19.0.0, SVG Export Plug-In . SVG Version: 6.00 Build 0)  -->
<svg version="1.1" id="Layer_1" xmlns="http://www.w3.org/2000/svg" xmlns:xlink="http://www.w3.org/1999/xlink" x="0px" y="0px"
	 viewBox="0 0 512 512" style="enable-background:new 0 0 512 512;" xml:space="preserve">
<g>
	<g>
		<path d="M503.009,64.167H8.991C4.026,64.167,0,68.193,0,73.158v106.691c0,4.965,4.026,8.991,8.991,8.991
			c4.965,0,8.991-4.026,8.991-8.991v-97.7h476.037v347.702h-19.661c-4.965,0-8.991,4.025-8.991,8.991s4.025,8.991,8.991,8.991
			h28.652c4.965,0,8.991-4.025,8.991-8.991V73.158C512,68.193,507.975,64.167,503.009,64.167z"/>
	</g>
</g>
<g>
	<g>
		<path d="M442.59,429.852H17.982V213.415c0-4.965-4.026-8.991-8.991-8.991c-4.965,0-8.991,4.026-8.991,8.991v225.427
			c0,4.965,4.026,8.991,8.991,8.991H442.59c4.965,0,8.991-4.025,8.991-8.991S447.555,429.852,442.59,429.852z"/>
	</g>
</g>
<g>
	<g>
		<path d="M475.077,119.311H36.925c-4.965,0-8.991,4.026-8.991,8.991s4.025,8.991,8.991,8.991h438.152
			c4.965,0,8.991-4.025,8.991-8.991S480.042,119.311,475.077,119.311z"/>
	</g>
</g>
<g>
	<g>
		<circle cx="39.202" cy="101.932" r="8.991"/>
	</g>
</g>
<g>
	<g>
		<circle cx="97.34" cy="101.932" r="8.991"/>
	</g>
</g>
<g>
	<g>
		<circle cx="68.273" cy="101.932" r="8.991"/>
	</g>
</g>
<g>
	<g>
		<path d="M403.01,160.948H225.636c-4.965,0-8.991,4.026-8.991,8.991c0,4.965,4.026,8.991,8.991,8.991h168.383v112.95
			l-52.579-34.671c-3.372-2.224-7.814-1.925-10.857,0.728l-26.701,23.273c-3.744,3.263-4.133,8.942-0.87,12.685
			s8.942,4.133,12.685,0.87l21.55-18.782l56.773,37.437v20.525h-67.044L227.9,230.912c-3.426-3.563-9.086-3.692-12.67-0.29
			l-71.359,67.732V178.93h54.593c4.965,0,8.991-4.026,8.991-8.991c0-4.965-4.026-8.991-8.991-8.991H134.88
			c-4.965,0-8.991,4.026-8.991,8.991v47.232h-5.997c-4.965,0-8.991,4.026-8.991,8.991c0,4.965,4.025,8.991,8.991,8.991h5.997
			v107.782c0,4.965,4.025,8.991,8.991,8.991h196.44v5.994c0,4.965,4.026,8.991,8.991,8.991s8.991-4.026,8.991-8.991v-5.994h53.709
			c4.965,0,8.991-4.026,8.991-8.991V169.939C412.001,164.973,407.975,160.948,403.01,160.948z M143.871,333.943v-10.799
			l77.26-73.331l80.898,84.13H143.871z"/>
	</g>
</g>
<g>
	<g>
		<path d="M340.31,375.182c-4.965,0-8.991,4.026-8.991,8.991v5.994h-5.994c-4.965,0-8.991,4.026-8.991,8.991
			c0,4.965,4.025,8.991,8.991,8.991h14.985c4.965,0,8.991-4.026,8.991-8.991v-14.985
			C349.301,379.208,345.276,375.182,340.31,375.182z"/>
	</g>
</g>
<g>
	<g>
		<path d="M222.16,390.166h-31.842c-4.965,0-8.991,4.026-8.991,8.991s4.026,8.991,8.991,8.991h31.842
			c4.965,0,8.991-4.025,8.991-8.991S227.126,390.166,222.16,390.166z"/>
	</g>
</g>
<g>
	<g>
		<path d="M289.663,390.166h-31.842c-4.965,0-8.991,4.026-8.991,8.991s4.025,8.991,8.991,8.991h31.842
			c4.965,0,8.991-4.025,8.991-8.991S294.629,390.166,289.663,390.166z"/>
	</g>
</g>
<g>
	<g>
		<path d="M154.657,390.166h-31.842c-4.965,0-8.991,4.026-8.991,8.991s4.026,8.991,8.991,8.991h31.842
			c4.965,0,8.991-4.025,8.991-8.991S159.623,390.166,154.657,390.166z"/>
	</g>
</g>
<g>
	<g>
		<path d="M87.153,390.166h-5.994v-5.994c0-4.965-4.026-8.991-8.991-8.991s-8.991,4.025-8.991,8.991v14.985
			c0,4.965,4.026,8.991,8.991,8.991h14.985c4.965,0,8.991-4.025,8.991-8.991S92.119,390.166,87.153,390.166z"/>
	</g>
</g>
<g>
	<g>
		<path d="M72.169,318.612c-4.965,0-8.991,4.026-8.991,8.991v26.684c0,4.965,4.026,8.991,8.991,8.991
			c4.965,0,8.991-4.025,8.991-8.991v-26.684C81.159,322.637,77.134,318.612,72.169,318.612z"/>
	</g>
</g>
<g>
	<g>
		<path d="M72.169,262.042c-4.965,0-8.991,4.025-8.991,8.991v26.684c0,4.965,4.026,8.991,8.991,8.991
			c4.965,0,8.991-4.026,8.991-8.991v-26.684C81.159,266.067,77.134,262.042,72.169,262.042z"/>
	</g>
</g>
<g>
	<g>
		<path d="M87.153,217.171H72.169c-4.965,0-8.991,4.026-8.991,8.991v14.985c0,4.965,4.026,8.991,8.991,8.991
			c4.965,0,8.991-4.026,8.991-8.991v-5.994h5.994c4.965,0,8.991-4.026,8.991-8.991C96.144,221.196,92.119,217.171,87.153,217.171z"
			/>
	</g>
</g>
<g>
	<g>
		<path d="M337.521,187.393c-16.194,0-29.37,13.176-29.37,29.37c0,16.194,13.176,29.37,29.37,29.37
			c16.194,0,29.37-13.175,29.37-29.37C366.891,200.569,353.715,187.393,337.521,187.393z M337.521,228.151
			c-6.279,0-11.388-5.108-11.388-11.388c0-6.279,5.109-11.388,11.388-11.388c6.279,0,11.388,5.109,11.388,11.388
			S343.8,228.151,337.521,228.151z"/>
	</g>
</g>
<g>
</g>
<g>
</g>
<g>
</g>
<g>
</g>
<g>
</g>
<g>
</g>
<g>
</g>
<g>
</g>
<g>
</g>
<g>
</g>
<g>
</g>
<g>
</g>
<g>
</g>
<g>
</g>
<g>
</g>
</svg>
