<?xml version="1.0" encoding="iso-8859-1"?>
<!-- Generator: Adobe Illustrator 19.0.0, SVG Export Plug-In . SVG Version: 6.00 Build 0)  -->
<svg version="1.1" id="Layer_1" xmlns="http://www.w3.org/2000/svg" xmlns:xlink="http://www.w3.org/1999/xlink" x="0px" y="0px"
	 viewBox="0 0 512 512" style="enable-background:new 0 0 512 512;" xml:space="preserve">
<g>
	<g>
		<path d="M503.009,64.167H8.991C4.026,64.167,0,68.193,0,73.158v106.691c0,4.965,4.026,8.991,8.991,8.991
			c4.965,0,8.991-4.026,8.991-8.991v-97.7h476.037v347.702h-19.661c-4.965,0-8.991,4.025-8.991,8.991s4.025,8.991,8.991,8.991
			h28.652c4.965,0,8.991-4.025,8.991-8.991V73.158C512,68.193,507.975,64.167,503.009,64.167z"/>
	</g>
</g>
<g>
	<g>
		<path d="M442.59,429.852H17.982V213.415c0-4.965-4.026-8.991-8.991-8.991c-4.965,0-8.991,4.026-8.991,8.991v225.427
			c0,4.965,4.026,8.991,8.991,8.991H442.59c4.965,0,8.991-4.025,8.991-8.991S447.555,429.852,442.59,429.852z"/>
	</g>
</g>
<g>
	<g>
		<path d="M475.077,119.311H36.925c-4.965,0-8.991,4.026-8.991,8.991s4.025,8.991,8.991,8.991h438.152
			c4.965,0,8.991-4.025,8.991-8.991S480.042,119.311,475.077,119.311z"/>
	</g>
</g>
<g>
	<g>
		<circle cx="39.202" cy="101.932" r="8.991"/>
	</g>
</g>
<g>
	<g>
		<circle cx="97.34" cy="101.932" r="8.991"/>
	</g>
</g>
<g>
	<g>
		<circle cx="68.273" cy="101.932" r="8.991"/>
	</g>
</g>
<g>
	<g>
		<path d="M188.632,235.288c2.793-1.525,4.687-4.488,4.687-7.895c0-4.965-4.025-8.991-8.991-8.991c-3.448,0-6.437,1.942-7.947,4.79
			c-4.99-2.877-10.779-4.53-16.953-4.53c-15.759,0-29.042,10.085-32.816,25.669c-0.076,0-0.153,0-0.229,0
			c-24.87,0-35.444-17.502-35.887-18.243c-1.712-2.989-4.976-4.994-8.419-4.762c-3.437,0.237-6.436,2.417-7.723,5.614
			c-2.875,7.142-5.941,15.561-5.941,25.102c0,25.73,13.032,48.562,33.201,58.166c4.481,2.134,9.848,0.23,11.983-4.252
			c2.135-4.482,0.233-9.848-4.252-11.983c-13.726-6.536-22.947-23.387-22.947-41.931c0-1.338,0.107-2.672,0.29-3.998
			c9.641,7.954,25.522,16.01,48.827,13.187c4.509-0.484,8.034-4.301,8.034-8.939c0-8.773,7.167-15.909,15.94-15.909
			c8.686,0,15.831,6.997,15.969,15.651l-0.02,2.241c-0.001,0.026,0.245,0.052,0.245,0.078c0,0.001,0,0.002,0,0.005
			s0.002,0.007,0.002,0.008c0,0.097-0.259,0.194-0.261,0.291c-0.43,14.841-6.236,29.135-15.902,40.28
			c-0.197,0.207-0.393,0.426-0.589,0.645l-0.134,0.155c-0.134,0.133-0.264,0.272-0.388,0.414
			c-12.771,14.494-30.551,22.807-48.781,22.807c-18.272,0-29.95-5.225-36.531-9.609c-4.132-2.752-9.715-1.634-12.467,2.497
			c-2.752,4.132-1.635,9.715,2.497,12.467c8.646,5.76,23.732,12.625,46.5,12.625c23.322,0,45.955-10.469,62.129-28.735
			c0.205-0.216,0.412-0.44,0.616-0.67l0.134-0.146c0.144-0.143,0.282-0.275,0.415-0.427c12.367-14.161,19.529-32.283,20.207-51.154
			c0.189-1.343,0.189-2.469,0.189-3.384C193.32,246.159,191.606,240.307,188.632,235.288z"/>
	</g>
</g>
<g>
	<g>
		<path d="M287.827,218.677h-9.834c-23.331,0-42.311,18.98-42.311,42.311v66.96c0,4.965,4.026,8.991,8.991,8.991
			s8.991-4.025,8.991-8.991v-33.752h19.779c4.965,0,8.991-4.025,8.991-8.991s-4.025-8.991-8.991-8.991h-19.779v-15.227
			c0-13.414,10.914-24.329,24.329-24.329h9.834c4.965,0,8.991-4.025,8.991-8.991S292.792,218.677,287.827,218.677z"/>
	</g>
</g>
<g>
	<g>
		<path d="M420.76,219.576h-55.34c-17.708,0-32.116,14.408-32.116,32.116v55.34c0,17.708,14.408,32.116,32.116,32.116h55.34
			c17.708,0,32.116-14.408,32.116-32.116v-55.34C452.876,233.985,438.47,219.576,420.76,219.576z M434.895,307.034L434.895,307.034
			c0,7.793-6.342,14.135-14.135,14.135h-55.34c-7.793,0-14.135-6.342-14.135-14.135v-55.34c0-7.793,6.341-14.135,14.135-14.135
			h55.34c7.793,0,14.135,6.341,14.135,14.135V307.034z"/>
	</g>
</g>
<g>
	<g>
		<path d="M411.521,270.373c-4.965,0-8.991,4.026-8.991,8.991c0,5.205-4.234,9.439-9.439,9.439c-5.205,0-9.44-4.234-9.44-9.439
			s4.235-9.44,9.44-9.44c4.965,0,8.991-4.025,8.991-8.991s-4.026-8.991-8.991-8.991c-15.12,0-27.422,12.301-27.422,27.422
			c0,15.12,12.301,27.421,27.422,27.421c15.12,0,27.421-12.301,27.421-27.421C420.512,274.398,416.487,270.373,411.521,270.373z"/>
	</g>
</g>
<g>
</g>
<g>
</g>
<g>
</g>
<g>
</g>
<g>
</g>
<g>
</g>
<g>
</g>
<g>
</g>
<g>
</g>
<g>
</g>
<g>
</g>
<g>
</g>
<g>
</g>
<g>
</g>
<g>
</g>
</svg>
