<?xml version="1.0" encoding="iso-8859-1"?>
<!-- Generator: Adobe Illustrator 19.0.0, SVG Export Plug-In . SVG Version: 6.00 Build 0)  -->
<svg version="1.1" id="Layer_1" xmlns="http://www.w3.org/2000/svg" xmlns:xlink="http://www.w3.org/1999/xlink" x="0px" y="0px"
	 viewBox="0 0 512 512" style="enable-background:new 0 0 512 512;" xml:space="preserve">
<g>
	<g>
		<path d="M319.715,122.864H53.588c-4.965,0-8.991,4.026-8.991,8.991c0,4.965,4.025,8.991,8.991,8.991h266.128
			c4.965,0,8.991-4.026,8.991-8.991C328.706,126.89,324.681,122.864,319.715,122.864z"/>
	</g>
</g>
<g>
	<g>
		<path d="M186.652,160.526H53.588c-4.965,0-8.991,4.026-8.991,8.991s4.025,8.991,8.991,8.991h133.064
			c4.965,0,8.991-4.025,8.991-8.991S191.617,160.526,186.652,160.526z"/>
	</g>
</g>
<g>
	<g>
		<path d="M72.768,198.188h-19.18c-4.965,0-8.991,4.025-8.991,8.991s4.025,8.991,8.991,8.991h19.18c4.965,0,8.991-4.026,8.991-8.991
			S77.733,198.188,72.768,198.188z"/>
	</g>
</g>
<g>
	<g>
		<path d="M213.025,235.849H53.588c-4.965,0-8.991,4.025-8.991,8.991s4.025,8.991,8.991,8.991h159.437
			c4.965,0,8.991-4.025,8.991-8.991S217.99,235.849,213.025,235.849z"/>
	</g>
</g>
<g>
	<g>
		<path d="M125.514,273.51H53.588c-4.965,0-8.991,4.025-8.991,8.991s4.025,8.991,8.991,8.991h71.926
			c4.965,0,8.991-4.026,8.991-8.991S130.479,273.51,125.514,273.51z"/>
	</g>
</g>
<g>
	<g>
		<path d="M142.297,311.172H53.588c-4.965,0-8.991,4.026-8.991,8.991c0,4.965,4.025,8.991,8.991,8.991h88.709
			c4.965,0,8.991-4.026,8.991-8.991C151.288,315.198,147.262,311.172,142.297,311.172z"/>
	</g>
</g>
<g>
	<g>
		<path d="M210.627,348.833H53.588c-4.965,0-8.991,4.026-8.991,8.991c0,4.965,4.025,8.991,8.991,8.991h157.039
			c4.965,0,8.991-4.026,8.991-8.991C219.618,352.859,215.592,348.833,210.627,348.833z"/>
	</g>
</g>
<g>
	<g>
		<path d="M390.148,262.521h-105.19c-4.965,0-8.991,4.025-8.991,8.991s4.025,8.991,8.991,8.991h105.19
			c4.965,0,8.991-4.025,8.991-8.991S395.114,262.521,390.148,262.521z"/>
	</g>
</g>
<g>
	<g>
		<path d="M350.892,291.608h-65.934c-4.965,0-8.991,4.026-8.991,8.991c0,4.965,4.026,8.991,8.991,8.991h65.934
			c4.965,0,8.991-4.026,8.991-8.991C359.883,295.634,355.857,291.608,350.892,291.608z"/>
	</g>
</g>
<g>
	<g>
		<path d="M294.462,320.695h-9.504c-4.965,0-8.991,4.025-8.991,8.991s4.025,8.991,8.991,8.991h9.504
			c4.965,0,8.991-4.026,8.991-8.991S299.427,320.695,294.462,320.695z"/>
	</g>
</g>
<g>
	<g>
		<path d="M363.961,349.782h-79.003c-4.965,0-8.991,4.026-8.991,8.991c0,4.965,4.025,8.991,8.991,8.991h79.003
			c4.965,0,8.991-4.026,8.991-8.991C372.952,353.808,368.926,349.782,363.961,349.782z"/>
	</g>
</g>
<g>
	<g>
		<path d="M406.932,378.87H284.958c-4.965,0-8.991,4.025-8.991,8.991s4.025,8.991,8.991,8.991h121.973
			c4.967,0,8.992-4.025,8.992-8.991S411.898,378.87,406.932,378.87z"/>
	</g>
</g>
<g>
	<g>
		<path d="M328.915,407.957h-43.957c-4.965,0-8.991,4.026-8.991,8.991c0,4.965,4.026,8.991,8.991,8.991h43.957
			c4.965,0,8.991-4.026,8.991-8.991C337.906,411.982,333.88,407.957,328.915,407.957z"/>
	</g>
</g>
<g>
	<g>
		<path d="M362.773,437.044h-77.815c-4.965,0-8.991,4.026-8.991,8.991c0,4.965,4.025,8.991,8.991,8.991h77.815
			c4.965,0,8.991-4.026,8.991-8.991C371.764,441.069,367.738,437.044,362.773,437.044z"/>
	</g>
</g>
<g>
	<g>
		<path d="M503.009,21.918H8.991C4.026,21.918,0,25.943,0,30.909v106.691c0,4.965,4.026,8.991,8.991,8.991
			c4.965,0,8.991-4.025,8.991-8.991v-97.7h476.037v347.702h-19.661c-4.965,0-8.991,4.025-8.991,8.991s4.025,8.991,8.991,8.991
			h28.652c4.965,0,8.991-4.025,8.991-8.991V30.909C512,25.943,507.975,21.918,503.009,21.918z"/>
	</g>
</g>
<g>
	<g>
		<path d="M217.395,387.601H17.982V171.164c0-4.965-4.026-8.991-8.991-8.991c-4.965,0-8.991,4.025-8.991,8.991v225.427
			c0,4.965,4.026,8.991,8.991,8.991h208.404c4.965,0,8.991-4.026,8.991-8.991S222.361,387.601,217.395,387.601z"/>
	</g>
</g>
<g>
	<g>
		<path d="M475.077,77.061H36.925c-4.965,0-8.991,4.025-8.991,8.991s4.025,8.991,8.991,8.991h438.152
			c4.965,0,8.991-4.025,8.991-8.991S480.042,77.061,475.077,77.061z"/>
	</g>
</g>
<g>
	<g>
		<circle cx="39.202" cy="59.678" r="8.991"/>
	</g>
</g>
<g>
	<g>
		<circle cx="97.34" cy="59.678" r="8.991"/>
	</g>
</g>
<g>
	<g>
		<circle cx="68.273" cy="59.678" r="8.991"/>
	</g>
</g>
<g>
	<g>
		<circle cx="285.116" cy="205.997" r="8.991"/>
	</g>
</g>
<g>
	<g>
		<circle cx="343.257" cy="205.997" r="8.991"/>
	</g>
</g>
<g>
	<g>
		<circle cx="314.187" cy="205.997" r="8.991"/>
	</g>
</g>
<g>
	<g>
		<path d="M442.59,456.223c4.965,0,8.991-4.025,8.991-8.991V175.429c0-4.965-4.026-8.991-8.991-8.991H250.196
			c-4.965,0-8.991,4.025-8.991,8.991v305.662c0,4.965,4.026,8.991,8.991,8.991H442.59c4.965,0,8.991-4.025,8.991-8.991
			s-4.025-8.991-8.991-8.991H259.187V184.42h174.412v262.812C433.599,452.197,437.625,456.223,442.59,456.223z"/>
	</g>
</g>
<g>
	<g>
		<path d="M415.019,223.977H277.766c-4.965,0-8.991,4.025-8.991,8.991s4.026,8.991,8.991,8.991h137.254
			c4.965,0,8.991-4.025,8.991-8.991S419.984,223.977,415.019,223.977z"/>
	</g>
</g>
<g>
</g>
<g>
</g>
<g>
</g>
<g>
</g>
<g>
</g>
<g>
</g>
<g>
</g>
<g>
</g>
<g>
</g>
<g>
</g>
<g>
</g>
<g>
</g>
<g>
</g>
<g>
</g>
<g>
</g>
</svg>
