<?xml version="1.0" encoding="iso-8859-1"?>
<!-- Generator: Adobe Illustrator 19.0.0, SVG Export Plug-In . SVG Version: 6.00 Build 0)  -->
<svg version="1.1" id="Layer_1" xmlns="http://www.w3.org/2000/svg" xmlns:xlink="http://www.w3.org/1999/xlink" x="0px" y="0px"
	 viewBox="0 0 512.001 512.001" style="enable-background:new 0 0 512.001 512.001;" xml:space="preserve">
<g>
	<g>
		<path d="M503.406,287.825c-4.748,0-8.596,3.849-8.596,8.596v26.744H140.598V65.435H494.81V267.77
			c-0.001,4.747,3.847,8.596,8.594,8.596c4.748,0,8.596-3.849,8.596-8.596V56.839c0-4.747-3.847-8.596-8.596-8.596H132.002
			c-4.747,0-8.596,3.849-8.596,8.596V331.76c0,4.747,3.849,8.596,8.596,8.596h371.404c4.748,0,8.596-3.849,8.596-8.596v-35.34
			C512.001,291.674,508.154,287.825,503.406,287.825z"/>
	</g>
</g>
<g>
	<g>
		<path d="M476.334,103.503H159.072c-4.747,0-8.596,3.847-8.596,8.596c0,4.747,3.849,8.596,8.596,8.596h317.261
			c4.748,0,8.596-3.849,8.596-8.596C484.929,107.352,481.082,103.503,476.334,103.503z"/>
	</g>
</g>
<g>
	<g>
		<path d="M109.373,170.282H93.397c-4.747,0-8.596,3.849-8.596,8.596c0,4.747,3.849,8.596,8.596,8.596h15.976
			c4.747,0,8.596-3.849,8.596-8.596C117.969,174.131,114.121,170.282,109.373,170.282z"/>
	</g>
</g>
<g>
	<g>
		<path d="M48.638,230.438H32.661c-4.747,0-8.596,3.849-8.596,8.596c0,4.747,3.849,8.596,8.596,8.596h15.977
			c4.747,0,8.596-3.849,8.596-8.596C57.233,234.287,53.385,230.438,48.638,230.438z"/>
	</g>
</g>
<g>
	<g>
		<circle cx="168.211" cy="84.914" r="8.596"/>
	</g>
</g>
<g>
	<g>
		<circle cx="223.797" cy="84.914" r="8.596"/>
	</g>
</g>
<g>
	<g>
		<circle cx="196.004" cy="84.914" r="8.596"/>
	</g>
</g>
<g>
	<g>
		<path d="M441.006,346.888c-4.748,0-8.596,3.849-8.596,8.596v30.08H78.198v-257.73h31.727c4.747,0,8.596-3.849,8.596-8.596
			c0-4.747-3.849-8.596-8.596-8.596H69.602c-4.747,0-8.596,3.849-8.596,8.596v274.921c0,4.747,3.849,8.596,8.596,8.596h371.404
			c4.748,0,8.596-3.849,8.596-8.596v-38.676C449.601,350.736,445.754,346.888,441.006,346.888z"/>
	</g>
</g>
<g>
	<g>
		<circle cx="99.412" cy="150.848" r="8.596"/>
	</g>
</g>
<g>
	<g>
		<path d="M380.006,411.506c-4.748,0-8.596,3.849-8.596,8.596v26.462l-354.215,0.001l-0.005-257.732h28.681
			c4.747,0,8.596-3.849,8.596-8.596c0-4.747-3.849-8.596-8.596-8.596H8.596c-4.747,0-8.596,3.849-8.596,8.596l0.005,274.925
			c0,4.747,3.849,8.596,8.596,8.596h322.669l48.737-0.001c4.748,0,8.596-3.849,8.596-8.596v-35.058
			C388.602,415.355,384.754,411.506,380.006,411.506z"/>
	</g>
</g>
<g>
	<g>
		<circle cx="38.944" cy="213.046" r="8.596"/>
	</g>
</g>
<g>
</g>
<g>
</g>
<g>
</g>
<g>
</g>
<g>
</g>
<g>
</g>
<g>
</g>
<g>
</g>
<g>
</g>
<g>
</g>
<g>
</g>
<g>
</g>
<g>
</g>
<g>
</g>
<g>
</g>
</svg>
