<?xml version="1.0" encoding="iso-8859-1"?>
<!-- Generator: Adobe Illustrator 19.0.0, SVG Export Plug-In . SVG Version: 6.00 Build 0)  -->
<svg version="1.1" id="Layer_1" xmlns="http://www.w3.org/2000/svg" xmlns:xlink="http://www.w3.org/1999/xlink" x="0px" y="0px"
	 viewBox="0 0 512 512" style="enable-background:new 0 0 512 512;" xml:space="preserve">
<g>
	<g>
		<path d="M503.009,64.167H8.991C4.026,64.167,0,68.193,0,73.158v106.691c0,4.965,4.026,8.991,8.991,8.991
			c4.965,0,8.991-4.026,8.991-8.991v-97.7h476.037v347.702h-19.66c-4.967,0-8.991,4.025-8.991,8.991s4.024,8.991,8.991,8.991h28.651
			c4.966,0,8.991-4.025,8.991-8.991V73.158C512,68.193,507.975,64.167,503.009,64.167z"/>
	</g>
</g>
<g>
	<g>
		<path d="M442.59,429.851H17.982V213.415c0-4.965-4.026-8.991-8.991-8.991c-4.965,0-8.991,4.026-8.991,8.991v225.427
			c0,4.965,4.026,8.991,8.991,8.991H442.59c4.967,0,8.991-4.025,8.991-8.991S447.556,429.851,442.59,429.851z"/>
	</g>
</g>
<g>
	<g>
		<path d="M475.075,119.311H36.923c-4.965,0-8.991,4.026-8.991,8.991s4.026,8.991,8.991,8.991h438.152
			c4.966,0,8.991-4.025,8.991-8.991S480.042,119.311,475.075,119.311z"/>
	</g>
</g>
<g>
	<g>
		<circle cx="39.202" cy="101.932" r="8.991"/>
	</g>
</g>
<g>
	<g>
		<circle cx="97.34" cy="101.932" r="8.991"/>
	</g>
</g>
<g>
	<g>
		<circle cx="68.273" cy="101.932" r="8.991"/>
	</g>
</g>
<g>
	<g>
		<path d="M454.369,224.78c-2.22-1.701-5.106-2.273-7.805-1.548l-59.975,16.123c-3.926,1.055-6.657,4.617-6.657,8.683v34.639
			c-2.496-0.802-5.152-1.24-7.912-1.24c-14.27,0-25.882,11.61-25.882,25.882c0,14.277,11.611,25.894,25.882,25.894
			c14.277,0,25.893-11.616,25.893-25.894v-52.386l41.993-11.289v22.911c-2.496-0.802-5.154-1.241-7.913-1.241
			c-14.27,0-25.882,11.61-25.882,25.882c0,14.277,11.611,25.894,25.882,25.894c14.277,0,25.895-11.616,25.895-25.894v-59.279
			C457.89,229.119,456.589,226.481,454.369,224.78z M372.022,315.23c-4.356,0-7.9-3.55-7.9-7.912c0-4.356,3.544-7.9,7.9-7.9
			c4.362,0,7.912,3.544,7.912,7.9C379.933,311.681,376.384,315.23,372.022,315.23z M431.995,299.107c-4.356,0-7.9-3.55-7.9-7.912
			c0-4.356,3.544-7.9,7.9-7.9c4.364,0,7.913,3.544,7.913,7.9C439.908,295.557,436.359,299.107,431.995,299.107z"/>
	</g>
</g>
<g>
	<g>
		<path d="M315.344,219.76H298.36c-4.966,0-8.991,4.026-8.991,8.991c0,4.965,4.024,8.991,8.991,8.991h7.992v39.199l-21.655-15.88
			c-3.43-2.516-8.154-2.284-11.32,0.556l-26.543,23.806l-30.168-24.135c-3.577-2.861-8.734-2.575-11.973,0.664l-19.417,19.417
			v-43.627h83.515c4.967,0,8.991-4.026,8.991-8.991c0-4.965-4.024-8.991-8.991-8.991h-92.506c-4.965,0-8.991,4.026-8.991,8.991
			v101.896c0,4.965,4.025,8.991,8.991,8.991h139.058c4.967,0,8.991-4.025,8.991-8.991V228.751
			C324.334,223.785,320.31,219.76,315.344,219.76z M185.277,321.656v-14.858l26.441-26.44l51.622,41.298H185.277z M306.352,321.656
			h-14.228l-31.055-24.845l18.881-16.934l26.403,19.363V321.656z"/>
	</g>
</g>
<g>
	<g>
		<path d="M137.43,272.991l-69.829-40.316c-2.781-1.606-6.21-1.606-8.991,0c-2.781,1.606-4.495,4.573-4.495,7.786v80.631
			c0,3.213,1.714,6.18,4.495,7.786c1.391,0.803,2.943,1.205,4.495,1.205c1.552,0,3.105-0.402,4.495-1.205l69.829-40.315
			c2.781-1.606,4.495-4.573,4.495-7.786S140.211,274.598,137.43,272.991z M72.097,305.519v-49.485l42.856,24.743L72.097,305.519z"/>
	</g>
</g>
<g>
	<g>
		<circle cx="251.095" cy="255.375" r="8.991"/>
	</g>
</g>
<g>
</g>
<g>
</g>
<g>
</g>
<g>
</g>
<g>
</g>
<g>
</g>
<g>
</g>
<g>
</g>
<g>
</g>
<g>
</g>
<g>
</g>
<g>
</g>
<g>
</g>
<g>
</g>
<g>
</g>
</svg>
