<?xml version="1.0" encoding="iso-8859-1"?>
<!-- Generator: Adobe Illustrator 19.0.0, SVG Export Plug-In . SVG Version: 6.00 Build 0)  -->
<svg version="1.1" id="Layer_1" xmlns="http://www.w3.org/2000/svg" xmlns:xlink="http://www.w3.org/1999/xlink" x="0px" y="0px"
	 viewBox="0 0 512 512" style="enable-background:new 0 0 512 512;" xml:space="preserve">
<g>
	<g>
		<path d="M503.009,64.167H8.991C4.026,64.167,0,68.193,0,73.158v106.691c0,4.965,4.026,8.991,8.991,8.991
			c4.965,0,8.991-4.026,8.991-8.991v-97.7h476.037v347.702h-19.661c-4.965,0-8.991,4.025-8.991,8.991s4.025,8.991,8.991,8.991
			h28.652c4.965,0,8.991-4.025,8.991-8.991V73.158C512,68.193,507.975,64.167,503.009,64.167z"/>
	</g>
</g>
<g>
	<g>
		<path d="M442.59,429.852H17.982V213.415c0-4.965-4.026-8.991-8.991-8.991c-4.965,0-8.991,4.026-8.991,8.991v225.427
			c0,4.965,4.026,8.991,8.991,8.991H442.59c4.965,0,8.991-4.025,8.991-8.991S447.555,429.852,442.59,429.852z"/>
	</g>
</g>
<g>
	<g>
		<path d="M475.077,119.311H36.925c-4.965,0-8.991,4.026-8.991,8.991s4.025,8.991,8.991,8.991h438.152
			c4.965,0,8.991-4.025,8.991-8.991S480.042,119.311,475.077,119.311z"/>
	</g>
</g>
<g>
	<g>
		<circle cx="39.202" cy="101.932" r="8.991"/>
	</g>
</g>
<g>
	<g>
		<circle cx="97.34" cy="101.932" r="8.991"/>
	</g>
</g>
<g>
	<g>
		<circle cx="68.273" cy="101.932" r="8.991"/>
	</g>
</g>
<g>
	<g>
		<path d="M157.674,301.857l-35.065-136.661c-1.02-3.975-4.603-6.756-8.709-6.756c-4.106,0-7.689,2.78-8.709,6.756l-35.067,136.66
			c-1.234,4.809,1.664,9.71,6.473,10.944c4.813,1.237,9.709-1.664,10.944-6.473l5.537-21.579h41.642l5.537,21.579
			c1.042,4.06,4.696,6.759,8.702,6.759c0.74,0,1.491-0.092,2.242-0.284C156.01,311.567,158.908,306.666,157.674,301.857z
			 M97.693,266.764l16.207-63.161l16.207,63.161H97.693z"/>
	</g>
</g>
<g>
	<g>
		<path d="M450.191,167.269h-41.948c-4.965,0-8.991,4.026-8.991,8.991c0,4.965,4.025,8.991,8.991,8.991h41.948
			c4.965,0,8.991-4.026,8.991-8.991C459.182,171.295,455.158,167.269,450.191,167.269z"/>
	</g>
</g>
<g>
	<g>
		<path d="M373.081,167.269h-183.61c-4.965,0-8.991,4.026-8.991,8.991c0,4.965,4.026,8.991,8.991,8.991h183.61
			c4.965,0,8.991-4.026,8.991-8.991C382.072,171.295,378.047,167.269,373.081,167.269z"/>
	</g>
</g>
<g>
	<g>
		<path d="M450.191,252.139H296.36c-4.965,0-8.991,4.025-8.991,8.991s4.026,8.991,8.991,8.991h153.833
			c4.965,0,8.991-4.025,8.991-8.991S455.158,252.139,450.191,252.139z"/>
	</g>
</g>
<g>
	<g>
		<path d="M267.588,252.139h-78.117c-4.965,0-8.991,4.025-8.991,8.991s4.026,8.991,8.991,8.991h78.117
			c4.965,0,8.991-4.025,8.991-8.991S272.553,252.139,267.588,252.139z"/>
	</g>
</g>
<g>
	<g>
		<path d="M450.191,337.007h-69.919c-4.965,0-8.991,4.025-8.991,8.991s4.025,8.991,8.991,8.991h69.919
			c4.965,0,8.991-4.025,8.991-8.991S455.158,337.007,450.191,337.007z"/>
	</g>
</g>
<g>
	<g>
		<path d="M349.904,337.007H61.809c-4.965,0-8.991,4.025-8.991,8.991s4.025,8.991,8.991,8.991h288.095
			c4.965,0,8.991-4.025,8.991-8.991S354.87,337.007,349.904,337.007z"/>
	</g>
</g>
<g>
	<g>
		<path d="M450.191,209.705h-260.72c-4.965,0-8.991,4.025-8.991,8.991s4.026,8.991,8.991,8.991h260.72
			c4.965,0,8.991-4.025,8.991-8.991S455.158,209.705,450.191,209.705z"/>
	</g>
</g>
<g>
	<g>
		<path d="M450.191,294.573h-260.72c-4.965,0-8.991,4.025-8.991,8.991s4.026,8.991,8.991,8.991h260.72
			c4.965,0,8.991-4.025,8.991-8.991S455.158,294.573,450.191,294.573z"/>
	</g>
</g>
<g>
	<g>
		<path d="M450.191,379.441H224.832c-4.965,0-8.991,4.026-8.991,8.991s4.026,8.991,8.991,8.991h225.36
			c4.965,0,8.991-4.025,8.991-8.991S455.158,379.441,450.191,379.441z"/>
	</g>
</g>
<g>
	<g>
		<path d="M196.462,379.441H61.809c-4.965,0-8.991,4.026-8.991,8.991s4.025,8.991,8.991,8.991h134.654
			c4.965,0,8.991-4.025,8.991-8.991S201.428,379.441,196.462,379.441z"/>
	</g>
</g>
<g>
</g>
<g>
</g>
<g>
</g>
<g>
</g>
<g>
</g>
<g>
</g>
<g>
</g>
<g>
</g>
<g>
</g>
<g>
</g>
<g>
</g>
<g>
</g>
<g>
</g>
<g>
</g>
<g>
</g>
</svg>
