<?xml version="1.0" encoding="iso-8859-1"?>
<!-- Generator: Adobe Illustrator 19.0.0, SVG Export Plug-In . SVG Version: 6.00 Build 0)  -->
<svg version="1.1" id="Layer_1" xmlns="http://www.w3.org/2000/svg" xmlns:xlink="http://www.w3.org/1999/xlink" x="0px" y="0px"
	 viewBox="0 0 512 512" style="enable-background:new 0 0 512 512;" xml:space="preserve">
<g>
	<g>
		<path d="M147.789,126.882H8.384c-4.631,0-8.384,3.754-8.384,8.384v241.467c0,4.63,3.753,8.384,8.384,8.384h139.405
			c4.631,0,8.384-3.754,8.384-8.384V135.266C156.173,130.636,152.421,126.882,147.789,126.882z M139.405,368.349H16.769V143.651
			h122.636V368.349z"/>
	</g>
</g>
<g>
	<g>
		<path d="M325.704,126.882H186.296c-4.631,0-8.384,3.754-8.384,8.384v241.467c0,4.63,3.753,8.384,8.384,8.384h139.406
			c4.631,0,8.384-3.754,8.384-8.384V135.266C334.088,130.636,330.334,126.882,325.704,126.882z M194.681,368.349V143.651h122.637
			v224.699H194.681z"/>
	</g>
</g>
<g>
	<g>
		<path d="M503.616,126.882H364.21c-4.632,0-8.384,3.754-8.384,8.384v241.467c0,4.63,3.753,8.384,8.384,8.384h139.406
			c4.631,0,8.384-3.754,8.384-8.384V135.266C512,130.636,508.247,126.882,503.616,126.882z M495.231,368.349H372.594V143.651
			h122.637V368.349z"/>
	</g>
</g>
<g>
	<g>
		<path d="M277.832,229.824c6.659-5.989,10.856-14.664,10.856-24.304c0-18.025-14.664-32.689-32.688-32.689
			c-18.025,0-32.689,14.664-32.689,32.689c0,9.64,4.197,18.316,10.857,24.304c-6.66,5.987-10.857,14.664-10.857,24.303
			c0,4.63,3.753,8.384,8.384,8.384c4.631,0,8.384-3.754,8.384-8.384c0-8.778,7.142-15.919,15.92-15.919s15.919,7.141,15.919,15.919
			c0,4.63,3.753,8.384,8.384,8.384c4.632,0,8.384-3.754,8.384-8.384C288.688,244.488,284.491,235.812,277.832,229.824z M256,221.44
			c-8.778,0-15.92-7.141-15.92-15.92c0-8.779,7.142-15.92,15.92-15.92s15.919,7.141,15.919,15.92
			C271.919,214.299,264.778,221.44,256,221.44z"/>
	</g>
</g>
<g>
	<g>
		<path d="M113.302,284.507H42.874c-4.631,0-8.384,3.754-8.384,8.384c0,4.63,3.753,8.384,8.384,8.384h70.428
			c4.631,0,8.384-3.754,8.384-8.384C121.686,288.26,117.933,284.507,113.302,284.507z"/>
	</g>
</g>
<g>
	<g>
		<path d="M95.498,311.336H60.675c-4.631,0-8.384,3.754-8.384,8.384s3.753,8.384,8.384,8.384h34.822
			c4.631,0,8.384-3.754,8.384-8.384S100.128,311.336,95.498,311.336z"/>
	</g>
</g>
<g>
	<g>
		<path d="M291.214,284.507h-70.428c-4.631,0-8.384,3.754-8.384,8.384c0,4.63,3.753,8.384,8.384,8.384h70.428
			c4.631,0,8.384-3.754,8.384-8.384C299.598,288.26,295.845,284.507,291.214,284.507z"/>
	</g>
</g>
<g>
	<g>
		<path d="M273.41,311.336h-34.82c-4.631,0-8.384,3.754-8.384,8.384s3.753,8.384,8.384,8.384h34.82c4.632,0,8.384-3.754,8.384-8.384
			S278.042,311.336,273.41,311.336z"/>
	</g>
</g>
<g>
	<g>
		<path d="M469.126,284.507h-70.428c-4.632,0-8.384,3.754-8.384,8.384c0,4.63,3.754,8.384,8.384,8.384h70.428
			c4.631,0,8.384-3.754,8.384-8.384C477.51,288.26,473.758,284.507,469.126,284.507z"/>
	</g>
</g>
<g>
	<g>
		<path d="M451.324,311.336h-34.82c-4.631,0-8.384,3.754-8.384,8.384s3.753,8.384,8.384,8.384h34.82
			c4.631,0,8.384-3.754,8.384-8.384S455.954,311.336,451.324,311.336z"/>
	</g>
</g>
<g>
	<g>
		<path d="M107.12,187.84c-16.008-16.007-42.057-16.01-58.063,0c-7.756,7.755-12.026,18.065-12.026,29.032
			c0,10.967,4.27,21.277,12.025,29.032c8.003,8.005,18.517,12.006,29.031,12.006c10.514,0,21.029-4.002,29.032-12.006
			c7.756-7.755,12.026-18.065,12.026-29.032C119.145,205.906,114.875,195.595,107.12,187.84z M60.911,234.048
			c-4.588-4.588-7.113-10.687-7.113-17.174c0-3.577,0.794-7.026,2.253-10.178l32.206,32.206
			C79.281,243.03,68.296,241.43,60.911,234.048z M100.123,227.052l-32.206-32.206c3.22-1.482,6.69-2.25,10.168-2.25
			c6.221,0,12.441,2.368,17.177,7.103c4.588,4.588,7.113,10.687,7.113,17.174C102.375,220.451,101.582,223.899,100.123,227.052z"/>
	</g>
</g>
<g>
	<g>
		<path d="M463.671,179.528c-4.16-2.029-9.18-0.298-11.209,3.862l-23.08,47.343l-14.865-19.659
			c-2.793-3.692-8.05-4.425-11.745-1.631c-3.694,2.792-4.424,8.051-1.631,11.745l23.103,30.553c1.594,2.107,4.076,3.328,6.686,3.328
			c0.269,0,0.54-0.013,0.813-0.039c2.902-0.282,5.448-2.05,6.725-4.671l29.065-59.621
			C469.562,186.576,467.834,181.557,463.671,179.528z"/>
	</g>
</g>
<g>
</g>
<g>
</g>
<g>
</g>
<g>
</g>
<g>
</g>
<g>
</g>
<g>
</g>
<g>
</g>
<g>
</g>
<g>
</g>
<g>
</g>
<g>
</g>
<g>
</g>
<g>
</g>
<g>
</g>
</svg>
