<?xml version="1.0" encoding="iso-8859-1"?>
<!-- Generator: Adobe Illustrator 19.0.0, SVG Export Plug-In . SVG Version: 6.00 Build 0)  -->
<svg version="1.1" id="Layer_1" xmlns="http://www.w3.org/2000/svg" xmlns:xlink="http://www.w3.org/1999/xlink" x="0px" y="0px"
	 viewBox="0 0 511.999 511.999" style="enable-background:new 0 0 511.999 511.999;" xml:space="preserve">
<g>
	<g>
		<path d="M470.316,32.427H41.683C18.7,32.427,0,51.127,0,74.111v40.433c0,4.965,4.026,8.991,8.991,8.991
			c4.965,0,8.991-4.026,8.991-8.991V74.111c0-13.069,10.633-23.701,23.701-23.701h428.634c13.069,0,23.701,10.632,23.701,23.701
			v267.002c0,4.965,4.024,8.991,8.991,8.991s8.991-4.025,8.991-8.991V74.111C512,51.127,493.3,32.427,470.316,32.427z"/>
	</g>
</g>
<g>
	<g>
		<path d="M503.009,365.419c-4.967,0-8.991,4.025-8.991,8.991c0,13.069-10.632,23.701-23.701,23.701H41.683
			c-13.068,0.001-23.701-10.632-23.701-23.701V149.308c0-4.965-4.026-8.991-8.991-8.991c-4.965,0-8.991,4.026-8.991,8.991V374.41
			c0,22.984,18.7,41.684,41.683,41.684h171.839L202.6,461.59h-42.503c-4.965,0-8.991,4.025-8.991,8.991s4.026,8.991,8.991,8.991
			h49.591h92.622h49.591c4.967,0,8.991-4.025,8.991-8.991s-4.024-8.991-8.991-8.991h-42.503l-10.922-45.496h171.839
			c22.984,0,41.683-18.698,41.683-41.683C512,369.445,507.975,365.419,503.009,365.419z M221.094,461.589l10.922-45.496h47.969
			l10.922,45.496H221.094z"/>
	</g>
</g>
<g>
	<g>
		<path d="M472.651,353.264H39.35c-4.965,0-8.991,4.025-8.991,8.991s4.026,8.991,8.991,8.991h433.302
			c4.966,0,8.991-4.025,8.991-8.991S477.618,353.264,472.651,353.264z"/>
	</g>
</g>
<g>
	<g>
		<path d="M472.65,77.276H39.35c-4.965,0-8.991,4.026-8.991,8.991s4.026,8.991,8.991,8.991h433.302c4.965,0,8.99-4.025,8.99-8.991
			S477.617,77.276,472.65,77.276z"/>
	</g>
</g>
<g>
	<g>
		<path d="M359.952,200.337l-18.581-1.225c-1.751-5.921-4.118-11.622-7.074-17.055l12.277-14.014
			c3.12-3.562,2.943-8.933-0.405-12.283l-21.148-21.146c-3.352-3.351-8.725-3.524-12.285-0.403l-14.005,12.279
			c-5.432-2.96-11.137-5.327-17.06-7.08l-1.224-18.573c-0.312-4.726-4.235-8.4-8.97-8.4h-29.895c-4.736,0-8.661,3.674-8.972,8.401
			l-1.224,18.571c-5.924,1.753-11.627,4.12-17.057,7.08l-14.011-12.279c-3.563-3.123-8.937-2.944-12.285,0.405l-21.142,21.142
			c-3.352,3.348-3.53,8.723-0.408,12.287l12.279,14.011c-2.959,5.429-5.326,11.133-7.079,17.056l-18.573,1.224
			c-4.726,0.312-8.4,4.235-8.4,8.972v29.895c0,4.736,3.673,8.66,8.4,8.972l18.573,1.224c1.753,5.923,4.12,11.627,7.079,17.061
			l-12.279,14.004c-3.123,3.562-2.947,8.933,0.4,12.284l21.155,21.156c3.349,3.341,8.715,3.516,12.274,0.398l14.014-12.277
			c5.432,2.957,11.134,5.323,17.055,7.074l1.224,18.581c0.312,4.726,4.235,8.4,8.972,8.4h29.895c4.736,0,8.66-3.674,8.97-8.4
			l1.224-18.581c5.921-1.751,11.626-4.118,17.06-7.075l10.162,8.901c0.08,0.077,0.163,0.151,0.247,0.225l3.6,3.153
			c3.564,3.12,8.932,2.942,12.281-0.406l21.148-21.146c3.348-3.348,3.524-8.721,0.404-12.284l-16.577-18.914
			c-3.271-3.734-8.952-4.108-12.688-0.836c-3.734,3.273-4.108,8.954-0.836,12.688l11.029,12.583l-9.24,9.239L305.669,284.2
			c-3.027-2.65-7.444-2.968-10.818-0.779c-7.248,4.702-15.188,7.995-23.6,9.787c-3.934,0.838-6.833,4.188-7.098,8.202l-1.1,16.689
			h-13.059l-1.099-16.689c-0.265-4.015-3.164-7.364-7.098-8.202c-8.414-1.792-16.35-5.084-23.589-9.784
			c-3.376-2.191-7.793-1.874-10.82,0.778l-12.596,11.035l-9.24-9.244l11.035-12.585c2.654-3.027,2.972-7.449,0.779-10.826
			c-4.704-7.242-7.998-15.18-9.79-23.595c-0.838-3.934-4.189-6.833-8.202-7.098l-16.682-1.099v-13.061l16.682-1.099
			c4.015-0.265,7.364-3.164,8.202-7.098c1.793-8.418,5.086-16.354,9.789-23.583c2.195-3.376,1.878-7.799-0.776-10.827
			l-11.032-12.588l9.24-9.243l12.59,11.035c3.029,2.655,7.453,2.972,10.827,0.776c7.231-4.703,15.166-7.996,23.583-9.789
			c3.934-0.838,6.833-4.187,7.098-8.201l1.101-16.682h13.058l1.1,16.681c0.265,4.015,3.164,7.364,7.098,8.202
			c8.417,1.793,16.355,5.088,23.594,9.792c3.377,2.193,7.798,1.877,10.826-0.779l12.584-11.034l9.242,9.241l-11.031,12.592
			c-2.652,3.027-2.969,7.446-0.777,10.82c4.7,7.241,7.992,15.176,9.783,23.589c0.838,3.934,4.189,6.834,8.203,7.098l16.69,1.1
			v13.059l-16.688,1.097c-4.955,0.326-8.707,4.608-8.379,9.563c0.326,4.956,4.616,8.707,9.563,8.381l25.09-1.654
			c4.726-0.312,8.4-4.235,8.4-8.972v-29.895C368.352,204.573,364.679,200.649,359.952,200.337z"/>
	</g>
</g>
<g>
	<g>
		<path d="M255.996,180.629c-5.953,0-11.728,1.181-17.164,3.509c-4.565,1.955-6.68,7.241-4.724,11.804
			c1.955,4.565,7.241,6.68,11.804,4.724c3.185-1.364,6.578-2.057,10.084-2.057c14.146,0,25.654,11.505,25.654,25.645
			c0,14.146-11.508,25.654-25.654,25.654c-14.141,0-25.645-11.508-25.645-25.654c0-2.519,0.362-5.004,1.078-7.386
			c1.428-4.754-1.271-9.768-6.026-11.194c-4.754-1.428-9.769,1.271-11.197,6.026c-1.218,4.06-1.836,8.284-1.836,12.555
			c0,24.061,19.571,43.635,43.627,43.635c24.061,0,43.635-19.575,43.635-43.635C299.631,200.201,280.056,180.629,255.996,180.629z"
			/>
	</g>
</g>
<g>
</g>
<g>
</g>
<g>
</g>
<g>
</g>
<g>
</g>
<g>
</g>
<g>
</g>
<g>
</g>
<g>
</g>
<g>
</g>
<g>
</g>
<g>
</g>
<g>
</g>
<g>
</g>
<g>
</g>
</svg>
