<?xml version="1.0" encoding="iso-8859-1"?>
<!-- Generator: Adobe Illustrator 19.0.0, SVG Export Plug-In . SVG Version: 6.00 Build 0)  -->
<svg version="1.1" id="Layer_1" xmlns="http://www.w3.org/2000/svg" xmlns:xlink="http://www.w3.org/1999/xlink" x="0px" y="0px"
	 viewBox="0 0 511.999 511.999" style="enable-background:new 0 0 511.999 511.999;" xml:space="preserve">
<g>
	<g>
		<path d="M470.316,32.427H41.683C18.7,32.427,0,51.127,0,74.111v40.433c0,4.965,4.024,8.991,8.991,8.991
			c4.967,0,8.991-4.026,8.991-8.991V74.111c0-13.069,10.632-23.701,23.701-23.701h428.634c13.069,0,23.701,10.632,23.701,23.701
			v267.002c0,4.965,4.024,8.991,8.991,8.991s8.991-4.025,8.991-8.991V74.111C512,51.127,493.3,32.427,470.316,32.427z"/>
	</g>
</g>
<g>
	<g>
		<path d="M503.009,365.419c-4.967,0-8.991,4.025-8.991,8.991c0,13.069-10.632,23.701-23.701,23.701H41.683
			c-13.069,0.001-23.701-10.632-23.701-23.701V149.308c0-4.965-4.024-8.991-8.991-8.991c-4.966,0-8.991,4.026-8.991,8.991V374.41
			c0,22.984,18.7,41.684,41.683,41.684h171.839l-10.923,45.496h-42.503c-4.966,0-8.991,4.025-8.991,8.991s4.024,8.991,8.991,8.991
			h49.59h92.623H351.9c4.966,0,8.991-4.025,8.991-8.991s-4.024-8.991-8.991-8.991h-42.503l-10.922-45.496h171.839
			c22.984,0,41.683-18.698,41.683-41.683C512,369.445,507.975,365.419,503.009,365.419z M221.094,461.589l10.923-45.496h47.968
			l10.922,45.496H221.094z"/>
	</g>
</g>
<g>
	<g>
		<path d="M472.65,353.264H39.35c-4.966,0-8.991,4.025-8.991,8.991s4.026,8.991,8.991,8.991H472.65c4.967,0,8.991-4.025,8.991-8.991
			S477.617,353.264,472.65,353.264z"/>
	</g>
</g>
<g>
	<g>
		<path d="M472.65,77.276H39.35c-4.966,0-8.991,4.026-8.991,8.991s4.024,8.991,8.991,8.991H472.65c4.966,0,8.991-4.025,8.991-8.991
			S477.617,77.276,472.65,77.276z"/>
	</g>
</g>
<g>
	<g>
		<path d="M276.382,146.938h-30.271v0.001c-4.967,0-8.991,4.025-8.991,8.991v136.66c0,4.965,4.024,8.991,8.991,8.991
			s8.991-4.026,8.991-8.991v-34.793h21.281c18.218,0,33.041-14.822,33.041-33.041v-44.778
			C309.423,161.76,294.601,146.938,276.382,146.938z M291.44,224.758c0,8.304-6.755,15.059-15.059,15.059H255.1v-74.895h21.281
			c8.304-0.001,15.059,6.754,15.059,15.058V224.758z"/>
	</g>
</g>
<g>
	<g>
		<path d="M202.973,290.356l-11.092-43.23c-1.234-4.808-6.128-7.708-10.944-6.475c-4.809,1.235-7.708,6.133-6.473,10.944
			l0.941,3.669H142.99l16.207-63.161l8.474,33.018c1.234,4.808,6.131,7.711,10.944,6.473c4.81-1.235,7.708-6.134,6.473-10.944
			l-17.181-66.955c-1.021-3.976-4.604-6.756-8.709-6.756c-4.105,0-7.688,2.78-8.709,6.756l-35.068,136.66
			c-1.234,4.81,1.665,9.709,6.473,10.944c0.75,0.192,1.501,0.284,2.24,0.284c4.008,0,7.661-2.698,8.703-6.759l5.537-21.579h41.643
			l5.537,21.579c1.042,4.06,4.696,6.759,8.703,6.759c0.738,0,1.491-0.092,2.24-0.284
			C201.309,300.065,204.208,295.166,202.973,290.356z"/>
	</g>
</g>
<g>
	<g>
		<path d="M387.868,283.599h-15.584V164.921h15.584c4.966,0,8.991-4.025,8.991-8.991s-4.024-8.991-8.991-8.991h-49.15
			c-4.966,0-8.991,4.025-8.991,8.991s4.024,8.991,8.991,8.991h15.584v118.679h-15.584c-4.966,0-8.991,4.026-8.991,8.991
			c0,4.965,4.024,8.991,8.991,8.991h49.15c4.966,0,8.991-4.026,8.991-8.991C396.859,287.625,392.835,283.599,387.868,283.599z"/>
	</g>
</g>
<g>
</g>
<g>
</g>
<g>
</g>
<g>
</g>
<g>
</g>
<g>
</g>
<g>
</g>
<g>
</g>
<g>
</g>
<g>
</g>
<g>
</g>
<g>
</g>
<g>
</g>
<g>
</g>
<g>
</g>
</svg>
