<?xml version="1.0" encoding="iso-8859-1"?>
<!-- Generator: Adobe Illustrator 19.0.0, SVG Export Plug-In . SVG Version: 6.00 Build 0)  -->
<svg version="1.1" id="Layer_1" xmlns="http://www.w3.org/2000/svg" xmlns:xlink="http://www.w3.org/1999/xlink" x="0px" y="0px"
	 viewBox="0 0 511.999 511.999" style="enable-background:new 0 0 511.999 511.999;" xml:space="preserve">
<g>
	<g>
		<path d="M408.248,112.552H103.76c-4.967,0-8.991,4.025-8.991,8.991v75.523c0,4.965,4.024,8.991,8.991,8.991h304.489
			c4.967,0,8.991-4.025,8.991-8.991v-75.523C417.239,116.578,413.215,112.552,408.248,112.552z M399.258,188.075H112.751v-57.541
			h286.507V188.075z"/>
	</g>
</g>
<g>
	<g>
		<path d="M154.708,218.764H103.76c-4.967,0-8.991,4.026-8.991,8.991v35.436c0,4.965,4.024,8.991,8.991,8.991h50.948
			c4.967,0,8.991-4.025,8.991-8.991v-35.436C163.699,222.789,159.674,218.764,154.708,218.764z M145.717,254.199h-32.966v-17.454
			h32.966V254.199z"/>
	</g>
</g>
<g>
	<g>
		<path d="M154.708,283.438H103.76c-4.967,0-8.991,4.025-8.991,8.991v35.436c0,4.965,4.024,8.991,8.991,8.991h50.948
			c4.967,0,8.991-4.026,8.991-8.991v-35.436C163.699,287.463,159.673,283.438,154.708,283.438z M145.717,318.873h-32.966v-17.454
			h32.966V318.873z"/>
	</g>
</g>
<g>
	<g>
		<path d="M239.221,218.764h-50.96c-4.967,0-8.991,4.026-8.991,8.991v35.436c0,4.965,4.024,8.991,8.991,8.991h50.96
			c4.966,0,8.991-4.025,8.991-8.991v-35.436C248.212,222.789,244.188,218.764,239.221,218.764z M230.231,254.199h-32.978v-17.454
			h32.978V254.199z"/>
	</g>
</g>
<g>
	<g>
		<path d="M239.221,283.438h-50.96c-4.967,0-8.991,4.025-8.991,8.991v35.436c0,4.965,4.024,8.991,8.991,8.991h50.96
			c4.966,0,8.991-4.026,8.991-8.991v-35.436C248.212,287.463,244.187,283.438,239.221,283.438z M230.231,318.873h-32.978v-17.454
			h32.978V318.873z"/>
	</g>
</g>
<g>
	<g>
		<path d="M323.735,218.764h-50.96c-4.966,0-8.991,4.026-8.991,8.991v35.436c0,4.965,4.024,8.991,8.991,8.991h50.96
			c4.967,0,8.991-4.025,8.991-8.991v-35.436C332.726,222.789,328.701,218.764,323.735,218.764z M314.744,254.199h-32.978v-17.454
			h32.978V254.199z"/>
	</g>
</g>
<g>
	<g>
		<path d="M323.735,283.438h-50.96c-4.966,0-8.991,4.025-8.991,8.991v35.436c0,4.965,4.024,8.991,8.991,8.991h50.96
			c4.967,0,8.991-4.026,8.991-8.991v-35.436C332.726,287.463,328.7,283.438,323.735,283.438z M314.744,318.873h-32.978v-17.454
			h32.978V318.873z"/>
	</g>
</g>
<g>
	<g>
		<path d="M408.248,218.764h-50.96c-4.967,0-8.991,4.026-8.991,8.991v35.436c0,4.965,4.024,8.991,8.991,8.991h50.96
			c4.967,0,8.991-4.025,8.991-8.991v-35.436C417.239,222.789,413.215,218.764,408.248,218.764z M399.258,254.199h-32.978v-17.454
			h32.978V254.199z"/>
	</g>
</g>
<g>
	<g>
		<path d="M408.248,283.438h-50.96c-4.967,0-8.991,4.025-8.991,8.991v35.436c0,4.965,4.024,8.991,8.991,8.991h50.96
			c4.967,0,8.991-4.026,8.991-8.991v-35.436C417.239,287.463,413.214,283.438,408.248,283.438z M399.258,318.873h-32.978v-17.454
			h32.978V318.873z"/>
	</g>
</g>
<g>
	<g>
		<circle cx="143.325" cy="159.304" r="8.991"/>
	</g>
</g>
<g>
	<g>
		<circle cx="207.16" cy="159.304" r="8.991"/>
	</g>
</g>
<g>
	<g>
		<circle cx="270.995" cy="159.304" r="8.991"/>
	</g>
</g>
<g>
	<g>
		<circle cx="239.072" cy="159.304" r="8.991"/>
	</g>
</g>
<g>
	<g>
		<circle cx="175.237" cy="159.304" r="8.991"/>
	</g>
</g>
<g>
	<g>
		<path d="M470.316,32.427H41.683C18.7,32.427,0,51.127,0,74.111v40.433c0,4.965,4.024,8.991,8.991,8.991
			c4.967,0,8.991-4.026,8.991-8.991V74.111c0-13.069,10.632-23.701,23.701-23.701h428.634c13.069,0,23.701,10.633,23.701,23.701
			v267.002c0,4.965,4.024,8.991,8.991,8.991s8.991-4.025,8.991-8.991V74.111C512,51.127,493.3,32.427,470.316,32.427z"/>
	</g>
</g>
<g>
	<g>
		<path d="M503.009,365.419c-4.967,0-8.991,4.025-8.991,8.991c0,13.069-10.632,23.701-23.701,23.701H41.683
			c-13.069,0.001-23.701-10.632-23.701-23.701V149.308c0-4.965-4.024-8.991-8.991-8.991c-4.966,0-8.991,4.026-8.991,8.991V374.41
			c0,22.984,18.7,41.684,41.683,41.684h171.839l-10.923,45.496h-42.503c-4.966,0-8.991,4.025-8.991,8.991s4.024,8.991,8.991,8.991
			h49.59h92.623H351.9c4.966,0,8.991-4.025,8.991-8.991s-4.024-8.991-8.991-8.991h-42.503l-10.922-45.496h171.839
			c22.984,0,41.683-18.7,41.683-41.683C512,369.445,507.975,365.419,503.009,365.419z M221.094,461.589l10.923-45.496h47.968
			l10.922,45.496H221.094z"/>
	</g>
</g>
<g>
	<g>
		<path d="M472.65,353.264H39.35c-4.966,0-8.991,4.025-8.991,8.991s4.026,8.991,8.991,8.991H472.65c4.967,0,8.991-4.025,8.991-8.991
			S477.617,353.264,472.65,353.264z"/>
	</g>
</g>
<g>
	<g>
		<path d="M472.65,77.276H39.35c-4.966,0-8.991,4.026-8.991,8.991s4.024,8.991,8.991,8.991H472.65c4.966,0,8.991-4.025,8.991-8.991
			S477.617,77.276,472.65,77.276z"/>
	</g>
</g>
<g>
</g>
<g>
</g>
<g>
</g>
<g>
</g>
<g>
</g>
<g>
</g>
<g>
</g>
<g>
</g>
<g>
</g>
<g>
</g>
<g>
</g>
<g>
</g>
<g>
</g>
<g>
</g>
<g>
</g>
</svg>
