<?xml version="1.0" encoding="iso-8859-1"?>
<!-- Generator: Adobe Illustrator 19.0.0, SVG Export Plug-In . SVG Version: 6.00 Build 0)  -->
<svg version="1.1" id="Layer_1" xmlns="http://www.w3.org/2000/svg" xmlns:xlink="http://www.w3.org/1999/xlink" x="0px" y="0px"
	 viewBox="0 0 511.999 511.999" style="enable-background:new 0 0 511.999 511.999;" xml:space="preserve">
<g>
	<g>
		<path d="M470.316,32.427H41.683C18.7,32.427,0,51.127,0,74.111v40.433c0,4.965,4.024,8.991,8.991,8.991
			c4.967,0,8.991-4.026,8.991-8.991V74.111c0-13.069,10.632-23.701,23.701-23.701h428.634c13.069,0,23.701,10.632,23.701,23.701
			v267.002c0,4.965,4.024,8.991,8.991,8.991s8.991-4.025,8.991-8.991V74.111C512,51.127,493.3,32.427,470.316,32.427z"/>
	</g>
</g>
<g>
	<g>
		<path d="M503.009,365.419c-4.967,0-8.991,4.025-8.991,8.991c0,13.069-10.632,23.701-23.701,23.701H41.683
			c-13.069,0.001-23.701-10.632-23.701-23.701V149.308c0-4.965-4.024-8.991-8.991-8.991c-4.966,0-8.991,4.026-8.991,8.991V374.41
			c0,22.984,18.7,41.684,41.683,41.684h171.839l-10.923,45.496h-42.501c-4.967,0-8.991,4.025-8.991,8.991s4.024,8.991,8.991,8.991
			h49.59h92.623h49.591c4.967,0,8.991-4.025,8.991-8.991s-4.024-8.991-8.991-8.991h-42.503l-10.922-45.496h171.839
			c22.984,0,41.683-18.698,41.683-41.683C512,369.445,507.975,365.419,503.009,365.419z M221.094,461.589l10.923-45.496h47.968
			l10.922,45.496H221.094z"/>
	</g>
</g>
<g>
	<g>
		<path d="M472.65,353.264H39.35c-4.966,0-8.991,4.025-8.991,8.991s4.026,8.991,8.991,8.991H472.65c4.967,0,8.991-4.025,8.991-8.991
			S477.617,353.264,472.65,353.264z"/>
	</g>
</g>
<g>
	<g>
		<path d="M472.65,77.276H39.35c-4.966,0-8.991,4.026-8.991,8.991s4.024,8.991,8.991,8.991H472.65c4.966,0,8.991-4.025,8.991-8.991
			S477.617,77.276,472.65,77.276z"/>
	</g>
</g>
<g>
	<g>
		<path d="M334.52,260.195c4.966,0,8.991-4.026,8.991-8.991v-34.764c0-4.965-4.024-8.991-8.991-8.991h-10.474v-32.055
			c0-37.519-30.523-68.042-68.042-68.042s-68.042,30.523-68.042,68.042v32.055h-10.481c-4.966,0-8.991,4.026-8.991,8.991v113.884
			c0,4.965,4.024,8.991,8.991,8.991H334.52c4.966,0,8.991-4.026,8.991-8.991v-47.951c0-4.965-4.024-8.991-8.991-8.991
			c-4.967,0-8.991,4.025-8.991,8.991v38.96H186.472V225.43h139.058v25.774C325.529,256.169,329.554,260.195,334.52,260.195z
			 M306.065,207.448H205.943v-32.055h0c0-27.604,22.457-50.061,50.061-50.061c27.604,0,50.061,22.457,50.061,50.061V207.448z"/>
	</g>
</g>
<g>
	<g>
		<path d="M256.001,236.818c-14.542,0-26.373,11.831-26.373,26.373c0,11.386,7.254,21.109,17.382,24.793v13.568
			c0,4.965,4.024,8.991,8.991,8.991s8.991-4.026,8.991-8.991v-13.568c10.128-3.684,17.382-13.407,17.382-24.793
			C282.374,248.649,270.543,236.818,256.001,236.818z M256.001,271.583c-4.626,0-8.391-3.764-8.391-8.391
			c0-4.627,3.764-8.391,8.391-8.391c4.626,0,8.391,3.764,8.391,8.391C264.392,267.819,260.627,271.583,256.001,271.583z"/>
	</g>
</g>
<g>
</g>
<g>
</g>
<g>
</g>
<g>
</g>
<g>
</g>
<g>
</g>
<g>
</g>
<g>
</g>
<g>
</g>
<g>
</g>
<g>
</g>
<g>
</g>
<g>
</g>
<g>
</g>
<g>
</g>
</svg>
