<?xml version="1.0" encoding="iso-8859-1"?>
<!-- Generator: Adobe Illustrator 19.0.0, SVG Export Plug-In . SVG Version: 6.00 Build 0)  -->
<svg version="1.1" id="Layer_1" xmlns="http://www.w3.org/2000/svg" xmlns:xlink="http://www.w3.org/1999/xlink" x="0px" y="0px"
	 viewBox="0 0 512 512" style="enable-background:new 0 0 512 512;" xml:space="preserve">
<g>
	<g>
		<path d="M503.393,207.42c4.755,0,8.607-3.854,8.607-8.607V48.364c0-4.754-3.853-8.607-8.607-8.607H83.756
			c-4.755,0-8.607,3.854-8.607,8.607c0,4.753,3.853,8.607,8.607,8.607h411.028v133.234H17.214V56.971h33.263
			c4.755,0,8.607-3.854,8.607-8.607c0-4.754-3.853-8.607-8.607-8.607H8.607C3.853,39.757,0,43.611,0,48.364v150.449
			c0,4.754,3.853,8.607,8.607,8.607h106.552v17.115H8.607c-4.755,0-8.607,3.854-8.607,8.607v98.082c0,4.753,3.853,8.607,8.607,8.607
			h40.433v17.115H8.607C3.853,356.946,0,360.8,0,365.554v98.082c0,4.753,3.853,8.607,8.607,8.607h98.082
			c4.755,0,8.607-3.854,8.607-8.607v-40.433h16.938v40.433c0,4.753,3.853,8.607,8.607,8.607h98.082c4.755,0,8.607-3.854,8.607-8.607
			v-98.082c0-4.753-3.853-8.607-8.607-8.607h-40.433v-17.115h40.433c4.755,0,8.607-3.854,8.607-8.607v-98.082
			c0-4.754-3.853-8.607-8.607-8.607H132.374V207.42h247.254v17.115H273.076c-4.755,0-8.607,3.854-8.607,8.607v98.082
			c0,4.753,3.853,8.607,8.607,8.607h40.433v17.115h-40.433c-4.755,0-8.607,3.854-8.607,8.607v98.082
			c0,4.753,3.853,8.607,8.607,8.607h98.082c4.755,0,8.607-3.854,8.607-8.607v-40.433h16.939v40.433c0,4.753,3.853,8.607,8.607,8.607
			h98.081c4.755,0,8.607-3.854,8.607-8.607v-98.082c0-4.753-3.853-8.607-8.607-8.607h-40.433v-17.115h40.433
			c4.755,0,8.607-3.854,8.607-8.607v-70.407c0-4.753-3.853-8.607-8.607-8.607s-8.607,3.854-8.607,8.607v61.8H281.683v-80.868
			h221.709c4.755,0,8.607-3.854,8.607-8.607c0-4.754-3.853-8.607-8.607-8.607H396.841V207.42H503.393z M98.082,455.028H17.214
			V374.16h80.868V455.028z M230.317,374.16v80.868h-80.868v-65.109c0-4.753-3.853-8.607-8.607-8.607s-8.607,3.854-8.607,8.607
			v16.068h-16.938v-40.433c0-4.753-3.853-8.607-8.607-8.607H66.255v-17.115h115.02v17.113h-40.433c-4.755,0-8.607,3.854-8.607,8.607
			s3.853,8.607,8.607,8.607H230.317z M230.316,241.749v80.868H17.214v-80.868H230.316z M362.551,455.028h-80.868V374.16h80.868
			V455.028z M494.786,374.16v80.868h-80.867V374.16H494.786z M330.725,339.831h115.02v17.115h-0.001h-40.432
			c-4.755,0-8.607,3.854-8.607,8.607v40.433h-16.939v-40.433c0-4.753-3.853-8.607-8.607-8.607h-40.433V339.831z"/>
	</g>
</g>
<g>
</g>
<g>
</g>
<g>
</g>
<g>
</g>
<g>
</g>
<g>
</g>
<g>
</g>
<g>
</g>
<g>
</g>
<g>
</g>
<g>
</g>
<g>
</g>
<g>
</g>
<g>
</g>
<g>
</g>
</svg>
