<?xml version="1.0" encoding="iso-8859-1"?>
<!-- Generator: Adobe Illustrator 19.0.0, SVG Export Plug-In . SVG Version: 6.00 Build 0)  -->
<svg version="1.1" id="Layer_1" xmlns="http://www.w3.org/2000/svg" xmlns:xlink="http://www.w3.org/1999/xlink" x="0px" y="0px"
	 viewBox="0 0 512 512" style="enable-background:new 0 0 512 512;" xml:space="preserve">
<g>
	<g>
		<path d="M503.429,379.28h-16.009V146.383c0-15.639-9.309-29.681-23.712-35.774c-4.359-1.842-9.39,0.195-11.233,4.555
			c-1.845,4.36,0.195,9.39,4.554,11.234c8.048,3.403,13.248,11.248,13.248,19.985v232.896h-35.319c-4.735,0-8.571,3.838-8.571,8.572
			c0,4.734,3.837,8.571,8.571,8.571h59.9v15.839c0,15.844-12.889,28.733-28.734,28.733H45.876
			c-15.844-0.001-28.733-12.89-28.733-28.734v-15.839h170.288v0.409c0,16.789,13.658,30.448,30.448,30.448h76.242
			c16.789,0,30.448-13.658,30.448-30.448v-0.409h80.103c4.735,0,8.571-3.838,8.571-8.572c0-4.734-3.837-8.571-8.571-8.571h-88.675
			H196.002H41.724V236.121c0-4.734-3.838-8.571-8.571-8.571s-8.571,3.838-8.571,8.571V379.28H8.571
			c-4.734,0-8.571,3.838-8.571,8.571v24.41c0,25.296,20.58,45.876,45.876,45.876h420.247c25.296,0,45.877-20.58,45.877-45.876
			v-24.41C512,383.117,508.162,379.28,503.429,379.28z M204.574,396.423h102.852v0.409c0,7.336-5.969,13.305-13.305,13.305h-76.242
			c-7.336,0-13.305-5.968-13.305-13.305V396.423z"/>
	</g>
</g>
<g>
	<g>
		<path d="M297.147,107.554H63.41c-21.41,0-38.83,17.418-38.83,38.829v55.454c0.001,4.735,3.839,8.571,8.573,8.571
			s8.571-3.838,8.571-8.571v-55.454c0-11.958,9.728-21.686,21.687-21.686h233.736c4.735,0,8.571-3.838,8.571-8.571
			C305.719,111.392,301.882,107.554,297.147,107.554z"/>
	</g>
</g>
<g>
	<g>
		<path d="M447.134,146.982h-18.177c-4.735,0-8.571,3.838-8.571,8.571s3.837,8.571,8.571,8.571h18.177
			c4.734,0,8.572-3.838,8.572-8.571S451.869,146.982,447.134,146.982z"/>
	</g>
</g>
<g>
	<g>
		<path d="M253.717,146.982H64.866c-4.734,0-8.572,3.838-8.572,8.571s3.838,8.571,8.572,8.571h188.853
			c4.734,0,8.57-3.838,8.57-8.571S258.452,146.982,253.717,146.982z"/>
	</g>
</g>
<g>
	<g>
		<path d="M440.819,103.654l-47.269-47.28c-1.607-1.608-3.787-2.511-6.062-2.511s-4.453,0.903-6.062,2.511L218.455,219.346
			c-1.17,1.173-1.978,2.659-2.322,4.282l-12.732,60c-0.602,2.838,0.272,5.787,2.323,7.839c1.624,1.624,3.811,2.511,6.062,2.511
			c0.591,0,1.187-0.062,1.777-0.186l60-12.72c1.623-0.344,3.111-1.151,4.283-2.325l43.156-43.155c3.347-3.347,3.347-8.775,0-12.121
			c-3.347-3.346-8.774-3.349-12.122,0l-37.093,37.093l-35.148-35.157l117.73-117.732l35.157,35.149l-60.648,60.647
			c-3.347,3.347-3.347,8.775,0,12.121c3.349,3.347,8.775,3.347,12.122,0l99.818-99.818
			C444.166,112.428,444.166,107.001,440.819,103.654z M254.557,267.577l-31.649,6.711l6.716-31.65L254.557,267.577z M401.65,130.703
			l-35.157-35.149l20.996-20.997l35.15,35.157L401.65,130.703z"/>
	</g>
</g>
<g>
	<g>
		<path d="M201.908,298.419H70.098c-4.734,0-8.571,3.838-8.571,8.571s3.838,8.571,8.571,8.571h131.81
			c4.734,0,8.571-3.838,8.571-8.571S206.641,298.419,201.908,298.419z"/>
	</g>
</g>
<g>
	<g>
		<path d="M155.432,264.511H70.098c-4.734,0-8.571,3.838-8.571,8.571s3.838,8.571,8.571,8.571h85.334
			c4.734,0,8.571-3.838,8.571-8.571S160.166,264.511,155.432,264.511z"/>
	</g>
</g>
<g>
	<g>
		<path d="M425.148,332.327H70.098c-4.734,0-8.571,3.838-8.571,8.572c0,4.734,3.838,8.571,8.571,8.571h355.05
			c4.735,0,8.571-3.838,8.571-8.571C433.719,336.165,429.883,332.327,425.148,332.327z"/>
	</g>
</g>
<g>
</g>
<g>
</g>
<g>
</g>
<g>
</g>
<g>
</g>
<g>
</g>
<g>
</g>
<g>
</g>
<g>
</g>
<g>
</g>
<g>
</g>
<g>
</g>
<g>
</g>
<g>
</g>
<g>
</g>
</svg>
