<?xml version="1.0" encoding="iso-8859-1"?>
<!-- Generator: Adobe Illustrator 19.0.0, SVG Export Plug-In . SVG Version: 6.00 Build 0)  -->
<svg version="1.1" id="Layer_1" xmlns="http://www.w3.org/2000/svg" xmlns:xlink="http://www.w3.org/1999/xlink" x="0px" y="0px"
	 viewBox="0 0 511.999 511.999" style="enable-background:new 0 0 511.999 511.999;" xml:space="preserve">
<g>
	<g>
		<path d="M503.429,352.433h-16.009V119.537c0-15.639-9.307-29.681-23.712-35.774c-4.36-1.843-9.39,0.195-11.234,4.555
			c-1.843,4.36,0.195,9.39,4.555,11.234c8.048,3.403,13.248,11.248,13.248,19.985v232.896h-35.319c-4.734,0-8.571,3.838-8.571,8.571
			c0,4.734,3.838,8.571,8.571,8.571h59.9v15.839c0,15.844-12.889,28.733-28.733,28.733H45.876
			c-15.844-0.001-28.733-12.89-28.733-28.734v-15.839h170.288v0.409c0,16.789,13.658,30.448,30.448,30.448h76.242
			c16.789,0,30.448-13.658,30.448-30.448v-0.409h80.103c4.734,0,8.571-3.838,8.571-8.571s-3.838-8.571-8.571-8.571H41.724V209.275
			c0-4.734-3.838-8.571-8.571-8.571s-8.571,3.838-8.571,8.571v143.159H8.571c-4.734,0-8.571,3.838-8.571,8.571v24.41
			c0,25.296,20.58,45.876,45.876,45.876h420.247c25.296,0,45.876-20.58,45.876-45.876v-24.41
			C512,356.271,508.162,352.433,503.429,352.433z M204.574,369.576h102.852v0.409c0,7.336-5.969,13.305-13.305,13.305h-76.242
			c-7.336,0-13.305-5.968-13.305-13.305V369.576z"/>
	</g>
</g>
<g>
	<g>
		<path d="M426.009,80.708H63.41c-21.41,0-38.83,17.418-38.83,38.829v55.454c0.001,4.735,3.839,8.571,8.573,8.571
			s8.571-3.838,8.571-8.571v-55.454c0-11.958,9.728-21.686,21.687-21.686h362.598c4.734,0,8.571-3.838,8.571-8.571
			C434.58,84.546,430.742,80.708,426.009,80.708z"/>
	</g>
</g>
<g>
	<g>
		<path d="M210.328,163.066c-17.645,0-32,14.354-32,32v83.429c0,17.645,14.356,32,32,32c17.645,0,32-14.356,32-32v-83.429
			C242.328,177.422,227.973,163.066,210.328,163.066z M225.185,278.496c0,8.192-6.665,14.857-14.857,14.857
			c-8.192,0-14.857-6.665-14.857-14.857v-83.429c0-8.192,6.665-14.857,14.857-14.857c8.192,0,14.857,6.664,14.857,14.857V278.496z"
			/>
	</g>
</g>
<g>
	<g>
		<path d="M415.323,293.353h-38.286v-47.848h18.96c4.734,0,8.571-3.838,8.571-8.571c0-4.734-3.838-8.572-8.571-8.572h-18.96v-48.152
			h38.286c4.734,0,8.571-3.838,8.571-8.571c0-4.734-3.838-8.572-8.571-8.572h-46.857c-4.734,0-8.571,3.838-8.571,8.572v130.287
			c0,4.734,3.838,8.571,8.571,8.571h46.857c4.734,0,8.571-3.838,8.571-8.571S420.057,293.353,415.323,293.353z"/>
	</g>
</g>
<g>
	<g>
		<path d="M143.535,269.924c-4.734,0-8.571,3.838-8.571,8.571c0,8.192-6.665,14.857-14.857,14.857s-14.857-6.665-14.857-14.857
			v-83.429c0-8.193,6.664-14.857,14.857-14.857c8.192,0,14.857,6.665,14.857,14.857c0,4.734,3.838,8.571,8.571,8.571
			c4.734,0,8.572-3.838,8.572-8.571c0-17.645-14.356-32-32-32s-32,14.356-32,32v83.429c0,17.645,14.355,32,32,32s32-14.356,32-32
			C152.106,273.762,148.268,269.924,143.535,269.924z"/>
	</g>
</g>
<g>
	<g>
		<path d="M300.552,163.066h-23.429c-4.734,0-8.572,3.838-8.572,8.572v14.954c0,4.734,3.838,8.572,8.572,8.572
			c4.734,0,8.571-3.838,8.571-8.572v-6.383h14.857c8.192,0,14.857,6.665,14.857,14.857v83.429c0,8.192-6.665,14.857-14.857,14.857
			h-14.857v-80.475c0-4.734-3.838-8.571-8.572-8.571c-4.734,0-8.571,3.838-8.571,8.571v89.046c0,4.734,3.838,8.571,8.571,8.571
			h23.429c17.645,0,32-14.356,32-32v-83.429C332.552,177.422,318.196,163.066,300.552,163.066z"/>
	</g>
</g>
<g>
	<g>
		<path d="M447.429,120.18H64.57c-4.734,0-8.572,3.838-8.572,8.571c0,4.734,3.838,8.571,8.572,8.571h382.86
			c4.734,0,8.571-3.837,8.571-8.571C456.001,124.018,452.163,120.18,447.429,120.18z"/>
	</g>
</g>
<g>
</g>
<g>
</g>
<g>
</g>
<g>
</g>
<g>
</g>
<g>
</g>
<g>
</g>
<g>
</g>
<g>
</g>
<g>
</g>
<g>
</g>
<g>
</g>
<g>
</g>
<g>
</g>
<g>
</g>
</svg>
