<?xml version="1.0" encoding="iso-8859-1"?>
<!-- Generator: Adobe Illustrator 19.0.0, SVG Export Plug-In . SVG Version: 6.00 Build 0)  -->
<svg version="1.1" id="Layer_1" xmlns="http://www.w3.org/2000/svg" xmlns:xlink="http://www.w3.org/1999/xlink" x="0px" y="0px"
	 viewBox="0 0 512 512" style="enable-background:new 0 0 512 512;" xml:space="preserve">
<g>
	<g>
		<path d="M223.596,100.809H34.607C15.525,100.809,0,116.334,0,135.416v32.36c0,4.654,3.773,8.427,8.427,8.427
			c4.654,0,8.427-3.773,8.427-8.427v-32.36c0-9.789,7.964-17.753,17.753-17.753h188.99c4.654,0,8.427-3.773,8.427-8.427
			C232.023,104.582,228.25,100.809,223.596,100.809z"/>
	</g>
</g>
<g>
	<g>
		<path d="M412.349,326.708c0.001-4.654-3.772-8.427-8.426-8.427s-8.427,3.773-8.427,8.427l0.005,49.109
			c0,9.784-7.961,17.745-17.745,17.745H34.604c-9.784,0-17.745-7.961-17.745-17.745v-180.21c0-4.654-3.773-8.427-8.427-8.427
			s-8.427,3.773-8.427,8.427v180.21c0,19.078,15.521,34.599,34.599,34.599h136.011l-8.154,33.964h-33.057
			c-4.654,0-8.427,3.773-8.427,8.427c0,4.654,3.773,8.427,8.427,8.427h39.701h74.151h39.7c4.654,0,8.427-3.773,8.427-8.427
			c0-4.654-3.773-8.427-8.427-8.427h-33.057l-8.154-33.964h136.011c19.078,0,34.599-15.521,34.599-34.601L412.349,326.708z
			 M179.794,444.38l8.154-33.964h36.463l8.154,33.964H179.794z"/>
	</g>
</g>
<g>
	<g>
		<path d="M379.624,357.659H32.736c-4.654,0-8.427,3.773-8.427,8.427c0,4.654,3.773,8.427,8.427,8.427h346.888
			c4.654,0,8.427-3.773,8.427-8.427C388.051,361.432,384.278,357.659,379.624,357.659z"/>
	</g>
</g>
<g>
	<g>
		<path d="M208.428,136.708H32.742c-4.654,0-8.427,3.773-8.427,8.427c0,4.654,3.773,8.427,8.427,8.427h175.686
			c4.654,0,8.427-3.773,8.427-8.427C216.855,140.481,213.082,136.708,208.428,136.708z"/>
	</g>
</g>
<g>
	<g>
		<path d="M506.361,344.126l-35.579-48.532c-2.752-3.753-8.026-4.565-11.779-1.815c-3.754,2.752-4.565,8.026-1.815,11.779
			l35.579,48.532c4.027,5.494,2.833,13.246-2.656,17.276c-2.137,1.566-4.657,2.393-7.289,2.393c-3.99,0-7.631-1.845-9.991-5.062
			l-74.89-102.145c3.558-2.069,7.026-4.326,10.363-6.769c3.331-2.438,6.519-5.074,9.569-7.855l24.03,32.779
			c1.652,2.252,4.21,3.445,6.803,3.445c1.729,0,3.474-0.53,4.976-1.631c3.753-2.752,4.565-8.025,1.814-11.779l-25.853-35.265
			c32.973-40.442,34.796-98.797,3.56-141.398c-18.27-24.922-45.153-41.237-75.698-45.941c-30.544-4.703-61.092,2.767-86.015,21.037
			c-51.447,37.726-62.614,110.27-24.891,161.712c22.362,30.498,57.527,47.28,93.495,47.28c14.271,0,28.668-2.648,42.442-8.125
			l76.706,104.621c5.487,7.482,14.302,11.95,23.582,11.95c6.238,0,12.203-1.954,17.256-5.657
			C513.061,375.427,515.878,357.11,506.361,344.126z M381.781,256.02c-13.391,6.284-27.623,9.3-41.716,9.3
			c-30.725-0.001-60.77-14.342-79.875-40.397C227.964,180.976,237.504,119,281.456,86.77c17.133-12.56,37.375-19.145,58.227-19.145
			c5.061,0,10.16,0.388,15.257,1.173c26.096,4.019,49.063,17.957,64.671,39.248c27.872,38.013,24.963,90.712-6.918,125.306
			c-0.005,0.005-0.008,0.009-0.012,0.013c-4.323,4.71-9.144,9.024-14.33,12.819C393.13,250.006,387.557,253.314,381.781,256.02z"/>
	</g>
</g>
<g>
	<g>
		<path d="M405.227,118.586c-8.208-11.198-19.192-20.135-31.764-25.845c-4.237-1.925-9.233-0.051-11.157,4.188
			c-1.925,4.237-0.049,9.233,4.188,11.157c9.945,4.517,18.638,11.593,25.142,20.466c10.134,13.818,14.279,30.754,11.671,47.69
			c-2.608,16.935-11.656,31.844-25.481,41.983c-1.567,1.151-3.181,2.226-4.821,3.21c-13.648,8.249-29.821,11.087-45.537,7.987
			c-15.809-3.117-29.77-11.998-39.307-25.003c-13.992-19.085-16.347-44.223-6.144-65.607c4.518-9.484,11.42-17.806,19.961-24.065
			c11.2-8.214,24.446-12.493,38.275-12.421c4.648,0.065,8.451-3.719,8.48-8.373c0.029-4.654-3.72-8.451-8.374-8.48
			c-17.518-0.124-34.209,5.312-48.347,15.682c-10.78,7.9-19.498,18.415-25.209,30.405c-12.878,26.99-9.902,58.727,7.765,82.826
			c12.045,16.424,29.673,27.637,49.638,31.574c5.239,1.033,10.517,1.543,15.769,1.543c14.635,0,29.048-3.965,41.725-11.627
			c2.062-1.238,4.116-2.604,6.098-4.06c17.451-12.799,28.873-31.624,32.168-53.008C423.256,157.421,418.022,136.033,405.227,118.586
			z"/>
	</g>
</g>
<g>
	<g>
		<path d="M342.721,126.764h-38.787c-4.654,0-8.427,3.773-8.427,8.427s3.773,8.427,8.427,8.427h38.787
			c14.182,0,25.719,11.537,25.719,25.719v28.719c0,4.654,3.773,8.427,8.427,8.427s8.427-3.773,8.427-8.427v-28.719
			C385.294,145.862,366.195,126.764,342.721,126.764z"/>
	</g>
</g>
<g>
</g>
<g>
</g>
<g>
</g>
<g>
</g>
<g>
</g>
<g>
</g>
<g>
</g>
<g>
</g>
<g>
</g>
<g>
</g>
<g>
</g>
<g>
</g>
<g>
</g>
<g>
</g>
<g>
</g>
</svg>
