<?xml version="1.0" encoding="iso-8859-1"?>
<!-- Generator: Adobe Illustrator 19.0.0, SVG Export Plug-In . SVG Version: 6.00 Build 0)  -->
<svg version="1.1" id="Layer_1" xmlns="http://www.w3.org/2000/svg" xmlns:xlink="http://www.w3.org/1999/xlink" x="0px" y="0px"
	 viewBox="0 0 511.999 511.999" style="enable-background:new 0 0 511.999 511.999;" xml:space="preserve">
<g>
	<g>
		<path d="M470.317,32.428H41.683C18.7,32.428,0,51.127,0,74.111v40.433c0,4.965,4.026,8.991,8.991,8.991
			c4.965,0,8.991-4.026,8.991-8.991V74.111c0-13.069,10.633-23.701,23.701-23.701h428.634c13.069,0,23.701,10.632,23.701,23.701
			v267.002c0,4.965,4.025,8.991,8.991,8.991s8.991-4.025,8.991-8.991V74.111C512,51.127,493.3,32.428,470.317,32.428z"/>
	</g>
</g>
<g>
	<g>
		<path d="M503.009,365.419c-4.965,0-8.991,4.025-8.991,8.991c0,13.069-10.633,23.701-23.701,23.701H41.683
			c-13.068,0.001-23.701-10.632-23.701-23.701V149.308c0-4.965-4.026-8.991-8.991-8.991c-4.965,0-8.991,4.026-8.991,8.991v225.102
			c0,22.983,18.7,41.683,41.683,41.683h171.839L202.6,461.589h-42.503c-4.965,0-8.991,4.025-8.991,8.991s4.026,8.991,8.991,8.991
			h191.804c4.965,0,8.991-4.025,8.991-8.991s-4.025-8.991-8.991-8.991h-42.503l-10.922-45.496h171.839
			c22.984,0,41.683-18.698,41.683-41.683C512,369.444,507.975,365.419,503.009,365.419z M221.094,461.589l10.922-45.496h47.968
			l10.923,45.496H221.094z"/>
	</g>
</g>
<g>
	<g>
		<path d="M472.651,353.263H39.35c-4.965,0-8.991,4.025-8.991,8.991s4.026,8.991,8.991,8.991h433.302
			c4.965,0,8.991-4.025,8.991-8.991S477.617,353.263,472.651,353.263z"/>
	</g>
</g>
<g>
	<g>
		<path d="M472.65,77.275H39.35c-4.965,0-8.991,4.026-8.991,8.991s4.026,8.991,8.991,8.991h433.302c4.964,0,8.99-4.025,8.99-8.991
			S477.616,77.275,472.65,77.275z"/>
	</g>
</g>
<g>
	<g>
		<path d="M137.92,111.547H49.211c-4.965,0-8.991,4.025-8.991,8.991v88.709c0,4.965,4.025,8.991,8.991,8.991h88.709
			c4.965,0,8.991-4.025,8.991-8.991v-88.709C146.911,115.573,142.885,111.547,137.92,111.547z M128.929,200.256H58.202v-70.728
			h70.728V200.256z"/>
	</g>
</g>
<g>
	<g>
		<path d="M137.92,231.424H49.211c-4.965,0-8.991,4.026-8.991,8.991v88.709c0,4.965,4.025,8.991,8.991,8.991h88.709
			c4.965,0,8.991-4.026,8.991-8.991v-88.709C146.911,235.449,142.885,231.424,137.92,231.424z M116.215,249.406l-22.65,22.65
			l-22.648-22.65H116.215z M58.202,262.122l22.65,22.648l-22.65,22.65V262.122z M70.917,320.134l22.648-22.65l22.65,22.65H70.917z
			 M128.931,307.418l-22.65-22.648l22.65-22.65V307.418z"/>
	</g>
</g>
<g>
	<g>
		<path d="M462.788,111.547H297.357c-4.965,0-8.991,4.025-8.991,8.991v88.709c0,4.965,4.026,8.991,8.991,8.991h165.431
			c4.965,0,8.991-4.025,8.991-8.991v-88.709C471.779,115.573,467.753,111.547,462.788,111.547z M426.996,129.529l-46.924,25.162
			l-46.924-25.162H426.996z M306.348,135.561l54.7,29.332l-54.7,29.332V135.561z M333.149,200.256l46.924-25.162l46.924,25.162
			H333.149z M453.798,194.224l-54.7-29.332l54.7-29.332V194.224z"/>
	</g>
</g>
<g>
	<g>
		<path d="M462.789,231.424h-20.974c-4.965,0-8.991,4.026-8.991,8.991c0,4.965,4.025,8.991,8.991,8.991h11.983v70.728H306.349
			v-70.728h105.496c4.965,0,8.991-4.026,8.991-8.991c0-4.965-4.026-8.991-8.991-8.991H297.358c-4.965,0-8.991,4.026-8.991,8.991
			v88.709c0,4.965,4.026,8.991,8.991,8.991h165.431c4.965,0,8.991-4.026,8.991-8.991v-88.709
			C471.78,235.45,467.754,231.424,462.789,231.424z"/>
	</g>
</g>
<g>
	<g>
		<path d="M263.192,231.424h-88.709c-4.965,0-8.991,4.026-8.991,8.991v88.709c0,4.965,4.026,8.991,8.991,8.991h88.709
			c4.965,0,8.991-4.026,8.991-8.991v-88.709C272.183,235.449,268.157,231.424,263.192,231.424z M254.201,320.134h-70.728v-70.728
			h70.728V320.134z"/>
	</g>
</g>
<g>
	<g>
		<path d="M263.192,111.547h-88.709c-4.965,0-8.991,4.025-8.991,8.991s4.026,8.991,8.991,8.991h79.718v70.728h-70.728v-50.349
			c0-4.965-4.026-8.991-8.991-8.991c-4.965,0-8.991,4.026-8.991,8.991v59.339c0,4.965,4.026,8.991,8.991,8.991h88.709
			c4.965,0,8.991-4.025,8.991-8.991v-88.709C272.183,115.573,268.157,111.547,263.192,111.547z"/>
	</g>
</g>
<g>
</g>
<g>
</g>
<g>
</g>
<g>
</g>
<g>
</g>
<g>
</g>
<g>
</g>
<g>
</g>
<g>
</g>
<g>
</g>
<g>
</g>
<g>
</g>
<g>
</g>
<g>
</g>
<g>
</g>
</svg>
