<?xml version="1.0" encoding="iso-8859-1"?>
<!-- Generator: Adobe Illustrator 19.0.0, SVG Export Plug-In . SVG Version: 6.00 Build 0)  -->
<svg version="1.1" id="Layer_1" xmlns="http://www.w3.org/2000/svg" xmlns:xlink="http://www.w3.org/1999/xlink" x="0px" y="0px"
	 viewBox="0 0 511.999 511.999" style="enable-background:new 0 0 511.999 511.999;" xml:space="preserve">
<g>
	<g>
		<path d="M470.317,32.428H41.683C18.7,32.428,0,51.127,0,74.111v40.433c0,4.965,4.026,8.991,8.991,8.991
			c4.965,0,8.991-4.026,8.991-8.991V74.111c0-13.069,10.633-23.701,23.701-23.701h428.634c13.069,0,23.701,10.633,23.701,23.701
			v267.002c0,4.965,4.025,8.991,8.991,8.991s8.991-4.025,8.991-8.991V74.111C512,51.127,493.3,32.428,470.317,32.428z"/>
	</g>
</g>
<g>
	<g>
		<path d="M503.009,365.419c-4.965,0-8.991,4.025-8.991,8.991c0,13.069-10.633,23.701-23.701,23.701H41.683
			c-13.068,0.001-23.701-10.632-23.701-23.701V149.308c0-4.965-4.026-8.991-8.991-8.991c-4.965,0-8.991,4.026-8.991,8.991v225.102
			c0,22.983,18.7,41.683,41.683,41.683h171.839L202.6,461.589h-42.503c-4.965,0-8.991,4.025-8.991,8.991s4.026,8.991,8.991,8.991
			h49.591h92.622h49.591c4.965,0,8.991-4.025,8.991-8.991s-4.026-8.991-8.991-8.991h-42.503l-10.922-45.496h171.839
			c22.984,0,41.683-18.7,41.683-41.683C512,369.444,507.975,365.419,503.009,365.419z M221.094,461.589l10.922-45.496h47.968
			l10.923,45.496H221.094z"/>
	</g>
</g>
<g>
	<g>
		<path d="M472.651,353.263H39.35c-4.965,0-8.991,4.025-8.991,8.991s4.026,8.991,8.991,8.991h433.302
			c4.965,0,8.991-4.025,8.991-8.991S477.617,353.263,472.651,353.263z"/>
	</g>
</g>
<g>
	<g>
		<path d="M472.65,77.275H39.35c-4.965,0-8.991,4.026-8.991,8.991s4.026,8.991,8.991,8.991h433.302c4.964,0,8.99-4.025,8.99-8.991
			S477.616,77.275,472.65,77.275z"/>
	</g>
</g>
<g>
	<g>
		<path d="M255.999,116.97c-59.161,0-107.29,48.13-107.29,107.29s48.13,107.29,107.29,107.29c24.282,0,48.077-8.341,66.998-23.486
			c3.877-3.102,4.504-8.762,1.401-12.637c-3.102-3.877-8.762-4.504-12.637-1.401c-15.974,12.786-35.256,19.544-55.762,19.544
			c-49.246,0-89.309-40.063-89.309-89.309c0-49.246,40.063-89.309,89.309-89.309c49.246,0,89.309,40.063,89.309,89.309
			c0,15.023-3.798,29.873-10.983,42.946c-2.39,4.352-0.802,9.818,3.55,12.21c4.354,2.394,9.818,0.803,12.209-3.548
			c8.64-15.72,13.206-33.566,13.206-51.607C363.29,165.1,315.16,116.97,255.999,116.97z"/>
	</g>
</g>
<g>
	<g>
		<path d="M268.714,224.261l40.667-40.667c3.512-3.511,3.512-9.204,0.001-12.715c-3.511-3.511-9.204-3.511-12.714,0l-40.667,40.667
			l-40.667-40.667c-3.511-3.511-9.204-3.511-12.714,0c-3.511,3.511-3.511,9.204,0,12.714l40.667,40.667l-40.668,40.668
			c-3.511,3.511-3.511,9.204,0,12.714c1.755,1.755,4.057,2.634,6.357,2.634c2.3,0,4.602-0.878,6.357-2.634l40.667-40.667
			l40.667,40.667c1.755,1.755,4.057,2.634,6.357,2.634s4.602-0.878,6.357-2.634c3.511-3.511,3.511-9.204,0-12.714L268.714,224.261z"
			/>
	</g>
</g>
<g>
</g>
<g>
</g>
<g>
</g>
<g>
</g>
<g>
</g>
<g>
</g>
<g>
</g>
<g>
</g>
<g>
</g>
<g>
</g>
<g>
</g>
<g>
</g>
<g>
</g>
<g>
</g>
<g>
</g>
</svg>
