<?xml version="1.0" encoding="iso-8859-1"?>
<!-- Generator: Adobe Illustrator 19.0.0, SVG Export Plug-In . SVG Version: 6.00 Build 0)  -->
<svg version="1.1" id="Layer_1" xmlns="http://www.w3.org/2000/svg" xmlns:xlink="http://www.w3.org/1999/xlink" x="0px" y="0px"
	 viewBox="0 0 512 512" style="enable-background:new 0 0 512 512;" xml:space="preserve">
<g>
	<g>
		<path d="M183.826,94.407H36.823C16.519,94.407,0,110.919,0,131.217v34.443c0,4.952,4.015,8.966,8.966,8.966
			s8.967-4.015,8.967-8.966v-34.443c0-10.409,8.474-18.878,18.889-18.878h147.003c4.952,0,8.967-4.015,8.967-8.966
			S188.777,94.407,183.826,94.407z"/>
	</g>
</g>
<g>
	<g>
		<path d="M438.748,255.864c0.001-4.952-4.013-8.966-8.965-8.966s-8.966,4.015-8.966,8.966l0.006,131.159
			c0,10.411-8.47,18.881-18.881,18.881H36.82c-10.411,0-18.881-8.47-18.881-18.881V195.275c0-4.952-4.015-8.966-8.967-8.966
			s-8.966,4.015-8.966,8.966v191.747c0,20.299,16.515,36.814,36.814,36.814h144.718l-8.676,36.139h-35.174
			c-4.952,0-8.966,4.015-8.966,8.966s4.015,8.967,8.966,8.967h42.242h78.898h42.243c4.952,0,8.966-4.015,8.966-8.967
			s-4.015-8.966-8.966-8.966h-35.174l-8.676-36.139H401.94c20.299,0,36.814-16.515,36.814-36.817L438.748,255.864z M191.306,459.975
			l8.676-36.139h38.797l8.676,36.139H191.306z"/>
	</g>
</g>
<g>
	<g>
		<path d="M403.928,367.701H34.832c-4.952,0-8.966,4.015-8.966,8.966s4.015,8.967,8.966,8.967h369.096
			c4.952,0,8.966-4.015,8.966-8.967S408.88,367.701,403.928,367.701z"/>
	</g>
</g>
<g>
	<g>
		<path d="M183.826,132.604H34.838c-4.952,0-8.966,4.015-8.966,8.966s4.015,8.967,8.966,8.967h148.988
			c4.952,0,8.966-4.015,8.966-8.967S188.777,132.604,183.826,132.604z"/>
	</g>
</g>
<g>
	<g>
		<path d="M478.434,34.092h-37.568c-4.952,0-8.967,4.015-8.967,8.966s4.015,8.966,8.967,8.966h37.568
			c8.62,0,15.633,7.013,15.633,15.633v136.109c0,8.62-7.013,15.633-15.633,15.633H328.485c-2.378,0-4.659,0.944-6.34,2.627
			l-33.711,33.711v-27.369c0-4.952-4.015-8.967-8.966-8.967h-42.351c-8.62,0-15.633-7.013-15.633-15.633V67.658
			c0-8.62,7.013-15.633,15.633-15.633H410.38c4.952,0,8.966-4.015,8.966-8.966s-4.015-8.967-8.966-8.967H237.118
			c-18.508,0-33.566,15.058-33.566,33.566v136.109c0,18.508,15.058,33.566,33.566,33.566h33.384v40.05
			c0,3.626,2.184,6.896,5.535,8.284c1.109,0.459,2.274,0.683,3.43,0.683c2.334,0,4.627-0.911,6.342-2.627l46.39-46.39h146.234
			c18.508,0,33.566-15.058,33.566-33.566V67.658C512,49.15,496.943,34.092,478.434,34.092z"/>
	</g>
</g>
<g>
	<g>
		<path d="M429.264,73.649c-16.593,0-30.093,13.5-30.093,30.093v64.046c0,16.593,13.5,30.093,30.093,30.093
			s30.093-13.5,30.093-30.093v-64.046C459.357,87.149,445.857,73.649,429.264,73.649z M441.424,167.787
			c0,6.705-5.455,12.16-12.16,12.16c-6.705,0-12.16-5.455-12.16-12.16v-64.046c0-6.705,5.455-12.16,12.16-12.16
			c6.705,0,12.16,5.455,12.16,12.16V167.787z"/>
	</g>
</g>
<g>
	<g>
		<path d="M376.498,179.947h-29.264V144.73h17.13c4.952,0,8.967-4.015,8.967-8.966s-4.015-8.966-8.967-8.966h-17.13V91.582h29.264
			c4.952,0,8.966-4.015,8.966-8.967c0-4.952-4.015-8.966-8.966-8.966h-38.231c-4.952,0-8.967,4.015-8.967,8.966v106.299
			c0,4.952,4.015,8.967,8.967,8.967h38.231c4.952,0,8.966-4.015,8.966-8.967S381.45,179.947,376.498,179.947z"/>
	</g>
</g>
<g>
	<g>
		<path d="M284.277,126.798c-5.596,0-10.149-4.553-10.149-10.149v-14.919c-0.001-5.596,4.553-10.149,10.149-10.149
			s10.149,4.553,10.149,10.149c0,4.952,4.015,8.967,8.966,8.967s8.966-4.015,8.966-8.967c0-15.485-12.597-28.082-28.082-28.082
			s-28.082,12.597-28.082,28.082v14.919c0,15.485,12.597,28.082,28.082,28.082c5.596,0,10.149,4.553,10.149,10.149v14.919
			c0,5.596-4.553,10.149-10.149,10.149s-10.149-4.553-10.149-10.149c0-4.952-4.015-8.966-8.967-8.966s-8.966,4.015-8.966,8.966
			c0,15.485,12.597,28.082,28.082,28.082s28.082-12.597,28.082-28.082V154.88C312.359,139.396,299.761,126.798,284.277,126.798z"/>
	</g>
</g>
<g>
</g>
<g>
</g>
<g>
</g>
<g>
</g>
<g>
</g>
<g>
</g>
<g>
</g>
<g>
</g>
<g>
</g>
<g>
</g>
<g>
</g>
<g>
</g>
<g>
</g>
<g>
</g>
<g>
</g>
</svg>
