<?xml version="1.0" encoding="iso-8859-1"?>
<!-- Generator: Adobe Illustrator 19.0.0, SVG Export Plug-In . SVG Version: 6.00 Build 0)  -->
<svg version="1.1" id="Layer_1" xmlns="http://www.w3.org/2000/svg" xmlns:xlink="http://www.w3.org/1999/xlink" x="0px" y="0px"
	 viewBox="0 0 511.999 511.999" style="enable-background:new 0 0 511.999 511.999;" xml:space="preserve">
<g>
	<g>
		<path d="M470.317,32.428H41.683C18.7,32.428,0,51.127,0,74.111v40.433c0,4.965,4.026,8.991,8.991,8.991
			c4.965,0,8.991-4.026,8.991-8.991V74.111c0-13.069,10.633-23.701,23.701-23.701h428.634c13.069,0,23.701,10.633,23.701,23.701
			v267.002c0,4.965,4.025,8.991,8.991,8.991s8.991-4.025,8.991-8.991V74.111C512,51.127,493.3,32.428,470.317,32.428z"/>
	</g>
</g>
<g>
	<g>
		<path d="M503.009,365.419c-4.965,0-8.991,4.025-8.991,8.991c0,13.069-10.633,23.701-23.701,23.701H41.683
			c-13.068,0.001-23.701-10.632-23.701-23.701V149.308c0-4.965-4.026-8.991-8.991-8.991c-4.965,0-8.991,4.026-8.991,8.991v225.102
			c0,22.983,18.7,41.683,41.683,41.683h171.839L202.6,461.589h-28.514c-4.965,0-8.991,4.025-8.991,8.991s4.026,8.991,8.991,8.991
			h35.602h92.622h35.601c4.965,0,8.991-4.025,8.991-8.991s-4.025-8.991-8.991-8.991h-28.513l-10.922-45.496h171.839
			c22.984,0,41.683-18.7,41.683-41.683C512,369.444,507.975,365.419,503.009,365.419z M221.094,461.589l10.922-45.496h47.968
			l10.923,45.496H221.094z"/>
	</g>
</g>
<g>
	<g>
		<path d="M472.651,353.263H39.35c-4.965,0-8.991,4.025-8.991,8.991s4.026,8.991,8.991,8.991h433.302
			c4.965,0,8.991-4.025,8.991-8.991S477.617,353.263,472.651,353.263z"/>
	</g>
</g>
<g>
	<g>
		<path d="M472.65,77.275H39.35c-4.965,0-8.991,4.026-8.991,8.991s4.026,8.991,8.991,8.991h433.302c4.964,0,8.99-4.025,8.99-8.991
			S477.616,77.275,472.65,77.275z"/>
	</g>
</g>
<g>
	<g>
		<path d="M175.871,181.301c-4.739-1.467-9.777,1.184-11.247,5.927l-14.775,47.676l-23.894-46.601
			c-1.539-3.001-4.627-4.889-8.001-4.889s-6.461,1.888-8.001,4.889L86.06,234.906l-14.775-47.678
			c-1.47-4.744-6.506-7.394-11.249-5.927c-4.744,1.47-7.396,6.507-5.927,11.249l21.303,68.74c1.083,3.491,4.169,5.979,7.81,6.295
			c3.638,0.32,7.111-1.603,8.779-4.855l25.953-50.621l25.953,50.621c1.548,3.019,4.648,4.89,7.997,4.889
			c0.259,0,0.52-0.011,0.78-0.034c3.641-0.316,6.729-2.804,7.81-6.295l21.302-68.74
			C183.267,187.807,180.615,182.771,175.871,181.301z"/>
	</g>
</g>
<g>
	<g>
		<path d="M451.964,181.303c-4.74-1.469-9.778,1.183-11.249,5.927l-7.515,24.248c-1.47,4.744,1.183,9.78,5.927,11.249
			c0.886,0.275,1.783,0.405,2.665,0.405c3.835,0,7.389-2.475,8.584-6.332l7.515-24.248
			C459.361,187.808,456.708,182.772,451.964,181.303z"/>
	</g>
</g>
<g>
	<g>
		<path d="M436.308,231.819c-3.886-1.202-7.965,0.357-10.122,3.568l-24.14-47.082c-1.539-3.001-4.627-4.889-8.001-4.889
			c-3.373,0-6.461,1.888-8.001,4.889l-23.894,46.601l-14.775-47.676c-1.47-4.744-6.506-7.394-11.249-5.927
			c-4.744,1.47-7.396,6.507-5.927,11.249l21.302,68.74c1.081,3.491,4.169,5.979,7.81,6.295c3.632,0.32,7.111-1.603,8.779-4.855
			l25.953-50.621l25.953,50.621c1.548,3.019,4.648,4.89,7.997,4.889c0.259,0,0.52-0.011,0.78-0.034
			c3.641-0.316,6.727-2.804,7.81-6.295l5.647-18.224C443.705,238.326,441.051,233.289,436.308,231.819z"/>
	</g>
</g>
<g>
	<g>
		<path d="M313.916,181.301c-4.739-1.467-9.777,1.184-11.247,5.927l-14.775,47.676L264,188.303
			c-1.539-3.001-4.627-4.889-8.001-4.889c-3.373,0-6.461,1.888-8.001,4.889l-23.894,46.602l-14.775-47.678
			c-1.47-4.744-6.506-7.394-11.249-5.927c-4.744,1.47-7.396,6.507-5.927,11.249l21.303,68.74c1.082,3.491,4.169,5.979,7.81,6.295
			c3.635,0.32,7.11-1.603,8.779-4.855l25.953-50.621l25.953,50.621c1.548,3.019,4.648,4.89,7.997,4.889
			c0.259,0,0.52-0.011,0.78-0.034c3.641-0.316,6.729-2.804,7.81-6.295l21.302-68.74
			C321.312,187.807,318.659,182.771,313.916,181.301z"/>
	</g>
</g>
<g>
</g>
<g>
</g>
<g>
</g>
<g>
</g>
<g>
</g>
<g>
</g>
<g>
</g>
<g>
</g>
<g>
</g>
<g>
</g>
<g>
</g>
<g>
</g>
<g>
</g>
<g>
</g>
<g>
</g>
</svg>
