<?xml version="1.0" encoding="iso-8859-1"?>
<!-- Generator: Adobe Illustrator 19.0.0, SVG Export Plug-In . SVG Version: 6.00 Build 0)  -->
<svg version="1.1" id="Layer_1" xmlns="http://www.w3.org/2000/svg" xmlns:xlink="http://www.w3.org/1999/xlink" x="0px" y="0px"
	 viewBox="0 0 512 512" style="enable-background:new 0 0 512 512;" xml:space="preserve">
<g>
	<g>
		<path d="M43.021,67.641c-22.84,0-41.421,18.588-41.421,41.433v40.171c0,4.934,4,8.935,8.935,8.935c4.934,0,8.935-4,8.935-8.935
			v-40.171c0-12.993,10.566-23.564,23.552-23.564c4.934,0,8.935-4,8.935-8.935C51.956,71.641,47.956,67.641,43.021,67.641z"/>
	</g>
</g>
<g>
	<g>
		<path d="M468.982,67.641H340.124c-4.934,0-8.935,4-8.935,8.935c0,4.934,4,8.935,8.935,8.935h128.859
			c12.986,0,23.552,10.572,23.552,23.564V374.4c0,4.934,4,8.935,8.935,8.935c4.934,0,8.935-4,8.935-8.935V109.074
			C510.404,86.227,491.822,67.641,468.982,67.641z"/>
	</g>
</g>
<g>
	<g>
		<path d="M501.467,398.561c-4.934,0-8.935,4-8.935,8.935c0,12.988-10.567,23.553-23.553,23.553H43.018
			c-12.987,0-23.553-10.567-23.553-23.553V183.797c0-4.934-4-8.935-8.935-8.935c-4.934,0-8.935,4-8.935,8.935v223.699
			c0,22.841,18.583,41.423,41.423,41.423h170.768l-10.854,45.212h-28.336c-4.934,0-8.935,4-8.935,8.935c0,4.934,4,8.935,8.935,8.935
			h35.379h92.045h35.38c4.934,0,8.935-4,8.935-8.935c0-4.934-4-8.935-8.935-8.935h-28.336l-10.854-45.212h170.768
			c22.841,0,41.423-18.583,41.423-41.423C510.401,402.561,506.401,398.561,501.467,398.561z M221.309,494.13l10.854-45.212h47.669
			l10.855,45.212H221.309z"/>
	</g>
</g>
<g>
	<g>
		<path d="M252.566,112.219h-83.982c-4.934,0-8.935,4-8.935,8.935c0,4.934,4,8.935,8.935,8.935h83.982c4.936,0,8.935-4,8.935-8.935
			C261.501,116.22,257.5,112.219,252.566,112.219z"/>
	</g>
</g>
<g>
	<g>
		<path d="M471.293,112.219H309.152c-4.934,0-8.935,4-8.935,8.935c0,4.934,4,8.935,8.935,8.935h162.142c4.934,0,8.935-4,8.935-8.935
			C480.228,116.22,476.228,112.219,471.293,112.219z"/>
	</g>
</g>
<g>
	<g>
		<path d="M70.904,112.219H40.698c-4.934,0-8.935,4-8.935,8.935c0,4.934,4,8.935,8.935,8.935h30.205c4.934,0,8.935-4,8.935-8.935
			C79.838,116.22,75.838,112.219,70.904,112.219z"/>
	</g>
</g>
<g>
	<g>
		<path d="M471.298,386.481h-68.98v-35.739c0-4.934-4-8.935-8.935-8.935h-26.59c-4.934,0-8.935,4-8.935,8.935
			c0,4.934,4,8.935,8.935,8.935h17.655v26.804H242.124v-26.804h90.122c4.934,0,8.935-4,8.935-8.935c0-4.934-4-8.935-8.935-8.935
			H233.19c-4.934,0-8.935,4-8.935,8.935v35.739h-71.752V94.184h118.24v72.008l-51.437,44.584h-16.317c-4.934,0-8.935,4-8.935,8.935
			v44.674c0,4.934,4,8.935,8.935,8.935H358.18c4.934,0,8.935-4,8.935-8.935v-44.674c0-4.934-4-8.935-8.935-8.935h-16.396
			l-53.171-44.669V94.184h21.927c4.934,0,8.935-4,8.935-8.935V42.803c0-4.934-4-8.935-8.935-8.935H152.502V8.935
			c0-4.934-4-8.935-8.935-8.935h-42.434c-4.934,0-8.935,4-8.935,8.935v24.934H70.266c-4.934,0-8.935,4-8.935,8.935v42.446
			c0.001,4.934,4.002,8.935,8.936,8.935h21.932v175.24c0,4.934,4,8.935,8.935,8.935c4.934,0,8.935-4,8.935-8.935V94.184h24.565
			v292.297h-24.565v-82.509c0-4.934-4-8.935-8.935-8.935c-4.934,0-8.935,4-8.935,8.935v82.509H40.698c-4.934,0-8.935,4-8.935,8.935
			c0,4.934,4,8.935,8.935,8.935h430.6c4.934,0,8.935-4,8.935-8.935C480.233,390.482,476.232,386.481,471.298,386.481z
			 M349.246,228.646v26.804H211.925v-26.804H349.246z M314.003,210.776h-67.413l33.179-28.759L314.003,210.776z M152.503,51.738
			h149.103v24.577H152.503V51.738z M92.199,76.315H79.202V51.738h12.997V76.315z M134.633,76.315h-24.565V51.738h24.565V76.315z
			 M134.633,33.869h-24.565V17.869h24.565V33.869z"/>
	</g>
</g>
<g>
</g>
<g>
</g>
<g>
</g>
<g>
</g>
<g>
</g>
<g>
</g>
<g>
</g>
<g>
</g>
<g>
</g>
<g>
</g>
<g>
</g>
<g>
</g>
<g>
</g>
<g>
</g>
<g>
</g>
</svg>
