<?xml version="1.0" encoding="iso-8859-1"?>
<!-- Generator: Adobe Illustrator 19.0.0, SVG Export Plug-In . SVG Version: 6.00 Build 0)  -->
<svg version="1.1" id="Layer_1" xmlns="http://www.w3.org/2000/svg" xmlns:xlink="http://www.w3.org/1999/xlink" x="0px" y="0px"
	 viewBox="0 0 512 512" style="enable-background:new 0 0 512 512;" xml:space="preserve">
<g>
	<g>
		<path d="M425.72,0H86.28C65.599,0,48.774,16.825,48.774,37.506c0,10.023,3.9,19.442,10.982,26.525
			c5,4.999,11.168,8.404,17.887,9.979v429.354c0,4.77,3.866,8.637,8.637,8.637h36.7c4.771,0,8.637-3.867,8.637-8.637
			c0-4.77-3.866-8.637-8.637-8.637H94.916V75.012h322.168v55.274c0,4.77,3.866,8.637,8.637,8.637c4.771,0,8.637-3.867,8.637-8.637
			V66.375c0-4.77-3.866-8.637-8.637-8.637c-11.15,0-20.221-9.076-20.221-20.233c0-5.409,2.103-10.491,5.915-14.303
			c3.832-3.823,8.913-5.929,14.306-5.929c11.156,0,20.233,9.076,20.233,20.233v346.673h-11.591V163.099
			c0-4.77-3.866-8.637-8.637-8.637s-8.637,3.867-8.637,8.637v331.628H155.791c-4.771,0-8.637,3.867-8.637,8.637
			c0,4.77,3.866,8.637,8.637,8.637h269.934c4.771,0,8.637-3.867,8.637-8.637V401.452h20.228c4.771,0,8.637-3.867,8.637-8.637V37.506
			C463.226,16.825,446.401,0,425.72,0z M86.28,57.738c-5.409,0-10.491-2.104-14.31-5.922c-3.82-3.82-5.924-8.901-5.924-14.31
			c0-11.156,9.076-20.233,20.233-20.233H394.13c-3.845,5.981-5.905,12.948-5.905,20.233c0,7.448,2.19,14.391,5.949,20.233H86.28z"/>
	</g>
</g>
<g>
	<g>
		<path d="M230.592,181.527H125.232c-4.771,0-8.637,3.867-8.637,8.637v51.817c0,4.77,3.866,8.637,8.637,8.637h105.361
			c4.771,0,8.637-3.867,8.637-8.637v-51.817C239.229,185.394,235.363,181.527,230.592,181.527z M221.956,233.344h-88.087V198.8
			h88.087V233.344z"/>
	</g>
</g>
<g>
	<g>
		<path d="M230.593,401.457H125.233c-4.771,0-8.637,3.867-8.637,8.637v51.817c0,4.77,3.866,8.637,8.637,8.637
			c4.771,0,8.637-3.867,8.637-8.637v-43.181h88.087v43.181c0,4.77,3.866,8.637,8.637,8.637s8.637-3.867,8.637-8.637v-51.817
			C239.23,405.324,235.364,401.457,230.593,401.457z"/>
	</g>
</g>
<g>
	<g>
		<path d="M386.773,181.527h-88.774c-4.771,0-8.637,3.867-8.637,8.637s3.866,8.637,8.637,8.637h80.137v38.853l-13.384-17.601
			c-1.634-2.15-4.178-3.409-6.875-3.409c-0.032,0-0.068,0-0.101,0c-2.733,0.032-5.29,1.357-6.893,3.57l-23.924,33.033l-6.229-12.757
			c-1.388-2.844-4.22-4.701-7.381-4.839c-3.154-0.131-6.146,1.464-7.779,4.174l-32.946,54.725V190.164
			c0-4.77-3.866-8.637-8.637-8.637s-8.637,3.867-8.637,8.637v135.477c0,4.77,3.866,8.637,8.637,8.637h122.786
			c4.771,0,8.637-3.867,8.637-8.637V190.164C395.409,185.394,391.544,181.527,386.773,181.527z M279.266,317.005l32.91-54.665
			l26.692,54.665H279.266z M378.136,317.005H358.09l-22.543-46.169l22.499-31.065l20.09,26.419V317.005z"/>
	</g>
</g>
<g>
	<g>
		<path d="M386.773,352.147H263.987c-4.771,0-8.637,3.867-8.637,8.637s3.866,8.637,8.637,8.637h122.786
			c4.771,0,8.637-3.867,8.637-8.637S391.543,352.147,386.773,352.147z"/>
	</g>
</g>
<g>
	<g>
		<path d="M386.773,446.365H263.987c-4.771,0-8.637,3.867-8.637,8.637s3.866,8.637,8.637,8.637h122.786
			c4.771,0,8.637-3.867,8.637-8.637S391.543,446.365,386.773,446.365z"/>
	</g>
</g>
<g>
	<g>
		<path d="M386.773,414.959H263.987c-4.771,0-8.637,3.867-8.637,8.637s3.866,8.637,8.637,8.637h122.786
			c4.771,0,8.637-3.867,8.637-8.637S391.543,414.959,386.773,414.959z"/>
	</g>
</g>
<g>
	<g>
		<path d="M386.773,383.553H263.987c-4.771,0-8.637,3.867-8.637,8.637c0,4.77,3.866,8.637,8.637,8.637h122.786
			c4.771,0,8.637-3.867,8.637-8.637C395.409,387.42,391.543,383.553,386.773,383.553z"/>
	</g>
</g>
<g>
	<g>
		<path d="M386.773,98.33H125.232c-4.771,0-8.637,3.867-8.637,8.637v51.817c0,4.77,3.866,8.637,8.637,8.637h30.56
			c4.771,0,8.637-3.867,8.637-8.637c0-4.77-3.866-8.637-8.637-8.637h-21.923v-34.544h244.267v34.544H187.457
			c-4.771,0-8.637,3.867-8.637,8.637c0,4.77,3.866,8.637,8.637,8.637h199.316c4.771,0,8.637-3.867,8.637-8.637v-51.817
			C395.409,102.197,391.544,98.33,386.773,98.33z"/>
	</g>
</g>
<g>
	<g>
		<path d="M230.592,262.747H125.232c-4.771,0-8.637,3.867-8.637,8.637v105.362c0,4.77,3.866,8.637,8.637,8.637h105.361
			c4.771,0,8.637-3.867,8.637-8.637V271.383C239.229,266.614,235.363,262.747,230.592,262.747z M209.741,280.02l-31.829,31.83
			l-31.83-31.83H209.741z M133.868,292.234l31.83,31.83l-31.83,31.83V292.234z M146.084,368.109l31.83-31.83l31.829,31.83H146.084z
			 M221.957,355.894l-31.83-31.83l31.83-31.83V355.894z"/>
	</g>
</g>
<g>
</g>
<g>
</g>
<g>
</g>
<g>
</g>
<g>
</g>
<g>
</g>
<g>
</g>
<g>
</g>
<g>
</g>
<g>
</g>
<g>
</g>
<g>
</g>
<g>
</g>
<g>
</g>
<g>
</g>
</svg>
