<?xml version="1.0" encoding="iso-8859-1"?>
<!-- Generator: Adobe Illustrator 19.0.0, SVG Export Plug-In . SVG Version: 6.00 Build 0)  -->
<svg version="1.1" id="Layer_1" xmlns="http://www.w3.org/2000/svg" xmlns:xlink="http://www.w3.org/1999/xlink" x="0px" y="0px"
	 viewBox="0 0 512 512" style="enable-background:new 0 0 512 512;" xml:space="preserve">
<g>
	<g>
		<path d="M331.543,90.932H36.931C16.567,90.932,0,107.499,0,127.863v34.533c0,4.966,4.026,8.993,8.993,8.993
			s8.993-4.026,8.993-8.993v-34.533c0-10.446,8.499-18.945,18.945-18.945h294.612c4.968,0,8.993-4.026,8.993-8.993
			S336.511,90.932,331.543,90.932z"/>
	</g>
</g>
<g>
	<g>
		<path d="M431.05,313.876c-4.968,0-8.993,4.026-8.993,8.993v61.539c0,10.441-8.495,18.937-18.938,18.937H36.923
			c-10.441,0-18.937-8.495-18.937-18.937V192.096c0-4.966-4.026-8.993-8.993-8.993S0,187.13,0,192.096v192.312
			c0,20.359,16.564,36.923,36.923,36.923h145.145l-8.702,36.245h-35.277c-4.966,0-8.993,4.026-8.993,8.993s4.026,8.993,8.993,8.993
			h42.366h79.131h42.366c4.968,0,8.993-4.026,8.993-8.993s-4.025-8.993-8.993-8.993h-35.276l-8.702-36.245h145.145
			c20.359,0,36.924-16.564,36.924-36.923v-61.539C440.043,317.903,436.017,313.876,431.05,313.876z M191.864,457.577l8.702-36.245
			h38.913l8.702,36.245H191.864z"/>
	</g>
</g>
<g>
	<g>
		<path d="M405.114,365.03H34.93c-4.966,0-8.993,4.026-8.993,8.993s4.026,8.993,8.993,8.993h370.184
			c4.968,0,8.993-4.026,8.993-8.993S410.081,365.03,405.114,365.03z"/>
	</g>
</g>
<g>
	<g>
		<path d="M331.543,129.242H34.941c-4.966,0-8.993,4.026-8.993,8.993s4.026,8.993,8.993,8.993h296.602
			c4.968,0,8.993-4.026,8.993-8.993S336.511,129.242,331.543,129.242z"/>
	</g>
</g>
<g>
	<g>
		<path d="M333.103,194.346l-22.336-22.335c-3.513-3.512-9.206-3.512-12.718,0c-3.512,3.512-3.512,9.206,0,12.718l6.983,6.983
			h-78.471c-4.966,0-8.993,4.026-8.993,8.993s4.026,8.993,8.993,8.993h78.471l-6.983,6.983c-3.512,3.512-3.512,9.206,0,12.718
			c1.757,1.757,4.058,2.634,6.36,2.634c2.301,0,4.603-0.878,6.36-2.634l22.336-22.335c1.686-1.687,2.633-3.974,2.633-6.359
			S334.789,196.033,333.103,194.346z"/>
	</g>
</g>
<g>
	<g>
		<path d="M326.743,255.263h-78.472l6.983-6.983c3.512-3.512,3.512-9.205,0-12.717c-3.512-3.512-9.206-3.512-12.717,0
			l-22.335,22.335c-3.512,3.512-3.512,9.205,0,12.717l22.335,22.335c1.755,1.757,4.058,2.634,6.359,2.634s4.603-0.878,6.359-2.634
			c3.512-3.512,3.512-9.205,0-12.717l-6.983-6.983h78.472c4.968,0,8.993-4.026,8.993-8.993S331.711,255.263,326.743,255.263z"/>
	</g>
</g>
<g>
	<g>
		<path d="M477.324,85.112h-92.528c-4.968,0-8.993,4.026-8.993,8.993s4.025,8.993,8.993,8.993h92.528
			c4.968,0,8.993-4.026,8.993-8.993S482.292,85.112,477.324,85.112z"/>
	</g>
</g>
<g>
	<g>
		<path d="M477.324,239.075h-92.528c-4.968,0-8.993,4.026-8.993,8.993s4.025,8.993,8.993,8.993h92.528
			c4.968,0,8.993-4.026,8.993-8.993S482.292,239.075,477.324,239.075z"/>
	</g>
</g>
<g>
	<g>
		<circle cx="431.061" cy="272.246" r="8.993"/>
	</g>
</g>
<g>
	<g>
		<path d="M503.007,211.823c4.968,0,8.993-4.026,8.993-8.993V64.677c0-15.571-12.667-28.239-28.239-28.239H378.366
			c-15.571,0-28.239,12.668-28.239,28.239v212.827c0,15.571,12.667,28.239,28.239,28.239h105.395
			c15.571,0,28.239-12.668,28.239-28.239V229.81c0-4.966-4.025-8.993-8.993-8.993s-8.993,4.026-8.993,8.993v47.694
			c0,5.654-4.6,10.253-10.253,10.253H378.366c-5.654,0-10.253-4.6-10.253-10.253V64.677c0-5.654,4.6-10.253,10.253-10.253h105.395
			c5.654,0,10.253,4.6,10.253,10.253v138.154C494.014,207.797,498.041,211.823,503.007,211.823z"/>
	</g>
</g>
<g>
</g>
<g>
</g>
<g>
</g>
<g>
</g>
<g>
</g>
<g>
</g>
<g>
</g>
<g>
</g>
<g>
</g>
<g>
</g>
<g>
</g>
<g>
</g>
<g>
</g>
<g>
</g>
<g>
</g>
</svg>
