<?xml version="1.0" encoding="iso-8859-1"?>
<!-- Generator: Adobe Illustrator 19.0.0, SVG Export Plug-In . SVG Version: 6.00 Build 0)  -->
<svg version="1.1" id="Layer_1" xmlns="http://www.w3.org/2000/svg" xmlns:xlink="http://www.w3.org/1999/xlink" x="0px" y="0px"
	 viewBox="0 0 511.999 511.999" style="enable-background:new 0 0 511.999 511.999;" xml:space="preserve">
<g>
	<g>
		<path d="M99.555,158.736H88.202c-18.87,0-34.223,15.353-34.223,34.223v31.658c0,4.765,3.863,8.628,8.628,8.628
			c4.766,0,8.628-3.863,8.628-8.628v-31.658c0-9.356,7.612-16.968,16.968-16.968h11.353c4.766,0,8.628-3.863,8.628-8.628
			C108.183,162.599,104.321,158.736,99.555,158.736z"/>
	</g>
</g>
<g>
	<g>
		<path d="M423.792,158.736h-10c-4.766,0-8.628,3.863-8.628,8.628c0,4.765,3.863,8.628,8.628,8.628h10
			c9.356,0,16.968,7.612,16.968,16.968v209.053c0,4.765,3.862,8.628,8.628,8.628c4.766,0,8.628-3.863,8.628-8.628V192.959
			C458.015,174.089,442.662,158.736,423.792,158.736z"/>
	</g>
</g>
<g>
	<g>
		<path d="M449.392,419.45c-4.766,0-8.628,3.863-8.628,8.628c0,9.356-7.612,16.968-16.969,16.968H88.203
			c-9.357,0-16.969-7.612-16.969-16.968v-176.24c0-4.765-3.862-8.628-8.628-8.628c-4.766,0-8.628,3.863-8.628,8.628v176.24
			c0,18.87,15.354,34.223,34.224,34.223h132.525l-7.789,32.443h-32.025c-4.766,0-8.628,3.863-8.628,8.628
			c0,4.765,3.862,8.628,8.628,8.628h38.827h72.517h38.827c4.766,0,8.628-3.863,8.628-8.628c0-4.765-3.862-8.628-8.628-8.628H299.06
			l-7.788-32.443h132.523c18.87,0,34.224-15.353,34.224-34.223C458.019,423.313,454.156,419.45,449.392,419.45z M230.684,494.745
			l7.789-32.443h35.051l7.789,32.443H230.684z"/>
	</g>
</g>
<g>
	<g>
		<path d="M425.622,409.933H86.377c-4.765,0-8.628,3.863-8.628,8.628s3.862,8.628,8.628,8.628h339.245
			c4.766,0,8.628-3.863,8.628-8.628S430.388,409.933,425.622,409.933z"/>
	</g>
</g>
<g>
	<g>
		<path d="M388.857,0H123.141c-4.766,0-8.628,3.863-8.628,8.628v382.721c0,4.765,3.863,8.628,8.628,8.628
			c4.766,0,8.628-3.863,8.628-8.628V17.255h248.461v374.093c0,4.765,3.862,8.628,8.628,8.628c4.766,0,8.628-3.863,8.628-8.628V8.628
			C397.485,3.863,393.623,0,388.857,0z"/>
	</g>
</g>
<g>
	<g>
		<path d="M238.984,105.151h-87.085c-4.766,0-8.628,3.863-8.628,8.628v31.332c0,4.765,3.862,8.628,8.628,8.628h87.085
			c4.766,0,8.628-3.863,8.628-8.628v-31.332C247.612,109.014,243.75,105.151,238.984,105.151z M230.356,136.483h-69.83v-14.077
			h69.83V136.483z"/>
	</g>
</g>
<g>
	<g>
		<path d="M238.984,167.332h-87.085c-4.766,0-8.628,3.863-8.628,8.628v126.749c0,4.765,3.862,8.628,8.628,8.628h87.085
			c4.766,0,8.628-3.863,8.628-8.628V175.959C247.612,171.195,243.75,167.332,238.984,167.332z M230.356,294.081h-69.83V184.587
			h69.83V294.081z"/>
	</g>
</g>
<g>
	<g>
		<path d="M238.989,325.951h-87.093c-4.766,0-8.628,3.863-8.628,8.628v56.77c0,4.765,3.862,8.628,8.628,8.628
			c4.766,0,8.628-3.863,8.628-8.628v-48.142h69.838v48.142c0,4.765,3.862,8.628,8.628,8.628c4.766,0,8.628-3.863,8.628-8.628v-56.77
			C247.616,329.814,243.755,325.951,238.989,325.951z"/>
	</g>
</g>
<g>
	<g>
		<path d="M360.1,105.151h-87.084c-4.766,0-8.628,3.863-8.628,8.628v95.284c0,4.765,3.862,8.628,8.628,8.628H360.1
			c4.766,0,8.628-3.863,8.628-8.628v-95.284C368.727,109.014,364.865,105.151,360.1,105.151z M351.472,200.435h-69.828v-78.029
			h69.828V200.435z"/>
	</g>
</g>
<g>
	<g>
		<path d="M360.1,232.986h-87.084c-4.766,0-8.628,3.863-8.628,8.628v149.73c0,4.765,3.862,8.628,8.628,8.628
			c4.766,0,8.628-3.863,8.628-8.628V250.241h69.828v141.103c0,4.765,3.862,8.628,8.628,8.628c4.766,0,8.628-3.863,8.628-8.628
			v-149.73C368.727,236.848,364.865,232.986,360.1,232.986z"/>
	</g>
</g>
<g>
	<g>
		<path d="M360.1,28.759h-208.2c-4.766,0-8.628,3.863-8.628,8.628v45.435c0,4.765,3.862,8.628,8.628,8.628h208.199
			c4.766,0,8.628-3.863,8.628-8.628V37.386h0.001C368.727,32.622,364.865,28.759,360.1,28.759z M160.527,74.194v-28.18h190.944
			v28.18H160.527z"/>
	</g>
</g>
<g>
</g>
<g>
</g>
<g>
</g>
<g>
</g>
<g>
</g>
<g>
</g>
<g>
</g>
<g>
</g>
<g>
</g>
<g>
</g>
<g>
</g>
<g>
</g>
<g>
</g>
<g>
</g>
<g>
</g>
</svg>
