<?xml version="1.0" encoding="iso-8859-1"?>
<!-- Generator: Adobe Illustrator 19.0.0, SVG Export Plug-In . SVG Version: 6.00 Build 0)  -->
<svg version="1.1" id="Layer_1" xmlns="http://www.w3.org/2000/svg" xmlns:xlink="http://www.w3.org/1999/xlink" x="0px" y="0px"
	 viewBox="0 0 511.999 511.999" style="enable-background:new 0 0 511.999 511.999;" xml:space="preserve">
<g>
	<g>
		<path d="M470.316,32.427H41.683C18.7,32.427,0,51.127,0,74.111v40.433c0,4.965,4.024,8.991,8.991,8.991
			c4.967,0,8.991-4.026,8.991-8.991V74.111c0-13.069,10.632-23.701,23.701-23.701h428.634c13.069,0,23.701,10.633,23.701,23.701
			v267.002c0,4.965,4.024,8.991,8.991,8.991s8.991-4.025,8.991-8.991V74.111C512,51.127,493.3,32.427,470.316,32.427z"/>
	</g>
</g>
<g>
	<g>
		<path d="M503.009,365.419c-4.967,0-8.991,4.025-8.991,8.991c0,13.069-10.632,23.701-23.701,23.701H41.683
			c-13.069,0.001-23.701-10.632-23.701-23.701V149.308c0-4.965-4.024-8.991-8.991-8.991c-4.966,0-8.991,4.026-8.991,8.991V374.41
			c0,22.984,18.7,41.684,41.683,41.684h171.839l-10.923,45.496h-42.501c-4.967,0-8.991,4.025-8.991,8.991s4.024,8.991,8.991,8.991
			h49.59h92.623h49.591c4.967,0,8.991-4.025,8.991-8.991s-4.024-8.991-8.991-8.991h-42.503l-10.922-45.496h171.839
			c22.984,0,41.683-18.7,41.683-41.683C512,369.445,507.975,365.419,503.009,365.419z M221.094,461.589l10.923-45.496h47.968
			l10.922,45.496H221.094z"/>
	</g>
</g>
<g>
	<g>
		<path d="M472.65,353.264H39.35c-4.966,0-8.991,4.025-8.991,8.991s4.026,8.991,8.991,8.991H472.65c4.967,0,8.991-4.025,8.991-8.991
			S477.617,353.264,472.65,353.264z"/>
	</g>
</g>
<g>
	<g>
		<path d="M472.65,77.276H39.35c-4.966,0-8.991,4.026-8.991,8.991s4.024,8.991,8.991,8.991H472.65c4.966,0,8.991-4.025,8.991-8.991
			S477.617,77.276,472.65,77.276z"/>
	</g>
</g>
<g>
	<g>
		<path d="M341.274,166.272c-1.093,0-2.202,0.025-3.323,0.074c-18.606-25.759-48.175-40.981-80.143-40.981
			c-43.671,0-82.166,29.034-94.65,70.18c-2.284-0.246-4.582-0.369-6.883-0.369c-35.285,0-63.991,28.706-63.991,63.989
			s28.706,63.989,63.991,63.989h185.001c8.767,0,17.375-1.437,25.591-4.271c4.694-1.62,7.185-6.738,5.567-11.432
			c-1.62-4.693-6.734-7.187-11.432-5.567c-6.324,2.182-12.961,3.288-19.726,3.288H156.273c-25.37,0-46.009-20.639-46.009-46.008
			c0-25.37,20.639-46.008,46.009-46.008c3.822,0,7.63,0.474,11.318,1.406c2.377,0.601,4.896,0.207,6.972-1.093
			c2.078-1.299,3.535-3.391,4.035-5.79c7.761-37.277,41.072-64.333,79.208-64.333c27.645,0,53.098,13.917,68.089,37.228
			c1.849,2.875,5.17,4.45,8.563,4.072c2.334-0.261,4.627-0.394,6.816-0.394c33.339,0,60.461,27.122,60.461,60.461
			c0,16.149-6.289,31.331-17.708,42.752c-3.512,3.511-3.512,9.204-0.001,12.715c3.511,3.511,9.204,3.512,12.714,0
			c14.817-14.816,22.977-34.514,22.977-55.466C419.717,201.461,384.528,166.272,341.274,166.272z"/>
	</g>
</g>
<g>
	<g>
		<path d="M291.505,240.301c-3.512-3.511-9.204-3.511-12.715,0l-13.798,13.798v-60.394c0-4.965-4.026-8.991-8.991-8.991
			c-4.967,0-8.991,4.026-8.991,8.991v60.394l-13.798-13.798c-3.511-3.511-9.203-3.511-12.715,0c-3.511,3.511-3.511,9.204,0,12.714
			l29.146,29.147c1.687,1.687,3.973,2.634,6.358,2.634s4.67-0.947,6.358-2.634l29.146-29.147
			C295.016,249.504,295.016,243.811,291.505,240.301z"/>
	</g>
</g>
<g>
</g>
<g>
</g>
<g>
</g>
<g>
</g>
<g>
</g>
<g>
</g>
<g>
</g>
<g>
</g>
<g>
</g>
<g>
</g>
<g>
</g>
<g>
</g>
<g>
</g>
<g>
</g>
<g>
</g>
</svg>
