<?xml version="1.0" encoding="UTF-8"?><svg id="Layer_1" xmlns="http://www.w3.org/2000/svg" viewBox="0 0 512 512"><g><g><rect x="13.70561" y="349.69043" width="64.7893" height="30.14948" rx="5.7733" ry="5.7733" fill="#f7d14c"/><g><path d="m34.60056,370.60159c-.15808.1248-3.11186.12285-3.46208.04532-.16492-.03651-.24801-.11708-.24801-.24298,0-2.79091.36853-4.56693-.06295-4.68199-.41936-.10096-3.95603-.09809-4.37607,0-.13219.03021-.19765.16492-.19765.40412,0,4.00319.30879,4.43482-.15359,4.52085-.35494.06772-2.75607.07958-3.24177,0-.72225-.12561.15814-1.7634-.16114-9.29726-.06043-1.39616-.09064-2.44108-.09064-3.13853,0-.34693.34057-.14352,1.8733-.14352,1.62641,0,1.89093-.18838,1.89093.10827,0,1.91686-.42853,4.28342-.0277,4.41258.15611.04784.92532.07176,2.30638.07176,2.35649,0,2.44864.00777,2.44864-.44189,0-1.12864-.12589-2.78334-.12589-3.92537,0-.35835.19694-.29538,1.02226-.25179,2.03624.10073,2.66895-.23581,2.66895.18884,0,3.90991-.31682,4.18416-.07554,9.20284.1404,2.91752.12582,3.10555.01259,3.16875Z" fill="#fdfdff"/><path d="m44.91127,360.94931c-.22787,0-1.13179-.04532-2.71049-.13597-.15791,6.8071.32505,9.6272.03651,9.78825-.17752.1268-2.69406.16377-3.46712.04532-.67102-.12109.10527-1.35557-.14352-9.78825-1.20103.12086-2.15782.18003-2.8729.18003-.09568,0-.14352-.03021-.14352-.08938,0-.07805.04154-.3097.12589-.69368.20956-.92098.13521-.54875.22535-1.61144.04154-.4507.1133-.67605.21528-.67605.01259,0,.05413.00378.12589.00881,4.22921.55259,8.49521-.20529,8.69045-.0491.15046.12897-.10228.99437.05791,2.18804.03903.29081.12891.83342-.13974.83342Z" fill="#fdfdff"/><path d="m59.49859,370.36743c0,.18632-.08687.27948-.2606.27948h-3.18763c-.17373,0-.2606-.10449-.2606-.31473,0-2.3168.25685-5.69303.05288-5.73572-.13265.07142-1.62236,3.81231-2.50277,5.9787-.13175.29919-.25384.25179-.58541.25179-.31222,0-.49854-.06043-.55771-.18003-.74282-1.50868-2.43019-5.70594-2.62992-5.87043-.04154.05288-.06295.141-.06295.2606,0,5.05803.31765,5.60983-.1624,5.60983-3.4933,0-3.2682.08992-3.2682-.2606,0-3.11789.42337-4.96772.00881-12.19282-.00629-.1196.12086-.18003.37894-.18003.90543,0,2.06567-.06295,2.97109-.06295.16627,0,.23167.27269,2.90815,6.14991.18632.39027.34243.58541.46833.58541.06672,0,.20772-.22535.423-.67479,2.83-5.88311,2.73525-6.05172,3.02649-6.05172.45459,0,1.09124.05413,1.58374.05413.98433,0,1.64795-.27617,1.64795.12589,0,3.79931-.27975,4.26292-.07176,9.29348.05413,1.30804.08057,2.28623.08057,2.93459Z" fill="#fdfdff"/><path d="m61.56073,370.64691c-.6107-.10544-.0035-.64505-.26186-9.28845-.04154-1.38987-.06295-2.43227-.06295-3.12846,0-.3468.53921-.14478,1.8733-.14478,1.89057,0,1.91822-.25438,1.88211.22535-.32504,5.02693-.2659,8.89485-.22535,9.36524.01471.16765.20058.13471.36887.13471,1.40747,0,3.44736-.17122,4.85321-.17122.1624,0,.24298.06924.24298.20772,0,.39394-.03809,2.81736-.41419,2.93459-.11923.05184-7.82767-.109-8.25612-.13471Z" fill="#fdfdff"/></g></g><g><rect x="337.08305" y="130.23537" width="79.38194" height="36.94011" rx="7.07364" ry="7.07364" fill="#86bae1"/><g><path d="m352.50896,154.66973c-.96686-.97442-1.4503-2.34037-1.4503-4.0991h3.03404c0,1.7515.9261,2.79233,2.59215,2.79233,1.72022,0,2.60348-1.0721,2.60348-2.79233v-10.32581h2.91318v10.32581c0,1.76629-.49099,3.1335-1.47296,4.10414-2.00541,1.98484-6.29134,1.9383-8.21961-.00504Zm3.19393-11.74464v-2.68028h5.1415v2.68028h-5.1415Z" fill="#fdfdff"/><path d="m363.84445,155.91104l4.52337-15.66623h3.57539l4.52337,15.66623h-3.14483l-3.06677-11.8378h-.19891l-3.06677,11.8378h-3.14483Zm2.28371-2.96732v-2.69287h7.9439v2.69287h-7.9439Z" fill="#fdfdff"/><path d="m381.13345,155.91104l-4.05001-15.66623h3.01264l3.19896,13.05142h.19891l3.19896-13.05142h3.01264l-4.04875,15.66623h-4.52337Z" fill="#fdfdff"/><path d="m390.32244,155.91104l4.52337-15.66623h3.57539l4.52337,15.66623h-3.14483l-3.06677-11.8378h-.19891l-3.06677,11.8378h-3.14483Zm2.28371-2.96732v-2.69287h7.9439v2.69287h-7.9439Z" fill="#fdfdff"/></g></g><g><polygon points="264.09514 284.04984 209.2391 284.04984 209.2391 211.67433 250.30933 211.67433 264.09514 227.18337 264.09514 284.04984" fill="#86bae1"/><polygon points="250.30933 211.67433 250.30933 228.04498 264.09514 227.18337 250.30933 211.67433" fill="#70a4c9"/><rect x="216.70639" y="220.50006" width="26.71" height="1.8788" fill="#70a4c9"/><rect x="216.70639" y="227.1052" width="26.71" height="1.8788" fill="#70a4c9"/><rect x="216.70639" y="233.71126" width="38.19835" height="1.8788" fill="#70a4c9"/><rect x="216.70639" y="240.31731" width="38.19835" height="1.8788" fill="#70a4c9"/><rect x="216.70639" y="246.92246" width="38.19835" height="1.8788" fill="#70a4c9"/><rect x="216.70639" y="253.52851" width="38.19835" height="1.8788" fill="#70a4c9"/><rect x="216.70639" y="260.13365" width="26.71" height="1.8788" fill="#70a4c9"/><rect x="216.70639" y="266.73971" width="38.19835" height="1.8788" fill="#70a4c9"/><rect x="216.70639" y="273.34577" width="38.19835" height="1.8788" fill="#70a4c9"/></g><g><rect x="445.5906" y="314.25657" width="59.98815" height="27.91528" rx="5.34548" ry="5.34548" fill="#5baab7"/><g><path d="m467.25239,332.72139c-.73144-.73648-1.09654-1.76881-1.09654-3.09699h2.29253c0,1.29762.67701,2.10872,1.95891,2.10872,1.29205,0,1.96772-.79638,1.96772-2.10872v-7.80416h2.20188v7.80416c0,4.89794-5.48634,4.95099-7.3245,3.09699Zm2.41339-8.87552v-2.02563h3.88508v2.02563h-3.88508Z" fill="#fdfdff"/><path d="m476.51944,333.17587l.29963-2.25098c1.84481.77057,5.33664,1.49819,5.33664-.42552,0-.90225-.75889-1.12849-2.6765-2.05962-1.46131-.71422-2.64377-1.89467-2.64377-3.5351,0-2.25242,1.65271-3.25058,3.92789-3.25058,1.42171,0,2.76919.49807,3.80955,1.49184l-1.51702,1.74237c-2.47366-2.36012-4.69371-.57778-3.54769.81705.82252,1.00651,3.03591,1.29792,4.35215,2.97613,1.11969,1.43071.7968,3.34575-.45448,4.29046-.79247.596-4.28024,1.27398-6.88639.20395Z" fill="#fdfdff"/></g></g><g><g><path d="m131.01026,316.51611c0,9.32055-7.58038,16.91368-16.91384,16.91368H26.09883c-9.33346,0-16.92643-7.59313-16.92643-16.91368v-173.22348c0-9.33346,7.59297-16.92659,16.92643-16.92659h87.9976c9.1273,0,16.57865,7.25794,16.90093,16.30774l.0129,173.84233Z" fill="#5baab7"/><rect x="13.04604" y="130.23537" width="114.10236" height="199.32604" rx="13.05165" ry="13.05165" fill="#e1ecee"/><g><path d="m91.67616,144.42427h-47.29632c-1.30605,0-2.36481-1.05877-2.36481-2.36482s1.05876-2.36481,2.36481-2.36481h47.29632c1.30605,0,2.36481,1.05877,2.36481,2.36482s-1.05876,2.36481-2.36481,2.36481Z" fill="#5baab7"/><circle cx="102.61344" cy="142.05945" r="2.36482" fill="#5baab7"/></g></g><g><rect x="26.8729" y="178.0854" width="14.41044" height=".92423" fill="#5baab7"/><rect x="49.97238" y="178.0854" width="39.63006" height=".92423" fill="#f7d14c"/><rect x="95.96015" y="178.0854" width="16.10637" height=".92423" fill="#5baab7"/><rect x="31.95888" y="188.47038" width="21.61656" height=".92423" fill="#3e79a5"/><rect x="59.08563" y="188.47038" width="26.70255" height=".92423" fill="#5baab7"/><rect x="92.35799" y="188.47038" width="13.13872" height=".92423" fill="#5baab7"/><rect x="30.68716" y="198.64235" width="19.28522" height=".92423" fill="#f7d14c"/><rect x="55.69468" y="198.64235" width="25.43082" height=".92423" fill="#f7d14c"/><rect x="86.8478" y="198.64235" width="9.11235" height=".92423" fill="#5baab7"/><rect x="25.88368" y="208.17891" width="26.56084" height=".92423" fill="#5baab7"/><rect x="56.54219" y="208.17891" width="16.67138" height=".92423" fill="#5baab7"/><rect x="78.86546" y="208.17891" width="22.60488" height=".92423" fill="#5baab7"/><rect x="31.25217" y="216.09084" width="16.53058" height=".92423" fill="#5baab7"/><rect x="52.44452" y="216.09084" width="25.57253" height=".92423" fill="#3e79a5"/><rect x="31.25217" y="225.8395" width="27.12675" height=".92423" fill="#f7d14c"/><rect x="65.23123" y="225.13369" width="26.17274" height=".92423" fill="#5baab7"/><rect x="31.95888" y="234.17564" width="46.05817" height=".92423" fill="#5baab7"/><rect x="82.53802" y="234.17564" width="25.43173" height=".92423" fill="#5baab7"/><rect x="25.88368" y="244.06511" width="16.88348" height=".92423" fill="#f7d14c"/><rect x="48.34775" y="244.06511" width="16.88348" height=".92423" fill="#f7d14c"/><rect x="72.43645" y="244.06511" width="17.16599" height=".92423" fill="#f7d14c"/><rect x="94.68842" y="244.06511" width="17.37809" height=".92423" fill="#5baab7"/><rect x="31.95888" y="254.09627" width="22.46407" height=".92423" fill="#5baab7"/><rect x="58.37892" y="254.09627" width="21.75736" height=".92423" fill="#5baab7"/><rect x="84.79896" y="253.24876" width="22.60578" height=".92423" fill="#5baab7"/><rect x="30.68716" y="262.71492" width="20.34484" height=".92423" fill="#f7d14c"/><rect x="55.69468" y="262.71492" width="39.55966" height=".92423" fill="#3e79a5"/><rect x="25.88368" y="272.18108" width="34.47277" height=".92423" fill="#5baab7"/><rect x="65.23123" y="272.18108" width="36.52161" height=".92423" fill="#5baab7"/><rect x="31.25217" y="281.36473" width="17.09559" height=".92423" fill="#f7d14c"/><rect x="51.73871" y="281.36473" width="27.12675" height=".92423" fill="#5baab7"/><rect x="31.25217" y="289.84167" width="24.44251" height=".92423" fill="#f7d14c"/><rect x="60.92236" y="290.40668" width="19.21392" height=".92423" fill="#3e79a5"/><rect x="86.21148" y="290.40668" width="10.59618" height=".92423" fill="#5baab7"/><rect x="31.95888" y="299.02442" width="24.83061" height=".92423" fill="#5baab7"/><rect x="61.48737" y="298.31861" width="19.53253" height=".92423" fill="#5baab7"/><rect x="88.61322" y="299.02442" width="18.79152" height=".92423" fill="#f7d14c"/></g></g><g><path d="m505.99562,194.85477v89.86523c0,3.05702-1.58135,5.54416-3.52879,5.54416h-156.61784c-1.94366,0-3.52501-2.48713-3.52501-5.54416v-89.86523c0-3.05703,1.58135-5.54416,3.52501-5.54416h156.61784c1.94744,0,3.52879,2.48714,3.52879,5.54416Z" fill="#fdfdff"/><g><path d="m505.99562,192.8394v3.77411h-163.67164v-3.77411c0-1.94744,1.58135-3.52879,3.52879-3.52879h156.61784c1.94366,0,3.52879,1.58135,3.52879,3.52879h-.00378Z" fill="#5baab7"/><g><circle cx="346.85668" cy="192.96017" r=".97372" fill="#fdfdff"/><circle cx="350.62701" cy="192.96017" r=".97372" fill="#fdfdff"/><circle cx="354.39734" cy="192.96017" r=".97372" fill="#fdfdff"/></g></g></g><g><g><g><rect x="361.47379" y="201.86706" width="28.55866" height=".75859" fill="#f7d14c"/><rect x="394.9954" y="201.86706" width="28.55866" height=".75859" fill="#5baab7"/><rect x="370.30897" y="205.94309" width="44.28913" height=".75859" fill="#5baab7"/><rect x="421.91986" y="205.94309" width="22.51254" height=".75859" fill="#5baab7"/><rect x="448.62922" y="205.94309" width="22.51254" height=".75859" fill="#f7d14c"/><rect x="385.67336" y="210.01912" width="19.45174" height=".75859" fill="#5baab7"/><rect x="416.36438" y="210.01912" width="32.5328" height=".75859" fill="#5baab7"/><rect x="400.7811" y="214.09516" width="73.74602" height=".7586" fill="#5baab7"/><rect x="382.34082" y="218.17497" width="22.69747" height=".7586" fill="#5baab7"/><rect x="414.74906" y="218.17497" width="22.69747" height=".7586" fill="#f7d14c"/><rect x="444.36447" y="218.17497" width="22.69748" height=".7586" fill="#5baab7"/><rect x="464.67671" y="218.17497" width="9.2994" height=".7586" fill="#5baab7"/></g><g><rect x="361.47379" y="239.32506" width="36.14461" height=".75859" fill="#f7d14c"/><rect x="410.27675" y="239.32506" width="36.14461" height=".75859" fill="#5baab7"/><rect x="457.76255" y="239.32506" width="4.14774" height=".75859" fill="#5baab7"/><rect x="371.14683" y="235.24525" width="70.63616" height=".7586" fill="#5baab7"/><rect x="452.79206" y="235.24525" width="38.64307" height=".7586" fill="#5baab7"/><rect x="387.96424" y="231.16921" width="70.09269" height=".7586" fill="#5baab7"/><rect x="451.68247" y="231.16921" width="12.48475" height=".7586" fill="#5baab7"/><rect x="383.38625" y="227.09318" width="26.38855" height=".7586" fill="#f7d14c"/><rect x="423.78805" y="227.09318" width="26.38855" height=".7586" fill="#5baab7"/><rect x="461.53665" y="227.09318" width="5.60832" height=".7586" fill="#f7d14c"/><rect x="413.9716" y="223.01714" width="37.00133" height=".7586" fill="#5baab7"/><rect x="363.01363" y="223.01714" width="37.00133" height=".7586" fill="#5baab7"/></g></g><g><rect x="353.07263" y="201.11223" width="1.43793" height="1.00769" fill="#5baab7"/><path d="m354.51057,238.06828h-1.43793v-2.05311h1.43793v2.05311Zm0-5.13656h-1.43793v-2.05311h1.43793v2.05311Zm0-5.13656h-1.43793v-2.05311h1.43793v2.05311Zm0-5.13656h-1.43793v-2.05311h1.43793v2.05311Zm0-5.13656h-1.43793v-2.05311h1.43793v2.05311Zm0-5.13656h-1.43793v-2.05311h1.43793v2.05311Zm0-5.13656h-1.43793v-2.05311h1.43793v2.05311Z" fill="#5baab7"/><rect x="353.07263" y="241.15172" width="1.43793" height="1.00769" fill="#5baab7"/></g><g><g><rect x="361.47379" y="242.68778" width="20.93874" height=".75859" fill="#5baab7"/><rect x="386.05454" y="242.68778" width="20.93874" height=".75859" fill="#5baab7"/><rect x="367.95393" y="246.76381" width="32.47241" height=".75859" fill="#5baab7"/><rect x="405.79311" y="246.76381" width="16.50416" height=".75859" fill="#5baab7"/><rect x="379.21586" y="250.84362" width="14.26235" height=".75859" fill="#5baab7"/><rect x="401.72086" y="250.84362" width="47.31218" height=".75859" fill="#f7d14c"/><rect x="390.29286" y="254.91966" width="54.06783" height=".75859" fill="#5baab7"/><rect x="376.77402" y="258.99569" width="16.64003" height=".75859" fill="#5baab7"/><rect x="400.53579" y="258.99569" width="16.64003" height=".75859" fill="#5baab7"/></g><g><rect x="361.47379" y="280.14578" width="24.20711" height=".75859" fill="#f7d14c"/><rect x="394.16132" y="280.14578" width="24.20711" height=".75859" fill="#5baab7"/><rect x="425.96948" y="280.14578" width="24.20712" height=".75859" fill="#5baab7"/><rect x="367.95393" y="276.06975" width="47.31219" height=".75859" fill="#5baab7"/><rect x="422.64072" y="276.06975" width="47.31218" height=".75859" fill="#5baab7"/><rect x="379.21586" y="271.99371" width="46.9461" height=".75859" fill="#5baab7"/><rect x="430.25687" y="271.99371" width="13.06596" height=".75859" fill="#f7d14c"/><rect x="376.15129" y="267.91391" width="17.67413" height=".75859" fill="#5baab7"/><rect x="403.21163" y="267.91391" width="17.67414" height=".75859" fill="#5baab7"/><rect x="432.2496" y="267.91391" width="17.67414" height=".75859" fill="#5baab7"/><rect x="396.63713" y="263.83787" width="24.78078" height=".75859" fill="#5baab7"/><rect x="362.50412" y="263.83787" width="24.78078" height=".75859" fill="#f7d14c"/></g></g><g><rect x="353.07263" y="241.96315" width="1.38132" height=".96995" fill="#5baab7"/><path d="m354.45395,277.5039h-1.38132v-1.97386h1.38132v1.97386Zm0-4.9403h-1.38132v-1.97386h1.38132v1.97386Zm0-4.9403h-1.38132v-1.97386h1.38132v1.97386Zm0-4.9403h-1.38132v-1.97386h1.38132v1.97386Zm0-4.9403h-1.38132v-1.97763h1.38132v1.97763Zm0-4.9403h-1.38132v-1.97386h1.38132v1.97386Zm0-4.9403h-1.38132v-1.97386h1.38132v1.97386Z" fill="#5baab7"/><rect x="353.07263" y="280.46658" width="1.38132" height=".96995" fill="#5baab7"/></g></g><g><g><rect x="61.4914" y="209.68733" width="132.38159" height="109.9049" rx="6.03687" ry="6.03687" fill="#fdfdff"/><g><path d="m193.87299,215.72409v6.4543H61.4914v-6.4543c0-3.33154,2.70517-6.03676,6.03676-6.03676h120.30796c3.34068,0,6.03687,2.70522,6.03687,6.03676Z" fill="#5baab7"/><g><circle cx="69.24959" cy="215.93286" r="1.66399" fill="#fdfdff"/><circle cx="75.69993" cy="215.93286" r="1.66399" fill="#fdfdff"/><circle cx="82.15027" cy="215.93286" r="1.66399" fill="#fdfdff"/></g></g></g><g><rect x="75.70028" y="234.36039" width="15.81966" height="1.81556" fill="#f7d14c"/><rect x="75.70028" y="243.79678" width="23.59075" height="1.81556" fill="#f7d14c"/><rect x="105.1189" y="243.79678" width="19.15025" height="1.81556" fill="#5baab7"/><rect x="83.60967" y="250.18005" width="12.62824" height="1.81556" fill="#5baab7"/><rect x="102.34326" y="250.18005" width="23.59075" height="1.81556" fill="#5baab7"/><rect x="134.53753" y="250.18005" width="13.0449" height="1.81556" fill="#5baab7"/><rect x="152.85535" y="250.18005" width="11.93411" height="1.81556" fill="#3e79a5"/><rect x="83.60967" y="258.22861" width="11.23998" height="1.81556" fill="#5baab7"/><rect x="100.67841" y="256.84079" width="25.2556" height="1.81556" fill="#f7d14c"/><rect x="133.15015" y="256.84079" width="12.76654" height="1.81556" fill="#5baab7"/><rect x="83.60967" y="265.39732" width="11.23998" height="1.81556" fill="#5baab7"/><rect x="100.67841" y="266.83257" width="44.12838" height="1.81556" fill="#5baab7"/><rect x="152.85535" y="265.39732" width="11.93411" height="1.81556" fill="#5baab7"/><rect x="83.60967" y="272.38297" width="12.62824" height="1.81556" fill="#3e79a5"/><rect x="100.67841" y="272.38297" width="40.38201" height="1.81556" fill="#f7d14c"/><rect x="145.91669" y="272.38297" width="29.69698" height="1.81556" fill="#5baab7"/><rect x="83.60967" y="280.43154" width="12.62824" height="1.81556" fill="#5baab7"/><rect x="100.67841" y="280.43154" width="33.85912" height="1.81556" fill="#5baab7"/><rect x="141.06042" y="280.43154" width="17.76199" height="1.81556" fill="#5baab7"/><rect x="83.60967" y="287.3702" width="12.62824" height="1.81556" fill="#f7d14c"/><rect x="99.29103" y="287.3702" width="35.2465" height="1.81556" fill="#5baab7"/><rect x="83.60967" y="294.03095" width="11.23998" height="1.81556" fill="#5baab7"/><rect x="99.29103" y="294.03095" width="46.62566" height="1.81556" fill="#5baab7"/><rect x="149.94141" y="294.03095" width="10.82421" height="1.81556" fill="#f7d14c"/><rect x="75.70028" y="302.63491" width="23.59075" height="1.81556" fill="#f7d14c"/></g></g><g><g><path d="m503.98027,116.47545l-31.86669-13.76674-31.86666,13.76674s-6.96153,40.68958,31.31696,61.32061c.18513-.09174.36669-.1848.5497-.2772.18305.0924.3646.18546.54973.2772,38.27849-20.63104,31.31696-61.32061,31.31696-61.32061Z" fill="#86bae1"/><path d="m498.77136,120.36199l-26.65778-11.51653-26.65775,11.51653s-5.82372,34.03853,26.19787,51.29733c.15492-.07688.30677-.15473.45988-.23194.15314.07721.30499.15506.45991.23194,32.02159-17.2588,26.19787-51.29733,26.19787-51.29733Z" fill="#70a4c9"/></g><g><circle cx="472.61487" cy="140.25239" r="12.84338" fill="#86bae1"/><path d="m466.31488,139.402c-.43954-.43918-.43954-1.1516,0-1.59114s1.1516-.43954,1.59114,0l4.63571,4.63534,6.32062-7.54402c.39779-.47617,1.10911-.53917,1.58455-.13992.4769.39925.53917,1.10875.13992,1.58528-7.55562,9.01809-7.21478,8.85593-7.92202,8.88718-.67113.02918-.27993.23686-6.34992-5.83273Z" fill="#fdfdff"/></g></g><g><rect x="160.76562" y="117.30557" width="48.18312" height="33.82059" rx="4.04505" ry="4.04505" fill="#e1ecee"/><path d="m163.165,133.86036l12.20428-5.43528c1.29898-.57851,2.80632-.43247,3.97008.38464l5.61922,3.94541c1.27181.89297,2.94275.97842,4.29901.21983l7.50226-4.19618c1.39793-.78189,3.12556-.66528,4.40573.29739l6.16923,4.63914c1.01616.76413,1.61393,1.96156,1.61393,3.23297v10.13283c0,2.23402-1.81103,4.04505-4.04505,4.04505h-40.09301c-2.23402,0-4.04505-1.81103-4.04505-4.04505v-9.52558c0-1.59744.94012-3.04527,2.39938-3.69516Z" fill="#5baab7"/><circle cx="188.12764" cy="123.12276" r="3.27046" fill="#5baab7"/></g><g><rect x="223.89203" y="120.36365" width="77.74323" height="2.57831" fill="#5baab7"/><rect x="223.89203" y="128.94647" width="77.74323" height="2.57831" fill="#5baab7"/><rect x="223.89203" y="137.52865" width="77.74323" height="2.57831" fill="#5baab7"/><rect x="223.89203" y="146.11146" width="77.74323" height="2.57831" fill="#5baab7"/></g><rect x="285.50965" y="161.26344" width="16.12581" height="19.21413" fill="#e1ecee"/><rect x="261.56589" y="161.26344" width="16.12581" height="19.21413" fill="#e1ecee"/><rect x="237.62213" y="161.26344" width="16.12581" height="19.21413" fill="#e1ecee"/><rect x="213.67837" y="161.26344" width="16.12581" height="19.21413" fill="#e1ecee"/><g><rect x="158.82254" y="161.45226" width="45.26387" height="2.57831" fill="#5baab7"/><rect x="158.82254" y="168.25115" width="45.26387" height="2.57831" fill="#5baab7"/><rect x="158.82254" y="175.05005" width="45.26387" height="2.57831" fill="#5baab7"/></g></g><g><g><g><path d="m224.49398,393.83086s-4.99686,6.96104-13.77564,5.52121-4.32536-17.24228-3.89438-17.38594,9.95151-3.23402,9.95151-3.23402c0,0,11.16632,7.13858,7.71851,15.09875Z" fill="#ef8c6b"/><path d="m257.19937,353.61704l-30.61192,39.18727v.00221l-.8002,1.02357c-2.71234-5.42362-12.4096-12.08165-17.62166-15.09261.23791-1.51583.54357-3.06098.90631-4.55187,4.51655-18.52585,16.71535-25.16466,16.71535-25.16466l31.41212,4.59609Z" fill="#f9b18e"/><path d="m227.19323,387.2554c-.58809,2.28147-1.54751,3.69853-2.74354,4.46566-4.81491-6.35804-16.28411-12.98358-16.28411-12.98358.24979-1.59171.55484-3.10828.90631-4.55187,5.63961.07737,21.14781,1.34191,18.12134,13.06979Z" fill="#ef8c6b"/><path d="m226.93675,389.58108s.19236,1.37506-.34931,3.22322v.00221c-.69636,2.37431-2.60645,5.52902-7.69554,7.54741,0,0-.20995.02653-.52386.03095-1.32643.02874-4.50985-.30067-1.48781-4.48335,1.20266-2.14444,5.03165-9.67825,3.01761-11.06245-2.29913-1.58067-1.00594-.28739-1.00594-.28739,0,0-.913-.18349-1.83702.17022-.90868.34709-1.82827,1.21149-1.89908,3.27851,0,0,2.73026,11.06024-3.30281,11.20394,0,0-3.59242.86219-5.17307-1.43476,0,0,.28735,1.43476-1.72443,1.43476-2.00951,0-10.58265.38466-10.58265.38466,0,0-2.77668-10.72642-1.19604-12.88187,1.58065-2.15545,2.728-2.73025,2.728-2.73025,1.6072-1.60499,3.40676-3.09059,5.08693-4.59609,2.50213-2.24688,4.40552-1.83062,7.32637-1.5652,1.20478.13264,9.13683.9904,9.13683.9904,0,0,4.6912-.52173,7.56514,2.18862,1.65146,1.55634,2.70371,4.18047,1.91668,8.58645Z" fill="#f9b18e"/><g opacity=".2"><path d="m243.6167,371.00659l-17.02926,21.79772v.00221c-.69636,2.37431-2.60645,5.52902-7.69554,7.54741,0,0-.20995.02653-.52386.03095,2.68403-15.17423,10.07493-32.06518,25.24865-29.3783Z" fill="#ef8c6b"/></g><path d="m284.40011,340.20901l-28.73497,22.48746-18.43371,18.29559c-4.02356-10.34175-24.83341-16.22689-24.83341-16.22689.38256-7.27991,62.06927-84.87793,62.06927-84.87793,17.62393-1.24243,9.93282,60.32177,9.93282,60.32177Z" fill="#3e79a5"/><g opacity=".14"><path d="m281.27411,316.52775l-2.13117,27.79541-23.47781,18.37331c-5.36111-26.59743,20.37945-73.08099,16.69311-73.01131l8.91586,26.84259Z" fill="#133547"/></g><g><path d="m206.34953,397.79356c-.01662-.22032-.40177-5.43203.00173-8.69414l.65804.08139c-.3953,3.19713-.00237,8.50966.00173,8.56288l-.66149.04987Z" fill="#ef8c6b"/><path d="m200.69513,399.42289c-.06326-.18588-1.54837-4.58854-1.24072-7.73407l.66019.06455c-.29361,3.00175,1.19323,7.41143,1.20834,7.45558l-.62781.21395Z" fill="#ef8c6b"/><path d="m196.99692,399.57865c-.13148-.10125-3.20101-2.55205-1.33183-8.78212l.63515.19063c-1.73922,5.7971,1.07255,8.04399,1.10126,8.06601l-.40458.52548Z" fill="#ef8c6b"/></g></g><g><path d="m362.45356,406.80473l-94.23742.55287c.0129-.38673.03871-.76056.06452-1.14729.12873-2.06269,3.40323-4.24136,3.63534-6.32979.03341-.10001.95635-16.52611.25793-26.80146-1.35456-16.69341-8.48002-22.58969-8.08301-37.20494,0-7.03075,2.06109-15.48884,4.00909-22.95981,4.1641-16.02424,6.3685-33.02817,6.3685-33.02817,7.47668.88777,14.70723-1.24759,21.29683-11.26718,4.75689-2.52435-.03761-.57938,25.84742-10.01667l37.41124,20.38151s-.0129.02573-.02581.07735c-3.63971,11.5528-6.76456,32.18302-6.16203,51.63056.42427,13.49414,2.2406,24.25366,7.73492,51.55322,1.10865,5.51761-1.1857,10.39202-.07705,15.54863.65748,3.1069,1.32787,6.12348,1.95954,9.01117Z" fill="#fdfdff"/><g opacity=".1"><path d="m272.55764,343.85084s8.94049,16.11409,29.39935,14.26469c0,0-22.50197,1.69782-28.80814-3.42595-6.30618-5.12377-.5912-10.83874-.5912-10.83874Z" fill="#133547"/></g><path d="m365.89528,407.3576h-55.78167s-9.25603-45.37812-11.42188-71.48347c-2.16585-26.09252,34.03367-71.23861,34.03367-71.23861,8.23687,3.22928,19.64118,9.88664,26.27279,14.42563-3.63971,11.5528-6.76456,32.18302-6.16203,51.63056.42427,13.49414,2.2406,24.25366,7.73492,51.55322,1.10865,5.51761,2.25602,10.9449,3.36467,16.10151.65748,3.1069,1.32787,6.12348,1.95954,9.01117Z" fill="#3e79a5"/><path d="m273.42437,330.43386c.03871,12.83999,10.15837,71.13545,11.16395,76.92374h-16.37218c.0129-.38673.03871-.76056.06452-1.14729.25399-4.14618.3998-7.34412.58006-11.39615.27841-6.99719.47215-14.9029.0129-21.63195-1.38593-17.08463-8.93163-23.74452-8.54709-37.90113,0-5.4415,2.82973-16.98534,4.20265-22.25079,4.16394-16.02416,9.93932-33.14415,9.93932-33.14415l21.29683-11.26718s-22.36677,48.2917-22.34096,61.8149Z" fill="#3e79a5"/><g opacity=".12"><path d="m365.89616,407.35971c-11.47584-3.31166-56.81072-5.17676-56.81072-5.17676l-5.70285-31.46343,38.8964-10.39515-13.02999-48.51431,24.84855-8.0625c-3.56605,29.1335.36838,48.37467,6.46852,78.49392,1.79292,8.85837,3.63226,17.44039,5.33008,25.11823Z" fill="#133547"/></g><g><path d="m323.89926,225.77091c-3.28247,1.41221-6.658,2.84639-10.22852,2.98883-3.53211.14091-10.33873-1.39986-12.40616-4.70022-.92557-1.47755-.15174-3.13571.02446-4.79481,1.11633-10.51161-3.99584-14.56832-4.88386-22.34889-1.73515-15.33417,21.69629-14.88535,30.01616-8.67321,4.76559,3.55828,7.86631,9.18242,8.51606,15.07774.31706,2.87677-.45121,4.92059-.97604,7.61658-.66687,3.42559-.05116,6.62987-2.26222,9.67275-1.85544,2.55347-4.89558,3.91173-7.79987,5.16124Z" fill="#133547"/><path d="m324.91208,210.46535c-2.4276-3.18214-6.08946-5.22987-9.58457-7.06072-4.47869-2.36138-9.04522-4.57837-13.98894-5.72298-4.95267-1.14557-10.25922-1.09864-14.92072.78153-4.18905,1.77696-7.1325,5.27052-9.13359,9.1726-.53054.98359-.94001,1.9349-1.10926,2.83957.02332.12011-.08784.14439-.06451.2645h0c-.6429,1.2931-1.03107,3.71814-1.8081,4.71888-.88192,1.05452-2.29927,1.36414-3.34986,2.21966-1.68338,1.35772-1.99214,3.90304-1.17042,5.94518,3.35482,8.99555,13.85606,8.86915,21.5185,11.86701,3.53533,1.45518,6.83437,4.69445,10.0982,6.5729,5.10099,2.97084,10.05855,5.8449,15.1605,8.8068,5.21977-10.03435,8.93067-14.77967,10.87546-21.55231,1.94761-6.35954,1.46453-13.67598-2.51183-18.86955l-.01087.01693Z" fill="#133547"/><g><path d="m319.54381,256.2019c-.92841-2.14404-1.74343-4.5021-2.21154-6.80493-.35839-1.7631-.12166-.70958-1.88066-8.03607-.70183-3.32526-.47125-2.32332-1.00903-4.4325-4.28039,1.34394-1.5902.39394-24.03146,7.2063,1.95857,8.52989,1.75148,7.85631,2.04588,9.11225,2.75815,11.76643,2.81711,11.44916,2.86794,11.74249,1.74204,6.50089-1.36063,15.53028,2.4974,17.73713.98071.55737,2.20545.52568,3.26597.16881,4.37402-1.4767,8.66395-4.36467,12.18467-7.33503,3.41839-2.87415,6.22225-6.24211,8.69686-10.0788.67593-1.04799,1.57884-2.23303,2.03102-3.39568.56949-1.46428.8196-.82678-.16114-2.04724-1.23202-1.53316-3.41293-1.83942-4.29589-3.83672Z" fill="#f9b18e"/><path d="m291.96772,255.36582l2.7409,7.77536s7.48555,7.56875,20.17001-13.97982c.58932-.94111.55316-2.03966.78407-2.92868l-2.24179-5.17067c-4.75104.09737-14.89571,8.32033-21.46213,14.30285l.00895.00095Z" fill="#ef8c6b"/></g><path d="m324.00423,239.72553c1.41246-2.03811,1.6398-3.82316,1.35505-6.233-.12499-1.70517-.08476-2.08083.23936-4.00931.68715-4.56398-2.30008-7.90654-5.19792-11.35871-5.24873-5.89979-10.80766-12.11325-18.3354-14.30356-6.50297-2.04439-13.97429-.5375-19.23237,3.70336-10.51616,8.48173-8.72678,24.04415-6.64242,35.83843,1.65616,9.28765,7.71115,20.58434,18.79027,19.7714,15.481-1.02912,21.64275-17.5947,21.64275-17.5947,2.79599-1.35618,5.67244-3.46369,7.39059-5.82189l-.0099.00799Z" fill="#f9b18e"/><path d="m294.98801,231.47052c1.12952-.49424,2.48877.07653,2.98301,1.20605s-.07653,2.48877-1.20605,2.983c-1.12952.49424-2.48877-.07653-2.98301-1.20605-.49424-1.12951.07653-2.48877,1.20605-2.983Z" fill="#100f36"/><g><path d="m294.98801,231.47052c1.12952-.49424,2.48877.07653,2.98301,1.20605s-.07653,2.48877-1.20605,2.983c-1.12952.49424-2.48877-.07653-2.98301-1.20605-.49424-1.12951.07653-2.48877,1.20605-2.983Z" fill="#133547"/><path d="m297.64296,232.86762c.53818,1.21787-1.35043,2.12616-1.93002.78848-.22332-.44912,1.32314-2.18915,1.93002-.78848Z" fill="#fff"/></g><g><path d="m279.03053,234.83702c1.12952-.49424,2.48876.07653,2.98301,1.20605s-.07652,2.48877-1.20604,2.983-2.48876-.07653-2.98301-1.20605c-.49424-1.12952.07652-2.48877,1.20604-2.983Z" fill="#133547"/><path d="m281.68548,236.23411c.53818,1.21786-1.35041,2.12616-1.93003.78848-.24759-.56029,1.35041-2.12616,1.93003-.78848Z" fill="#fff"/></g><path d="m325.54236,234.31731c-.11857-1.08929-.60386-2.21785-1.35366-3.41092-1.63216-2.3816-3.88912-3.34772-6.38637-1.95048-3.71403,2.07209-3.69682,7.14929-3.77552,10.84107-.0787,3.69178-.1348,11.819-1.94485,4.05285-2.05256-8.79633-7.37556-17.38197-16.86625-19.3211-3.47971-.70737-6.28346-1.05285-9.07328-3.64049-2.50166-2.32156-4.11598-5.57945-4.43944-8.97956-4.20141,3.66645-5.39684,7.81765-7.54322,12.6541-2.70661,6.09731-4.11975-4.5304-4.13876-7.30986-.02333-3.85895.97115-7.64413,3.25931-10.7516,3.85344-5.48597,9.54463-10.7299,16.16017-12.10226,12.25936-2.54118,28.23247-.47782,33.02861,12.26728,1.37987,3.75751,4.45974,6.34002,5.47418,10.38408,1.01444,4.04407.64093,8.29233-.52641,12.2656-.04629.43855-1.73376,4.82188-1.87452,5.00127Z" fill="#133547"/><g><path d="m321.3613,236.10418c.42469,1.91319-.55718,2.82443-1.68003,4.19882,2.47969-1.99997,3.10577-4.27079.81167-6.48118-.59898-.48935-1.31902-.94643-2.13489-1.26902,1.14059.72404,2.71246,2.2446,3.00325,3.55138Z" fill="#ef8c6b"/><path d="m317.95096,236.35416c.44912-.22331.92157-.32652,1.36079-.54184.44912-.22331.92157-.32652,1.29724-.28629.23127-.04761.37566.04023.55233.24913.16772.20795.33543.41589.39103.65707.19898-.81578-.9321-1.66524-2.43163-.94797-.47245.1032-.92157.32652-1.33746.66195s-.84169.67886-1.14642.99001l1.31413-.78206Z" fill="#ef8c6b"/></g><path d="m301.59585,229.40977c.08784-.14439.16129-.40794-.00642-.61588-1.50211-1.77122-3.17251-2.64671-5.05434-2.73063-2.75327-.14104-4.56471,1.73673-4.68578,1.769-.20795.16772-.16129.40794-.12807.52006.16772.20795.40794.1613.61588-.00642.12011-.02333,1.74789-1.62222,4.12549-1.5214,1.60838.01844,3.04752.94155,4.50201,2.48149.37291.22686.34796.17364.63921.11369l-.00798-.0099Z" fill="#133547"/><path d="m283.14373,230.47355c.20795-.16772.1613-.40794-.00642-.61588-2.14131-1.88491-4.02956-2.5847-5.79925-2.1952-2.21785.60386-3.24665,2.6921-3.22236,2.80327-.06451.2645-.01691.49577.24759.56029s.49578.0169.56028-.2476c.67064-1.56359,2.27867-2.3244,2.70969-2.3244,1.53745-.33294,3.1612.30234,5.13576,1.97035.14439.08784.2645.06451.37566.04023s.23127-.04761,0,0l-.00096.00895Z" fill="#133547"/><g><path d="m285.64775,234.88522c.26166.59798.40224,1.22823.41281,1.88979.06083,3.61611-.93992,4.50529-1.13977,5.65896-.23954.7162-.20564,1.49787.18507,2.07348.51178.54334,1.12927.94421,1.81417,1.05373s1.34645.09895,1.97574-.03269c-.66156.01057-1.44419.05343-1.99906-.08742-.68393-.11848-1.30239-.5104-1.53177-.98731-1.08411-1.59716,1.35222-3.19289.8247-7.70113-.38473-1.79262-.5493-2.17661-1.60827-3.73673.39071.57561.65236,1.17359,1.07438,1.87921l-.008-.0099Z" fill="#ef8c6b"/><path d="m292.64402,244.57284c-.45714-.29322-.83631-.21622-1.34645-.09895-.34786.20702-.82573.44535-.99884.87916.38013-.08595.72799-.29297,1.10716-.36997.19186-.15468.68437-.28926,1.23813-.41023Z" fill="#ef8c6b"/></g><g><path d="m285.23141,250.60045c4.94944.05804,8.59268-.6551,13.24073-1.56758-4.19465,2.44277-9.63742,2.85867-13.24073,1.56758Z" fill="#ef8c6b"/><path d="m288.96294,253.18037c1.00159-.62797,2.5105-.60969,3.4752.0736-.98324.6303-2.52642.60748-3.4752-.0736Z" fill="#ef8c6b"/></g><ellipse cx="300.70823" cy="240.82766" rx="4.49777" ry="2.19491" transform="translate(-37.0816 55.56721) rotate(-9.94761)" fill="#ef8c6b"/><ellipse cx="280.13381" cy="243.54589" rx="3.29237" ry="2.4108" transform="translate(-37.86048 52.05389) rotate(-9.94761)" fill="#ef8c6b"/></g></g><g><path d="m284.87661,379.53297s-5.7801-3.55255-13.14704-5.61944c-3.3665-.99649-7.08459-1.62274-10.6938-1.52948-11.72993.30311-21.1598,2.2623-21.1598,2.2623,0,0-15.46527,5.99764-14.21767,8.8547,0,0,.60667,2.51246,8.98572-1.67684l6.71597-2.15993,2.71856.3812-9.93395,3.41687-8.14263,6.35016s-5.76937,3.85099-2.32197,4.48423c3.53763.63091,12.40444-5.64768,12.40444-5.64768,7.85495-2.26263,5.32785-1.66545,11.21582-2.72767l-9.45016,4.66843s-9.23169,9.62876-5.79594,9.81085c2.89203.10585,3.41243-.72021,3.41243-.72021h0l7.62224-5.5241,7.68519-3.08789-4.76518,4.2765s-8.48886,10.42218-4.34993,9.86378c0,0,1.28887.95989,6.91205-5.0543,0,0,3.42572-3.70014,6.87312-3.0669,3.4474.63324,20.91313,2.16831,23.3167.84213,2.40357-1.32618,9.98991-1.25134,9.98991-1.25134l-3.87408-17.14537Z" fill="#f9b18e"/><path d="m383.38902,397.17334s-27.26562-27.63944-38.09438-27.63944l6.34253-6.32979c0-.01283.0129-.01283.0129-.01283l-25.40916-58.26973s8.97245-45.5587,33.99496-25.0225c0,0,33.24715,81.79677,35.10361,90.7564,1.86937,8.97253,5.23388,25.77016-11.95047,26.51789Z" fill="#3e79a5"/><path d="m353.76329,366.41512l-74.70565,7.77049c-4.09124,9.21421-1.54551,18.06069-.27414,27.99735,0,0,102.02278-1.85696,108.48553-5.51181,0,0-12.69039-32.87052-33.50575-30.25603Z" fill="#3e79a5"/></g></g><path d="m126.47769,338.98867h98.68168c1.33243,0,2.49196.91541,2.7971,2.21734l13.0294,55.89114c.30514,1.30192,1.46467,2.21734,2.7971,2.21734h40.37995c1.58672,0,2.86831,1.28158,2.86831,2.8683v2.76658c0,1.58672-1.28157,2.8683-2.86831,2.8683h-133.95565c-1.20021,0-2.26819-.74251-2.68522-1.86134l-23.73975-63.08222c-.70182-1.88169.68148-3.88543,2.69539-3.88543Z" fill="#133547"/></g><g opacity=".1"><path d="m379.18653,376.16016c-.81233-.24494-24.70037-7.41263-31.80362-8.70178l4.25427-4.25427c0-.01283.0129-.01283.0129-.01283,1.62435-.81217,23.28218,10.57099,27.53645,12.96888Z" fill="#133547"/></g><rect x="6" y="405.42383" width="500" height="3.86746" fill="#133547"/></svg>