<svg xmlns="http://www.w3.org/2000/svg" viewBox="0 0 32 32"><path fill="none" stroke="#000" stroke-linecap="round" stroke-linejoin="round" stroke-width="2" d="M26.91,18.57c-.14,1.98-.45,3.97-.92,5.95-.17.72-.75,1.3-1.47,1.47-5.68,1.35-11.36,1.35-17.04,0-.72-.17-1.3-.75-1.47-1.47-1.35-5.68-1.35-11.36,0-17.04.17-.72.75-1.3,1.47-1.47,1.6-.38,3.2-.65,4.81-.82"/><line x1="16.97" x2="15.03" y1="11.71" y2="20.29" fill="none" stroke="#000" stroke-linecap="round" stroke-width="2"/><polyline fill="none" stroke="#000" stroke-linecap="round" stroke-linejoin="round" stroke-width="2" points="19.71 18.57 22 16 19.71 13.43"/><polyline fill="none" stroke="#000" stroke-linecap="round" stroke-linejoin="round" stroke-width="2" points="12.29 18.57 10 16 12.29 13.43"/><path fill="none" stroke="#000" stroke-linecap="round" stroke-linejoin="round" stroke-width="2" d="M21.36,1.71l.89,1.76c.28.55.73,1,1.28,1.28l1.76.89c.29.15.29.57,0,.72l-1.76.89c-.55.28-1,.73-1.28,1.28l-.89,1.76c-.15.29-.57.29-.72,0l-.89-1.76c-.28-.55-.73-1-1.28-1.28l-1.76-.89c-.29-.15-.29-.57,0-.72l1.76-.89c.55-.28,1-.73,1.28-1.28l.89-1.76c.15-.29.57-.29.72,0Z"/><path fill="none" stroke="#000" stroke-linecap="round" stroke-linejoin="round" stroke-width="2" d="M27.86,8.71l.39.77c.28.55.73,1,1.28,1.28l.77.39c.29.15.29.57,0,.72l-.77.39c-.55.28-1,.73-1.28,1.28l-.39.77c-.15.29-.57.29-.72,0l-.39-.77c-.28-.55-.73-1-1.28-1.28l-.77-.39c-.29-.15-.29-.57,0-.72l.77-.39c.55-.28,1-.73,1.28-1.28l.39-.77c.15-.29.57-.29.72,0Z"/></svg>