<svg xmlns="http://www.w3.org/2000/svg" baseProfile="basic" viewBox="0 0 32 32"><path fill="none" stroke="#000" stroke-linecap="round" stroke-linejoin="round" stroke-width="2" d="M25.88,26.118	c-6.565,1.311-13.131,1.311-19.696,0c-1.109-0.221-1.981-1.084-2.278-2.175c-1.435-5.274-1.435-10.548,0-15.822	C4.204,7.03,5.075,6.168,6.184,5.946c6.565-1.311,13.131-1.311,19.696,0c1.109,0.221,1.981,1.084,2.278,2.175	c1.435,5.274,1.435,10.548,0,15.822C27.861,25.035,26.99,25.897,25.88,26.118z"/><path fill="none" stroke="#000" stroke-linecap="round" stroke-linejoin="round" stroke-width="2" d="M16.039,19.885	c0.035-2.592,0.035-5.184,0-7.776c0.799,0.002,1.599,0.01,2.398,0.023c1.249,0.024,2.453,1.119,2.537,2.425c0,0,0,0,0,0	c0.075,1.306-1.063,2.377-2.389,2.386c-0.744,0.003-1.488,0.005-2.232,0.005"/><path fill="none" stroke="#000" stroke-linecap="round" stroke-linejoin="round" stroke-width="2" d="M24.011,12.3	c0.62,2.467,0.62,4.933,0,7.4"/><path fill="none" stroke="#000" stroke-linecap="round" stroke-linejoin="round" stroke-width="2" d="M12.937,19.884	c-1.099-2.603-2.206-5.186-2.721-7.706c-0.127,0.004-0.254,0.008-0.381,0.012c-1.327,2.57-2.433,5.087-2.721,7.51"/><path fill="none" stroke="#000" stroke-linecap="round" stroke-linejoin="round" stroke-width="1.5" d="M7.585,17.862	c1.431,0.03,2.863,0.052,4.294,0.066"/></svg>