<svg xmlns="http://www.w3.org/2000/svg" baseProfile="basic" viewBox="0 0 32 32"><line x1="16" x2="16" y1="3.397" y2="10" fill="none" stroke="#000" stroke-linecap="round" stroke-linejoin="round" stroke-miterlimit="10" stroke-width="2"/><path fill="none" stroke="#000" stroke-linecap="round" stroke-linejoin="round" stroke-miterlimit="10" stroke-width="2" d="M24.891,9.076c0,0,3.211,4.293,3.106,9.924c-0.038,2.019-0.502,4.211-1.694,6.438c0,0-3.761,2.442-10.304,2.442"/><path fill="none" stroke="#000" stroke-linecap="round" stroke-linejoin="round" stroke-miterlimit="10" stroke-width="2" d="M16,10	c7,0,11.997,3,11.997,9"/><path fill="none" stroke="#000" stroke-linecap="round" stroke-linejoin="round" stroke-miterlimit="10" stroke-width="2" d="M7.109,9.076c0,0-3.211,4.293-3.106,9.924c0.038,2.019,0.502,4.211,1.694,6.438c0,0,3.761,2.442,10.304,2.442"/><path fill="none" stroke="#000" stroke-linecap="round" stroke-linejoin="round" stroke-miterlimit="10" stroke-width="2" d="M16,10	c-7,0-11.997,3-11.997,9"/><circle cx="11.5" cy="15.5" r="1.5"/><circle cx="20.5" cy="15.5" r="1.5"/><circle cx="16" cy="4" r="2"/><path fill="none" stroke="#000" stroke-linecap="round" stroke-linejoin="round" stroke-width="2" d="M11.823,20.213	c2.785-0.283,5.57-0.283,8.355,0c0.705,0.072,1.385,0.465,1.673,1.112c0.2,0.45,0.2,0.9,0,1.35	c-0.287,0.647-0.968,1.041-1.673,1.112c-2.785,0.283-5.57,0.283-8.355,0c-0.705-0.072-1.385-0.465-1.673-1.112	c-0.2-0.45-0.2-0.9,0-1.35C10.437,20.678,11.118,20.284,11.823,20.213z"/><rect width="2" height="4" x="13" y="20"/><rect width="2" height="4" x="17" y="20"/></svg>