<svg xmlns="http://www.w3.org/2000/svg" baseProfile="basic" viewBox="0 0 32 32"><path fill="none" stroke="#000" stroke-linecap="round" stroke-linejoin="round" stroke-miterlimit="10" stroke-width="2" d="M5.171,25.287c7.22,2.284,14.439,2.284,21.659,0c2.592-5.393,2.798-10.786,0.617-16.18c-0.348-0.861-1.06-1.543-1.955-1.791	c-6.327-1.755-12.655-1.755-18.982,0c-0.895,0.248-1.607,0.93-1.955,1.791C2.373,14.5,2.578,19.893,5.171,25.287z"/><path fill="none" stroke="#000" stroke-linejoin="round" stroke-miterlimit="10" stroke-width="2" d="M3.814,12.516	C7.88,11.509,11.968,11,16,11s8.12,0.509,12.186,1.516"/><path fill="none" stroke="#000" stroke-linecap="round" stroke-linejoin="round" stroke-width="2" d="M9.5,16	c0,0,2.25,0.826,4.5,2.8c-2.032,2.016-4,3.2-4,3.2"/><path fill="none" stroke="#000" stroke-linecap="round" stroke-linejoin="round" stroke-width="2" d="M17,22	c0,0,3.484,0.041,5.968-0.7"/></svg>