<svg xmlns="http://www.w3.org/2000/svg" id="Layer_1" x="0" y="0" version="1.1" viewBox="0 0 32 32" xml:space="preserve"><path fill="none" stroke="#000" stroke-linecap="round" stroke-linejoin="round" stroke-miterlimit="10" stroke-width="2" d="M7.286,5.693c5.809-0.458,11.618-0.458,17.427,0c1.933,0.152,3.498,1.653,3.7,3.582	c0.47,4.483,0.47,8.966,0,13.449c-0.202,1.929-1.766,3.43-3.7,3.582c-5.809,0.458-11.618,0.458-17.427,0	c-1.933-0.152-3.498-1.653-3.7-3.582c-0.47-4.483-0.47-8.966,0-13.449C3.789,7.347,5.353,5.846,7.286,5.693z"/><line x1="7.347" x2="7.983" y1="10.985" y2="10.985" fill="none" stroke="#000" stroke-linecap="round" stroke-linejoin="round" stroke-miterlimit="10" stroke-width="2"/><path fill="none" stroke="#000" stroke-linecap="round" stroke-linejoin="round" stroke-miterlimit="10" stroke-width="2" d="M10.796,10.985c1.164-0.102,2.323-0.116,3.473,0"/><line x1="7.347" x2="7.983" y1="14.985" y2="14.985" fill="none" stroke="#000" stroke-linecap="round" stroke-linejoin="round" stroke-miterlimit="10" stroke-width="2"/><path fill="none" stroke="#000" stroke-linecap="round" stroke-linejoin="round" stroke-miterlimit="10" stroke-width="2" d="M10.796,14.985c1.115-0.178,2.271-0.185,3.473,0"/><line x1="7.347" x2="7.983" y1="18.985" y2="18.985" fill="none" stroke="#000" stroke-linecap="round" stroke-linejoin="round" stroke-miterlimit="10" stroke-width="2"/><path fill="none" stroke="#000" stroke-linecap="round" stroke-linejoin="round" stroke-miterlimit="10" stroke-width="2" d="M10.796,18.985c1.158-0.188,2.315-0.188,3.473,0"/><line x1="18.347" x2="18.983" y1="10.985" y2="10.985" fill="none" stroke="#000" stroke-linecap="round" stroke-linejoin="round" stroke-miterlimit="10" stroke-width="2"/><path fill="none" stroke="#000" stroke-linecap="round" stroke-linejoin="round" stroke-miterlimit="10" stroke-width="2" d="M21.796,10.985c1.158-0.239,2.315-0.239,3.473,0"/><line x1="18.347" x2="18.983" y1="14.985" y2="14.985" fill="none" stroke="#000" stroke-linecap="round" stroke-linejoin="round" stroke-miterlimit="10" stroke-width="2"/><path fill="none" stroke="#000" stroke-linecap="round" stroke-linejoin="round" stroke-miterlimit="10" stroke-width="2" d="M21.796,14.985c1.123-0.186,2.282-0.176,3.473,0"/><line x1="18.347" x2="18.983" y1="18.985" y2="18.985" fill="none" stroke="#000" stroke-linecap="round" stroke-linejoin="round" stroke-miterlimit="10" stroke-width="2"/><path fill="none" stroke="#000" stroke-linecap="round" stroke-linejoin="round" stroke-miterlimit="10" stroke-width="2" d="M21.796,18.985c1.098-0.205,2.265-0.172,3.473,0"/></svg>