<svg xmlns="http://www.w3.org/2000/svg" baseProfile="basic" viewBox="0 0 32 32"><path fill="none" stroke="#000" stroke-linecap="round" stroke-linejoin="round" stroke-miterlimit="10" stroke-width="2" d="M5.101,13.574v-0.448C5.101,7.533,9.635,3,15.227,3h0c4.457,0,9.287,2.937,10.028,9.359c0.13,1.127,0.636,2.176,1.368,3.042	c1.285,1.522,2.455,3.916-0.617,4.583c0,0,0.994,6.015-5.006,4.715v1.293c0,0.706-0.368,1.357-0.974,1.719	C19.064,28.287,17.388,29,15,29c-2.432,0-4.125-0.739-5.078-1.319c-0.524-0.318-0.902-0.846-0.958-1.456	C8.574,21.948,5.101,18.698,5.101,13.574z"/><circle cx="15.501" cy="14.5" r="3.5" fill="none" stroke="#000" stroke-miterlimit="10" stroke-width="2"/><path d="M15.501,10.9c0.382,0,0.743,0.076,1.088,0.186c0.023-0.7-0.046-1.436-0.181-2.089c-0.03-0.146-0.122-0.278-0.256-0.343	c-0.427-0.206-0.874-0.205-1.301,0.002c-0.133,0.064-0.225,0.194-0.256,0.338c-0.137,0.637-0.208,1.382-0.184,2.093	C14.757,10.976,15.118,10.9,15.501,10.9z"/><path d="M15.501,18.1c0.382,0,0.743-0.076,1.088-0.186c0.023,0.7-0.046,1.436-0.181,2.089c-0.03,0.146-0.122,0.278-0.256,0.343	c-0.427,0.206-0.874,0.205-1.301-0.002c-0.133-0.064-0.225-0.194-0.256-0.338c-0.137-0.637-0.208-1.382-0.184-2.093	C14.757,18.024,15.118,18.1,15.501,18.1z"/><path d="M12.383,12.699c0.191-0.331,0.437-0.606,0.705-0.85c-0.595-0.37-1.267-0.678-1.899-0.888	c-0.141-0.047-0.302-0.033-0.425,0.05c-0.392,0.267-0.615,0.654-0.649,1.128c-0.011,0.147,0.055,0.291,0.165,0.39	c0.483,0.437,1.093,0.871,1.72,1.206C12.076,13.381,12.192,13.03,12.383,12.699z"/><path d="M18.618,16.299c0.191-0.331,0.306-0.681,0.383-1.035c0.617,0.33,1.221,0.758,1.719,1.201	c0.111,0.099,0.18,0.245,0.169,0.393c-0.035,0.473-0.26,0.859-0.652,1.126c-0.122,0.083-0.28,0.098-0.42,0.053	c-0.62-0.2-1.301-0.511-1.904-0.887C18.181,16.906,18.427,16.63,18.618,16.299z"/><path d="M12.382,16.299c-0.191-0.331-0.306-0.681-0.383-1.035c-0.617,0.33-1.221,0.758-1.719,1.201	c-0.111,0.099-0.18,0.245-0.169,0.393c0.035,0.473,0.26,0.859,0.652,1.126c0.122,0.083,0.28,0.098,0.42,0.053	c0.62-0.2,1.301-0.511,1.904-0.887C12.819,16.906,12.573,16.63,12.382,16.299z"/><path d="M18.617,12.699c-0.191-0.331-0.437-0.606-0.705-0.85c0.595-0.37,1.267-0.678,1.899-0.888	c0.141-0.047,0.302-0.033,0.425,0.05c0.392,0.267,0.615,0.654,0.649,1.128c0.011,0.147-0.055,0.291-0.165,0.39	c-0.483,0.437-1.093,0.871-1.72,1.206C18.924,13.381,18.808,13.03,18.617,12.699z"/></svg>