<svg xmlns="http://www.w3.org/2000/svg" baseProfile="basic" viewBox="0 0 32 32"><path fill="none" stroke="#000" stroke-linejoin="round" stroke-miterlimit="10" stroke-width="2" d="M7.519,27.916	c2.297-0.475,3.901-1.708,4.635-2.949c0.708-1.197,1.264-4.213,0.421-5.478c-1.179-1.213-2.985-2.16-5.056-2.528	c-2.071,0.368-3.877,1.315-5.056,2.528c-0.843,1.264-0.286,4.281,0.421,5.478C3.619,26.208,5.222,27.441,7.519,27.916z"/><path fill="none" stroke="#000" stroke-linecap="round" stroke-linejoin="round" stroke-miterlimit="10" stroke-width="2" d="M2.463,19.489c0,0,1.264,2.107,5.056,2.949"/><path fill="none" stroke="#000" stroke-linecap="round" stroke-linejoin="round" stroke-miterlimit="10" stroke-width="2" d="M7.519,22.438c3.792-0.843,5.056-2.949,5.056-2.949"/><line x1="7.519" x2="7.519" y1="22.438" y2="28" fill="none" stroke="#000" stroke-linejoin="round" stroke-width="2"/><path fill="none" stroke="#000" stroke-linejoin="round" stroke-miterlimit="10" stroke-width="2" d="M24.493,27.916	c2.289-0.473,3.887-1.702,4.618-2.939c0.705-1.193,1.26-4.198,0.42-5.458c-1.175-1.209-2.974-2.152-5.038-2.519	c-2.064,0.367-3.863,1.31-5.038,2.519c-0.84,1.26-0.285,4.265,0.42,5.458C20.606,26.214,22.204,27.443,24.493,27.916z"/><path fill="none" stroke="#000" stroke-linecap="round" stroke-linejoin="round" stroke-miterlimit="10" stroke-width="2" d="M19.455,19.519c0,0,1.26,2.099,5.038,2.939"/><path fill="none" stroke="#000" stroke-linecap="round" stroke-linejoin="round" stroke-miterlimit="10" stroke-width="2" d="M24.493,22.458c3.779-0.84,5.038-2.939,5.038-2.939"/><line x1="24.493" x2="24.493" y1="22.458" y2="28" fill="none" stroke="#000" stroke-linejoin="round" stroke-width="2"/><path fill="none" stroke="#000" stroke-linejoin="round" stroke-miterlimit="10" stroke-width="2" d="M16,13.916	c2.289-0.473,3.887-1.702,4.618-2.939c0.705-1.193,1.26-4.198,0.42-5.458C19.863,4.31,18.064,3.367,16,3	c-2.064,0.367-3.863,1.31-5.038,2.519c-0.84,1.26-0.285,4.265,0.42,5.458C12.113,12.214,13.711,13.443,16,13.916z"/><path fill="none" stroke="#000" stroke-linejoin="round" stroke-miterlimit="10" stroke-width="2" d="M21.038,5.519	c0,0-1.26,2.099-5.038,2.939c-3.779-0.84-5.038-2.939-5.038-2.939"/><line x1="16" x2="16" y1="8.458" y2="14" fill="none" stroke="#000" stroke-linejoin="round" stroke-width="2"/><path fill="none" stroke="#000" stroke-linejoin="round" stroke-miterlimit="10" stroke-width="2" d="M21.261,26.503	c0,0-2.631,1.497-5.261,1.497s-5.261-1.497-5.261-1.497"/><path fill="none" stroke="#000" stroke-linejoin="round" stroke-miterlimit="10" stroke-width="2" d="M6.079,17.246	C6.199,16.16,6.513,14.432,7.34,13c0.977-1.692,2.669-2.971,3.475-3.517"/><path fill="none" stroke="#000" stroke-linejoin="round" stroke-miterlimit="10" stroke-width="2" d="M25.921,17.246	c-0.12-1.086-0.434-2.814-1.261-4.246c-0.977-1.692-2.669-2.971-3.475-3.517"/></svg>