<svg xmlns="http://www.w3.org/2000/svg" viewBox="0 0 32 32"><path d="M25.298,11.295c-0.11,0-0.223-0.019-0.333-0.058c-0.521-0.184-0.794-0.755-0.61-1.276c0.372-1.053,0.346-2.085-0.083-3.144 c-1.525-0.444-3.02-0.444-4.543,0c-0.316,0.78-0.413,1.538-0.296,2.308c0.084,0.546-0.291,1.057-0.837,1.14 c-0.556,0.088-1.057-0.292-1.14-0.837c-0.198-1.293,0.02-2.595,0.646-3.87c0.117-0.238,0.323-0.419,0.574-0.505 c2.205-0.754,4.441-0.754,6.646,0c0.251,0.086,0.457,0.267,0.574,0.505c0.824,1.676,0.939,3.381,0.344,5.069 C26.096,11.038,25.71,11.295,25.298,11.295z"/><path d="M6.702,11.296c-0.412,0-0.798-0.257-0.943-0.667C5.163,8.94,5.278,7.234,6.103,5.559C6.22,5.321,6.426,5.139,6.677,5.054 c2.205-0.754,4.441-0.754,6.646,0c0.251,0.085,0.457,0.267,0.574,0.505c0.663,1.348,0.868,2.724,0.609,4.09 c-0.103,0.542-0.629,0.902-1.168,0.796c-0.543-0.103-0.899-0.626-0.796-1.168c0.155-0.82,0.067-1.628-0.27-2.458 c-1.525-0.444-3.019-0.444-4.543,0C7.299,7.876,7.273,8.909,7.645,9.963c0.184,0.521-0.089,1.092-0.61,1.276 C6.925,11.278,6.812,11.296,6.702,11.296z"/><path d="M16,28.53c-3.765,0-7.53-0.522-11.269-1.567c-0.246-0.068-0.457-0.229-0.588-0.447c-3.198-5.319-3.198-10.712,0-16.031 c0.131-0.219,0.342-0.379,0.588-0.448c7.478-2.09,15.06-2.091,22.539,0c0.245,0.068,0.456,0.229,0.588,0.448 c3.198,5.318,3.198,10.711,0,16.031c-0.132,0.219-0.343,0.379-0.588,0.447C23.53,28.008,19.766,28.53,16,28.53z M5.656,25.144 c6.866,1.848,13.822,1.848,20.688,0c2.559-4.467,2.559-8.82,0-13.287c-6.866-1.849-13.82-1.849-20.688,0 C3.097,16.323,3.097,20.677,5.656,25.144z M27,26h0.01H27z"/></svg>