<svg xmlns="http://www.w3.org/2000/svg" baseProfile="basic" viewBox="0 0 32 32"><path fill="none" stroke="#000" stroke-linecap="round" stroke-linejoin="round" stroke-width="2" d="M13.748,8.225	c-0.172-0.81-0.335-1.618-0.486-2.423c-0.157-0.839-0.905-1.442-1.756-1.378C9.361,4.586,7.217,4.863,5.073,5.256	C4.42,5.376,3.888,5.877,3.735,6.523C2.248,12.815,2.248,19.107,3.735,25.4c0.153,0.647,0.686,1.15,1.34,1.269	c7.284,1.334,14.567,1.334,21.851,0c0.654-0.12,1.187-0.622,1.339-1.268c1.153-4.879,1.412-9.759,0.777-14.638	c-0.1-0.765-0.729-1.364-1.496-1.444c-4.389-0.459-8.778-0.656-13.167-0.591C14.076,8.731,13.811,8.521,13.748,8.225z"/><path fill="none" stroke="#000" stroke-linecap="round" stroke-linejoin="round" stroke-width="2" d="M9,14	c2.877,1.488,4.929,3.847,4.929,3.847S12.412,19.841,9.001,22"/><path fill="none" stroke="#000" stroke-linecap="round" stroke-linejoin="round" stroke-width="2" d="M17,22	c1.883-0.071,4.742-0.135,6.624-0.404"/></svg>