<svg xmlns="http://www.w3.org/2000/svg" baseProfile="basic" viewBox="0 0 32 32"><path fill="none" stroke="#000" stroke-linecap="round" stroke-linejoin="round" stroke-miterlimit="10" stroke-width="2" d="M7.056,24.778c-1.408-6.518-1.408-14.037,0-20.555C12.29,2.708,18.376,2.601,23.731,3.9c0.746,0.181,1.32,0.796,1.46,1.552	c1.079,5.809,1.079,12.288,0,18.097c-0.14,0.755-0.713,1.37-1.46,1.552C18.376,26.399,12.29,26.292,7.056,24.778z"/><path d="M13.903,15.746c0.268-0.004,0.536-0.008,0.804-0.012c0.444-0.008,0.798-0.375,0.797-0.821c0-0.27,0.001-0.539,0.004-0.809	c0.005-0.446-0.345-0.817-0.789-0.829c-0.268-0.007-0.536-0.013-0.804-0.02c-0.443-0.012-0.814,0.356-0.819,0.821	c-0.003,0.28-0.005,0.561-0.004,0.841C13.092,15.382,13.459,15.754,13.903,15.746z"/><path d="M14.403,21.87c0.267-0.025,0.534-0.051,0.8-0.076c0.442-0.043,0.765-0.438,0.729-0.882c-0.022-0.269-0.042-0.538-0.06-0.807	c-0.03-0.444-0.409-0.787-0.853-0.763c-0.268,0.015-0.535,0.029-0.803,0.044c-0.443,0.023-0.782,0.419-0.751,0.884	c0.019,0.28,0.04,0.559,0.063,0.839C13.567,21.572,13.962,21.914,14.403,21.87z"/><path d="M13.529,7.892c-0.023,0.279-0.044,0.559-0.063,0.839c-0.031,0.464,0.308,0.86,0.751,0.884	c0.268,0.015,0.535,0.029,0.803,0.044c0.443,0.023,0.822-0.319,0.853-0.763c0.018-0.269,0.038-0.538,0.06-0.807	c0.036-0.444-0.287-0.839-0.729-0.882c-0.267-0.025-0.534-0.051-0.8-0.076C13.962,7.086,13.567,7.428,13.529,7.892z"/><path fill="none" stroke="#000" stroke-linejoin="round" stroke-miterlimit="10" stroke-width="2" d="M16.092,26	c0.092,1.982,0.853,4.679,0.853,4.679c-2.297-1.394-4.562-0.126-4.562-0.126c-1.201-3.687-3.818-14.199-1.207-26.139	c0.064-0.292,0.128-0.583,0.194-0.874"/></svg>