<?xml version="1.0" encoding="UTF-8"?>
<svg id="Layer_1" data-name="Layer 1" xmlns="http://www.w3.org/2000/svg" xmlns:xlink="http://www.w3.org/1999/xlink" viewBox="0 0 3000 2000">
  <defs>
    <style>
      .cls-1 {
        fill: #ccd86a;
      }

      .cls-1, .cls-2, .cls-3, .cls-4, .cls-5, .cls-6, .cls-7, .cls-8, .cls-9, .cls-10, .cls-11, .cls-12, .cls-13, .cls-14, .cls-15, .cls-16, .cls-17, .cls-18, .cls-19, .cls-20, .cls-21, .cls-22, .cls-23, .cls-24, .cls-25, .cls-26, .cls-27, .cls-28, .cls-29, .cls-30, .cls-31, .cls-32, .cls-33, .cls-34, .cls-35, .cls-36, .cls-37, .cls-38, .cls-39, .cls-40, .cls-41, .cls-42, .cls-43, .cls-44, .cls-45, .cls-46, .cls-47, .cls-48, .cls-49, .cls-50, .cls-51, .cls-52, .cls-53, .cls-54, .cls-55, .cls-56, .cls-57, .cls-58, .cls-59, .cls-60, .cls-61, .cls-62, .cls-63, .cls-64, .cls-65, .cls-66, .cls-67, .cls-68, .cls-69, .cls-70, .cls-71, .cls-72, .cls-73, .cls-74, .cls-75, .cls-76, .cls-77, .cls-78, .cls-79, .cls-80, .cls-81 {
        stroke-width: 0px;
      }

      .cls-2 {
        fill: #a4c4f4;
      }

      .cls-3 {
        fill: url(#linear-gradient-38);
      }

      .cls-4 {
        fill: url(#linear-gradient-12);
      }

      .cls-5 {
        fill: url(#linear-gradient-17);
      }

      .cls-6 {
        fill: url(#linear-gradient-19);
      }

      .cls-7 {
        fill: url(#linear-gradient-33);
      }

      .cls-8 {
        fill: url(#linear-gradient);
      }

      .cls-9 {
        fill: url(#linear-gradient-62);
      }

      .cls-10 {
        fill: #ffd93d;
      }

      .cls-11 {
        fill: url(#linear-gradient-57);
      }

      .cls-12 {
        fill: url(#linear-gradient-21);
      }

      .cls-13 {
        fill: #f1b441;
      }

      .cls-14 {
        fill: url(#linear-gradient-6);
      }

      .cls-15 {
        fill: #0f0f1a;
      }

      .cls-16 {
        fill: #6b82af;
      }

      .cls-17 {
        fill: url(#linear-gradient-42);
      }

      .cls-19 {
        fill: #76a1e5;
      }

      .cls-20 {
        fill: url(#linear-gradient-15);
      }

      .cls-21 {
        fill: url(#linear-gradient-11);
      }

      .cls-22 {
        fill: #ffdb69;
      }

      .cls-23 {
        fill: url(#linear-gradient-5);
      }

      .cls-24 {
        fill: #9eb5e5;
      }

      .cls-25 {
        fill: url(#linear-gradient-31);
      }

      .cls-26 {
        fill: url(#linear-gradient-58);
      }

      .cls-27 {
        fill: url(#linear-gradient-63);
      }

      .cls-28 {
        fill: url(#linear-gradient-34);
      }

      .cls-29 {
        fill: url(#linear-gradient-41);
      }

      .cls-30 {
        fill: url(#linear-gradient-40);
      }

      .cls-31 {
        fill: #e9ef9e;
      }

      .cls-32 {
        fill: url(#linear-gradient-13);
      }

      .cls-33 {
        fill: url(#linear-gradient-23);
      }

      .cls-34 {
        fill: url(#linear-gradient-25);
      }

      .cls-35 {
        fill: url(#linear-gradient-43);
      }

      .cls-36 {
        fill: url(#linear-gradient-16);
      }

      .cls-37 {
        fill: url(#linear-gradient-22);
      }

      .cls-38 {
        fill: url(#linear-gradient-54);
      }

      .cls-39 {
        fill: url(#linear-gradient-55);
      }

      .cls-40 {
        fill: #fff;
      }

      .cls-41 {
        fill: url(#linear-gradient-35);
      }

      .cls-42 {
        fill: url(#linear-gradient-50);
      }

      .cls-43 {
        fill: url(#linear-gradient-32);
      }

      .cls-44 {
        fill: url(#linear-gradient-60);
      }

      .cls-45 {
        fill: #bfd0ef;
      }

      .cls-46 {
        fill: url(#linear-gradient-59);
      }

      .cls-47 {
        fill: url(#linear-gradient-20);
      }

      .cls-48 {
        fill: url(#linear-gradient-14);
      }

      .cls-49 {
        fill: url(#linear-gradient-2);
      }

      .cls-50 {
        fill: url(#linear-gradient-52);
      }

      .cls-51 {
        fill: url(#linear-gradient-45);
      }

      .cls-52 {
        fill: #4974b7;
      }

      .cls-53 {
        fill: url(#linear-gradient-7);
      }

      .cls-54 {
        fill: url(#linear-gradient-39);
      }

      .cls-55 {
        fill: url(#linear-gradient-3);
      }

      .cls-56 {
        fill: #231f20;
      }

      .cls-57 {
        fill: url(#linear-gradient-9);
      }

      .cls-58 {
        fill: url(#linear-gradient-27);
      }

      .cls-59 {
        fill: url(#linear-gradient-53);
      }

      .cls-60 {
        fill: url(#linear-gradient-36);
      }

      .cls-61 {
        fill: url(#linear-gradient-48);
      }

      .cls-62 {
        fill: url(#linear-gradient-49);
      }

      .cls-63 {
        fill: url(#linear-gradient-8);
      }

      .cls-64 {
        fill: url(#linear-gradient-47);
      }

      .cls-65 {
        fill: url(#linear-gradient-24);
      }

      .cls-66 {
        fill: url(#linear-gradient-26);
      }

      .cls-67 {
        fill: url(#linear-gradient-61);
      }

      .cls-68 {
        fill: url(#linear-gradient-18);
      }

      .cls-69 {
        fill: url(#linear-gradient-51);
      }

      .cls-70 {
        fill: url(#linear-gradient-30);
      }

      .cls-71 {
        fill: url(#linear-gradient-44);
      }

      .cls-72 {
        fill: url(#linear-gradient-29);
      }

      .cls-73 {
        fill: url(#linear-gradient-46);
      }

      .cls-74 {
        fill: #f272ad;
      }

      .cls-75 {
        fill: url(#linear-gradient-28);
      }

      .cls-76 {
        fill: url(#linear-gradient-56);
      }

      .cls-77 {
        fill: url(#linear-gradient-10);
      }

      .cls-78 {
        fill: url(#linear-gradient-4);
      }

      .cls-79 {
        fill: #7799d9;
      }

      .cls-80 {
        fill: url(#linear-gradient-37);
      }

      .cls-81 {
        fill: #314160;
      }
    </style>
    <linearGradient id="linear-gradient" x1="632.73" y1="1199.24" x2="4542.9" y2="2823.93" gradientUnits="userSpaceOnUse">
      <stop offset="0" stop-color="#fff"/>
      <stop offset="1" stop-color="#fbc501"/>
    </linearGradient>
    <linearGradient id="linear-gradient-2" x1="1652.33" y1="-439.77" x2="2719.7" y2="2940.89" xlink:href="#linear-gradient"/>
    <linearGradient id="linear-gradient-3" x1="735.21" y1="583.48" x2="714.78" y2="1439.54" gradientUnits="userSpaceOnUse">
      <stop offset="0" stop-color="#fff"/>
      <stop offset="1" stop-color="#4b76b2"/>
    </linearGradient>
    <linearGradient id="linear-gradient-4" x1="831.93" y1="572.11" x2="811.49" y2="1428.17" xlink:href="#linear-gradient-3"/>
    <linearGradient id="linear-gradient-5" x1="751.27" y1="1491.21" x2="1154.22" y2="1491.21" gradientTransform="translate(-538.46 2443.95) rotate(-90)" gradientUnits="userSpaceOnUse">
      <stop offset="0" stop-color="#88b7ef"/>
      <stop offset="1" stop-color="#345e9b"/>
    </linearGradient>
    <linearGradient id="linear-gradient-6" x1="1165.58" y1="861.92" x2="1157.63" y2="1269.51" gradientTransform="translate(2321.18 2235.25) rotate(180)" gradientUnits="userSpaceOnUse">
      <stop offset="0" stop-color="#fff"/>
      <stop offset="1" stop-color="#6ea2d4"/>
    </linearGradient>
    <linearGradient id="linear-gradient-7" x1="842.51" y1="989.79" x2="856.14" y2="1137.39" gradientTransform="matrix(1,0,0,1,0,0)" xlink:href="#linear-gradient-6"/>
    <linearGradient id="linear-gradient-8" x1="643.79" y1="875.38" x2="736.37" y2="875.38" gradientTransform="matrix(1,0,0,1,0,0)" xlink:href="#linear-gradient-6"/>
    <linearGradient id="linear-gradient-9" x1="584.3" y1="495.77" x2="1134.38" y2="1006.68" gradientTransform="matrix(1,0,0,1,0,0)" xlink:href="#linear-gradient-6"/>
    <linearGradient id="linear-gradient-10" x1="1063.22" y1="511.67" x2="1116.86" y2="770.53" gradientTransform="matrix(1,0,0,1,0,0)" xlink:href="#linear-gradient-6"/>
    <linearGradient id="linear-gradient-11" x1="1135.93" y1="1205.91" x2="1135.93" y2="667.66" gradientUnits="userSpaceOnUse">
      <stop offset="0" stop-color="#0f0f1a"/>
      <stop offset="1" stop-color="#465881"/>
    </linearGradient>
    <linearGradient id="linear-gradient-12" x1="1039.31" y1="933.14" x2="1233.46" y2="1713.99" gradientTransform="matrix(1,0,0,1,0,0)" xlink:href="#linear-gradient-6"/>
    <linearGradient id="linear-gradient-13" x1="856.36" y1="972" x2="835.07" y2="1268.33" gradientTransform="matrix(1,0,0,1,0,0)" xlink:href="#linear-gradient-6"/>
    <linearGradient id="linear-gradient-14" x1="769.05" y1="1256.61" x2="1444.49" y2="1256.61" gradientTransform="matrix(1,0,0,1,0,0)" xlink:href="#linear-gradient-6"/>
    <linearGradient id="linear-gradient-15" x1="791.43" y1="1088.92" x2="867.21" y2="1400.57" gradientTransform="matrix(1,0,0,1,0,0)" xlink:href="#linear-gradient-6"/>
    <linearGradient id="linear-gradient-16" x1="1099.87" y1="1137.09" x2="1122.01" y2="1573.92" gradientTransform="matrix(1,0,0,1,0,0)" xlink:href="#linear-gradient-6"/>
    <linearGradient id="linear-gradient-17" x1="869.67" y1="1135.34" x2="858.6" y2="1428.26" gradientTransform="matrix(1,0,0,1,0,0)" xlink:href="#linear-gradient-6"/>
    <linearGradient id="linear-gradient-18" x1="1067.78" y1="1491.21" x2="1470.73" y2="1491.21" gradientTransform="translate(-221.95 2760.46) rotate(-90)" xlink:href="#linear-gradient-5"/>
    <linearGradient id="linear-gradient-19" x1="1269.25" y1="1780.4" x2="1269.25" y2="1209.05" gradientTransform="translate(2538.51 2982.41) rotate(180)" xlink:href="#linear-gradient-11"/>
    <linearGradient id="linear-gradient-20" x1="1132.38" y1="1160.07" x2="1129.83" y2="1402.32" gradientTransform="translate(2262.76 2510.22) rotate(180)" xlink:href="#linear-gradient-5"/>
    <linearGradient id="linear-gradient-21" x1="1086.03" y1="1159.58" x2="1083.48" y2="1401.84" gradientTransform="translate(2170.05 2510.22) rotate(180)" xlink:href="#linear-gradient-5"/>
    <linearGradient id="linear-gradient-22" x1="1039.69" y1="1159.09" x2="1037.13" y2="1401.35" gradientTransform="translate(2077.35 2510.22) rotate(180)" xlink:href="#linear-gradient-5"/>
    <linearGradient id="linear-gradient-23" x1="993.34" y1="1158.6" x2="990.78" y2="1400.86" gradientTransform="translate(1984.64 2510.22) rotate(180)" xlink:href="#linear-gradient-5"/>
    <linearGradient id="linear-gradient-24" x1="946.99" y1="1158.11" x2="944.43" y2="1400.37" gradientTransform="translate(1891.93 2510.22) rotate(180)" xlink:href="#linear-gradient-5"/>
    <linearGradient id="linear-gradient-25" x1="1342.13" y1="993.52" x2="1400.03" y2="1432.34" gradientTransform="translate(2715.31 2222.32) rotate(-180)" xlink:href="#linear-gradient-6"/>
    <linearGradient id="linear-gradient-26" x1="1303.09" y1="998.68" x2="1360.99" y2="1437.49" gradientTransform="translate(2635.86 2222.32) rotate(-180)" xlink:href="#linear-gradient-6"/>
    <linearGradient id="linear-gradient-27" x1="1264.04" y1="1003.83" x2="1321.95" y2="1442.64" gradientTransform="translate(2556.41 2222.32) rotate(180)" xlink:href="#linear-gradient-6"/>
    <linearGradient id="linear-gradient-28" x1="1225" y1="1008.98" x2="1282.9" y2="1447.8" gradientTransform="translate(2476.97 2222.32) rotate(180)" xlink:href="#linear-gradient-6"/>
    <linearGradient id="linear-gradient-29" x1="1361.17" y1="1111.87" x2="1376.92" y2="1322.2" gradientTransform="translate(2743.74 2509.53) rotate(180)" xlink:href="#linear-gradient-5"/>
    <linearGradient id="linear-gradient-30" x1="837.9" y1="995.37" x2="888.99" y2="1315.54" gradientTransform="translate(1715.86 2241.84) rotate(180)" xlink:href="#linear-gradient-6"/>
    <linearGradient id="linear-gradient-31" x1="713.42" y1="1112.43" x2="910.12" y2="1413.86" gradientTransform="translate(1614.39 2512.26) rotate(-180)" xlink:href="#linear-gradient-5"/>
    <linearGradient id="linear-gradient-32" x1="959.23" y1="1761.06" x2="1431.65" y2="1761.06" gradientTransform="matrix(1,0,0,1,0,0)" xlink:href="#linear-gradient-5"/>
    <linearGradient id="linear-gradient-33" x1="795.05" y1="1761.06" x2="959.23" y2="1761.06" gradientTransform="matrix(1,0,0,1,0,0)" xlink:href="#linear-gradient-5"/>
    <linearGradient id="linear-gradient-34" x1="1356.64" y1="1808.62" x2="1408.86" y2="1201.21" gradientTransform="matrix(1,0,0,1,0,0)" xlink:href="#linear-gradient-5"/>
    <linearGradient id="linear-gradient-35" x1="1369.6" y1="1809.74" x2="1421.83" y2="1202.32" gradientTransform="matrix(1,0,0,1,0,0)" xlink:href="#linear-gradient-5"/>
    <linearGradient id="linear-gradient-36" x1="1331.6" y1="1806.47" x2="1383.83" y2="1199.06" gradientTransform="matrix(1,0,0,1,0,0)" xlink:href="#linear-gradient-5"/>
    <linearGradient id="linear-gradient-37" x1="1267.86" y1="1800.99" x2="1320.09" y2="1193.58" gradientTransform="matrix(1,0,0,1,0,0)" xlink:href="#linear-gradient-5"/>
    <linearGradient id="linear-gradient-38" x1="1322.2" y1="1805.66" x2="1374.43" y2="1198.25" gradientTransform="matrix(1,0,0,1,0,0)" xlink:href="#linear-gradient-5"/>
    <linearGradient id="linear-gradient-39" x1="1373.92" y1="1810.11" x2="1426.15" y2="1202.7" gradientTransform="matrix(1,0,0,1,0,0)" xlink:href="#linear-gradient-5"/>
    <linearGradient id="linear-gradient-40" x1="1335.92" y1="1806.84" x2="1388.14" y2="1199.43" gradientTransform="matrix(1,0,0,1,0,0)" xlink:href="#linear-gradient-5"/>
    <linearGradient id="linear-gradient-41" x1="1285.62" y1="1802.52" x2="1337.85" y2="1195.1" gradientTransform="matrix(1,0,0,1,0,0)" xlink:href="#linear-gradient-5"/>
    <linearGradient id="linear-gradient-42" x1="1326.52" y1="1806.04" x2="1378.75" y2="1198.62" gradientTransform="matrix(1,0,0,1,0,0)" xlink:href="#linear-gradient-5"/>
    <linearGradient id="linear-gradient-43" x1="1378.24" y1="1810.48" x2="1430.47" y2="1203.07" gradientTransform="matrix(1,0,0,1,0,0)" xlink:href="#linear-gradient-5"/>
    <linearGradient id="linear-gradient-44" x1="1340.24" y1="1807.21" x2="1392.46" y2="1199.8" gradientTransform="matrix(1,0,0,1,0,0)" xlink:href="#linear-gradient-5"/>
    <linearGradient id="linear-gradient-45" x1="1276.5" y1="1801.73" x2="1328.72" y2="1194.32" gradientTransform="matrix(1,0,0,1,0,0)" xlink:href="#linear-gradient-5"/>
    <linearGradient id="linear-gradient-46" x1="1330.84" y1="1806.41" x2="1383.07" y2="1198.99" gradientTransform="matrix(1,0,0,1,0,0)" xlink:href="#linear-gradient-5"/>
    <linearGradient id="linear-gradient-47" x1="1159.79" y1="1793.59" x2="1170.01" y2="1477.96" gradientTransform="translate(2339.55 2970.31) rotate(180)" xlink:href="#linear-gradient-11"/>
    <linearGradient id="linear-gradient-48" x1="1174.68" y1="1792.98" x2="1226.9" y2="1185.56" gradientTransform="matrix(1,0,0,1,0,0)" xlink:href="#linear-gradient-5"/>
    <linearGradient id="linear-gradient-49" x1="1136.67" y1="1789.71" x2="1188.9" y2="1182.3" gradientTransform="matrix(1,0,0,1,0,0)" xlink:href="#linear-gradient-5"/>
    <linearGradient id="linear-gradient-50" x1="1092.16" y1="1005.37" x2="2069.71" y2="1717.23" gradientUnits="userSpaceOnUse">
      <stop offset="0" stop-color="#fff"/>
      <stop offset="1" stop-color="#8b78ff"/>
    </linearGradient>
    <linearGradient id="linear-gradient-51" x1="1647.51" y1="1579.41" x2="2444.53" y2="1487.45" xlink:href="#linear-gradient-50"/>
    <linearGradient id="linear-gradient-52" x1="1256.8" y1="308.98" x2="2012.95" y2="1375.08" xlink:href="#linear-gradient-50"/>
    <linearGradient id="linear-gradient-53" x1="1551.83" y1="494.19" x2="2357.36" y2="1405.31" xlink:href="#linear-gradient-50"/>
    <linearGradient id="linear-gradient-54" x1="1802.3" y1="2204.1" x2="2548.84" y2="3387.02" gradientTransform="translate(-513.01 -933.87) rotate(-14.17)" xlink:href="#linear-gradient-50"/>
    <linearGradient id="linear-gradient-55" x1="2165.97" y1="1830.15" x2="2165.97" y2="2667.46" gradientTransform="translate(-513.01 -933.87) rotate(-14.17)" gradientUnits="userSpaceOnUse">
      <stop offset="0" stop-color="#fff"/>
      <stop offset="1" stop-color="#ff3cac"/>
    </linearGradient>
    <linearGradient id="linear-gradient-56" x1="2116.46" y1="1938.34" x2="2116.46" y2="2931.4" gradientTransform="translate(-513.01 -933.87) rotate(-14.17)" xlink:href="#linear-gradient"/>
    <linearGradient id="linear-gradient-57" x1="2306.48" y1="1938.34" x2="2306.48" y2="2931.4" gradientTransform="translate(-513.01 -933.87) rotate(-14.17)" xlink:href="#linear-gradient"/>
    <linearGradient id="linear-gradient-58" x1="2014.41" y1="797.65" x2="2045.06" y2="1812.65" xlink:href="#linear-gradient-50"/>
    <linearGradient id="linear-gradient-59" x1="2072.81" y1="626.15" x2="1970.63" y2="1716.09" gradientTransform="translate(-96.51 154.93) rotate(-4.32)" xlink:href="#linear-gradient-50"/>
    <linearGradient id="linear-gradient-60" x1="1692.09" y1="1007.7" x2="2747.97" y2="1133.72" xlink:href="#linear-gradient-50"/>
    <linearGradient id="linear-gradient-61" x1="-8646.74" y1="450.66" x2="-8543.02" y2="457.94" gradientTransform="translate(10119.55 952.22) scale(1 -1)" xlink:href="#linear-gradient"/>
    <linearGradient id="linear-gradient-62" x1="-8657.13" y1="598.9" x2="-8553.33" y2="606.18" gradientTransform="translate(10115.22 1250.45) scale(1 -1)" xlink:href="#linear-gradient"/>
    <linearGradient id="linear-gradient-63" x1="-8651.27" y1="671.11" x2="-8551.07" y2="678.14" gradientTransform="translate(10203.63 1387.85) scale(1 -1)" xlink:href="#linear-gradient"/>
  </defs>
  <rect class="cls-40" width="3000" height="2000"/>
  <g>
    <polygon class="cls-8" points="683.82 1813.74 2207.67 1813.74 2207.67 1260.36 681.32 1260.36 683.82 1813.74"/>
    <g>
      <polygon class="cls-49" points="1686.7 463.84 1623.61 302.9 1879.68 363.58 2015.57 148.07 2141.49 338.17 2335.24 215.35 2324.8 460.03 2458.88 508.05 2281.22 671.59 2360.57 877.89 2169.09 877.89 2013.84 1040.07 1954.74 849.91 1712.32 941.35 1754.18 705.52 1482.08 627.76 1686.7 463.84"/>
      <g>
        <g>
          <path class="cls-55" d="m538.61,347.38v1043.97c0,80.34,65.36,145.7,145.7,145.7,80.34,0,233.84-65.36,233.84-145.7v-105.42c0-6.29-5.1-11.38-11.38-11.38-6.29,0-11.38,5.1-11.38,11.38v105.42c0,67.79-143.28,122.94-211.07,122.94-67.79,0-122.94-55.15-122.94-122.94V347.38s-22.76,0-22.76,0Z"/>
          <path class="cls-78" d="m679.35,337.06v1043.97c0,80.34,65.36,145.7,145.7,145.7,80.34,0,145.7-65.36,145.7-145.7v-105.42c0-6.29-5.1-11.38-11.38-11.38-6.29,0-11.38,5.1-11.38,11.38v105.42c0,67.79-55.15,122.94-122.94,122.94-67.79,0-122.94-55.15-122.94-122.94V337.06s-22.76,0-22.76,0Z"/>
          <g>
            <rect class="cls-79" x="862.15" y="1622.36" width="527.13" height="89.4"/>
            <rect class="cls-52" x="862.15" y="1622.36" width="97.09" height="89.4"/>
            <rect class="cls-23" x="821.59" y="1289.73" width="262.32" height="402.96" rx="38.78" ry="38.78" transform="translate(2443.95 538.46) rotate(90)"/>
            <g>
              <rect class="cls-14" x="912.87" y="1066.98" width="495.44" height="101.3" transform="translate(2321.18 2235.25) rotate(-180)"/>
              <rect class="cls-53" x="795.75" y="1066.98" width="117.12" height="101.3"/>
            </g>
            <path class="cls-63" d="m674.36,735.15l-24.93,48.82c-5.04,9.87-6.76,21.1-4.91,32.03l24.46,144.44c2.8,16.55,13.5,30.7,28.66,37.91l38.74,18.43s-20.29-303.93-62.01-281.63Z"/>
            <path class="cls-57" d="m1251.57,1066.98c19.25,0,36.66-14.3,38.86-36.68.13-1.33.04-2.69-.18-4.01l-57.56-336.2c-3.17-18.54-19.13-31.99-37.94-31.99h-492.29c-1.34,0-2.69.14-3.98.49-21.69,5.94-32.84,25.51-29.6,44.49l56.83,331.91c3.17,18.54,19.13,31.99,37.94,31.99h487.93Z"/>
            <path class="cls-77" d="m1408.31,1066.98c19.25,0,36.66-14.3,38.86-36.68.13-1.33.04-2.69-.18-4.01l-57.56-336.2c-3.17-18.54-19.13-31.99-37.94-31.99h-492.29c-1.34,0-2.69.14-3.98.49-21.69,5.94-32.84,25.51-29.6,44.49l56.83,331.91c3.17,18.54,19.13,31.99,37.94,31.99h487.93Z"/>
            <path class="cls-21" d="m844.51,699.85l56.83,331.91c1.57,9.27,9.62,16.06,19.04,16.06h487.94c11.96,0,21.08-10.77,19.04-22.61l-56.83-331.87c-1.61-9.31-9.66-16.09-19.04-16.09h-487.94c-11.99,0-21.08,10.81-19.04,22.61Z"/>
            <polygon class="cls-4" points="769.05 1204.46 1444.49 1204.46 1408.32 1168.29 795.76 1168.29 769.05 1204.46"/>
            <polygon class="cls-32" points="769.05 1204.46 895.35 1204.46 912.86 1168.29 795.76 1168.29 769.05 1204.46"/>
            <rect class="cls-48" x="769.05" y="1204.46" width="675.44" height="104.3"/>
            <rect class="cls-20" x="769.05" y="1204.46" width="126.3" height="104.3"/>
            <rect class="cls-36" x="811.43" y="1308.76" width="596.88" height="51.28"/>
            <rect class="cls-5" x="811.43" y="1308.76" width="101.44" height="51.28"/>
            <rect class="cls-68" x="1138.09" y="1289.73" width="262.32" height="402.96" rx="38.78" ry="38.78" transform="translate(2760.46 221.95) rotate(90)"/>
            <rect class="cls-6" x="1086.93" y="1379.21" width="364.64" height="224" rx="19.63" ry="19.63" transform="translate(2538.51 2982.41) rotate(-180)"/>
            <rect class="cls-47" x="1118.11" y="1241.84" width="26.54" height="26.54" rx="7.61" ry="7.61" transform="translate(2262.76 2510.22) rotate(-180)"/>
            <rect class="cls-12" x="1071.76" y="1241.84" width="26.54" height="26.54" rx="7.61" ry="7.61" transform="translate(2170.05 2510.22) rotate(-180)"/>
            <rect class="cls-37" x="1025.4" y="1241.84" width="26.54" height="26.54" rx="7.61" ry="7.61" transform="translate(2077.35 2510.22) rotate(-180)"/>
            <rect class="cls-33" x="979.05" y="1241.84" width="26.54" height="26.54" rx="7.61" ry="7.61" transform="translate(1984.64 2510.22) rotate(-180)"/>
            <rect class="cls-65" x="932.69" y="1241.84" width="26.54" height="26.54" rx="7.61" ry="7.61" transform="translate(1891.93 2510.22) rotate(-180)"/>
            <rect class="cls-34" x="1348.31" y="1101.82" width="18.69" height="18.69" rx="9.34" ry="9.34" transform="translate(2715.31 2222.32) rotate(180)"/>
            <rect class="cls-66" x="1308.59" y="1101.82" width="18.69" height="18.69" rx="9.34" ry="9.34" transform="translate(2635.86 2222.32) rotate(180)"/>
            <rect class="cls-58" x="1268.86" y="1101.82" width="18.69" height="18.69" rx="9.34" ry="9.34" transform="translate(2556.41 2222.32) rotate(-180)"/>
            <rect class="cls-75" x="1229.14" y="1101.82" width="18.69" height="18.69" rx="9.34" ry="9.34" transform="translate(2476.97 2222.32) rotate(-180)"/>
            <rect class="cls-72" x="1335.43" y="1233.73" width="72.88" height="42.06" rx="13.14" ry="13.14" transform="translate(2743.74 2509.53) rotate(-180)"/>
            <rect class="cls-70" x="832.2" y="1101.82" width="51.46" height="38.21" rx="11.59" ry="11.59" transform="translate(1715.86 2241.84) rotate(-180)"/>
            <rect class="cls-25" x="792.26" y="1223.28" width="29.86" height="65.7" rx="14.93" ry="14.93" transform="translate(1614.39 2512.26) rotate(180)"/>
            <g>
              <rect class="cls-43" x="959.23" y="1711.77" width="472.42" height="98.58"/>
              <rect class="cls-7" x="795.05" y="1711.77" width="164.19" height="98.58"/>
            </g>
            <g>
              <path class="cls-28" d="m1372.26,1424.21h36.11c4.06,0,7.35-3.29,7.35-7.35h0c0-4.06-3.29-7.35-7.35-7.35h-36.11c-4.06,0-7.35,3.29-7.35,7.35h0c0,4.06,3.29,7.35,7.35,7.35Z"/>
              <path class="cls-41" d="m1390.9,1446.27h20.62c2.32,0,4.19-1.88,4.19-4.19h0c0-2.32-1.88-4.19-4.19-4.19h-20.62c-2.32,0-4.19,1.88-4.19,4.19h0c0,2.32,1.88,4.19,4.19,4.19Z"/>
              <path class="cls-60" d="m1352.62,1446.27h20.62c2.32,0,4.19-1.88,4.19-4.19h0c0-2.32-1.88-4.19-4.19-4.19h-20.62c-2.32,0-4.19,1.88-4.19,4.19h0c0,2.32,1.88,4.19,4.19,4.19Z"/>
              <path class="cls-80" d="m1262.49,1446.27h72.47c2.32,0,4.19-1.88,4.19-4.19h0c0-2.32-1.88-4.19-4.19-4.19h-72.47c-2.32,0-4.19,1.88-4.19,4.19h0c0,2.32,1.88,4.19,4.19,4.19Z"/>
              <path class="cls-3" d="m1315.45,1467.01h72.47c2.32,0,4.19-1.88,4.19-4.19h0c0-2.32-1.88-4.19-4.19-4.19h-72.47c-2.32,0-4.19,1.88-4.19,4.19h0c0,2.32,1.88,4.19,4.19,4.19Z"/>
              <path class="cls-54" d="m1390.9,1496.87h20.62c2.32,0,4.19-1.88,4.19-4.19h0c0-2.32-1.88-4.19-4.19-4.19h-20.62c-2.32,0-4.19,1.88-4.19,4.19h0c0,2.32,1.88,4.19,4.19,4.19Z"/>
              <path class="cls-30" d="m1352.62,1496.87h20.62c2.32,0,4.19-1.88,4.19-4.19h0c0-2.32-1.88-4.19-4.19-4.19h-20.62c-2.32,0-4.19,1.88-4.19,4.19h0c0,2.32,1.88,4.19,4.19,4.19Z"/>
              <rect class="cls-29" x="1285.38" y="1488.48" width="53.77" height="8.39" rx="3.42" ry="3.42"/>
              <path class="cls-17" d="m1315.45,1517.6h72.47c2.32,0,4.19-1.88,4.19-4.19h0c0-2.32-1.88-4.19-4.19-4.19h-72.47c-2.32,0-4.19,1.88-4.19,4.19h0c0,2.32,1.88,4.19,4.19,4.19Z"/>
              <rect class="cls-35" x="1386.71" y="1539.08" width="29.01" height="8.39" rx="4.19" ry="4.19"/>
              <rect class="cls-71" x="1348.42" y="1539.08" width="29.01" height="8.39" rx="4.19" ry="4.19"/>
              <path class="cls-51" d="m1262.49,1547.46h72.47c2.32,0,4.19-1.88,4.19-4.19h0c0-2.32-1.88-4.19-4.19-4.19h-72.47c-2.32,0-4.19,1.88-4.19,4.19h0c0,2.32,1.88,4.19,4.19,4.19Z"/>
              <rect class="cls-73" x="1311.25" y="1559.81" width="80.86" height="8.39" rx="4.19" ry="4.19"/>
            </g>
            <rect class="cls-64" x="1109.87" y="1399.78" width="119.81" height="170.75" rx="11.86" ry="11.86" transform="translate(2339.55 2970.31) rotate(-180)"/>
            <path class="cls-61" d="m1196.7,1421.06h20.62c2.32,0,4.19-1.88,4.19-4.19h0c0-2.32-1.88-4.19-4.19-4.19h-20.62c-2.32,0-4.19,1.88-4.19,4.19h0c0,2.32,1.88,4.19,4.19,4.19Z"/>
            <path class="cls-62" d="m1158.42,1421.06h20.62c2.32,0,4.19-1.88,4.19-4.19h0c0-2.32-1.88-4.19-4.19-4.19h-20.62c-2.32,0-4.19,1.88-4.19,4.19h0c0,2.32,1.88,4.19,4.19,4.19Z"/>
            <g>
              <path class="cls-19" d="m1029.49,712.75l22.72,125.91c1.06,5.9-2.28,10.7-7.49,10.7h-110.89c-.97,0-1.94-.16-2.89-.49-.51-.16-1.01-.37-1.5-.63-3.43-1.75-6.21-5.38-6.97-9.58l-22.72-125.91c-1.07-5.92,2.28-10.72,7.49-10.72h110.89c3.41,0,6.77,2.06,8.95,5.14.41.54.76,1.12,1.07,1.72.63,1.2,1.09,2.5,1.34,3.86Z"/>
              <path class="cls-2" d="m1029.49,712.75l6.69,37.1c-1.46.23-2.98.34-4.54.34-20.35,0-40.22-18.71-44.39-41.82-.39-2.16-.63-4.26-.72-6.34h31.59c5.21,0,10.29,4.8,11.36,10.72Z"/>
              <path class="cls-2" d="m992.49,836.57c.79,4.38,1.19,8.66,1.21,12.79h-59.88c-5.21,0-10.29-4.8-11.36-10.7l-12.05-66.79c3.74-.94,7.72-1.44,11.89-1.44,32.18,0,63.6,29.61,70.19,66.14Z"/>
              <g>
                <path class="cls-2" d="m1075.28,721.14h-27.81c-2.02,0-4-1.86-4.41-4.16l-.8-4.45c-.41-2.3.89-4.16,2.91-4.16h27.81c2.02,0,4,1.86,4.41,4.16l.8,4.45c.41,2.3-.89,4.16-2.91,4.16Z"/>
                <path class="cls-2" d="m1062.6,742.29h-12.39c-1.43,0-2.83-1.32-3.12-2.94l-1.24-6.89c-.29-1.62.63-2.94,2.06-2.94h12.39c1.43,0,2.83,1.32,3.12,2.94l1.24,6.89c.29,1.62-.63,2.94-2.06,2.94Z"/>
                <path class="cls-2" d="m1070.92,760.7h-17.01c-1.63,0-3.23-1.5-3.57-3.36l-1.09-6.05c-.33-1.86.72-3.36,2.35-3.36h17.01c1.63,0,3.23,1.5,3.57,3.36l1.09,6.05c.33,1.86-.72,3.36-2.35,3.36Z"/>
                <path class="cls-2" d="m1094.04,779.1h-35.67c-2.26,0-4.47-2.08-4.93-4.65l-.63-3.48c-.46-2.57.99-4.65,3.25-4.65h35.67c2.26,0,4.47,2.08,4.93,4.65l.63,3.48c.46,2.57-.99,4.65-3.25,4.65Z"/>
                <path class="cls-2" d="m1078.79,797.51h-18.16c-1.68,0-3.32-1.55-3.67-3.45l-1.06-5.86c-.34-1.91.74-3.45,2.42-3.45h18.16c1.68,0,3.32,1.55,3.67,3.45l1.06,5.86c.34,1.91-.74,3.45-2.42,3.45Z"/>
                <path class="cls-2" d="m1117.01,760.7h-33.35c-2.19,0-4.34-2.02-4.78-4.51l-.68-3.75c-.45-2.49.96-4.51,3.16-4.51h33.35c2.19,0,4.34,2.02,4.78,4.51l.68,3.75c.45,2.49-.96,4.51-3.16,4.51Z"/>
              </g>
            </g>
            <g>
              <path class="cls-16" d="m1059.17,877.27l22.72,125.91c1.06,5.9-2.28,10.7-7.49,10.7h-110.89c-.97,0-1.94-.16-2.89-.49-.51-.16-1.01-.37-1.5-.63-3.43-1.75-6.21-5.38-6.97-9.58l-22.72-125.91c-1.07-5.92,2.28-10.72,7.49-10.72h110.89c3.41,0,6.77,2.06,8.95,5.14.41.54.76,1.12,1.07,1.72.63,1.2,1.09,2.5,1.34,3.86Z"/>
              <path class="cls-81" d="m1059.17,877.27l6.69,37.1c-1.46.23-2.98.34-4.54.34-20.35,0-40.22-18.71-44.39-41.82-.39-2.16-.63-4.26-.72-6.34h31.59c5.21,0,10.29,4.8,11.36,10.72Z"/>
              <path class="cls-81" d="m1022.17,1001.09c.79,4.38,1.19,8.66,1.21,12.79h-59.88c-5.21,0-10.29-4.8-11.36-10.7l-12.05-66.79c3.74-.94,7.72-1.44,11.89-1.44,32.18,0,63.6,29.61,70.19,66.14Z"/>
              <g>
                <path class="cls-2" d="m1104.97,885.66h-27.81c-2.02,0-4-1.86-4.41-4.16l-.8-4.45c-.41-2.3.89-4.16,2.91-4.16h27.81c2.02,0,4,1.86,4.41,4.16l.8,4.45c.41,2.3-.89,4.16-2.91,4.16Z"/>
                <path class="cls-2" d="m1092.29,906.8h-12.39c-1.43,0-2.83-1.32-3.12-2.94l-1.24-6.89c-.29-1.62.63-2.94,2.06-2.94h12.39c1.43,0,2.83,1.32,3.12,2.94l1.24,6.89c.29,1.62-.63,2.94-2.06,2.94Z"/>
                <path class="cls-2" d="m1100.6,925.21h-17.01c-1.63,0-3.23-1.5-3.57-3.36l-1.09-6.05c-.33-1.86.72-3.36,2.35-3.36h17.01c1.63,0,3.23,1.5,3.57,3.36l1.09,6.05c.33,1.86-.72,3.36-2.35,3.36Z"/>
                <path class="cls-2" d="m1123.72,943.62h-35.67c-2.26,0-4.47-2.08-4.93-4.65l-.63-3.48c-.46-2.57.99-4.65,3.25-4.65h35.67c2.26,0,4.47,2.08,4.93,4.65l.63,3.48c.46,2.57-.99,4.65-3.25,4.65Z"/>
                <path class="cls-2" d="m1108.47,962.03h-18.16c-1.68,0-3.32-1.55-3.67-3.45l-1.06-5.86c-.34-1.91.74-3.45,2.42-3.45h18.16c1.68,0,3.32,1.55,3.67,3.45l1.06,5.86c.34,1.91-.74,3.45-2.42,3.45Z"/>
                <path class="cls-2" d="m1146.7,925.21h-33.35c-2.19,0-4.34-2.02-4.78-4.51l-.68-3.75c-.45-2.49.96-4.51,3.16-4.51h33.35c2.19,0,4.34,2.02,4.78,4.51l.68,3.75c.45,2.49-.96,4.51-3.16,4.51Z"/>
              </g>
            </g>
            <g>
              <path class="cls-1" d="m1258.08,712.75l22.72,125.91c1.06,5.9-2.28,10.7-7.49,10.7h-110.89c-.97,0-1.94-.16-2.89-.49-.51-.16-1.01-.37-1.5-.63-3.43-1.75-6.21-5.38-6.97-9.58l-22.72-125.91c-1.07-5.92,2.28-10.72,7.49-10.72h110.89c3.41,0,6.77,2.06,8.95,5.14.41.54.76,1.12,1.07,1.72.63,1.2,1.09,2.5,1.34,3.86Z"/>
              <path class="cls-31" d="m1258.08,712.75l6.69,37.1c-1.46.23-2.98.34-4.54.34-20.35,0-40.22-18.71-44.39-41.82-.39-2.16-.63-4.26-.72-6.34h31.59c5.21,0,10.29,4.8,11.36,10.72Z"/>
              <path class="cls-31" d="m1221.08,836.57c.79,4.38,1.19,8.66,1.21,12.79h-59.88c-5.21,0-10.29-4.8-11.36-10.7l-12.05-66.79c3.74-.94,7.72-1.44,11.89-1.44,32.18,0,63.6,29.61,70.19,66.14Z"/>
              <g>
                <path class="cls-2" d="m1303.88,721.14h-27.81c-2.02,0-4-1.86-4.41-4.16l-.8-4.45c-.41-2.3.89-4.16,2.91-4.16h27.81c2.02,0,4,1.86,4.41,4.16l.8,4.45c.41,2.3-.89,4.16-2.91,4.16Z"/>
                <path class="cls-2" d="m1291.2,742.29h-12.39c-1.43,0-2.83-1.32-3.12-2.94l-1.24-6.89c-.29-1.62.63-2.94,2.06-2.94h12.39c1.43,0,2.83,1.32,3.12,2.94l1.24,6.89c.29,1.62-.63,2.94-2.06,2.94Z"/>
                <path class="cls-2" d="m1299.51,760.7h-17.01c-1.63,0-3.23-1.5-3.57-3.36l-1.09-6.05c-.33-1.86.72-3.36,2.35-3.36h17.01c1.63,0,3.23,1.5,3.57,3.36l1.09,6.05c.33,1.86-.72,3.36-2.35,3.36Z"/>
                <path class="cls-2" d="m1322.63,779.1h-35.67c-2.26,0-4.47-2.08-4.93-4.65l-.63-3.48c-.46-2.57.99-4.65,3.25-4.65h35.67c2.26,0,4.47,2.08,4.93,4.65l.63,3.48c.46,2.57-.99,4.65-3.25,4.65Z"/>
                <path class="cls-2" d="m1307.38,797.51h-18.16c-1.68,0-3.32-1.55-3.67-3.45l-1.06-5.86c-.34-1.91.74-3.45,2.42-3.45h18.16c1.68,0,3.32,1.55,3.67,3.45l1.06,5.86c.34,1.91-.74,3.45-2.42,3.45Z"/>
                <path class="cls-2" d="m1345.61,760.7h-33.35c-2.19,0-4.34-2.02-4.78-4.51l-.68-3.75c-.45-2.49.96-4.51,3.16-4.51h33.35c2.19,0,4.34,2.02,4.78,4.51l.68,3.75c.45,2.49-.96,4.51-3.16,4.51Z"/>
              </g>
            </g>
            <g>
              <path class="cls-24" d="m1287.76,877.27l22.72,125.91c1.06,5.9-2.28,10.7-7.49,10.7h-110.89c-.97,0-1.94-.16-2.89-.49-.51-.16-1.01-.37-1.5-.63-3.43-1.75-6.21-5.38-6.97-9.58l-22.72-125.91c-1.07-5.92,2.28-10.72,7.49-10.72h110.89c3.41,0,6.77,2.06,8.95,5.14.41.54.76,1.12,1.07,1.72.63,1.2,1.09,2.5,1.34,3.86Z"/>
              <path class="cls-45" d="m1287.76,877.27l6.69,37.1c-1.46.23-2.98.34-4.54.34-20.35,0-40.22-18.71-44.39-41.82-.39-2.16-.63-4.26-.72-6.34h31.59c5.21,0,10.29,4.8,11.36,10.72Z"/>
              <path class="cls-45" d="m1250.77,1001.09c.79,4.38,1.19,8.66,1.21,12.79h-59.88c-5.21,0-10.29-4.8-11.36-10.7l-12.05-66.79c3.74-.94,7.72-1.44,11.89-1.44,32.18,0,63.6,29.61,70.19,66.14Z"/>
              <g>
                <path class="cls-2" d="m1333.56,885.66h-27.81c-2.02,0-4-1.86-4.41-4.16l-.8-4.45c-.41-2.3.89-4.16,2.91-4.16h27.81c2.02,0,4,1.86,4.41,4.16l.8,4.45c.41,2.3-.89,4.16-2.91,4.16Z"/>
                <path class="cls-2" d="m1320.88,906.8h-12.39c-1.43,0-2.83-1.32-3.12-2.94l-1.24-6.89c-.29-1.62.63-2.94,2.06-2.94h12.39c1.43,0,2.83,1.32,3.12,2.94l1.24,6.89c.29,1.62-.63,2.94-2.06,2.94Z"/>
                <path class="cls-2" d="m1329.19,925.21h-17.01c-1.63,0-3.23-1.5-3.57-3.36l-1.09-6.05c-.33-1.86.72-3.36,2.35-3.36h17.01c1.63,0,3.23,1.5,3.57,3.36l1.09,6.05c.33,1.86-.72,3.36-2.35,3.36Z"/>
                <path class="cls-2" d="m1352.31,943.62h-35.67c-2.26,0-4.47-2.08-4.93-4.65l-.63-3.48c-.46-2.57.99-4.65,3.25-4.65h35.67c2.26,0,4.47,2.08,4.93,4.65l.63,3.48c.46,2.57-.99,4.65-3.25,4.65Z"/>
                <path class="cls-2" d="m1337.07,962.03h-18.16c-1.68,0-3.32-1.55-3.67-3.45l-1.06-5.86c-.34-1.91.74-3.45,2.42-3.45h18.16c1.68,0,3.32,1.55,3.67,3.45l1.06,5.86c.34,1.91-.74,3.45-2.42,3.45Z"/>
                <path class="cls-2" d="m1375.29,925.21h-33.35c-2.19,0-4.34-2.02-4.78-4.51l-.68-3.75c-.45-2.49.96-4.51,3.16-4.51h33.35c2.19,0,4.34,2.02,4.78,4.51l.68,3.75c.45,2.49-.96,4.51-3.16,4.51Z"/>
              </g>
            </g>
          </g>
        </g>
        <g>
          <path class="cls-42" d="m2093.74,1261.49l-9.22,19.12-238.55,566.78h0l-252.05-3.39s6.34-57.53,36.59-150.61c30.26-93.08,130.25-412.18,130.25-412.18,88.13-65.55,203.15-53.9,272.37-37.94,17.03,3.97,31.28,8.15,41.69,11.52,12.04,3.93,18.91,6.7,18.91,6.7Z"/>
          <path class="cls-69" d="m2292.65,1452.6c-12.58,157.06-31.98,399.33-31.98,399.33l-277.63-11.35-58.88-636.36,263.24,22.53,101.97,8.75s15.85,60.09,3.27,217.1Z"/>
          <path class="cls-13" d="m1268.5,952.38s7.31,62.1,15.23,70.06c7.92,7.97,79.99,47.62,87.45,49.39,7.45,1.78,35.23-17.88,33.73-46.17-1.5-28.29-34.3-131.99-136.41-73.29Z"/>
          <path class="cls-50" d="m1872.82,914.76c-17.39,20.56-38.91,40.7-64.75,58.95-38.12,26.96-77.8,48.26-116,65.07-89.63,39.47-170.94,54.15-204.64,58.9-9.28,1.31-18.91-4.89-22.24-14.27l-33.3-93.74c-3.5-9.87,1.21-19.8,10.67-22.15,208.12-51.69,388.2-195.31,388.2-195.31,111.58-73.96,129.63,39.12,42.06,142.55Z"/>
          <path class="cls-10" d="m1431.89,989.68s-60.67-43.54-84.61-57.53c-23.94-13.99-68.68-8-118.65-5.57-49.97,2.43-26.77,25.04-4.26,26.59,22.51,1.55,87.37.45,96.71,7.35,9.34,6.9,17.54,30.09,17.54,30.09,0,0-24.28,24.7-37.91,23.14-13.63-1.56-33.72-9.83-37.89,5.03-4.18,14.86,32.31,26.87,48.74,25.58,16.43-1.29,48.88,7.15,77.38,21.59,28.51,14.44,76.24,17.45,76.24,17.45l-33.3-93.74Z"/>
          <g>
            <path class="cls-59" d="m2296.43,1364.29c-37.58,56.72-559.42,12.76-551.05-79.08.73-7.98,1.56-17.46,2.43-28.15,3.25-39.72,7.44-96.18,12.37-156.01,5.25-64.36,11.24-132.64,17.72-188.29,4.46-38.82,9.13-71.52,13.84-92.39,19.58-86.13,156.89-77.39,156.89-77.39,0,0,382.21,28.61,403.54,72.58,7.95,16.4,8.74,75.1,4.86,148.55-3.09,57.87-9.06,124.99-16.69,187.75-.11.81-.22,1.63-.33,2.44-5.19,42.87-11.18,83.66-17.56,117.88-2.27,12.35-4.61,23.87-6.98,34.33-6.23,27.71-12.68,48.19-19.03,57.77Z"/>
            <path class="cls-38" d="m2340,1154.3c-197.59-10.11-464.51-27.71-579.83-53.25,5.25-64.36,11.24-132.64,17.72-188.29,5.52.88,354.47,56.69,579.12,51.34-3.09,57.87-9.06,124.99-16.69,187.75-.11.81-.22,1.63-.33,2.44Z"/>
            <path class="cls-39" d="m2144.76,779.57c-16.51-.22-34.65-1.9-54.55-5.2-20.67-3.34-43.16-8.45-67.68-15.5-51.42-14.71-87.48-61.13-88.16-114.62-.57-42.37,11.94-94.64,58.1-146.55,105.85-119.24,293.66-30.52,302.48,105.62,6.33,98.15-26.78,177.8-150.2,176.26Z"/>
            <path class="cls-15" d="m2063.73,613.49s-24.86,1.11-21.01-33c3.85-34.11,28.4-24.36,28.4-24.36,0,0,13.85-27.21,65.03-4.79,51.18,22.42,43.77,47.4,43.77,47.4,0,0,25.46.57,16.59,33.48-8.87,32.92-49.53,58.84-49.53,58.84l-83.26-77.57Z"/>
            <path class="cls-74" d="m2144.76,779.57c-16.51-.22-34.65-1.9-54.55-5.2l3.42-42.47,1.55-19.55,34.3-23.97,28.11-19.67-12.83,110.85Z"/>
            <path class="cls-18" d="m2142.49,696.3s-16.44,28.41-48.86,35.6l1.55-19.55,34.3-23.97,13.01,7.91Z"/>
            <path class="cls-74" d="m2064.41,606.14s-1.92,28.58-8.33,41.76c-6.41,13.18,9.35,13.69,9.35,13.69,0,0-9.54,39.31-3.04,43.44,6.51,4.13,77.71,27,95.22-36.32,0,0,7.71,7.22,15.03-13.88,7.32-21.1-17.06-31.14-24.01-7.96l-6.81-4.9,3.52-16.79s-20.68-.97-22.12-13.75c-1.44-12.78.35-24.15-28.7-27.92-29.05-3.77-30.11,22.63-30.11,22.63Z"/>
            <path class="cls-18" d="m2073.28,621.14c-.05-.02-.1-.04-.15-.07-1.35-.7-1.93-2.3-1.28-3.68.16-.34,1.7-3.36,5.88-4.67,4.8-1.5,10.95-.13,18.28,4.09,1.35.78,1.81,2.5,1.04,3.84-.78,1.35-2.5,1.81-3.85,1.04-7.21-4.15-11.38-4.27-13.61-3.65-1.96.55-2.66,1.77-2.68,1.83-.71,1.28-2.29,1.84-3.62,1.26Z"/>
            <ellipse class="cls-18" cx="2080.63" cy="629.08" rx="5.52" ry="2.5" transform="translate(1027.33 2530.49) rotate(-77.84)"/>
            <path class="cls-18" d="m2073.97,664.07c8.36-3.31,13.26-7.64,21.13-11.28-1.41,8.96-12.87,16.42-21.13,11.28h0Z"/>
            <path class="cls-18" d="m2158.58,659.06c-1.22-.53-1.92-1.88-1.61-3.22.36-1.51,1.87-2.45,3.39-2.1.15-.02.75-.47,1.31-1.88.67-1.71.8-3.52.68-4.6-.72.82-1.31,2.62-1.47,3.96-.18,1.54-1.58,2.65-3.12,2.47-1.54-.18-2.65-1.56-2.48-3.11.38-3.4,2.41-9.21,7.6-9.39,1.82-.06,3.38.9,4.27,2.66,1.68,3.3.79,9.59-1.84,12.93-1.65,2.1-3.92,2.99-6.24,2.44-.17-.04-.33-.1-.49-.16Z"/>
            <path class="cls-10" d="m1962.26,719.64s255.11,29.83,267.99,42.49c12.88,12.65,13.86,41.02-33.68,34.73-47.54-6.29-176.43-25.87-217.93-30.63-41.5-4.77-34.13-48.71-16.38-46.58Z"/>
            <path class="cls-76" d="m2041.88,472.78s-40.1,15.87-62.72,63.62c-22.62,47.75,5.04,68.07,14.35,46.8,9.32-21.27,35.69-85.37,90.44-91.99,54.75-6.62.33-41.51-42.08-18.43Z"/>
            <path class="cls-11" d="m2243.47,532.58s21.44,33.93,25.67,77.53c2.69,27.76-19.2,36.36-25.97-1.05-6.78-37.41-11.19-51.74-20.89-73.21-9.7-21.47,7.31-27.81,21.2-3.27Z"/>
            <path class="cls-26" d="m2296.43,1364.29c-37.58,56.72-561.17,12.75-552.8-79.09.73-7.98,3.31-17.45,4.18-28.14,0,0,49.83,59.66,274.25,73.33,132.64,8.07,249.44-1.86,293.4-23.87-6.23,27.71-12.68,48.19-19.03,57.77Z"/>
            <rect class="cls-46" x="1935.22" y="1317.01" width="138.3" height="78.28" rx="18.92" ry="18.92" transform="translate(107.92 -147.21) rotate(4.32)"/>
            <rect class="cls-40" x="2024.24" y="761.47" width="105.35" height="54.17" rx="27.09" ry="27.09" transform="translate(130.09 -281.61) rotate(8.01)"/>
          </g>
          <path class="cls-10" d="m2236.06,1309.13s-10.24,30.71-39.2,54.06c-28.95,23.35-51.31,32.5-40.05,46.43,11.26,13.94,67.79-26.95,67.79-26.95,0,0-11.79,42.35-45.59,72.79-33.79,30.44-12.54,44.96,3.19,33.36,0,0-4.8,13.87,4.56,17.67,9.36,3.8,23.85-4.49,23.85-4.49,0,0,7.31,15.91,25.87,6.25,0,0,13.99,12.38,35.99-5.44,22-17.82,82.88-85.12,85.26-126.49l-121.68-67.2Z"/>
          <path class="cls-56" d="m2182.79,1491.87c-1.03.19-2.14-.14-2.88-.97-1.15-1.27-1.05-3.24.22-4.38.45-.41,45.14-41,68.39-88.2.77-1.55,2.63-2.17,4.16-1.41,1.54.76,2.17,2.62,1.42,4.15-23.79,48.3-69.35,89.66-69.8,90.07-.44.4-.96.64-1.5.74Z"/>
          <path class="cls-56" d="m2211.19,1505.05c-1.01.19-2.1-.13-2.85-.94-1.16-1.26-1.09-3.22.17-4.39.55-.51,54.73-50.89,65.21-82.65.53-1.63,2.29-2.51,3.92-1.97,1.62.54,2.51,2.29,1.97,3.92-10.99,33.27-64.61,83.15-66.9,85.26-.44.41-.97.67-1.53.77Z"/>
          <path class="cls-56" d="m2237.06,1511.3c-1.08.2-2.25-.18-2.99-1.1-1.08-1.33-.87-3.29.47-4.36.4-.32,40.29-32.76,64.06-74.86.85-1.5,2.74-2.02,4.23-1.18,1.49.84,2.02,2.74,1.18,4.23-24.38,43.16-65.17,76.31-65.58,76.64-.41.33-.89.54-1.37.63Z"/>
          <path class="cls-44" d="m2329.2,798.44c-48.85-24.95-103.14,23.4-83.8,74.72.29.77.59,1.55.9,2.34,30.67,77.19,88.96,169.63-10.24,433.64,0,0,41.44,57.43,121.28,67.17,13.11,1.6,25.71-5.74,30.93-17.87,37.3-86.72,172.39-441.79-59.07-559.99Z"/>
        </g>
      </g>
      <g>
        <rect class="cls-67" x="1768.19" y="454.6" width="134.5" height="43.02" rx="21.51" ry="21.51" transform="translate(3670.88 952.22) rotate(-180)"/>
        <rect class="cls-40" x="1823.91" y="529.16" width="78.78" height="43.02" rx="21.51" ry="21.51" transform="translate(3726.59 1101.33) rotate(-180)"/>
        <rect class="cls-9" x="1763.86" y="603.72" width="138.83" height="43.02" rx="21.51" ry="21.51" transform="translate(3666.55 1250.45) rotate(180)"/>
        <rect class="cls-27" x="1852.28" y="672.41" width="50.41" height="43.02" rx="21.51" ry="21.51" transform="translate(3754.97 1387.85) rotate(-180)"/>
      </g>
    </g>
    <path class="cls-22" d="m1221.19,416.33c4.63,8.52,11.66,15.54,20.17,20.17,4.83,2.62,4.82,9.5,0,12.13-8.52,4.63-15.54,11.65-20.17,20.16-2.62,4.82-9.5,4.82-12.12,0-4.63-8.51-11.66-15.53-20.17-20.16-4.83-2.62-4.83-9.5,0-12.13,8.52-4.63,15.54-11.66,20.17-20.17,2.62-4.82,9.5-4.82,12.12,0Z"/>
  </g>
</svg>