<svg id="Layer_2" data-name="Layer 2" xmlns="http://www.w3.org/2000/svg" viewBox="0 0 2500 2500"><defs><style>.cls-1{fill:#181a53;}.cls-2{fill:#e6edfd;}.cls-3{fill:#ed6c82;}.cls-4{fill:#7676ff;}.cls-5{fill:#f8d354;}.cls-6{fill:#fff;}.cls-7{fill:#ffe0d2;}.cls-8{fill:#a0a4ac;}.cls-9{fill:#3a28b9;}.cls-10{fill:#e8ebef;}.cls-11{fill:#fafbfd;}</style></defs><path class="cls-1" d="M507.09,147.88v595a43.36,43.36,0,0,0,43.36,43.36H1562a43.36,43.36,0,0,0,43.36-43.36v-595Z"/><path class="cls-2" d="M1562,60.63H550.45A43.35,43.35,0,0,0,507.09,104v43.9h1098.3V104A43.35,43.35,0,0,0,1562,60.63Z"/><circle class="cls-3" cx="581.92" cy="104.26" r="23.59"/><rect class="cls-4" x="581.92" y="236.63" width="259.33" height="33.79" rx="16.05"/><rect class="cls-4" x="860.71" y="236.63" width="99.76" height="33.79" rx="16.05"/><rect class="cls-4" x="581.92" y="303.56" width="843.62" height="33.79" rx="16.05"/><rect class="cls-4" x="581.92" y="370.49" width="843.62" height="33.79" rx="16.05"/><rect class="cls-4" x="581.92" y="437.42" width="80.87" height="33.79" rx="16.05"/><rect class="cls-4" x="686.23" y="437.42" width="80.87" height="33.79" rx="16.05"/><path class="cls-1" d="M1831,1401.29H1478a37.85,37.85,0,0,0-37.85,37.84h0a37.71,37.71,0,0,0,9.82,25.43H1183.92v985.36h460.5V1477H1831a37.85,37.85,0,0,0,37.85-37.85h0A37.85,37.85,0,0,0,1831,1401.29Z"/><path d="M1644.42,2451.42h-460.5a1.5,1.5,0,0,1-1.5-1.5V1464.56a1.5,1.5,0,0,1,1.5-1.5h262.89a39.35,39.35,0,0,1,31.23-63.27H1831a39.35,39.35,0,1,1,0,78.69h-185v971.44A1.5,1.5,0,0,1,1644.42,2451.42Zm-459-3h457.5V1477a1.5,1.5,0,0,1,1.5-1.5H1831a36.35,36.35,0,1,0,0-72.69H1478a36.35,36.35,0,0,0-26.92,60.76,1.5,1.5,0,0,1-1.11,2.51H1185.42Z"/><path class="cls-5" d="M1526.37,2201.86c.31,17.63-74.32,242.5-85.86,246s-207.54,0-207.54,0-3.07-26.21,19.89-54.53,68.11-72.7,68.11-75.77c0-.1,0-.36,0-.77l-5.18-155.41c0-.13,0-.28,0-.41l0-1.38c0-.19,0-.36,0-.52l0-.68c0-1-.06-1.53-.06-1.53,63.88,12.7,125.2-5.62,157.42-18.38l.06,0a239.59,239.59,0,0,0,23.35-10.52h0C1496.93,2128.89,1526.05,2184.39,1526.37,2201.86Z"/><path class="cls-2" d="M1440.43,2156.68a0,0,0,0,1,0,0c-1,4.87-4,9.88-11.56,15.53l-.7.52a103.87,103.87,0,0,1-13.24,7.88,44.08,44.08,0,0,1-5.66,2.37l-.61.22c-27.65,9.33-88.05,9.47-91.66,9.47h-.17c-.7-20.82-1.21-35.82-1.21-35.82s6.4,3.51,27.31,4.29c38.74,1.44,71.32-3.57,97.81-11.15A25.68,25.68,0,0,1,1440.43,2156.68Z"/><path class="cls-6" d="M1805.89,1153.56s34.69,44.62,44.58,85.06,16.27,57.59,11.07,95.34-22.32,75.51-62.52,94.61-70.41,15-125.94,13.48l-220.31-6,75.2,668s-50,49.87-146.59,56.34-84-20.81-84-20.81l26.85-909.73s350.17,3.34,408.84-31.62,66.14-44.69,66.14-44.69Z"/><path d="M1731.21,1444.41c-71.8,0-274.14-7.91-276.26-8a1.5,1.5,0,0,1,.12-3c2.2.08,220.22,8.6,283.8,8,33.1-.35,63.24-11.71,84.88-32,24.33-22.84,37.35-56.21,37.66-96.5.65-86-56.12-157.66-56.69-158.37a1.5,1.5,0,1,1,2.34-1.88c.14.18,14.68,18.4,28.93,47.1,13.15,26.5,28.76,67.65,28.42,113.17-.31,41.14-13.66,75.25-38.61,98.66-22.18,20.82-53,32.48-86.9,32.83C1736.54,1444.4,1734,1444.41,1731.21,1444.41Z"/><path d="M1380.64,2450.94c-59.67,0-142.45-1.46-147.7-1.56a1.49,1.49,0,0,1-1.46-1.32c-.13-1.1-2.87-27.17,20.21-55.66,12.26-15.11,30.66-34.62,45.45-50.3,10.93-11.59,21.27-22.55,22.32-24.71v-.54c-.15-5.69-1.33-41-2.34-71.13l-.73-21.82c-.37-11-.73-21.68-1.06-31.15-.46-14-.85-25.35-1-31.3a3.12,3.12,0,0,0,0-.33l0-.74q0-.36,0-.69l0-1.2c0-1-.06-1.54-.06-1.54a1.51,1.51,0,0,1,.71-1.34,1.49,1.49,0,0,1,1.51,0c.06,0,6.55,3.36,26.64,4.1,34.41,1.28,67.17-2.45,97.35-11.09a259.61,259.61,0,0,0,32.11-11.46l.06,0c32.7-14.19,50.74-30.52,53.9-33.54l-79.5-706.28a1.5,1.5,0,1,1,3-.34l79.59,707a1.52,1.52,0,0,1-.42,1.22c-.14.14-10.55,10.57-31.07,22.45,3.81,7.29,29.59,57.28,29.9,74.21.17,9.66-19.74,73.57-38.57,128.8-10.7,31.41-21,59.94-29.06,80.34-14.54,36.89-17.87,37.9-19.29,38.34C1437,2450.54,1412,2450.94,1380.64,2450.94Zm-146.27-4.53c68.1,1.21,196.83,2.75,205.71,0,3.88-1.74,19.82-38.76,46.64-117.53,21.53-63.23,38.29-119,38.15-127-.3-16.24-26.59-67.16-29.51-72.77a237.18,237.18,0,0,1-21.68,10.73l-.09,0a264.3,264.3,0,0,1-32.45,11.58c-30.48,8.72-63.54,12.49-98.28,11.2-14.55-.54-22.23-2.41-25.67-3.55v.16c0,.11,0,.22,0,.33s0,.41,0,.67l0,.65c0,.11,0,.3,0,.47.2,5.9.58,17.26,1,31.25.33,9.47.68,20.14,1.06,31.15l.73,21.82c1,30.13,2.19,65.45,2.33,71.15l0,.47c0,.17,0,.28,0,.34,0,1.75-3.25,5.47-23.15,26.58-14.75,15.64-33.11,35.1-45.3,50.13C1234.63,2418.22,1234.16,2440.83,1234.37,2446.41Z"/><path d="M1318.61,2247.17a1.51,1.51,0,0,1-.65-2.86c.47-.22,47.27-22.21,87.07-7.86a1.5,1.5,0,1,1-1,2.82c-38.6-13.92-84.29,7.53-84.75,7.75A1.51,1.51,0,0,1,1318.61,2247.17Z"/><path d="M1384.68,2279.68a1.5,1.5,0,0,1-.64-.15c-28.41-13.57-63.73-4.21-64.09-4.12a1.5,1.5,0,1,1-.78-2.89c1.48-.41,36.74-9.75,66.16,4.3a1.5,1.5,0,0,1-.65,2.86Z"/><path d="M1328.68,2194.37c-7.24,0-11.82-.17-11.91-.17a1.5,1.5,0,0,1,0-3h.06c.67,0,67.52,2.39,97.39-11.91,15.19-7.27,21.18-14.78,23.53-19.8,2.49-5.32,1.5-9,1.49-9a1.5,1.5,0,0,1,2.88-.84c.21.7,4.75,17.38-26.6,32.39-12.85,6.16-33.4,10.08-61.07,11.67C1344.57,2194.22,1335.46,2194.37,1328.68,2194.37Z"/><path class="cls-5" d="M678.69,1146.32c-.64.16-7.12,9.66-8.38,17.85s-1.15,22.15-1.15,22.15h220.1s10.68-21.19,1.8-43.27-15.62-26.29-15.62-26.29-62.91-10.4-64-10.72S678.69,1146.32,678.69,1146.32Z"/><path class="cls-7" d="M1138.83,996.64l127.47-135s137.42,66.37,140.16,70.08-3.32,19.52-3.32,19.52-2.24,6.89-35.93,42.42-92.94,101.35-128.84,111.16-358.85,26.5-358.85,26.5-7.63,25-43,34.62-38,.13-33.43-14.17,13.9-35,13.9-35-69.15,36-87.69,39.13-25.33-4.23-28.87-10.82c0,0-18.45,12.73-36.66,2.58s6-30,6-30-9.22-10.65-3-19.63,58.69-36.19,75.48-39.57,117.87,6.4,117.87,6.4,105.73-20.23,181.9-41.25S1138.83,996.64,1138.83,996.64Z"/><path class="cls-8" d="M708.59,1153.85c-.26-.29-4.41,7.78-2.62,12.31s16.47,5.34,20.74,2.61,10.36-15.21,10.36-15.21Z"/><path d="M889.26,1187.82H669.16a1.49,1.49,0,0,1-1.49-1.35c-.11-1-2.42-25.33,6.63-35.79a1.5,1.5,0,0,1,2.27,2c-7.07,8.17-6.37,27-6,32.17H888.19a87.15,87.15,0,0,0,3.64-17.68c.93-9.55.41-23.09-7.31-33.39a1.5,1.5,0,0,1,2.4-1.8c15.85,21.13,4.25,53.52,3.75,54.89A1.5,1.5,0,0,1,889.26,1187.82Z"/><path d="M814.67,1170.84c-4.36,0-8.54-.75-11.41-2.93-4.45-3.39-3.71-12.83,2.25-28.86a244.91,244.91,0,0,1,10.12-23,1.52,1.52,0,0,1,2-.67,1.49,1.49,0,0,1,.66,2,238.06,238.06,0,0,0-10,22.66c-7.3,19.62-4.7,24.31-3.25,25.42,7.34,5.57,34.39.44,53.06-12.63,9.45-6.61,16.15-15.79,20.11-22.31a69.81,69.81,0,0,0,3.92-7.34,1.52,1.52,0,0,1,2-.77,1.49,1.49,0,0,1,.77,2,71.3,71.3,0,0,1-4.1,7.69c-4.11,6.78-11.08,16.3-21,23.21-8.16,5.72-19.59,10.75-30.57,13.47A63.61,63.61,0,0,1,814.67,1170.84Z"/><path d="M721,1158a27,27,0,0,1-13.4-3.1c-8.57-4.88-11.13-15-6.22-24.62,6.69-13.1,67.88-44.33,70.48-45.65a1.5,1.5,0,1,1,1.36,2.67c-.16.08-16,8.14-32.4,17.66-27.17,15.76-35,23.21-36.77,26.69-4.14,8.11-2.07,16.59,5,20.64,4.39,2.5,10.51,3.28,17.71,2.29a64.79,64.79,0,0,0,9.84-2.42c25.81-8.11,70.7-31.89,79.43-36.58l.18-.09a1.5,1.5,0,0,1,1.82,2.35,1.64,1.64,0,0,1-.37.28l-.21.11c-8.78,4.7-53.89,28.6-80,36.79a65.47,65.47,0,0,1-10.33,2.53A44.93,44.93,0,0,1,721,1158Z"/><path d="M879.52,1132.85a1.5,1.5,0,1,1,.19-3h.12c10,0,309.21-20.11,353-25.32,17.3-2,50.15-26.85,95-71.71,34.37-34.38,65.52-70.52,69.12-75.7a1.5,1.5,0,0,1,2.47,1.71c-3.76,5.4-34.38,41-69.47,76.12-31.61,31.61-74.05,69.86-96.76,72.56-26,3.09-132.06,10.62-193,14.83-69.63,4.81-155.86,10.49-160.69,10.49Z"/><path d="M669.73,1119.19a1.49,1.49,0,0,1-1.12-.51c-.32-.36-7.87-9-6.07-16.17,2-8.11,58.69-42.47,77.86-45,19.82-2.55,113.5,5.31,119.59,5.82,94.66-14.44,268.57-65.29,278-68.07l119.36-126.65a1.5,1.5,0,1,1,2.19,2.05l-119.64,127a1.67,1.67,0,0,1-.67.41c-1.81.53-182,53.52-279,68.3a2,2,0,0,1-.35,0c-1-.09-99.4-8.4-119.13-5.85-20.1,2.59-74,37.4-75.33,42.69-1.41,5.65,5.34,13.39,5.41,13.46a1.5,1.5,0,0,1-.13,2.12A1.52,1.52,0,0,1,669.73,1119.19Z"/><path d="M678.52,1152.68a30.69,30.69,0,0,1-14.3-3.11,14.76,14.76,0,0,1-8.22-14.29c.67-20.45,72.1-57.19,75.14-58.74a1.51,1.51,0,0,1,2,.65,1.49,1.49,0,0,1-.65,2c-20.27,10.36-73,40.65-73.51,56.17a11.81,11.81,0,0,0,6.63,11.55c9.54,5.1,26.07,2.53,33.92-3.08a1.5,1.5,0,0,1,1.75,2.44C695.88,1150.16,687,1152.68,678.52,1152.68Z"/><path d="M720.2,1171.16a42.7,42.7,0,0,1-6.15-.46c-2.84-.41-7.84-1.44-9.34-3.71-2.47-3.71,1.46-12.38,2.27-14.07a1.5,1.5,0,0,1,2.71,1.29c-1.67,3.48-3.6,9.43-2.47,11.12.38.58,2.68,1.74,7.26,2.4,5.51.81,11,.43,12.74-.88,3.12-2.32,7.17-10.8,8.47-13.87a1.5,1.5,0,1,1,2.76,1.16c-.51,1.21-5.1,11.89-9.44,15.12C727.13,1170.66,723.72,1171.16,720.2,1171.16Z"/><path d="M712.48,1187.83a1.5,1.5,0,0,1-1.48-1.35,40.53,40.53,0,0,1,.24-10,55,55,0,0,1,1.4-6.85c.06-.21.1-.37.13-.48a.15.15,0,0,1,0-.07,1.49,1.49,0,0,1,1.65-1.32,1.51,1.51,0,0,1,1.08.64c.4.6.28,1.06,0,2a52.58,52.58,0,0,0-1.33,6.5,38.14,38.14,0,0,0-.23,9.31,1.5,1.5,0,0,1-1.33,1.65Z"/><path class="cls-5" d="M1517.7,601.7l46.27-6.21s152.84,3.32,154.92,4.37,125.36,441.41,125,444.17,9.89,114.58,9.89,114.58l8.34,102s-63.67,1.39-108.22-3-155.37-17.6-228.9-33.23-117.88-26.28-117.88-26.28l-5.59-238.19L1239.26,843.08s185.85-207.34,210.51-222S1517.7,601.7,1517.7,601.7Z"/><path d="M1401.58,961.43a1.45,1.45,0,0,1-.79-.23c-46.55-29.1-161.28-116.05-162.43-116.93a1.5,1.5,0,0,1-.22-2.19c7.53-8.44,184.58-206.84,210.87-222.27,11.09-6.51,31.24-12.58,59.88-18,21.27-4,39.55-6.22,39.73-6.24a1.48,1.48,0,0,1,1.66,1.31,1.5,1.5,0,0,1-1.31,1.67c-.72.08-72.63,8.72-98.44,23.87-24.84,14.58-193.84,203.43-209.07,220.47,12.84,9.71,117.16,88.44,160.92,115.8a1.51,1.51,0,0,1,.48,2.07A1.52,1.52,0,0,1,1401.58,961.43Z"/><path d="M1838.89,1262.48c-187.59,0-429.58-62.25-432.1-62.91a1.48,1.48,0,0,1-1.12-1.4c0-.73-2.15-72.79-2.72-115.89s-2.84-265.62-2.87-267.87a1.5,1.5,0,0,1,1.49-1.51h0a1.49,1.49,0,0,1,1.5,1.48c0,2.24,2.31,224.77,2.87,267.86.53,40.12,2.41,105.34,2.68,114.71,18.66,4.75,268.57,67.3,451.92,62.24l-14.79-180.82a1.5,1.5,0,1,1,3-.25l14.92,182.4a1.52,1.52,0,0,1-.38,1.12,1.49,1.49,0,0,1-1.08.5C1854.55,1262.37,1846.76,1262.48,1838.89,1262.48Z"/><rect class="cls-9" x="464.71" y="1774.53" width="158.44" height="674.92"/><path d="M623.15,2451H464.71a1.5,1.5,0,0,1-1.5-1.5V1774.53a1.5,1.5,0,0,1,1.5-1.5H623.15a1.5,1.5,0,0,1,1.5,1.5v674.92A1.5,1.5,0,0,1,623.15,2451Zm-156.94-3H621.65V1776H466.21Z"/><rect class="cls-4" x="148.65" y="1774.53" width="316.06" height="674.92"/><path d="M464.71,2451H148.65a1.5,1.5,0,0,1-1.5-1.5V1774.53a1.5,1.5,0,0,1,1.5-1.5H464.71a1.5,1.5,0,0,1,1.5,1.5v674.92A1.5,1.5,0,0,1,464.71,2451Zm-314.56-3H463.21V1776H150.15Z"/><ellipse class="cls-9" cx="306.68" cy="1936.39" rx="98.52" ry="115.24"/><path d="M306.68,2053.13c-55.15,0-100-52.37-100-116.74s44.87-116.74,100-116.74,100,52.37,100,116.74S361.83,2053.13,306.68,2053.13Zm0-230.48c-53.5,0-97,51-97,113.74s43.52,113.74,97,113.74,97-51,97-113.74S360.18,1822.65,306.68,1822.65Z"/><rect class="cls-9" x="191.89" y="2141.03" width="229.59" height="248.04"/><path d="M421.48,2390.56H191.89a1.5,1.5,0,0,1-1.5-1.5V2141a1.5,1.5,0,0,1,1.5-1.5H421.48a1.5,1.5,0,0,1,1.5,1.5v248A1.5,1.5,0,0,1,421.48,2390.56Zm-228.09-3H420v-245H193.39Z"/><rect class="cls-9" x="191.89" y="2095.33" width="90.1" height="29.25"/><path d="M282,2126.08H191.89a1.5,1.5,0,0,1-1.5-1.5v-29.25a1.5,1.5,0,0,1,1.5-1.5H282a1.5,1.5,0,0,1,1.5,1.5v29.25A1.5,1.5,0,0,1,282,2126.08Zm-88.59-3h87.09v-26.25H193.39Z"/><rect class="cls-9" x="294.69" y="2095.33" width="90.1" height="29.25"/><path d="M384.79,2126.08h-90.1a1.5,1.5,0,0,1-1.5-1.5v-29.25a1.5,1.5,0,0,1,1.5-1.5h90.1a1.5,1.5,0,0,1,1.5,1.5v29.25A1.5,1.5,0,0,1,384.79,2126.08Zm-88.6-3h87.1v-26.25h-87.1Z"/><rect class="cls-9" x="397.5" y="2095.33" width="23.97" height="29.25"/><path d="M421.48,2126.08h-24a1.5,1.5,0,0,1-1.5-1.5v-29.25a1.5,1.5,0,0,1,1.5-1.5h24a1.5,1.5,0,0,1,1.5,1.5v29.25A1.5,1.5,0,0,1,421.48,2126.08Zm-22.48-3h21v-26.25H399Z"/><rect class="cls-10" x="748.52" y="543" width="568.24" height="469.64" rx="40.94"/><path d="M1275.81,1014.14H789.46A42.49,42.49,0,0,1,747,971.7V583.94a42.49,42.49,0,0,1,42.44-42.44h486.35a42.49,42.49,0,0,1,42.45,42.44V971.7A42.49,42.49,0,0,1,1275.81,1014.14ZM789.46,544.5A39.48,39.48,0,0,0,750,583.94V971.7a39.49,39.49,0,0,0,39.44,39.44h486.35a39.5,39.5,0,0,0,39.45-39.44V583.94a39.49,39.49,0,0,0-39.45-39.44Z"/><ellipse class="cls-8" cx="1032.64" cy="777.82" rx="56.34" ry="75.32"/><path d="M1032.64,854.63c-31.9,0-57.84-34.46-57.84-76.81S1000.74,701,1032.64,701s57.84,34.46,57.84,76.82S1064.53,854.63,1032.64,854.63Zm0-150.63c-30.24,0-54.84,33.11-54.84,73.82s24.6,73.81,54.84,73.81,54.84-33.11,54.84-73.81S1062.88,704,1032.64,704Z"/><rect class="cls-10" x="835.3" y="1147.65" width="583.97" height="40.01" rx="16.09"/><path d="M1403.19,1189.15H851.39a17.61,17.61,0,0,1-17.59-17.58v-7.83a17.61,17.61,0,0,1,17.59-17.59h551.8a17.61,17.61,0,0,1,17.59,17.59v7.83A17.61,17.61,0,0,1,1403.19,1189.15Zm-551.8-40a14.61,14.61,0,0,0-14.59,14.59v7.83a14.6,14.6,0,0,0,14.59,14.58h551.8a14.6,14.6,0,0,0,14.59-14.58v-7.83a14.61,14.61,0,0,0-14.59-14.59Z"/><polygon class="cls-8" points="1085.34 1187.65 979.93 1187.65 994.29 952.34 1070.99 952.34 1085.34 1187.65"/><path d="M1085.34,1189.15H979.93a1.51,1.51,0,0,1-1.5-1.59l14.36-235.32a1.5,1.5,0,0,1,1.5-1.41H1071a1.51,1.51,0,0,1,1.5,1.41l14.35,235.32a1.48,1.48,0,0,1-.4,1.12A1.52,1.52,0,0,1,1085.34,1189.15Zm-103.81-3h102.22l-14.17-232.32H995.7Z"/><rect class="cls-1" x="473.54" y="1187.85" width="1285.89" height="45.5" rx="20.6"/><path d="M1738.83,1234.85H494.14a22.13,22.13,0,0,1-22.1-22.1v-4.3a22.13,22.13,0,0,1,22.1-22.1H1738.83a22.13,22.13,0,0,1,22.1,22.1v4.3A22.13,22.13,0,0,1,1738.83,1234.85Zm-1244.69-45.5a19.12,19.12,0,0,0-19.1,19.1v4.3a19.12,19.12,0,0,0,19.1,19.1H1738.83a19.12,19.12,0,0,0,19.1-19.1v-4.3a19.12,19.12,0,0,0-19.1-19.1Z"/><rect class="cls-2" x="556.46" y="1233.35" width="834.51" height="1216.57"/><path d="M1391,2451.42H556.46a1.5,1.5,0,0,1-1.5-1.5V1233.35a1.5,1.5,0,0,1,1.5-1.5H1391a1.5,1.5,0,0,1,1.5,1.5V2449.92A1.5,1.5,0,0,1,1391,2451.42Zm-833-3h831.51V1234.85H558Z"/><path class="cls-3" d="M1473.73,354.4s-18.86,50.3-3,92,41.55,54.53,70.94,58.44l2.32-17.59,72.66,4.78s.74,43.83,6.07,43.5,24-25.48,24-25.48,15.68-8,21.36,5.77-11.07,28.06-11.07,28.06l2.69,12.33s8.48-2.8,9.61-4.5,39.6-70.42,42-87-12.09-47-17.83-49-21.51,2.18-21.51,2.18-3.74-21.73-6.91-21.78-8.21,10.07-8.21,10.07-11.75-19.39-40.51-24.93-63.69-8.14-86.81-12.66S1473.73,354.4,1473.73,354.4Z"/><path class="cls-7" d="M1544,487.22s-6,37.93-1.57,60.75,16.9,34.35,32.2,39.34c0,0-.7,6.69-.52,7s15.17,55.7,27.09,55.88,68.14-51.81,68.14-51.81l-12.3-54.48s16.36-8.92,12.3-23.31-13.82-15.07-21.33-11.19c0,0-22.75,27.28-25.28,26.15s-6.07-43.5-6.07-43.5Z"/><path class="cls-6" d="M1571.77,590.88l-23,6.15s-15.53,100.52-10.74,102.31,61.41-43.61,61.41-43.61l36.69,59.4,75-114.07s-23.07-16.89-24.65-15.91-78.81,66.92-85.26,65S1582.19,625,1571.77,590.88Z"/><path d="M1636.15,716.47h0a1.46,1.46,0,0,1-1.25-.71l-35.83-58c-8.15,6.1-49.89,37.34-58.51,43.09a2.47,2.47,0,0,1-2.83.13c-1.58-1-4.85-3.15,2-54.46,3.34-24.93,7.53-49.66,7.58-49.9a1.48,1.48,0,0,1,1.09-1.2l24.81-6.64a1.52,1.52,0,0,1,1.21.19,1.56,1.56,0,0,1,.66,1c5.08,33.42,22.56,57.6,26.22,58.48,4.37-.93,38.12-28.13,58.33-44.42,24.67-19.88,25.75-20.57,26.83-20.57,2.08,0,15.27,7.87,26,14.48a1.49,1.49,0,0,1,.47,2.09l-75.49,115.73A1.49,1.49,0,0,1,1636.15,716.47Zm-36.69-62.4a1.33,1.33,0,0,1,.28,0,1.5,1.5,0,0,1,1,.68l35.45,57.39,73.36-112.46c-9.89-6.07-20.51-12.27-22.91-13.14-2.34,1.47-13.42,10.4-25.11,19.82-43.52,35.08-56.89,45.09-60.32,45.09h-.2c-6.47-.87-23.51-28.67-28.62-59.36l-22.28,6c-7.69,45.47-13.72,94.22-10.94,100.08,10.19-6.88,58.9-43.41,59.39-43.78A1.48,1.48,0,0,1,1599.46,654.07Zm2-5.58h0Zm84.93-62Z"/><path d="M1669.33,599.66a1.47,1.47,0,0,1-1.35-.88c-1.06-2.37-10.17-44.53-12-53a1.5,1.5,0,1,1,2.93-.63c4.31,20,11,50.44,11.79,52.38a1.51,1.51,0,0,1-.79,2A1.44,1.44,0,0,1,1669.33,599.66Z"/><path d="M1586.08,590.34c-10.79,0-20.84-4.06-29.92-12.1-11.13-9.85-16.8-28.28-16.84-54.78a216.85,216.85,0,0,1,3.22-36.68,1.51,1.51,0,0,1,1.55-1.21l73.52,3.9a1.49,1.49,0,0,1,1.42,1.45c.56,18.86,2.24,39.51,4.13,42.83,3-1.33,13.75-13.61,22.41-24.81a1.57,1.57,0,0,1,.43-.38,17,17,0,0,1,23.43,6.35c2.9,5.19,2.94,12.09.1,18-3.11,6.47-8.64,10.44-12.74,12.62-4.53,2.43-9.72,4.09-16.83,5.39a1.5,1.5,0,1,1-.54-2.95c6.79-1.25,11.71-2.81,16-5.08,3.7-2,8.69-5.54,11.44-11.28,2.43-5,2.42-10.89,0-15.25a13.95,13.95,0,0,0-19-5.36c-1,1.23-5.52,7-10.41,12.76-11.57,13.5-13.68,13.21-14.81,13.06-1.54-.21-3.65-.49-5.36-23.76-.64-8.66-1-17.38-1.1-20.68l-70.83-3.76c-1.58,9.35-10.24,66.89,12.89,87.36,9.33,8.26,19.71,12,30.84,11.25,14.74-1,25.65-9.59,29.36-14a1.51,1.51,0,0,1,2.12-.17,1.49,1.49,0,0,1,.17,2.11c-5.56,6.55-17.77,14-31.43,15C1588.15,590.3,1587.11,590.34,1586.08,590.34Z"/><path d="M1646,532.13a1.6,1.6,0,0,1-.57-.11,1.5,1.5,0,0,1-.82-2,18.49,18.49,0,0,1,14.69-11.17,1.5,1.5,0,1,1,.35,3,15.67,15.67,0,0,0-12.27,9.33A1.48,1.48,0,0,1,1646,532.13Z"/><path d="M1656.93,531.64a1.49,1.49,0,0,1-1.48-1.29,7.6,7.6,0,0,0-3.49-5.3,1.5,1.5,0,1,1,1.56-2.56,10.5,10.5,0,0,1,4.9,7.44,1.52,1.52,0,0,1-1.28,1.7Z"/><path d="M1573.6,591.73a1.6,1.6,0,0,1-.47-.08,1.5,1.5,0,0,1-1-1.9l1-3.08a1.5,1.5,0,1,1,2.84,1l-1,3.08A1.51,1.51,0,0,1,1573.6,591.73Z"/><path d="M1563,541.28a1.56,1.56,0,0,1-.87-.27l-7.66-5.44c-.91-.65-2.81-2-2.88-4.13-.07-2.33,2-3.87,3.88-4.53a25,25,0,0,1,2.7-.71c.71-.15,1.38-.3,2-.5a5.13,5.13,0,0,0,3-2,7.09,7.09,0,0,0,.6-3l.72-10.63a1.5,1.5,0,1,1,3,.2l-.71,10.64a9.91,9.91,0,0,1-1,4.23,7.84,7.84,0,0,1-4.73,3.42c-.76.23-1.53.4-2.27.56a21.92,21.92,0,0,0-2.36.62c-.94.32-1.88,1-1.86,1.59s.83,1.22,1.62,1.78l7.66,5.44a1.5,1.5,0,0,1-.87,2.72Z"/><ellipse cx="1580.73" cy="512.1" rx="3.04" ry="4.91"/><ellipse cx="1550.41" cy="512.1" rx="3.04" ry="4.91"/><path d="M1659.75,557.52a1.5,1.5,0,0,1-.57-2.89,78.62,78.62,0,0,0,9.16-4.23c2.7-3.61,39.82-74.54,41.82-87.34,2.08-13.33-11.05-41.05-16.19-45.48-4.15-3.59-16.86-.08-21.41,1.57a1.48,1.48,0,0,1-1.25-.1,1.5,1.5,0,0,1-.73-1c-1.66-8.65-4.32-18.63-5.82-20.18-1.21.36-4.23,4.48-6.49,8.87a1.51,1.51,0,0,1-2.72-.1C1648,389,1614.6,378,1556.38,374c-24.29-1.67-62.67-12.56-77.12-16.66-1.88-.54-3.58-1-4.63-1.3-2.6,7.14-17.67,53.21.49,97.89,19.16,47.16,66.14,49.26,66.62,49.27a1.51,1.51,0,0,1,1.45,1.55,1.49,1.49,0,0,1-1.55,1.45c-.5,0-12.51-.47-27.13-7-13.49-6-31.77-18.56-42.17-44.16s-9.92-51.63-7.71-69a163.76,163.76,0,0,1,4.65-23.24c2.6-9.27,3.39-9.67,3.78-9.86.62-.32.62-.32,7,1.5,14.37,4.08,52.53,14.91,76.51,16.56,57.43,4,90.34,14.39,100.4,31.84,2.4-4.17,5.86-8.88,8.81-7.81s5.54,11.51,7.39,20.78c4.74-1.54,17.44-5,22.74-.46,6.32,5.46,19.34,34.5,17.2,48.21s-40.47,87.38-42.88,89.2c-1.82,1.38-9.12,4.35-9.94,4.69A1.64,1.64,0,0,1,1659.75,557.52Zm8.54-7Zm-3.64-152.72Z"/><path d="M1557.5,507.79a1.5,1.5,0,0,1-.75-.21,41.36,41.36,0,0,1-10-8.1,1.51,1.51,0,0,1,.11-2.12,1.49,1.49,0,0,1,2.12.11,38.49,38.49,0,0,0,9.29,7.52,1.5,1.5,0,0,1-.76,2.8Z"/><path d="M1570.74,506.58a1.5,1.5,0,0,1-.76-2.79l10.61-6.23a1.51,1.51,0,0,1,2.06.54,1.49,1.49,0,0,1-.54,2l-10.61,6.23A1.49,1.49,0,0,1,1570.74,506.58Z"/><path d="M1560.11,562.14a1.46,1.46,0,0,1-.84-.26,1.49,1.49,0,0,1-.4-2.08,22,22,0,0,1,15.46-9.41,1.5,1.5,0,1,1,.35,3,18.91,18.91,0,0,0-13.33,8.11A1.49,1.49,0,0,1,1560.11,562.14Z"/><path class="cls-5" d="M1711.64,599.4s-27.59,145.19-30,163.69S1662,958,1662,958s46.53,9.12,93.5,10.64,112.41-3,149.24-14.19,50.85-16.61,50.85-16.61-27.33-102.29-33.8-121.75-30.53-102.66-38.89-125-15.35-46.91-29.46-57.69S1793.84,603.54,1711.64,599.4Z"/><path class="cls-7" d="M1729.85,537c-.47-.84-24.55-47.8-55.88-78.66s-35.44-38.82-46-33.27-5.88,38.36-3.35,47.27c0,0-32.31-29.73-48-34.07s-21.89,5.92-17,23.09,35.81,54.54,35.81,54.54-24.79-23.61-35.81-17.1-.69,23.4,14,40.38S1590,558.47,1590,558.47s22,57.33,69.45,73.39c0,0-9,165.33,1.87,241.69s14.06,94.26,42,149.75c26.94,53.43,83.48,111,149.16,73.67,59.35-33.74,46.12-140.54,46.12-140.54l-31.16,4.46S1738.55,552.58,1729.85,537Z"/><path d="M1869,963.26a1.5,1.5,0,0,1-1.48-1.25,1.52,1.52,0,0,1,1.24-1.73c30.89-5,59.5-12.88,85.06-23.33-2.45-9.33-18.08-68.51-36.23-131-26-89.56-45.34-145.19-55.91-160.85-9.23-13.68-30.87-25-62.59-32.63a327.23,327.23,0,0,0-45.92-7.55,1.49,1.49,0,0,1-1.38-1.61,1.51,1.51,0,0,1,1.61-1.38c3.56.27,87.54,7.06,110.77,41.49,25.9,38.4,90.16,283.62,92.88,294.05a1.49,1.49,0,0,1-.88,1.76c-26.08,10.79-55.32,18.87-86.92,24Z"/><path d="M1871.56,975.22a1.51,1.51,0,0,1-1.43-1c-1.25-4-126.07-395.83-137.32-427-5.33-14.77-25.48-45.48-49-74.68-39.58-49.13-50.44-48-51.56-47.74-15.56,4-9.26,35.39-5.83,48.69a1.5,1.5,0,0,1-2.9.75c-4.55-17.61-9.55-47.81,8-52.35,11.48-3,42,33.12,54.64,48.77,23.71,29.42,44.06,60.49,49.49,75.54,11.27,31.22,136.1,423.14,137.36,427.1a1.48,1.48,0,0,1-1,1.88A1.47,1.47,0,0,1,1871.56,975.22Z"/><path d="M1812.18,1109.6c-1.13,0-2.27,0-3.43-.06-74.75-2.67-108.22-85.48-124.3-125.28-1.3-3.23-2.49-6.17-3.57-8.74-20.31-48.39-25.47-139.32-26.21-207.07-.75-68.07,2.68-127,3.2-135.61-38-16.06-55.51-48.57-65-66.11-2.4-4.46-4.3-8-5.69-9.56l-2.24-2.52c-18.08-20.14-37.78-44.55-29.66-54.6a8.83,8.83,0,0,1,6.38-3.22c7.56-.63,18.41,5.84,26.25,11.45-19.46-25.08-34-46.71-31-60.9a15.06,15.06,0,0,1,8.31-10.45c9.81-5.12,31,7.85,64.83,39.67,24.5,23,46.62,47.82,46.84,48.07a1.5,1.5,0,0,1-2.24,2c-24.27-27.23-91-96-108-87.07-3.77,2-6,4.72-6.76,8.42-3.39,15.93,20.58,46.16,38.09,68.23a1.5,1.5,0,0,1-2.17,2.06c-.22-.19-22.34-19.46-33.9-18.48a5.87,5.87,0,0,0-4.31,2.12c-5,6.2,4.93,23.26,29.56,50.71.91,1,1.68,1.87,2.26,2.54,1.62,1.84,3.49,5.31,6.08,10.12,9.36,17.36,26.78,49.67,64.46,65.17a1.48,1.48,0,0,1,.92,1.48c-.16,2.5-15.85,250.55,22.72,342.39,1.08,2.59,2.27,5.54,3.59,8.78,15.84,39.22,48.81,120.81,121.62,123.41,23.86.83,43.73-7.46,59.06-24.69,19.91-22.39,37.56-71.12,29.24-125.19a1.5,1.5,0,1,1,3-.46c3.09,20,2.42,43.92-1.82,65.5-5,25.63-14.78,47.12-28.14,62.15C1855,1100.94,1835.46,1109.6,1812.18,1109.6Z"/><path class="cls-6" d="M1747.59,321.8l-13.23,62.36a2.53,2.53,0,0,0,1.11,2.66,2.54,2.54,0,0,0,2.87-.09c16.27-11.94,40.05-29.23,53.11-38.4,34.18,15.93,73.64,24.93,114.22,26,123.43,3.34,225.81-66.65,228.23-156s-96-164.81-219.46-168.15-225.81,66.66-228.22,156C1685.06,249.19,1706.85,290.17,1747.59,321.8Z"/><path d="M1914.3,375.4q-4.32,0-8.65-.12c-41.51-1.12-81.84-10.42-116.65-26.9a1.5,1.5,0,1,1,1.28-2.71c34.44,16.3,74.36,25.5,115.45,26.61,122.76,3.3,224.61-65.8,227-154.09S2037.17,55.37,1914.39,52.05s-224.61,65.81-227,154.1c-1.15,42.63,20.82,83.37,61.86,114.73a1.5,1.5,0,0,1-1.82,2.39c-41.83-32-64.22-73.58-63-117.2s25.83-84,69.4-113.71,100.47-44.94,160.68-43.31,116.34,20.07,158.1,51.93,64.34,73.63,63.16,117.29-25.83,84-69.4,113.7C2025,360.11,1971.29,375.4,1914.3,375.4Z"/><path d="M1734.6,388.31a1.51,1.51,0,0,1-1.47-1.81L1750,307.13a1.5,1.5,0,1,1,2.93.62l-16,75.52c19.84-14.54,58.75-42.91,61.21-43.46a1.5,1.5,0,0,1,.75,2.91c-2.95,1.27-39.46,27.75-63.35,45.3A1.53,1.53,0,0,1,1734.6,388.31Zm64.21-45.59-.07,0Z"/><path class="cls-5" d="M1846,152.86a14.11,14.11,0,0,0,12.08,17.45l21.35,2.5a14.06,14.06,0,0,0,14.86-9.1c5.27-14.42,24-21.25,32.88-12.05,4.31,4.46,4.53,11.44,1.32,16.75-13.23,21.94-37.59,26.46-41.86,53.53a14.13,14.13,0,0,0,14.05,16.31l20.73-.13a14.18,14.18,0,0,0,13.57-9.63c5.93-18.88,35.82-32.73,42.37-47.07C2011.87,98.36,1864.18,82.4,1846,152.86Z"/><rect class="cls-5" x="1884.96" y="250.9" width="51.19" height="45.16" rx="18.71" transform="translate(-1.7 12.18) rotate(-0.37)"/><path class="cls-5" d="M463.44,870.29,567.88,691.87a16.27,16.27,0,0,1,28.09,0L700.41,870.29a16.28,16.28,0,0,1-14,24.5H477.49A16.28,16.28,0,0,1,463.44,870.29Z"/><path class="cls-6" d="M569.33,736.73h25.19a4,4,0,0,1,4,4.29l-6.1,95.7a4,4,0,0,1-4,3.78h-13a4,4,0,0,1-4-3.78L565.3,741A4,4,0,0,1,569.33,736.73Z"/><path class="cls-6" d="M572.24,851a4,4,0,0,1,4-3.23h11.46a4,4,0,0,1,4,3.23l2.89,14.28a4,4,0,0,1-4,4.83H573.3a4,4,0,0,1-4-4.83Z"/><path class="cls-5" d="M150.5,735.92l78.66-134.37a12.26,12.26,0,0,1,21.16,0L329,735.92a12.26,12.26,0,0,1-10.58,18.46H161.08A12.26,12.26,0,0,1,150.5,735.92Z"/><path class="cls-6" d="M230.25,635.33h19a3,3,0,0,1,3,3.23l-4.6,72.08a3,3,0,0,1-3,2.85h-9.78a3,3,0,0,1-3-2.85l-4.6-72.08A3,3,0,0,1,230.25,635.33Z"/><path class="cls-6" d="M232.45,721.38a3,3,0,0,1,3-2.43h8.64a3,3,0,0,1,3,2.43l2.18,10.76a3,3,0,0,1-3,3.64h-13a3,3,0,0,1-3-3.64Z"/><path class="cls-5" d="M362.93,563.37,441.58,429a12.26,12.26,0,0,1,21.16,0L541.4,563.37a12.26,12.26,0,0,1-10.58,18.46H373.51A12.26,12.26,0,0,1,362.93,563.37Z"/><path class="cls-6" d="M442.68,462.78h19a3,3,0,0,1,3,3.23l-4.6,72.08a3,3,0,0,1-3,2.85h-9.77a3,3,0,0,1-3-2.85L439.65,466A3,3,0,0,1,442.68,462.78Z"/><path class="cls-6" d="M444.87,548.83a3,3,0,0,1,3-2.43h8.63a3,3,0,0,1,3,2.43l2.19,10.76a3,3,0,0,1-3,3.64h-13a3,3,0,0,1-3-3.64Z"/><path class="cls-5" d="M1057.94,232.86,1136.6,98.49a12.26,12.26,0,0,1,21.16,0l78.65,134.37a12.26,12.26,0,0,1-10.58,18.46H1068.52A12.26,12.26,0,0,1,1057.94,232.86Z"/><path class="cls-6" d="M1137.69,132.27h19a3,3,0,0,1,3,3.23l-4.6,72.08a3,3,0,0,1-3,2.85h-9.77a3,3,0,0,1-3-2.85l-4.6-72.08A3,3,0,0,1,1137.69,132.27Z"/><path class="cls-6" d="M1139.88,218.32a3,3,0,0,1,3-2.43h8.63a3,3,0,0,1,3,2.43l2.18,10.76a3,3,0,0,1-3,3.64h-13a3,3,0,0,1-3-3.64Z"/><rect class="cls-1" x="2027.7" y="1048.19" width="323.64" height="222.79"/><path class="cls-6" d="M2165.42,1205.57c-.42.26-2.74-.13-4.27-1.83-2.12-2.35-3.48-6.32-4.18-12.15-.22-1.91-.38-3.82-.53-5.74a84.13,84.13,0,0,0-2.21-15.19,37,37,0,0,0-3-7.65,28.47,28.47,0,0,0,5.45-6.09c5.34-8.05,6.14-17.38,6.28-23.69,0-2,0-4,0-6a68.45,68.45,0,0,1,.48-11.32,15.45,15.45,0,0,1,.42-1.86,10.69,10.69,0,0,0,5.84-20.27c-6.85-3.26-15.48-1.4-21,4.52-3.3,3.54-5.38,8.17-6.36,14.15a85,85,0,0,0-.77,15c0,1.77,0,3.54,0,5.31-.12,5.81-1,9.74-2.72,12.35-1.32,2-3.52,2.88-4.23,2.68a10.69,10.69,0,0,0-7.24,20.07c2.56,1.11,5.21,4.68,6.18,8.29a67.41,67.41,0,0,1,1.56,11.44c.18,2.18.36,4.36.62,6.52.78,6.62,2.62,16.31,9.53,24A26.88,26.88,0,0,0,2165,1227a22.15,22.15,0,0,0,11.4-3,10.69,10.69,0,1,0-11-18.35Z"/><path class="cls-6" d="M2257.45,1154.43a10.68,10.68,0,0,0-13-6.64c-.7.2-2.91-.68-4.23-2.68-1.73-2.61-2.59-6.54-2.72-12.35,0-1.77,0-3.54,0-5.31a84,84,0,0,0-.77-15c-1-6-3.06-10.61-6.36-14.15-5.51-5.92-14.14-7.78-21-4.52a10.69,10.69,0,0,0,5.84,20.27,15.45,15.45,0,0,1,.42,1.86,68.4,68.4,0,0,1,.49,11.32c0,2,0,4,0,6,.14,6.31.95,15.64,6.28,23.69a28.24,28.24,0,0,0,5.46,6.09,35.89,35.89,0,0,0-3,7.65,83.3,83.3,0,0,0-2.22,15.19c-.15,1.92-.31,3.83-.53,5.74-.7,5.83-2.06,9.8-4.17,12.15-1.54,1.7-3.85,2.09-4.28,1.83a10.69,10.69,0,0,0-11,18.35,22.15,22.15,0,0,0,11.4,3,26.87,26.87,0,0,0,19.71-8.91c6.91-7.64,8.75-17.33,9.53-24,.26-2.16.44-4.34.62-6.52a67.41,67.41,0,0,1,1.56-11.44c1-3.61,3.62-7.18,6.18-8.29A10.68,10.68,0,0,0,2257.45,1154.43Z"/><rect class="cls-3" x="252.26" y="836.11" width="267.47" height="184.12"/><path class="cls-11" d="M397.08,879.79a6.45,6.45,0,0,0-8,4.36l-25,84.38a6.45,6.45,0,1,0,12.38,3.66l24.95-84.38A6.46,6.46,0,0,0,397.08,879.79Z"/><path class="cls-11" d="M454.38,924.77l-31.85-19a6.46,6.46,0,0,0-6.63,11.08l23,13.73L415.7,945.58a6.45,6.45,0,0,0,7,10.82l31.85-20.69a6.45,6.45,0,0,0-.2-10.94Z"/><path class="cls-11" d="M356.3,945.58l-23.17-15.05,23-13.73a6.46,6.46,0,0,0-6.63-11.08l-31.85,19a6.44,6.44,0,0,0-.2,10.94l31.85,20.69a6.46,6.46,0,0,0,8.93-1.9A6.45,6.45,0,0,0,356.3,945.58Z"/></svg>