<svg id="Layer_1" data-name="Layer 1" xmlns="http://www.w3.org/2000/svg" viewBox="0 0 24 24"><path d="M1.5,18a3.5,3.5,0,1,0,4-3.44946V9.44946a3.5,3.5,0,1,0-1,0v5.10108A3.495,3.495,0,0,0,1.5,18Zm1-12A2.5,2.5,0,1,1,5,8.5,2.50294,2.50294,0,0,1,2.5,6ZM5,15.5A2.5,2.5,0,1,1,2.5,18,2.50294,2.50294,0,0,1,5,15.5Zm14.5-.94946V8A2.50263,2.50263,0,0,0,17,5.5H14.207l2.14649-2.14648a.5.5,0,0,0-.707-.707l-3,3a.49983.49983,0,0,0,0,.707l3,3a.5.5,0,0,0,.707-.707L14.207,6.5H17A1.50164,1.50164,0,0,1,18.5,8v6.55054a3.5,3.5,0,1,0,1,0ZM19,20.5A2.5,2.5,0,1,1,21.5,18,2.50263,2.50263,0,0,1,19,20.5Z"/></svg>