<svg id="Layer_1" data-name="Layer 1" xmlns="http://www.w3.org/2000/svg" viewBox="0 0 24 24"><path d="M19,1.5a3.495,3.495,0,0,0-3.44946,3H14A2.50231,2.50231,0,0,0,11.5,7V17A1.50164,1.50164,0,0,1,10,18.5H8.44946a3.5,3.5,0,1,0,0,1H10A2.50231,2.50231,0,0,0,12.5,17V7A1.50164,1.50164,0,0,1,14,5.5h1.55054A3.49321,3.49321,0,1,0,19,1.5ZM5,21.5A2.5,2.5,0,1,1,7.5,19,2.50231,2.50231,0,0,1,5,21.5Zm14-14A2.5,2.5,0,1,1,21.5,5,2.50231,2.50231,0,0,1,19,7.5Zm.5,8.05054V14A2.50231,2.50231,0,0,0,17,11.5H14v1h3A1.50164,1.50164,0,0,1,18.5,14v1.55054a3.5,3.5,0,1,0,1,0ZM19,21.5A2.5,2.5,0,1,1,21.5,19,2.50231,2.50231,0,0,1,19,21.5ZM4.5,8.44946V10A2.50231,2.50231,0,0,0,7,12.5h3v-1H7A1.50164,1.50164,0,0,1,5.5,10V8.44946a3.5,3.5,0,1,0-1,0ZM5,2.5A2.5,2.5,0,1,1,2.5,5,2.50231,2.50231,0,0,1,5,2.5Z"/></svg>