<svg id="Layer_1" data-name="Layer 1" xmlns="http://www.w3.org/2000/svg" viewBox="0 0 24 24"><path d="M22.18555,12.53564,17.5,10.66144V4a.49951.49951,0,0,0-.31445-.46436l-5-2a.49762.49762,0,0,0-.3711,0l-5,2A.49951.49951,0,0,0,6.5,4v6.66144l-4.68555,1.8742A.49951.49951,0,0,0,1.5,13v7a.49951.49951,0,0,0,.31445.46436l4.9906,1.99627.00055.00019.00885.00354a.50083.50083,0,0,0,.3711,0l.00885-.00354.00055-.00019L12,20.53857l4.80505,1.92206.00055.00019.00885.00354a.50083.50083,0,0,0,.3711,0l.00885-.00354.00055-.00019,4.9906-1.99627A.49951.49951,0,0,0,22.5,20V13A.49951.49951,0,0,0,22.18555,12.53564ZM17,14.46143l-3.65369-1.46137L17,11.53857,20.65393,13ZM7,11.53857l3.65375,1.46149L7,14.46143,3.34613,12.99994Zm4.5-5.2v5.92285l-4-1.6V4.73865Zm5,4.32288-4,1.6V6.33856l4-1.59979Zm-9,4.67712,4-1.59979v5.92285l-4,1.59985Zm4.5-12.8L15.65393,4,12,5.46143,8.34613,3.99994ZM2.5,13.73865l4,1.59991v5.92291l-4-1.59985Zm10,0,4,1.59991v5.92291l-4-1.59985Zm5,7.52282V15.33856l4-1.59979v5.92285Z"/></svg>