<svg id="Layer_1" data-name="Layer 1" xmlns="http://www.w3.org/2000/svg" viewBox="0 0 24 24"><path d="M20,3.5H4A2.50263,2.50263,0,0,0,1.5,6V18A2.50263,2.50263,0,0,0,4,20.5H20A2.50263,2.50263,0,0,0,22.5,18V6A2.50263,2.50263,0,0,0,20,3.5ZM21.5,18A1.50164,1.50164,0,0,1,20,19.5H4A1.50164,1.50164,0,0,1,2.5,18V6A1.50164,1.50164,0,0,1,4,4.5H20A1.50164,1.50164,0,0,1,21.5,6ZM10.35352,11.64648a.49983.49983,0,0,1,0,.707l-4,4a.5.5,0,0,1-.707-.707L9.293,12,5.64648,8.35352a.5.5,0,0,1,.707-.707ZM18.5,16a.49971.49971,0,0,1-.5.5H12a.5.5,0,0,1,0-1h6A.49971.49971,0,0,1,18.5,16Z"/></svg>