<svg id="Layer_1" data-name="Layer 1" xmlns="http://www.w3.org/2000/svg" viewBox="0 0 24 24"><path d="M19,2.5H5A2.50263,2.50263,0,0,0,2.5,5V19A2.50263,2.50263,0,0,0,5,21.5H19A2.50263,2.50263,0,0,0,21.5,19V5A2.50263,2.50263,0,0,0,19,2.5ZM20.5,5V6.5H7.5v-3H19A1.50164,1.50164,0,0,1,20.5,5ZM3.5,5A1.50164,1.50164,0,0,1,5,3.5H6.5v3h-3Zm17,14A1.50164,1.50164,0,0,1,19,20.5H5A1.50164,1.50164,0,0,1,3.5,19V7.5h17ZM11,16.5a3.46652,3.46652,0,0,0,2.0863-.70667l2.56018,2.56019a.5.5,0,0,0,.707-.707L13.79333,15.0863A3.46652,3.46652,0,0,0,14.5,13,3.5,3.5,0,1,0,11,16.5Zm0-6A2.5,2.5,0,1,1,8.5,13,2.50263,2.50263,0,0,1,11,10.5Z"/></svg>