<?xml version="1.0" encoding="utf-8"?>
<!-- Generator: Adobe Illustrator 25.3.1, SVG Export Plug-In . SVG Version: 6.00 Build 0)  -->
<svg version="1.1" id="Layer_1" xmlns="http://www.w3.org/2000/svg" xmlns:xlink="http://www.w3.org/1999/xlink" x="0px" y="0px"
	 viewBox="0 0 500 500" style="enable-background:new 0 0 500 500;" xml:space="preserve">
<style type="text/css">
	.st0{fill:#F5F8FD;}
	.st1{opacity:0.52;}
	.st2{fill:#D7E3F8;}
	.st3{fill:#FFFFFF;}
	.st4{fill:#01C99C;}
	.st5{fill:#00B98F;}
	.st6{fill:#059C79;}
	.st7{fill:#BFCDE6;}
	.st8{fill:#B0C0D8;}
	.st9{opacity:0.48;}
	.st10{fill:#CCCCCC;}
	.st11{fill:#F1BAB3;}
	.st12{fill:#ECACA2;}
	.st13{fill:#192D54;}
	.st14{fill:#171E45;}
	.st15{fill:#343358;}
	.st16{fill:#3D4F69;}
	.st17{fill:#2862DE;}
	.st18{fill:#4A7AFF;}
	.st19{clip-path:url(#SVGID_2_);}
	.st20{clip-path:url(#SVGID_4_);}
</style>
<g id="Layer_2_1_">
	<path class="st0" d="M428.7,188.6c27.5,3.2,54.2,8.7,57,25.8s-18.4,45.1-43.4,70.7s-53.9,48.8-79.9,57.1c-26,8.3-49.2,1.7-74.5,2
		c-25.4,0.5-52.8,8.3-85.8,7.8c-43.9-0.7-52.4-19.7-64.3-10.7s-38.4,21.4-59.1,7.4S48,311.9,43,282s4.8-68.3,19.9-102.9
		c15-34.5,45.7-70.5,79.5-84c33.9-13.5,71.7,8.6,110.8,9.6c39,1.1,71-28.6,111-28.6s38.4,51.8,21.8,81.3
		C367.3,190.5,399.2,185.2,428.7,188.6z"/>
	<g class="st1">
		<path class="st2" d="M327,180.2h-38c-1,0-1.7-0.8-1.7-1.8c0-0.9,0.8-1.7,1.7-1.7h38c1,0,1.7,0.8,1.7,1.8
			C328.7,179.4,327.9,180.2,327,180.2L327,180.2z"/>
		<path class="st2" d="M387,233.7h-38c-1,0-1.7-0.8-1.7-1.7c0-1,0.8-1.7,1.7-1.7c0,0,0,0,0,0h38c1,0,1.7,0.8,1.7,1.7
			C388.8,232.9,388,233.7,387,233.7C387.1,233.7,387.1,233.7,387,233.7z"/>
		<path class="st2" d="M364.9,193.6H289c-1,0-1.7-0.8-1.7-1.7c0-1,0.8-1.7,1.7-1.7h75.9c1,0,1.7,0.8,1.7,1.7
			C366.7,192.8,365.9,193.6,364.9,193.6L364.9,193.6z"/>
		<path class="st2" d="M397.2,207H289c-1,0-1.7-0.8-1.7-1.7c0-1,0.8-1.7,1.7-1.7c0,0,0,0,0,0h108.1c1,0,1.7,0.8,1.7,1.7
			C398.9,206.2,398.1,207,397.2,207C397.2,207,397.2,207,397.2,207z"/>
		<path class="st2" d="M387,220.4h-98c-1,0-1.7-0.8-1.7-1.7c0-1,0.8-1.7,1.7-1.7c0,0,0,0,0,0h98c1,0,1.7,0.8,1.7,1.7
			C388.8,219.7,388,220.4,387,220.4C387.1,220.4,387.1,220.4,387,220.4z"/>
	</g>
	<path class="st3" d="M208.9,129.2h103.3c2.9,0,5.2,2.3,5.2,5.2v82.3c0,2.9-2.3,5.2-5.2,5.2H208.9c-2.9,0-5.2-2.3-5.2-5.2v-82.3
		C203.7,131.6,206,129.2,208.9,129.2z"/>
	<path class="st3" d="M84.1,262.9L84.1,262.9c0.6-4.9-2.8-9.4-7.7-10c-4.3-0.6-8.4,2-9.7,6.1c-2.5-1.1-5.5,0-6.6,2.5
		c-0.2,0.5-0.4,1.1-0.4,1.7c-3.4-1-7,0.9-8,4.3c-1,3.4,0.9,7,4.3,8c0.6,0.2,1.2,0.3,1.9,0.3h26.3c3.6,0,6.4-2.9,6.4-6.4
		C90.5,265.8,87.7,262.9,84.1,262.9C84.1,262.9,84.1,262.9,84.1,262.9L84.1,262.9z"/>
	<path class="st3" d="M422.1,238.9c0.1,0,0.1,0,0.2,0c-1.5-10.8,6-20.9,16.9-22.4c9.6-1.3,18.7,4.4,21.6,13.7
		c5.6-2.6,12.2-0.1,14.8,5.5c0.6,1.2,0.9,2.5,1,3.8c7.6-2.3,15.6,1.9,17.9,9.5c2.3,7.6-1.9,15.6-9.5,17.9c-1.4,0.4-2.8,0.6-4.2,0.6
		h-58.7c-7.9-0.1-14.3-6.5-14.2-14.5C407.9,245.3,414.3,239,422.1,238.9L422.1,238.9z"/>
	<path class="st3" d="M331.7,123.5L331.7,123.5c-0.5-4.2,2.4-8.1,6.7-8.7c3.7-0.5,7.3,1.7,8.4,5.3c2.2-1,4.8,0,5.8,2.1
		c0.2,0.5,0.3,1,0.4,1.5c3-0.9,6.1,0.8,7,3.7c0.9,3-0.8,6.1-3.7,7c-0.5,0.2-1.1,0.2-1.6,0.2h-22.9c-3.1,0-5.6-2.4-5.7-5.5
		c0-3.1,2.4-5.6,5.5-5.7C331.6,123.5,331.6,123.5,331.7,123.5L331.7,123.5z"/>
	<path class="st3" d="M89.9,161.6c-0.1,0-0.1,0-0.2,0c1.7-12.6-7.1-24.2-19.7-26c-11.1-1.5-21.7,5.2-25.1,15.9
		c-6.5-3-14.2-0.1-17.2,6.4c-0.6,1.4-1,2.9-1.1,4.5c-8.8-2.7-18.1,2.3-20.8,11.1c-2.7,8.8,2.3,18.1,11.1,20.8
		c1.6,0.5,3.2,0.7,4.9,0.7h68.2c9.2,0.1,16.7-7.3,16.8-16.6c0.1-9.2-7.3-16.7-16.6-16.8C90.1,161.6,90,161.6,89.9,161.6L89.9,161.6z
		"/>
	<path class="st2" d="M127.1,411.6h319.4c1.9,0,3.5,1.6,3.5,3.5v0.1c0,1.9-1.6,3.5-3.5,3.5H127.1c-1.9,0-3.5-1.6-3.5-3.5v-0.1
		C123.6,413.2,125.1,411.6,127.1,411.6z"/>
	<path class="st4" d="M408.4,357c-0.7-4-1.2-8-1.3-12.1c-0.2-4.7,0.2-6,0-9.3c-0.5-8.1-3.1-9.4-3.8-15.2
		c-1.3-10.9,7.1-13.7,4.7-21.2c-1.9-6.2-7.8-5.1-12.7-14.4c-2.7-5.1-2.6-8.5-4.9-9c-3.1-0.7-8.2,4.1-8.3,8.8
		c-0.1,5.4,6.7,6.3,8.3,13.5c1.1,5-2,5.7-1.8,12.8c0.1,7.9,4,8.7,4,16.3c0,7.4-3.6,8.9-1.8,13.1c2,4.8,7.4,4.7,9.4,10
		c0.9,2.6,0.9,5.4,0,7.9L408.4,357z"/>
	<path class="st5" d="M404.4,356.3c-0.2,0-0.4-0.1-0.4-0.3c-2.2-6.2-3.7-12.7-4.5-19.3c-0.6-5.1-0.7-10.3-0.4-15.5
		c0.4-4.9,0.1-9.9-0.8-14.8c-1.6-7.5-4.7-14.7-9.1-21c-0.1-0.2-0.1-0.5,0.1-0.6s0.5-0.1,0.6,0.1c4.5,6.4,7.7,13.7,9.3,21.3
		c0.9,4.9,1.2,10,0.8,15c-0.3,5.1-0.1,10.2,0.4,15.3c0.8,6.5,2.2,12.9,4.4,19.1c0.1,0.2,0,0.5-0.3,0.6
		C404.5,356.3,404.4,356.3,404.4,356.3L404.4,356.3z"/>
	<path class="st4" d="M419.7,355.9c2-1.7,4.5-2.8,7.2-3.1c4.5-0.4,6.1,2.3,9,1.5c4.5-1.2,3.2-7.8,8.3-11.3
		c5.8-3.9,12.4,1.1,15.1-2.4c2.1-2.7,0.5-8.7-3.3-11.4c-3.8-2.7-8.6-1.1-9.8-0.7c-4.1,1.4-3.9,3.6-7.7,4.8c-5.2,1.6-8-1.7-10.7,0.2
		c-3.3,2.4,0,8.1-3.3,11.3c-3.6,3.4-10.3-0.5-12.4,2.4c-0.7,1-1.1,3.1,1.7,7.9L419.7,355.9z"/>
	<path class="st5" d="M416.9,354.4c-0.3,0-0.5-0.2-0.5-0.5c0-0.2,0.1-0.3,0.2-0.4c2.2-1.5,4.4-3,6.5-4.7c3.5-2.7,5.7-4.6,7.5-6.2
		c1.2-1.1,2.3-2,3.4-2.9c4.7-3.5,10.7-5.6,18.1-6.1c0.3,0,0.5,0.2,0.5,0.4c0,0.3-0.2,0.5-0.4,0.5c0,0,0,0,0,0
		c-7.1,0.5-13.1,2.5-17.6,5.9c-1.1,0.8-2.1,1.7-3.3,2.8c-1.8,1.6-4,3.6-7.5,6.3c-2.1,1.6-4.3,3.2-6.5,4.7
		C417.1,354.3,417,354.4,416.9,354.4z"/>
	<path class="st5" d="M408.4,363.1c-2.7,0.5-6.6-3.5-6.5-7.2c0.1-3.4,3.6-3.9,5.9-7.7c4.3-7.1-2.8-12.8-0.2-22.3
		c2.1-7.9,7.6-6,11.4-15.7c3.5-8.7,0.6-14.1,5.4-18.1c3.1-2.7,4.8-0.5,10-3.1c8.4-4.2,9-12.3,14.6-12.4c1.9,0,3.8,0.9,5,2.4
		c3.3,4.3-1.3,12.3-2,13.5c-3.7,6.2-7,5.1-10.9,10.5c-5.2,7.1-0.4,11.2-5.5,19.2c-5,7.8-10.6,7.1-12.5,14c-1.7,6,1.7,9.1-1.3,13.5
		c-2.2,3.2-4.6,2.4-8.3,6.8C410.3,360.2,410.4,362.7,408.4,363.1z"/>
	<path class="st6" d="M408.4,357.4c0,0-0.1,0-0.1,0c-0.2-0.1-0.4-0.3-0.3-0.6c0,0,0,0,0,0c6.6-26.1,19.2-50.3,36.9-70.5
		c0.2-0.2,0.5-0.2,0.7-0.1c0.2,0.2,0.2,0.5,0.1,0.7c0,0,0,0,0,0c-17.6,20.2-30.1,44.2-36.7,70.2
		C408.8,357.3,408.7,357.4,408.4,357.4z"/>
	<path class="st2" d="M423,354.2h-26.9c-4.8,7.3-8.4,14.4-10.4,21.2h47.8C431.4,368.6,427.8,361.5,423,354.2z"/>
	<path class="st7" d="M385.7,375.4c-4,13.5-1.7,25.8,10.4,36.2H423c12.1-10.5,14.4-22.8,10.4-36.2H385.7z"/>
	<path class="st8" d="M337.4,294.2h4.1l0,0v119.2c0,1.1-0.9,2-2,2h0c-1.1,0-2-0.9-2-2L337.4,294.2L337.4,294.2z"/>
	<path class="st8" d="M376.3,294.2h4.1l0,0v119.2c0,1.1-0.9,2-2,2h0c-1.1,0-2-0.9-2-2V294.2L376.3,294.2z"/>
	<rect x="124.6" y="286.9" class="st7" width="62.6" height="7.3"/>
	<rect x="187.2" y="286.9" class="st2" width="219.6" height="7.3"/>
	<path class="st8" d="M158,294.2h4.1l0,0v119.2c0,1.1-0.9,2-2,2h0c-1.1,0-2-0.9-2-2V294.2L158,294.2z"/>
	<path class="st8" d="M196.9,294.2h4.1l0,0v119.2c0,1.1-0.9,2-2,2h0c-1.1,0-2-0.9-2-2V294.2L196.9,294.2z"/>
	<path class="st2" d="M258.1,285.2h-60.9c-1.5-0.1-2.7-1.1-3-2.5l-8.7-38.8c-0.3-1,0.3-2.1,1.3-2.4c0.2-0.1,0.4-0.1,0.6-0.1h60.9
		c1.5,0.1,2.7,1.1,3,2.5l8.7,38.8c0.3,1-0.3,2.1-1.3,2.4C258.5,285.2,258.3,285.2,258.1,285.2z"/>
	<polygon class="st3" points="257.5,282.5 196.8,282.5 188,243.5 248.8,243.5 	"/>
	<path class="st0" d="M199.3,275.8c0.1,0.4,0.4,0.6,0.8,0.6h41.7c0.3,0,0.5-0.2,0.5-0.5c0-0.1,0-0.1,0-0.2l-5.9-26.3h-43
		L199.3,275.8z"/>
	<g class="st9">
		<path class="st2" d="M223.8,255.5H199c-0.2,0-0.4-0.2-0.4-0.4s0.2-0.4,0.4-0.4c0,0,0,0,0,0h24.8c0.2,0,0.4,0.2,0.4,0.4
			S224,255.4,223.8,255.5C223.8,255.5,223.8,255.5,223.8,255.5z"/>
	</g>
	<g class="st9">
		<path class="st2" d="M207.5,258.3h-7.2c-0.2,0-0.4-0.2-0.4-0.4c0-0.2,0.2-0.4,0.4-0.4c0,0,0,0,0,0h7.2c0.2,0,0.4,0.2,0.4,0.4
			C207.9,258.1,207.7,258.3,207.5,258.3z"/>
	</g>
	<g class="st9">
		<path class="st2" d="M216.7,261.6h-15.3c-0.2,0-0.4-0.2-0.4-0.4c0-0.2,0.2-0.4,0.4-0.4c0,0,0,0,0,0h15.3c0.2,0,0.4,0.2,0.4,0.4
			C217.1,261.4,217,261.6,216.7,261.6C216.8,261.6,216.7,261.6,216.7,261.6z"/>
	</g>
	<g class="st9">
		<path class="st2" d="M221.3,264.4h-18.9c-0.2,0-0.4-0.2-0.4-0.4c0-0.2,0.2-0.4,0.4-0.4h18.9c0.2,0,0.4,0.2,0.4,0.4
			C221.7,264.3,221.5,264.4,221.3,264.4L221.3,264.4z"/>
	</g>
	<g class="st9">
		<path class="st2" d="M214.4,267.3h-11.3c-0.2,0-0.4-0.2-0.4-0.4c0-0.2,0.2-0.4,0.4-0.4c0,0,0,0,0,0h11.3c0.2,0,0.4,0.2,0.4,0.4
			C214.8,267.1,214.7,267.3,214.4,267.3C214.4,267.3,214.4,267.3,214.4,267.3z"/>
	</g>
	<path class="st2" d="M235.5,248.2h-41.7c-0.3,0-0.5,0.2-0.5,0.5c0,0.1,0,0.1,0,0.2l0.2,0.7h43l-0.2-0.7
		C236.2,248.5,235.9,248.2,235.5,248.2z"/>
	<path class="st10" d="M229.5,285.2h52.8c0.5,0,0.8,0.4,0.8,0.8v0c0,0.5-0.4,0.8-0.8,0.8h-52.8c-0.5,0-0.8-0.4-0.8-0.8v0
		C228.6,285.6,229,285.2,229.5,285.2z"/>
	<path class="st8" d="M196.5,285.2h33.7c0.4,0,0.8,0.4,0.8,0.8v0.1c0,0.4-0.4,0.8-0.8,0.8h-33.7c-0.4,0-0.8-0.4-0.8-0.8V286
		C195.7,285.6,196,285.2,196.5,285.2z"/>
	<path class="st11" d="M298.1,212.1c-1,5-1.2,14.8-0.8,17.6s3.4,7.6,5.1,8.2s7.2-0.6,11.9-4.5s9.6-11.9,6.3-20.5
		S299.8,203.5,298.1,212.1z"/>
	<path class="st12" d="M318.8,226.3c6.6,4.9,11.6,16.4,11.6,16.4l-19.7,0.3c-0.3-4.1-4.2-9.3-4.2-9.3
		C306.1,225.9,313.6,222.5,318.8,226.3z"/>
	<path class="st13" d="M302.8,223.9c0.8-2.6-0.3-5.4-2.7-6.7c-2.8-1.7-4.5-0.2-7.3-1.4c-1.9-0.8-4.2-2.9-4.3-5.7
		c-0.1-2.2,1-4.3,2.9-5.3c3-1.4,6.1,2,8,0.6c1.7-1.2,0-4.4,2-6c1.6-1.3,4.4-0.6,6,0.2c2.9,1.4,2.9,3.6,4.9,4.2
		c2.6,0.8,3.9-3.6,7.1-3.4c2.2,0.3,3.9,1.8,4.6,3.9c0.9,2.9-1.6,4.5-0.6,6.8c1.1,2.5,4.7,1.8,5.8,4.4c0.6,1.7,0.2,3.5-1,4.8
		c-1.6,1.7-3.8,0.8-4.4,2.1c-0.7,1.5,2.1,3,1.9,6c-0.1,1.4-0.8,2.6-2,3.3c-1.8,0.8-3.4-1.3-5-0.4c-1.2,0.6-0.6,2.1-2.1,3.2
		c-1.2,0.8-2.7,1.1-4.1,0.7c-1.9-0.4-3.5-1.6-4.5-3.2c-0.4-1.2-1.3-2.3-2.4-3c1.3-0.5,2.3-1.6,2.8-3c0.4-1.5,0.2-3.8-1.4-4.4
		C305.5,221.2,303.6,222,302.8,223.9z"/>
	<path class="st14" d="M257.6,327.5c-4.1,2.8-12,27.3-19,45S225,400.8,225,400.8c0.8,2.1,6.6,2.3,10.9,1.2
		c15.7-41,31.4-45.1,29.7-64.5L257.6,327.5z"/>
	<path class="st14" d="M225,400.8c0.8,2.1,6.6,2.3,10.9,1.2c4.4-11.8,10.1-23,16.9-33.6c-6.8,5.6-13.8,10.7-18.5,14
		C231.6,388.7,228.5,394.9,225,400.8z"/>
	<path class="st13" d="M225,400.8c0,0-2.7,2.6-4,3.9c-3.2,2.5-6.8,4.5-10.6,5.8c-2.3,0.6-4.1,2.5-4.6,4.9h29.7
		c1.2-4.4,1.4-9,0.5-13.4L225,400.8z"/>
	<path class="st15" d="M313.5,310.9l-2.4,8.9c-21.5-1.2-52.9-0.2-55.2,6.6s15.7,29.5,24.5,73.2c2.9,1,6.2,0.8,8.1-1.3
		c-8.1-33.9,0.4-45.8-11.8-57.6c0,0,47.2-0.2,60.3,0s14.6-9.6,14.6-23.4L313.5,310.9z"/>
	<path class="st15" d="M272.7,371.1c3.2,9.3,5.8,18.9,7.8,28.6c2.9,1,6.2,0.8,8.1-1.3c-1.8-7.6-3.1-15.4-3.7-23.3
		C283.7,381.7,278.4,380,272.7,371.1z"/>
	<path class="st16" d="M286.7,406l-13,9.4h7.3c6-3.7,10.4-7.5,13-11.4C292.8,402.9,290.5,403.4,286.7,406z"/>
	<path class="st13" d="M294,404c-0.8-2.6-2.9-4.7-5.5-5.6l-8.1,1.3c0,0-4.5,8-5.4,9.1s-4.6,2.1-7.7,3.2s-3.1,3.4-3.1,3.4h9.5l13-9.4
		C290.5,403.4,292.8,402.9,294,404z"/>
	<path class="st17" d="M307.8,244.4c6.3-6.3,20.9-9.6,26.1-0.8C325.2,243.2,316.5,243.4,307.8,244.4z"/>
	<path class="st18" d="M340.6,245.5c16,14.1,39.8,41.3,25,41.3S342,267.3,342,267.3L340.6,245.5z"/>
	<path class="st17" d="M368,276.7c-3.1,7.2-13.9,4-22.4-3.1c3.9,5.7,10.8,13.4,20.1,13.4C371.5,286.9,371.3,282.6,368,276.7z"/>
	<path class="st18" d="M297.6,248.2c2.3-4.2,32.5-9.1,43-2.6s18.8,44.9,11,71.8l-38.2-6.5C314.9,283.1,295.2,252.6,297.6,248.2z"/>
	<path class="st11" d="M248,282c-1.5-0.2-3.1-1.3-5.1-2.6s-3.3-1.9-4-1.9s-1.7,1.8-1.7,1.8c-2,0.3-1.6,2.5-2.9,2.5s-1.3,2.5-2.3,2.5
		s-2.2,2.6-0.6,2.6H248L248,282z"/>
	<path class="st12" d="M242.9,286c-2.8,0-10.8,0.6-12.1-0.6c-0.3,0.7-0.2,1.5,0.6,1.5H248v-2.7C247.3,285.2,245.3,286,242.9,286z"/>
	<path class="st18" d="M297.6,248.2l-19.2,28.9c-3.6,0-7.2,0.2-10.7,0.6c-4,0.7-11.3,3.1-19,4.1c-2.2,0.3-2.5,5-0.1,5.3
		s32,3.9,36.8,2.4s14.8-13.4,20.8-21.3S303.5,242.3,297.6,248.2z"/>
	<path class="st17" d="M284.5,287c-2.7,0.7-34.8,0-37.4-1.5c0.1,0.8,0.7,1.4,1.5,1.5c2.3,0.2,32,3.9,36.8,2.4s14.8-13.4,20.8-21.3
		c2.4-3.1,2.5-7.6,1.4-11.8C304,267.4,286.8,286.3,284.5,287z"/>
	<path class="st17" d="M323.1,296.5c-0.8,4.4-1.7,10-2.7,15.6l31.3,5.3c2.5-8.8,3.4-18.8,2.9-28.6
		C342.1,288.1,324.9,286.4,323.1,296.5z"/>
	<path class="st14" d="M320.4,312.1c-1.7,9.3-3.9,18.5-6.5,21.5c-4.2,4.9-40.5,4.2-48.1,0.7c6.2,6.2,10.9,6.5,10.9,6.5
		s47.2-0.2,60.3,0s14.6-9.6,14.6-23.4L320.4,312.1z"/>
	<rect x="328.8" y="357.8" class="st8" width="4.4" height="39"/>
	<path class="st8" d="M371.9,286.9h-28.4c-3.1,0-5.8,1.9-6.8,4.8l-18,49.1h-27.1c-0.7,0-1.3,0.6-1.3,1.3c0,0.3,0.1,0.6,0.3,0.8
		c16,20.5,58.3,19.8,74.8,4.8C382.2,332.1,378.3,300.9,371.9,286.9z"/>
	<path class="st7" d="M371.9,286.9h-24.5c4.3,14,5.3,36.7-8.1,48.8c-10.2,9.2-31.5,12.4-48.5,7.5c16.2,20.1,58.2,19.4,74.5,4.5
		C382.2,332.1,378.3,300.9,371.9,286.9z"/>
	<path class="st2" d="M360.5,406.9c-0.1,0-0.2,0-0.3,0l-29.2-9.6l-29.2,9.6c-0.5,0.2-1-0.1-1.2-0.6s0.1-1,0.6-1.2c0,0,0,0,0,0
		l29.5-9.7c0.2-0.1,0.4-0.1,0.6,0l29.5,9.7c0.5,0.2,0.8,0.7,0.6,1.2C361.3,406.7,360.9,406.9,360.5,406.9z"/>
	<path class="st2" d="M331,406.9c-0.5,0-0.9-0.4-0.9-0.9v0v-9.7c0-0.5,0.4-0.9,1-0.9c0.5,0,0.9,0.4,0.9,0.9v9.7
		C331.9,406.5,331.5,406.9,331,406.9z"/>
	<circle class="st8" cx="360.5" cy="408.1" r="3.7"/>
	<circle class="st8" cx="301.5" cy="408.1" r="3.7"/>
	<path class="st8" d="M330.7,405.7h0.6c1,0,1.9,0.8,1.9,1.9v3.6c0,1-0.8,1.9-1.9,1.9h-0.6c-1,0-1.9-0.8-1.9-1.9v-3.6
		C328.8,406.6,329.7,405.7,330.7,405.7z"/>
	<rect x="114.9" y="214.2" class="st3" width="50.4" height="38.2"/>
	<g>
		<defs>
			<rect id="SVGID_1_" x="118.1" y="217.2" width="44" height="32.2"/>
		</defs>
		<clipPath id="SVGID_2_">
			<use xlink:href="#SVGID_1_"  style="overflow:visible;"/>
		</clipPath>
		<g class="st19">
			<rect x="118.1" y="217.2" class="st7" width="44" height="32.2"/>
			<path class="st8" d="M147.3,225c0,2.3-1.8,4.1-4.1,4.1s-4.1-1.8-4.1-4.1c0-2.3,1.8-4.1,4.1-4.1
				C145.5,220.9,147.3,222.7,147.3,225L147.3,225z"/>
			<polygon class="st8" points="173.7,249.4 131.8,249.4 152.8,228.5 			"/>
			<polygon class="st2" points="152.8,249.4 104,249.4 128.4,225 			"/>
		</g>
	</g>
	<rect x="140.1" y="165.2" class="st3" width="50.4" height="38.2"/>
	<rect x="127.6" y="114.6" class="st3" width="50.4" height="38.2"/>
	<g>
		<defs>
			<rect id="SVGID_3_" x="130.8" y="117.7" width="44" height="32.2"/>
		</defs>
		<clipPath id="SVGID_4_">
			<use xlink:href="#SVGID_3_"  style="overflow:visible;"/>
		</clipPath>
		<g class="st20">
			<rect x="130.8" y="117.7" class="st7" width="44" height="32.2"/>
			<path class="st8" d="M160,125.4c0,2.3-1.8,4.1-4.1,4.1c-2.3,0-4.1-1.8-4.1-4.1c0-2.3,1.8-4.1,4.1-4.1
				C158.2,121.3,160,123.2,160,125.4C160,125.4,160,125.4,160,125.4z"/>
			<polygon class="st8" points="186.5,149.9 144.5,149.9 165.5,128.9 			"/>
			<polygon class="st2" points="165.5,149.9 116.7,149.9 141.1,125.5 			"/>
		</g>
	</g>
	<path class="st0" d="M176.7,188h-12.2c-0.4,0-0.8-0.4-0.8-0.8c0-0.2,0.1-0.4,0.2-0.6l6.1-6.1c0.3-0.3,0.8-0.3,1.1,0c0,0,0,0,0,0
		l6.1,6.1c0.3,0.3,0.3,0.8,0,1.1C177.1,187.9,176.9,188,176.7,188z"/>
	<path class="st0" d="M168.7,188h-14.8c-0.4,0-0.8-0.4-0.8-0.8c0-0.2,0.1-0.4,0.2-0.6l7.4-7.4c0.3-0.3,0.8-0.3,1.1,0c0,0,0,0,0,0
		l7.4,7.4c0.3,0.3,0.3,0.8,0,1.1C169.1,187.9,168.9,188,168.7,188z"/>
	<path class="st0" d="M251.5,185.6c-0.4,0-0.8-0.2-1-0.4l-7.7-7.7c-0.6-0.6-0.6-1.5,0-2c0,0,0,0,0,0l7.7-7.7c0.6-0.6,1.5-0.6,2,0
		s0.6,1.5,0,2l-6.6,6.6l6.6,6.6c0.6,0.6,0.6,1.5,0,2C252.2,185.4,251.8,185.6,251.5,185.6z"/>
	<path class="st0" d="M272.7,185.6c-0.8,0-1.4-0.6-1.4-1.4c0-0.4,0.2-0.7,0.4-1l6.6-6.6l-6.6-6.6c-0.6-0.6-0.5-1.5,0-2
		c0.6-0.5,1.5-0.5,2,0l7.7,7.7c0.6,0.6,0.6,1.5,0,2c0,0,0,0,0,0l-7.7,7.7C273.4,185.4,273,185.6,272.7,185.6z"/>
	<path class="st0" d="M258.1,188.7c-0.1,0-0.3,0-0.4-0.1c-0.8-0.2-1.2-1-1-1.8c0,0,0,0,0,0l6.9-23.2c0.2-0.8,1-1.2,1.8-1
		c0.8,0.2,1.2,1,1,1.8l-6.9,23.2C259.3,188.2,258.8,188.7,258.1,188.7z"/>
</g>
</svg>
