<?xml version="1.0" encoding="iso-8859-1"?>
<!-- Generator: Adobe Illustrator 19.0.0, SVG Export Plug-In . SVG Version: 6.00 Build 0)  -->
<svg version="1.1" id="Capa_1" xmlns="http://www.w3.org/2000/svg" xmlns:xlink="http://www.w3.org/1999/xlink" x="0px" y="0px"
	 viewBox="0 0 511 511" style="enable-background:new 0 0 511 511;" xml:space="preserve">
<g>
	<path d="M504.117,44.824l-33.941-33.941C465.737,6.445,459.836,4,453.559,4c-6.277,0-12.179,2.445-16.617,6.883L233.913,213.913
		c-0.885,0.885-1.535,1.978-1.89,3.179l-23.716,80.284c-0.778,2.635-0.053,5.485,1.89,7.428c1.427,1.427,3.343,2.197,5.304,2.197
		c0.709,0,1.424-0.101,2.124-0.307l80.284-23.716c1.201-0.355,2.293-1.004,3.179-1.89L504.117,78.058
		C508.555,73.62,511,67.718,511,61.441C511,55.164,508.555,49.263,504.117,44.824z M295.784,265.177L278.106,247.5L451.5,74.106
		l17.678,17.678L295.784,265.177z M267.5,236.894l-17.677-17.677L423.216,45.822L440.894,63.5L267.5,236.894z M242.834,233.441
		l38.725,38.725l-54.96,16.235L242.834,233.441z M493.51,67.452l-13.726,13.726l-45.962-45.962l13.726-13.726
		c3.315-3.315,8.707-3.314,12.021,0l33.941,33.941C496.824,58.745,496.824,64.137,493.51,67.452z"/>
	<path d="M116.803,326.197c-2.929-2.929-7.678-2.929-10.606,0l-56,56c-2.929,2.929-2.929,7.678,0,10.606l56,56
		c1.464,1.464,3.384,2.197,5.303,2.197s3.839-0.732,5.303-2.197c2.929-2.929,2.929-7.678,0-10.606L66.106,387.5l50.697-50.697
		C119.732,333.875,119.732,329.125,116.803,326.197z"/>
	<path d="M202.197,448.803c1.464,1.464,3.384,2.197,5.303,2.197s3.839-0.732,5.303-2.197l56-56c2.929-2.929,2.929-7.678,0-10.606
		l-56-56c-2.929-2.929-7.678-2.929-10.606,0c-2.929,2.929-2.929,7.678,0,10.606l50.697,50.697l-50.697,50.697
		C199.268,441.125,199.268,445.875,202.197,448.803z"/>
	<path d="M311.5,300c-4.142,0-7.5,3.358-7.5,7.5v160c0,13.509-10.991,24.5-24.5,24.5h-240C25.991,492,15,481.009,15,467.5v-160
		c0-13.509,10.991-24.5,24.5-24.5h144c4.142,0,7.5-3.358,7.5-7.5s-3.358-7.5-7.5-7.5h-144C17.72,268,0,285.72,0,307.5v160
		C0,489.28,17.72,507,39.5,507h240c21.78,0,39.5-17.72,39.5-39.5v-160C319,303.358,315.642,300,311.5,300z"/>
	<path d="M122.2,406.2c-1.4,1.39-2.2,3.33-2.2,5.3c0,1.97,0.8,3.91,2.2,5.3c1.39,1.4,3.33,2.2,5.3,2.2c1.97,0,3.91-0.8,5.3-2.2
		c1.4-1.39,2.2-3.33,2.2-5.3c0-1.97-0.8-3.91-2.2-5.3c-1.39-1.4-3.33-2.2-5.3-2.2C125.53,404,123.59,404.8,122.2,406.2z"/>
	<path d="M184,411.5c0,1.97,0.8,3.91,2.2,5.3c1.39,1.4,3.33,2.2,5.3,2.2c1.97,0,3.91-0.8,5.3-2.2c1.4-1.39,2.2-3.33,2.2-5.3
		c0-1.97-0.8-3.91-2.2-5.3c-1.39-1.4-3.33-2.2-5.3-2.2c-1.97,0-3.91,0.8-5.3,2.2C184.8,407.59,184,409.53,184,411.5z"/>
	<path d="M154.2,406.2c-1.4,1.39-2.2,3.33-2.2,5.3c0,1.97,0.8,3.91,2.2,5.3c1.39,1.4,3.33,2.2,5.3,2.2c1.97,0,3.91-0.8,5.3-2.2
		c1.4-1.39,2.2-3.33,2.2-5.3c0-1.97-0.8-3.91-2.2-5.3c-1.39-1.4-3.33-2.2-5.3-2.2C157.53,404,155.59,404.8,154.2,406.2z"/>
</g>
<g>
</g>
<g>
</g>
<g>
</g>
<g>
</g>
<g>
</g>
<g>
</g>
<g>
</g>
<g>
</g>
<g>
</g>
<g>
</g>
<g>
</g>
<g>
</g>
<g>
</g>
<g>
</g>
<g>
</g>
</svg>
