<?xml version="1.0" encoding="iso-8859-1"?>
<!-- Generator: Adobe Illustrator 19.0.0, SVG Export Plug-In . SVG Version: 6.00 Build 0)  -->
<svg version="1.1" id="Capa_1" xmlns="http://www.w3.org/2000/svg" xmlns:xlink="http://www.w3.org/1999/xlink" x="0px" y="0px"
	 viewBox="0 0 511 511" style="enable-background:new 0 0 511 511;" xml:space="preserve">
<g>
	<path d="M359.5,0h-208C129.72,0,112,17.72,112,39.5v432c0,21.78,17.72,39.5,39.5,39.5h208c21.78,0,39.5-17.72,39.5-39.5v-432
		C399,17.72,381.28,0,359.5,0z M127,79h257v49H127V79z M127,143h257v289H127V143z M151.5,15h208c13.509,0,24.5,10.991,24.5,24.5V64
		H127V39.5C127,25.991,137.991,15,151.5,15z M359.5,496h-208c-13.509,0-24.5-10.991-24.5-24.5V447h257v24.5
		C384,485.009,373.009,496,359.5,496z"/>
	<path d="M231.5,47h48c4.142,0,7.5-3.358,7.5-7.5s-3.358-7.5-7.5-7.5h-48c-4.142,0-7.5,3.358-7.5,7.5S227.358,47,231.5,47z"/>
	<path d="M271.5,464h-32c-4.142,0-7.5,3.358-7.5,7.5s3.358,7.5,7.5,7.5h32c4.142,0,7.5-3.358,7.5-7.5S275.642,464,271.5,464z"/>
	<path d="M199.5,47c1.97,0,3.91-0.8,5.3-2.2c1.4-1.39,2.2-3.33,2.2-5.3c0-1.97-0.8-3.91-2.2-5.3c-1.39-1.4-3.33-2.2-5.3-2.2
		c-1.97,0-3.91,0.8-5.3,2.2c-1.4,1.39-2.2,3.33-2.2,5.3c0,1.97,0.8,3.91,2.2,5.3C195.59,46.2,197.53,47,199.5,47z"/>
	<path d="M170.197,308.803c1.464,1.464,3.384,2.197,5.303,2.197s3.839-0.732,5.303-2.197l56-56c2.929-2.929,2.929-7.678,0-10.606
		l-56-56c-2.929-2.929-7.678-2.929-10.606,0c-2.929,2.929-2.929,7.678,0,10.606l50.697,50.697l-50.697,50.697
		C167.268,301.125,167.268,305.875,170.197,308.803z"/>
	<path d="M247.5,311h80c4.142,0,7.5-3.358,7.5-7.5s-3.358-7.5-7.5-7.5h-80c-4.142,0-7.5,3.358-7.5,7.5S243.358,311,247.5,311z"/>
	<path d="M191.5,352h-32c-8.547,0-15.5,6.953-15.5,15.5v32c0,8.547,6.953,15.5,15.5,15.5h32c8.547,0,15.5-6.953,15.5-15.5v-32
		C207,358.953,200.047,352,191.5,352z M192,399.5c0,0.276-0.224,0.5-0.5,0.5h-32c-0.276,0-0.5-0.224-0.5-0.5v-32
		c0-0.276,0.224-0.5,0.5-0.5h32c0.276,0,0.5,0.224,0.5,0.5V399.5z"/>
	<path d="M271.5,352h-32c-8.547,0-15.5,6.953-15.5,15.5v32c0,8.547,6.953,15.5,15.5,15.5h32c8.547,0,15.5-6.953,15.5-15.5v-32
		C287,358.953,280.047,352,271.5,352z M272,399.5c0,0.276-0.224,0.5-0.5,0.5h-32c-0.276,0-0.5-0.224-0.5-0.5v-32
		c0-0.276,0.224-0.5,0.5-0.5h32c0.276,0,0.5,0.224,0.5,0.5V399.5z"/>
	<path d="M351.5,352h-32c-8.547,0-15.5,6.953-15.5,15.5v32c0,8.547,6.953,15.5,15.5,15.5h32c8.547,0,15.5-6.953,15.5-15.5v-32
		C367,358.953,360.047,352,351.5,352z M352,399.5c0,0.276-0.224,0.5-0.5,0.5h-32c-0.276,0-0.5-0.224-0.5-0.5v-32
		c0-0.276,0.224-0.5,0.5-0.5h32c0.276,0,0.5,0.224,0.5,0.5V399.5z"/>
	<path d="M159.5,96h-8c-4.142,0-7.5,3.358-7.5,7.5s3.358,7.5,7.5,7.5h8c4.142,0,7.5-3.358,7.5-7.5S163.642,96,159.5,96z"/>
	<path d="M359.5,96h-8c-4.142,0-7.5,3.358-7.5,7.5s3.358,7.5,7.5,7.5h8c4.142,0,7.5-3.358,7.5-7.5S363.642,96,359.5,96z"/>
	<path d="M318.5,96h-127c-4.142,0-7.5,3.358-7.5,7.5s3.358,7.5,7.5,7.5h127c4.142,0,7.5-3.358,7.5-7.5S322.642,96,318.5,96z"/>
</g>
<g>
</g>
<g>
</g>
<g>
</g>
<g>
</g>
<g>
</g>
<g>
</g>
<g>
</g>
<g>
</g>
<g>
</g>
<g>
</g>
<g>
</g>
<g>
</g>
<g>
</g>
<g>
</g>
<g>
</g>
</svg>
