<?xml version="1.0" encoding="iso-8859-1"?>
<!-- Generator: Adobe Illustrator 19.0.0, SVG Export Plug-In . SVG Version: 6.00 Build 0)  -->
<svg version="1.1" id="Capa_1" xmlns="http://www.w3.org/2000/svg" xmlns:xlink="http://www.w3.org/1999/xlink" x="0px" y="0px"
	 viewBox="0 0 511 511" style="enable-background:new 0 0 511 511;" xml:space="preserve">
<g>
	<path d="M470.962,102.751c-0.018-0.182-0.049-0.359-0.08-0.537c-0.011-0.063-0.016-0.128-0.029-0.191
		c-0.042-0.21-0.096-0.416-0.155-0.619c-0.009-0.03-0.014-0.061-0.023-0.091c-0.063-0.207-0.138-0.409-0.218-0.608
		c-0.011-0.027-0.019-0.055-0.03-0.081c-0.078-0.189-0.168-0.372-0.261-0.552c-0.019-0.037-0.034-0.075-0.054-0.112
		c-0.089-0.167-0.189-0.327-0.291-0.486c-0.03-0.048-0.057-0.098-0.088-0.145c-0.101-0.151-0.213-0.295-0.324-0.438
		c-0.039-0.05-0.073-0.102-0.113-0.151c-0.156-0.189-0.32-0.372-0.493-0.545L372.804,2.198c-0.173-0.173-0.355-0.338-0.545-0.493
		c-0.049-0.04-0.101-0.074-0.151-0.113c-0.143-0.112-0.287-0.223-0.438-0.324c-0.047-0.032-0.097-0.058-0.145-0.088
		c-0.159-0.101-0.319-0.201-0.486-0.291c-0.036-0.02-0.075-0.035-0.112-0.054c-0.181-0.093-0.364-0.183-0.552-0.261
		c-0.027-0.011-0.054-0.019-0.081-0.03c-0.199-0.08-0.401-0.155-0.608-0.218c-0.03-0.009-0.061-0.015-0.091-0.023
		c-0.203-0.059-0.409-0.114-0.619-0.156c-0.063-0.013-0.128-0.018-0.191-0.029c-0.178-0.031-0.355-0.062-0.537-0.08
		C368.001,0.013,367.751,0,367.5,0h-224C121.72,0,104,17.72,104,39.5V80H71.5C54.131,80,40,94.131,40,111.5v80
		c0,17.369,14.131,31.5,31.5,31.5H104v248.5c0,21.78,17.72,39.5,39.5,39.5h288c21.78,0,39.5-17.72,39.5-39.5v-368
		C471,103.249,470.987,102.999,470.962,102.751z M375,25.606L445.394,96H399.5C385.991,96,375,85.009,375,71.5V25.606z M55,191.5
		v-80c0-9.098,7.402-16.5,16.5-16.5h232c9.098,0,16.5,7.402,16.5,16.5v80c0,9.098-7.402,16.5-16.5,16.5H111.519
		c-0.007,0-0.013-0.001-0.019-0.001S111.487,208,111.481,208H71.5C62.402,208,55,200.598,55,191.5z M431.5,496h-288
		c-13.509,0-24.5-10.991-24.5-24.5V223h184.5c17.369,0,31.5-14.131,31.5-31.5v-80c0-17.369-14.131-31.5-31.5-31.5H119V39.5
		c0-13.509,10.991-24.5,24.5-24.5H360v56.5c0,21.78,17.72,39.5,39.5,39.5H456v360.5C456,485.009,445.009,496,431.5,496z"/>
	<path d="M327.5,408c-1.97,0-3.91,0.8-5.3,2.2c-1.4,1.39-2.2,3.33-2.2,5.3c0,1.97,0.8,3.91,2.2,5.3c1.39,1.4,3.33,2.2,5.3,2.2
		c1.97,0,3.91-0.8,5.3-2.2c1.4-1.39,2.2-3.33,2.2-5.3c0-1.97-0.8-3.91-2.2-5.3C331.41,408.8,329.47,408,327.5,408z"/>
	<path d="M95,167h20.5c15.164,0,27.5-12.336,27.5-27.5S130.664,112,115.5,112h-28c-4.142,0-7.5,3.358-7.5,7.5v64
		c0,4.142,3.358,7.5,7.5,7.5s7.5-3.358,7.5-7.5V167z M128,139.5c0,6.893-5.607,12.5-12.5,12.5H95v-25h20.5
		C122.393,127,128,132.607,128,139.5z"/>
	<path d="M247.5,191c4.142,0,7.5-3.358,7.5-7.5V167h20.5c15.164,0,27.5-12.336,27.5-27.5S290.664,112,275.5,112h-28
		c-4.142,0-7.5,3.358-7.5,7.5v64C240,187.642,243.358,191,247.5,191z M288,139.5c0,6.893-5.607,12.5-12.5,12.5H255v-25h20.5
		C282.393,127,288,132.607,288,139.5z"/>
	<path d="M159.5,191c4.142,0,7.5-3.358,7.5-7.5V167h41v16.5c0,4.142,3.358,7.5,7.5,7.5s7.5-3.358,7.5-7.5v-64
		c0-4.142-3.358-7.5-7.5-7.5s-7.5,3.358-7.5,7.5V152h-41v-32.5c0-4.142-3.358-7.5-7.5-7.5s-7.5,3.358-7.5,7.5v64
		C152,187.642,155.358,191,159.5,191z"/>
	<path d="M268.803,298.197c-2.929-2.929-7.678-2.929-10.606,0l-56,56c-2.929,2.929-2.929,7.678,0,10.606l56,56
		c1.464,1.464,3.384,2.197,5.303,2.197s3.839-0.732,5.303-2.197c2.929-2.929,2.929-7.678,0-10.606L218.106,359.5l50.697-50.697
		C271.732,305.875,271.732,301.125,268.803,298.197z"/>
	<path d="M327.5,296c-26.191,0-47.5,21.309-47.5,47.5c0,4.142,3.358,7.5,7.5,7.5s7.5-3.358,7.5-7.5c0-17.92,14.58-32.5,32.5-32.5
		s32.5,14.58,32.5,32.5S345.42,376,327.5,376c-4.142,0-7.5,3.358-7.5,7.5v8c0,4.142,3.358,7.5,7.5,7.5s7.5-3.358,7.5-7.5v-1.091
		c22.641-3.606,40-23.269,40-46.909C375,317.309,353.691,296,327.5,296z"/>
</g>
<g>
</g>
<g>
</g>
<g>
</g>
<g>
</g>
<g>
</g>
<g>
</g>
<g>
</g>
<g>
</g>
<g>
</g>
<g>
</g>
<g>
</g>
<g>
</g>
<g>
</g>
<g>
</g>
<g>
</g>
</svg>
