<?xml version="1.0" encoding="iso-8859-1"?>
<!-- Generator: Adobe Illustrator 19.0.0, SVG Export Plug-In . SVG Version: 6.00 Build 0)  -->
<svg version="1.1" id="Capa_1" xmlns="http://www.w3.org/2000/svg" xmlns:xlink="http://www.w3.org/1999/xlink" x="0px" y="0px"
	 viewBox="0 0 511 511" style="enable-background:new 0 0 511 511;" xml:space="preserve">
<g>
	<path d="M39.5,103c1.97,0,3.91-0.8,5.3-2.2c1.4-1.39,2.2-3.32,2.2-5.3c0-1.97-0.8-3.91-2.2-5.3c-1.39-1.4-3.33-2.2-5.3-2.2
		c-1.97,0-3.91,0.8-5.3,2.2c-1.4,1.39-2.2,3.33-2.2,5.3s0.8,3.91,2.2,5.3C35.59,102.2,37.53,103,39.5,103z"/>
	<path d="M63.5,103c1.97,0,3.91-0.8,5.3-2.2c1.4-1.39,2.2-3.33,2.2-5.3s-0.8-3.91-2.2-5.3c-1.39-1.4-3.33-2.2-5.3-2.2
		c-1.97,0-3.91,0.8-5.3,2.2c-1.4,1.39-2.2,3.33-2.2,5.3s0.8,3.91,2.2,5.3C59.59,102.2,61.53,103,63.5,103z"/>
	<path d="M87.5,103c1.97,0,3.91-0.8,5.3-2.2c1.4-1.39,2.2-3.33,2.2-5.3s-0.8-3.91-2.2-5.3c-1.39-1.4-3.33-2.2-5.3-2.2
		c-1.98,0-3.91,0.8-5.3,2.2c-1.4,1.39-2.2,3.33-2.2,5.3s0.8,3.91,2.2,5.3C83.59,102.2,85.53,103,87.5,103z"/>
	<path d="M119.5,103h304c4.142,0,7.5-3.358,7.5-7.5s-3.358-7.5-7.5-7.5h-304c-4.142,0-7.5,3.358-7.5,7.5S115.358,103,119.5,103z"/>
	<path d="M455.5,103h16c4.142,0,7.5-3.358,7.5-7.5s-3.358-7.5-7.5-7.5h-16c-4.142,0-7.5,3.358-7.5,7.5S451.358,103,455.5,103z"/>
	<path d="M223.5,168h-160c-8.547,0-15.5,6.953-15.5,15.5v32c0,8.547,6.953,15.5,15.5,15.5h160c8.547,0,15.5-6.953,15.5-15.5v-32
		C239,174.953,232.047,168,223.5,168z M224,215.5c0,0.275-0.224,0.5-0.5,0.5h-160c-0.276,0-0.5-0.225-0.5-0.5v-32
		c0-0.275,0.224-0.5,0.5-0.5h160c0.276,0,0.5,0.225,0.5,0.5V215.5z"/>
	<path d="M455.5,192h-49.734c-3.138-9.29-11.93-16-22.266-16s-19.128,6.71-22.266,16H343.5c-4.142,0-7.5,3.358-7.5,7.5
		s3.358,7.5,7.5,7.5h17.734c3.138,9.29,11.93,16,22.266,16s19.128-6.71,22.266-16H455.5c4.142,0,7.5-3.358,7.5-7.5
		S459.642,192,455.5,192z M383.5,208c-4.687,0-8.5-3.813-8.5-8.5s3.813-8.5,8.5-8.5s8.5,3.813,8.5,8.5S388.187,208,383.5,208z"/>
	<path d="M287.5,168c-17.369,0-31.5,14.131-31.5,31.5s14.131,31.5,31.5,31.5s31.5-14.131,31.5-31.5S304.869,168,287.5,168z
		 M287.5,216c-9.098,0-16.5-7.402-16.5-16.5s7.402-16.5,16.5-16.5s16.5,7.402,16.5,16.5S296.598,216,287.5,216z"/>
	<path d="M223.5,256h-160c-8.547,0-15.5,6.953-15.5,15.5v32c0,8.547,6.953,15.5,15.5,15.5h160c8.547,0,15.5-6.953,15.5-15.5v-32
		C239,262.953,232.047,256,223.5,256z M224,303.5c0,0.275-0.224,0.5-0.5,0.5h-160c-0.276,0-0.5-0.225-0.5-0.5v-32
		c0-0.275,0.224-0.5,0.5-0.5h160c0.276,0,0.5,0.225,0.5,0.5V303.5z"/>
	<path d="M455.5,280h-9.738c-3.138-9.29-11.93-16-22.266-16s-19.128,6.71-22.266,16H343.5c-4.142,0-7.5,3.358-7.5,7.5
		s3.358,7.5,7.5,7.5h57.731c3.138,9.29,11.93,16,22.266,16s19.128-6.71,22.266-16h9.738c4.142,0,7.5-3.358,7.5-7.5
		S459.642,280,455.5,280z M423.497,296c-4.687,0-8.5-3.813-8.5-8.5s3.813-8.5,8.5-8.5s8.5,3.813,8.5,8.5S428.184,296,423.497,296z"
		/>
	<path d="M287.5,256c-17.369,0-31.5,14.131-31.5,31.5s14.131,31.5,31.5,31.5s31.5-14.131,31.5-31.5S304.869,256,287.5,256z
		 M287.5,304c-9.098,0-16.5-7.402-16.5-16.5s7.402-16.5,16.5-16.5s16.5,7.402,16.5,16.5S296.598,304,287.5,304z"/>
	<path d="M223.5,344h-160c-8.547,0-15.5,6.953-15.5,15.5v32c0,8.547,6.953,15.5,15.5,15.5h160c8.547,0,15.5-6.953,15.5-15.5v-32
		C239,350.953,232.047,344,223.5,344z M224,391.5c0,0.275-0.224,0.5-0.5,0.5h-160c-0.276,0-0.5-0.225-0.5-0.5v-32
		c0-0.275,0.224-0.5,0.5-0.5h160c0.276,0,0.5,0.225,0.5,0.5V391.5z"/>
	<path d="M455.5,368h-41.738c-3.138-9.29-11.93-16-22.266-16s-19.128,6.71-22.266,16H343.5c-4.142,0-7.5,3.358-7.5,7.5
		s3.358,7.5,7.5,7.5h25.731c3.138,9.29,11.93,16,22.266,16s19.128-6.71,22.266-16H455.5c4.142,0,7.5-3.358,7.5-7.5
		S459.642,368,455.5,368z M391.497,384c-4.687,0-8.5-3.813-8.5-8.5s3.813-8.5,8.5-8.5s8.5,3.813,8.5,8.5S396.184,384,391.497,384z"
		/>
	<path d="M287.5,344c-17.369,0-31.5,14.131-31.5,31.5s14.131,31.5,31.5,31.5s31.5-14.131,31.5-31.5S304.869,344,287.5,344z
		 M287.5,392c-9.098,0-16.5-7.402-16.5-16.5s7.402-16.5,16.5-16.5s16.5,7.402,16.5,16.5S296.598,392,287.5,392z"/>
	<path d="M471.5,56h-432C17.72,56,0,73.72,0,95.5v320C0,437.28,17.72,455,39.5,455h432c21.78,0,39.5-17.72,39.5-39.5v-320
		C511,73.72,493.28,56,471.5,56z M39.5,71h432c13.509,0,24.5,10.991,24.5,24.5V120H15V95.5C15,81.991,25.991,71,39.5,71z M471.5,440
		h-432C25.991,440,15,429.009,15,415.5V135h481v280.5C496,429.009,485.009,440,471.5,440z"/>
</g>
<g>
</g>
<g>
</g>
<g>
</g>
<g>
</g>
<g>
</g>
<g>
</g>
<g>
</g>
<g>
</g>
<g>
</g>
<g>
</g>
<g>
</g>
<g>
</g>
<g>
</g>
<g>
</g>
<g>
</g>
</svg>
