<svg xmlns="http://www.w3.org/2000/svg" xmlns:xlink="http://www.w3.org/1999/xlink" data-name="Layer 1" viewBox="0 0 48 48"><defs><linearGradient id="5z-spO3aYDm_eq6vBFXMNa" x1="24.02" x2="23.97" y1="15.55" y2="27.64" gradientUnits="userSpaceOnUse"><stop offset="0" stop-color="#eff4fe"/><stop offset="1" stop-color="#afbcfc"/></linearGradient><linearGradient id="5z-spO3aYDm_eq6vBFXMNb" x1="24.04" x2="23.92" y1="15.71" y2="27.74" gradientUnits="userSpaceOnUse"><stop offset="0" stop-color="#eef3fe"/><stop offset="1" stop-color="#abb8fc"/></linearGradient><linearGradient id="5z-spO3aYDm_eq6vBFXMNc" x1="24.07" x2="23.87" y1="15.87" y2="27.84" gradientUnits="userSpaceOnUse"><stop offset="0" stop-color="#edf3fe"/><stop offset="1" stop-color="#a6b4fc"/></linearGradient><linearGradient id="5z-spO3aYDm_eq6vBFXMNd" x1="24.09" x2="23.81" y1="16.03" y2="27.93" gradientUnits="userSpaceOnUse"><stop offset="0" stop-color="#ecf2fe"/><stop offset="1" stop-color="#a2b1fb"/></linearGradient><linearGradient id="5z-spO3aYDm_eq6vBFXMNe" x1="24.11" x2="23.76" y1="16.18" y2="28.02" gradientUnits="userSpaceOnUse"><stop offset="0" stop-color="#ebf2fe"/><stop offset="1" stop-color="#9dadfb"/></linearGradient><linearGradient id="5z-spO3aYDm_eq6vBFXMNf" x1="24.13" x2="23.7" y1="16.33" y2="28.1" gradientUnits="userSpaceOnUse"><stop offset="0" stop-color="#ebf1fe"/><stop offset="1" stop-color="#99a9fb"/></linearGradient><linearGradient id="5z-spO3aYDm_eq6vBFXMNg" x1="24.15" x2="23.65" y1="16.48" y2="28.18" gradientUnits="userSpaceOnUse"><stop offset="0" stop-color="#eaf1fe"/><stop offset="1" stop-color="#94a5fb"/></linearGradient><linearGradient id="5z-spO3aYDm_eq6vBFXMNh" x1="24.16" x2="23.59" y1="16.63" y2="28.25" gradientUnits="userSpaceOnUse"><stop offset="0" stop-color="#e9f0fe"/><stop offset="1" stop-color="#90a2fa"/></linearGradient><linearGradient id="5z-spO3aYDm_eq6vBFXMNi" x1="24.17" x2="23.53" y1="16.77" y2="28.31" gradientUnits="userSpaceOnUse"><stop offset="0" stop-color="#e8f0fe"/><stop offset="1" stop-color="#8b9efa"/></linearGradient><linearGradient id="5z-spO3aYDm_eq6vBFXMNj" x1="24.19" x2="23.48" y1="16.92" y2="28.37" gradientUnits="userSpaceOnUse"><stop offset="0" stop-color="#e7effe"/><stop offset="1" stop-color="#879afa"/></linearGradient><linearGradient id="5z-spO3aYDm_eq6vBFXMNu" x1="24" x2="24" y1="30.8" y2="32.3" xlink:href="#5z-spO3aYDm_eq6vBFXMNa"/><linearGradient id="5z-spO3aYDm_eq6vBFXMNv" x1="24" x2="24" y1="30.74" y2="32.38" xlink:href="#5z-spO3aYDm_eq6vBFXMNb"/><linearGradient id="5z-spO3aYDm_eq6vBFXMNw" x1="24" x2="24" y1="30.7" y2="32.45" xlink:href="#5z-spO3aYDm_eq6vBFXMNc"/><linearGradient id="5z-spO3aYDm_eq6vBFXMNx" x1="24" x2="24" y1="30.66" y2="32.5" xlink:href="#5z-spO3aYDm_eq6vBFXMNd"/><linearGradient id="5z-spO3aYDm_eq6vBFXMNy" x1="24" x2="24" y1="30.62" y2="32.54" xlink:href="#5z-spO3aYDm_eq6vBFXMNe"/><linearGradient id="5z-spO3aYDm_eq6vBFXMNz" x1="24" x2="24" y1="30.6" y2="32.56" xlink:href="#5z-spO3aYDm_eq6vBFXMNf"/><linearGradient id="5z-spO3aYDm_eq6vBFXMNA" x1="24" x2="24" y1="30.58" y2="32.57" xlink:href="#5z-spO3aYDm_eq6vBFXMNg"/><linearGradient id="5z-spO3aYDm_eq6vBFXMNB" x1="24" x2="24" y1="30.57" y2="32.56" xlink:href="#5z-spO3aYDm_eq6vBFXMNh"/><linearGradient id="5z-spO3aYDm_eq6vBFXMNC" x1="24" x2="24" y1="30.57" y2="32.54" xlink:href="#5z-spO3aYDm_eq6vBFXMNi"/><linearGradient id="5z-spO3aYDm_eq6vBFXMND" x1="24" x2="24" y1="30.57" y2="32.5" xlink:href="#5z-spO3aYDm_eq6vBFXMNj"/><radialGradient id="5z-spO3aYDm_eq6vBFXMNk" cx="14.02" cy="5.61" r="54.48" fx="14.02" fy="5.61" gradientUnits="userSpaceOnUse"><stop offset="0" stop-color="#f5f8ff"/><stop offset=".55" stop-color="#bec7f9"/><stop offset=".97" stop-color="#d6b5f3"/></radialGradient><radialGradient id="5z-spO3aYDm_eq6vBFXMNl" cx="14.28" cy="5.88" r="52.39" fx="14.28" fy="5.88" gradientUnits="userSpaceOnUse"><stop offset="0" stop-color="#f3f7ff"/><stop offset=".55" stop-color="#afbbf8"/><stop offset=".97" stop-color="#cda5f0"/></radialGradient><radialGradient id="5z-spO3aYDm_eq6vBFXMNm" cx="14.53" cy="6.16" r="50.34" fx="14.53" fy="6.16" gradientUnits="userSpaceOnUse"><stop offset="0" stop-color="#f1f5ff"/><stop offset=".55" stop-color="#a1aef7"/><stop offset=".97" stop-color="#c494ee"/></radialGradient><radialGradient id="5z-spO3aYDm_eq6vBFXMNn" cx="14.79" cy="6.45" r="48.3" fx="14.79" fy="6.45" gradientUnits="userSpaceOnUse"><stop offset="0" stop-color="#eff4ff"/><stop offset=".55" stop-color="#92a2f5"/><stop offset=".97" stop-color="#bb84eb"/></radialGradient><radialGradient id="5z-spO3aYDm_eq6vBFXMNo" cx="15.05" cy="6.76" r="46.3" fx="15.05" fy="6.76" gradientUnits="userSpaceOnUse"><stop offset="0" stop-color="#edf2ff"/><stop offset=".55" stop-color="#8496f4"/><stop offset=".97" stop-color="#b273e8"/></radialGradient><radialGradient id="5z-spO3aYDm_eq6vBFXMNp" cx="15.31" cy="7.09" r="44.32" fx="15.31" fy="7.09" gradientUnits="userSpaceOnUse"><stop offset="0" stop-color="#eaf1fe"/><stop offset=".55" stop-color="#7589f3"/><stop offset=".97" stop-color="#a863e6"/></radialGradient><radialGradient id="5z-spO3aYDm_eq6vBFXMNq" cx="15.57" cy="7.43" r="42.36" fx="15.57" fy="7.43" gradientUnits="userSpaceOnUse"><stop offset="0" stop-color="#e8effe"/><stop offset=".55" stop-color="#677df2"/><stop offset=".97" stop-color="#9f52e3"/></radialGradient><radialGradient id="5z-spO3aYDm_eq6vBFXMNr" cx="15.84" cy="7.79" r="40.44" fx="15.84" fy="7.79" gradientUnits="userSpaceOnUse"><stop offset="0" stop-color="#e6eefe"/><stop offset=".55" stop-color="#5871f0"/><stop offset=".97" stop-color="#9642e0"/></radialGradient><radialGradient id="5z-spO3aYDm_eq6vBFXMNs" cx="16.1" cy="8.16" r="38.54" fx="16.1" fy="8.16" gradientUnits="userSpaceOnUse"><stop offset="0" stop-color="#e4ecfe"/><stop offset=".55" stop-color="#4a64ef"/><stop offset=".97" stop-color="#8d31de"/></radialGradient><radialGradient id="5z-spO3aYDm_eq6vBFXMNt" cx="16.37" cy="8.54" r="36.67" fx="16.37" fy="8.54" gradientUnits="userSpaceOnUse"><stop offset="0" stop-color="#e2ebfe"/><stop offset=".55" stop-color="#3b58ee"/><stop offset=".97" stop-color="#8421db"/></radialGradient></defs><path fill="url(#5z-spO3aYDm_eq6vBFXMNk)" d="m24,4C12.95,4,4,12.95,4,24c0,3.72,1.01,7.19,2.78,10.17l-1.89,6.73c-.44,1.58,1.1,3,2.64,2.41l5.98-2.28c3.05,1.88,6.65,2.97,10.5,2.97,11.05,0,20-8.95,20-20S35.05,4,24,4Z"/><path fill="url(#5z-spO3aYDm_eq6vBFXMNl)" d="m24,4.57C13.27,4.57,4.57,13.27,4.57,24c0,3.61.98,6.99,2.7,9.89l-1.84,6.54c-.43,1.54,1.07,2.91,2.56,2.34l5.81-2.22c2.96,1.83,6.46,2.89,10.2,2.89,10.73,0,19.43-8.7,19.43-19.43S34.73,4.57,24,4.57Z"/><path fill="url(#5z-spO3aYDm_eq6vBFXMNm)" d="m24,5.14C13.58,5.14,5.14,13.58,5.14,24c0,3.5.96,6.79,2.62,9.6l-1.78,6.35c-.42,1.49,1.04,2.83,2.49,2.27l5.64-2.15c2.88,1.78,6.27,2.8,9.9,2.8,10.42,0,18.86-8.45,18.86-18.86S34.42,5.14,24,5.14Z"/><path fill="url(#5z-spO3aYDm_eq6vBFXMNn)" d="m24,5.7C13.89,5.7,5.7,13.89,5.7,24c0,3.4.93,6.58,2.54,9.31l-1.73,6.16c-.41,1.45,1.01,2.74,2.41,2.2l5.47-2.09c2.79,1.72,6.08,2.72,9.6,2.72,10.11,0,18.3-8.19,18.3-18.3S34.11,5.7,24,5.7Z"/><path fill="url(#5z-spO3aYDm_eq6vBFXMNo)" d="m24,6.27c-9.79,0-17.73,7.94-17.73,17.73,0,3.29.9,6.38,2.46,9.02l-1.68,5.96c-.39,1.4.98,2.66,2.34,2.14l5.3-2.03c2.7,1.67,5.89,2.64,9.3,2.64,9.79,0,17.73-7.94,17.73-17.73S33.79,6.27,24,6.27Z"/><path fill="url(#5z-spO3aYDm_eq6vBFXMNp)" d="m24,6.84c-9.48,0-17.16,7.68-17.16,17.16,0,3.19.87,6.17,2.38,8.73l-1.62,5.77c-.38,1.36.95,2.57,2.26,2.07l5.13-1.96c2.62,1.62,5.7,2.55,9.01,2.55,9.48,0,17.16-7.68,17.16-17.16S33.48,6.84,24,6.84Z"/><path fill="url(#5z-spO3aYDm_eq6vBFXMNq)" d="m24,7.41c-9.16,0-16.59,7.43-16.59,16.59,0,3.08.84,5.97,2.3,8.44l-1.57,5.58c-.37,1.31.92,2.49,2.19,2l4.96-1.9c2.53,1.56,5.51,2.47,8.71,2.47,9.16,0,16.59-7.43,16.59-16.59S33.16,7.41,24,7.41Z"/><path fill="url(#5z-spO3aYDm_eq6vBFXMNr)" d="m24,7.97c-8.85,0-16.03,7.18-16.03,16.03,0,2.98.81,5.76,2.23,8.15l-1.51,5.39c-.36,1.27.88,2.4,2.12,1.93l4.79-1.83c2.44,1.51,5.33,2.38,8.41,2.38,8.85,0,16.03-7.18,16.03-16.03S32.85,7.97,24,7.97Z"/><path fill="url(#5z-spO3aYDm_eq6vBFXMNs)" d="m24,8.54c-8.54,0-15.46,6.92-15.46,15.46,0,2.87.78,5.56,2.15,7.86l-1.46,5.2c-.34,1.22.85,2.32,2.04,1.86l4.62-1.77c2.36,1.46,5.14,2.3,8.11,2.3,8.54,0,15.46-6.92,15.46-15.46s-6.92-15.46-15.46-15.46Z"/><path fill="url(#5z-spO3aYDm_eq6vBFXMNt)" d="m24,9.11c-8.22,0-14.89,6.67-14.89,14.89,0,2.77.75,5.36,2.07,7.58l-1.41,5.01c-.33,1.18.82,2.23,1.97,1.79l4.45-1.7c2.27,1.4,4.95,2.21,7.81,2.21,8.22,0,14.89-6.67,14.89-14.89s-6.67-14.89-14.89-14.89Z"/><g><path fill="url(#5z-spO3aYDm_eq6vBFXMNa)" d="m24,27.38c-.62,0-1.13-.5-1.13-1.13,0-2.12,1.15-3.02,1.98-3.67.81-.63,1.39-1.08,1.39-2.71,0-1.24-1.01-2.25-2.25-2.25s-2.25,1.01-2.25,2.25v.38c0,.62-.5,1.13-1.13,1.13s-1.13-.5-1.13-1.13v-.38c0-2.48,2.02-4.5,4.5-4.5s4.5,2.02,4.5,4.5c0,2.72-1.31,3.74-2.26,4.48-.74.58-1.12.87-1.12,1.89,0,.62-.5,1.13-1.13,1.13Z"/><path fill="url(#5z-spO3aYDm_eq6vBFXMNb)" d="m24,27.29c-.58,0-1.04-.47-1.04-1.04,0-2.08,1.12-2.95,1.95-3.6.81-.63,1.42-1.11,1.42-2.77,0-1.29-1.05-2.33-2.33-2.33s-2.33,1.05-2.33,2.33v.38c0,.58-.47,1.04-1.04,1.04s-1.04-.47-1.04-1.04v-.38c0-2.44,1.98-4.42,4.42-4.42s4.42,1.98,4.42,4.42c0,2.68-1.28,3.68-2.23,4.42-.75.58-1.15.9-1.15,1.96,0,.58-.47,1.04-1.04,1.04Z"/><path fill="url(#5z-spO3aYDm_eq6vBFXMNc)" d="m24,27.21c-.53,0-.96-.43-.96-.96,0-2.04,1.08-2.88,1.92-3.54.82-.64,1.46-1.13,1.46-2.84,0-1.33-1.08-2.42-2.42-2.42s-2.42,1.08-2.42,2.42v.38c0,.53-.43.96-.96.96s-.96-.43-.96-.96v-.38c0-2.39,1.94-4.33,4.33-4.33s4.33,1.94,4.33,4.33c0,2.64-1.25,3.62-2.19,4.35-.75.59-1.18.92-1.18,2.02,0,.53-.43.96-.96.96Z"/><path fill="url(#5z-spO3aYDm_eq6vBFXMNd)" d="m24,27.13c-.48,0-.88-.39-.88-.88,0-2,1.05-2.82,1.89-3.47.83-.64,1.49-1.16,1.49-2.91,0-1.38-1.12-2.5-2.5-2.5s-2.5,1.12-2.5,2.5v.38c0,.48-.39.88-.88.88s-.88-.39-.88-.88v-.38c0-2.34,1.91-4.25,4.25-4.25s4.25,1.91,4.25,4.25c0,2.6-1.22,3.55-2.16,4.29-.76.59-1.21.95-1.21,2.09,0,.48-.39.88-.88.88Z"/><path fill="url(#5z-spO3aYDm_eq6vBFXMNe)" d="m24,27.04c-.44,0-.79-.35-.79-.79,0-1.96,1.02-2.75,1.86-3.41.83-.65,1.52-1.18,1.52-2.97,0-1.42-1.16-2.58-2.58-2.58s-2.58,1.16-2.58,2.58v.38c0,.44-.35.79-.79.79s-.79-.35-.79-.79v-.38c0-2.3,1.87-4.17,4.17-4.17s4.17,1.87,4.17,4.17c0,2.56-1.19,3.49-2.13,4.22-.76.59-1.25.97-1.25,2.16,0,.44-.35.79-.79.79Z"/><path fill="url(#5z-spO3aYDm_eq6vBFXMNf)" d="m24,26.96c-.39,0-.71-.32-.71-.71,0-1.92.99-2.69,1.82-3.34.84-.65,1.55-1.21,1.55-3.04,0-1.47-1.2-2.67-2.67-2.67s-2.67,1.2-2.67,2.67v.38c0,.39-.32.71-.71.71s-.71-.32-.71-.71v-.38c0-2.25,1.83-4.08,4.08-4.08s4.08,1.83,4.08,4.08c0,2.52-1.16,3.43-2.1,4.16-.77.6-1.28,1-1.28,2.22,0,.39-.32.71-.71.71Z"/><path fill="url(#5z-spO3aYDm_eq6vBFXMNg)" d="m24,26.88c-.35,0-.63-.28-.63-.63,0-1.88.96-2.62,1.79-3.27.85-.66,1.58-1.23,1.58-3.1,0-1.52-1.23-2.75-2.75-2.75s-2.75,1.23-2.75,2.75v.38c0,.35-.28.63-.63.63s-.63-.28-.63-.63v-.38c0-2.21,1.79-4,4-4s4,1.79,4,4c0,2.48-1.13,3.36-2.07,4.09-.77.6-1.31,1.02-1.31,2.29,0,.35-.28.63-.63.63Z"/><path fill="url(#5z-spO3aYDm_eq6vBFXMNh)" d="m24,26.79c-.3,0-.54-.24-.54-.54,0-1.84.93-2.56,1.76-3.21.85-.66,1.62-1.26,1.62-3.17,0-1.56-1.27-2.83-2.83-2.83s-2.83,1.27-2.83,2.83v.38c0,.3-.24.54-.54.54s-.54-.24-.54-.54v-.38c0-2.16,1.76-3.92,3.92-3.92s3.92,1.76,3.92,3.92c0,2.44-1.1,3.3-2.03,4.02-.78.61-1.34,1.05-1.34,2.35,0,.3-.24.54-.54.54Z"/><path fill="url(#5z-spO3aYDm_eq6vBFXMNi)" d="m24,26.71c-.25,0-.46-.21-.46-.46,0-1.8.89-2.49,1.73-3.14.86-.67,1.65-1.28,1.65-3.23,0-1.61-1.31-2.92-2.92-2.92s-2.92,1.31-2.92,2.92v.38c0,.25-.21.46-.46.46s-.46-.21-.46-.46v-.38c0-2.11,1.72-3.83,3.83-3.83s3.83,1.72,3.83,3.83c0,2.4-1.07,3.24-2,3.96-.78.61-1.37,1.07-1.37,2.42,0,.25-.21.46-.46.46Z"/><path fill="url(#5z-spO3aYDm_eq6vBFXMNj)" d="m24,26.63c-.21,0-.38-.17-.38-.38,0-1.75.86-2.43,1.7-3.08.86-.67,1.68-1.31,1.68-3.3,0-1.65-1.35-3-3-3s-3,1.35-3,3v.38c0,.21-.17.38-.38.38s-.38-.17-.38-.38v-.38c0-2.07,1.68-3.75,3.75-3.75s3.75,1.68,3.75,3.75c0,2.36-1.05,3.17-1.97,3.89-.79.61-1.41,1.1-1.41,2.48,0,.21-.17.38-.38.38Z"/></g><g><circle cx="24" cy="31.13" r="1.5" fill="url(#5z-spO3aYDm_eq6vBFXMNu)"/><circle cx="24" cy="31.13" r="1.43" fill="url(#5z-spO3aYDm_eq6vBFXMNv)"/><circle cx="24" cy="31.13" r="1.35" fill="url(#5z-spO3aYDm_eq6vBFXMNw)"/><circle cx="24" cy="31.13" r="1.27" fill="url(#5z-spO3aYDm_eq6vBFXMNx)"/><circle cx="24" cy="31.13" r="1.2" fill="url(#5z-spO3aYDm_eq6vBFXMNy)"/><circle cx="24" cy="31.13" r="1.12" fill="url(#5z-spO3aYDm_eq6vBFXMNz)"/><circle cx="24" cy="31.13" r="1.05" fill="url(#5z-spO3aYDm_eq6vBFXMNA)"/><circle cx="24" cy="31.13" r=".97" fill="url(#5z-spO3aYDm_eq6vBFXMNB)"/><circle cx="24" cy="31.13" r=".9" fill="url(#5z-spO3aYDm_eq6vBFXMNC)"/><circle cx="24" cy="31.13" r=".82" fill="url(#5z-spO3aYDm_eq6vBFXMND)"/></g></svg>