<svg xmlns="http://www.w3.org/2000/svg" data-name="Layer 1" viewBox="0 0 48 48"><defs><radialGradient id="7evH4LLbzhAaxAppUurWTa" cx="12.52" cy="16.43" r="24.15" fx="12.52" fy="16.43" gradientTransform="matrix(-1 0 0 1 34 0)" gradientUnits="userSpaceOnUse"><stop offset="0" stop-color="#f2fcff"/><stop offset=".55" stop-color="#c1f3f9"/><stop offset=".97" stop-color="#baccfd"/></radialGradient><radialGradient id="7evH4LLbzhAaxAppUurWTb" cx="11.84" cy="17.1" r="23.83" fx="11.84" fy="17.1" gradientTransform="matrix(-1 0 0 1 34 0)" gradientUnits="userSpaceOnUse"><stop offset="0" stop-color="#effbff"/><stop offset=".55" stop-color="#b3f0f8"/><stop offset=".97" stop-color="#abc1fd"/></radialGradient><radialGradient id="7evH4LLbzhAaxAppUurWTc" cx="11.18" cy="17.74" r="23.48" fx="11.18" fy="17.74" gradientTransform="matrix(-1 0 0 1 34 0)" gradientUnits="userSpaceOnUse"><stop offset="0" stop-color="#ecfbff"/><stop offset=".55" stop-color="#a5edf7"/><stop offset=".97" stop-color="#9bb5fc"/></radialGradient><radialGradient id="7evH4LLbzhAaxAppUurWTd" cx="10.54" cy="18.36" r="23.1" fx="10.54" fy="18.36" gradientTransform="matrix(-1 0 0 1 34 0)" gradientUnits="userSpaceOnUse"><stop offset="0" stop-color="#eafaff"/><stop offset=".55" stop-color="#98ebf5"/><stop offset=".97" stop-color="#8caafc"/></radialGradient><radialGradient id="7evH4LLbzhAaxAppUurWTe" cx="9.93" cy="18.97" r="22.71" fx="9.93" fy="18.97" gradientTransform="matrix(-1 0 0 1 34 0)" gradientUnits="userSpaceOnUse"><stop offset="0" stop-color="#e7f9ff"/><stop offset=".55" stop-color="#8ae8f4"/><stop offset=".97" stop-color="#7c9ffc"/></radialGradient><radialGradient id="7evH4LLbzhAaxAppUurWTf" cx="9.35" cy="19.56" r="22.29" fx="9.35" fy="19.56" gradientTransform="matrix(-1 0 0 1 34 0)" gradientUnits="userSpaceOnUse"><stop offset="0" stop-color="#e4f9fe"/><stop offset=".55" stop-color="#7ce5f3"/><stop offset=".97" stop-color="#6d93fb"/></radialGradient><radialGradient id="7evH4LLbzhAaxAppUurWTg" cx="8.78" cy="20.12" r="21.85" fx="8.78" fy="20.12" gradientTransform="matrix(-1 0 0 1 34 0)" gradientUnits="userSpaceOnUse"><stop offset="0" stop-color="#e1f8fe"/><stop offset=".55" stop-color="#6ee2f2"/><stop offset=".97" stop-color="#5d88fb"/></radialGradient><radialGradient id="7evH4LLbzhAaxAppUurWTh" cx="8.24" cy="20.67" r="21.39" fx="8.24" fy="20.67" gradientTransform="matrix(-1 0 0 1 34 0)" gradientUnits="userSpaceOnUse"><stop offset="0" stop-color="#dff7fe"/><stop offset=".55" stop-color="#61e0f0"/><stop offset=".97" stop-color="#4e7dfb"/></radialGradient><radialGradient id="7evH4LLbzhAaxAppUurWTi" cx="7.73" cy="21.21" r="20.92" fx="7.73" fy="21.21" gradientTransform="matrix(-1 0 0 1 34 0)" gradientUnits="userSpaceOnUse"><stop offset="0" stop-color="#dcf7fe"/><stop offset=".55" stop-color="#53ddef"/><stop offset=".97" stop-color="#3e71fa"/></radialGradient><radialGradient id="7evH4LLbzhAaxAppUurWTj" cx="7.24" cy="21.72" r="20.42" fx="7.24" fy="21.72" gradientTransform="matrix(-1 0 0 1 34 0)" gradientUnits="userSpaceOnUse"><stop offset="0" stop-color="#d9f6fe"/><stop offset=".55" stop-color="#45daee"/><stop offset=".97" stop-color="#2f66fa"/></radialGradient><radialGradient id="7evH4LLbzhAaxAppUurWTk" cx="11.23" cy="2.67" r="28.1" fx="11.23" fy="2.67" gradientUnits="userSpaceOnUse"><stop offset="0" stop-color="#f2fcff"/><stop offset=".2" stop-color="#e2f8fc"/><stop offset=".61" stop-color="#c7f3f9"/><stop offset=".81" stop-color="#c3f5f1"/><stop offset="1" stop-color="#bffae5"/></radialGradient><radialGradient id="7evH4LLbzhAaxAppUurWTl" cx="11.43" cy="3.29" r="27.68" fx="11.43" fy="3.29" gradientUnits="userSpaceOnUse"><stop offset="0" stop-color="#effbff"/><stop offset=".26" stop-color="#d6f5fb"/><stop offset=".61" stop-color="#bbf0f8"/><stop offset=".78" stop-color="#b7f2f0"/><stop offset="1" stop-color="#b1f9df"/></radialGradient><radialGradient id="7evH4LLbzhAaxAppUurWTm" cx="11.64" cy="3.91" r="27.23" fx="11.64" fy="3.91" gradientUnits="userSpaceOnUse"><stop offset="0" stop-color="#ecfbff"/><stop offset=".31" stop-color="#c9f3fa"/><stop offset=".61" stop-color="#aeeef7"/><stop offset=".76" stop-color="#aaf0ef"/><stop offset=".99" stop-color="#a2f7da"/><stop offset="1" stop-color="#a2f8d9"/></radialGradient><radialGradient id="7evH4LLbzhAaxAppUurWTn" cx="11.84" cy="4.51" r="26.75" fx="11.84" fy="4.51" gradientUnits="userSpaceOnUse"><stop offset="0" stop-color="#eafaff"/><stop offset=".35" stop-color="#bdf0f8"/><stop offset=".61" stop-color="#a2ebf5"/><stop offset=".75" stop-color="#9eeded"/><stop offset=".96" stop-color="#95f5d8"/><stop offset="1" stop-color="#94f7d4"/></radialGradient><radialGradient id="7evH4LLbzhAaxAppUurWTo" cx="12.04" cy="5.11" r="26.25" fx="12.04" fy="5.11" gradientUnits="userSpaceOnUse"><stop offset="0" stop-color="#e7f9ff"/><stop offset=".38" stop-color="#b1eef7"/><stop offset=".61" stop-color="#96e9f4"/><stop offset=".74" stop-color="#92ebec"/><stop offset=".93" stop-color="#89f2d7"/><stop offset="1" stop-color="#86f6ce"/></radialGradient><radialGradient id="7evH4LLbzhAaxAppUurWTp" cx="12.23" cy="5.69" r="25.72" fx="12.23" fy="5.69" gradientUnits="userSpaceOnUse"><stop offset="0" stop-color="#e4f9fe"/><stop offset=".4" stop-color="#a4ebf6"/><stop offset=".61" stop-color="#89e6f3"/><stop offset=".73" stop-color="#85e8eb"/><stop offset=".9" stop-color="#7cefd6"/><stop offset="1" stop-color="#77f4c8"/></radialGradient><radialGradient id="7evH4LLbzhAaxAppUurWTq" cx="12.42" cy="6.27" r="25.18" fx="12.42" fy="6.27" gradientUnits="userSpaceOnUse"><stop offset="0" stop-color="#e1f8fe"/><stop offset="0" stop-color="#dff7fd"/><stop offset=".42" stop-color="#98e9f5"/><stop offset=".61" stop-color="#7de4f2"/><stop offset=".72" stop-color="#79e6ea"/><stop offset=".88" stop-color="#71ecd5"/><stop offset="1" stop-color="#69f3c2"/></radialGradient><radialGradient id="7evH4LLbzhAaxAppUurWTr" cx="12.61" cy="6.84" r="24.6" fx="12.61" fy="6.84" gradientUnits="userSpaceOnUse"><stop offset="0" stop-color="#dff7fe"/><stop offset=".06" stop-color="#d3f4fc"/><stop offset=".43" stop-color="#8ce6f3"/><stop offset=".61" stop-color="#71e1f0"/><stop offset=".71" stop-color="#6de3e8"/><stop offset=".87" stop-color="#64ead3"/><stop offset="1" stop-color="#5bf2bd"/></radialGradient><radialGradient id="7evH4LLbzhAaxAppUurWTs" cx="12.8" cy="7.4" r="24" fx="12.8" fy="7.4" gradientUnits="userSpaceOnUse"><stop offset="0" stop-color="#dcf7fe"/><stop offset=".1" stop-color="#c6f2fb"/><stop offset=".45" stop-color="#7fe4f2"/><stop offset=".61" stop-color="#64dfef"/><stop offset=".71" stop-color="#60e1e7"/><stop offset=".85" stop-color="#57e8d2"/><stop offset="1" stop-color="#4cf1b7"/></radialGradient><radialGradient id="7evH4LLbzhAaxAppUurWTt" cx="12.99" cy="7.96" r="23.38" fx="12.99" fy="7.96" gradientUnits="userSpaceOnUse"><stop offset="0" stop-color="#d9f6fe"/><stop offset=".13" stop-color="#baeffa"/><stop offset=".46" stop-color="#73e1f1"/><stop offset=".61" stop-color="#58dcee"/><stop offset=".7" stop-color="#54dee6"/><stop offset=".84" stop-color="#4be5d1"/><stop offset="1" stop-color="#3ef0b1"/></radialGradient></defs><path fill="url(#7evH4LLbzhAaxAppUurWTa)" d="m31,15.5c7.18,0,13,5.82,13,13,0,2.41-.66,4.68-1.81,6.61l1.23,4.37c.29,1.03-.72,1.95-1.72,1.57l-3.89-1.48c-1.98,1.23-4.32,1.93-6.82,1.93-7.18,0-13-5.82-13-13s5.82-13,13-13Z"/><path fill="url(#7evH4LLbzhAaxAppUurWTb)" d="m31,15.87c6.98,0,12.63,5.66,12.63,12.63,0,2.35-.64,4.54-1.75,6.43l1.19,4.25c.28,1-.7,1.89-1.67,1.52l-3.77-1.44c-1.93,1.19-4.2,1.88-6.63,1.88-6.98,0-12.63-5.66-12.63-12.63s5.66-12.63,12.63-12.63Z"/><path fill="url(#7evH4LLbzhAaxAppUurWTc)" d="m31,16.24c6.77,0,12.26,5.49,12.26,12.26,0,2.28-.62,4.41-1.7,6.24l1.16,4.13c.27.97-.68,1.84-1.62,1.48l-3.66-1.4c-1.87,1.16-4.07,1.82-6.44,1.82-6.77,0-12.26-5.49-12.26-12.26,0-6.77,5.49-12.26,12.26-12.26Z"/><path fill="url(#7evH4LLbzhAaxAppUurWTd)" d="m31,16.61c6.57,0,11.89,5.32,11.89,11.89,0,2.21-.6,4.28-1.65,6.05l1.12,4c.26.94-.66,1.78-1.57,1.43l-3.55-1.36c-1.81,1.12-3.95,1.77-6.24,1.77-6.57,0-11.89-5.32-11.89-11.89s5.32-11.89,11.89-11.89Z"/><path fill="url(#7evH4LLbzhAaxAppUurWTe)" d="m31,16.98c6.36,0,11.52,5.16,11.52,11.52,0,2.14-.58,4.15-1.6,5.86l1.09,3.88c.26.91-.64,1.73-1.52,1.39l-3.44-1.32c-1.76,1.09-3.83,1.71-6.05,1.71-6.36,0-11.52-5.16-11.52-11.52,0-6.36,5.16-11.52,11.52-11.52Z"/><path fill="url(#7evH4LLbzhAaxAppUurWTf)" d="m31,17.34c6.16,0,11.16,4.99,11.16,11.16,0,2.07-.57,4.01-1.55,5.68l1.05,3.75c.25.88-.62,1.67-1.47,1.34l-3.33-1.27c-1.7,1.05-3.71,1.66-5.85,1.66-6.16,0-11.16-4.99-11.16-11.16,0-6.16,4.99-11.16,11.16-11.16Z"/><path fill="url(#7evH4LLbzhAaxAppUurWTg)" d="m31,17.71c5.96,0,10.79,4.83,10.79,10.79,0,2-.55,3.88-1.5,5.49l1.02,3.63c.24.85-.6,1.62-1.42,1.3l-3.22-1.23c-1.65,1.02-3.58,1.6-5.66,1.6-5.96,0-10.79-4.83-10.79-10.79s4.83-10.79,10.79-10.79Z"/><path fill="url(#7evH4LLbzhAaxAppUurWTh)" d="m31,18.08c5.75,0,10.42,4.66,10.42,10.42,0,1.94-.53,3.75-1.45,5.3l.98,3.5c.23.82-.58,1.56-1.37,1.25l-3.11-1.19c-1.59.98-3.46,1.55-5.47,1.55-5.75,0-10.42-4.66-10.42-10.42s4.66-10.42,10.42-10.42Z"/><path fill="url(#7evH4LLbzhAaxAppUurWTi)" d="m31,18.45c5.55,0,10.05,4.5,10.05,10.05,0,1.87-.51,3.61-1.4,5.11l.95,3.38c.22.8-.55,1.51-1.33,1.21l-3-1.15c-1.53.95-3.34,1.49-5.27,1.49-5.55,0-10.05-4.5-10.05-10.05,0-5.55,4.5-10.05,10.05-10.05Z"/><path fill="url(#7evH4LLbzhAaxAppUurWTj)" d="m31,18.82c5.35,0,9.68,4.33,9.68,9.68,0,1.8-.49,3.48-1.34,4.92l.91,3.26c.22.77-.53,1.45-1.28,1.17l-2.89-1.11c-1.48.91-3.22,1.44-5.08,1.44-5.35,0-9.68-4.33-9.68-9.68s4.33-9.68,9.68-9.68Z"/><g><path fill="url(#7evH4LLbzhAaxAppUurWTk)" d="m17,6.5c-7.18,0-13,5.82-13,13,0,2.41.66,4.68,1.81,6.61l-1.23,4.37c-.29,1.03.72,1.95,1.72,1.57l3.89-1.48c1.98,1.23,4.32,1.93,6.82,1.93,7.18,0,13-5.82,13-13s-5.82-13-13-13Z"/><path fill="url(#7evH4LLbzhAaxAppUurWTl)" d="m17,6.87c-6.98,0-12.63,5.66-12.63,12.63,0,2.35.64,4.54,1.75,6.43l-1.19,4.25c-.28,1,.7,1.89,1.67,1.52l3.77-1.44c1.93,1.19,4.2,1.88,6.63,1.88,6.98,0,12.63-5.66,12.63-12.63s-5.66-12.63-12.63-12.63Z"/><path fill="url(#7evH4LLbzhAaxAppUurWTm)" d="m17,7.24c-6.77,0-12.26,5.49-12.26,12.26,0,2.28.62,4.41,1.7,6.24l-1.16,4.13c-.27.97.68,1.84,1.62,1.48l3.66-1.4c1.87,1.16,4.07,1.82,6.44,1.82,6.77,0,12.26-5.49,12.26-12.26s-5.49-12.26-12.26-12.26Z"/><path fill="url(#7evH4LLbzhAaxAppUurWTn)" d="m17,7.61c-6.57,0-11.89,5.32-11.89,11.89,0,2.21.6,4.28,1.65,6.05l-1.12,4c-.26.94.66,1.78,1.57,1.43l3.55-1.36c1.81,1.12,3.95,1.77,6.24,1.77,6.57,0,11.89-5.32,11.89-11.89s-5.32-11.89-11.89-11.89Z"/><path fill="url(#7evH4LLbzhAaxAppUurWTo)" d="m17,7.98c-6.36,0-11.52,5.16-11.52,11.52,0,2.14.58,4.15,1.6,5.86l-1.09,3.88c-.26.91.64,1.73,1.52,1.39l3.44-1.32c1.76,1.09,3.83,1.71,6.05,1.71,6.36,0,11.52-5.16,11.52-11.52s-5.16-11.52-11.52-11.52Z"/><path fill="url(#7evH4LLbzhAaxAppUurWTp)" d="m17,8.34c-6.16,0-11.16,4.99-11.16,11.16,0,2.07.57,4.01,1.55,5.68l-1.05,3.75c-.25.88.62,1.67,1.47,1.34l3.33-1.27c1.7,1.05,3.71,1.66,5.85,1.66,6.16,0,11.16-4.99,11.16-11.16s-4.99-11.16-11.16-11.16Z"/><path fill="url(#7evH4LLbzhAaxAppUurWTq)" d="m17,8.71c-5.96,0-10.79,4.83-10.79,10.79,0,2,.55,3.88,1.5,5.49l-1.02,3.63c-.24.85.6,1.62,1.42,1.3l3.22-1.23c1.65,1.02,3.58,1.6,5.66,1.6,5.96,0,10.79-4.83,10.79-10.79s-4.83-10.79-10.79-10.79Z"/><path fill="url(#7evH4LLbzhAaxAppUurWTr)" d="m17,9.08c-5.75,0-10.42,4.66-10.42,10.42,0,1.94.53,3.75,1.45,5.3l-.98,3.5c-.23.82.58,1.56,1.37,1.25l3.11-1.19c1.59.98,3.46,1.55,5.47,1.55,5.75,0,10.42-4.66,10.42-10.42s-4.66-10.42-10.42-10.42Z"/><path fill="url(#7evH4LLbzhAaxAppUurWTs)" d="m17,9.45c-5.55,0-10.05,4.5-10.05,10.05,0,1.87.51,3.61,1.4,5.11l-.95,3.38c-.22.8.55,1.51,1.33,1.21l3-1.15c1.53.95,3.34,1.49,5.27,1.49,5.55,0,10.05-4.5,10.05-10.05s-4.5-10.05-10.05-10.05Z"/><path fill="url(#7evH4LLbzhAaxAppUurWTt)" d="m17,9.82c-5.35,0-9.68,4.33-9.68,9.68,0,1.8.49,3.48,1.34,4.92l-.91,3.26c-.22.77.53,1.45,1.28,1.17l2.89-1.11c1.48.91,3.22,1.44,5.08,1.44,5.35,0,9.68-4.33,9.68-9.68s-4.33-9.68-9.68-9.68Z"/></g></svg>