<svg xmlns="http://www.w3.org/2000/svg" xmlns:xlink="http://www.w3.org/1999/xlink" data-name="Layer 1" viewBox="0 0 48 48"><defs><linearGradient id="I700xTyZAqkTXJI_DVDola" x1="12" x2="36" y1="18.5" y2="18.5" gradientUnits="userSpaceOnUse"><stop offset="0" stop-color="#f8fdff"/><stop offset="1" stop-color="#e2fbff"/></linearGradient><linearGradient id="I700xTyZAqkTXJI_DVDolb" x1="12.11" x2="35.89" y1="18.5" y2="18.5" gradientUnits="userSpaceOnUse"><stop offset="0" stop-color="#f6fdff"/><stop offset="1" stop-color="#dcfaff"/></linearGradient><linearGradient id="I700xTyZAqkTXJI_DVDolc" x1="12.22" x2="35.78" y1="18.5" y2="18.5" gradientUnits="userSpaceOnUse"><stop offset="0" stop-color="#f5fcff"/><stop offset="1" stop-color="#d5f9ff"/></linearGradient><linearGradient id="I700xTyZAqkTXJI_DVDold" x1="12.33" x2="35.67" y1="18.5" y2="18.5" gradientUnits="userSpaceOnUse"><stop offset="0" stop-color="#f3fcff"/><stop offset="1" stop-color="#cff9ff"/></linearGradient><linearGradient id="I700xTyZAqkTXJI_DVDole" x1="12.44" x2="35.56" y1="18.5" y2="18.5" gradientUnits="userSpaceOnUse"><stop offset="0" stop-color="#f2fcff"/><stop offset="1" stop-color="#c8f8ff"/></linearGradient><linearGradient id="I700xTyZAqkTXJI_DVDolf" x1="12.56" x2="35.44" y1="18.5" y2="18.5" gradientUnits="userSpaceOnUse"><stop offset="0" stop-color="#f0fbfe"/><stop offset="1" stop-color="#c2f7ff"/></linearGradient><linearGradient id="I700xTyZAqkTXJI_DVDolg" x1="12.67" x2="35.33" y1="18.5" y2="18.5" gradientUnits="userSpaceOnUse"><stop offset="0" stop-color="#effbfe"/><stop offset="1" stop-color="#bbf6ff"/></linearGradient><linearGradient id="I700xTyZAqkTXJI_DVDolh" x1="12.78" x2="35.22" y1="18.5" y2="18.5" gradientUnits="userSpaceOnUse"><stop offset="0" stop-color="#edfbfe"/><stop offset="1" stop-color="#b5f6ff"/></linearGradient><linearGradient id="I700xTyZAqkTXJI_DVDoli" x1="12.89" x2="35.11" y1="18.5" y2="18.5" gradientUnits="userSpaceOnUse"><stop offset="0" stop-color="#ecfafe"/><stop offset="1" stop-color="#aef5ff"/></linearGradient><linearGradient id="I700xTyZAqkTXJI_DVDolj" x1="13" x2="35" y1="18.5" y2="18.5" gradientUnits="userSpaceOnUse"><stop offset="0" stop-color="#eafafe"/><stop offset="1" stop-color="#a8f4ff"/></linearGradient><linearGradient id="I700xTyZAqkTXJI_DVDolu" x1="13" x2="35" y1="24.5" y2="24.5" xlink:href="#I700xTyZAqkTXJI_DVDola"/><linearGradient id="I700xTyZAqkTXJI_DVDolv" x1="13.11" x2="34.89" y1="24.5" y2="24.5" xlink:href="#I700xTyZAqkTXJI_DVDolb"/><linearGradient id="I700xTyZAqkTXJI_DVDolw" x1="13.22" x2="34.78" y1="24.5" y2="24.5" xlink:href="#I700xTyZAqkTXJI_DVDolc"/><linearGradient id="I700xTyZAqkTXJI_DVDolx" x1="13.33" x2="34.67" y1="24.5" y2="24.5" xlink:href="#I700xTyZAqkTXJI_DVDold"/><linearGradient id="I700xTyZAqkTXJI_DVDoly" x1="13.44" x2="34.56" y1="24.5" y2="24.5" xlink:href="#I700xTyZAqkTXJI_DVDole"/><linearGradient id="I700xTyZAqkTXJI_DVDolz" x1="13.56" x2="34.44" y1="24.5" y2="24.5" xlink:href="#I700xTyZAqkTXJI_DVDolf"/><linearGradient id="I700xTyZAqkTXJI_DVDolA" x1="13.67" x2="34.33" y1="24.5" y2="24.5" xlink:href="#I700xTyZAqkTXJI_DVDolg"/><linearGradient id="I700xTyZAqkTXJI_DVDolB" x1="13.78" x2="34.22" y1="24.5" y2="24.5" xlink:href="#I700xTyZAqkTXJI_DVDolh"/><linearGradient id="I700xTyZAqkTXJI_DVDolC" x1="13.89" x2="34.11" y1="24.5" y2="24.5" xlink:href="#I700xTyZAqkTXJI_DVDoli"/><linearGradient id="I700xTyZAqkTXJI_DVDolD" x1="14" x2="34" y1="24.5" y2="24.5" xlink:href="#I700xTyZAqkTXJI_DVDolj"/><linearGradient id="I700xTyZAqkTXJI_DVDolE" x1="17" x2="31" y1="30.5" y2="30.5" xlink:href="#I700xTyZAqkTXJI_DVDola"/><linearGradient id="I700xTyZAqkTXJI_DVDolF" x1="17.11" x2="30.89" y1="30.5" y2="30.5" xlink:href="#I700xTyZAqkTXJI_DVDolb"/><linearGradient id="I700xTyZAqkTXJI_DVDolG" x1="17.22" x2="30.78" y1="30.5" y2="30.5" xlink:href="#I700xTyZAqkTXJI_DVDolc"/><linearGradient id="I700xTyZAqkTXJI_DVDolH" x1="17.33" x2="30.67" y1="30.5" y2="30.5" xlink:href="#I700xTyZAqkTXJI_DVDold"/><linearGradient id="I700xTyZAqkTXJI_DVDolI" x1="17.44" x2="30.56" y1="30.5" y2="30.5" xlink:href="#I700xTyZAqkTXJI_DVDole"/><linearGradient id="I700xTyZAqkTXJI_DVDolJ" x1="17.56" x2="30.44" y1="30.5" y2="30.5" xlink:href="#I700xTyZAqkTXJI_DVDolf"/><linearGradient id="I700xTyZAqkTXJI_DVDolK" x1="17.67" x2="30.33" y1="30.5" y2="30.5" xlink:href="#I700xTyZAqkTXJI_DVDolg"/><linearGradient id="I700xTyZAqkTXJI_DVDolL" x1="17.78" x2="30.22" y1="30.5" y2="30.5" xlink:href="#I700xTyZAqkTXJI_DVDolh"/><linearGradient id="I700xTyZAqkTXJI_DVDolM" x1="17.89" x2="30.11" y1="30.5" y2="30.5" xlink:href="#I700xTyZAqkTXJI_DVDoli"/><linearGradient id="I700xTyZAqkTXJI_DVDolN" x1="18" x2="30" y1="30.5" y2="30.5" xlink:href="#I700xTyZAqkTXJI_DVDolj"/><radialGradient id="I700xTyZAqkTXJI_DVDolk" cx="23.41" cy="8.64" r="37.73" fx="23.41" fy="8.64" gradientUnits="userSpaceOnUse"><stop offset="0" stop-color="#f2fcff"/><stop offset=".2" stop-color="#e2f8fc"/><stop offset=".61" stop-color="#c7f3f9"/><stop offset=".81" stop-color="#c3f5f1"/><stop offset="1" stop-color="#bffae5"/></radialGradient><radialGradient id="I700xTyZAqkTXJI_DVDoll" cx="23.04" cy="8.95" r="36.84" fx="23.04" fy="8.95" gradientUnits="userSpaceOnUse"><stop offset="0" stop-color="#effbff"/><stop offset=".26" stop-color="#d6f5fb"/><stop offset=".61" stop-color="#bbf0f8"/><stop offset=".78" stop-color="#b7f2f0"/><stop offset="1" stop-color="#b1f9df"/></radialGradient><radialGradient id="I700xTyZAqkTXJI_DVDolm" cx="22.69" cy="9.26" r="35.93" fx="22.69" fy="9.26" gradientUnits="userSpaceOnUse"><stop offset="0" stop-color="#ecfbff"/><stop offset=".31" stop-color="#c9f3fa"/><stop offset=".61" stop-color="#aeeef7"/><stop offset=".76" stop-color="#aaf0ef"/><stop offset=".99" stop-color="#a2f7da"/><stop offset="1" stop-color="#a2f8d9"/></radialGradient><radialGradient id="I700xTyZAqkTXJI_DVDoln" cx="22.36" cy="9.58" r="35.02" fx="22.36" fy="9.58" gradientUnits="userSpaceOnUse"><stop offset="0" stop-color="#eafaff"/><stop offset=".35" stop-color="#bdf0f8"/><stop offset=".61" stop-color="#a2ebf5"/><stop offset=".75" stop-color="#9eeded"/><stop offset=".96" stop-color="#95f5d8"/><stop offset="1" stop-color="#94f7d4"/></radialGradient><radialGradient id="I700xTyZAqkTXJI_DVDolo" cx="22.05" cy="9.91" r="34.09" fx="22.05" fy="9.91" gradientUnits="userSpaceOnUse"><stop offset="0" stop-color="#e7f9ff"/><stop offset=".38" stop-color="#b1eef7"/><stop offset=".61" stop-color="#96e9f4"/><stop offset=".74" stop-color="#92ebec"/><stop offset=".93" stop-color="#89f2d7"/><stop offset="1" stop-color="#86f6ce"/></radialGradient><radialGradient id="I700xTyZAqkTXJI_DVDolp" cx="21.77" cy="10.25" r="33.15" fx="21.77" fy="10.25" gradientUnits="userSpaceOnUse"><stop offset="0" stop-color="#e4f9fe"/><stop offset=".4" stop-color="#a4ebf6"/><stop offset=".61" stop-color="#89e6f3"/><stop offset=".73" stop-color="#85e8eb"/><stop offset=".9" stop-color="#7cefd6"/><stop offset="1" stop-color="#77f4c8"/></radialGradient><radialGradient id="I700xTyZAqkTXJI_DVDolq" cx="21.51" cy="10.6" r="32.2" fx="21.51" fy="10.6" gradientUnits="userSpaceOnUse"><stop offset="0" stop-color="#e1f8fe"/><stop offset="0" stop-color="#dff7fd"/><stop offset=".42" stop-color="#98e9f5"/><stop offset=".61" stop-color="#7de4f2"/><stop offset=".72" stop-color="#79e6ea"/><stop offset=".88" stop-color="#71ecd5"/><stop offset="1" stop-color="#69f3c2"/></radialGradient><radialGradient id="I700xTyZAqkTXJI_DVDolr" cx="21.28" cy="10.95" r="31.24" fx="21.28" fy="10.95" gradientUnits="userSpaceOnUse"><stop offset="0" stop-color="#dff7fe"/><stop offset=".06" stop-color="#d3f4fc"/><stop offset=".43" stop-color="#8ce6f3"/><stop offset=".61" stop-color="#71e1f0"/><stop offset=".71" stop-color="#6de3e8"/><stop offset=".87" stop-color="#64ead3"/><stop offset="1" stop-color="#5bf2bd"/></radialGradient><radialGradient id="I700xTyZAqkTXJI_DVDols" cx="21.06" cy="11.31" r="30.28" fx="21.06" fy="11.31" gradientUnits="userSpaceOnUse"><stop offset="0" stop-color="#dcf7fe"/><stop offset=".1" stop-color="#c6f2fb"/><stop offset=".45" stop-color="#7fe4f2"/><stop offset=".61" stop-color="#64dfef"/><stop offset=".71" stop-color="#60e1e7"/><stop offset=".85" stop-color="#57e8d2"/><stop offset="1" stop-color="#4cf1b7"/></radialGradient><radialGradient id="I700xTyZAqkTXJI_DVDolt" cx="20.87" cy="11.67" r="29.3" fx="20.87" fy="11.67" gradientUnits="userSpaceOnUse"><stop offset="0" stop-color="#d9f6fe"/><stop offset=".13" stop-color="#baeffa"/><stop offset=".46" stop-color="#73e1f1"/><stop offset=".61" stop-color="#58dcee"/><stop offset=".7" stop-color="#54dee6"/><stop offset=".84" stop-color="#4be5d1"/><stop offset="1" stop-color="#3ef0b1"/></radialGradient></defs><path fill="url(#I700xTyZAqkTXJI_DVDolk)" d="m24,4C12.95,4,4,12.95,4,24c0,3.72,1.01,7.19,2.78,10.17l-1.89,6.73c-.44,1.58,1.1,3,2.64,2.41l5.98-2.28c3.05,1.88,6.65,2.97,10.5,2.97,11.05,0,20-8.95,20-20S35.05,4,24,4Z"/><path fill="url(#I700xTyZAqkTXJI_DVDoll)" d="m24,4.57C13.27,4.57,4.57,13.27,4.57,24c0,3.61.98,6.99,2.7,9.89l-1.84,6.54c-.43,1.54,1.07,2.91,2.56,2.34l5.81-2.22c2.96,1.83,6.46,2.89,10.2,2.89,10.73,0,19.43-8.7,19.43-19.43S34.73,4.57,24,4.57Z"/><path fill="url(#I700xTyZAqkTXJI_DVDolm)" d="m24,5.14C13.58,5.14,5.14,13.58,5.14,24c0,3.5.96,6.79,2.62,9.6l-1.78,6.35c-.42,1.49,1.04,2.83,2.49,2.27l5.64-2.15c2.88,1.78,6.27,2.8,9.9,2.8,10.42,0,18.86-8.45,18.86-18.86S34.42,5.14,24,5.14Z"/><path fill="url(#I700xTyZAqkTXJI_DVDoln)" d="m24,5.7C13.89,5.7,5.7,13.89,5.7,24c0,3.4.93,6.58,2.54,9.31l-1.73,6.16c-.41,1.45,1.01,2.74,2.41,2.2l5.47-2.09c2.79,1.72,6.08,2.72,9.6,2.72,10.11,0,18.3-8.19,18.3-18.3S34.11,5.7,24,5.7Z"/><path fill="url(#I700xTyZAqkTXJI_DVDolo)" d="m24,6.27c-9.79,0-17.73,7.94-17.73,17.73,0,3.29.9,6.38,2.46,9.02l-1.68,5.96c-.39,1.4.98,2.66,2.34,2.14l5.3-2.03c2.7,1.67,5.89,2.64,9.3,2.64,9.79,0,17.73-7.94,17.73-17.73S33.79,6.27,24,6.27Z"/><path fill="url(#I700xTyZAqkTXJI_DVDolp)" d="m24,6.84c-9.48,0-17.16,7.68-17.16,17.16,0,3.19.87,6.17,2.38,8.73l-1.62,5.77c-.38,1.36.95,2.57,2.26,2.07l5.13-1.96c2.62,1.62,5.7,2.55,9.01,2.55,9.48,0,17.16-7.68,17.16-17.16S33.48,6.84,24,6.84Z"/><path fill="url(#I700xTyZAqkTXJI_DVDolq)" d="m24,7.41c-9.16,0-16.59,7.43-16.59,16.59,0,3.08.84,5.97,2.3,8.44l-1.57,5.58c-.37,1.31.92,2.49,2.19,2l4.96-1.9c2.53,1.56,5.51,2.47,8.71,2.47,9.16,0,16.59-7.43,16.59-16.59S33.16,7.41,24,7.41Z"/><path fill="url(#I700xTyZAqkTXJI_DVDolr)" d="m24,7.97c-8.85,0-16.03,7.18-16.03,16.03,0,2.98.81,5.76,2.23,8.15l-1.51,5.39c-.36,1.27.88,2.4,2.12,1.93l4.79-1.83c2.44,1.51,5.33,2.38,8.41,2.38,8.85,0,16.03-7.18,16.03-16.03S32.85,7.97,24,7.97Z"/><path fill="url(#I700xTyZAqkTXJI_DVDols)" d="m24,8.54c-8.54,0-15.46,6.92-15.46,15.46,0,2.87.78,5.56,2.15,7.86l-1.46,5.2c-.34,1.22.85,2.32,2.04,1.86l4.62-1.77c2.36,1.46,5.14,2.3,8.11,2.3,8.54,0,15.46-6.92,15.46-15.46s-6.92-15.46-15.46-15.46Z"/><path fill="url(#I700xTyZAqkTXJI_DVDolt)" d="m24,9.11c-8.22,0-14.89,6.67-14.89,14.89,0,2.77.75,5.36,2.07,7.58l-1.41,5.01c-.33,1.18.82,2.23,1.97,1.79l4.45-1.7c2.27,1.4,4.95,2.21,7.81,2.21,8.22,0,14.89-6.67,14.89-14.89s-6.67-14.89-14.89-14.89Z"/><g><path fill="url(#I700xTyZAqkTXJI_DVDola)" d="m34.5,20H13.5c-.83,0-1.5-.67-1.5-1.5s.67-1.5,1.5-1.5h21c.83,0,1.5.67,1.5,1.5s-.67,1.5-1.5,1.5Z"/><path fill="url(#I700xTyZAqkTXJI_DVDolb)" d="m34.5,19.89H13.5c-.77,0-1.39-.62-1.39-1.39s.62-1.39,1.39-1.39h21c.77,0,1.39.62,1.39,1.39s-.62,1.39-1.39,1.39Z"/><path fill="url(#I700xTyZAqkTXJI_DVDolc)" d="m34.5,19.78H13.5c-.71,0-1.28-.57-1.28-1.28s.57-1.28,1.28-1.28h21c.71,0,1.28.57,1.28,1.28s-.57,1.28-1.28,1.28Z"/><path fill="url(#I700xTyZAqkTXJI_DVDold)" d="m34.5,19.67H13.5c-.64,0-1.17-.52-1.17-1.17s.52-1.17,1.17-1.17h21c.64,0,1.17.52,1.17,1.17s-.52,1.17-1.17,1.17Z"/><path fill="url(#I700xTyZAqkTXJI_DVDole)" d="m34.5,19.56H13.5c-.58,0-1.06-.47-1.06-1.06s.47-1.06,1.06-1.06h21c.58,0,1.06.47,1.06,1.06s-.47,1.06-1.06,1.06Z"/><path fill="url(#I700xTyZAqkTXJI_DVDolf)" d="m34.5,19.44H13.5c-.52,0-.94-.42-.94-.94s.42-.94.94-.94h21c.52,0,.94.42.94.94s-.42.94-.94.94Z"/><path fill="url(#I700xTyZAqkTXJI_DVDolg)" d="m34.5,19.33H13.5c-.46,0-.83-.37-.83-.83s.37-.83.83-.83h21c.46,0,.83.37.83.83s-.37.83-.83.83Z"/><path fill="url(#I700xTyZAqkTXJI_DVDolh)" d="m34.5,19.22H13.5c-.4,0-.72-.32-.72-.72s.32-.72.72-.72h21c.4,0,.72.32.72.72s-.32.72-.72.72Z"/><path fill="url(#I700xTyZAqkTXJI_DVDoli)" d="m34.5,19.11H13.5c-.34,0-.61-.27-.61-.61s.27-.61.61-.61h21c.34,0,.61.27.61.61s-.27.61-.61.61Z"/><path fill="url(#I700xTyZAqkTXJI_DVDolj)" d="m34.5,19H13.5c-.28,0-.5-.22-.5-.5s.22-.5.5-.5h21c.28,0,.5.22.5.5s-.22.5-.5.5Z"/></g><g><path fill="url(#I700xTyZAqkTXJI_DVDolu)" d="m33.5,26H14.5c-.83,0-1.5-.67-1.5-1.5s.67-1.5,1.5-1.5h19c.83,0,1.5.67,1.5,1.5s-.67,1.5-1.5,1.5Z"/><path fill="url(#I700xTyZAqkTXJI_DVDolv)" d="m33.5,25.89H14.5c-.77,0-1.39-.62-1.39-1.39s.62-1.39,1.39-1.39h19c.77,0,1.39.62,1.39,1.39s-.62,1.39-1.39,1.39Z"/><path fill="url(#I700xTyZAqkTXJI_DVDolw)" d="m33.5,25.78H14.5c-.71,0-1.28-.57-1.28-1.28s.57-1.28,1.28-1.28h19c.71,0,1.28.57,1.28,1.28s-.57,1.28-1.28,1.28Z"/><path fill="url(#I700xTyZAqkTXJI_DVDolx)" d="m33.5,25.67H14.5c-.64,0-1.17-.52-1.17-1.17s.52-1.17,1.17-1.17h19c.64,0,1.17.52,1.17,1.17s-.52,1.17-1.17,1.17Z"/><path fill="url(#I700xTyZAqkTXJI_DVDoly)" d="m33.5,25.56H14.5c-.58,0-1.06-.47-1.06-1.06s.47-1.06,1.06-1.06h19c.58,0,1.06.47,1.06,1.06s-.47,1.06-1.06,1.06Z"/><path fill="url(#I700xTyZAqkTXJI_DVDolz)" d="m33.5,25.44H14.5c-.52,0-.94-.42-.94-.94s.42-.94.94-.94h19c.52,0,.94.42.94.94s-.42.94-.94.94Z"/><path fill="url(#I700xTyZAqkTXJI_DVDolA)" d="m33.5,25.33H14.5c-.46,0-.83-.37-.83-.83s.37-.83.83-.83h19c.46,0,.83.37.83.83s-.37.83-.83.83Z"/><path fill="url(#I700xTyZAqkTXJI_DVDolB)" d="m33.5,25.22H14.5c-.4,0-.72-.32-.72-.72s.32-.72.72-.72h19c.4,0,.72.32.72.72s-.32.72-.72.72Z"/><path fill="url(#I700xTyZAqkTXJI_DVDolC)" d="m33.5,25.11H14.5c-.34,0-.61-.27-.61-.61s.27-.61.61-.61h19c.34,0,.61.27.61.61s-.27.61-.61.61Z"/><path fill="url(#I700xTyZAqkTXJI_DVDolD)" d="m33.5,25H14.5c-.28,0-.5-.22-.5-.5s.22-.5.5-.5h19c.28,0,.5.22.5.5s-.22.5-.5.5Z"/></g><g><path fill="url(#I700xTyZAqkTXJI_DVDolE)" d="m29.5,32h-11c-.83,0-1.5-.67-1.5-1.5s.67-1.5,1.5-1.5h11c.83,0,1.5.67,1.5,1.5s-.67,1.5-1.5,1.5Z"/><path fill="url(#I700xTyZAqkTXJI_DVDolF)" d="m29.5,31.89h-11c-.77,0-1.39-.62-1.39-1.39s.62-1.39,1.39-1.39h11c.77,0,1.39.62,1.39,1.39s-.62,1.39-1.39,1.39Z"/><path fill="url(#I700xTyZAqkTXJI_DVDolG)" d="m29.5,31.78h-11c-.71,0-1.28-.57-1.28-1.28s.57-1.28,1.28-1.28h11c.71,0,1.28.57,1.28,1.28s-.57,1.28-1.28,1.28Z"/><path fill="url(#I700xTyZAqkTXJI_DVDolH)" d="m29.5,31.67h-11c-.64,0-1.17-.52-1.17-1.17s.52-1.17,1.17-1.17h11c.64,0,1.17.52,1.17,1.17s-.52,1.17-1.17,1.17Z"/><path fill="url(#I700xTyZAqkTXJI_DVDolI)" d="m29.5,31.56h-11c-.58,0-1.06-.47-1.06-1.06s.47-1.06,1.06-1.06h11c.58,0,1.06.47,1.06,1.06s-.47,1.06-1.06,1.06Z"/><path fill="url(#I700xTyZAqkTXJI_DVDolJ)" d="m29.5,31.44h-11c-.52,0-.94-.42-.94-.94s.42-.94.94-.94h11c.52,0,.94.42.94.94s-.42.94-.94.94Z"/><path fill="url(#I700xTyZAqkTXJI_DVDolK)" d="m29.5,31.33h-11c-.46,0-.83-.37-.83-.83s.37-.83.83-.83h11c.46,0,.83.37.83.83s-.37.83-.83.83Z"/><path fill="url(#I700xTyZAqkTXJI_DVDolL)" d="m29.5,31.22h-11c-.4,0-.72-.32-.72-.72s.32-.72.72-.72h11c.4,0,.72.32.72.72s-.32.72-.72.72Z"/><path fill="url(#I700xTyZAqkTXJI_DVDolM)" d="m29.5,31.11h-11c-.34,0-.61-.27-.61-.61s.27-.61.61-.61h11c.34,0,.61.27.61.61s-.27.61-.61.61Z"/><path fill="url(#I700xTyZAqkTXJI_DVDolN)" d="m29.5,31h-11c-.28,0-.5-.22-.5-.5s.22-.5.5-.5h11c.28,0,.5.22.5.5s-.22.5-.5.5Z"/></g></svg>