<svg xmlns="http://www.w3.org/2000/svg" xmlns:xlink="http://www.w3.org/1999/xlink" data-name="Layer 1" viewBox="0 0 48 48"><defs><linearGradient id="fGhefQ8ztJ4HdmqaS6ojvk" x1="24" x2="24" y1="3.52" y2="39.71" gradientUnits="userSpaceOnUse"><stop offset="0" stop-color="#f5f8ff"/><stop offset=".55" stop-color="#bec7f9"/><stop offset=".97" stop-color="#d6b5f3"/></linearGradient><linearGradient id="fGhefQ8ztJ4HdmqaS6ojvl" x1="24" x2="24" y1="3.45" y2="39.86" gradientUnits="userSpaceOnUse"><stop offset="0" stop-color="#f3f7ff"/><stop offset=".55" stop-color="#afbbf8"/><stop offset=".97" stop-color="#cca5f0"/><stop offset="1" stop-color="#cda5f0"/></linearGradient><linearGradient id="fGhefQ8ztJ4HdmqaS6ojvm" x1="24" x2="24" y1="3.41" y2="39.99" gradientUnits="userSpaceOnUse"><stop offset="0" stop-color="#f1f5ff"/><stop offset=".55" stop-color="#a1aef7"/><stop offset=".97" stop-color="#c395ee"/><stop offset="1" stop-color="#c494ee"/></linearGradient><linearGradient id="fGhefQ8ztJ4HdmqaS6ojvn" x1="24" x2="24" y1="3.39" y2="40.09" gradientUnits="userSpaceOnUse"><stop offset="0" stop-color="#eff4ff"/><stop offset=".55" stop-color="#92a2f5"/><stop offset=".97" stop-color="#b985eb"/><stop offset="1" stop-color="#bb84eb"/></linearGradient><linearGradient id="fGhefQ8ztJ4HdmqaS6ojvo" x1="24" x2="24" y1="3.39" y2="40.18" gradientUnits="userSpaceOnUse"><stop offset="0" stop-color="#edf2ff"/><stop offset=".55" stop-color="#8496f4"/><stop offset=".97" stop-color="#af75e9"/><stop offset="1" stop-color="#b273e8"/></linearGradient><linearGradient id="fGhefQ8ztJ4HdmqaS6ojvp" x1="24" x2="24" y1="3.42" y2="40.24" gradientUnits="userSpaceOnUse"><stop offset="0" stop-color="#eaf1fe"/><stop offset=".55" stop-color="#7589f3"/><stop offset=".97" stop-color="#a664e6"/><stop offset="1" stop-color="#a863e6"/></linearGradient><linearGradient id="fGhefQ8ztJ4HdmqaS6ojvq" x1="24" x2="24" y1="3.48" y2="40.28" gradientUnits="userSpaceOnUse"><stop offset="0" stop-color="#e8effe"/><stop offset=".55" stop-color="#677df2"/><stop offset=".97" stop-color="#9c54e4"/><stop offset="1" stop-color="#9f52e3"/></linearGradient><linearGradient id="fGhefQ8ztJ4HdmqaS6ojvr" x1="24" x2="24" y1="3.55" y2="40.3" gradientUnits="userSpaceOnUse"><stop offset="0" stop-color="#e6eefe"/><stop offset=".55" stop-color="#5871f0"/><stop offset=".97" stop-color="#9244e1"/><stop offset="1" stop-color="#9642e0"/></linearGradient><linearGradient id="fGhefQ8ztJ4HdmqaS6ojvs" x1="24" x2="24" y1="3.66" y2="40.31" gradientUnits="userSpaceOnUse"><stop offset="0" stop-color="#e4ecfe"/><stop offset=".55" stop-color="#4a64ef"/><stop offset=".97" stop-color="#8934df"/><stop offset="1" stop-color="#8d31de"/></linearGradient><linearGradient id="fGhefQ8ztJ4HdmqaS6ojvt" x1="24" x2="24" y1="3.78" y2="40.29" gradientUnits="userSpaceOnUse"><stop offset="0" stop-color="#e2ebfe"/><stop offset=".55" stop-color="#3b58ee"/><stop offset="1" stop-color="#8421db"/></linearGradient><linearGradient id="fGhefQ8ztJ4HdmqaS6ojva" x1="11" x2="37" y1="20.5" y2="20.5" gradientUnits="userSpaceOnUse"><stop offset="0" stop-color="#eff4fe"/><stop offset="1" stop-color="#afbcfc"/></linearGradient><linearGradient id="fGhefQ8ztJ4HdmqaS6ojvb" x1="11.11" x2="36.89" y1="20.5" y2="20.5" gradientUnits="userSpaceOnUse"><stop offset="0" stop-color="#eef3fe"/><stop offset="1" stop-color="#abb8fc"/></linearGradient><linearGradient id="fGhefQ8ztJ4HdmqaS6ojvc" x1="11.22" x2="36.78" y1="20.5" y2="20.5" gradientUnits="userSpaceOnUse"><stop offset="0" stop-color="#edf3fe"/><stop offset="1" stop-color="#a6b4fc"/></linearGradient><linearGradient id="fGhefQ8ztJ4HdmqaS6ojvd" x1="11.33" x2="36.67" y1="20.5" y2="20.5" gradientUnits="userSpaceOnUse"><stop offset="0" stop-color="#ecf2fe"/><stop offset="1" stop-color="#a2b1fb"/></linearGradient><linearGradient id="fGhefQ8ztJ4HdmqaS6ojve" x1="11.44" x2="36.56" y1="20.5" y2="20.5" gradientUnits="userSpaceOnUse"><stop offset="0" stop-color="#ebf2fe"/><stop offset="1" stop-color="#9dadfb"/></linearGradient><linearGradient id="fGhefQ8ztJ4HdmqaS6ojvf" x1="11.56" x2="36.44" y1="20.5" y2="20.5" gradientUnits="userSpaceOnUse"><stop offset="0" stop-color="#ebf1fe"/><stop offset="1" stop-color="#99a9fb"/></linearGradient><linearGradient id="fGhefQ8ztJ4HdmqaS6ojvg" x1="11.67" x2="36.33" y1="20.5" y2="20.5" gradientUnits="userSpaceOnUse"><stop offset="0" stop-color="#eaf1fe"/><stop offset="1" stop-color="#94a5fb"/></linearGradient><linearGradient id="fGhefQ8ztJ4HdmqaS6ojvh" x1="11.78" x2="36.22" y1="20.5" y2="20.5" gradientUnits="userSpaceOnUse"><stop offset="0" stop-color="#e9f0fe"/><stop offset="1" stop-color="#90a2fa"/></linearGradient><linearGradient id="fGhefQ8ztJ4HdmqaS6ojvi" x1="11.89" x2="36.11" y1="20.5" y2="20.5" gradientUnits="userSpaceOnUse"><stop offset="0" stop-color="#e8f0fe"/><stop offset="1" stop-color="#8b9efa"/></linearGradient><linearGradient id="fGhefQ8ztJ4HdmqaS6ojvj" x1="12" x2="36" y1="20.5" y2="20.5" gradientUnits="userSpaceOnUse"><stop offset="0" stop-color="#e7effe"/><stop offset="1" stop-color="#879afa"/></linearGradient><linearGradient id="fGhefQ8ztJ4HdmqaS6ojvu" x2="24" y1="26.5" y2="26.5" xlink:href="#fGhefQ8ztJ4HdmqaS6ojva"/><linearGradient id="fGhefQ8ztJ4HdmqaS6ojvv" x2="23.89" y1="26.5" y2="26.5" xlink:href="#fGhefQ8ztJ4HdmqaS6ojvb"/><linearGradient id="fGhefQ8ztJ4HdmqaS6ojvw" x2="23.78" y1="26.5" y2="26.5" xlink:href="#fGhefQ8ztJ4HdmqaS6ojvc"/><linearGradient id="fGhefQ8ztJ4HdmqaS6ojvx" x2="23.67" y1="26.5" y2="26.5" xlink:href="#fGhefQ8ztJ4HdmqaS6ojvd"/><linearGradient id="fGhefQ8ztJ4HdmqaS6ojvy" x2="23.56" y1="26.5" y2="26.5" xlink:href="#fGhefQ8ztJ4HdmqaS6ojve"/><linearGradient id="fGhefQ8ztJ4HdmqaS6ojvz" x2="23.44" y1="26.5" y2="26.5" xlink:href="#fGhefQ8ztJ4HdmqaS6ojvf"/><linearGradient id="fGhefQ8ztJ4HdmqaS6ojvA" x2="23.33" y1="26.5" y2="26.5" xlink:href="#fGhefQ8ztJ4HdmqaS6ojvg"/><linearGradient id="fGhefQ8ztJ4HdmqaS6ojvB" x2="23.22" y1="26.5" y2="26.5" xlink:href="#fGhefQ8ztJ4HdmqaS6ojvh"/><linearGradient id="fGhefQ8ztJ4HdmqaS6ojvC" x2="23.11" y1="26.5" y2="26.5" xlink:href="#fGhefQ8ztJ4HdmqaS6ojvi"/><linearGradient id="fGhefQ8ztJ4HdmqaS6ojvD" x2="23" y1="26.5" y2="26.5" xlink:href="#fGhefQ8ztJ4HdmqaS6ojvj"/></defs><path fill="url(#fGhefQ8ztJ4HdmqaS6ojvk)" d="m39,10H9c-2.21,0-4,1.79-4,4v20c0,2.21,1.79,4,4,4h8.73c.05,0,.11.02.14.07l4.59,5.59c.8.98,2.29.98,3.09,0l4.59-5.59s.09-.07.14-.07h8.73c2.21,0,4-1.79,4-4V14c0-2.21-1.79-4-4-4Z"/><path fill="url(#fGhefQ8ztJ4HdmqaS6ojvl)" d="m39,10.33H9c-2.03,0-3.67,1.64-3.67,3.67v20c0,2.03,1.64,3.67,3.67,3.67h8.8c.13,0,.26.06.34.16l4.46,5.47c.72.88,2.08.88,2.8,0l4.46-5.47c.08-.1.21-.16.34-.16h8.8c2.03,0,3.67-1.64,3.67-3.67V14c0-2.03-1.64-3.67-3.67-3.67Z"/><path fill="url(#fGhefQ8ztJ4HdmqaS6ojvm)" d="m39,10.67H9c-1.84,0-3.33,1.49-3.33,3.33v20c0,1.84,1.49,3.33,3.33,3.33h8.87c.21,0,.41.1.53.26l4.34,5.36c.65.79,1.86.79,2.51,0l4.34-5.36c.13-.16.33-.26.53-.26h8.87c1.84,0,3.33-1.49,3.33-3.33V14c0-1.84-1.49-3.33-3.33-3.33Z"/><path fill="url(#fGhefQ8ztJ4HdmqaS6ojvn)" d="m39,11H9c-1.66,0-3,1.34-3,3v20c0,1.66,1.34,3,3,3h8.93c.29,0,.56.13.73.36l4.22,5.24c.57.7,1.65.7,2.22,0l4.22-5.24c.17-.23.44-.36.73-.36h8.93c1.66,0,3-1.34,3-3V14c0-1.66-1.34-3-3-3Z"/><path fill="url(#fGhefQ8ztJ4HdmqaS6ojvo)" d="m39,11.33H9c-1.47,0-2.67,1.19-2.67,2.67v20c0,1.47,1.19,2.67,2.67,2.67h9c.36,0,.71.17.93.46l4.1,5.13c.5.61,1.44.61,1.94,0l4.1-5.13c.22-.29.56-.46.93-.46h9c1.47,0,2.67-1.19,2.67-2.67V14c0-1.47-1.19-2.67-2.67-2.67Z"/><path fill="url(#fGhefQ8ztJ4HdmqaS6ojvp)" d="m39,11.67H9c-1.29,0-2.33,1.04-2.33,2.33v20c0,1.29,1.04,2.33,2.33,2.33h9.07c.44,0,.85.2,1.12.55l3.98,5.01c.42.52,1.22.52,1.65,0l3.98-5.01c.27-.35.68-.55,1.12-.55h9.07c1.29,0,2.33-1.04,2.33-2.33V14c0-1.29-1.04-2.33-2.33-2.33Z"/><path fill="url(#fGhefQ8ztJ4HdmqaS6ojvq)" d="m39,12H9c-1.1,0-2,.9-2,2v20c0,1.1.9,2,2,2h9.14c.52,0,1,.24,1.32.65l3.86,4.9c.35.43,1.01.43,1.36,0l3.86-4.9c.32-.41.8-.65,1.32-.65h9.14c1.1,0,2-.9,2-2V14c0-1.1-.9-2-2-2Z"/><path fill="url(#fGhefQ8ztJ4HdmqaS6ojvr)" d="m39,12.33H9c-.92,0-1.67.75-1.67,1.67v20c0,.92.75,1.67,1.67,1.67h9.21c.59,0,1.15.28,1.52.75l3.74,4.78c.27.34.79.34,1.07,0l3.74-4.78c.36-.47.92-.75,1.52-.75h9.21c.92,0,1.67-.75,1.67-1.67V14c0-.92-.75-1.67-1.67-1.67Z"/><path fill="url(#fGhefQ8ztJ4HdmqaS6ojvs)" d="m39,12.67H9c-.74,0-1.33.6-1.33,1.33v20c0,.74.6,1.33,1.33,1.33h9.28c.67,0,1.3.31,1.71.84l3.62,4.66c.2.25.58.25.78,0l3.62-4.66c.41-.53,1.04-.84,1.71-.84h9.28c.74,0,1.33-.6,1.33-1.33V14c0-.74-.6-1.33-1.33-1.33Z"/><path fill="url(#fGhefQ8ztJ4HdmqaS6ojvt)" d="m39,13H9c-.55,0-1,.45-1,1v20c0,.55.45,1,1,1h9.35c.75,0,1.45.35,1.91.94l3.49,4.55c.12.16.37.16.49,0l3.49-4.55c.46-.59,1.16-.94,1.91-.94h9.35c.55,0,1-.45,1-1V14c0-.55-.45-1-1-1Z"/><g><path fill="url(#fGhefQ8ztJ4HdmqaS6ojva)" d="m35.5,22H12.5c-.83,0-1.5-.67-1.5-1.5s.67-1.5,1.5-1.5h23c.83,0,1.5.67,1.5,1.5s-.67,1.5-1.5,1.5Z"/><path fill="url(#fGhefQ8ztJ4HdmqaS6ojvb)" d="m35.5,21.89H12.5c-.77,0-1.39-.62-1.39-1.39s.62-1.39,1.39-1.39h23c.77,0,1.39.62,1.39,1.39s-.62,1.39-1.39,1.39Z"/><path fill="url(#fGhefQ8ztJ4HdmqaS6ojvc)" d="m35.5,21.78H12.5c-.71,0-1.28-.57-1.28-1.28s.57-1.28,1.28-1.28h23c.71,0,1.28.57,1.28,1.28s-.57,1.28-1.28,1.28Z"/><path fill="url(#fGhefQ8ztJ4HdmqaS6ojvd)" d="m35.5,21.67H12.5c-.64,0-1.17-.52-1.17-1.17s.52-1.17,1.17-1.17h23c.64,0,1.17.52,1.17,1.17s-.52,1.17-1.17,1.17Z"/><path fill="url(#fGhefQ8ztJ4HdmqaS6ojve)" d="m35.5,21.56H12.5c-.58,0-1.06-.47-1.06-1.06s.47-1.06,1.06-1.06h23c.58,0,1.06.47,1.06,1.06s-.47,1.06-1.06,1.06Z"/><path fill="url(#fGhefQ8ztJ4HdmqaS6ojvf)" d="m35.5,21.44H12.5c-.52,0-.94-.42-.94-.94s.42-.94.94-.94h23c.52,0,.94.42.94.94s-.42.94-.94.94Z"/><path fill="url(#fGhefQ8ztJ4HdmqaS6ojvg)" d="m35.5,21.33H12.5c-.46,0-.83-.37-.83-.83s.37-.83.83-.83h23c.46,0,.83.37.83.83s-.37.83-.83.83Z"/><path fill="url(#fGhefQ8ztJ4HdmqaS6ojvh)" d="m35.5,21.22H12.5c-.4,0-.72-.32-.72-.72s.32-.72.72-.72h23c.4,0,.72.32.72.72s-.32.72-.72.72Z"/><path fill="url(#fGhefQ8ztJ4HdmqaS6ojvi)" d="m35.5,21.11H12.5c-.34,0-.61-.27-.61-.61s.27-.61.61-.61h23c.34,0,.61.27.61.61s-.27.61-.61.61Z"/><path fill="url(#fGhefQ8ztJ4HdmqaS6ojvj)" d="m35.5,21H12.5c-.28,0-.5-.22-.5-.5s.22-.5.5-.5h23c.28,0,.5.22.5.5s-.22.5-.5.5Z"/></g><g><path fill="url(#fGhefQ8ztJ4HdmqaS6ojvu)" d="m22.5,28h-10c-.83,0-1.5-.67-1.5-1.5s.67-1.5,1.5-1.5h10c.83,0,1.5.67,1.5,1.5s-.67,1.5-1.5,1.5Z"/><path fill="url(#fGhefQ8ztJ4HdmqaS6ojvv)" d="m22.5,27.89h-10c-.77,0-1.39-.62-1.39-1.39s.62-1.39,1.39-1.39h10c.77,0,1.39.62,1.39,1.39s-.62,1.39-1.39,1.39Z"/><path fill="url(#fGhefQ8ztJ4HdmqaS6ojvw)" d="m22.5,27.78h-10c-.71,0-1.28-.57-1.28-1.28s.57-1.28,1.28-1.28h10c.71,0,1.28.57,1.28,1.28s-.57,1.28-1.28,1.28Z"/><path fill="url(#fGhefQ8ztJ4HdmqaS6ojvx)" d="m22.5,27.67h-10c-.64,0-1.17-.52-1.17-1.17s.52-1.17,1.17-1.17h10c.64,0,1.17.52,1.17,1.17s-.52,1.17-1.17,1.17Z"/><path fill="url(#fGhefQ8ztJ4HdmqaS6ojvy)" d="m22.5,27.56h-10c-.58,0-1.06-.47-1.06-1.06s.47-1.06,1.06-1.06h10c.58,0,1.06.47,1.06,1.06s-.47,1.06-1.06,1.06Z"/><path fill="url(#fGhefQ8ztJ4HdmqaS6ojvz)" d="m22.5,27.44h-10c-.52,0-.94-.42-.94-.94s.42-.94.94-.94h10c.52,0,.94.42.94.94s-.42.94-.94.94Z"/><path fill="url(#fGhefQ8ztJ4HdmqaS6ojvA)" d="m22.5,27.33h-10c-.46,0-.83-.37-.83-.83s.37-.83.83-.83h10c.46,0,.83.37.83.83s-.37.83-.83.83Z"/><path fill="url(#fGhefQ8ztJ4HdmqaS6ojvB)" d="m22.5,27.22h-10c-.4,0-.72-.32-.72-.72s.32-.72.72-.72h10c.4,0,.72.32.72.72s-.32.72-.72.72Z"/><path fill="url(#fGhefQ8ztJ4HdmqaS6ojvC)" d="m22.5,27.11h-10c-.34,0-.61-.27-.61-.61s.27-.61.61-.61h10c.34,0,.61.27.61.61s-.27.61-.61.61Z"/><path fill="url(#fGhefQ8ztJ4HdmqaS6ojvD)" d="m22.5,27h-10c-.28,0-.5-.22-.5-.5s.22-.5.5-.5h10c.28,0,.5.22.5.5s-.22.5-.5.5Z"/></g></svg>