<svg xmlns="http://www.w3.org/2000/svg" xmlns:xlink="http://www.w3.org/1999/xlink" data-name="Layer 1" viewBox="0 0 48 48"><defs><linearGradient id="YtKRMqrlIoA8FGzKby4UCa" x1="24" x2="24" y1="1.11" y2="8.88" gradientUnits="userSpaceOnUse"><stop offset="0" stop-color="#f2fcff"/><stop offset=".55" stop-color="#c1f3f9"/><stop offset=".97" stop-color="#baccfd"/></linearGradient><linearGradient id="YtKRMqrlIoA8FGzKby4UCb" x1="24" x2="24" y1="1.03" y2="8.88" gradientUnits="userSpaceOnUse"><stop offset="0" stop-color="#effbff"/><stop offset=".55" stop-color="#b3f0f8"/><stop offset=".97" stop-color="#abc1fd"/></linearGradient><linearGradient id="YtKRMqrlIoA8FGzKby4UCc" x1="24" x2="24" y1=".98" y2="8.89" gradientUnits="userSpaceOnUse"><stop offset="0" stop-color="#ecfbff"/><stop offset=".55" stop-color="#a5edf7"/><stop offset=".97" stop-color="#9bb5fc"/></linearGradient><linearGradient id="YtKRMqrlIoA8FGzKby4UCd" x1="24" x2="24" y1=".94" y2="8.89" gradientUnits="userSpaceOnUse"><stop offset="0" stop-color="#eafaff"/><stop offset=".55" stop-color="#98ebf5"/><stop offset=".97" stop-color="#8caafc"/></linearGradient><linearGradient id="YtKRMqrlIoA8FGzKby4UCe" x1="24" x2="24" y1=".92" y2="8.89" gradientUnits="userSpaceOnUse"><stop offset="0" stop-color="#e7f9ff"/><stop offset=".55" stop-color="#8ae8f4"/><stop offset=".97" stop-color="#7c9ffc"/></linearGradient><linearGradient id="YtKRMqrlIoA8FGzKby4UCf" x1="24" x2="24" y1=".92" y2="8.89" gradientUnits="userSpaceOnUse"><stop offset="0" stop-color="#e4f9fe"/><stop offset=".55" stop-color="#7ce5f3"/><stop offset=".97" stop-color="#6d93fb"/></linearGradient><linearGradient id="YtKRMqrlIoA8FGzKby4UCg" x1="24" x2="24" y1=".94" y2="8.89" gradientUnits="userSpaceOnUse"><stop offset="0" stop-color="#e1f8fe"/><stop offset=".55" stop-color="#6ee2f2"/><stop offset=".97" stop-color="#5d88fb"/></linearGradient><linearGradient id="YtKRMqrlIoA8FGzKby4UCh" x1="24" x2="24" y1=".98" y2="8.89" gradientUnits="userSpaceOnUse"><stop offset="0" stop-color="#dff7fe"/><stop offset=".55" stop-color="#61e0f0"/><stop offset=".97" stop-color="#4e7dfb"/></linearGradient><linearGradient id="YtKRMqrlIoA8FGzKby4UCi" x1="24" x2="24" y1="1.03" y2="8.88" gradientUnits="userSpaceOnUse"><stop offset="0" stop-color="#dcf7fe"/><stop offset=".55" stop-color="#53ddef"/><stop offset=".97" stop-color="#3e71fa"/></linearGradient><linearGradient id="YtKRMqrlIoA8FGzKby4UCj" x1="24" x2="24" y1="1.11" y2="8.88" gradientUnits="userSpaceOnUse"><stop offset="0" stop-color="#d9f6fe"/><stop offset=".55" stop-color="#45daee"/><stop offset=".97" stop-color="#2f66fa"/></linearGradient><linearGradient id="YtKRMqrlIoA8FGzKby4UCu" x1="-14.88" x2="-6.27" y1="22.5" y2="22.5" gradientTransform="matrix(-1 0 0 1 -3.18 0)" xlink:href="#YtKRMqrlIoA8FGzKby4UCa"/><linearGradient id="YtKRMqrlIoA8FGzKby4UCv" x1="-15.26" x2="-6.51" y1="22.5" y2="22.5" gradientTransform="matrix(-1 0 0 1 -3.18 0)" xlink:href="#YtKRMqrlIoA8FGzKby4UCb"/><linearGradient id="YtKRMqrlIoA8FGzKby4UCw" x1="-15.53" x2="-6.77" y1="22.5" y2="22.5" gradientTransform="matrix(-1 0 0 1 -3.18 0)" xlink:href="#YtKRMqrlIoA8FGzKby4UCc"/><linearGradient id="YtKRMqrlIoA8FGzKby4UCx" x1="-15.67" x2="-7.04" y1="22.5" y2="22.5" gradientTransform="matrix(-1 0 0 1 -3.18 0)" xlink:href="#YtKRMqrlIoA8FGzKby4UCd"/><linearGradient id="YtKRMqrlIoA8FGzKby4UCy" x1="-15.71" x2="-7.32" y1="22.5" y2="22.5" gradientTransform="matrix(-1 0 0 1 -3.18 0)" xlink:href="#YtKRMqrlIoA8FGzKby4UCe"/><linearGradient id="YtKRMqrlIoA8FGzKby4UCz" x1="-15.62" x2="-7.62" y1="22.5" y2="22.5" gradientTransform="matrix(-1 0 0 1 -3.18 0)" xlink:href="#YtKRMqrlIoA8FGzKby4UCf"/><linearGradient id="YtKRMqrlIoA8FGzKby4UCA" x1="-15.42" x2="-7.94" y1="22.5" y2="22.5" gradientTransform="matrix(-1 0 0 1 -3.18 0)" xlink:href="#YtKRMqrlIoA8FGzKby4UCg"/><linearGradient id="YtKRMqrlIoA8FGzKby4UCB" x1="-15.11" x2="-8.26" y1="22.5" y2="22.5" gradientTransform="matrix(-1 0 0 1 -3.18 0)" xlink:href="#YtKRMqrlIoA8FGzKby4UCh"/><linearGradient id="YtKRMqrlIoA8FGzKby4UCC" x1="-14.67" x2="-8.6" y1="22.5" y2="22.5" gradientTransform="matrix(-1 0 0 1 -3.18 0)" xlink:href="#YtKRMqrlIoA8FGzKby4UCi"/><linearGradient id="YtKRMqrlIoA8FGzKby4UCD" x1="-14.12" x2="-8.95" y1="22.5" y2="22.5" gradientTransform="matrix(-1 0 0 1 -3.18 0)" xlink:href="#YtKRMqrlIoA8FGzKby4UCj"/><linearGradient id="YtKRMqrlIoA8FGzKby4UCE" x1="36.3" x2="44.92" y1="22.5" y2="22.5" xlink:href="#YtKRMqrlIoA8FGzKby4UCa"/><linearGradient id="YtKRMqrlIoA8FGzKby4UCF" x1="35.92" x2="44.67" y1="22.5" y2="22.5" xlink:href="#YtKRMqrlIoA8FGzKby4UCb"/><linearGradient id="YtKRMqrlIoA8FGzKby4UCG" x1="35.66" x2="44.42" y1="22.5" y2="22.5" xlink:href="#YtKRMqrlIoA8FGzKby4UCc"/><linearGradient id="YtKRMqrlIoA8FGzKby4UCH" x1="35.51" x2="44.14" y1="22.5" y2="22.5" xlink:href="#YtKRMqrlIoA8FGzKby4UCd"/><linearGradient id="YtKRMqrlIoA8FGzKby4UCI" x1="35.48" x2="43.86" y1="22.5" y2="22.5" xlink:href="#YtKRMqrlIoA8FGzKby4UCe"/><linearGradient id="YtKRMqrlIoA8FGzKby4UCJ" x1="35.56" x2="43.56" y1="22.5" y2="22.5" xlink:href="#YtKRMqrlIoA8FGzKby4UCf"/><linearGradient id="YtKRMqrlIoA8FGzKby4UCK" x1="35.76" x2="43.25" y1="22.5" y2="22.5" xlink:href="#YtKRMqrlIoA8FGzKby4UCg"/><linearGradient id="YtKRMqrlIoA8FGzKby4UCL" x1="36.08" x2="42.92" y1="22.5" y2="22.5" xlink:href="#YtKRMqrlIoA8FGzKby4UCh"/><linearGradient id="YtKRMqrlIoA8FGzKby4UCM" x1="36.51" x2="42.58" y1="22.5" y2="22.5" xlink:href="#YtKRMqrlIoA8FGzKby4UCi"/><linearGradient id="YtKRMqrlIoA8FGzKby4UCN" x1="37.06" x2="42.23" y1="22.5" y2="22.5" xlink:href="#YtKRMqrlIoA8FGzKby4UCj"/><linearGradient id="YtKRMqrlIoA8FGzKby4UCO" x2="24" y1="-2.34" y2="42.98" xlink:href="#YtKRMqrlIoA8FGzKby4UCa"/><linearGradient id="YtKRMqrlIoA8FGzKby4UCP" x2="24" y1="-1.94" y2="42.78" xlink:href="#YtKRMqrlIoA8FGzKby4UCb"/><linearGradient id="YtKRMqrlIoA8FGzKby4UCQ" x1="24" x2="24" y1="-1.53" y2="42.57" xlink:href="#YtKRMqrlIoA8FGzKby4UCc"/><linearGradient id="YtKRMqrlIoA8FGzKby4UCR" x2="24" y1="-1.11" y2="42.34" xlink:href="#YtKRMqrlIoA8FGzKby4UCd"/><linearGradient id="YtKRMqrlIoA8FGzKby4UCS" x2="24" y1="-.69" y2="42.1" xlink:href="#YtKRMqrlIoA8FGzKby4UCe"/><linearGradient id="YtKRMqrlIoA8FGzKby4UCT" x2="24" y1="-.25" y2="41.84" xlink:href="#YtKRMqrlIoA8FGzKby4UCf"/><linearGradient id="YtKRMqrlIoA8FGzKby4UCU" x1="24" x2="24" y1=".19" y2="41.56" xlink:href="#YtKRMqrlIoA8FGzKby4UCg"/><linearGradient id="YtKRMqrlIoA8FGzKby4UCV" x1="24" x2="24" y1=".64" y2="41.28" xlink:href="#YtKRMqrlIoA8FGzKby4UCh"/><linearGradient id="YtKRMqrlIoA8FGzKby4UCW" x2="24" y1="1.11" y2="40.97" xlink:href="#YtKRMqrlIoA8FGzKby4UCi"/><linearGradient id="YtKRMqrlIoA8FGzKby4UCX" x2="24" y1="1.58" y2="40.65" xlink:href="#YtKRMqrlIoA8FGzKby4UCj"/><linearGradient id="YtKRMqrlIoA8FGzKby4UCk" x1="18" x2="18" y1="17.91" y2="22" gradientUnits="userSpaceOnUse"><stop offset="0" stop-color="#f8fdff"/><stop offset="1" stop-color="#e2fbff"/></linearGradient><linearGradient id="YtKRMqrlIoA8FGzKby4UCl" x1="18" x2="18" y1="17.97" y2="21.87" gradientUnits="userSpaceOnUse"><stop offset="0" stop-color="#f6fdff"/><stop offset="1" stop-color="#dcfaff"/></linearGradient><linearGradient id="YtKRMqrlIoA8FGzKby4UCm" x1="18" x2="18" y1="18.04" y2="21.73" gradientUnits="userSpaceOnUse"><stop offset="0" stop-color="#f5fcff"/><stop offset="1" stop-color="#d5f9ff"/></linearGradient><linearGradient id="YtKRMqrlIoA8FGzKby4UCn" x1="18" x2="18" y1="18.11" y2="21.6" gradientUnits="userSpaceOnUse"><stop offset="0" stop-color="#f3fcff"/><stop offset="1" stop-color="#cff9ff"/></linearGradient><linearGradient id="YtKRMqrlIoA8FGzKby4UCo" x1="18" x2="18" y1="18.19" y2="21.48" gradientUnits="userSpaceOnUse"><stop offset="0" stop-color="#f2fcff"/><stop offset="1" stop-color="#c8f8ff"/></linearGradient><linearGradient id="YtKRMqrlIoA8FGzKby4UCp" x1="18" x2="18" y1="18.28" y2="21.35" gradientUnits="userSpaceOnUse"><stop offset="0" stop-color="#f0fbfe"/><stop offset="1" stop-color="#c2f7ff"/></linearGradient><linearGradient id="YtKRMqrlIoA8FGzKby4UCq" x1="18" x2="18" y1="18.38" y2="21.23" gradientUnits="userSpaceOnUse"><stop offset="0" stop-color="#effbfe"/><stop offset="1" stop-color="#bbf6ff"/></linearGradient><linearGradient id="YtKRMqrlIoA8FGzKby4UCr" x1="18" x2="18" y1="18.47" y2="21.11" gradientUnits="userSpaceOnUse"><stop offset="0" stop-color="#edfbfe"/><stop offset="1" stop-color="#b5f6ff"/></linearGradient><linearGradient id="YtKRMqrlIoA8FGzKby4UCs" x1="18" x2="18" y1="18.58" y2="20.99" gradientUnits="userSpaceOnUse"><stop offset="0" stop-color="#ecfafe"/><stop offset="1" stop-color="#aef5ff"/></linearGradient><linearGradient id="YtKRMqrlIoA8FGzKby4UCt" x1="18" x2="18" y1="18.69" y2="20.88" gradientUnits="userSpaceOnUse"><stop offset="0" stop-color="#eafafe"/><stop offset="1" stop-color="#a8f4ff"/></linearGradient><linearGradient id="YtKRMqrlIoA8FGzKby4UCY" x1="30" x2="30" y1="17.99" y2="21.97" xlink:href="#YtKRMqrlIoA8FGzKby4UCk"/><linearGradient id="YtKRMqrlIoA8FGzKby4UCZ" x1="30" x2="30" y1="18.06" y2="21.9" xlink:href="#YtKRMqrlIoA8FGzKby4UCl"/><linearGradient id="YtKRMqrlIoA8FGzKby4UCaa" x1="30" x2="30" y1="18.13" y2="21.82" xlink:href="#YtKRMqrlIoA8FGzKby4UCm"/><linearGradient id="YtKRMqrlIoA8FGzKby4UCab" x1="30" x2="30" y1="18.2" y2="21.74" xlink:href="#YtKRMqrlIoA8FGzKby4UCn"/><linearGradient id="YtKRMqrlIoA8FGzKby4UCac" x1="30" x2="30" y1="18.29" y2="21.65" xlink:href="#YtKRMqrlIoA8FGzKby4UCo"/><linearGradient id="YtKRMqrlIoA8FGzKby4UCad" x1="30" x2="30" y1="18.37" y2="21.56" xlink:href="#YtKRMqrlIoA8FGzKby4UCp"/><linearGradient id="YtKRMqrlIoA8FGzKby4UCae" x1="30" x2="30" y1="18.47" y2="21.47" xlink:href="#YtKRMqrlIoA8FGzKby4UCq"/><linearGradient id="YtKRMqrlIoA8FGzKby4UCaf" x1="30" x2="30" y1="18.56" y2="21.37" xlink:href="#YtKRMqrlIoA8FGzKby4UCr"/><linearGradient id="YtKRMqrlIoA8FGzKby4UCag" x1="30" x2="30" y1="18.67" y2="21.26" xlink:href="#YtKRMqrlIoA8FGzKby4UCs"/><linearGradient id="YtKRMqrlIoA8FGzKby4UCah" x1="30" x2="30" y1="18.78" y2="21.16" xlink:href="#YtKRMqrlIoA8FGzKby4UCt"/><linearGradient id="YtKRMqrlIoA8FGzKby4UCai" x1="24" x2="24" y1="24.47" y2="30.18" xlink:href="#YtKRMqrlIoA8FGzKby4UCk"/><linearGradient id="YtKRMqrlIoA8FGzKby4UCaj" x1="24" x2="24" y1="24.16" y2="30.08" xlink:href="#YtKRMqrlIoA8FGzKby4UCl"/><linearGradient id="YtKRMqrlIoA8FGzKby4UCak" x1="24" x2="24" y1="23.9" y2="29.97" xlink:href="#YtKRMqrlIoA8FGzKby4UCm"/><linearGradient id="YtKRMqrlIoA8FGzKby4UCal" x1="24" x2="24" y1="23.68" y2="29.86" xlink:href="#YtKRMqrlIoA8FGzKby4UCn"/><linearGradient id="YtKRMqrlIoA8FGzKby4UCam" x1="24" x2="24" y1="23.49" y2="29.75" xlink:href="#YtKRMqrlIoA8FGzKby4UCo"/><linearGradient id="YtKRMqrlIoA8FGzKby4UCan" x1="24" x2="24" y1="23.34" y2="29.63" xlink:href="#YtKRMqrlIoA8FGzKby4UCp"/><linearGradient id="YtKRMqrlIoA8FGzKby4UCao" x1="24" x2="24" y1="23.23" y2="29.51" xlink:href="#YtKRMqrlIoA8FGzKby4UCq"/><linearGradient id="YtKRMqrlIoA8FGzKby4UCap" x1="24" x2="24" y1="23.15" y2="29.38" xlink:href="#YtKRMqrlIoA8FGzKby4UCr"/><linearGradient id="YtKRMqrlIoA8FGzKby4UCaq" x1="24" x2="24" y1="23.12" y2="29.26" xlink:href="#YtKRMqrlIoA8FGzKby4UCs"/><linearGradient id="YtKRMqrlIoA8FGzKby4UCar" x1="24" x2="24" y1="23.12" y2="29.13" xlink:href="#YtKRMqrlIoA8FGzKby4UCt"/></defs><path fill="url(#YtKRMqrlIoA8FGzKby4UCa)" d="m24,14c-1.1,0-2-.9-2-2v-7c0-1.1.9-2,2-2s2,.9,2,2v7c0,1.1-.9,2-2,2Z"/><path fill="url(#YtKRMqrlIoA8FGzKby4UCb)" d="m24,13.83c-1.01,0-1.83-.82-1.83-1.83v-7c0-1.01.82-1.83,1.83-1.83s1.83.82,1.83,1.83v7c0,1.01-.82,1.83-1.83,1.83Z"/><path fill="url(#YtKRMqrlIoA8FGzKby4UCc)" d="m24,13.67c-.92,0-1.67-.75-1.67-1.67v-7c0-.92.75-1.67,1.67-1.67s1.67.75,1.67,1.67v7c0,.92-.75,1.67-1.67,1.67Z"/><path fill="url(#YtKRMqrlIoA8FGzKby4UCd)" d="m24,13.5c-.83,0-1.5-.67-1.5-1.5v-7c0-.83.67-1.5,1.5-1.5s1.5.67,1.5,1.5v7c0,.83-.67,1.5-1.5,1.5Z"/><path fill="url(#YtKRMqrlIoA8FGzKby4UCe)" d="m24,13.33c-.74,0-1.33-.6-1.33-1.33v-7c0-.74.6-1.33,1.33-1.33s1.33.6,1.33,1.33v7c0,.74-.6,1.33-1.33,1.33Z"/><path fill="url(#YtKRMqrlIoA8FGzKby4UCf)" d="m24,13.17c-.64,0-1.17-.52-1.17-1.17v-7c0-.64.52-1.17,1.17-1.17s1.17.52,1.17,1.17v7c0,.64-.52,1.17-1.17,1.17Z"/><path fill="url(#YtKRMqrlIoA8FGzKby4UCg)" d="m24,13c-.55,0-1-.45-1-1v-7c0-.55.45-1,1-1s1,.45,1,1v7c0,.55-.45,1-1,1Z"/><path fill="url(#YtKRMqrlIoA8FGzKby4UCh)" d="m24,12.83c-.46,0-.83-.37-.83-.83v-7c0-.46.37-.83.83-.83s.83.37.83.83v7c0,.46-.37.83-.83.83Z"/><path fill="url(#YtKRMqrlIoA8FGzKby4UCi)" d="m24,12.67c-.37,0-.67-.3-.67-.67v-7c0-.37.3-.67.67-.67s.67.3.67.67v7c0,.37-.3.67-.67.67Z"/><path fill="url(#YtKRMqrlIoA8FGzKby4UCj)" d="m24,12.5c-.28,0-.5-.22-.5-.5v-7c0-.28.22-.5.5-.5s.5.22.5.5v7c0,.28-.22.5-.5.5Z"/><g><path fill="url(#YtKRMqrlIoA8FGzKby4UCu)" d="m6,29h4s0-13,0-13h-4c-1.66,0-3,1.34-3,3v7c0,1.66,1.34,3,3,3Z"/><path fill="url(#YtKRMqrlIoA8FGzKby4UCv)" d="m9.8,28.67v-12.33s-3.76,0-3.76,0c-1.49,0-2.71,1.21-2.71,2.71v6.92c0,1.49,1.21,2.71,2.71,2.71h3.76Z"/><path fill="url(#YtKRMqrlIoA8FGzKby4UCw)" d="m9.6,28.33v-11.67s-3.52,0-3.52,0c-1.33,0-2.41,1.08-2.41,2.41v6.84c0,1.33,1.08,2.41,2.41,2.41h3.52Z"/><path fill="url(#YtKRMqrlIoA8FGzKby4UCx)" d="m9.41,28v-11s-3.29,0-3.29,0c-1.17,0-2.12.95-2.12,2.12v6.76c0,1.17.95,2.12,2.12,2.12h3.29Z"/><path fill="url(#YtKRMqrlIoA8FGzKby4UCy)" d="m9.21,27.67v-10.33s-3.05,0-3.05,0c-1.01,0-1.82.82-1.82,1.82v6.68c0,1.01.82,1.82,1.82,1.82h3.05Z"/><path fill="url(#YtKRMqrlIoA8FGzKby4UCz)" d="m9.01,27.33v-9.67s-2.81,0-2.81,0c-.85,0-1.53.69-1.53,1.53v6.61c0,.85.69,1.53,1.53,1.53h2.81Z"/><path fill="url(#YtKRMqrlIoA8FGzKby4UCA)" d="m8.81,27v-9s-2.57,0-2.57,0c-.68,0-1.24.55-1.24,1.24v6.53c0,.68.55,1.24,1.24,1.24h2.57Z"/><path fill="url(#YtKRMqrlIoA8FGzKby4UCB)" d="m8.61,26.67v-8.33s-2.34,0-2.34,0c-.52,0-.94.42-.94.94v6.45c0,.52.42.94.94.94h2.34Z"/><path fill="url(#YtKRMqrlIoA8FGzKby4UCC)" d="m8.41,26.33v-7.67s-2.1,0-2.1,0c-.36,0-.65.29-.65.65v6.37c0,.36.29.65.65.65h2.1Z"/><path fill="url(#YtKRMqrlIoA8FGzKby4UCD)" d="m8.22,26v-7s-1.86,0-1.86,0c-.2,0-.36.16-.36.36v6.29c0,.2.16.36.36.36h1.86Z"/></g><g><path fill="url(#YtKRMqrlIoA8FGzKby4UCE)" d="m42,29h-4v-13h4c1.66,0,3,1.34,3,3v7c0,1.66-1.34,3-3,3Z"/><path fill="url(#YtKRMqrlIoA8FGzKby4UCF)" d="m38.2,28.67v-12.33h3.76c1.49,0,2.71,1.21,2.71,2.71v6.92c0,1.49-1.21,2.71-2.71,2.71h-3.76Z"/><path fill="url(#YtKRMqrlIoA8FGzKby4UCG)" d="m38.4,28.33v-11.67h3.52c1.33,0,2.41,1.08,2.41,2.41v6.84c0,1.33-1.08,2.41-2.41,2.41h-3.52Z"/><path fill="url(#YtKRMqrlIoA8FGzKby4UCH)" d="m38.59,28v-11h3.29c1.17,0,2.12.95,2.12,2.12v6.76c0,1.17-.95,2.12-2.12,2.12h-3.29Z"/><path fill="url(#YtKRMqrlIoA8FGzKby4UCI)" d="m38.79,27.67v-10.33h3.05c1.01,0,1.82.82,1.82,1.82v6.68c0,1.01-.82,1.82-1.82,1.82h-3.05Z"/><path fill="url(#YtKRMqrlIoA8FGzKby4UCJ)" d="m38.99,27.33v-9.67h2.81c.85,0,1.53.69,1.53,1.53v6.61c0,.85-.69,1.53-1.53,1.53h-2.81Z"/><path fill="url(#YtKRMqrlIoA8FGzKby4UCK)" d="m39.19,27v-9h2.57c.68,0,1.24.55,1.24,1.24v6.53c0,.68-.55,1.24-1.24,1.24h-2.57Z"/><path fill="url(#YtKRMqrlIoA8FGzKby4UCL)" d="m39.39,26.67v-8.33h2.34c.52,0,.94.42.94.94v6.45c0,.52-.42.94-.94.94h-2.34Z"/><path fill="url(#YtKRMqrlIoA8FGzKby4UCM)" d="m39.59,26.33v-7.67h2.1c.36,0,.65.29.65.65v6.37c0,.36-.29.65-.65.65h-2.1Z"/><path fill="url(#YtKRMqrlIoA8FGzKby4UCN)" d="m39.78,26v-7h1.86c.2,0,.36.16.36.36v6.29c0,.2-.16.36-.36.36h-1.86Z"/></g><g><path fill="url(#YtKRMqrlIoA8FGzKby4UCO)" d="m36,8H12c-2.76,0-5,2.24-5,5v19c0,2.76,2.24,5,5,5h2.75c.14,0,.25.11.25.25v5.91c0,.79.87,1.27,1.54.84l10.91-6.96s.09-.04.13-.04h8.42c2.76,0,5-2.24,5-5V13c0-2.76-2.24-5-5-5Z"/><path fill="url(#YtKRMqrlIoA8FGzKby4UCP)" d="m36,8.33H12c-2.58,0-4.67,2.09-4.67,4.67v19c0,2.58,2.09,4.67,4.67,4.67h2.95c.21,0,.38.17.38.38v5.65c0,.73.81,1.17,1.42.78l10.55-6.75c.06-.04.13-.06.21-.06h8.48c2.58,0,4.67-2.09,4.67-4.67V13c0-2.58-2.09-4.67-4.67-4.67Z"/><path fill="url(#YtKRMqrlIoA8FGzKby4UCQ)" d="m36,8.67H12c-2.39,0-4.33,1.94-4.33,4.33v19c0,2.39,1.94,4.33,4.33,4.33h3.15c.29,0,.52.23.52.52v5.38c0,.67.74,1.07,1.3.71l10.2-6.53c.08-.05.18-.08.28-.08h8.55c2.39,0,4.33-1.94,4.33-4.33V13c0-2.39-1.94-4.33-4.33-4.33Z"/><path fill="url(#YtKRMqrlIoA8FGzKby4UCR)" d="m36,9H12c-2.21,0-4,1.79-4,4v19c0,2.21,1.79,4,4,4h3.34c.36,0,.66.29.66.66v5.12c0,.61.67.98,1.19.65l9.84-6.32c.11-.07.23-.11.36-.11h8.61c2.21,0,4-1.79,4-4V13c0-2.21-1.79-4-4-4Z"/><path fill="url(#YtKRMqrlIoA8FGzKby4UCS)" d="m36,9.33H12c-2.03,0-3.67,1.64-3.67,3.67v19c0,2.03,1.64,3.67,3.67,3.67h3.54c.44,0,.79.35.79.79v4.86c0,.55.61.88,1.07.58l9.49-6.11c.13-.08.28-.13.43-.13h8.68c2.03,0,3.67-1.64,3.67-3.67V13c0-2.03-1.64-3.67-3.67-3.67Z"/><path fill="url(#YtKRMqrlIoA8FGzKby4UCT)" d="m36,9.67H12c-1.84,0-3.33,1.49-3.33,3.33v19c0,1.84,1.49,3.33,3.33,3.33h3.74c.51,0,.93.42.93.93v4.6c0,.49.54.78.95.52l9.13-5.9c.15-.1.33-.15.51-.15h8.74c1.84,0,3.33-1.49,3.33-3.33V13c0-1.84-1.49-3.33-3.33-3.33Z"/><path fill="url(#YtKRMqrlIoA8FGzKby4UCU)" d="m36,10H12c-1.66,0-3,1.34-3,3v19c0,1.66,1.34,3,3,3h3.94c.59,0,1.06.48,1.06,1.06v4.34c0,.43.47.69.83.45l8.78-5.69c.17-.11.38-.17.58-.17h8.81c1.66,0,3-1.34,3-3V13c0-1.66-1.34-3-3-3Z"/><path fill="url(#YtKRMqrlIoA8FGzKby4UCV)" d="m36,10.33H12c-1.47,0-2.67,1.19-2.67,2.67v19c0,1.47,1.19,2.67,2.67,2.67h4.13c.66,0,1.2.54,1.2,1.2v4.08c0,.37.41.59.72.39l8.42-5.47c.2-.13.42-.2.66-.2h8.87c1.47,0,2.67-1.19,2.67-2.67V13c0-1.47-1.19-2.67-2.67-2.67Z"/><path fill="url(#YtKRMqrlIoA8FGzKby4UCW)" d="m36,10.67H12c-1.29,0-2.33,1.04-2.33,2.33v19c0,1.29,1.04,2.33,2.33,2.33h4.33c.74,0,1.34.6,1.34,1.34v3.82c0,.31.34.49.6.32l8.06-5.26c.22-.14.47-.22.73-.22h8.94c1.29,0,2.33-1.04,2.33-2.33V13c0-1.29-1.04-2.33-2.33-2.33Z"/><path fill="url(#YtKRMqrlIoA8FGzKby4UCX)" d="m36,11H12c-1.1,0-2,.9-2,2v19c0,1.1.9,2,2,2h4.53c.81,0,1.47.66,1.47,1.47v3.56c0,.25.27.39.48.26l7.71-5.05c.24-.16.52-.24.81-.24h9c1.1,0,2-.9,2-2V13c0-1.1-.9-2-2-2Z"/></g><g><circle cx="18" cy="20" r="2" fill="url(#YtKRMqrlIoA8FGzKby4UCk)"/><circle cx="18" cy="20" r="1.89" fill="url(#YtKRMqrlIoA8FGzKby4UCl)"/><circle cx="18" cy="20" r="1.78" fill="url(#YtKRMqrlIoA8FGzKby4UCm)"/><circle cx="18" cy="20" r="1.67" fill="url(#YtKRMqrlIoA8FGzKby4UCn)"/><circle cx="18" cy="20" r="1.56" fill="url(#YtKRMqrlIoA8FGzKby4UCo)"/><circle cx="18" cy="20" r="1.44" fill="url(#YtKRMqrlIoA8FGzKby4UCp)"/><circle cx="18" cy="20" r="1.33" fill="url(#YtKRMqrlIoA8FGzKby4UCq)"/><circle cx="18" cy="20" r="1.22" fill="url(#YtKRMqrlIoA8FGzKby4UCr)"/><circle cx="18" cy="20" r="1.11" fill="url(#YtKRMqrlIoA8FGzKby4UCs)"/><circle cx="18" cy="20" r="1" fill="url(#YtKRMqrlIoA8FGzKby4UCt)"/></g><g><circle cx="30" cy="20" r="2" fill="url(#YtKRMqrlIoA8FGzKby4UCY)"/><circle cx="30" cy="20" r="1.89" fill="url(#YtKRMqrlIoA8FGzKby4UCZ)"/><circle cx="30" cy="20" r="1.78" fill="url(#YtKRMqrlIoA8FGzKby4UCaa)"/><circle cx="30" cy="20" r="1.67" fill="url(#YtKRMqrlIoA8FGzKby4UCab)"/><circle cx="30" cy="20" r="1.56" fill="url(#YtKRMqrlIoA8FGzKby4UCac)"/><circle cx="30" cy="20" r="1.44" fill="url(#YtKRMqrlIoA8FGzKby4UCad)"/><circle cx="30" cy="20" r="1.33" fill="url(#YtKRMqrlIoA8FGzKby4UCae)"/><circle cx="30" cy="20" r="1.22" fill="url(#YtKRMqrlIoA8FGzKby4UCaf)"/><circle cx="30" cy="20" r="1.11" fill="url(#YtKRMqrlIoA8FGzKby4UCag)"/><circle cx="30" cy="20" r="1" fill="url(#YtKRMqrlIoA8FGzKby4UCah)"/></g><g><path fill="url(#YtKRMqrlIoA8FGzKby4UCai)" d="m24,29.5c-2.09,0-4.06-.62-5.68-1.78-.67-.48-.83-1.42-.35-2.09s1.42-.83,2.09-.35c2.2,1.57,5.68,1.57,7.88,0,.67-.48,1.61-.33,2.09.35s.33,1.61-.35,2.09c-1.63,1.17-3.59,1.78-5.68,1.78Z"/><path fill="url(#YtKRMqrlIoA8FGzKby4UCaj)" d="m18.06,25.69c.18-.26.45-.43.72-.5.43-.11.92-.04,1.33.24,1.1.76,2.5,1.14,3.91,1.14,1.39,0,2.78-.38,3.87-1.14.4-.28.89-.35,1.32-.25.28.07.54.24.73.5.45.62.3,1.49-.32,1.94-1.61,1.15-3.56,1.76-5.62,1.76s-4.01-.61-5.62-1.76c-.62-.45-.77-1.31-.32-1.94Z"/><path fill="url(#YtKRMqrlIoA8FGzKby4UCak)" d="m18.15,25.76c.18-.25.45-.41.72-.45.42-.07.89.02,1.29.29,1.09.73,2.47,1.1,3.86,1.09,1.37,0,2.73-.37,3.82-1.09.4-.27.87-.36,1.29-.29.27.04.54.19.73.45.41.57.28,1.37-.3,1.78-1.59,1.13-3.52,1.74-5.56,1.74s-3.97-.6-5.56-1.74c-.57-.41-.71-1.21-.3-1.78Z"/><path fill="url(#YtKRMqrlIoA8FGzKby4UCal)" d="m18.24,25.82c.18-.25.45-.39.72-.4.4-.02.86.08,1.25.34,1.09.7,2.44,1.05,3.8,1.05,1.35,0,2.69-.36,3.77-1.05.4-.25.85-.36,1.25-.34.26.01.54.15.72.4.38.52.25,1.25-.27,1.63-1.56,1.12-3.48,1.72-5.49,1.72s-3.93-.6-5.49-1.72c-.52-.37-.64-1.1-.27-1.63Z"/><path fill="url(#YtKRMqrlIoA8FGzKby4UCam)" d="m18.33,25.89c.18-.25.46-.37.71-.35.39.02.83.14,1.22.38,1.08.67,2.41,1.01,3.75,1.01,1.33,0,2.65-.34,3.72-1.01.39-.24.83-.36,1.22-.39.26-.02.54.11.72.36.34.47.23,1.13-.24,1.47-1.54,1.1-3.44,1.7-5.43,1.7s-3.88-.59-5.43-1.7c-.47-.34-.58-1-.24-1.47Z"/><path fill="url(#YtKRMqrlIoA8FGzKby4UCan)" d="m18.42,25.95c.17-.24.46-.35.71-.31.38.06.8.2,1.18.43,1.08.64,2.38.97,3.7.96,1.31,0,2.6-.33,3.67-.96.39-.23.8-.37,1.18-.43.25-.04.54.06.71.31.3.42.21,1.01-.22,1.32-1.52,1.09-3.4,1.68-5.36,1.68s-3.84-.59-5.36-1.68c-.42-.3-.52-.89-.22-1.32Z"/><path fill="url(#YtKRMqrlIoA8FGzKby4UCao)" d="m18.51,26.01c.17-.24.46-.33.71-.26.36.11.76.26,1.14.47,1.07.61,2.35.92,3.65.92,1.29,0,2.56-.32,3.62-.92.38-.22.78-.37,1.15-.48.24-.07.54.02.71.26.27.37.18.9-.19,1.16-1.5,1.07-3.36,1.66-5.3,1.66s-3.8-.58-5.3-1.66c-.37-.27-.46-.79-.19-1.16Z"/><path fill="url(#YtKRMqrlIoA8FGzKby4UCap)" d="m18.6,26.08c.17-.23.47-.31.7-.21.35.15.73.32,1.11.52,1.07.58,2.32.88,3.59.88,1.27,0,2.51-.3,3.58-.88.38-.2.76-.37,1.11-.53.24-.1.54-.02.71.21.23.32.16.78-.17,1.01-1.48,1.06-3.32,1.64-5.23,1.64s-3.75-.58-5.23-1.64c-.32-.23-.4-.68-.17-1.01Z"/><path fill="url(#YtKRMqrlIoA8FGzKby4UCaq)" d="m18.69,26.14c.16-.23.47-.29.7-.16.34.19.7.38,1.07.57,1.06.55,2.29.84,3.54.84,1.24,0,2.47-.29,3.53-.83.37-.19.74-.38,1.08-.57.23-.13.54-.07.7.16.2.27.13.66-.14.85-1.46,1.04-3.29,1.61-5.17,1.61s-3.71-.57-5.17-1.61c-.27-.2-.34-.58-.14-.85Z"/><path fill="url(#YtKRMqrlIoA8FGzKby4UCar)" d="m24,28.5c-1.85,0-3.67-.57-5.1-1.59-.22-.16-.28-.47-.12-.7.16-.23.47-.28.7-.12,1.27.91,2.87,1.41,4.52,1.41s3.25-.5,4.52-1.41c.22-.16.54-.11.7.12.16.22.11.54-.12.7-1.44,1.03-3.25,1.59-5.1,1.59Z"/></g></svg>