<svg xmlns="http://www.w3.org/2000/svg" xmlns:xlink="http://www.w3.org/1999/xlink" data-name="Layer 1" viewBox="0 0 48 48"><defs><linearGradient id="Uuo8yORoD94Eax1ZhHdwQk" x1="20.92" x2="2.08" y1="14.84" y2="36.81" gradientTransform="matrix(-1 0 0 1 39 0)" gradientUnits="userSpaceOnUse"><stop offset="0" stop-color="#f5f8ff"/><stop offset=".55" stop-color="#bec7f9"/><stop offset=".97" stop-color="#d6b5f3"/></linearGradient><linearGradient id="Uuo8yORoD94Eax1ZhHdwQl" x1="20.9" x2="2.07" y1="14.68" y2="36.97" gradientTransform="matrix(-1 0 0 1 39 0)" gradientUnits="userSpaceOnUse"><stop offset="0" stop-color="#f3f7ff"/><stop offset=".55" stop-color="#afbbf8"/><stop offset=".97" stop-color="#cda5f0"/></linearGradient><linearGradient id="Uuo8yORoD94Eax1ZhHdwQm" x1="20.85" x2="2.08" y1="14.55" y2="37.12" gradientTransform="matrix(-1 0 0 1 39 0)" gradientUnits="userSpaceOnUse"><stop offset="0" stop-color="#f1f5ff"/><stop offset=".55" stop-color="#a1aef7"/><stop offset=".97" stop-color="#c494ee"/></linearGradient><linearGradient id="Uuo8yORoD94Eax1ZhHdwQn" x1="20.79" x2="2.1" y1="14.43" y2="37.24" gradientTransform="matrix(-1 0 0 1 39 0)" gradientUnits="userSpaceOnUse"><stop offset="0" stop-color="#eff4ff"/><stop offset=".55" stop-color="#92a2f5"/><stop offset=".97" stop-color="#bb84eb"/></linearGradient><linearGradient id="Uuo8yORoD94Eax1ZhHdwQo" x1="20.71" x2="2.13" y1="14.34" y2="37.34" gradientTransform="matrix(-1 0 0 1 39 0)" gradientUnits="userSpaceOnUse"><stop offset="0" stop-color="#edf2ff"/><stop offset=".55" stop-color="#8496f4"/><stop offset=".97" stop-color="#b273e8"/></linearGradient><linearGradient id="Uuo8yORoD94Eax1ZhHdwQp" x1="20.61" x2="2.19" y1="14.27" y2="37.43" gradientTransform="matrix(-1 0 0 1 39 0)" gradientUnits="userSpaceOnUse"><stop offset="0" stop-color="#eaf1fe"/><stop offset=".55" stop-color="#7589f3"/><stop offset=".97" stop-color="#a863e6"/></linearGradient><linearGradient id="Uuo8yORoD94Eax1ZhHdwQq" x1="20.49" x2="2.26" y1="14.22" y2="37.5" gradientTransform="matrix(-1 0 0 1 39 0)" gradientUnits="userSpaceOnUse"><stop offset="0" stop-color="#e8effe"/><stop offset=".55" stop-color="#677df2"/><stop offset=".97" stop-color="#9f52e3"/></linearGradient><linearGradient id="Uuo8yORoD94Eax1ZhHdwQr" x1="20.35" x2="2.34" y1="14.2" y2="37.54" gradientTransform="matrix(-1 0 0 1 39 0)" gradientUnits="userSpaceOnUse"><stop offset="0" stop-color="#e6eefe"/><stop offset=".55" stop-color="#5871f0"/><stop offset=".97" stop-color="#9642e0"/></linearGradient><linearGradient id="Uuo8yORoD94Eax1ZhHdwQs" x1="20.2" x2="2.44" y1="14.2" y2="37.57" gradientTransform="matrix(-1 0 0 1 39 0)" gradientUnits="userSpaceOnUse"><stop offset="0" stop-color="#e4ecfe"/><stop offset=".55" stop-color="#4a64ef"/><stop offset=".97" stop-color="#8d31de"/></linearGradient><linearGradient id="Uuo8yORoD94Eax1ZhHdwQt" x1="20.03" x2="2.56" y1="14.22" y2="37.58" gradientTransform="matrix(-1 0 0 1 39 0)" gradientUnits="userSpaceOnUse"><stop offset="0" stop-color="#e2ebfe"/><stop offset=".55" stop-color="#3b58ee"/><stop offset=".97" stop-color="#8421db"/></linearGradient><linearGradient id="Uuo8yORoD94Eax1ZhHdwQu" x1="29.92" x2="11.08" y1="3.84" y2="25.81" gradientUnits="userSpaceOnUse"><stop offset="0" stop-color="#f2fcff"/><stop offset=".55" stop-color="#c1f3f9"/><stop offset=".97" stop-color="#baccfd"/></linearGradient><linearGradient id="Uuo8yORoD94Eax1ZhHdwQv" x1="29.9" x2="11.07" y1="3.68" y2="25.97" gradientUnits="userSpaceOnUse"><stop offset="0" stop-color="#effbff"/><stop offset=".55" stop-color="#b3f0f8"/><stop offset=".97" stop-color="#abc1fd"/></linearGradient><linearGradient id="Uuo8yORoD94Eax1ZhHdwQw" x1="29.85" x2="11.08" y1="3.55" y2="26.12" gradientUnits="userSpaceOnUse"><stop offset="0" stop-color="#ecfbff"/><stop offset=".55" stop-color="#a5edf7"/><stop offset=".97" stop-color="#9bb5fc"/></linearGradient><linearGradient id="Uuo8yORoD94Eax1ZhHdwQx" x1="29.79" x2="11.1" y1="3.43" y2="26.24" gradientUnits="userSpaceOnUse"><stop offset="0" stop-color="#eafaff"/><stop offset=".55" stop-color="#98ebf5"/><stop offset=".97" stop-color="#8caafc"/></linearGradient><linearGradient id="Uuo8yORoD94Eax1ZhHdwQy" x1="29.71" x2="11.13" y1="3.34" y2="26.34" gradientUnits="userSpaceOnUse"><stop offset="0" stop-color="#e7f9ff"/><stop offset=".55" stop-color="#8ae8f4"/><stop offset=".97" stop-color="#7c9ffc"/></linearGradient><linearGradient id="Uuo8yORoD94Eax1ZhHdwQz" x1="29.61" x2="11.19" y1="3.27" y2="26.43" gradientUnits="userSpaceOnUse"><stop offset="0" stop-color="#e4f9fe"/><stop offset=".55" stop-color="#7ce5f3"/><stop offset=".97" stop-color="#6d93fb"/></linearGradient><linearGradient id="Uuo8yORoD94Eax1ZhHdwQA" x1="29.49" x2="11.26" y1="3.22" y2="26.5" gradientUnits="userSpaceOnUse"><stop offset="0" stop-color="#e1f8fe"/><stop offset=".55" stop-color="#6ee2f2"/><stop offset=".97" stop-color="#5d88fb"/></linearGradient><linearGradient id="Uuo8yORoD94Eax1ZhHdwQB" x1="29.35" x2="11.34" y1="3.2" y2="26.54" gradientUnits="userSpaceOnUse"><stop offset="0" stop-color="#dff7fe"/><stop offset=".55" stop-color="#61e0f0"/><stop offset=".97" stop-color="#4e7dfb"/></linearGradient><linearGradient id="Uuo8yORoD94Eax1ZhHdwQC" x1="29.2" x2="11.44" y1="3.2" y2="26.57" gradientUnits="userSpaceOnUse"><stop offset="0" stop-color="#dcf7fe"/><stop offset=".55" stop-color="#53ddef"/><stop offset=".97" stop-color="#3e71fa"/></linearGradient><linearGradient id="Uuo8yORoD94Eax1ZhHdwQD" x1="29.03" x2="11.56" y1="3.22" y2="26.58" gradientUnits="userSpaceOnUse"><stop offset="0" stop-color="#d9f6fe"/><stop offset=".55" stop-color="#45daee"/><stop offset=".97" stop-color="#2f66fa"/></linearGradient><linearGradient id="Uuo8yORoD94Eax1ZhHdwQa" x1="11" x2="28" y1="12.5" y2="12.5" gradientUnits="userSpaceOnUse"><stop offset="0" stop-color="#fbfeff"/><stop offset="1" stop-color="#f0fdff"/></linearGradient><linearGradient id="Uuo8yORoD94Eax1ZhHdwQb" x1="11.11" x2="27.89" y1="12.5" y2="12.5" gradientUnits="userSpaceOnUse"><stop offset="0" stop-color="#f9feff"/><stop offset="1" stop-color="#e8fcff"/></linearGradient><linearGradient id="Uuo8yORoD94Eax1ZhHdwQc" x1="11.22" x2="27.78" y1="12.5" y2="12.5" gradientUnits="userSpaceOnUse"><stop offset="0" stop-color="#f7fdff"/><stop offset="1" stop-color="#e0fbff"/></linearGradient><linearGradient id="Uuo8yORoD94Eax1ZhHdwQd" x1="11.33" x2="27.67" y1="12.5" y2="12.5" gradientUnits="userSpaceOnUse"><stop offset="0" stop-color="#f5fdff"/><stop offset="1" stop-color="#d8faff"/></linearGradient><linearGradient id="Uuo8yORoD94Eax1ZhHdwQe" x1="11.44" x2="27.56" y1="12.5" y2="12.5" gradientUnits="userSpaceOnUse"><stop offset="0" stop-color="#f3fcff"/><stop offset="1" stop-color="#d0f9ff"/></linearGradient><linearGradient id="Uuo8yORoD94Eax1ZhHdwQf" x1="11.56" x2="27.44" y1="12.5" y2="12.5" gradientUnits="userSpaceOnUse"><stop offset="0" stop-color="#f2fcfe"/><stop offset="1" stop-color="#c8f8ff"/></linearGradient><linearGradient id="Uuo8yORoD94Eax1ZhHdwQg" x1="11.67" x2="27.33" y1="12.5" y2="12.5" gradientUnits="userSpaceOnUse"><stop offset="0" stop-color="#f0fbfe"/><stop offset="1" stop-color="#c0f7ff"/></linearGradient><linearGradient id="Uuo8yORoD94Eax1ZhHdwQh" x1="11.78" x2="27.22" y1="12.5" y2="12.5" gradientUnits="userSpaceOnUse"><stop offset="0" stop-color="#eefbfe"/><stop offset="1" stop-color="#b8f6ff"/></linearGradient><linearGradient id="Uuo8yORoD94Eax1ZhHdwQi" x1="11.89" x2="27.11" y1="12.5" y2="12.5" gradientUnits="userSpaceOnUse"><stop offset="0" stop-color="#ecfafe"/><stop offset="1" stop-color="#b0f5ff"/></linearGradient><linearGradient id="Uuo8yORoD94Eax1ZhHdwQj" x1="12" x2="27" y1="12.5" y2="12.5" gradientUnits="userSpaceOnUse"><stop offset="0" stop-color="#eafafe"/><stop offset="1" stop-color="#a8f4ff"/></linearGradient><linearGradient id="Uuo8yORoD94Eax1ZhHdwQE" x2="23" y1="18.5" y2="18.5" xlink:href="#Uuo8yORoD94Eax1ZhHdwQa"/><linearGradient id="Uuo8yORoD94Eax1ZhHdwQF" x2="22.89" y1="18.5" y2="18.5" xlink:href="#Uuo8yORoD94Eax1ZhHdwQb"/><linearGradient id="Uuo8yORoD94Eax1ZhHdwQG" x2="22.78" y1="18.5" y2="18.5" xlink:href="#Uuo8yORoD94Eax1ZhHdwQc"/><linearGradient id="Uuo8yORoD94Eax1ZhHdwQH" x2="22.67" y1="18.5" y2="18.5" xlink:href="#Uuo8yORoD94Eax1ZhHdwQd"/><linearGradient id="Uuo8yORoD94Eax1ZhHdwQI" x2="22.56" y1="18.5" y2="18.5" xlink:href="#Uuo8yORoD94Eax1ZhHdwQe"/><linearGradient id="Uuo8yORoD94Eax1ZhHdwQJ" x2="22.44" y1="18.5" y2="18.5" xlink:href="#Uuo8yORoD94Eax1ZhHdwQf"/><linearGradient id="Uuo8yORoD94Eax1ZhHdwQK" x2="22.33" y1="18.5" y2="18.5" xlink:href="#Uuo8yORoD94Eax1ZhHdwQg"/><linearGradient id="Uuo8yORoD94Eax1ZhHdwQL" x2="22.22" y1="18.5" y2="18.5" xlink:href="#Uuo8yORoD94Eax1ZhHdwQh"/><linearGradient id="Uuo8yORoD94Eax1ZhHdwQM" x2="22.11" y1="18.5" y2="18.5" xlink:href="#Uuo8yORoD94Eax1ZhHdwQi"/><linearGradient id="Uuo8yORoD94Eax1ZhHdwQN" x2="22" y1="18.5" y2="18.5" xlink:href="#Uuo8yORoD94Eax1ZhHdwQj"/></defs><path fill="url(#Uuo8yORoD94Eax1ZhHdwQk)" d="m18,17h21c1.66,0,3,1.34,3,3v19.79c0,1.55-1.69,2.51-3.02,1.72l-7.61-4.51h-13.37c-1.66,0-3-1.34-3-3v-14c0-1.66,1.34-3,3-3Z"/><path fill="url(#Uuo8yORoD94Eax1ZhHdwQl)" d="m18.11,17.33h20.79c1.53,0,2.76,1.24,2.76,2.76v19.47c0,1.39-1.52,2.26-2.71,1.55l-7.45-4.44h-13.4c-1.53,0-2.78-1.24-2.78-2.78v-13.78c0-1.53,1.24-2.78,2.78-2.78Z"/><path fill="url(#Uuo8yORoD94Eax1ZhHdwQm)" d="m18.22,17.67h20.58c1.4,0,2.53,1.13,2.53,2.53v19.14c0,1.24-1.35,2-2.41,1.37l-7.28-4.37h-13.42c-1.41,0-2.56-1.14-2.56-2.56v-13.56c0-1.41,1.14-2.56,2.56-2.56Z"/><path fill="url(#Uuo8yORoD94Eax1ZhHdwQn)" d="m18.33,18h20.38c1.26,0,2.29,1.03,2.29,2.29v18.81c0,1.08-1.17,1.75-2.1,1.2l-7.12-4.3h-13.44c-1.29,0-2.33-1.04-2.33-2.33v-13.33c0-1.29,1.04-2.33,2.33-2.33Z"/><path fill="url(#Uuo8yORoD94Eax1ZhHdwQo)" d="m18.44,18.33h20.17c1.13,0,2.05.92,2.05,2.05v18.49c0,.92-1,1.49-1.8,1.02l-6.96-4.23h-13.47c-1.17,0-2.11-.95-2.11-2.11v-13.11c0-1.17.95-2.11,2.11-2.11Z"/><path fill="url(#Uuo8yORoD94Eax1ZhHdwQp)" d="m18.56,18.67h19.96c1,0,1.82.81,1.82,1.82v18.16c0,.76-.83,1.24-1.49.85l-6.8-4.16h-13.49c-1.04,0-1.89-.85-1.89-1.89v-12.89c0-1.04.85-1.89,1.89-1.89Z"/><path fill="url(#Uuo8yORoD94Eax1ZhHdwQq)" d="m18.67,19h19.75c.87,0,1.58.71,1.58,1.58v17.83c0,.61-.66.98-1.18.67l-6.63-4.09h-13.52c-.92,0-1.67-.75-1.67-1.67v-12.67c0-.92.75-1.67,1.67-1.67Z"/><path fill="url(#Uuo8yORoD94Eax1ZhHdwQr)" d="m18.78,19.33h19.55c.74,0,1.34.6,1.34,1.34v17.51c0,.45-.49.73-.88.5l-6.47-4.01h-13.54c-.8,0-1.44-.65-1.44-1.44v-12.44c0-.8.65-1.44,1.44-1.44Z"/><path fill="url(#Uuo8yORoD94Eax1ZhHdwQs)" d="m18.89,19.67h19.34c.61,0,1.11.5,1.11,1.11v17.18c0,.29-.32.47-.57.32l-6.31-3.94h-13.56c-.68,0-1.22-.55-1.22-1.22v-12.22c0-.68.55-1.22,1.22-1.22Z"/><path fill="url(#Uuo8yORoD94Eax1ZhHdwQt)" d="m19,20h19.13c.48,0,.87.39.87.87v16.86c0,.14-.15.22-.26.15l-6.15-3.87h-13.59c-.55,0-1-.45-1-1v-12c0-.55.45-1,1-1Z"/><g><path fill="url(#Uuo8yORoD94Eax1ZhHdwQu)" d="m30,6H9c-1.66,0-3,1.34-3,3v19.79c0,1.55,1.69,2.51,3.02,1.72l7.61-4.51h13.37c1.66,0,3-1.34,3-3v-14c0-1.66-1.34-3-3-3Z"/><path fill="url(#Uuo8yORoD94Eax1ZhHdwQv)" d="m29.89,6.33H9.1c-1.53,0-2.76,1.24-2.76,2.76v19.47c0,1.39,1.52,2.26,2.71,1.55l7.45-4.44h13.4c1.53,0,2.78-1.24,2.78-2.78v-13.78c0-1.53-1.24-2.78-2.78-2.78Z"/><path fill="url(#Uuo8yORoD94Eax1ZhHdwQw)" d="m29.78,6.67H9.19c-1.4,0-2.53,1.13-2.53,2.53v19.14c0,1.24,1.35,2,2.41,1.37l7.28-4.37h13.42c1.41,0,2.56-1.14,2.56-2.56v-13.56c0-1.41-1.14-2.56-2.56-2.56Z"/><path fill="url(#Uuo8yORoD94Eax1ZhHdwQx)" d="m29.67,7H9.29c-1.26,0-2.29,1.03-2.29,2.29v18.81c0,1.08,1.17,1.75,2.1,1.2l7.12-4.3h13.44c1.29,0,2.33-1.04,2.33-2.33v-13.33c0-1.29-1.04-2.33-2.33-2.33Z"/><path fill="url(#Uuo8yORoD94Eax1ZhHdwQy)" d="m29.56,7.33H9.39c-1.13,0-2.05.92-2.05,2.05v18.49c0,.92,1,1.49,1.8,1.02l6.96-4.23h13.47c1.17,0,2.11-.95,2.11-2.11v-13.11c0-1.17-.95-2.11-2.11-2.11Z"/><path fill="url(#Uuo8yORoD94Eax1ZhHdwQz)" d="m29.44,7.67H9.48c-1,0-1.82.81-1.82,1.82v18.16c0,.76.83,1.24,1.49.85l6.8-4.16h13.49c1.04,0,1.89-.85,1.89-1.89v-12.89c0-1.04-.85-1.89-1.89-1.89Z"/><path fill="url(#Uuo8yORoD94Eax1ZhHdwQA)" d="m29.33,8H9.58c-.87,0-1.58.71-1.58,1.58v17.83c0,.61.66.98,1.18.67l6.63-4.09h13.52c.92,0,1.67-.75,1.67-1.67v-12.67c0-.92-.75-1.67-1.67-1.67Z"/><path fill="url(#Uuo8yORoD94Eax1ZhHdwQB)" d="m29.22,8.33H9.68c-.74,0-1.34.6-1.34,1.34v17.51c0,.45.49.73.88.5l6.47-4.01h13.54c.8,0,1.44-.65,1.44-1.44v-12.44c0-.8-.65-1.44-1.44-1.44Z"/><path fill="url(#Uuo8yORoD94Eax1ZhHdwQC)" d="m29.11,8.67H9.77c-.61,0-1.11.5-1.11,1.11v17.18c0,.29.32.47.57.32l6.31-3.94h13.56c.68,0,1.22-.55,1.22-1.22v-12.22c0-.68-.55-1.22-1.22-1.22Z"/><path fill="url(#Uuo8yORoD94Eax1ZhHdwQD)" d="m29,9H9.87c-.48,0-.87.39-.87.87v16.86c0,.14.15.22.26.15l6.15-3.87h13.59c.55,0,1-.45,1-1v-12c0-.55-.45-1-1-1Z"/></g><g><path fill="url(#Uuo8yORoD94Eax1ZhHdwQa)" d="m26.5,14h-14c-.83,0-1.5-.67-1.5-1.5s.67-1.5,1.5-1.5h14c.83,0,1.5.67,1.5,1.5s-.67,1.5-1.5,1.5Z"/><path fill="url(#Uuo8yORoD94Eax1ZhHdwQb)" d="m26.5,13.89h-14c-.77,0-1.39-.62-1.39-1.39s.62-1.39,1.39-1.39h14c.77,0,1.39.62,1.39,1.39s-.62,1.39-1.39,1.39Z"/><path fill="url(#Uuo8yORoD94Eax1ZhHdwQc)" d="m26.5,13.78h-14c-.71,0-1.28-.57-1.28-1.28s.57-1.28,1.28-1.28h14c.71,0,1.28.57,1.28,1.28s-.57,1.28-1.28,1.28Z"/><path fill="url(#Uuo8yORoD94Eax1ZhHdwQd)" d="m26.5,13.67h-14c-.64,0-1.17-.52-1.17-1.17s.52-1.17,1.17-1.17h14c.64,0,1.17.52,1.17,1.17s-.52,1.17-1.17,1.17Z"/><path fill="url(#Uuo8yORoD94Eax1ZhHdwQe)" d="m26.5,13.56h-14c-.58,0-1.06-.47-1.06-1.06s.47-1.06,1.06-1.06h14c.58,0,1.06.47,1.06,1.06s-.47,1.06-1.06,1.06Z"/><path fill="url(#Uuo8yORoD94Eax1ZhHdwQf)" d="m26.5,13.44h-14c-.52,0-.94-.42-.94-.94s.42-.94.94-.94h14c.52,0,.94.42.94.94s-.42.94-.94.94Z"/><path fill="url(#Uuo8yORoD94Eax1ZhHdwQg)" d="m26.5,13.33h-14c-.46,0-.83-.37-.83-.83s.37-.83.83-.83h14c.46,0,.83.37.83.83s-.37.83-.83.83Z"/><path fill="url(#Uuo8yORoD94Eax1ZhHdwQh)" d="m26.5,13.22h-14c-.4,0-.72-.32-.72-.72s.32-.72.72-.72h14c.4,0,.72.32.72.72s-.32.72-.72.72Z"/><path fill="url(#Uuo8yORoD94Eax1ZhHdwQi)" d="m26.5,13.11h-14c-.34,0-.61-.27-.61-.61s.27-.61.61-.61h14c.34,0,.61.27.61.61s-.27.61-.61.61Z"/><path fill="url(#Uuo8yORoD94Eax1ZhHdwQj)" d="m26.5,13h-14c-.28,0-.5-.22-.5-.5s.22-.5.5-.5h14c.28,0,.5.22.5.5s-.22.5-.5.5Z"/></g><g><path fill="url(#Uuo8yORoD94Eax1ZhHdwQE)" d="m21.5,20h-9c-.83,0-1.5-.67-1.5-1.5s.67-1.5,1.5-1.5h9c.83,0,1.5.67,1.5,1.5s-.67,1.5-1.5,1.5Z"/><path fill="url(#Uuo8yORoD94Eax1ZhHdwQF)" d="m21.5,19.89h-9c-.77,0-1.39-.62-1.39-1.39s.62-1.39,1.39-1.39h9c.77,0,1.39.62,1.39,1.39s-.62,1.39-1.39,1.39Z"/><path fill="url(#Uuo8yORoD94Eax1ZhHdwQG)" d="m21.5,19.78h-9c-.71,0-1.28-.57-1.28-1.28s.57-1.28,1.28-1.28h9c.71,0,1.28.57,1.28,1.28s-.57,1.28-1.28,1.28Z"/><path fill="url(#Uuo8yORoD94Eax1ZhHdwQH)" d="m21.5,19.67h-9c-.64,0-1.17-.52-1.17-1.17s.52-1.17,1.17-1.17h9c.64,0,1.17.52,1.17,1.17s-.52,1.17-1.17,1.17Z"/><path fill="url(#Uuo8yORoD94Eax1ZhHdwQI)" d="m21.5,19.56h-9c-.58,0-1.06-.47-1.06-1.06s.47-1.06,1.06-1.06h9c.58,0,1.06.47,1.06,1.06s-.47,1.06-1.06,1.06Z"/><path fill="url(#Uuo8yORoD94Eax1ZhHdwQJ)" d="m21.5,19.44h-9c-.52,0-.94-.42-.94-.94s.42-.94.94-.94h9c.52,0,.94.42.94.94s-.42.94-.94.94Z"/><path fill="url(#Uuo8yORoD94Eax1ZhHdwQK)" d="m21.5,19.33h-9c-.46,0-.83-.37-.83-.83s.37-.83.83-.83h9c.46,0,.83.37.83.83s-.37.83-.83.83Z"/><path fill="url(#Uuo8yORoD94Eax1ZhHdwQL)" d="m21.5,19.22h-9c-.4,0-.72-.32-.72-.72s.32-.72.72-.72h9c.4,0,.72.32.72.72s-.32.72-.72.72Z"/><path fill="url(#Uuo8yORoD94Eax1ZhHdwQM)" d="m21.5,19.11h-9c-.34,0-.61-.27-.61-.61s.27-.61.61-.61h9c.34,0,.61.27.61.61s-.27.61-.61.61Z"/><path fill="url(#Uuo8yORoD94Eax1ZhHdwQN)" d="m21.5,19h-9c-.28,0-.5-.22-.5-.5s.22-.5.5-.5h9c.28,0,.5.22.5.5s-.22.5-.5.5Z"/></g></svg>