<svg xmlns="http://www.w3.org/2000/svg" data-name="Layer 1" viewBox="0 0 48 48"><defs><radialGradient id="hLS2IzbQaQsfhJcW_j6uUa" cx="15.91" cy="-2.87" r="43.01" fx="15.91" fy="-2.87" gradientUnits="userSpaceOnUse"><stop offset="0" stop-color="#f2fcff"/><stop offset=".55" stop-color="#c1f3f9"/><stop offset=".97" stop-color="#baccfd"/></radialGradient><radialGradient id="hLS2IzbQaQsfhJcW_j6uUb" cx="16.26" cy="-1.87" r="42.67" fx="16.26" fy="-1.87" gradientUnits="userSpaceOnUse"><stop offset="0" stop-color="#effbff"/><stop offset=".55" stop-color="#b3f0f8"/><stop offset=".97" stop-color="#abc1fd"/></radialGradient><radialGradient id="hLS2IzbQaQsfhJcW_j6uUc" cx="16.6" cy="-.89" r="42.28" fx="16.6" fy="-.89" gradientUnits="userSpaceOnUse"><stop offset="0" stop-color="#ecfbff"/><stop offset=".55" stop-color="#a5edf7"/><stop offset=".97" stop-color="#9bb5fc"/></radialGradient><radialGradient id="hLS2IzbQaQsfhJcW_j6uUd" cx="16.93" cy=".08" r="41.82" fx="16.93" fy=".08" gradientUnits="userSpaceOnUse"><stop offset="0" stop-color="#eafaff"/><stop offset=".55" stop-color="#98ebf5"/><stop offset=".97" stop-color="#8caafc"/></radialGradient><radialGradient id="hLS2IzbQaQsfhJcW_j6uUe" cx="17.26" cy="1.04" r="41.3" fx="17.26" fy="1.04" gradientUnits="userSpaceOnUse"><stop offset="0" stop-color="#e7f9ff"/><stop offset=".55" stop-color="#8ae8f4"/><stop offset=".97" stop-color="#7c9ffc"/></radialGradient><radialGradient id="hLS2IzbQaQsfhJcW_j6uUf" cx="17.58" cy="1.98" r="40.72" fx="17.58" fy="1.98" gradientUnits="userSpaceOnUse"><stop offset="0" stop-color="#e4f9fe"/><stop offset=".55" stop-color="#7ce5f3"/><stop offset=".97" stop-color="#6d93fb"/></radialGradient><radialGradient id="hLS2IzbQaQsfhJcW_j6uUg" cx="17.89" cy="2.91" r="40.08" fx="17.89" fy="2.91" gradientUnits="userSpaceOnUse"><stop offset="0" stop-color="#e1f8fe"/><stop offset=".55" stop-color="#6ee2f2"/><stop offset=".97" stop-color="#5d88fb"/></radialGradient><radialGradient id="hLS2IzbQaQsfhJcW_j6uUh" cx="18.19" cy="3.82" r="39.38" fx="18.19" fy="3.82" gradientUnits="userSpaceOnUse"><stop offset="0" stop-color="#dff7fe"/><stop offset=".55" stop-color="#61e0f0"/><stop offset=".97" stop-color="#4e7dfb"/></radialGradient><radialGradient id="hLS2IzbQaQsfhJcW_j6uUi" cx="18.49" cy="4.72" r="38.63" fx="18.49" fy="4.72" gradientUnits="userSpaceOnUse"><stop offset="0" stop-color="#dcf7fe"/><stop offset=".55" stop-color="#53ddef"/><stop offset=".97" stop-color="#3e71fa"/></radialGradient><radialGradient id="hLS2IzbQaQsfhJcW_j6uUj" cx="18.78" cy="5.61" r="37.82" fx="18.78" fy="5.61" gradientUnits="userSpaceOnUse"><stop offset="0" stop-color="#d9f6fe"/><stop offset=".55" stop-color="#45daee"/><stop offset=".97" stop-color="#2f66fa"/></radialGradient><radialGradient id="hLS2IzbQaQsfhJcW_j6uUk" cx="22.35" cy="17.06" r="17.41" fx="22.35" fy="17.06" gradientUnits="userSpaceOnUse"><stop offset="0" stop-color="#f8fdff"/><stop offset="1" stop-color="#e2fbff"/></radialGradient><radialGradient id="hLS2IzbQaQsfhJcW_j6uUl" cx="22.33" cy="17.2" r="16.68" fx="22.33" fy="17.2" gradientUnits="userSpaceOnUse"><stop offset="0" stop-color="#f6fdff"/><stop offset="1" stop-color="#dcfaff"/></radialGradient><radialGradient id="hLS2IzbQaQsfhJcW_j6uUm" cx="22.31" cy="17.35" r="15.96" fx="22.31" fy="17.35" gradientUnits="userSpaceOnUse"><stop offset="0" stop-color="#f5fcff"/><stop offset="1" stop-color="#d5f9ff"/></radialGradient><radialGradient id="hLS2IzbQaQsfhJcW_j6uUn" cx="22.3" cy="17.5" r="15.25" fx="22.3" fy="17.5" gradientUnits="userSpaceOnUse"><stop offset="0" stop-color="#f3fcff"/><stop offset="1" stop-color="#cff9ff"/></radialGradient><radialGradient id="hLS2IzbQaQsfhJcW_j6uUo" cx="22.3" cy="17.63" r="14.57" fx="22.3" fy="17.63" gradientUnits="userSpaceOnUse"><stop offset="0" stop-color="#f2fcff"/><stop offset="1" stop-color="#c8f8ff"/></radialGradient><radialGradient id="hLS2IzbQaQsfhJcW_j6uUp" cx="22.3" cy="17.77" r="13.92" fx="22.3" fy="17.77" gradientUnits="userSpaceOnUse"><stop offset="0" stop-color="#f0fbfe"/><stop offset="1" stop-color="#c2f7ff"/></radialGradient><radialGradient id="hLS2IzbQaQsfhJcW_j6uUq" cx="22.3" cy="17.91" r="13.27" fx="22.3" fy="17.91" gradientUnits="userSpaceOnUse"><stop offset="0" stop-color="#effbfe"/><stop offset="1" stop-color="#bbf6ff"/></radialGradient><radialGradient id="hLS2IzbQaQsfhJcW_j6uUr" cx="22.31" cy="18.05" r="12.63" fx="22.31" fy="18.05" gradientUnits="userSpaceOnUse"><stop offset="0" stop-color="#edfbfe"/><stop offset="1" stop-color="#b5f6ff"/></radialGradient><radialGradient id="hLS2IzbQaQsfhJcW_j6uUs" cx="22.33" cy="18.2" r="12.01" fx="22.33" fy="18.2" gradientUnits="userSpaceOnUse"><stop offset="0" stop-color="#ecfafe"/><stop offset="1" stop-color="#aef5ff"/></radialGradient><radialGradient id="hLS2IzbQaQsfhJcW_j6uUt" cx="22.35" cy="18.35" r="11.42" fx="22.35" fy="18.35" gradientUnits="userSpaceOnUse"><stop offset="0" stop-color="#eafafe"/><stop offset="1" stop-color="#a8f4ff"/></radialGradient></defs><path fill="url(#hLS2IzbQaQsfhJcW_j6uUa)" d="m24,4C12.95,4,4,12.95,4,24c0,3.72,1.01,7.19,2.78,10.17l-1.89,6.73c-.44,1.58,1.1,3,2.64,2.41l5.98-2.28c3.05,1.88,6.65,2.97,10.5,2.97,11.05,0,20-8.95,20-20S35.05,4,24,4Z"/><path fill="url(#hLS2IzbQaQsfhJcW_j6uUb)" d="m24,4.57C13.27,4.57,4.57,13.27,4.57,24c0,3.61.98,6.99,2.7,9.89l-1.84,6.54c-.43,1.54,1.07,2.91,2.56,2.34l5.81-2.22c2.96,1.83,6.46,2.89,10.2,2.89,10.73,0,19.43-8.7,19.43-19.43S34.73,4.57,24,4.57Z"/><path fill="url(#hLS2IzbQaQsfhJcW_j6uUc)" d="m24,5.14C13.58,5.14,5.14,13.58,5.14,24c0,3.5.96,6.79,2.62,9.6l-1.78,6.35c-.42,1.49,1.04,2.83,2.49,2.27l5.64-2.15c2.88,1.78,6.27,2.8,9.9,2.8,10.42,0,18.86-8.45,18.86-18.86S34.42,5.14,24,5.14Z"/><path fill="url(#hLS2IzbQaQsfhJcW_j6uUd)" d="m24,5.7C13.89,5.7,5.7,13.89,5.7,24c0,3.4.93,6.58,2.54,9.31l-1.73,6.16c-.41,1.45,1.01,2.74,2.41,2.2l5.47-2.09c2.79,1.72,6.08,2.72,9.6,2.72,10.11,0,18.3-8.19,18.3-18.3S34.11,5.7,24,5.7Z"/><path fill="url(#hLS2IzbQaQsfhJcW_j6uUe)" d="m24,6.27c-9.79,0-17.73,7.94-17.73,17.73,0,3.29.9,6.38,2.46,9.02l-1.68,5.96c-.39,1.4.98,2.66,2.34,2.14l5.3-2.03c2.7,1.67,5.89,2.64,9.3,2.64,9.79,0,17.73-7.94,17.73-17.73S33.79,6.27,24,6.27Z"/><path fill="url(#hLS2IzbQaQsfhJcW_j6uUf)" d="m24,6.84c-9.48,0-17.16,7.68-17.16,17.16,0,3.19.87,6.17,2.38,8.73l-1.62,5.77c-.38,1.36.95,2.57,2.26,2.07l5.13-1.96c2.62,1.62,5.7,2.55,9.01,2.55,9.48,0,17.16-7.68,17.16-17.16S33.48,6.84,24,6.84Z"/><path fill="url(#hLS2IzbQaQsfhJcW_j6uUg)" d="m24,7.41c-9.16,0-16.59,7.43-16.59,16.59,0,3.08.84,5.97,2.3,8.44l-1.57,5.58c-.37,1.31.92,2.49,2.19,2l4.96-1.9c2.53,1.56,5.51,2.47,8.71,2.47,9.16,0,16.59-7.43,16.59-16.59S33.16,7.41,24,7.41Z"/><path fill="url(#hLS2IzbQaQsfhJcW_j6uUh)" d="m24,7.97c-8.85,0-16.03,7.18-16.03,16.03,0,2.98.81,5.76,2.23,8.15l-1.51,5.39c-.36,1.27.88,2.4,2.12,1.93l4.79-1.83c2.44,1.51,5.33,2.38,8.41,2.38,8.85,0,16.03-7.18,16.03-16.03S32.85,7.97,24,7.97Z"/><path fill="url(#hLS2IzbQaQsfhJcW_j6uUi)" d="m24,8.54c-8.54,0-15.46,6.92-15.46,15.46,0,2.87.78,5.56,2.15,7.86l-1.46,5.2c-.34,1.22.85,2.32,2.04,1.86l4.62-1.77c2.36,1.46,5.14,2.3,8.11,2.3,8.54,0,15.46-6.92,15.46-15.46s-6.92-15.46-15.46-15.46Z"/><path fill="url(#hLS2IzbQaQsfhJcW_j6uUj)" d="m24,9.11c-8.22,0-14.89,6.67-14.89,14.89,0,2.77.75,5.36,2.07,7.58l-1.41,5.01c-.33,1.18.82,2.23,1.97,1.79l4.45-1.7c2.27,1.4,4.95,2.21,7.81,2.21,8.22,0,14.89-6.67,14.89-14.89s-6.67-14.89-14.89-14.89Z"/><g><path fill="url(#hLS2IzbQaQsfhJcW_j6uUk)" d="m29.97,25.42l3.08-3.16c1.04-1.06.49-2.85-.96-3.16l-4.69-1-1.76-3.19c-.72-1.3-2.58-1.3-3.3,0l-1.76,3.19-4.69,1c-1.45.31-1.99,2.1-.96,3.16l3.08,3.16-.72,4.39c-.24,1.46,1.23,2.62,2.59,2.04l4.1-1.74,4.1,1.74c1.37.58,2.83-.58,2.59-2.04l-.72-4.39Z"/><path fill="url(#hLS2IzbQaQsfhJcW_j6uUl)" d="m16.1,19.3c-1.34.28-1.83,1.93-.88,2.91l2.24,2.3s.78.81.79.85-.15,1.1-.16,1.14l-.53,3.2c-.13.81.32,1.49.94,1.81.43.22,1.03.24,1.53.03l3.86-1.64c.06-.03,2.27.88,2.34.91l1.64.7c.72.3,1.61.12,2.08-.37.34-.35.57-.86.47-1.44l-.53-3.21s-.17-1.1-.16-1.14.76-.82.79-.85l2.24-2.3c.95-.98.46-2.62-.88-2.91l-4.53-.96c-.07-.02-1.37-2.31-1.41-2.37l-.35-.64c-.37-.67-1.16-1.08-1.83-1-.5.06-1.01.32-1.3.84l-1.14,2.07s-.58,1.04-.62,1.06c-.03.02-.91.21-.94.22l-3.68.78Z"/><path fill="url(#hLS2IzbQaQsfhJcW_j6uUm)" d="m16.29,19.5c-1.22.26-1.68,1.76-.8,2.66l2.22,2.28c.06.06.74.78.76.86s-.12,1.05-.13,1.13l-.52,3.18c-.12.76.33,1.38.92,1.66.38.18,1,.17,1.44-.02l3.62-1.54c.13-.05,2.14.74,2.27.79l1.59.68c.63.27,1.58.16,2.01-.24.33-.31.6-.77.51-1.33l-.52-3.18c-.01-.08-.15-1.06-.13-1.13s.7-.8.76-.86l2.22-2.27c.87-.89.42-2.4-.8-2.66l-4.38-.93c-.15-.03-1.35-2.09-1.43-2.22l-.34-.62c-.32-.59-1.11-1.09-1.69-1.05-.46.03-.97.23-1.25.74l-1.13,2.05c-.04.07-.57.98-.63,1.03-.05.04-.86.22-.92.23l-3.63.77Z"/><path fill="url(#hLS2IzbQaQsfhJcW_j6uUn)" d="m16.49,19.7c-1.11.24-1.52,1.6-.73,2.41l2.2,2.25c.09.09.69.75.73.87s-.08,1-.1,1.12l-.52,3.15c-.12.71.34,1.27.89,1.5.33.14.97.1,1.35-.06l3.39-1.44c.19-.08,2.01.6,2.2.68l1.54.65c.54.23,1.55.21,1.94-.11.33-.27.63-.69.54-1.22l-.52-3.15c-.02-.12-.14-1.01-.1-1.12s.64-.78.73-.87l2.2-2.25c.79-.81.38-2.17-.73-2.41l-4.23-.9c-.22-.05-1.33-1.87-1.44-2.07l-.33-.6c-.28-.5-1.06-1.1-1.56-1.1-.43,0-.94.15-1.21.63l-1.11,2.02c-.06.11-.55.93-.65,1-.08.05-.81.23-.91.25l-3.59.76Z"/><path fill="url(#hLS2IzbQaQsfhJcW_j6uUo)" d="m16.69,19.89c-.99.21-1.36,1.43-.65,2.15l2.18,2.23c.11.12.65.72.7.87s-.04.95-.07,1.11l-.51,3.12c-.11.66.35,1.15.87,1.35.28.11.94.03,1.26-.11l3.15-1.33c.26-.11,1.88.46,2.13.57l1.49.63c.45.19,1.59.33,1.87.01.37-.15.66-.6.57-1.12l-.51-3.12c-.03-.16-.12-.96-.07-1.11s.59-.76.7-.88l2.18-2.23c.71-.72.34-1.94-.65-2.15l-4.07-.87c-.29-.06-1.31-1.65-1.46-1.91l-.32-.58c-.23-.42-1.02-1.21-1.43-1.14-.39-.12-.91.06-1.16.53l-1.1,1.99c-.08.15-.53.87-.66.96-.11.07-.76.24-.89.26l-3.54.75Z"/><path fill="url(#hLS2IzbQaQsfhJcW_j6uUp)" d="m16.88,20.09c-.87.19-1.2,1.26-.58,1.9l2.16,2.21c.14.15.61.69.67.88s0,.9-.04,1.1l-.51,3.09c-.1.61.33,1.13.84,1.2.21.11.91-.05,1.16-.15l2.91-1.23c.32-.14,1.75.32,2.07.45l1.44.61c.36.15,1.58.39,1.8.14.37-.09.69-.51.61-1.01l-.51-3.09c-.03-.2-.1-.91-.04-1.1s.53-.74.67-.89l2.16-2.21c.62-.64.3-1.72-.58-1.9l-3.92-.83c-.36-.08-1.29-1.43-1.47-1.76l-.31-.56c-.18-.34-.97-1.25-1.3-1.19-.35-.17-.87-.03-1.12.42l-1.08,1.97c-.1.18-.51.82-.68.93-.13.09-.71.24-.87.28l-3.49.74Z"/><path fill="url(#hLS2IzbQaQsfhJcW_j6uUq)" d="m17.08,20.29c-.76.16-1.04,1.1-.5,1.65l2.14,2.19c.17.17.57.66.64.89s.03.85-.01,1.09l-.5,3.06c-.09.56.33,1.03.82,1.04.16.09.88-.12,1.07-.2l2.67-1.13c.38-.16,1.62.18,2,.34l1.39.59c.27.11,1.56.46,1.73.27.38-.02.72-.42.64-.9l-.5-3.06c-.04-.24-.08-.86-.01-1.09s.47-.72.64-.89l2.14-2.19c.54-.56.26-1.49-.5-1.65l-3.76-.8c-.44-.09-1.27-1.21-1.49-1.6l-.3-.54c-.14-.25-.92-1.28-1.16-1.24-.31-.22-.84-.11-1.07.32l-1.07,1.94c-.12.22-.49.77-.69.9-.16.11-.66.25-.85.29l-3.44.73Z"/><path fill="url(#hLS2IzbQaQsfhJcW_j6uUr)" d="m17.27,20.49c-.64.14-.88.93-.42,1.4l2.12,2.17c.2.2.53.64.61.9s.06.8.02,1.08l-.5,3.03c-.08.51.34.94.79.89.11.06.85-.19.98-.24l2.44-1.03c.45-.19,1.49.04,1.93.23l1.34.57c.18.08,1.55.52,1.66.39.38.04.75-.34.67-.8l-.5-3.03c-.05-.28-.07-.82.02-1.08s.41-.7.61-.9l2.12-2.17c.46-.47.22-1.27-.42-1.4l-3.61-.77c-.51-.11-1.25-.99-1.51-1.45l-.28-.51c-.09-.17-.87-1.32-1.03-1.29-.28-.27-.8-.2-1.03.21l-1.05,1.91c-.14.25-.47.71-.71.87-.19.12-.61.26-.83.31l-3.4.72Z"/><path fill="url(#hLS2IzbQaQsfhJcW_j6uUs)" d="m17.47,20.68c-.53.11-.73.76-.35,1.15l2.1,2.15c.23.23.48.61.58.91s.1.75.05,1.07l-.49,3c-.08.47.34.84.77.74.05.03.82-.26.89-.29l2.2-.93c.51-.22,1.35-.1,1.86.11l1.28.54c.09.04,1.54.58,1.59.52.39.1.78-.25.71-.69l-.49-3c-.05-.32-.05-.77.05-1.07s.35-.68.58-.91l2.1-2.15c.38-.39.18-1.04-.35-1.15l-3.45-.74c-.58-.12-1.23-.77-1.52-1.3l-.27-.49c-.05-.08-.82-1.35-.9-1.34-.24-.32-.77-.28-.99.11l-1.04,1.89c-.16.29-.45.66-.72.84-.21.14-.56.27-.82.32l-3.35.71Z"/><path fill="url(#hLS2IzbQaQsfhJcW_j6uUt)" d="m30.61,21.78c.3-.3.14-.81-.27-.9l-3.3-.7c-.65-.14-1.22-.56-1.54-1.14l-1.02-1.86c-.2-.37-.74-.37-.94,0l-1.02,1.86c-.32.59-.88,1-1.54,1.14l-3.3.7c-.41.09-.57.6-.27.9l2.08,2.13c.51.52.74,1.26.62,1.98l-.49,2.97c-.07.42.35.75.74.58l2.75-1.17c.57-.24,1.22-.24,1.8,0l2.75,1.17c.39.17.81-.16.74-.58l-.49-2.97c-.12-.72.11-1.46.62-1.98l2.08-2.13Z"/></g></svg>