<svg xmlns="http://www.w3.org/2000/svg" data-name="Layer 1" viewBox="0 0 48 48"><defs><radialGradient id="JuzCVe4eDBAzq3DtFppTLa" cx="16.43" cy="-1.04" r="46.01" fx="16.43" fy="-1.04" gradientUnits="userSpaceOnUse"><stop offset=".06" stop-color="#f2fcff"/><stop offset=".24" stop-color="#e2f8fc"/><stop offset=".61" stop-color="#c7f3f9"/><stop offset=".81" stop-color="#c3f5f1"/><stop offset="1" stop-color="#bffae5"/></radialGradient><radialGradient id="JuzCVe4eDBAzq3DtFppTLb" cx="16.36" cy="0" r="44.46" fx="16.36" fy="0" gradientUnits="userSpaceOnUse"><stop offset=".06" stop-color="#effbff"/><stop offset=".3" stop-color="#d6f5fb"/><stop offset=".61" stop-color="#bbf0f8"/><stop offset=".78" stop-color="#b7f2f0"/><stop offset="1" stop-color="#b1f9df"/></radialGradient><radialGradient id="JuzCVe4eDBAzq3DtFppTLc" cx="16.3" cy="1.03" r="42.92" fx="16.3" fy="1.03" gradientUnits="userSpaceOnUse"><stop offset=".06" stop-color="#ecfbff"/><stop offset=".34" stop-color="#c9f3fa"/><stop offset=".61" stop-color="#aeeef7"/><stop offset=".76" stop-color="#aaf0ef"/><stop offset=".99" stop-color="#a2f7da"/><stop offset="1" stop-color="#a2f8d9"/></radialGradient><radialGradient id="JuzCVe4eDBAzq3DtFppTLd" cx="16.26" cy="2.03" r="41.4" fx="16.26" fy="2.03" gradientUnits="userSpaceOnUse"><stop offset=".06" stop-color="#eafaff"/><stop offset=".38" stop-color="#bdf0f8"/><stop offset=".61" stop-color="#a2ebf5"/><stop offset=".75" stop-color="#9eeded"/><stop offset=".96" stop-color="#95f5d8"/><stop offset="1" stop-color="#94f7d4"/></radialGradient><radialGradient id="JuzCVe4eDBAzq3DtFppTLe" cx="16.24" cy="3.02" r="39.9" fx="16.24" fy="3.02" gradientUnits="userSpaceOnUse"><stop offset=".06" stop-color="#e7f9ff"/><stop offset=".4" stop-color="#b1eef7"/><stop offset=".61" stop-color="#96e9f4"/><stop offset=".74" stop-color="#92ebec"/><stop offset=".93" stop-color="#89f2d7"/><stop offset="1" stop-color="#86f6ce"/></radialGradient><radialGradient id="JuzCVe4eDBAzq3DtFppTLf" cx="16.23" cy="3.99" r="38.42" fx="16.23" fy="3.99" gradientUnits="userSpaceOnUse"><stop offset=".06" stop-color="#e4f9fe"/><stop offset=".42" stop-color="#a4ebf6"/><stop offset=".61" stop-color="#89e6f3"/><stop offset=".73" stop-color="#85e8eb"/><stop offset=".9" stop-color="#7cefd6"/><stop offset="1" stop-color="#77f4c8"/></radialGradient><radialGradient id="JuzCVe4eDBAzq3DtFppTLg" cx="16.24" cy="4.94" r="36.95" fx="16.24" fy="4.94" gradientUnits="userSpaceOnUse"><stop offset=".06" stop-color="#e1f8fe"/><stop offset=".06" stop-color="#dff7fd"/><stop offset=".44" stop-color="#98e9f5"/><stop offset=".61" stop-color="#7de4f2"/><stop offset=".72" stop-color="#79e6ea"/><stop offset=".88" stop-color="#71ecd5"/><stop offset="1" stop-color="#69f3c2"/></radialGradient><radialGradient id="JuzCVe4eDBAzq3DtFppTLh" cx="16.27" cy="5.87" r="35.5" fx="16.27" fy="5.87" gradientUnits="userSpaceOnUse"><stop offset=".06" stop-color="#dff7fe"/><stop offset=".11" stop-color="#d3f4fc"/><stop offset=".45" stop-color="#8ce6f3"/><stop offset=".61" stop-color="#71e1f0"/><stop offset=".71" stop-color="#6de3e8"/><stop offset=".87" stop-color="#64ead3"/><stop offset="1" stop-color="#5bf2bd"/></radialGradient><radialGradient id="JuzCVe4eDBAzq3DtFppTLi" cx="16.31" cy="6.77" r="34.06" fx="16.31" fy="6.77" gradientUnits="userSpaceOnUse"><stop offset=".06" stop-color="#dcf7fe"/><stop offset=".15" stop-color="#c6f2fb"/><stop offset=".46" stop-color="#7fe4f2"/><stop offset=".61" stop-color="#64dfef"/><stop offset=".71" stop-color="#60e1e7"/><stop offset=".85" stop-color="#57e8d2"/><stop offset="1" stop-color="#4cf1b7"/></radialGradient><radialGradient id="JuzCVe4eDBAzq3DtFppTLj" cx="16.37" cy="7.66" r="32.65" fx="16.37" fy="7.66" gradientUnits="userSpaceOnUse"><stop offset=".06" stop-color="#d9f6fe"/><stop offset=".18" stop-color="#baeffa"/><stop offset=".47" stop-color="#73e1f1"/><stop offset=".61" stop-color="#58dcee"/><stop offset=".7" stop-color="#54dee6"/><stop offset=".84" stop-color="#4be5d1"/><stop offset="1" stop-color="#3ef0b1"/></radialGradient></defs><path fill="url(#JuzCVe4eDBAzq3DtFppTLa)" d="m24,4C12.95,4,4,12.95,4,24c0,3.72,1.01,7.19,2.78,10.17l-1.89,6.73c-.44,1.58,1.1,3,2.64,2.41l5.98-2.28c3.05,1.88,6.65,2.97,10.5,2.97,11.05,0,20-8.95,20-20S35.05,4,24,4Z"/><path fill="url(#JuzCVe4eDBAzq3DtFppTLb)" d="m24,4.57C13.27,4.57,4.57,13.27,4.57,24c0,3.61.98,6.99,2.7,9.89l-1.84,6.54c-.43,1.54,1.07,2.91,2.56,2.34l5.81-2.22c2.96,1.83,6.46,2.89,10.2,2.89,10.73,0,19.43-8.7,19.43-19.43S34.73,4.57,24,4.57Z"/><path fill="url(#JuzCVe4eDBAzq3DtFppTLc)" d="m24,5.14C13.58,5.14,5.14,13.58,5.14,24c0,3.5.96,6.79,2.62,9.6l-1.78,6.35c-.42,1.49,1.04,2.83,2.49,2.27l5.64-2.15c2.88,1.78,6.27,2.8,9.9,2.8,10.42,0,18.86-8.45,18.86-18.86S34.42,5.14,24,5.14Z"/><path fill="url(#JuzCVe4eDBAzq3DtFppTLd)" d="m24,5.7C13.89,5.7,5.7,13.89,5.7,24c0,3.4.93,6.58,2.54,9.31l-1.73,6.16c-.41,1.45,1.01,2.74,2.41,2.2l5.47-2.09c2.79,1.72,6.08,2.72,9.6,2.72,10.11,0,18.3-8.19,18.3-18.3S34.11,5.7,24,5.7Z"/><path fill="url(#JuzCVe4eDBAzq3DtFppTLe)" d="m24,6.27c-9.79,0-17.73,7.94-17.73,17.73,0,3.29.9,6.38,2.46,9.02l-1.68,5.96c-.39,1.4.98,2.66,2.34,2.14l5.3-2.03c2.7,1.67,5.89,2.64,9.3,2.64,9.79,0,17.73-7.94,17.73-17.73S33.79,6.27,24,6.27Z"/><path fill="url(#JuzCVe4eDBAzq3DtFppTLf)" d="m24,6.84c-9.48,0-17.16,7.68-17.16,17.16,0,3.19.87,6.17,2.38,8.73l-1.62,5.77c-.38,1.36.95,2.57,2.26,2.07l5.13-1.96c2.62,1.62,5.7,2.55,9.01,2.55,9.48,0,17.16-7.68,17.16-17.16S33.48,6.84,24,6.84Z"/><path fill="url(#JuzCVe4eDBAzq3DtFppTLg)" d="m24,7.41c-9.16,0-16.59,7.43-16.59,16.59,0,3.08.84,5.97,2.3,8.44l-1.57,5.58c-.37,1.31.92,2.49,2.19,2l4.96-1.9c2.53,1.56,5.51,2.47,8.71,2.47,9.16,0,16.59-7.43,16.59-16.59S33.16,7.41,24,7.41Z"/><path fill="url(#JuzCVe4eDBAzq3DtFppTLh)" d="m24,7.97c-8.85,0-16.03,7.18-16.03,16.03,0,2.98.81,5.76,2.23,8.15l-1.51,5.39c-.36,1.27.88,2.4,2.12,1.93l4.79-1.83c2.44,1.51,5.33,2.38,8.41,2.38,8.85,0,16.03-7.18,16.03-16.03S32.85,7.97,24,7.97Z"/><path fill="url(#JuzCVe4eDBAzq3DtFppTLi)" d="m24,8.54c-8.54,0-15.46,6.92-15.46,15.46,0,2.87.78,5.56,2.15,7.86l-1.46,5.2c-.34,1.22.85,2.32,2.04,1.86l4.62-1.77c2.36,1.46,5.14,2.3,8.11,2.3,8.54,0,15.46-6.92,15.46-15.46s-6.92-15.46-15.46-15.46Z"/><path fill="url(#JuzCVe4eDBAzq3DtFppTLj)" d="m24,9.11c-8.22,0-14.89,6.67-14.89,14.89,0,2.77.75,5.36,2.07,7.58l-1.41,5.01c-.33,1.18.82,2.23,1.97,1.79l4.45-1.7c2.27,1.4,4.95,2.21,7.81,2.21,8.22,0,14.89-6.67,14.89-14.89s-6.67-14.89-14.89-14.89Z"/></svg>