<svg xmlns="http://www.w3.org/2000/svg" xmlns:xlink="http://www.w3.org/1999/xlink" data-name="Layer 1" viewBox="0 0 48 48"><defs><linearGradient id="KoOoJjU2TEhGZSPS69N2pa" x1="30.52" x2="33.26" y1="22.18" y2="25.54" gradientUnits="userSpaceOnUse"><stop offset="0" stop-color="#eff4fe"/><stop offset="1" stop-color="#afbcfc"/></linearGradient><linearGradient id="KoOoJjU2TEhGZSPS69N2pb" x1="30.58" x2="33.22" y1="22.22" y2="25.52" gradientUnits="userSpaceOnUse"><stop offset="0" stop-color="#eef3fe"/><stop offset="1" stop-color="#abb8fc"/></linearGradient><linearGradient id="KoOoJjU2TEhGZSPS69N2pc" x1="30.63" x2="33.17" y1="22.27" y2="25.49" gradientUnits="userSpaceOnUse"><stop offset="0" stop-color="#edf3fe"/><stop offset="1" stop-color="#a6b4fc"/></linearGradient><linearGradient id="KoOoJjU2TEhGZSPS69N2pd" x1="30.69" x2="33.13" y1="22.32" y2="25.45" gradientUnits="userSpaceOnUse"><stop offset="0" stop-color="#ecf2fe"/><stop offset="1" stop-color="#a2b1fb"/></linearGradient><linearGradient id="KoOoJjU2TEhGZSPS69N2pe" x1="30.75" x2="33.08" y1="22.37" y2="25.41" gradientUnits="userSpaceOnUse"><stop offset="0" stop-color="#ebf2fe"/><stop offset="1" stop-color="#9dadfb"/></linearGradient><linearGradient id="KoOoJjU2TEhGZSPS69N2pf" x1="30.82" x2="33.03" y1="22.42" y2="25.37" gradientUnits="userSpaceOnUse"><stop offset="0" stop-color="#ebf1fe"/><stop offset="1" stop-color="#99a9fb"/></linearGradient><linearGradient id="KoOoJjU2TEhGZSPS69N2pg" x1="30.88" x2="32.98" y1="22.48" y2="25.32" gradientUnits="userSpaceOnUse"><stop offset="0" stop-color="#eaf1fe"/><stop offset="1" stop-color="#94a5fb"/></linearGradient><linearGradient id="KoOoJjU2TEhGZSPS69N2ph" x1="30.94" x2="32.93" y1="22.55" y2="25.27" gradientUnits="userSpaceOnUse"><stop offset="0" stop-color="#e9f0fe"/><stop offset="1" stop-color="#90a2fa"/></linearGradient><linearGradient id="KoOoJjU2TEhGZSPS69N2pi" x1="31.01" x2="32.87" y1="22.62" y2="25.22" gradientUnits="userSpaceOnUse"><stop offset="0" stop-color="#e8f0fe"/><stop offset="1" stop-color="#8b9efa"/></linearGradient><linearGradient id="KoOoJjU2TEhGZSPS69N2pj" x1="31.08" x2="32.81" y1="22.69" y2="25.16" gradientUnits="userSpaceOnUse"><stop offset="0" stop-color="#e7effe"/><stop offset="1" stop-color="#879afa"/></linearGradient><linearGradient id="KoOoJjU2TEhGZSPS69N2pu" x1="22.52" x2="25.26" y1="22.18" y2="25.54" xlink:href="#KoOoJjU2TEhGZSPS69N2pa"/><linearGradient id="KoOoJjU2TEhGZSPS69N2pv" x1="22.58" x2="25.22" y1="22.22" y2="25.52" xlink:href="#KoOoJjU2TEhGZSPS69N2pb"/><linearGradient id="KoOoJjU2TEhGZSPS69N2pw" x1="22.63" x2="25.17" y1="22.27" y2="25.49" xlink:href="#KoOoJjU2TEhGZSPS69N2pc"/><linearGradient id="KoOoJjU2TEhGZSPS69N2px" x1="22.69" x2="25.13" y1="22.32" y2="25.45" xlink:href="#KoOoJjU2TEhGZSPS69N2pd"/><linearGradient id="KoOoJjU2TEhGZSPS69N2py" x1="22.75" x2="25.08" y2="25.41" xlink:href="#KoOoJjU2TEhGZSPS69N2pe"/><linearGradient id="KoOoJjU2TEhGZSPS69N2pz" x1="22.82" x2="25.03" y2="25.37" xlink:href="#KoOoJjU2TEhGZSPS69N2pf"/><linearGradient id="KoOoJjU2TEhGZSPS69N2pA" x1="22.88" x2="24.98" y1="22.48" y2="25.32" xlink:href="#KoOoJjU2TEhGZSPS69N2pg"/><linearGradient id="KoOoJjU2TEhGZSPS69N2pB" x1="22.94" x2="24.93" y1="22.55" y2="25.27" xlink:href="#KoOoJjU2TEhGZSPS69N2ph"/><linearGradient id="KoOoJjU2TEhGZSPS69N2pC" x1="23.01" x2="24.87" y1="22.62" y2="25.22" xlink:href="#KoOoJjU2TEhGZSPS69N2pi"/><linearGradient id="KoOoJjU2TEhGZSPS69N2pD" x1="23.08" x2="24.81" y1="22.69" y2="25.16" xlink:href="#KoOoJjU2TEhGZSPS69N2pj"/><linearGradient id="KoOoJjU2TEhGZSPS69N2pE" x1="14.52" x2="17.26" y1="22.18" y2="25.54" xlink:href="#KoOoJjU2TEhGZSPS69N2pa"/><linearGradient id="KoOoJjU2TEhGZSPS69N2pF" x1="14.58" x2="17.22" y1="22.22" y2="25.52" xlink:href="#KoOoJjU2TEhGZSPS69N2pb"/><linearGradient id="KoOoJjU2TEhGZSPS69N2pG" x1="14.63" x2="17.17" y1="22.27" y2="25.49" xlink:href="#KoOoJjU2TEhGZSPS69N2pc"/><linearGradient id="KoOoJjU2TEhGZSPS69N2pH" x1="14.69" x2="17.13" y1="22.32" y2="25.45" xlink:href="#KoOoJjU2TEhGZSPS69N2pd"/><linearGradient id="KoOoJjU2TEhGZSPS69N2pI" x1="14.75" x2="17.08" y2="25.41" xlink:href="#KoOoJjU2TEhGZSPS69N2pe"/><linearGradient id="KoOoJjU2TEhGZSPS69N2pJ" x1="14.82" x2="17.03" y1="22.42" y2="25.37" xlink:href="#KoOoJjU2TEhGZSPS69N2pf"/><linearGradient id="KoOoJjU2TEhGZSPS69N2pK" x1="14.88" x2="16.98" y1="22.48" y2="25.32" xlink:href="#KoOoJjU2TEhGZSPS69N2pg"/><linearGradient id="KoOoJjU2TEhGZSPS69N2pL" x1="14.94" x2="16.93" y1="22.55" y2="25.27" xlink:href="#KoOoJjU2TEhGZSPS69N2ph"/><linearGradient id="KoOoJjU2TEhGZSPS69N2pM" x1="15.01" x2="16.87" y2="25.22" xlink:href="#KoOoJjU2TEhGZSPS69N2pi"/><linearGradient id="KoOoJjU2TEhGZSPS69N2pN" x1="15.08" x2="16.81" y1="22.69" y2="25.16" xlink:href="#KoOoJjU2TEhGZSPS69N2pj"/><radialGradient id="KoOoJjU2TEhGZSPS69N2pk" cx="14.02" cy="5.61" r="54.48" fx="14.02" fy="5.61" gradientUnits="userSpaceOnUse"><stop offset="0" stop-color="#f5f8ff"/><stop offset=".55" stop-color="#bec7f9"/><stop offset=".97" stop-color="#d6b5f3"/></radialGradient><radialGradient id="KoOoJjU2TEhGZSPS69N2pl" cx="14.28" cy="5.88" r="52.39" fx="14.28" fy="5.88" gradientUnits="userSpaceOnUse"><stop offset="0" stop-color="#f3f7ff"/><stop offset=".55" stop-color="#afbbf8"/><stop offset=".97" stop-color="#cda5f0"/></radialGradient><radialGradient id="KoOoJjU2TEhGZSPS69N2pm" cx="14.53" cy="6.16" r="50.34" fx="14.53" fy="6.16" gradientUnits="userSpaceOnUse"><stop offset="0" stop-color="#f1f5ff"/><stop offset=".55" stop-color="#a1aef7"/><stop offset=".97" stop-color="#c494ee"/></radialGradient><radialGradient id="KoOoJjU2TEhGZSPS69N2pn" cx="14.79" cy="6.45" r="48.3" fx="14.79" fy="6.45" gradientUnits="userSpaceOnUse"><stop offset="0" stop-color="#eff4ff"/><stop offset=".55" stop-color="#92a2f5"/><stop offset=".97" stop-color="#bb84eb"/></radialGradient><radialGradient id="KoOoJjU2TEhGZSPS69N2po" cx="15.05" cy="6.76" r="46.3" fx="15.05" fy="6.76" gradientUnits="userSpaceOnUse"><stop offset="0" stop-color="#edf2ff"/><stop offset=".55" stop-color="#8496f4"/><stop offset=".97" stop-color="#b273e8"/></radialGradient><radialGradient id="KoOoJjU2TEhGZSPS69N2pp" cx="15.31" cy="7.09" r="44.32" fx="15.31" fy="7.09" gradientUnits="userSpaceOnUse"><stop offset="0" stop-color="#eaf1fe"/><stop offset=".55" stop-color="#7589f3"/><stop offset=".97" stop-color="#a863e6"/></radialGradient><radialGradient id="KoOoJjU2TEhGZSPS69N2pq" cx="15.57" cy="7.43" r="42.36" fx="15.57" fy="7.43" gradientUnits="userSpaceOnUse"><stop offset="0" stop-color="#e8effe"/><stop offset=".55" stop-color="#677df2"/><stop offset=".97" stop-color="#9f52e3"/></radialGradient><radialGradient id="KoOoJjU2TEhGZSPS69N2pr" cx="15.84" cy="7.79" r="40.44" fx="15.84" fy="7.79" gradientUnits="userSpaceOnUse"><stop offset="0" stop-color="#e6eefe"/><stop offset=".55" stop-color="#5871f0"/><stop offset=".97" stop-color="#9642e0"/></radialGradient><radialGradient id="KoOoJjU2TEhGZSPS69N2ps" cx="16.1" cy="8.16" r="38.54" fx="16.1" fy="8.16" gradientUnits="userSpaceOnUse"><stop offset="0" stop-color="#e4ecfe"/><stop offset=".55" stop-color="#4a64ef"/><stop offset=".97" stop-color="#8d31de"/></radialGradient><radialGradient id="KoOoJjU2TEhGZSPS69N2pt" cx="16.37" cy="8.54" r="36.67" fx="16.37" fy="8.54" gradientUnits="userSpaceOnUse"><stop offset="0" stop-color="#e2ebfe"/><stop offset=".55" stop-color="#3b58ee"/><stop offset=".97" stop-color="#8421db"/></radialGradient></defs><path fill="url(#KoOoJjU2TEhGZSPS69N2pk)" d="m24,4C12.95,4,4,12.95,4,24c0,3.72,1.01,7.19,2.78,10.17l-1.89,6.73c-.44,1.58,1.1,3,2.64,2.41l5.98-2.28c3.05,1.88,6.65,2.97,10.5,2.97,11.05,0,20-8.95,20-20S35.05,4,24,4Z"/><path fill="url(#KoOoJjU2TEhGZSPS69N2pl)" d="m24,4.57C13.27,4.57,4.57,13.27,4.57,24c0,3.61.98,6.99,2.7,9.89l-1.84,6.54c-.43,1.54,1.07,2.91,2.56,2.34l5.81-2.22c2.96,1.83,6.46,2.89,10.2,2.89,10.73,0,19.43-8.7,19.43-19.43S34.73,4.57,24,4.57Z"/><path fill="url(#KoOoJjU2TEhGZSPS69N2pm)" d="m24,5.14C13.58,5.14,5.14,13.58,5.14,24c0,3.5.96,6.79,2.62,9.6l-1.78,6.35c-.42,1.49,1.04,2.83,2.49,2.27l5.64-2.15c2.88,1.78,6.27,2.8,9.9,2.8,10.42,0,18.86-8.45,18.86-18.86S34.42,5.14,24,5.14Z"/><path fill="url(#KoOoJjU2TEhGZSPS69N2pn)" d="m24,5.7C13.89,5.7,5.7,13.89,5.7,24c0,3.4.93,6.58,2.54,9.31l-1.73,6.16c-.41,1.45,1.01,2.74,2.41,2.2l5.47-2.09c2.79,1.72,6.08,2.72,9.6,2.72,10.11,0,18.3-8.19,18.3-18.3S34.11,5.7,24,5.7Z"/><path fill="url(#KoOoJjU2TEhGZSPS69N2po)" d="m24,6.27c-9.79,0-17.73,7.94-17.73,17.73,0,3.29.9,6.38,2.46,9.02l-1.68,5.96c-.39,1.4.98,2.66,2.34,2.14l5.3-2.03c2.7,1.67,5.89,2.64,9.3,2.64,9.79,0,17.73-7.94,17.73-17.73S33.79,6.27,24,6.27Z"/><path fill="url(#KoOoJjU2TEhGZSPS69N2pp)" d="m24,6.84c-9.48,0-17.16,7.68-17.16,17.16,0,3.19.87,6.17,2.38,8.73l-1.62,5.77c-.38,1.36.95,2.57,2.26,2.07l5.13-1.96c2.62,1.62,5.7,2.55,9.01,2.55,9.48,0,17.16-7.68,17.16-17.16S33.48,6.84,24,6.84Z"/><path fill="url(#KoOoJjU2TEhGZSPS69N2pq)" d="m24,7.41c-9.16,0-16.59,7.43-16.59,16.59,0,3.08.84,5.97,2.3,8.44l-1.57,5.58c-.37,1.31.92,2.49,2.19,2l4.96-1.9c2.53,1.56,5.51,2.47,8.71,2.47,9.16,0,16.59-7.43,16.59-16.59S33.16,7.41,24,7.41Z"/><path fill="url(#KoOoJjU2TEhGZSPS69N2pr)" d="m24,7.97c-8.85,0-16.03,7.18-16.03,16.03,0,2.98.81,5.76,2.23,8.15l-1.51,5.39c-.36,1.27.88,2.4,2.12,1.93l4.79-1.83c2.44,1.51,5.33,2.38,8.41,2.38,8.85,0,16.03-7.18,16.03-16.03S32.85,7.97,24,7.97Z"/><path fill="url(#KoOoJjU2TEhGZSPS69N2ps)" d="m24,8.54c-8.54,0-15.46,6.92-15.46,15.46,0,2.87.78,5.56,2.15,7.86l-1.46,5.2c-.34,1.22.85,2.32,2.04,1.86l4.62-1.77c2.36,1.46,5.14,2.3,8.11,2.3,8.54,0,15.46-6.92,15.46-15.46s-6.92-15.46-15.46-15.46Z"/><path fill="url(#KoOoJjU2TEhGZSPS69N2pt)" d="m24,9.11c-8.22,0-14.89,6.67-14.89,14.89,0,2.77.75,5.36,2.07,7.58l-1.41,5.01c-.33,1.18.82,2.23,1.97,1.79l4.45-1.7c2.27,1.4,4.95,2.21,7.81,2.21,8.22,0,14.89-6.67,14.89-14.89s-6.67-14.89-14.89-14.89Z"/><g><circle cx="32" cy="24" r="2" fill="url(#KoOoJjU2TEhGZSPS69N2pa)"/><circle cx="32" cy="24" r="1.91" fill="url(#KoOoJjU2TEhGZSPS69N2pb)"/><circle cx="32" cy="24" r="1.82" fill="url(#KoOoJjU2TEhGZSPS69N2pc)"/><circle cx="32" cy="24" r="1.72" fill="url(#KoOoJjU2TEhGZSPS69N2pd)"/><circle cx="32" cy="24" r="1.63" fill="url(#KoOoJjU2TEhGZSPS69N2pe)"/><circle cx="32" cy="24" r="1.54" fill="url(#KoOoJjU2TEhGZSPS69N2pf)"/><circle cx="32" cy="24" r="1.45" fill="url(#KoOoJjU2TEhGZSPS69N2pg)"/><circle cx="32" cy="24" r="1.36" fill="url(#KoOoJjU2TEhGZSPS69N2ph)"/><circle cx="32" cy="24" r="1.26" fill="url(#KoOoJjU2TEhGZSPS69N2pi)"/><circle cx="32" cy="24" r="1.17" fill="url(#KoOoJjU2TEhGZSPS69N2pj)"/></g><g><circle cx="24" cy="24" r="2" fill="url(#KoOoJjU2TEhGZSPS69N2pu)"/><circle cx="24" cy="24" r="1.91" fill="url(#KoOoJjU2TEhGZSPS69N2pv)"/><circle cx="24" cy="24" r="1.82" fill="url(#KoOoJjU2TEhGZSPS69N2pw)"/><circle cx="24" cy="24" r="1.72" fill="url(#KoOoJjU2TEhGZSPS69N2px)"/><circle cx="24" cy="24" r="1.63" fill="url(#KoOoJjU2TEhGZSPS69N2py)"/><circle cx="24" cy="24" r="1.54" fill="url(#KoOoJjU2TEhGZSPS69N2pz)"/><circle cx="24" cy="24" r="1.45" fill="url(#KoOoJjU2TEhGZSPS69N2pA)"/><circle cx="24" cy="24" r="1.36" fill="url(#KoOoJjU2TEhGZSPS69N2pB)"/><circle cx="24" cy="24" r="1.26" fill="url(#KoOoJjU2TEhGZSPS69N2pC)"/><circle cx="24" cy="24" r="1.17" fill="url(#KoOoJjU2TEhGZSPS69N2pD)"/></g><g><circle cx="16" cy="24" r="2" fill="url(#KoOoJjU2TEhGZSPS69N2pE)"/><circle cx="16" cy="24" r="1.91" fill="url(#KoOoJjU2TEhGZSPS69N2pF)"/><circle cx="16" cy="24" r="1.82" fill="url(#KoOoJjU2TEhGZSPS69N2pG)"/><circle cx="16" cy="24" r="1.72" fill="url(#KoOoJjU2TEhGZSPS69N2pH)"/><circle cx="16" cy="24" r="1.63" fill="url(#KoOoJjU2TEhGZSPS69N2pI)"/><circle cx="16" cy="24" r="1.54" fill="url(#KoOoJjU2TEhGZSPS69N2pJ)"/><circle cx="16" cy="24" r="1.45" fill="url(#KoOoJjU2TEhGZSPS69N2pK)"/><circle cx="16" cy="24" r="1.36" fill="url(#KoOoJjU2TEhGZSPS69N2pL)"/><circle cx="16" cy="24" r="1.26" fill="url(#KoOoJjU2TEhGZSPS69N2pM)"/><circle cx="16" cy="24" r="1.17" fill="url(#KoOoJjU2TEhGZSPS69N2pN)"/></g></svg>