<svg xmlns="http://www.w3.org/2000/svg" data-name="Layer 1" viewBox="0 0 48 48"><defs><linearGradient id="A7CJ9OGCPkOII4a5DPQ68a" x1="24" x2="24" y1="-2.34" y2="42.98" gradientUnits="userSpaceOnUse"><stop offset="0" stop-color="#f2fcff"/><stop offset=".55" stop-color="#c1f3f9"/><stop offset=".97" stop-color="#baccfd"/></linearGradient><linearGradient id="A7CJ9OGCPkOII4a5DPQ68b" x1="24" x2="24" y1="-1.94" y2="42.78" gradientUnits="userSpaceOnUse"><stop offset="0" stop-color="#effbff"/><stop offset=".55" stop-color="#b3f0f8"/><stop offset=".97" stop-color="#abc1fd"/></linearGradient><linearGradient id="A7CJ9OGCPkOII4a5DPQ68c" x1="24" x2="24" y1="-1.53" y2="42.57" gradientUnits="userSpaceOnUse"><stop offset="0" stop-color="#ecfbff"/><stop offset=".55" stop-color="#a5edf7"/><stop offset=".97" stop-color="#9bb5fc"/></linearGradient><linearGradient id="A7CJ9OGCPkOII4a5DPQ68d" x1="24" x2="24" y1="-1.11" y2="42.34" gradientUnits="userSpaceOnUse"><stop offset="0" stop-color="#eafaff"/><stop offset=".55" stop-color="#98ebf5"/><stop offset=".97" stop-color="#8caafc"/></linearGradient><linearGradient id="A7CJ9OGCPkOII4a5DPQ68e" x1="24" x2="24" y1="-.69" y2="42.1" gradientUnits="userSpaceOnUse"><stop offset="0" stop-color="#e7f9ff"/><stop offset=".55" stop-color="#8ae8f4"/><stop offset=".97" stop-color="#7c9ffc"/></linearGradient><linearGradient id="A7CJ9OGCPkOII4a5DPQ68f" x1="24" x2="24" y1="-.25" y2="41.84" gradientUnits="userSpaceOnUse"><stop offset="0" stop-color="#e4f9fe"/><stop offset=".55" stop-color="#7ce5f3"/><stop offset=".97" stop-color="#6d93fb"/></linearGradient><linearGradient id="A7CJ9OGCPkOII4a5DPQ68g" x1="24" x2="24" y1=".19" y2="41.56" gradientUnits="userSpaceOnUse"><stop offset="0" stop-color="#e1f8fe"/><stop offset=".55" stop-color="#6ee2f2"/><stop offset=".97" stop-color="#5d88fb"/></linearGradient><linearGradient id="A7CJ9OGCPkOII4a5DPQ68h" x1="24" x2="24" y1=".64" y2="41.28" gradientUnits="userSpaceOnUse"><stop offset="0" stop-color="#dff7fe"/><stop offset=".55" stop-color="#61e0f0"/><stop offset=".97" stop-color="#4e7dfb"/></linearGradient><linearGradient id="A7CJ9OGCPkOII4a5DPQ68i" x1="24" x2="24" y1="1.11" y2="40.97" gradientUnits="userSpaceOnUse"><stop offset="0" stop-color="#dcf7fe"/><stop offset=".55" stop-color="#53ddef"/><stop offset=".97" stop-color="#3e71fa"/></linearGradient><linearGradient id="A7CJ9OGCPkOII4a5DPQ68j" x1="24" x2="24" y1="1.58" y2="40.65" gradientUnits="userSpaceOnUse"><stop offset="0" stop-color="#d9f6fe"/><stop offset=".55" stop-color="#45daee"/><stop offset=".97" stop-color="#2f66fa"/></linearGradient></defs><path fill="url(#A7CJ9OGCPkOII4a5DPQ68a)" d="m36,8H12c-2.76,0-5,2.24-5,5v19c0,2.76,2.24,5,5,5h2.75c.14,0,.25.11.25.25v5.91c0,.79.87,1.27,1.54.84l10.91-6.96s.09-.04.13-.04h8.42c2.76,0,5-2.24,5-5V13c0-2.76-2.24-5-5-5Z"/><path fill="url(#A7CJ9OGCPkOII4a5DPQ68b)" d="m36,8.33H12c-2.58,0-4.67,2.09-4.67,4.67v19c0,2.58,2.09,4.67,4.67,4.67h2.95c.21,0,.38.17.38.38v5.65c0,.73.81,1.17,1.42.78l10.55-6.75c.06-.04.13-.06.21-.06h8.48c2.58,0,4.67-2.09,4.67-4.67V13c0-2.58-2.09-4.67-4.67-4.67Z"/><path fill="url(#A7CJ9OGCPkOII4a5DPQ68c)" d="m36,8.67H12c-2.39,0-4.33,1.94-4.33,4.33v19c0,2.39,1.94,4.33,4.33,4.33h3.15c.29,0,.52.23.52.52v5.38c0,.67.74,1.07,1.3.71l10.2-6.53c.08-.05.18-.08.28-.08h8.55c2.39,0,4.33-1.94,4.33-4.33V13c0-2.39-1.94-4.33-4.33-4.33Z"/><path fill="url(#A7CJ9OGCPkOII4a5DPQ68d)" d="m36,9H12c-2.21,0-4,1.79-4,4v19c0,2.21,1.79,4,4,4h3.34c.36,0,.66.29.66.66v5.12c0,.61.67.98,1.19.65l9.84-6.32c.11-.07.23-.11.36-.11h8.61c2.21,0,4-1.79,4-4V13c0-2.21-1.79-4-4-4Z"/><path fill="url(#A7CJ9OGCPkOII4a5DPQ68e)" d="m36,9.33H12c-2.03,0-3.67,1.64-3.67,3.67v19c0,2.03,1.64,3.67,3.67,3.67h3.54c.44,0,.79.35.79.79v4.86c0,.55.61.88,1.07.58l9.49-6.11c.13-.08.28-.13.43-.13h8.68c2.03,0,3.67-1.64,3.67-3.67V13c0-2.03-1.64-3.67-3.67-3.67Z"/><path fill="url(#A7CJ9OGCPkOII4a5DPQ68f)" d="m36,9.67H12c-1.84,0-3.33,1.49-3.33,3.33v19c0,1.84,1.49,3.33,3.33,3.33h3.74c.51,0,.93.42.93.93v4.6c0,.49.54.78.95.52l9.13-5.9c.15-.1.33-.15.51-.15h8.74c1.84,0,3.33-1.49,3.33-3.33V13c0-1.84-1.49-3.33-3.33-3.33Z"/><path fill="url(#A7CJ9OGCPkOII4a5DPQ68g)" d="m36,10H12c-1.66,0-3,1.34-3,3v19c0,1.66,1.34,3,3,3h3.94c.59,0,1.06.48,1.06,1.06v4.34c0,.43.47.69.83.45l8.78-5.69c.17-.11.38-.17.58-.17h8.81c1.66,0,3-1.34,3-3V13c0-1.66-1.34-3-3-3Z"/><path fill="url(#A7CJ9OGCPkOII4a5DPQ68h)" d="m36,10.33H12c-1.47,0-2.67,1.19-2.67,2.67v19c0,1.47,1.19,2.67,2.67,2.67h4.13c.66,0,1.2.54,1.2,1.2v4.08c0,.37.41.59.72.39l8.42-5.47c.2-.13.42-.2.66-.2h8.87c1.47,0,2.67-1.19,2.67-2.67V13c0-1.47-1.19-2.67-2.67-2.67Z"/><path fill="url(#A7CJ9OGCPkOII4a5DPQ68i)" d="m36,10.67H12c-1.29,0-2.33,1.04-2.33,2.33v19c0,1.29,1.04,2.33,2.33,2.33h4.33c.74,0,1.34.6,1.34,1.34v3.82c0,.31.34.49.6.32l8.06-5.26c.22-.14.47-.22.73-.22h8.94c1.29,0,2.33-1.04,2.33-2.33V13c0-1.29-1.04-2.33-2.33-2.33Z"/><path fill="url(#A7CJ9OGCPkOII4a5DPQ68j)" d="m36,11H12c-1.1,0-2,.9-2,2v19c0,1.1.9,2,2,2h4.53c.81,0,1.47.66,1.47,1.47v3.56c0,.25.27.39.48.26l7.71-5.05c.24-.16.52-.24.81-.24h9c1.1,0,2-.9,2-2V13c0-1.1-.9-2-2-2Z"/></svg>