<svg xmlns="http://www.w3.org/2000/svg" data-name="Layer 1" viewBox="0 0 48 48"><defs><linearGradient id="3caGMIkt1iGPeWP0ECdXdk" x1="34.45" x2="43.4" y1="1.66" y2="18.99" gradientUnits="userSpaceOnUse"><stop offset="0" stop-color="#fee6e6"/><stop offset=".18" stop-color="#fcdee2"/><stop offset=".44" stop-color="#f9c8d7"/><stop offset=".6" stop-color="#f7b8d0"/><stop offset="1" stop-color="#feaaaa"/></linearGradient><linearGradient id="3caGMIkt1iGPeWP0ECdXdl" x1="34.54" x2="43.29" y1="1.85" y2="18.76" gradientUnits="userSpaceOnUse"><stop offset="0" stop-color="#fee1e1"/><stop offset=".15" stop-color="#fcd9dd"/><stop offset=".38" stop-color="#f9c3d3"/><stop offset=".6" stop-color="#f5a8c6"/><stop offset="1" stop-color="#fe9797"/></linearGradient><linearGradient id="3caGMIkt1iGPeWP0ECdXdm" x1="34.64" x2="43.17" y1="2.03" y2="18.54" gradientUnits="userSpaceOnUse"><stop offset="0" stop-color="#fddbdb"/><stop offset=".14" stop-color="#fbd3d7"/><stop offset=".34" stop-color="#f9bdcc"/><stop offset=".59" stop-color="#f49abc"/><stop offset=".6" stop-color="#f498bb"/><stop offset="1" stop-color="#fe8484"/></linearGradient><linearGradient id="3caGMIkt1iGPeWP0ECdXdn" x1="34.73" x2="43.06" y1="2.21" y2="18.32" gradientUnits="userSpaceOnUse"><stop offset="0" stop-color="#fdd6d6"/><stop offset=".12" stop-color="#fbced2"/><stop offset=".31" stop-color="#f8b8c7"/><stop offset=".53" stop-color="#f395b7"/><stop offset=".6" stop-color="#f289b1"/><stop offset="1" stop-color="#fd7171"/></linearGradient><linearGradient id="3caGMIkt1iGPeWP0ECdXdo" x1="34.83" x2="42.94" y1="2.4" y2="18.1" gradientUnits="userSpaceOnUse"><stop offset="0" stop-color="#fdd0d0"/><stop offset=".11" stop-color="#fbc8cc"/><stop offset=".28" stop-color="#f8b2c1"/><stop offset=".49" stop-color="#f38fb0"/><stop offset=".6" stop-color="#f079a6"/><stop offset="1" stop-color="#fd5e5e"/></linearGradient><linearGradient id="3caGMIkt1iGPeWP0ECdXdp" x1="34.92" x2="42.83" y1="2.58" y2="17.88" gradientUnits="userSpaceOnUse"><stop offset="0" stop-color="#fccbcb"/><stop offset=".11" stop-color="#fac3c7"/><stop offset=".26" stop-color="#f8adbc"/><stop offset=".45" stop-color="#f38aac"/><stop offset=".6" stop-color="#ef699c"/><stop offset="1" stop-color="#fd4c4c"/></linearGradient><linearGradient id="3caGMIkt1iGPeWP0ECdXdq" x1="35.02" x2="42.71" y1="2.76" y2="17.65" gradientUnits="userSpaceOnUse"><stop offset="0" stop-color="#fcc5c5"/><stop offset=".1" stop-color="#fabdc1"/><stop offset=".24" stop-color="#f7a7b6"/><stop offset=".42" stop-color="#f384a5"/><stop offset=".6" stop-color="#ed5991"/><stop offset="1" stop-color="#fd3939"/></linearGradient><linearGradient id="3caGMIkt1iGPeWP0ECdXdr" x1="35.11" x2="42.6" y1="2.95" y2="17.43" gradientUnits="userSpaceOnUse"><stop offset="0" stop-color="#fcc0c0"/><stop offset=".09" stop-color="#fab8bc"/><stop offset=".23" stop-color="#f7a2b1"/><stop offset=".4" stop-color="#f27fa0"/><stop offset=".59" stop-color="#eb4e89"/><stop offset=".6" stop-color="#eb4a87"/><stop offset="1" stop-color="#fc2626"/></linearGradient><linearGradient id="3caGMIkt1iGPeWP0ECdXds" x1="35.21" x2="42.48" y1="3.13" y2="17.21" gradientUnits="userSpaceOnUse"><stop offset="0" stop-color="#fbbaba"/><stop offset=".09" stop-color="#f9b2b6"/><stop offset=".22" stop-color="#f79cab"/><stop offset=".37" stop-color="#f2799a"/><stop offset=".55" stop-color="#eb4883"/><stop offset=".6" stop-color="#ea3a7c"/><stop offset="1" stop-color="#fc1313"/></linearGradient><linearGradient id="3caGMIkt1iGPeWP0ECdXdt" x1="35.3" x2="42.37" y1="3.31" y2="16.99" gradientUnits="userSpaceOnUse"><stop offset="0" stop-color="#fbb5b5"/><stop offset=".08" stop-color="#f9adb1"/><stop offset=".21" stop-color="#f697a6"/><stop offset=".35" stop-color="#f27495"/><stop offset=".52" stop-color="#eb437e"/><stop offset=".6" stop-color="#e82a72"/><stop offset="1" stop-color="#fc0000"/></linearGradient><linearGradient id="3caGMIkt1iGPeWP0ECdXdu" x1="37.88" x2="37.88" y1="7.85" y2="13.23" gradientUnits="userSpaceOnUse"><stop offset="0" stop-color="#fdf7f7"/><stop offset="1" stop-color="#ffe8e8"/></linearGradient><linearGradient id="3caGMIkt1iGPeWP0ECdXdv" x1="37.88" x2="37.88" y1="7.75" y2="13.23" gradientUnits="userSpaceOnUse"><stop offset="0" stop-color="#fcf2f2"/><stop offset="1" stop-color="#ffdbdb"/></linearGradient><linearGradient id="3caGMIkt1iGPeWP0ECdXdw" x1="37.88" x2="37.88" y1="7.65" y2="13.23" gradientUnits="userSpaceOnUse"><stop offset="0" stop-color="#fbeeee"/><stop offset="1" stop-color="#ffcece"/></linearGradient><linearGradient id="3caGMIkt1iGPeWP0ECdXdx" x1="37.88" x2="37.88" y1="7.56" y2="13.22" gradientUnits="userSpaceOnUse"><stop offset="0" stop-color="#fae9e9"/><stop offset="1" stop-color="#ffc2c2"/></linearGradient><linearGradient id="3caGMIkt1iGPeWP0ECdXdy" x1="37.88" x2="37.88" y1="7.47" y2="13.21" gradientUnits="userSpaceOnUse"><stop offset="0" stop-color="#f9e5e5"/><stop offset="1" stop-color="#ffb5b5"/></linearGradient><linearGradient id="3caGMIkt1iGPeWP0ECdXdz" x1="37.88" x2="37.88" y1="7.39" y2="13.2" gradientUnits="userSpaceOnUse"><stop offset="0" stop-color="#f9e0e0"/><stop offset="1" stop-color="#ffa8a8"/></linearGradient><linearGradient id="3caGMIkt1iGPeWP0ECdXdA" x1="37.88" x2="37.88" y1="7.31" y2="13.19" gradientUnits="userSpaceOnUse"><stop offset="0" stop-color="#f8dcdc"/><stop offset="1" stop-color="#ff9b9b"/></linearGradient><linearGradient id="3caGMIkt1iGPeWP0ECdXdB" x1="37.88" x2="37.88" y1="7.24" y2="13.17" gradientUnits="userSpaceOnUse"><stop offset="0" stop-color="#f7d7d7"/><stop offset="1" stop-color="#ff8f8f"/></linearGradient><linearGradient id="3caGMIkt1iGPeWP0ECdXdC" x1="37.88" x2="37.88" y1="7.17" y2="13.16" gradientUnits="userSpaceOnUse"><stop offset="0" stop-color="#f6d3d3"/><stop offset="1" stop-color="#ff8282"/></linearGradient><linearGradient id="3caGMIkt1iGPeWP0ECdXdD" x1="37.88" x2="37.88" y1="7.1" y2="13.14" gradientUnits="userSpaceOnUse"><stop offset="0" stop-color="#f5cece"/><stop offset="1" stop-color="#ff7575"/></linearGradient><radialGradient id="3caGMIkt1iGPeWP0ECdXda" cx="15.91" cy="-2.87" r="43.01" fx="15.91" fy="-2.87" gradientUnits="userSpaceOnUse"><stop offset="0" stop-color="#f2fcff"/><stop offset=".55" stop-color="#c1f3f9"/><stop offset=".97" stop-color="#baccfd"/></radialGradient><radialGradient id="3caGMIkt1iGPeWP0ECdXdb" cx="16.26" cy="-1.87" r="42.67" fx="16.26" fy="-1.87" gradientUnits="userSpaceOnUse"><stop offset="0" stop-color="#effbff"/><stop offset=".55" stop-color="#b3f0f8"/><stop offset=".97" stop-color="#abc1fd"/></radialGradient><radialGradient id="3caGMIkt1iGPeWP0ECdXdc" cx="16.6" cy="-.89" r="42.28" fx="16.6" fy="-.89" gradientUnits="userSpaceOnUse"><stop offset="0" stop-color="#ecfbff"/><stop offset=".55" stop-color="#a5edf7"/><stop offset=".97" stop-color="#9bb5fc"/></radialGradient><radialGradient id="3caGMIkt1iGPeWP0ECdXdd" cx="16.93" cy=".08" r="41.82" fx="16.93" fy=".08" gradientUnits="userSpaceOnUse"><stop offset="0" stop-color="#eafaff"/><stop offset=".55" stop-color="#98ebf5"/><stop offset=".97" stop-color="#8caafc"/></radialGradient><radialGradient id="3caGMIkt1iGPeWP0ECdXde" cx="17.26" cy="1.04" r="41.3" fx="17.26" fy="1.04" gradientUnits="userSpaceOnUse"><stop offset="0" stop-color="#e7f9ff"/><stop offset=".55" stop-color="#8ae8f4"/><stop offset=".97" stop-color="#7c9ffc"/></radialGradient><radialGradient id="3caGMIkt1iGPeWP0ECdXdf" cx="17.58" cy="1.98" r="40.72" fx="17.58" fy="1.98" gradientUnits="userSpaceOnUse"><stop offset="0" stop-color="#e4f9fe"/><stop offset=".55" stop-color="#7ce5f3"/><stop offset=".97" stop-color="#6d93fb"/></radialGradient><radialGradient id="3caGMIkt1iGPeWP0ECdXdg" cx="17.89" cy="2.91" r="40.08" fx="17.89" fy="2.91" gradientUnits="userSpaceOnUse"><stop offset="0" stop-color="#e1f8fe"/><stop offset=".55" stop-color="#6ee2f2"/><stop offset=".97" stop-color="#5d88fb"/></radialGradient><radialGradient id="3caGMIkt1iGPeWP0ECdXdh" cx="18.19" cy="3.82" r="39.38" fx="18.19" fy="3.82" gradientUnits="userSpaceOnUse"><stop offset="0" stop-color="#dff7fe"/><stop offset=".55" stop-color="#61e0f0"/><stop offset=".97" stop-color="#4e7dfb"/></radialGradient><radialGradient id="3caGMIkt1iGPeWP0ECdXdi" cx="18.49" cy="4.72" r="38.63" fx="18.49" fy="4.72" gradientUnits="userSpaceOnUse"><stop offset="0" stop-color="#dcf7fe"/><stop offset=".55" stop-color="#53ddef"/><stop offset=".97" stop-color="#3e71fa"/></radialGradient><radialGradient id="3caGMIkt1iGPeWP0ECdXdj" cx="18.78" cy="5.61" r="37.82" fx="18.78" fy="5.61" gradientUnits="userSpaceOnUse"><stop offset="0" stop-color="#d9f6fe"/><stop offset=".55" stop-color="#45daee"/><stop offset=".97" stop-color="#2f66fa"/></radialGradient></defs><path fill="url(#3caGMIkt1iGPeWP0ECdXda)" d="m24,4C12.95,4,4,12.95,4,24c0,3.72,1.01,7.19,2.78,10.17l-1.89,6.73c-.44,1.58,1.1,3,2.64,2.41l5.98-2.28c3.05,1.88,6.65,2.97,10.5,2.97,11.05,0,20-8.95,20-20S35.05,4,24,4Z"/><path fill="url(#3caGMIkt1iGPeWP0ECdXdb)" d="m24,4.57C13.27,4.57,4.57,13.27,4.57,24c0,3.61.98,6.99,2.7,9.89l-1.84,6.54c-.43,1.54,1.07,2.91,2.56,2.34l5.81-2.22c2.96,1.83,6.46,2.89,10.2,2.89,10.73,0,19.43-8.7,19.43-19.43S34.73,4.57,24,4.57Z"/><path fill="url(#3caGMIkt1iGPeWP0ECdXdc)" d="m24,5.14C13.58,5.14,5.14,13.58,5.14,24c0,3.5.96,6.79,2.62,9.6l-1.78,6.35c-.42,1.49,1.04,2.83,2.49,2.27l5.64-2.15c2.88,1.78,6.27,2.8,9.9,2.8,10.42,0,18.86-8.45,18.86-18.86S34.42,5.14,24,5.14Z"/><path fill="url(#3caGMIkt1iGPeWP0ECdXdd)" d="m24,5.7C13.89,5.7,5.7,13.89,5.7,24c0,3.4.93,6.58,2.54,9.31l-1.73,6.16c-.41,1.45,1.01,2.74,2.41,2.2l5.47-2.09c2.79,1.72,6.08,2.72,9.6,2.72,10.11,0,18.3-8.19,18.3-18.3S34.11,5.7,24,5.7Z"/><path fill="url(#3caGMIkt1iGPeWP0ECdXde)" d="m24,6.27c-9.79,0-17.73,7.94-17.73,17.73,0,3.29.9,6.38,2.46,9.02l-1.68,5.96c-.39,1.4.98,2.66,2.34,2.14l5.3-2.03c2.7,1.67,5.89,2.64,9.3,2.64,9.79,0,17.73-7.94,17.73-17.73S33.79,6.27,24,6.27Z"/><path fill="url(#3caGMIkt1iGPeWP0ECdXdf)" d="m24,6.84c-9.48,0-17.16,7.68-17.16,17.16,0,3.19.87,6.17,2.38,8.73l-1.62,5.77c-.38,1.36.95,2.57,2.26,2.07l5.13-1.96c2.62,1.62,5.7,2.55,9.01,2.55,9.48,0,17.16-7.68,17.16-17.16S33.48,6.84,24,6.84Z"/><path fill="url(#3caGMIkt1iGPeWP0ECdXdg)" d="m24,7.41c-9.16,0-16.59,7.43-16.59,16.59,0,3.08.84,5.97,2.3,8.44l-1.57,5.58c-.37,1.31.92,2.49,2.19,2l4.96-1.9c2.53,1.56,5.51,2.47,8.71,2.47,9.16,0,16.59-7.43,16.59-16.59S33.16,7.41,24,7.41Z"/><path fill="url(#3caGMIkt1iGPeWP0ECdXdh)" d="m24,7.97c-8.85,0-16.03,7.18-16.03,16.03,0,2.98.81,5.76,2.23,8.15l-1.51,5.39c-.36,1.27.88,2.4,2.12,1.93l4.79-1.83c2.44,1.51,5.33,2.38,8.41,2.38,8.85,0,16.03-7.18,16.03-16.03S32.85,7.97,24,7.97Z"/><path fill="url(#3caGMIkt1iGPeWP0ECdXdi)" d="m24,8.54c-8.54,0-15.46,6.92-15.46,15.46,0,2.87.78,5.56,2.15,7.86l-1.46,5.2c-.34,1.22.85,2.32,2.04,1.86l4.62-1.77c2.36,1.46,5.14,2.3,8.11,2.3,8.54,0,15.46-6.92,15.46-15.46s-6.92-15.46-15.46-15.46Z"/><path fill="url(#3caGMIkt1iGPeWP0ECdXdj)" d="m24,9.11c-8.22,0-14.89,6.67-14.89,14.89,0,2.77.75,5.36,2.07,7.58l-1.41,5.01c-.33,1.18.82,2.23,1.97,1.79l4.45-1.7c2.27,1.4,4.95,2.21,7.81,2.21,8.22,0,14.89-6.67,14.89-14.89s-6.67-14.89-14.89-14.89Z"/><g><path fill="url(#3caGMIkt1iGPeWP0ECdXdk)" d="m47,9.5c0,4.69-3.81,8.5-8.5,8.5s-8.5-3.81-8.5-8.5,3.81-8.5,8.5-8.5,8.5,3.81,8.5,8.5Z"/><circle cx="38.5" cy="9.5" r="8.3" fill="url(#3caGMIkt1iGPeWP0ECdXdl)"/><circle cx="38.5" cy="9.5" r="8.1" fill="url(#3caGMIkt1iGPeWP0ECdXdm)"/><circle cx="38.5" cy="9.5" r="7.9" fill="url(#3caGMIkt1iGPeWP0ECdXdn)"/><circle cx="38.5" cy="9.5" r="7.7" fill="url(#3caGMIkt1iGPeWP0ECdXdo)"/><circle cx="38.5" cy="9.5" r="7.51" fill="url(#3caGMIkt1iGPeWP0ECdXdp)"/><circle cx="38.5" cy="9.5" r="7.31" fill="url(#3caGMIkt1iGPeWP0ECdXdq)"/><circle cx="38.5" cy="9.5" r="7.11" fill="url(#3caGMIkt1iGPeWP0ECdXdr)"/><circle cx="38.5" cy="9.5" r="6.91" fill="url(#3caGMIkt1iGPeWP0ECdXds)"/><circle cx="38.5" cy="9.5" r="6.71" fill="url(#3caGMIkt1iGPeWP0ECdXdt)"/></g><g><path fill="url(#3caGMIkt1iGPeWP0ECdXdu)" d="m38.89,13.5c-.55,0-1-.45-1-1v-4.72l-.77.19c-.54.13-1.08-.19-1.21-.73-.13-.54.19-1.08.73-1.21l2.01-.5c.3-.07.61,0,.86.18.24.19.38.48.38.79v6c0,.55-.45,1-1,1Z"/><path fill="url(#3caGMIkt1iGPeWP0ECdXdv)" d="m38.89,13.43c-.51,0-.93-.42-.93-.93v-4.81l-.86.21c-.5.12-1-.18-1.13-.68-.12-.5.18-1,.68-1.13l2.01-.5c.28-.07.57,0,.8.17.23.18.36.45.36.73v6c0,.51-.42.93-.93.93Z"/><path fill="url(#3caGMIkt1iGPeWP0ECdXdw)" d="m38.89,13.37c-.48,0-.86-.39-.86-.86v-4.9l-.95.24c-.46.11-.93-.17-1.04-.63-.11-.46.17-.93.63-1.04l2.01-.5c.26-.06.53,0,.74.16.21.16.33.41.33.68v6c0,.48-.39.86-.86.86Z"/><path fill="url(#3caGMIkt1iGPeWP0ECdXdx)" d="m38.89,13.3c-.44,0-.79-.35-.79-.79v-4.99l-1.03.26c-.42.1-.85-.15-.96-.58-.11-.42.15-.85.58-.96l2.01-.5c.24-.06.49,0,.68.14.19.15.3.38.3.62v6c0,.44-.35.79-.79.79Z"/><path fill="url(#3caGMIkt1iGPeWP0ECdXdy)" d="m38.89,13.23c-.4,0-.72-.32-.72-.72v-5.08l-1.12.28c-.39.09-.78-.14-.87-.53-.1-.39.14-.78.53-.88l2.01-.5c.22-.05.44,0,.62.13.18.14.28.35.28.57v6c0,.4-.32.72-.72.72Z"/><path fill="url(#3caGMIkt1iGPeWP0ECdXdz)" d="m38.89,13.16c-.36,0-.65-.29-.65-.65v-5.17l-1.2.3c-.35.08-.7-.13-.79-.48-.09-.35.13-.7.48-.79l2.01-.5c.19-.05.4,0,.56.12.16.12.25.31.25.51v6c0,.36-.29.65-.65.65Z"/><path fill="url(#3caGMIkt1iGPeWP0ECdXdA)" d="m38.89,13.09c-.32,0-.58-.26-.58-.58v-5.26l-1.29.32c-.31.07-.63-.11-.71-.43-.08-.31.11-.63.43-.71l2.01-.5c.17-.04.36,0,.5.11.14.11.22.28.22.46v6c0,.32-.26.58-.58.58Z"/><path fill="url(#3caGMIkt1iGPeWP0ECdXdB)" d="m38.89,13.02c-.28,0-.51-.23-.51-.51v-5.35l-1.38.34c-.27.06-.55-.1-.62-.37-.07-.28.1-.55.37-.62l2.01-.5c.15-.04.32,0,.44.09s.2.25.2.41v6c0,.28-.23.51-.51.51Z"/><path fill="url(#3caGMIkt1iGPeWP0ECdXdC)" d="m38.89,12.95c-.25,0-.44-.2-.44-.44v-5.44l-1.46.36c-.24.06-.48-.09-.54-.32-.06-.24.09-.48.32-.54l2.01-.5c.13-.03.27,0,.38.08s.17.21.17.35v6c0,.25-.2.44-.44.44Z"/><path fill="url(#3caGMIkt1iGPeWP0ECdXdD)" d="m38.89,12.88c-.21,0-.38-.17-.38-.38v-5.52l-1.55.39c-.2.05-.4-.07-.45-.27s.07-.4.27-.46l2.01-.5c.11-.03.23,0,.32.07.09.07.14.18.14.3v6c0,.21-.17.38-.38.38Z"/></g></svg>