<svg xmlns="http://www.w3.org/2000/svg" xmlns:xlink="http://www.w3.org/1999/xlink" data-name="Layer 1" viewBox="0 0 48 48"><defs><linearGradient id="oYv9uaL-SS7xfM-3RcYe0a" x1="41.37" x2="29.9" y1="23.85" y2="24.09" gradientUnits="userSpaceOnUse"><stop offset=".22" stop-color="#e7faea"/><stop offset="1" stop-color="#baffde"/></linearGradient><linearGradient id="oYv9uaL-SS7xfM-3RcYe0b" x1="41.96" x2="29.69" y1="23.83" y2="24.09" gradientUnits="userSpaceOnUse"><stop offset=".22" stop-color="#e4f9e8"/><stop offset="1" stop-color="#b2ffda"/></linearGradient><linearGradient id="oYv9uaL-SS7xfM-3RcYe0c" x1="42.41" x2="29.52" y1="23.82" y2="24.09" gradientUnits="userSpaceOnUse"><stop offset=".22" stop-color="#e1f9e5"/><stop offset="1" stop-color="#abffd6"/></linearGradient><linearGradient id="oYv9uaL-SS7xfM-3RcYe0d" x1="42.72" x2="29.39" y1="23.81" y2="24.09" gradientUnits="userSpaceOnUse"><stop offset=".22" stop-color="#dff8e3"/><stop offset="1" stop-color="#a3ffd3"/></linearGradient><linearGradient id="oYv9uaL-SS7xfM-3RcYe0e" x1="42.88" x2="29.31" y1="23.8" y2="24.09" gradientUnits="userSpaceOnUse"><stop offset=".22" stop-color="#dcf8e1"/><stop offset="1" stop-color="#9bffcf"/></linearGradient><linearGradient id="oYv9uaL-SS7xfM-3RcYe0f" x1="42.91" x2="29.27" y1="23.8" y2="24.09" gradientUnits="userSpaceOnUse"><stop offset=".22" stop-color="#d9f7de"/><stop offset="1" stop-color="#94ffcb"/></linearGradient><linearGradient id="oYv9uaL-SS7xfM-3RcYe0g" x1="42.8" x2="29.27" y1="23.8" y2="24.08" gradientUnits="userSpaceOnUse"><stop offset=".22" stop-color="#d6f7dc"/><stop offset="1" stop-color="#8cffc7"/></linearGradient><linearGradient id="oYv9uaL-SS7xfM-3RcYe0h" x1="42.54" x2="29.32" y1="23.8" y2="24.08" gradientUnits="userSpaceOnUse"><stop offset=".22" stop-color="#d4f6da"/><stop offset="1" stop-color="#84ffc4"/></linearGradient><linearGradient id="oYv9uaL-SS7xfM-3RcYe0i" x1="42.15" x2="29.42" y1="23.81" y2="24.08" gradientUnits="userSpaceOnUse"><stop offset=".22" stop-color="#d1f6d7"/><stop offset="1" stop-color="#7dffc0"/></linearGradient><linearGradient id="oYv9uaL-SS7xfM-3RcYe0j" x1="41.61" x2="29.55" y1="23.82" y2="24.07" gradientUnits="userSpaceOnUse"><stop offset=".22" stop-color="#cef5d5"/><stop offset="1" stop-color="#75ffbc"/></linearGradient><linearGradient id="oYv9uaL-SS7xfM-3RcYe0u" x1="20.95" x2="20.95" y1="13.7" y2="34.69" xlink:href="#oYv9uaL-SS7xfM-3RcYe0a"/><linearGradient id="oYv9uaL-SS7xfM-3RcYe0v" x1="20.94" x2="20.94" y1="14.33" y2="34.48" xlink:href="#oYv9uaL-SS7xfM-3RcYe0b"/><linearGradient id="oYv9uaL-SS7xfM-3RcYe0w" x1="20.94" x2="20.94" y1="14.94" y2="34.27" xlink:href="#oYv9uaL-SS7xfM-3RcYe0c"/><linearGradient id="oYv9uaL-SS7xfM-3RcYe0x" x1="20.94" x2="20.94" y1="15.53" y2="34.04" xlink:href="#oYv9uaL-SS7xfM-3RcYe0d"/><linearGradient id="oYv9uaL-SS7xfM-3RcYe0y" x1="20.93" x2="20.93" y1="16.11" y2="33.81" xlink:href="#oYv9uaL-SS7xfM-3RcYe0e"/><linearGradient id="oYv9uaL-SS7xfM-3RcYe0z" x1="20.93" x2="20.93" y1="16.66" y2="33.57" xlink:href="#oYv9uaL-SS7xfM-3RcYe0f"/><linearGradient id="oYv9uaL-SS7xfM-3RcYe0A" x1="20.92" x2="20.92" y1="17.19" y2="33.32" xlink:href="#oYv9uaL-SS7xfM-3RcYe0g"/><linearGradient id="oYv9uaL-SS7xfM-3RcYe0B" x1="20.92" x2="20.92" y1="17.71" y2="33.07" xlink:href="#oYv9uaL-SS7xfM-3RcYe0h"/><linearGradient id="oYv9uaL-SS7xfM-3RcYe0C" x1="20.92" x2="20.92" y1="18.21" y2="32.8" xlink:href="#oYv9uaL-SS7xfM-3RcYe0i"/><linearGradient id="oYv9uaL-SS7xfM-3RcYe0D" x1="20.91" x2="20.91" y1="18.68" y2="32.53" xlink:href="#oYv9uaL-SS7xfM-3RcYe0j"/><radialGradient id="oYv9uaL-SS7xfM-3RcYe0k" cx="22.14" cy="2.87" r="44.06" fx="22.14" fy="2.87" gradientUnits="userSpaceOnUse"><stop offset="0" stop-color="#ecfcef"/><stop offset=".59" stop-color="#c2f3db"/><stop offset=".96" stop-color="#b5d9f7"/></radialGradient><radialGradient id="oYv9uaL-SS7xfM-3RcYe0l" cx="21.94" cy="3.3" r="43.69" fx="21.94" fy="3.3" gradientUnits="userSpaceOnUse"><stop offset="0" stop-color="#e8fbeb"/><stop offset=".59" stop-color="#b4f0d3"/><stop offset=".96" stop-color="#a4d1f5"/></radialGradient><radialGradient id="oYv9uaL-SS7xfM-3RcYe0m" cx="21.76" cy="3.73" r="43.28" fx="21.76" fy="3.73" gradientUnits="userSpaceOnUse"><stop offset="0" stop-color="#e4fae8"/><stop offset=".59" stop-color="#a7eecb"/><stop offset=".96" stop-color="#94c8f4"/></radialGradient><radialGradient id="oYv9uaL-SS7xfM-3RcYe0n" cx="21.58" cy="4.18" r="42.82" fx="21.58" fy="4.18" gradientUnits="userSpaceOnUse"><stop offset="0" stop-color="#dffae4"/><stop offset=".59" stop-color="#99ebc3"/><stop offset=".96" stop-color="#83c0f2"/></radialGradient><radialGradient id="oYv9uaL-SS7xfM-3RcYe0o" cx="21.43" cy="4.64" r="42.32" fx="21.43" fy="4.64" gradientUnits="userSpaceOnUse"><stop offset="0" stop-color="#dbf9e0"/><stop offset=".59" stop-color="#8ce8bb"/><stop offset=".96" stop-color="#73b8f0"/></radialGradient><radialGradient id="oYv9uaL-SS7xfM-3RcYe0p" cx="21.29" cy="5.11" r="41.77" fx="21.29" fy="5.11" gradientUnits="userSpaceOnUse"><stop offset="0" stop-color="#d7f8dd"/><stop offset=".59" stop-color="#7ee6b4"/><stop offset=".96" stop-color="#62afef"/></radialGradient><radialGradient id="oYv9uaL-SS7xfM-3RcYe0q" cx="21.16" cy="5.58" r="41.18" fx="21.16" fy="5.58" gradientUnits="userSpaceOnUse"><stop offset="0" stop-color="#d3f7d9"/><stop offset=".59" stop-color="#71e3ac"/><stop offset=".96" stop-color="#52a7ed"/></radialGradient><radialGradient id="oYv9uaL-SS7xfM-3RcYe0r" cx="21.05" cy="6.07" r="40.54" fx="21.05" fy="6.07" gradientUnits="userSpaceOnUse"><stop offset="0" stop-color="#cef7d5"/><stop offset=".59" stop-color="#63e0a4"/><stop offset=".96" stop-color="#419feb"/></radialGradient><radialGradient id="oYv9uaL-SS7xfM-3RcYe0s" cx="20.95" cy="6.57" r="39.85" fx="20.95" fy="6.57" gradientUnits="userSpaceOnUse"><stop offset="0" stop-color="#caf6d2"/><stop offset=".59" stop-color="#56de9c"/><stop offset=".96" stop-color="#3196ea"/></radialGradient><radialGradient id="oYv9uaL-SS7xfM-3RcYe0t" cx="20.87" cy="7.08" r="39.11" fx="20.87" fy="7.08" gradientUnits="userSpaceOnUse"><stop offset="0" stop-color="#c6f5ce"/><stop offset=".59" stop-color="#48db94"/><stop offset=".96" stop-color="#208ee8"/></radialGradient></defs><path fill="url(#oYv9uaL-SS7xfM-3RcYe0k)" d="m24,4C12.95,4,4,12.95,4,24c0,3.72,1.01,7.19,2.78,10.17l-1.89,6.73c-.44,1.58,1.1,3,2.64,2.41l5.98-2.28c3.05,1.88,6.65,2.97,10.5,2.97,11.05,0,20-8.95,20-20S35.05,4,24,4Z"/><path fill="url(#oYv9uaL-SS7xfM-3RcYe0l)" d="m24,4.57C13.27,4.57,4.57,13.27,4.57,24c0,3.61.98,6.99,2.7,9.89l-1.84,6.54c-.43,1.54,1.07,2.91,2.56,2.34l5.81-2.22c2.96,1.83,6.46,2.89,10.2,2.89,10.73,0,19.43-8.7,19.43-19.43S34.73,4.57,24,4.57Z"/><path fill="url(#oYv9uaL-SS7xfM-3RcYe0m)" d="m24,5.14C13.58,5.14,5.14,13.58,5.14,24c0,3.5.96,6.79,2.62,9.6l-1.78,6.35c-.42,1.49,1.04,2.83,2.49,2.27l5.64-2.15c2.88,1.78,6.27,2.8,9.9,2.8,10.42,0,18.86-8.45,18.86-18.86S34.42,5.14,24,5.14Z"/><path fill="url(#oYv9uaL-SS7xfM-3RcYe0n)" d="m24,5.7C13.89,5.7,5.7,13.89,5.7,24c0,3.4.93,6.58,2.54,9.31l-1.73,6.16c-.41,1.45,1.01,2.74,2.41,2.2l5.47-2.09c2.79,1.72,6.08,2.72,9.6,2.72,10.11,0,18.3-8.19,18.3-18.3S34.11,5.7,24,5.7Z"/><path fill="url(#oYv9uaL-SS7xfM-3RcYe0o)" d="m24,6.27c-9.79,0-17.73,7.94-17.73,17.73,0,3.29.9,6.38,2.46,9.02l-1.68,5.96c-.39,1.4.98,2.66,2.34,2.14l5.3-2.03c2.7,1.67,5.89,2.64,9.3,2.64,9.79,0,17.73-7.94,17.73-17.73S33.79,6.27,24,6.27Z"/><path fill="url(#oYv9uaL-SS7xfM-3RcYe0p)" d="m24,6.84c-9.48,0-17.16,7.68-17.16,17.16,0,3.19.87,6.17,2.38,8.73l-1.62,5.77c-.38,1.36.95,2.57,2.26,2.07l5.13-1.96c2.62,1.62,5.7,2.55,9.01,2.55,9.48,0,17.16-7.68,17.16-17.16S33.48,6.84,24,6.84Z"/><path fill="url(#oYv9uaL-SS7xfM-3RcYe0q)" d="m24,7.41c-9.16,0-16.59,7.43-16.59,16.59,0,3.08.84,5.97,2.3,8.44l-1.57,5.58c-.37,1.31.92,2.49,2.19,2l4.96-1.9c2.53,1.56,5.51,2.47,8.71,2.47,9.16,0,16.59-7.43,16.59-16.59S33.16,7.41,24,7.41Z"/><path fill="url(#oYv9uaL-SS7xfM-3RcYe0r)" d="m24,7.97c-8.85,0-16.03,7.18-16.03,16.03,0,2.98.81,5.76,2.23,8.15l-1.51,5.39c-.36,1.27.88,2.4,2.12,1.93l4.79-1.83c2.44,1.51,5.33,2.38,8.41,2.38,8.85,0,16.03-7.18,16.03-16.03S32.85,7.97,24,7.97Z"/><path fill="url(#oYv9uaL-SS7xfM-3RcYe0s)" d="m24,8.54c-8.54,0-15.46,6.92-15.46,15.46,0,2.87.78,5.56,2.15,7.86l-1.46,5.2c-.34,1.22.85,2.32,2.04,1.86l4.62-1.77c2.36,1.46,5.14,2.3,8.11,2.3,8.54,0,15.46-6.92,15.46-15.46s-6.92-15.46-15.46-15.46Z"/><path fill="url(#oYv9uaL-SS7xfM-3RcYe0t)" d="m24,9.11c-8.22,0-14.89,6.67-14.89,14.89,0,2.77.75,5.36,2.07,7.58l-1.41,5.01c-.33,1.18.82,2.23,1.97,1.79l4.45-1.7c2.27,1.4,4.95,2.21,7.81,2.21,8.22,0,14.89-6.67,14.89-14.89s-6.67-14.89-14.89-14.89Z"/><g><path fill="url(#oYv9uaL-SS7xfM-3RcYe0a)" d="m27.25,24.8l7.18,5.05c.66.47,1.58,0,1.58-.82v-10.11c0-.81-.91-1.28-1.58-.82l-7.18,5.05c-.57.4-.57,1.24,0,1.64Z"/><path fill="url(#oYv9uaL-SS7xfM-3RcYe0b)" d="m27.53,23.24l6.82-4.8c.6-.42,1.43,0,1.43.74v9.61c0,.74-.83,1.17-1.43.74l-6.82-4.8c-.51-.36-.51-1.12,0-1.48Z"/><path fill="url(#oYv9uaL-SS7xfM-3RcYe0c)" d="m27.81,23.31l6.47-4.55c.54-.38,1.28,0,1.28.67v9.11c0,.66-.74,1.05-1.28.67l-6.47-4.55c-.46-.32-.46-1.01,0-1.33Z"/><path fill="url(#oYv9uaL-SS7xfM-3RcYe0d)" d="m28.08,23.39l6.11-4.3c.48-.34,1.14,0,1.14.59v8.61c0,.59-.66.93-1.14.59l-6.11-4.3c-.41-.29-.41-.89,0-1.18Z"/><path fill="url(#oYv9uaL-SS7xfM-3RcYe0e)" d="m28.36,23.47l5.76-4.05c.42-.29.99,0,.99.52v8.11c0,.51-.58.81-.99.52l-5.76-4.05c-.36-.25-.36-.78,0-1.03Z"/><path fill="url(#oYv9uaL-SS7xfM-3RcYe0f)" d="m28.64,23.54l5.4-3.8c.36-.25.85,0,.85.44v7.61c0,.44-.49.69-.85.44l-5.4-3.8c-.3-.21-.3-.67,0-.88Z"/><path fill="url(#oYv9uaL-SS7xfM-3RcYe0g)" d="m28.92,23.62l5.04-3.55c.3-.21.7,0,.7.36v7.1c0,.36-.41.57-.7.36l-5.04-3.55c-.25-.18-.25-.55,0-.73Z"/><path fill="url(#oYv9uaL-SS7xfM-3RcYe0h)" d="m29.2,23.69l4.69-3.3c.23-.16.56,0,.56.29v6.6c0,.29-.32.45-.56.29l-4.69-3.3c-.2-.14-.2-.44,0-.58Z"/><path fill="url(#oYv9uaL-SS7xfM-3RcYe0i)" d="m29.48,23.77l4.33-3.05c.17-.12.41,0,.41.21v6.1c0,.21-.24.34-.41.21l-4.33-3.05c-.15-.1-.15-.32,0-.43Z"/><path fill="url(#oYv9uaL-SS7xfM-3RcYe0j)" d="m29.76,23.84l3.98-2.8c.11-.08.27,0,.27.14v5.6c0,.14-.15.22-.27.14l-3.98-2.8c-.1-.07-.1-.21,0-.28Z"/></g><g><rect width="17.96" height="14" x="11.97" y="17" fill="url(#oYv9uaL-SS7xfM-3RcYe0u)" rx="2" ry="2"/><rect width="17.51" height="13.56" x="12.19" y="17.23" fill="url(#oYv9uaL-SS7xfM-3RcYe0v)" rx="1.82" ry="1.82"/><rect width="17.07" height="13.11" x="12.4" y="17.47" fill="url(#oYv9uaL-SS7xfM-3RcYe0w)" rx="1.64" ry="1.64"/><rect width="16.62" height="12.67" x="12.62" y="17.7" fill="url(#oYv9uaL-SS7xfM-3RcYe0x)" rx="1.46" ry="1.46"/><rect width="16.18" height="12.22" x="12.84" y="17.93" fill="url(#oYv9uaL-SS7xfM-3RcYe0y)" rx="1.28" ry="1.28"/><rect width="15.74" height="11.78" x="13.06" y="18.17" fill="url(#oYv9uaL-SS7xfM-3RcYe0z)" rx="1.1" ry="1.1"/><rect width="15.29" height="11.33" x="13.28" y="18.4" fill="url(#oYv9uaL-SS7xfM-3RcYe0A)" rx=".92" ry=".92"/><rect width="14.85" height="10.89" x="13.5" y="18.63" fill="url(#oYv9uaL-SS7xfM-3RcYe0B)" rx=".74" ry=".74"/><rect width="14.4" height="10.44" x="13.72" y="18.86" fill="url(#oYv9uaL-SS7xfM-3RcYe0C)" rx=".56" ry=".56"/><rect width="13.96" height="10" x="13.94" y="19.1" fill="url(#oYv9uaL-SS7xfM-3RcYe0D)" rx=".37" ry=".37"/></g></svg>