<svg xmlns="http://www.w3.org/2000/svg" xmlns:xlink="http://www.w3.org/1999/xlink" viewBox="0 0 400 400"><defs><style>.cls-1{fill:url(#linear-gradient);}.cls-2{fill:url(#linear-gradient-2);}.cls-3{fill:url(#linear-gradient-3);}.cls-4{fill:url(#linear-gradient-4);}.cls-5{fill:url(#linear-gradient-5);}.cls-6{fill:url(#linear-gradient-6);}.cls-7{fill:url(#linear-gradient-7);}.cls-8{fill:url(#linear-gradient-8);}.cls-9{fill:url(#linear-gradient-9);}.cls-10{fill:url(#linear-gradient-10);}.cls-11{fill:url(#linear-gradient-11);}.cls-12{fill:url(#linear-gradient-12);}.cls-13{fill:url(#linear-gradient-13);}</style><linearGradient id="linear-gradient" x1="89.67" y1="191.09" x2="292.55" y2="191.09" gradientUnits="userSpaceOnUse"><stop offset="0.25" stop-color="#3c5494"/><stop offset="1" stop-color="#2b3f7e"/></linearGradient><linearGradient id="linear-gradient-2" x1="258.82" y1="119.61" x2="138.15" y2="120.73" xlink:href="#linear-gradient"/><linearGradient id="linear-gradient-3" x1="264.45" y1="190.86" x2="287.51" y2="189.6" xlink:href="#linear-gradient"/><linearGradient id="linear-gradient-4" x1="207.45" y1="197.63" x2="246.44" y2="197.63" gradientUnits="userSpaceOnUse"><stop offset="0" stop-color="#ffcf0d"/><stop offset="1" stop-color="#ffa415"/></linearGradient><linearGradient id="linear-gradient-5" x1="164.61" y1="197.63" x2="203.59" y2="197.63" xlink:href="#linear-gradient-4"/><linearGradient id="linear-gradient-6" x1="122.74" y1="197.63" x2="161.73" y2="197.63" xlink:href="#linear-gradient-4"/><linearGradient id="linear-gradient-7" x1="122.74" y1="239.49" x2="161.73" y2="239.49" xlink:href="#linear-gradient-4"/><linearGradient id="linear-gradient-8" x1="122.74" y1="283" x2="161.73" y2="283" xlink:href="#linear-gradient-4"/><linearGradient id="linear-gradient-9" x1="164.61" y1="283" x2="203.59" y2="283" xlink:href="#linear-gradient-4"/><linearGradient id="linear-gradient-10" x1="164.61" y1="241.14" x2="203.59" y2="241.14" xlink:href="#linear-gradient-4"/><linearGradient id="linear-gradient-11" x1="208.5" y1="261.54" x2="246.44" y2="261.54" gradientUnits="userSpaceOnUse"><stop offset="0" stop-color="#ff4974"/><stop offset="1" stop-color="#ee1950"/></linearGradient><linearGradient id="linear-gradient-12" x1="160.97" y1="92.21" x2="216.8" y2="158.71" gradientUnits="userSpaceOnUse"><stop offset="0" stop-color="#00e7b2"/><stop offset="1" stop-color="#16dbab"/></linearGradient><linearGradient id="linear-gradient-13" x1="148.01" y1="120.3" x2="221.11" y2="120.3" gradientUnits="userSpaceOnUse"><stop offset="0.45" stop-color="#fffcf8"/><stop offset="1" stop-color="#bac8e1"/></linearGradient></defs><g id="Layer_20" data-name="Layer 20"><path class="cls-1" d="M292.55,87.52V294.07a26.37,26.37,0,0,1-15.3,23.87,27,27,0,0,1-11.3,2.52h-1.38l-131,.57a26.51,26.51,0,0,1-26.71-28.85,222.5,222.5,0,0,0-3.38-65.83,221.6,221.6,0,0,0-11.87-39.22,26.16,26.16,0,0,1-2-9.87V87.52a26.54,26.54,0,0,1,26.7-26.38H265.84a27,27,0,0,1,11.41,2.52A26.37,26.37,0,0,1,292.55,87.52Z"/><rect class="cls-2" x="114.45" y="68.95" width="140.22" height="102.7" rx="21.06"/><path class="cls-3" d="M277.25,63.66V317.94a27,27,0,0,1-11.3,2.52h-1.38V61.14h1.27A27,27,0,0,1,277.25,63.66Z"/><rect class="cls-4" x="207.45" y="178.39" width="38.98" height="38.48" rx="9.33"/><rect class="cls-5" x="164.61" y="178.39" width="38.98" height="38.48" rx="9.33"/><rect class="cls-6" x="122.74" y="178.39" width="38.98" height="38.48" rx="9.33"/><rect class="cls-7" x="122.74" y="220.26" width="38.98" height="38.48" rx="9.33"/><rect class="cls-8" x="122.74" y="263.76" width="38.98" height="38.48" rx="9.33"/><rect class="cls-9" x="164.61" y="263.76" width="38.98" height="38.48" rx="9.33"/><rect class="cls-10" x="164.61" y="221.9" width="38.98" height="38.48" rx="9.33"/><rect class="cls-11" x="208.5" y="220.85" width="37.94" height="81.39" rx="8.38"/><rect class="cls-12" x="122.73" y="77.86" width="123.66" height="84.88" rx="18.64"/><path class="cls-13" d="M177.09,146.81a9,9,0,0,1-6.36-2.64l-20.09-20.08a9,9,0,1,1,12.73-12.73l13.72,13.72,28.65-28.65a9,9,0,1,1,12.73,12.73l-35,35A9,9,0,0,1,177.09,146.81Z"/></g></svg>