<svg xmlns="http://www.w3.org/2000/svg" xmlns:xlink="http://www.w3.org/1999/xlink" viewBox="0 0 400 400"><defs><style>.cls-1{fill:url(#linear-gradient);}.cls-2{fill:url(#linear-gradient-2);}.cls-3{fill:url(#linear-gradient-3);}.cls-4{fill:url(#linear-gradient-4);}.cls-5{fill:url(#linear-gradient-5);}.cls-6{fill:url(#linear-gradient-6);}.cls-7{fill:url(#linear-gradient-7);}.cls-8{fill:url(#linear-gradient-8);}.cls-9{fill:url(#linear-gradient-9);}.cls-10,.cls-11{opacity:0.1;}.cls-10{fill:url(#linear-gradient-10);}.cls-11{fill:url(#linear-gradient-11);}</style><linearGradient id="linear-gradient" x1="98.24" y1="261.76" x2="302.87" y2="261.76" gradientUnits="userSpaceOnUse"><stop offset="0" stop-color="#3c5494"/><stop offset="1" stop-color="#2b3f7e"/></linearGradient><linearGradient id="linear-gradient-2" x1="179.64" y1="72.89" x2="222.65" y2="222.64" gradientUnits="userSpaceOnUse"><stop offset="0.6" stop-color="#fffcf8"/><stop offset="1" stop-color="#bac8e1"/></linearGradient><linearGradient id="linear-gradient-3" x1="154.99" y1="173.43" x2="220.55" y2="300.69" gradientUnits="userSpaceOnUse"><stop offset="0.45" stop-color="#fffcf8"/><stop offset="1" stop-color="#bac8e1"/></linearGradient><linearGradient id="linear-gradient-4" x1="113.92" y1="195.82" x2="125.23" y2="195.82" gradientUnits="userSpaceOnUse"><stop offset="0" stop-color="#ffcf0d"/><stop offset="1" stop-color="#ffa415"/></linearGradient><linearGradient id="linear-gradient-5" x1="274.6" y1="195.82" x2="285.91" y2="195.82" xlink:href="#linear-gradient-4"/><linearGradient id="linear-gradient-6" x1="269.84" y1="108.15" x2="289.47" y2="108.15" xlink:href="#linear-gradient"/><linearGradient id="linear-gradient-7" x1="111.22" y1="108.15" x2="159.14" y2="108.15" xlink:href="#linear-gradient"/><linearGradient id="linear-gradient-8" x1="138.43" y1="193.82" x2="176.85" y2="193.82" gradientUnits="userSpaceOnUse"><stop offset="0" stop-color="#ff4974"/><stop offset="1" stop-color="#ed174f"/></linearGradient><linearGradient id="linear-gradient-9" x1="191.11" y1="193.47" x2="255.97" y2="193.47" xlink:href="#linear-gradient-8"/><linearGradient id="linear-gradient-10" x1="138.43" y1="167.18" x2="176.82" y2="167.18" gradientUnits="userSpaceOnUse"><stop offset="0" stop-color="#1d1d1b"/><stop offset="0.99" stop-color="#2b3f7e" stop-opacity="0"/></linearGradient><linearGradient id="linear-gradient-11" x1="197.53" y1="166.9" x2="255.8" y2="166.9" xlink:href="#linear-gradient-10"/></defs><g id="Layer_16" data-name="Layer 16"><rect class="cls-1" x="98.24" y="210.6" width="204.63" height="102.32" rx="8.43"/><path class="cls-2" d="M110,87.08H291.64a11.74,11.74,0,0,1,11.74,11.74v97.26a0,0,0,0,1,0,0H98.24a0,0,0,0,1,0,0V98.82A11.74,11.74,0,0,1,110,87.08Z"/><path class="cls-3" d="M313.46,295.61l-226.85.95a8,8,0,0,1-7.87-9.71l19.5-90.77H303.39q8.94,45,17.9,89.95A8,8,0,0,1,313.46,295.61Z"/><rect class="cls-4" x="113.92" y="187.34" width="11.31" height="16.97" rx="2.64"/><rect class="cls-5" x="274.6" y="187.34" width="11.31" height="16.97" rx="2.36"/><rect class="cls-6" x="269.84" y="100.49" width="19.63" height="15.31" rx="3.63"/><rect class="cls-7" x="111.22" y="100.49" width="47.91" height="15.31" rx="2.67"/><path class="cls-8" d="M176.82,196.08l0-47.35a15.08,15.08,0,0,0-.8-5.5q-3-7.46-12.26-3.7l-15.37,6.24q-6.23,2.53-8.61,6.59a9.5,9.5,0,0,0-.45,8.82q2.85,7,12.69,3l5.3-2.15v76.75a16.26,16.26,0,0,0,1,5.77,7.36,7.36,0,0,0,4.35,4.23,8.4,8.4,0,0,0,6.45-.12c5.12-2.07,7.71-7.27,7.73-15.58Z"/><path class="cls-9" d="M254.81,198.15c-.15-.71-.32-1.4-.5-2.07q-2.84-10.71-10.27-16.2-8.11-6-18.83-3.71a28.93,28.93,0,0,0-5.76,2L222.33,162l21.42-4.61q6.65-1.42,9.76-5.11a9.85,9.85,0,0,0,2-8.88c-.56-2.6-1.81-4.29-3.73-5.09s-4.75-.81-8.49,0l-27.17,5.85q-6.66,1.42-8.85,3.43c-1.48,1.33-2.53,3.91-3.18,7.73l-6.17,35.19a16.24,16.24,0,0,0-.24,5.55.57.57,0,0,0,0,.18,8.8,8.8,0,0,0,4,5.82,9.07,9.07,0,0,0,7,1.15,11.67,11.67,0,0,0,5.21-2.57l4.81-4.08c.19-.18.39-.34.59-.5a11.41,11.41,0,0,1,4.59-2.24,8.42,8.42,0,0,1,7.07,1.45,10.65,10.65,0,0,1,4.06,6.85A27.05,27.05,0,0,1,232.86,220q-4.16,8.67-11.3,10.21a8.63,8.63,0,0,1-6.27-.91,6.83,6.83,0,0,1-3.49-4.64,12.33,12.33,0,0,1-.31-3l0-3.32a16.56,16.56,0,0,0-.3-3.76,7.72,7.72,0,0,0-3.68-5.27,9.2,9.2,0,0,0-6.81-.87q-5.67,1.22-8.17,7.19t-.76,14a23.22,23.22,0,0,0,11.53,16.1q9.18,5.24,21.28,2.63a37.54,37.54,0,0,0,25.27-18Q258.62,215.83,254.81,198.15Z"/><path class="cls-10" d="M176.79,148.73l0,47.35H157.3V162l-5.3,2.15q-9.84,4-12.69-3a9.5,9.5,0,0,1,.45-8.82q2.38-4.06,8.61-6.59l15.37-6.24q9.22-3.75,12.26,3.7A15.08,15.08,0,0,1,176.79,148.73Z"/><path class="cls-11" d="M254.31,196.08H197.68a16.24,16.24,0,0,1,.24-5.55l6.17-35.19c.65-3.82,1.7-6.4,3.18-7.73s4.41-2.48,8.85-3.43l27.17-5.85c3.74-.81,6.56-.81,8.49,0s3.17,2.49,3.73,5.09a9.85,9.85,0,0,1-2,8.88q-3.1,3.67-9.76,5.11L222.33,162l-2.88,16.16a28.93,28.93,0,0,1,5.76-2q10.71-2.31,18.83,3.71Q251.48,185.37,254.31,196.08Z"/></g></svg>