<svg xmlns="http://www.w3.org/2000/svg" xmlns:xlink="http://www.w3.org/1999/xlink" viewBox="0 0 400 400"><defs><style>.cls-1{fill:url(#linear-gradient);}.cls-2{fill:url(#linear-gradient-2);}.cls-3{fill:url(#linear-gradient-3);}.cls-4{fill:url(#linear-gradient-4);}.cls-5{fill:url(#linear-gradient-5);}.cls-6{fill:url(#linear-gradient-6);}.cls-7{fill:url(#linear-gradient-7);}.cls-8{fill:url(#linear-gradient-8);}.cls-9{fill:url(#linear-gradient-9);}.cls-10{fill:url(#linear-gradient-10);}.cls-11{fill:url(#linear-gradient-11);}.cls-12{fill:url(#linear-gradient-12);}.cls-13{fill:url(#linear-gradient-13);}.cls-14{fill:url(#linear-gradient-14);}.cls-15,.cls-19{opacity:0.1;}.cls-15{fill:url(#linear-gradient-15);}.cls-16{fill:url(#linear-gradient-16);}.cls-17{fill:url(#linear-gradient-17);}.cls-18{fill:url(#linear-gradient-18);}.cls-19{fill:url(#linear-gradient-19);}.cls-20{fill:url(#linear-gradient-20);}</style><linearGradient id="linear-gradient" x1="99.58" y1="178.32" x2="344.68" y2="177.64" gradientUnits="userSpaceOnUse"><stop offset="0" stop-color="#00e7b2"/><stop offset="1" stop-color="#16dbab"/></linearGradient><linearGradient id="linear-gradient-2" x1="336.22" y1="178.48" x2="117.92" y2="178.48" xlink:href="#linear-gradient"/><linearGradient id="linear-gradient-3" x1="120.47" y1="139.45" x2="151.87" y2="139.45" gradientUnits="userSpaceOnUse"><stop offset="0" stop-color="#3c5494"/><stop offset="1" stop-color="#2b3f7e"/></linearGradient><linearGradient id="linear-gradient-4" x1="278.43" y1="215.85" x2="332.05" y2="215.85" xlink:href="#linear-gradient-3"/><linearGradient id="linear-gradient-5" x1="99.58" y1="209.32" x2="344.68" y2="208.64" xlink:href="#linear-gradient"/><linearGradient id="linear-gradient-6" x1="336.22" y1="209.48" x2="117.92" y2="209.48" xlink:href="#linear-gradient"/><linearGradient id="linear-gradient-7" x1="120.47" y1="170.45" x2="151.87" y2="170.45" xlink:href="#linear-gradient-3"/><linearGradient id="linear-gradient-8" x1="278.43" y1="246.85" x2="332.05" y2="246.85" xlink:href="#linear-gradient-3"/><linearGradient id="linear-gradient-9" x1="99.58" y1="239.32" x2="344.68" y2="238.64" xlink:href="#linear-gradient"/><linearGradient id="linear-gradient-10" x1="336.22" y1="239.48" x2="117.92" y2="239.48" xlink:href="#linear-gradient"/><linearGradient id="linear-gradient-11" x1="120.47" y1="200.45" x2="151.87" y2="200.45" xlink:href="#linear-gradient-3"/><linearGradient id="linear-gradient-12" x1="278.43" y1="276.85" x2="332.05" y2="276.85" xlink:href="#linear-gradient-3"/><linearGradient id="linear-gradient-13" x1="203.9" y1="213.74" x2="247.84" y2="263.11" gradientUnits="userSpaceOnUse"><stop offset="0" stop-color="#ffcf0d"/><stop offset="1" stop-color="#ffa415"/></linearGradient><linearGradient id="linear-gradient-14" x1="245.6" y1="264.9" x2="212.82" y2="219.88" xlink:href="#linear-gradient-13"/><linearGradient id="linear-gradient-15" x1="164.75" y1="262.8" x2="240.95" y2="262.8" gradientUnits="userSpaceOnUse"><stop offset="0" stop-color="#1d1d1b"/><stop offset="0.99" stop-color="#2b3f7e" stop-opacity="0"/></linearGradient><linearGradient id="linear-gradient-16" x1="41.07" y1="230.89" x2="170.51" y2="230.89" xlink:href="#linear-gradient-13"/><linearGradient id="linear-gradient-17" x1="167.48" y1="261.24" x2="57.7" y2="261.75" xlink:href="#linear-gradient-13"/><linearGradient id="linear-gradient-18" x1="41.07" y1="292.17" x2="170.51" y2="292.17" xlink:href="#linear-gradient-13"/><linearGradient id="linear-gradient-19" x1="216.73" y1="252.32" x2="270.72" y2="252.32" xlink:href="#linear-gradient-15"/><linearGradient id="linear-gradient-20" x1="212.53" y1="242.14" x2="242.84" y2="242.14" gradientUnits="userSpaceOnUse"><stop offset="0.25" stop-color="#3c5494"/><stop offset="1" stop-color="#2b3f7e"/></linearGradient></defs><g id="Layer_20" data-name="Layer 20"><path class="cls-1" d="M358.93,120.68V235.26a11.23,11.23,0,0,1-11.23,11.23H104.89a11.23,11.23,0,0,1-11.23-11.23V120.68a11.23,11.23,0,0,1,11.23-11.23H347.7A11.23,11.23,0,0,1,358.93,120.68Z"/><rect class="cls-2" x="110.77" y="125.79" width="232.09" height="105.38" rx="11.23"/><rect class="cls-3" x="120.47" y="132.94" width="31.4" height="13.02" rx="2.68"/><rect class="cls-4" x="278.43" y="209.34" width="53.62" height="13.02" rx="2.68"/><path class="cls-5" d="M358.93,151.68V266.26a11.23,11.23,0,0,1-11.23,11.23H104.89a11.23,11.23,0,0,1-11.23-11.23V151.68a11.23,11.23,0,0,1,11.23-11.23H347.7A11.23,11.23,0,0,1,358.93,151.68Z"/><rect class="cls-6" x="110.77" y="156.79" width="232.09" height="105.38" rx="11.23"/><rect class="cls-7" x="120.47" y="163.94" width="31.4" height="13.02" rx="2.68"/><rect class="cls-8" x="278.43" y="240.34" width="53.62" height="13.02" rx="2.68"/><path class="cls-9" d="M358.93,181.68V296.26a11.23,11.23,0,0,1-11.23,11.23H104.89a11.23,11.23,0,0,1-11.23-11.23V181.68a11.23,11.23,0,0,1,11.23-11.23H347.7A11.23,11.23,0,0,1,358.93,181.68Z"/><rect class="cls-10" x="110.77" y="186.79" width="232.09" height="105.38" rx="11.23"/><rect class="cls-11" x="120.47" y="193.94" width="31.4" height="13.02" rx="2.68"/><rect class="cls-12" x="278.43" y="270.34" width="53.62" height="13.02" rx="2.68"/><path class="cls-13" d="M275.7,241.26a47.34,47.34,0,0,1-2,13.65,47.92,47.92,0,0,1-2.33,6.16c-.21.45-.43.91-.65,1.35a47.77,47.77,0,0,1-16.94,18.77,46.71,46.71,0,0,1-4.13,2.35l-1.37.65a47.32,47.32,0,1,1,27.42-42.93Z"/><circle class="cls-14" cx="228.39" cy="241.26" r="38.25"/><path class="cls-15" d="M241,287.06a82.65,82.65,0,0,1-16.7,20.43H166.14l-1.39-.68q1.73-44.35,3.46-88.7Z"/><rect class="cls-16" x="41.07" y="215.57" width="129.45" height="30.64" rx="7.91"/><rect class="cls-17" x="41.07" y="246.21" width="129.45" height="30.64" rx="7.91"/><rect class="cls-18" x="41.07" y="276.85" width="129.45" height="30.64" rx="7.91"/><path class="cls-19" d="M270.72,262.42a47.77,47.77,0,0,1-16.94,18.77,46.71,46.71,0,0,1-4.13,2.35l-21.82-18.37c-.21-2.34-.43-4.68-.64-7l.66-3.48-1.16-1.16V243l-.72-.26a22.86,22.86,0,0,1-4.21-1.92,10.37,10.37,0,0,1-3.95-3.94,9.79,9.79,0,0,1-1.08-4.57l8.52-8.51,2.71-2.71v2.73c.34,0,.67.07,1,.13a13.41,13.41,0,0,1,5.31,2l3.11,3.11,0,0Z"/><path class="cls-20" d="M241.68,246a10.76,10.76,0,0,0-3-3.42,17,17,0,0,0-4.17-2.2c-1.43-.53-2.89-1-4.36-1.43V226.74a15.69,15.69,0,0,1,3.32.95,12.7,12.7,0,0,1,3.45,2.17,2.43,2.43,0,0,0,1.7.64,2.38,2.38,0,0,0,1.08-.25,3.4,3.4,0,0,0,.85-.61,2.65,2.65,0,0,0,.59-.91,2.88,2.88,0,0,0,.21-1.08,2.42,2.42,0,0,0-.91-2,15.9,15.9,0,0,0-2.33-1.72,17.76,17.76,0,0,0-2.55-1.26,17.51,17.51,0,0,0-2.75-.82c-.85-.18-1.74-.33-2.66-.45v-3.84A2.13,2.13,0,0,0,228,215.4a2.33,2.33,0,0,0-1.65.62,2,2,0,0,0-.66,1.51v3.77a17.53,17.53,0,0,0-4.74,1,13.49,13.49,0,0,0-4.08,2.38,10.88,10.88,0,0,0-2.67,3.51,10.24,10.24,0,0,0-1,4.45,9.48,9.48,0,0,0,1.13,4.81,9.78,9.78,0,0,0,3,3.21,16.65,16.65,0,0,0,4.11,2.06c1.4.48,2.83.92,4.25,1.3v13.87a15.11,15.11,0,0,1-4.7-1.41,19.53,19.53,0,0,1-4.11-2.71,2.66,2.66,0,0,0-1.69-.63,2.39,2.39,0,0,0-2,1,3.12,3.12,0,0,0-.71,1.94,3.24,3.24,0,0,0,.2,1.1,2.59,2.59,0,0,0,.71,1,21.53,21.53,0,0,0,2.53,1.92,18.48,18.48,0,0,0,3,1.53,20.62,20.62,0,0,0,3.39,1,24,24,0,0,0,3.37.49v3.58a2,2,0,0,0,.66,1.52,2.33,2.33,0,0,0,1.65.62,2.05,2.05,0,0,0,1.51-.63,2.08,2.08,0,0,0,.62-1.51v-3.58a16.8,16.8,0,0,0,5.64-1.36,12.91,12.91,0,0,0,4.05-2.81,10.5,10.5,0,0,0,2.3-3.73,12.66,12.66,0,0,0,.71-4.15A10.34,10.34,0,0,0,241.68,246Zm-4.78,5.52a6.06,6.06,0,0,1-.37,2.06,5.78,5.78,0,0,1-1.18,1.93,7,7,0,0,1-2.18,1.56,10.22,10.22,0,0,1-3,.83v-12.6c.84.27,1.64.56,2.39.87a10,10,0,0,1,2.31,1.3,5.54,5.54,0,0,1,1.51,1.73A4.79,4.79,0,0,1,236.9,251.54Zm-11.2-25v11.26a24.37,24.37,0,0,1-2.33-.8,12.87,12.87,0,0,1-2.23-1.16,4.68,4.68,0,0,1-1.44-1.47,3.72,3.72,0,0,1-.51-2,5,5,0,0,1,1.89-4.06A8.52,8.52,0,0,1,225.7,226.53Z"/></g></svg>