<svg xmlns="http://www.w3.org/2000/svg" xmlns:xlink="http://www.w3.org/1999/xlink" viewBox="0 0 400 400"><defs><style>.cls-1{fill:url(#linear-gradient);}.cls-2{fill:url(#linear-gradient-2);}.cls-3{fill:url(#linear-gradient-3);}.cls-4{fill:url(#linear-gradient-4);}.cls-5{fill:url(#linear-gradient-5);}.cls-6{fill:url(#linear-gradient-6);}.cls-7{fill:url(#linear-gradient-7);}.cls-8{fill:url(#linear-gradient-8);}.cls-9{fill:url(#linear-gradient-9);}.cls-10{fill:url(#linear-gradient-10);}</style><linearGradient id="linear-gradient" x1="203.03" y1="199.66" x2="81.5" y2="100.6" gradientUnits="userSpaceOnUse"><stop offset="0" stop-color="#00e7b2"/><stop offset="1" stop-color="#16dbab"/></linearGradient><linearGradient id="linear-gradient-2" x1="231.08" y1="139.49" x2="264.83" y2="199.73" gradientUnits="userSpaceOnUse"><stop offset="0" stop-color="#ffcf0d"/><stop offset="1" stop-color="#ffa415"/></linearGradient><linearGradient id="linear-gradient-3" x1="199.74" y1="223.81" x2="238.51" y2="293.02" gradientUnits="userSpaceOnUse"><stop offset="0" stop-color="#3c5494"/><stop offset="1" stop-color="#2b3f7e"/></linearGradient><linearGradient id="linear-gradient-4" x1="-5242.33" y1="1003.58" x2="-5291.18" y2="963.76" gradientTransform="matrix(-0.95, -0.32, 0.35, -1.06, -5133.93, -524.46)" gradientUnits="userSpaceOnUse"><stop offset="0" stop-color="#ff4974"/><stop offset="1" stop-color="#ee1950"/></linearGradient><linearGradient id="linear-gradient-5" x1="220.39" y1="196.11" x2="306.82" y2="350.38" gradientUnits="userSpaceOnUse"><stop offset="0.45" stop-color="#fffcf8"/><stop offset="1" stop-color="#bac8e1"/></linearGradient><linearGradient id="linear-gradient-6" x1="308.73" y1="293.89" x2="332.25" y2="335.89" xlink:href="#linear-gradient-5"/><linearGradient id="linear-gradient-7" x1="263.89" y1="355.04" x2="216.43" y2="316.35" gradientTransform="matrix(1, 0, 0, 1, 0, 0)" xlink:href="#linear-gradient-4"/><linearGradient id="linear-gradient-8" x1="263.89" y1="324.72" x2="216.43" y2="286.03" gradientTransform="matrix(1, 0, 0, 1, 0, 0)" xlink:href="#linear-gradient-4"/><linearGradient id="linear-gradient-9" x1="300.92" y1="305.15" x2="225.66" y2="243.81" gradientTransform="matrix(1, 0, 0, 1, 0, 0)" xlink:href="#linear-gradient-4"/><linearGradient id="linear-gradient-10" x1="300.92" y1="276.17" x2="225.66" y2="214.83" gradientTransform="matrix(1, 0, 0, 1, 0, 0)" xlink:href="#linear-gradient-4"/></defs><g id="Layer_16" data-name="Layer 16"><path class="cls-1" d="M312.27,178.55v.4A134.68,134.68,0,0,1,97.27,287l0,0a134.67,134.67,0,1,1,215-108.46Z"/><path class="cls-2" d="M174.37,178.94l137.9-.4a134.91,134.91,0,0,0-10-50.68A136.35,136.35,0,0,0,259.59,72.1Z"/><path class="cls-3" d="M312.27,178.55v.4A134.68,134.68,0,0,1,97.27,287l0,0L174.38,179Z"/><path class="cls-4" d="M174.37,178.94,259.59,72.1a134.22,134.22,0,0,0-90.36-27.57Q171.8,111.75,174.37,178.94Z"/><path class="cls-5" d="M357.05,220.8v75.58a6.64,6.64,0,0,1-2,4.79l-54.89,52.71a6.62,6.62,0,0,1-4.6,1.86H189.91a6.64,6.64,0,0,1-6.64-6.64V220.8a6.64,6.64,0,0,1,6.64-6.64h160.5A6.64,6.64,0,0,1,357.05,220.8Z"/><path class="cls-6" d="M355,301.17l-54.89,52.71.15-53.68a2.86,2.86,0,0,1,3-2.75Z"/><path class="cls-7" d="M274.5,339.69H205.82a4,4,0,0,1,0-8H274.5a4,4,0,0,1,0,8Z"/><path class="cls-8" d="M274.5,309.37H205.82a4,4,0,0,1,0-8H274.5a4,4,0,0,1,0,8Z"/><path class="cls-9" d="M320.76,278.48H205.82a4,4,0,0,1,0-8H320.76a4,4,0,0,1,0,8Z"/><path class="cls-10" d="M320.76,249.5H205.82a4,4,0,0,1,0-8H320.76a4,4,0,0,1,0,8Z"/></g></svg>