<svg xmlns="http://www.w3.org/2000/svg" xmlns:xlink="http://www.w3.org/1999/xlink" viewBox="0 0 400 400"><defs><style>.cls-1{fill:url(#linear-gradient);}.cls-2{opacity:0.1;fill:url(#linear-gradient-2);}.cls-3{fill:url(#linear-gradient-3);}.cls-4{fill:url(#linear-gradient-4);}.cls-5{fill:url(#linear-gradient-5);}.cls-6{fill:url(#linear-gradient-6);}.cls-7{fill:url(#linear-gradient-7);}.cls-8{fill:url(#linear-gradient-8);}.cls-9{fill:url(#linear-gradient-9);}.cls-10{fill:url(#linear-gradient-10);}</style><linearGradient id="linear-gradient" x1="182.77" y1="72.69" x2="279.95" y2="235.12" gradientUnits="userSpaceOnUse"><stop offset="0.45" stop-color="#fffcf8"/><stop offset="1" stop-color="#bac8e1"/></linearGradient><linearGradient id="linear-gradient-2" x1="198.1" y1="98.95" x2="275.63" y2="237.33" gradientUnits="userSpaceOnUse"><stop offset="0" stop-color="#1d1d1b"/><stop offset="0.99" stop-color="#2b3f7e" stop-opacity="0"/></linearGradient><linearGradient id="linear-gradient-3" x1="185.91" y1="183.67" x2="268.62" y2="331.3" xlink:href="#linear-gradient"/><linearGradient id="linear-gradient-4" x1="279.31" y1="274.67" x2="300.74" y2="312.91" xlink:href="#linear-gradient"/><linearGradient id="linear-gradient-5" x1="172.54" y1="71.47" x2="182.65" y2="71.47" gradientUnits="userSpaceOnUse"><stop offset="0" stop-color="#3c5494"/><stop offset="1" stop-color="#2b3f7e"/></linearGradient><linearGradient id="linear-gradient-6" x1="154.12" y1="151.81" x2="199.1" y2="230.86" xlink:href="#linear-gradient-5"/><linearGradient id="linear-gradient-7" x1="70.19" y1="120.85" x2="281.77" y2="120.85" gradientUnits="userSpaceOnUse"><stop offset="0" stop-color="#ff4974"/><stop offset="1" stop-color="#ee1950"/></linearGradient><linearGradient id="linear-gradient-8" x1="119.03" y1="120.85" x2="177.56" y2="120.85" gradientUnits="userSpaceOnUse"><stop offset="0" stop-color="#ffcf0d"/><stop offset="1" stop-color="#ffa415"/></linearGradient><linearGradient id="linear-gradient-9" x1="210.47" y1="120.36" x2="248.79" y2="130.88" xlink:href="#linear-gradient-8"/><linearGradient id="linear-gradient-10" x1="155.81" y1="225.61" x2="176.38" y2="261.77" xlink:href="#linear-gradient-8"/></defs><g id="Layer_16" data-name="Layer 16"><path class="cls-1" d="M329.81,93V227.33H139.11V93a7.83,7.83,0,0,1,7.83-7.83H322A7.84,7.84,0,0,1,329.81,93Z"/><polygon class="cls-2" points="329.81 172.4 329.81 206.98 190.79 206.98 139.11 155.3 139.11 132 230.97 87.25 329.81 172.4"/><path class="cls-3" d="M329.81,213v67.52a5.45,5.45,0,0,1-2.24,4.28l-.34.26-58.52,45.78-1.37,1.07a8.33,8.33,0,0,1-5,1.65H146.4c-4,0-7.29-2.66-7.29-5.93V213c0-3.29,3.26-5.94,7.29-5.94H322.52C326.54,207.08,329.81,209.73,329.81,213Z"/><path class="cls-4" d="M327.23,285.08l-58.52,45.78L273.93,279a2.87,2.87,0,0,1,3.22-2.46Q302.18,280.82,327.23,285.08Z"/><circle class="cls-5" cx="177.59" cy="71.47" r="5.05"/><path class="cls-6" d="M176.61,243.06a4,4,0,0,1-4-4V143.62a4,4,0,0,1,8,0v95.44A4,4,0,0,1,176.61,243.06Z"/><path class="cls-7" d="M172.72,71.28A111.07,111.07,0,0,0,111.45,93.6c-31.81,24.29-39.53,58.13-41.26,67A41.45,41.45,0,0,1,119,170.44c1.49-1.68,12.72-13.94,30.74-13.26,16.3.61,26.12,11.37,27.79,13.26,1-1.24,12-14.65,29.89-13.47,15.16,1,23.89,11.72,25.27,13.47a44,44,0,0,1,27-12.84,43,43,0,0,1,22.1,4c-1.51-10.19-6.68-35.3-27.49-57.32-28.45-30.11-65.77-32.9-78.3-33C174.56,71.24,173.45,71.26,172.72,71.28Z"/><path class="cls-8" d="M176,71.26a43.16,43.16,0,0,0-9,2c-40.39,14-47,85.66-47.91,97.13,1.49-1.68,12.72-13.94,30.74-13.26,16.3.61,26.12,11.37,27.79,13.26Z"/><path class="cls-9" d="M232.72,170.44a185.08,185.08,0,0,0-9.65-48.57c-5.19-15-9.73-27.8-22-38.8A66,66,0,0,0,182.9,71.59c7.8.3,42.84,2.49,70.66,31.13,22.37,23,27,49.71,28.21,58.88a42.71,42.71,0,0,0-49,8.84Z"/><path class="cls-10" d="M163,266.87a15.69,15.69,0,0,1-2-.14c-7.89-1-14.19-7.86-15-16.22,0-.12,0-.25,0-.37V233.55a4,4,0,0,1,8,0v16.39c.51,4.6,3.86,8.31,8,8.86a9,9,0,0,0,6.69-2,10.45,10.45,0,0,0,3.94-6.94V224.71a4,4,0,0,1,8,0v25.43c0,.15,0,.3,0,.44a18.44,18.44,0,0,1-7,12.55A17.4,17.4,0,0,1,163,266.87Z"/></g></svg>