<svg xmlns="http://www.w3.org/2000/svg" xmlns:xlink="http://www.w3.org/1999/xlink" viewBox="0 0 400 400"><defs><style>.cls-1{fill:url(#linear-gradient);}.cls-2{fill:url(#linear-gradient-2);}.cls-3{fill:url(#linear-gradient-3);}.cls-4{fill:url(#linear-gradient-4);}</style><linearGradient id="linear-gradient" x1="207.46" y1="319.97" x2="207.46" y2="241.45" gradientUnits="userSpaceOnUse"><stop offset="0.25" stop-color="#3c5494"/><stop offset="1" stop-color="#2b3f7e"/></linearGradient><linearGradient id="linear-gradient-2" x1="70.65" y1="165.85" x2="344.27" y2="165.85" xlink:href="#linear-gradient"/><linearGradient id="linear-gradient-3" x1="119.22" y1="250.09" x2="218.93" y2="250.09" gradientUnits="userSpaceOnUse"><stop offset="0" stop-color="#ffcf0d"/><stop offset="1" stop-color="#ffa415"/></linearGradient><linearGradient id="linear-gradient-4" x1="100.86" y1="285.95" x2="153.75" y2="285.95" xlink:href="#linear-gradient-3"/></defs><g id="Layer_20" data-name="Layer 20"><path class="cls-1" d="M100.59,256.06a17.92,17.92,0,0,0,9.4,15.79,205,205,0,0,0,194.91,0,18,18,0,0,0,9.43-15.81V191.19a18,18,0,0,0-18-18H118.54a18,18,0,0,0-18,18Z"/><path class="cls-2" d="M335.93,179.51,216.79,232.79a33.37,33.37,0,0,1-28.27-.47l-110-53.7a14.08,14.08,0,0,1,0-25.32l111.34-54a33.42,33.42,0,0,1,28.66-.21L336.13,153.9A14.07,14.07,0,0,1,335.93,179.51Z"/><path class="cls-3" d="M127.24,344.51a8,8,0,0,1-8-8v-132a8,8,0,0,1,4.51-7.2l83.67-40.78a8,8,0,0,1,7,14.41l-79.18,38.59v127A8,8,0,0,1,127.24,344.51Z"/><circle class="cls-4" cx="127.31" cy="285.95" r="26.45"/></g></svg>