<svg xmlns="http://www.w3.org/2000/svg" xmlns:xlink="http://www.w3.org/1999/xlink" viewBox="0 0 400 400"><defs><style>.cls-1{fill:url(#linear-gradient);}.cls-2{fill:url(#linear-gradient-2);}.cls-3{fill:url(#linear-gradient-3);}.cls-4{fill:url(#linear-gradient-4);}.cls-5{fill:url(#linear-gradient-5);}.cls-6{fill:url(#linear-gradient-6);}.cls-7{fill:url(#linear-gradient-7);}.cls-8{fill:url(#linear-gradient-8);}.cls-9{fill:url(#linear-gradient-9);}.cls-10{fill:url(#linear-gradient-10);}.cls-11{fill:url(#linear-gradient-11);}.cls-12{fill:url(#linear-gradient-12);}.cls-13{fill:url(#linear-gradient-13);}.cls-14{fill:url(#linear-gradient-14);}.cls-15{fill:url(#linear-gradient-15);}.cls-16{fill:url(#linear-gradient-16);}.cls-17{fill:url(#linear-gradient-17);}.cls-18{opacity:0.1;fill:url(#linear-gradient-18);}.cls-19{fill:url(#linear-gradient-19);}</style><linearGradient id="linear-gradient" x1="267.46" y1="286.68" x2="348.79" y2="286.68" gradientUnits="userSpaceOnUse"><stop offset="0.25" stop-color="#3c5494"/><stop offset="1" stop-color="#2b3f7e"/></linearGradient><linearGradient id="linear-gradient-2" x1="261.16" y1="237.34" x2="353.08" y2="237.34" gradientUnits="userSpaceOnUse"><stop offset="0" stop-color="#ff4974"/><stop offset="1" stop-color="#ee1950"/></linearGradient><linearGradient id="linear-gradient-3" x1="84.64" y1="216.23" x2="277.08" y2="216.23" xlink:href="#linear-gradient"/><linearGradient id="linear-gradient-4" x1="84.63" y1="314.57" x2="277.07" y2="314.57" xlink:href="#linear-gradient-2"/><linearGradient id="linear-gradient-5" x1="64.08" y1="148.19" x2="296.57" y2="148.19" xlink:href="#linear-gradient-2"/><linearGradient id="linear-gradient-6" x1="216.71" y1="248.46" x2="263.36" y2="248.46" gradientUnits="userSpaceOnUse"><stop offset="0.46" stop-color="#fffcf8"/><stop offset="1" stop-color="#bac8e1"/></linearGradient><linearGradient id="linear-gradient-7" x1="226.64" y1="248.38" x2="254.06" y2="248.38" gradientUnits="userSpaceOnUse"><stop offset="0" stop-color="#ffcf0d"/><stop offset="1" stop-color="#ffa415"/></linearGradient><linearGradient id="linear-gradient-8" x1="96.85" y1="248.46" x2="143.5" y2="248.46" xlink:href="#linear-gradient-6"/><linearGradient id="linear-gradient-9" x1="106.78" y1="248.38" x2="134.2" y2="248.38" xlink:href="#linear-gradient-7"/><linearGradient id="linear-gradient-10" x1="155.4" y1="255.95" x2="205.07" y2="255.95" xlink:href="#linear-gradient-6"/><linearGradient id="linear-gradient-11" x1="164.7" y1="260.67" x2="195.43" y2="260.67" xlink:href="#linear-gradient-7"/><linearGradient id="linear-gradient-12" x1="168.4" y1="253.89" x2="178.33" y2="253.89" xlink:href="#linear-gradient-2"/><linearGradient id="linear-gradient-13" x1="292.07" y1="304.55" x2="358.88" y2="304.55" gradientUnits="userSpaceOnUse"><stop offset="0" stop-color="#00e7b2"/><stop offset="1" stop-color="#16dbab"/></linearGradient><linearGradient id="linear-gradient-14" x1="61.84" y1="308.85" x2="118.04" y2="308.85" xlink:href="#linear-gradient-13"/><linearGradient id="linear-gradient-15" x1="94.32" y1="313.36" x2="135.54" y2="313.36" xlink:href="#linear-gradient-13"/><linearGradient id="linear-gradient-16" x1="146.89" y1="92.97" x2="207.84" y2="161.47" xlink:href="#linear-gradient-7"/><linearGradient id="linear-gradient-17" x1="204.74" y1="163.95" x2="159.26" y2="101.49" xlink:href="#linear-gradient-7"/><linearGradient id="linear-gradient-18" x1="164.69" y1="146.5" x2="239.59" y2="146.5" gradientUnits="userSpaceOnUse"><stop offset="0" stop-color="#1d1d1b"/><stop offset="0.99" stop-color="#2b3f7e" stop-opacity="0"/></linearGradient><linearGradient id="linear-gradient-19" x1="161.55" y1="133.67" x2="200.17" y2="133.67" xlink:href="#linear-gradient"/></defs><g id="Layer_20" data-name="Layer 20"><rect class="cls-1" x="267.46" y="246.01" width="81.33" height="81.33"/><path class="cls-2" d="M348.89,253.89H265.34a4.18,4.18,0,0,1-4.18-4.18V225a4.19,4.19,0,0,1,4.18-4.19h76.37a4.18,4.18,0,0,1,4,3q3.6,12.36,7.19,24.73A4.19,4.19,0,0,1,348.89,253.89Z"/><polygon class="cls-3" points="277.08 180.66 277.08 327.34 84.64 327.34 84.64 179.56 159.07 105.11 201.52 105.11 277.08 180.66"/><rect class="cls-4" x="84.63" y="301.81" width="192.44" height="25.53"/><path class="cls-5" d="M294.81,198.39l-17.73-17.73-75.56-75.55L180.38,84l0,0-.08-.08-21.19,21.18L84.64,179.56l-18.8,18.8a6,6,0,0,0,0,8.51l3.78,3.78a6,6,0,0,0,8.52,0l6.5-6.5,95.67-95.67,96.77,96.77,5.43,5.44a6,6,0,0,0,8.51,0l3.79-3.79A6,6,0,0,0,294.81,198.39Z"/><rect class="cls-6" x="216.71" y="219.22" width="46.65" height="58.47" rx="9.87"/><rect class="cls-7" x="226.64" y="229.78" width="27.42" height="37.2"/><rect class="cls-8" x="96.85" y="219.22" width="46.65" height="58.47" rx="9.87"/><rect class="cls-9" x="106.78" y="229.78" width="27.42" height="37.2"/><path class="cls-10" d="M167,210.1H193.5a11.56,11.56,0,0,1,11.56,11.56v80.15a0,0,0,0,1,0,0H155.4a0,0,0,0,1,0,0V221.66A11.56,11.56,0,0,1,167,210.1Z"/><path class="cls-11" d="M171.76,220.16h16.61a7.06,7.06,0,0,1,7.06,7.06v73.95a0,0,0,0,1,0,0H164.7a0,0,0,0,1,0,0V227.23A7.06,7.06,0,0,1,171.76,220.16Z"/><circle class="cls-12" cx="173.37" cy="253.89" r="4.96"/><path class="cls-13" d="M358.88,315.16a33.55,33.55,0,0,1-2.29,12.18H294.36a33.41,33.41,0,1,1,64.52-12.18Z"/><path class="cls-14" d="M118,318.47a28,28,0,0,1-1.43,8.87H63.27A28.1,28.1,0,1,1,118,318.47Z"/><path class="cls-15" d="M135.54,320a20.63,20.63,0,0,1-1.35,7.35H95.67A20.61,20.61,0,1,1,135.54,320Z"/><path class="cls-16" d="M246.5,131.15a65.81,65.81,0,0,1-6,27.49c-.29.62-.59,1.26-.9,1.87a66.38,66.38,0,0,1-23.5,26c-1.86,1.18-3.76,2.27-5.73,3.26-.63.3-1.26.61-1.9.9a65.65,65.65,0,1,1,38-59.56Z"/><circle class="cls-17" cx="180.86" cy="131.15" r="53.06"/><path class="cls-18" d="M239.59,160.51a66.38,66.38,0,0,1-23.5,26c-1.86,1.18-3.76,2.27-5.73,3.26l-30.27-25.49c-.29-3.24-.6-6.49-.89-9.74.3-1.6.61-3.21.91-4.82l-1.6-1.61V133.59l-1-.36a31.06,31.06,0,0,1-5.84-2.66,14.24,14.24,0,0,1-5.48-5.47,13.43,13.43,0,0,1-1.5-6.34L176.51,107l3.76-3.76V107c.47,0,.93.1,1.38.18a18.61,18.61,0,0,1,7.37,2.78l4.32,4.31s0,0,0,0Z"/><path class="cls-19" d="M198.69,138.61a13.64,13.64,0,0,0-3.84-4.36,21.62,21.62,0,0,0-5.31-2.81c-1.81-.67-3.68-1.28-5.55-1.82V114a20.22,20.22,0,0,1,4.23,1.21,16,16,0,0,1,4.39,2.77,3.18,3.18,0,0,0,2.17.81,2.91,2.91,0,0,0,1.37-.32,4,4,0,0,0,1.09-.78,3.3,3.3,0,0,0,.76-1.16,3.79,3.79,0,0,0,.26-1.37,3.11,3.11,0,0,0-1.16-2.59,19.42,19.42,0,0,0-3-2.19,22.66,22.66,0,0,0-3.24-1.6,22.4,22.4,0,0,0-3.52-1c-1.07-.23-2.21-.42-3.38-.57v-4.89a2.71,2.71,0,0,0-2.71-2.72,2.92,2.92,0,0,0-2.1.79,2.58,2.58,0,0,0-.85,1.93v4.8a22.08,22.08,0,0,0-6,1.33,16.55,16.55,0,0,0-5.19,3,13.66,13.66,0,0,0-3.41,4.47,13.15,13.15,0,0,0-1.23,5.67,12.17,12.17,0,0,0,1.44,6.13,12.64,12.64,0,0,0,3.78,4.09,21.51,21.51,0,0,0,5.23,2.62c1.79.62,3.62,1.18,5.42,1.67v17.66a18.58,18.58,0,0,1-6-1.79,25.38,25.38,0,0,1-5.25-3.45,3.34,3.34,0,0,0-2.15-.8,3.05,3.05,0,0,0-2.5,1.22,4,4,0,0,0-.9,2.49,3.8,3.8,0,0,0,.26,1.39,3,3,0,0,0,.9,1.27,25,25,0,0,0,3.22,2.45,22.55,22.55,0,0,0,3.79,1.95,26.58,26.58,0,0,0,4.32,1.33,30.55,30.55,0,0,0,4.29.62V165a2.58,2.58,0,0,0,.85,1.93,3,3,0,0,0,2.1.78A2.7,2.7,0,0,0,184,165v-4.57a21.63,21.63,0,0,0,7.19-1.73,16.56,16.56,0,0,0,5.15-3.58,13.37,13.37,0,0,0,2.94-4.76,16.05,16.05,0,0,0,.9-5.28A13.21,13.21,0,0,0,198.69,138.61Zm-6.09,7a8,8,0,0,1-.47,2.62,7.16,7.16,0,0,1-1.5,2.46,8.81,8.81,0,0,1-2.78,2,13,13,0,0,1-3.86,1.07V137.71c1.07.35,2.09.72,3,1.12a12.71,12.71,0,0,1,2.94,1.65,7.1,7.1,0,0,1,1.92,2.21A6,6,0,0,1,192.6,145.65Zm-14.27-31.88v14.35a30.32,30.32,0,0,1-3-1,16.34,16.34,0,0,1-2.84-1.48,6.06,6.06,0,0,1-1.84-1.87,4.75,4.75,0,0,1-.65-2.52,6.35,6.35,0,0,1,2.41-5.18A10.93,10.93,0,0,1,178.33,113.77Z"/></g></svg>