<svg xmlns="http://www.w3.org/2000/svg" xmlns:xlink="http://www.w3.org/1999/xlink" viewBox="0 0 400 400"><defs><style>.cls-1{fill:url(#linear-gradient);}.cls-2{fill:url(#linear-gradient-2);}.cls-3{fill:url(#linear-gradient-3);}.cls-4{fill:url(#linear-gradient-4);}.cls-5{fill:url(#linear-gradient-5);}.cls-6{fill:url(#linear-gradient-6);}.cls-7{fill:url(#linear-gradient-7);}.cls-8{fill:url(#linear-gradient-8);}.cls-9{fill:url(#linear-gradient-9);}.cls-10{fill:url(#linear-gradient-10);}</style><linearGradient id="linear-gradient" x1="166.71" y1="272.35" x2="167.02" y2="300.46" gradientUnits="userSpaceOnUse"><stop offset="0.25" stop-color="#3c5494"/><stop offset="1" stop-color="#2b3f7e"/></linearGradient><linearGradient id="linear-gradient-2" x1="99.25" y1="306.91" x2="233.31" y2="306.91" xlink:href="#linear-gradient"/><linearGradient id="linear-gradient-3" x1="204.81" y1="204.49" x2="334.07" y2="204.49" gradientTransform="translate(223.51 -130.63) rotate(45)" gradientUnits="userSpaceOnUse"><stop offset="0" stop-color="#ff4974"/><stop offset="1" stop-color="#ee1950"/></linearGradient><linearGradient id="linear-gradient-4" x1="205.34" y1="106.68" x2="274.1" y2="106.68" gradientTransform="translate(-5.22 200.76) rotate(-45)" gradientUnits="userSpaceOnUse"><stop offset="0.15" stop-color="#fffcf8"/><stop offset="0.9" stop-color="#bac8e1"/></linearGradient><linearGradient id="linear-gradient-5" x1="135.4" y1="176.62" x2="204.17" y2="176.62" gradientTransform="translate(-75.16 171.79) rotate(-45)" xlink:href="#linear-gradient-4"/><linearGradient id="linear-gradient-6" x1="98.22" y1="270.51" x2="234.96" y2="270.51" xlink:href="#linear-gradient"/><linearGradient id="linear-gradient-7" x1="150.75" y1="140.87" x2="259.5" y2="140.87" gradientTransform="translate(-39.53 186.31) rotate(-45)" gradientUnits="userSpaceOnUse"><stop offset="0" stop-color="#ffcf0d"/><stop offset="1" stop-color="#ffa415"/></linearGradient><linearGradient id="linear-gradient-8" x1="218.21" y1="91.16" x2="291.48" y2="91.16" gradientTransform="translate(13.29 208.19) rotate(-45)" xlink:href="#linear-gradient-7"/><linearGradient id="linear-gradient-9" x1="119.04" y1="189.89" x2="192.31" y2="189.89" gradientTransform="translate(396.92 221.57) rotate(135)" xlink:href="#linear-gradient-7"/><linearGradient id="linear-gradient-10" x1="287.42" y1="258.04" x2="358.53" y2="258.04" gradientTransform="translate(277.06 -152.8) rotate(45)" xlink:href="#linear-gradient-3"/></defs><g id="Layer_20" data-name="Layer 20"><rect class="cls-1" x="112.77" y="277" width="108.28" height="27.39"/><path class="cls-2" d="M111.44,294.76H221.12A12.19,12.19,0,0,1,233.31,307v5.72a6.38,6.38,0,0,1-6.38,6.38H105.63a6.38,6.38,0,0,1-6.38-6.38V307A12.19,12.19,0,0,1,111.44,294.76Z"/><rect class="cls-3" x="259.63" y="122.9" width="19.63" height="163.17" transform="translate(-65.68 250.42) rotate(-45)"/><rect class="cls-4" x="207.03" y="90.75" width="65.38" height="31.86" transform="translate(145.65 -138.26) rotate(45)"/><rect class="cls-5" x="137.09" y="160.69" width="65.38" height="31.86" transform="translate(174.62 -68.33) rotate(45)"/><rect class="cls-6" x="98.22" y="254.69" width="136.74" height="31.62" rx="15.81"/><rect class="cls-7" x="160.81" y="96.56" width="88.64" height="88.64" rx="20.04" transform="translate(159.69 -103.78) rotate(45)"/><path class="cls-8" d="M239.07,70h37.76a25.28,25.28,0,0,1,25.28,25.28v.57a10.29,10.29,0,0,1-10.29,10.29H224.08a10.29,10.29,0,0,1-10.29-10.29v-.57A25.28,25.28,0,0,1,239.07,70Z" transform="translate(137.81 -156.61) rotate(45)"/><path class="cls-9" d="M133.69,174.92h37.76a25.28,25.28,0,0,1,25.28,25.28v.57a10.29,10.29,0,0,1-10.29,10.29H118.7a10.29,10.29,0,0,1-10.29-10.29v-.57A25.28,25.28,0,0,1,133.69,174.92Z" transform="translate(123.99 437.34) rotate(-135)"/><rect class="cls-10" x="306.53" y="215.42" width="32.9" height="85.24" rx="14.98" transform="translate(-87.86 303.95) rotate(-45)"/></g></svg>