<svg xmlns="http://www.w3.org/2000/svg" xmlns:xlink="http://www.w3.org/1999/xlink" viewBox="0 0 400 400"><defs><style>.cls-1{fill:url(#linear-gradient);}.cls-2{fill:url(#linear-gradient-2);}.cls-3{fill:url(#linear-gradient-3);}.cls-4{fill:url(#linear-gradient-4);}.cls-5{fill:url(#linear-gradient-5);}.cls-6{fill:url(#linear-gradient-6);}.cls-7{fill:url(#linear-gradient-7);}.cls-8{fill:url(#linear-gradient-8);}.cls-9{fill:url(#linear-gradient-9);}.cls-10{fill:url(#linear-gradient-10);}</style><linearGradient id="linear-gradient" x1="68.64" y1="196.83" x2="353.74" y2="196.83" gradientUnits="userSpaceOnUse"><stop offset="0" stop-color="#ffcf0d"/><stop offset="1" stop-color="#ffa415"/></linearGradient><linearGradient id="linear-gradient-2" x1="79.42" y1="194.5" x2="335.94" y2="194.5" gradientUnits="userSpaceOnUse"><stop offset="0.15" stop-color="#fffcf8"/><stop offset="0.9" stop-color="#bac8e1"/></linearGradient><linearGradient id="linear-gradient-3" x1="79.42" y1="194.5" x2="138.47" y2="194.5" gradientUnits="userSpaceOnUse"><stop offset="0" stop-color="#ff4974"/><stop offset="1" stop-color="#ed174f"/></linearGradient><linearGradient id="linear-gradient-4" x1="67.54" y1="194.5" x2="84.19" y2="194.5" gradientUnits="userSpaceOnUse"><stop offset="0" stop-color="#3c5494"/><stop offset="1" stop-color="#2b3f7e"/></linearGradient><linearGradient id="linear-gradient-5" x1="164.15" y1="95.76" x2="251.21" y2="95.76" xlink:href="#linear-gradient-3"/><linearGradient id="linear-gradient-6" x1="197.15" y1="62.68" x2="218.21" y2="62.68" gradientTransform="translate(145 270.36) rotate(-90)" xlink:href="#linear-gradient-4"/><linearGradient id="linear-gradient-7" x1="276.9" y1="194.5" x2="335.95" y2="194.5" xlink:href="#linear-gradient-3"/><linearGradient id="linear-gradient-8" x1="331.17" y1="194.5" x2="347.82" y2="194.5" gradientTransform="translate(678.99 388.99) rotate(-180)" xlink:href="#linear-gradient-4"/><linearGradient id="linear-gradient-9" x1="164.15" y1="293.24" x2="251.21" y2="293.24" xlink:href="#linear-gradient-3"/><linearGradient id="linear-gradient-10" x1="197.15" y1="326.31" x2="218.21" y2="326.31" gradientTransform="translate(533.99 118.63) rotate(90)" xlink:href="#linear-gradient-4"/></defs><g id="Layer_16" data-name="Layer 16"><path class="cls-1" d="M152.48,337.29c-4.74,0-8.93-1.46-13.17-5.71-3.07-3.07-6.74-6.86-10.63-10.87-12.44-12.83-27.92-28.79-42.15-40.62-16.69-13.88-15.15-47.66-14-72.33.24-5.15.44-9.59.44-13.26,0-20.88-.53-32.33-3.78-49.18-3.84-19.85,14.54-33.63,26.71-42.75C110.58,91.53,136,74,149.21,65.79c16.21-10.09,34.29-12,58.57-6.1,27-4.67,55.62,5.32,89.87,31.39,7.68,5.85,14.89,10.9,21.26,15.36,22.33,15.64,37.08,26,34.55,45a54.44,54.44,0,0,1-6.13,19.86c-2.63,5.22-4.91,9.73-4.91,23.19,0,10.14.72,18.87,1.36,26.58,1.13,13.82,2.11,25.75-1.45,39.66-5.48,21.45-20.55,30.8-36.51,40.7-7.93,4.92-16.14,10-23.4,16.82-16.39,15.36-26.57,14.39-45.05,12.63a290.62,290.62,0,0,0-29.69-1.65c-18.72,0-31.39,3.16-40.64,5.48C161.44,336.11,156.73,337.29,152.48,337.29Zm30.29-275.1a55.54,55.54,0,0,0-30.47,8.57C139.21,78.91,114,96.3,99.38,107.26S72,129.2,74.91,144.21c3.35,17.32,3.89,29,3.89,50.29,0,3.8-.21,8.31-.45,13.53-1,22.11-2.52,55.54,11.93,67.55s30.07,28.12,42.61,41.05c3.87,4,7.52,7.77,10.56,10.81,5.71,5.7,10.86,4.41,22.17,1.59,9.54-2.38,22.62-5.65,42.06-5.65a299.19,299.19,0,0,1,30.24,1.67c18.41,1.75,26,2.48,40.49-11.07,7.69-7.21,16.14-12.45,24.32-17.52,15.57-9.67,29-18,33.93-37.17,3.31-13,2.41-23.89,1.27-37.73-.64-7.82-1.37-16.68-1.37-27.06,0-14.85,2.69-20.18,5.53-25.83a48.32,48.32,0,0,0,5.56-18c2.06-15.51-10.8-24.52-32.1-39.44-6.41-4.49-13.68-9.58-21.45-15.5C261,70.54,233.7,61,208.2,65.57l-.61.11-.61-.15A101.93,101.93,0,0,0,182.77,62.19Z"/><path class="cls-2" d="M207.68,66.23A128.27,128.27,0,1,0,335.94,194.5,128.26,128.26,0,0,0,207.68,66.23Zm0,201.83a73.57,73.57,0,1,1,73.57-73.56A73.56,73.56,0,0,1,207.68,268.06Z"/><path class="cls-3" d="M134.11,194.5a73.27,73.27,0,0,1,4.36-25L87,151A128.78,128.78,0,0,0,87,238l51.47-18.57A73.21,73.21,0,0,1,134.11,194.5Z"/><rect class="cls-4" x="67.54" y="183.97" width="16.65" height="21.06" rx="2.52"/><path class="cls-5" d="M207.68,120.93a73.5,73.5,0,0,1,25,4.35l18.56-51.46a128.62,128.62,0,0,0-87.06,0l18.56,51.46A73.55,73.55,0,0,1,207.68,120.93Z"/><rect class="cls-6" x="199.35" y="52.16" width="16.65" height="21.06" rx="2.52" transform="translate(270.36 -145) rotate(90)"/><path class="cls-7" d="M281.25,194.5a73.45,73.45,0,0,1-4.35,25L328.36,238a128.62,128.62,0,0,0,0-87.06L276.9,169.53A73.5,73.5,0,0,1,281.25,194.5Z"/><rect class="cls-8" x="331.17" y="183.97" width="16.65" height="21.06" rx="2.52" transform="translate(678.99 388.99) rotate(180)"/><path class="cls-9" d="M207.68,268.06a73.55,73.55,0,0,1-25-4.35l-18.56,51.47a128.78,128.78,0,0,0,87.06,0l-18.56-51.47A73.5,73.5,0,0,1,207.68,268.06Z"/><rect class="cls-10" x="199.35" y="315.78" width="16.65" height="21.06" rx="2.52" transform="translate(-118.63 533.99) rotate(-90)"/></g></svg>