<svg xmlns="http://www.w3.org/2000/svg" xmlns:xlink="http://www.w3.org/1999/xlink" viewBox="0 0 400 400"><defs><style>.cls-1{fill:url(#linear-gradient);}.cls-2{fill:url(#linear-gradient-2);}.cls-3{fill:url(#linear-gradient-3);}.cls-4{fill:url(#linear-gradient-4);}.cls-5{fill:url(#linear-gradient-5);}.cls-6{fill:url(#linear-gradient-6);}.cls-7{fill:url(#linear-gradient-7);}.cls-8{fill:url(#linear-gradient-8);}.cls-9{fill:url(#linear-gradient-9);}.cls-10{fill:url(#linear-gradient-10);}.cls-11{fill:url(#linear-gradient-11);}.cls-12{opacity:0.1;fill:url(#linear-gradient-12);}.cls-13{fill:url(#linear-gradient-13);}</style><linearGradient id="linear-gradient" x1="83.81" y1="272.19" x2="135.82" y2="272.19" gradientUnits="userSpaceOnUse"><stop offset="0" stop-color="#ff4974"/><stop offset="1" stop-color="#ed174f"/></linearGradient><linearGradient id="linear-gradient-2" x1="78.47" y1="187.39" x2="73.97" y2="214.27" gradientUnits="userSpaceOnUse"><stop offset="0" stop-color="#ffcf0d"/><stop offset="1" stop-color="#ffa415"/></linearGradient><linearGradient id="linear-gradient-3" x1="159.07" y1="142.08" x2="143.32" y2="236.14" xlink:href="#linear-gradient"/><linearGradient id="linear-gradient-4" x1="-2727.33" y1="-2632.69" x2="-2712.16" y2="-2632.69" gradientTransform="translate(2849.01 2829.58)" xlink:href="#linear-gradient-2"/><linearGradient id="linear-gradient-5" x1="-2647.21" y1="-2618.39" x2="-2636.89" y2="-2618.39" gradientTransform="translate(2757.02 2892.97)" xlink:href="#linear-gradient-2"/><linearGradient id="linear-gradient-6" x1="-2631.79" y1="-2618.39" x2="-2621.46" y2="-2618.39" gradientTransform="translate(2741.6 2908.4)" xlink:href="#linear-gradient-2"/><linearGradient id="linear-gradient-7" x1="233.01" y1="114.8" x2="209.01" y2="258.15" gradientUnits="userSpaceOnUse"><stop offset="0.46" stop-color="#fffcf8"/><stop offset="1" stop-color="#bac8e1"/></linearGradient><linearGradient id="linear-gradient-8" x1="234.62" y1="196.89" x2="345.19" y2="196.89" xlink:href="#linear-gradient-2"/><linearGradient id="linear-gradient-9" x1="331.69" y1="197.31" x2="216.19" y2="196.15" xlink:href="#linear-gradient-7"/><linearGradient id="linear-gradient-10" x1="-5588.87" y1="129.81" x2="-5573.71" y2="129.81" gradientTransform="translate(5759.2 65.79)" xlink:href="#linear-gradient-7"/><linearGradient id="linear-gradient-11" x1="-5567.02" y1="129.81" x2="-5551.85" y2="129.81" gradientTransform="translate(5715.5 65.79)" xlink:href="#linear-gradient-7"/><linearGradient id="linear-gradient-12" x1="259.89" y1="209.7" x2="285.69" y2="237.28" gradientUnits="userSpaceOnUse"><stop offset="0.05" stop-color="#1d1d1b"/><stop offset="0.59" stop-color="#2b3f7e" stop-opacity="0"/></linearGradient><linearGradient id="linear-gradient-13" x1="267.73" y1="178.57" x2="267.29" y2="216.2" xlink:href="#linear-gradient"/></defs><g id="Layer_16" data-name="Layer 16"><path class="cls-1" d="M114.71,319.05h0A21.07,21.07,0,0,0,135.78,298V287.18c0-5,.09-6.47,0-9.26,0,0-.16-5.45-.74-10.13-2.19-17.64-13-31.87-13-31.87a65.31,65.31,0,0,0-7.37-8.17h0C95,223.07,88,226,85.32,229.65c-4.39,6,1.8,15.3,5.7,34.18A136.46,136.46,0,0,1,93.64,298,21.07,21.07,0,0,0,114.71,319.05Z"/><circle class="cls-2" cx="76.25" cy="200.63" r="21.44"/><path class="cls-3" d="M213.49,269.85a401.7,401.7,0,0,0-54.69-9c-12.74-1.2-24.75-1.71-35.92-1.75a47.63,47.63,0,0,1-33-13.66,46.49,46.49,0,0,1-13.66-33V187.85a46.63,46.63,0,0,1,46.63-46.63,337.1,337.1,0,0,0,33.73-2.63,340.58,340.58,0,0,0,64.09-14.65Q217.1,196.89,213.49,269.85Z"/><rect class="cls-4" x="121.68" y="180.48" width="15.17" height="32.81" rx="6.66" transform="translate(326.16 67.62) rotate(90)"/><rect class="cls-5" x="109.81" y="258.17" width="10.33" height="32.81" rx="4.53" transform="translate(389.55 159.61) rotate(90)"/><rect class="cls-6" x="109.81" y="273.6" width="10.33" height="32.81" rx="4.53" transform="translate(404.98 175.04) rotate(90)"/><path class="cls-7" d="M289.91,312.84c-56.49-25.27-97.92-43.44-118-50.51-3.61-1.27-16.29-5.61-26.88-16.86a50.05,50.05,0,0,1-11.57-19.1,46.71,46.71,0,0,1-2.09-13.87V187.85A46.64,46.64,0,0,1,133.47,174,49.58,49.58,0,0,1,145,154.88c12.78-13.61,29.69-18.75,32.69-19.68,20.48-6.38,55.72-23.07,112.18-54.25Z"/><ellipse class="cls-8" cx="289.91" cy="196.89" rx="55.28" ry="115.94"/><path class="cls-9" d="M327.09,196.89c0,51.43-16.65,93.12-37.18,93.12-16.35,0-30.24-26.42-35.22-63.15-.37-2.7-.68-5.45-.95-8.26,0-.2,0-.4-.06-.61-.63-6.77-1-13.84-1-21.1q0-3.91.13-7.74.22-7.16.89-14c0-.45.09-.89.13-1.34,4.09-40.29,18.68-70.08,36-70.08C310.44,103.77,327.09,145.47,327.09,196.89Z"/><rect class="cls-10" x="170.33" y="179.19" width="15.17" height="32.81" rx="6.66" transform="translate(355.83 391.19) rotate(180)"/><rect class="cls-11" x="148.48" y="179.19" width="15.17" height="32.81" rx="6.66" transform="translate(312.12 391.19) rotate(180)"/><path class="cls-12" d="M282.32,196.89l12.81,36.2-37.22,11.28c-1.43-6.5-2.7-13.69-3.63-21.5a219.86,219.86,0,0,1-1.54-23.23Z"/><path class="cls-13" d="M282.32,196.89a22.54,22.54,0,0,1-22.53,22.54,22.92,22.92,0,0,1-4.65-.48c-.48-.11-.95-.22-1.4-.35,0-.2,0-.4-.06-.61-.63-6.77-1-13.84-1-21.1q0-3.91.13-7.74.22-7.16.89-14c.52-.16,1-.28,1.58-.39a22.66,22.66,0,0,1,4.47-.44,22.37,22.37,0,0,1,8.56,1.69l.32.13a22.52,22.52,0,0,1,13.65,20.71Z"/></g></svg>