<svg xmlns="http://www.w3.org/2000/svg" xmlns:xlink="http://www.w3.org/1999/xlink" viewBox="0 0 400 400"><defs><style>.cls-1{fill:url(#linear-gradient);}.cls-2{fill:url(#linear-gradient-2);}.cls-3{fill:url(#linear-gradient-3);}.cls-4{fill:url(#linear-gradient-4);}.cls-5{fill:url(#linear-gradient-5);}</style><linearGradient id="linear-gradient" x1="136.7" y1="122.91" x2="245.54" y2="245.24" gradientUnits="userSpaceOnUse"><stop offset="0" stop-color="#ffcf0d"/><stop offset="1" stop-color="#ffa415"/></linearGradient><linearGradient id="linear-gradient-2" x1="240.01" y1="249.67" x2="158.8" y2="138.13" xlink:href="#linear-gradient"/><linearGradient id="linear-gradient-3" x1="220.73" y1="172.16" x2="293.68" y2="171.23" gradientUnits="userSpaceOnUse"><stop offset="0" stop-color="#ff4974"/><stop offset="1" stop-color="#ee1950"/></linearGradient><linearGradient id="linear-gradient-4" x1="217.87" y1="213.52" x2="126.82" y2="213.52" gradientUnits="userSpaceOnUse"><stop offset="0" stop-color="#00e7b2"/><stop offset="1" stop-color="#16dbab"/></linearGradient><linearGradient id="linear-gradient-5" x1="163.39" y1="192.24" x2="235.8" y2="192.24" gradientUnits="userSpaceOnUse"><stop offset="0.25" stop-color="#3c5494"/><stop offset="1" stop-color="#2b3f7e"/></linearGradient></defs><g id="Layer_20" data-name="Layer 20"><path class="cls-1" d="M314.59,191.09a117.44,117.44,0,0,1-54.32,99,114.7,114.7,0,0,1-13.61,7.42,117.24,117.24,0,1,1,67.93-106.37Z"/><circle class="cls-2" cx="197.36" cy="191.09" r="94.76"/><path class="cls-3" d="M266.13,218.57l65.24-37.67a10.69,10.69,0,0,0,0-18.51l-65.24-37.66a10.69,10.69,0,0,0-16,9.25v13.46H183a4.88,4.88,0,0,0-4.88,4.88V191a4.87,4.87,0,0,0,4.88,4.88H250.1v13.46A10.69,10.69,0,0,0,266.13,218.57Z"/><path class="cls-4" d="M127.59,166.6,62.35,204.27a10.68,10.68,0,0,0,0,18.5l65.24,37.67a10.69,10.69,0,0,0,16-9.25V237.73h73.11a4.88,4.88,0,0,0,4.88-4.89V194.2a4.87,4.87,0,0,0-4.88-4.88H143.62V175.85A10.69,10.69,0,0,0,127.59,166.6Z"/><path class="cls-5" d="M233,201.5a25.48,25.48,0,0,0-7.2-8.17,40.85,40.85,0,0,0-10-5.27c-3.4-1.25-6.89-2.4-10.39-3.4V155.44a37.8,37.8,0,0,1,7.92,2.27,30.57,30.57,0,0,1,8.24,5.19,5.89,5.89,0,0,0,4.06,1.53,5.65,5.65,0,0,0,2.57-.6,7.75,7.75,0,0,0,2-1.47,6.27,6.27,0,0,0,1.43-2.17,6.9,6.9,0,0,0,.49-2.57,5.8,5.8,0,0,0-2.17-4.85,37.6,37.6,0,0,0-5.58-4.11,40.26,40.26,0,0,0-6.07-3,41.89,41.89,0,0,0-6.59-2c-2-.43-4.15-.78-6.33-1.06v-9.17a5.12,5.12,0,0,0-5.1-5.1,5.51,5.51,0,0,0-3.93,1.48,4.79,4.79,0,0,0-1.59,3.62v9a42,42,0,0,0-11.33,2.5,31.52,31.52,0,0,0-9.73,5.67,26.1,26.1,0,0,0-6.38,8.39,24.52,24.52,0,0,0-2.31,10.64,22.65,22.65,0,0,0,2.7,11.48,23.8,23.8,0,0,0,7.07,7.67,39.92,39.92,0,0,0,9.82,4.91c3.36,1.17,6.78,2.22,10.16,3.12v33.12a35.21,35.21,0,0,1-11.22-3.36,47.1,47.1,0,0,1-9.84-6.47,6.26,6.26,0,0,0-4-1.5,5.67,5.67,0,0,0-4.68,2.3,7.22,7.22,0,0,0-1.21,7.27,5.76,5.76,0,0,0,1.69,2.38,48.82,48.82,0,0,0,6.05,4.6,42.75,42.75,0,0,0,7.1,3.65,50.27,50.27,0,0,0,8.09,2.48,58.4,58.4,0,0,0,8.05,1.18V251a4.78,4.78,0,0,0,1.59,3.61,5.51,5.51,0,0,0,3.93,1.48,5.1,5.1,0,0,0,5.1-5.09v-8.57A40.25,40.25,0,0,0,219,239.22a31.15,31.15,0,0,0,9.66-6.71,24.82,24.82,0,0,0,5.49-8.92,30,30,0,0,0,1.7-9.9A24.72,24.72,0,0,0,233,201.5Zm-11.42,13.19a14.65,14.65,0,0,1-.88,4.91,13.45,13.45,0,0,1-2.81,4.61,16.5,16.5,0,0,1-5.21,3.72,24.38,24.38,0,0,1-7.23,2V199.82c2,.65,3.92,1.35,5.7,2.09a24.34,24.34,0,0,1,5.51,3.09,13.55,13.55,0,0,1,3.61,4.14A11.33,11.33,0,0,1,221.61,214.69Zm-26.75-59.75v26.9a55.52,55.52,0,0,1-5.56-1.92,30.54,30.54,0,0,1-5.34-2.77,11.34,11.34,0,0,1-3.44-3.5,8.9,8.9,0,0,1-1.22-4.73,11.88,11.88,0,0,1,4.52-9.71A20.39,20.39,0,0,1,194.86,154.94Z"/></g></svg>