<svg xmlns="http://www.w3.org/2000/svg" xmlns:xlink="http://www.w3.org/1999/xlink" viewBox="0 0 400 400"><defs><style>.cls-1{fill:url(#linear-gradient);}.cls-2,.cls-9{opacity:0.1;}.cls-2{fill:url(#linear-gradient-2);}.cls-3{fill:url(#linear-gradient-3);}.cls-4{fill:url(#linear-gradient-4);}.cls-5{fill:url(#linear-gradient-5);}.cls-6{fill:url(#linear-gradient-6);}.cls-7{fill:url(#linear-gradient-7);}.cls-8{fill:url(#linear-gradient-8);}.cls-9{fill:url(#linear-gradient-9);}.cls-10{fill:url(#linear-gradient-10);}</style><linearGradient id="linear-gradient" x1="200.51" y1="155.04" x2="199.85" y2="259.31" gradientUnits="userSpaceOnUse"><stop offset="0" stop-color="#00e7b2"/><stop offset="1" stop-color="#16dbab"/></linearGradient><linearGradient id="linear-gradient-2" x1="157.76" y1="264.57" x2="299.7" y2="264.57" gradientUnits="userSpaceOnUse"><stop offset="0" stop-color="#1d1d1b"/><stop offset="0.99" stop-color="#2b3f7e" stop-opacity="0"/></linearGradient><linearGradient id="linear-gradient-3" x1="211.45" y1="115.84" x2="243.99" y2="115.84" xlink:href="#linear-gradient"/><linearGradient id="linear-gradient-4" x1="151.31" y1="116.04" x2="187.84" y2="115.37" xlink:href="#linear-gradient"/><linearGradient id="linear-gradient-5" x1="200.42" y1="90.53" x2="201.75" y2="113.78" xlink:href="#linear-gradient"/><linearGradient id="linear-gradient-6" x1="265.92" y1="146.67" x2="131.85" y2="146.67" gradientUnits="userSpaceOnUse"><stop offset="0" stop-color="#ffcf0d"/><stop offset="1" stop-color="#ffa415"/></linearGradient><linearGradient id="linear-gradient-7" x1="170.6" y1="204.77" x2="223.11" y2="263.78" xlink:href="#linear-gradient-6"/><linearGradient id="linear-gradient-8" x1="220.44" y1="265.92" x2="181.26" y2="212.11" xlink:href="#linear-gradient-6"/><linearGradient id="linear-gradient-9" x1="183.84" y1="250.53" x2="251.23" y2="250.53" xlink:href="#linear-gradient-2"/><linearGradient id="linear-gradient-10" x1="178.27" y1="238.26" x2="220.7" y2="238.26" gradientUnits="userSpaceOnUse"><stop offset="0.25" stop-color="#3c5494"/><stop offset="1" stop-color="#2b3f7e"/></linearGradient></defs><g id="Layer_20" data-name="Layer 20"><path class="cls-1" d="M303.32,235.52a92.89,92.89,0,0,1-3.62,25.79c-10.57,36.89-43.29,65.11-83.77,71.06A111.45,111.45,0,0,1,200,333.52c-57.06,0-103.32-43.87-103.32-98s46.26-98,103.32-98S303.32,181.4,303.32,235.52Z"/><path class="cls-2" d="M299.7,261.31c-10.57,36.89-43.29,65.11-83.77,71.06l-58.17-58.18,77.41-77.41Z"/><path class="cls-3" d="M240.15,151.2l-23.3,2.68.72-75.59L257,77.81a6.78,6.78,0,0,1,6.45,9.08Z"/><path class="cls-4" d="M158.72,151.2l23.3,2.68-.72-75.59-39.38-.48a6.78,6.78,0,0,0-6.45,9.08Z"/><path class="cls-5" d="M188.55,158.55l21.27-.09a7.75,7.75,0,0,0,7.68-7q3.65-38.23,7.3-76.48a7.75,7.75,0,0,0-7.71-8.49h-35.2a7.75,7.75,0,0,0-7.72,8.42l6.63,76.57A7.75,7.75,0,0,0,188.55,158.55Z"/><path class="cls-6" d="M199.85,167.43c-34.29,0-58.23-19.43-65.06-25.71a9.1,9.1,0,0,1,12.33-13.4c5.92,5.43,27.6,23,58.24,20.69,22.34-1.69,38-13,45.38-19.59A9.1,9.1,0,1,1,262.89,143c-9.08,8.13-28.45,22.1-56.16,24.19Q203.22,167.43,199.85,167.43Z"/><path class="cls-7" d="M256.41,237.66a56.75,56.75,0,0,1-5.17,23.68,56.94,56.94,0,0,1-21,24.05,55.47,55.47,0,0,1-6.56,3.58,56.56,56.56,0,1,1,32.76-51.31Z"/><circle class="cls-8" cx="199.86" cy="237.66" r="45.71"/><path class="cls-9" d="M251.23,261.34a57,57,0,0,1-21,24.05,54.19,54.19,0,0,1-6.57,3.58l-20.71-20.7-2.45-2.45L194.65,260a19.69,19.69,0,0,0,2.06.37v-4.28c.38,0,.76,0,1.13.05v-7.87l2.6-2.6-3.73-3.73v-1l-1.36-.37-8.13-8.13a11.73,11.73,0,0,1-1.3-5.63l-2.08-6.88,14-5.13.06-.05,2.65-2.66v2.73a13.92,13.92,0,0,1,6.31,2.13l1.33,1.33,1.78,1.78,0,0Z"/><path class="cls-10" d="M219.08,243.69a15,15,0,0,0-4.22-4.79,24,24,0,0,0-5.83-3.09c-2-.73-4.05-1.4-6.1-2V216.69a23,23,0,0,1,4.65,1.33l.61.27a18.85,18.85,0,0,1,4.21,2.77,3.43,3.43,0,0,0,2.39.9,3.34,3.34,0,0,0,1.5-.35,4.58,4.58,0,0,0,1.19-.86,3.91,3.91,0,0,0,.84-1.27,4.14,4.14,0,0,0,.29-1.51,3.41,3.41,0,0,0-1.28-2.85,21.35,21.35,0,0,0-3.26-2.4,24.14,24.14,0,0,0-7.43-2.92c-1.18-.25-2.43-.46-3.71-.62V203.8a3,3,0,0,0-3-3,3.25,3.25,0,0,0-2.31.86,2.81,2.81,0,0,0-.93,2.12v5.27a24.75,24.75,0,0,0-6.64,1.47,18.52,18.52,0,0,0-5.7,3.32,15.07,15.07,0,0,0-3.74,4.92,14.32,14.32,0,0,0-1.36,6.23,13.31,13.31,0,0,0,1.59,6.74,14,14,0,0,0,4.14,4.49,23.62,23.62,0,0,0,5.75,2.88c1.52.52,3.06,1,4.6,1.46l1.36.37v19.41a19.69,19.69,0,0,1-2.06-.37,20,20,0,0,1-4.52-1.6,27.76,27.76,0,0,1-5.76-3.79,3.64,3.64,0,0,0-2.36-.88,3.34,3.34,0,0,0-2.75,1.34,4.3,4.3,0,0,0-.71,4.27,3.46,3.46,0,0,0,1,1.39,28.5,28.5,0,0,0,3.55,2.69,24.73,24.73,0,0,0,4.16,2.15A30.5,30.5,0,0,0,192,267a35,35,0,0,0,4.72.69v5a2.84,2.84,0,0,0,.93,2.13,3.25,3.25,0,0,0,2.31.86,3,3,0,0,0,3-3v-5a23.45,23.45,0,0,0,7.9-1.89,18.34,18.34,0,0,0,5.66-3.94,14.7,14.7,0,0,0,3.22-5.23,17.59,17.59,0,0,0,1-5.8A14.44,14.44,0,0,0,219.08,243.69ZM193.45,231a17.9,17.9,0,0,1-3.13-1.63,6.58,6.58,0,0,1-2-2,5.23,5.23,0,0,1-.71-2.77,7,7,0,0,1,2.65-5.69,11.94,11.94,0,0,1,6.47-2.5v15.76A31.84,31.84,0,0,1,193.45,231Zm18.42,23.26a7.88,7.88,0,0,1-1.64,2.7,9.8,9.8,0,0,1-3.06,2.18,14.36,14.36,0,0,1-4.24,1.17V242.7c1.18.38,2.3.79,3.34,1.23a14,14,0,0,1,3.23,1.81,7.9,7.9,0,0,1,2.12,2.43,6.62,6.62,0,0,1,.77,3.25A8.48,8.48,0,0,1,211.87,254.3Z"/></g></svg>