<svg xmlns="http://www.w3.org/2000/svg" xmlns:xlink="http://www.w3.org/1999/xlink" viewBox="0 0 400 400"><defs><style>.cls-1{fill:url(#linear-gradient);}.cls-2{fill:url(#linear-gradient-2);}.cls-3{fill:url(#linear-gradient-3);}.cls-4{fill:url(#linear-gradient-4);}.cls-5{fill:url(#linear-gradient-5);}.cls-6{fill:url(#linear-gradient-6);}.cls-7{fill:#1d1d1b;}.cls-7,.cls-8{opacity:0.1;}.cls-8{fill:url(#linear-gradient-7);}.cls-9{fill:url(#linear-gradient-8);}.cls-10{fill:url(#linear-gradient-9);}.cls-11{fill:url(#linear-gradient-10);}.cls-12{fill:url(#linear-gradient-11);}</style><linearGradient id="linear-gradient" x1="171.73" y1="256.45" x2="203.46" y2="256.45" gradientUnits="userSpaceOnUse"><stop offset="0" stop-color="#00e7b2"/><stop offset="1" stop-color="#16dbab"/></linearGradient><linearGradient id="linear-gradient-2" x1="201.37" y1="258.6" x2="261.91" y2="258.6" xlink:href="#linear-gradient"/><linearGradient id="linear-gradient-3" x1="187.45" y1="260.02" x2="209.67" y2="260.02" xlink:href="#linear-gradient"/><linearGradient id="linear-gradient-4" x1="219.19" y1="70.78" x2="193.7" y2="207.79" gradientUnits="userSpaceOnUse"><stop offset="0" stop-color="#ffcf0d"/><stop offset="1" stop-color="#ffa415"/></linearGradient><linearGradient id="linear-gradient-5" x1="154.64" y1="88.09" x2="230.84" y2="173.73" xlink:href="#linear-gradient-4"/><linearGradient id="linear-gradient-6" x1="226.97" y1="176.84" x2="170.11" y2="98.74" xlink:href="#linear-gradient-4"/><linearGradient id="linear-gradient-7" x1="176.89" y1="155.02" x2="270.54" y2="155.02" gradientUnits="userSpaceOnUse"><stop offset="0" stop-color="#1d1d1b"/><stop offset="0.99" stop-color="#2b3f7e" stop-opacity="0"/></linearGradient><linearGradient id="linear-gradient-8" x1="202.31" y1="203.96" x2="281.11" y2="203.96" xlink:href="#linear-gradient"/><linearGradient id="linear-gradient-9" x1="127.28" y1="206.52" x2="208.58" y2="206.52" xlink:href="#linear-gradient"/><linearGradient id="linear-gradient-10" x1="110.84" y1="298.75" x2="280.95" y2="298.75" gradientUnits="userSpaceOnUse"><stop offset="0.25" stop-color="#3c5494"/><stop offset="1" stop-color="#2b3f7e"/></linearGradient><linearGradient id="linear-gradient-11" x1="173.71" y1="133.75" x2="222.83" y2="133.75" xlink:href="#linear-gradient-10"/></defs><g id="Layer_20" data-name="Layer 20"><path class="cls-1" d="M203.07,271.79c-.6.16-14.07,3.47-24-6.38a25,25,0,0,1-6.37-24.64c1.15-.2,13.68-2.2,23.15,7.23C205.64,257.72,203.27,270.78,203.07,271.79Z"/><path class="cls-2" d="M201.37,272.18c.79.55,18.49,12.56,38.12,3.64a38.57,38.57,0,0,0,22.42-32.23c-1.56-.91-18.61-10.52-37.36-2C205.2,250.46,201.62,270.61,201.37,272.18Z"/><path class="cls-3" d="M192,313.92a4.49,4.49,0,0,1-4.2-6.1,196.55,196.55,0,0,0,11.19-44,196.47,196.47,0,0,0-.07-52.57,4.5,4.5,0,0,1,8.92-1.22,205.8,205.8,0,0,1,.07,55,206,206,0,0,1-11.7,46A4.51,4.51,0,0,1,192,313.92Z"/><path class="cls-4" d="M289.16,135.83a82.22,82.22,0,0,1-3.46,23.67,83.14,83.14,0,0,1-4.05,10.69c-.36.78-.74,1.58-1.12,2.34a82.75,82.75,0,0,1-29.39,32.56c-2.32,1.47-4.7,2.84-7.16,4.08-.78.38-1.58.76-2.38,1.12a82.08,82.08,0,1,1,47.56-74.46Z"/><path class="cls-5" d="M279.18,135.83a81.88,81.88,0,0,1-3.47,23.67,83.1,83.1,0,0,1-4,10.69c-.36.78-.75,1.58-1.13,2.34a82.83,82.83,0,0,1-29.38,32.56c-2.33,1.47-4.7,2.84-7.17,4.08-.78.38-1.57.76-2.37,1.12a82.08,82.08,0,1,1,47.56-74.46Z"/><circle class="cls-6" cx="197.11" cy="135.82" r="66.35"/><path class="cls-7" d="M201.27,202c-1.37.1-2.76.14-4.16.14a66.35,66.35,0,1,1,0-132.69c1.4,0,2.79,0,4.16.13a66.34,66.34,0,0,0,0,132.42Z"/><path class="cls-8" d="M270.54,172.53a82.83,82.83,0,0,1-29.38,32.56c-2.33,1.47-4.7,2.84-7.17,4.08L196.15,177.3c-.37-4.06-.75-8.12-1.11-12.18l1.14-6-2-2v-18.2l-1.25-.45a39.93,39.93,0,0,1-7.3-3.33,18,18,0,0,1-6.86-6.84,17.09,17.09,0,0,1-1.87-7.92l14.78-14.77,4.7-4.7v4.74c.59,0,1.16.12,1.74.22a23.45,23.45,0,0,1,9.21,3.47l5.39,5.4s0,0,0,0Z"/><path class="cls-9" d="M202.31,223.27c1.55-4.53,9.55-26.3,33.13-38.22a68,68,0,0,1,45.67-5.31c-8.46,28.8-29.43,48.72-52.25,50.13C223.8,230.18,214,229.87,202.31,223.27Z"/><path class="cls-10" d="M208.58,223.19c-1.83-4.43-11.13-25.68-35.39-36.15a68,68,0,0,0-45.91-2.54c10.19,28.23,32.32,46.85,55.19,46.88C187.54,231.39,197.27,230.49,208.58,223.19Z"/><path class="cls-11" d="M253.78,297.73a29,29,0,0,0-17.64,5.82A30.35,30.35,0,0,0,198.22,292c-.65-.89-1.32-1.74-2-2.58a50.07,50.07,0,0,0-75.08,0A42.37,42.37,0,0,0,110.84,317v2.69a5.28,5.28,0,0,0,.21,1.5,5.42,5.42,0,0,0,5.2,3.91H275.6a5.42,5.42,0,0,0,5.35-4.58C280,307.76,268.19,297.73,253.78,297.73Z"/><path class="cls-12" d="M221,140a17.23,17.23,0,0,0-4.88-5.54,27.19,27.19,0,0,0-6.76-3.58c-2.31-.85-4.68-1.63-7.05-2.31V108.79a25.74,25.74,0,0,1,5.37,1.54,20.5,20.5,0,0,1,5.59,3.52,4,4,0,0,0,2.76,1,3.84,3.84,0,0,0,1.74-.41,5.24,5.24,0,0,0,1.38-1,4.33,4.33,0,0,0,1-1.47,4.76,4.76,0,0,0,.33-1.74,4,4,0,0,0-1.47-3.3,26.21,26.21,0,0,0-3.78-2.78,27.71,27.71,0,0,0-8.6-3.38c-1.37-.29-2.81-.53-4.29-.72V93.87a3.45,3.45,0,0,0-3.46-3.46,3.76,3.76,0,0,0-2.67,1,3.27,3.27,0,0,0-1.07,2.46V100a28.66,28.66,0,0,0-7.69,1.69,21.49,21.49,0,0,0-6.6,3.85,17.65,17.65,0,0,0-4.33,5.69,16.63,16.63,0,0,0-1.57,7.22,15.3,15.3,0,0,0,1.84,7.79,16.1,16.1,0,0,0,4.79,5.2,27,27,0,0,0,6.66,3.33c2.28.8,4.6,1.51,6.9,2.12v22.47a24,24,0,0,1-7.62-2.28,32.25,32.25,0,0,1-6.67-4.39,4.29,4.29,0,0,0-2.73-1,3.87,3.87,0,0,0-3.18,1.56,4.93,4.93,0,0,0-.82,4.94,3.94,3.94,0,0,0,1.14,1.61,33.35,33.35,0,0,0,4.11,3.12,29.07,29.07,0,0,0,4.81,2.48,35.15,35.15,0,0,0,5.49,1.68,40.9,40.9,0,0,0,5.47.8v5.8a3.27,3.27,0,0,0,1.07,2.46,3.76,3.76,0,0,0,2.67,1,3.45,3.45,0,0,0,3.46-3.46v-5.81a27.33,27.33,0,0,0,9.14-2.19,21.16,21.16,0,0,0,6.55-4.56,16.91,16.91,0,0,0,3.73-6,20.53,20.53,0,0,0,1.15-6.71A16.72,16.72,0,0,0,221,140Zm-7.75,9a10.22,10.22,0,0,1-.59,3.33,9.08,9.08,0,0,1-1.91,3.12,11.29,11.29,0,0,1-3.54,2.53,16.61,16.61,0,0,1-4.9,1.35V138.89c1.36.45,2.66.92,3.87,1.42a16.8,16.8,0,0,1,3.73,2.1,9.1,9.1,0,0,1,2.45,2.81A7.7,7.7,0,0,1,213.2,149Zm-18.14-40.55V126.7a37.05,37.05,0,0,1-3.78-1.31,19.73,19.73,0,0,1-3.62-1.88,7.51,7.51,0,0,1-2.33-2.37,6,6,0,0,1-.83-3.21,8.06,8.06,0,0,1,3.07-6.59A13.94,13.94,0,0,1,195.06,108.44Z"/></g></svg>