<svg xmlns="http://www.w3.org/2000/svg" xmlns:xlink="http://www.w3.org/1999/xlink" viewBox="0 0 400 400"><defs><style>.cls-1{fill:url(#linear-gradient);}.cls-2{fill:url(#linear-gradient-2);}.cls-3{fill:url(#linear-gradient-3);}.cls-4,.cls-6{opacity:0.1;}.cls-4{fill:url(#linear-gradient-4);}.cls-5{fill:url(#linear-gradient-5);}.cls-6{fill:url(#linear-gradient-6);}.cls-7{fill:url(#linear-gradient-7);}.cls-8{fill:url(#linear-gradient-8);}.cls-9{fill:url(#linear-gradient-9);}.cls-10{fill:url(#linear-gradient-10);}.cls-11{fill:url(#linear-gradient-11);}.cls-12{fill:url(#linear-gradient-12);}</style><linearGradient id="linear-gradient" x1="133.12" y1="221.86" x2="338.53" y2="221.86" gradientUnits="userSpaceOnUse"><stop offset="0" stop-color="#ffcf0d"/><stop offset="1" stop-color="#ffa415"/></linearGradient><linearGradient id="linear-gradient-2" x1="61.47" y1="221.85" x2="266.88" y2="221.85" xlink:href="#linear-gradient"/><linearGradient id="linear-gradient-3" x1="89.88" y1="275.05" x2="121.59" y2="275.05" gradientUnits="userSpaceOnUse"><stop offset="0" stop-color="#ff4974"/><stop offset="1" stop-color="#ee1950"/></linearGradient><linearGradient id="linear-gradient-4" x1="131.63" y1="207.04" x2="267.15" y2="207.04" gradientUnits="userSpaceOnUse"><stop offset="0" stop-color="#1d1d1b"/><stop offset="0.99" stop-color="#2b3f7e" stop-opacity="0"/></linearGradient><linearGradient id="linear-gradient-5" x1="161.63" y1="109.91" x2="159.86" y2="153.08" gradientUnits="userSpaceOnUse"><stop offset="0" stop-color="#00e7b2"/><stop offset="1" stop-color="#16dbab"/></linearGradient><linearGradient id="linear-gradient-6" x1="266.76" y1="170.73" x2="338.53" y2="170.73" xlink:href="#linear-gradient-4"/><linearGradient id="linear-gradient-7" x1="266.31" y1="76.17" x2="264.84" y2="133.48" gradientUnits="userSpaceOnUse"><stop offset="0" stop-color="#3c5494"/><stop offset="1" stop-color="#2b3f7e"/></linearGradient><linearGradient id="linear-gradient-8" x1="230.88" y1="112.99" x2="306.02" y2="112.99" gradientUnits="userSpaceOnUse"><stop offset="0.45" stop-color="#fffcf8"/><stop offset="1" stop-color="#bac8e1"/></linearGradient><linearGradient id="linear-gradient-9" x1="126.65" y1="328.67" x2="84.83" y2="294.58" xlink:href="#linear-gradient-3"/><linearGradient id="linear-gradient-10" x1="302.29" y1="292.8" x2="284.39" y2="278.22" xlink:href="#linear-gradient-3"/><linearGradient id="linear-gradient-11" x1="321.68" y1="313.83" x2="289.23" y2="287.38" xlink:href="#linear-gradient-3"/><linearGradient id="linear-gradient-12" x1="312.51" y1="327.01" x2="286.94" y2="306.17" xlink:href="#linear-gradient-3"/></defs><g id="Layer_16" data-name="Layer 16"><path class="cls-1" d="M338.53,115V328.67a10,10,0,0,1-10,10H143.11a10,10,0,0,1-10-10V115a10,10,0,0,1,10-10H328.53A10,10,0,0,1,338.53,115Z"/><rect class="cls-2" x="61.47" y="105.05" width="205.41" height="233.62" rx="11.57"/><path class="cls-3" d="M121.12,272.2l-12.35-21.39a3.5,3.5,0,0,0-6.06,0L90.36,272.2a3.5,3.5,0,0,0,3,5.25H97.8v22a1.6,1.6,0,0,0,1.6,1.6h12.67a1.6,1.6,0,0,0,1.6-1.6v-22h4.42A3.5,3.5,0,0,0,121.12,272.2Z"/><polygon class="cls-4" points="131.63 173.51 267.15 309.03 267.15 105.05 174.02 105.05 131.63 173.51"/><path class="cls-5" d="M125.24,105h70.67a0,0,0,0,1,0,0v61.06a7.4,7.4,0,0,1-7.4,7.4H132.64a7.4,7.4,0,0,1-7.4-7.4V105A0,0,0,0,1,125.24,105Z"/><path class="cls-6" d="M338.53,115V236.42l-71.77-71.77,1.13-59.6h60.64A10,10,0,0,1,338.53,115Z"/><path class="cls-7" d="M240.88,64.69a4.83,4.83,0,0,1,5.39-3.25,119.29,119.29,0,0,0,19.46,1.68,119.55,119.55,0,0,0,20.86-1.72,4.78,4.78,0,0,1,5.29,3,32.75,32.75,0,0,0,20,19.53,4.79,4.79,0,0,1,3.2,4.27c2.35,44.75-26.3,76.17-48.35,76.46-22.21.29-52-30.8-50.17-76.06a4.78,4.78,0,0,1,3.59-4.41,29.51,29.51,0,0,0,20.7-19.49Z"/><path class="cls-8" d="M260.71,140.15a9,9,0,0,1-6.37-2.64l-20.82-20.82A9,9,0,1,1,246.24,104l14.47,14.46,29.94-29.95a9,9,0,0,1,12.73,12.73l-36.31,36.31A9,9,0,0,1,260.71,140.15Z"/><path class="cls-9" d="M135.38,315.63H76.1a4,4,0,0,1,0-8h59.28a4,4,0,0,1,0,8Z"/><path class="cls-10" d="M303.07,289.51H283.61a4,4,0,0,1,0-8h19.46a4,4,0,0,1,0,8Z"/><path class="cls-11" d="M327.3,304.61H283.61a4,4,0,0,1,0-8H327.3a4,4,0,1,1,0,8Z"/><path class="cls-12" d="M315.84,320.59H283.61a4,4,0,0,1,0-8h32.23a4,4,0,0,1,0,8Z"/></g></svg>