<svg xmlns="http://www.w3.org/2000/svg" xmlns:xlink="http://www.w3.org/1999/xlink" viewBox="0 0 400 400"><defs><style>.cls-1{fill:url(#linear-gradient);}.cls-2{fill:url(#linear-gradient-2);}.cls-3{fill:url(#linear-gradient-3);}.cls-4{fill:url(#linear-gradient-4);}.cls-5{opacity:0.1;fill:url(#linear-gradient-5);}.cls-6{fill:url(#linear-gradient-6);}.cls-7{fill:url(#linear-gradient-7);}.cls-8{fill:url(#linear-gradient-8);}.cls-9{fill:url(#linear-gradient-9);}.cls-10{fill:url(#linear-gradient-10);}.cls-11{fill:url(#linear-gradient-11);}.cls-12{fill:url(#linear-gradient-12);}.cls-13{fill:url(#linear-gradient-13);}.cls-14{fill:url(#linear-gradient-14);}.cls-15{fill:url(#linear-gradient-15);}.cls-16{fill:url(#linear-gradient-16);}.cls-17{fill:url(#linear-gradient-17);}.cls-18{fill:url(#linear-gradient-18);}.cls-19{fill:url(#linear-gradient-19);}</style><linearGradient id="linear-gradient" x1="306.53" y1="97.29" x2="318.45" y2="97.29" gradientUnits="userSpaceOnUse"><stop offset="0" stop-color="#3c5494"/><stop offset="1" stop-color="#2b3f7e"/></linearGradient><linearGradient id="linear-gradient-2" x1="190.11" y1="88.33" x2="196.28" y2="278.17" gradientUnits="userSpaceOnUse"><stop offset="0.25" stop-color="#3c5494"/><stop offset="1" stop-color="#2b3f7e"/></linearGradient><linearGradient id="linear-gradient-3" x1="166.81" y1="61.4" x2="200.15" y2="223.56" gradientUnits="userSpaceOnUse"><stop offset="0.45" stop-color="#fffcf8"/><stop offset="1" stop-color="#bac8e1"/></linearGradient><linearGradient id="linear-gradient-4" x1="156.44" y1="167.46" x2="220.85" y2="328.87" xlink:href="#linear-gradient-3"/><linearGradient id="linear-gradient-5" x1="243.15" y1="108.25" x2="334.18" y2="197.07" gradientUnits="userSpaceOnUse"><stop offset="0" stop-color="#1d1d1b"/><stop offset="0.99" stop-color="#2b3f7e" stop-opacity="0"/></linearGradient><linearGradient id="linear-gradient-6" x1="225.29" y1="116.05" x2="248.89" y2="86.82" gradientUnits="userSpaceOnUse"><stop offset="0.14" stop-color="#fffcf8"/><stop offset="1" stop-color="#bac8e1"/></linearGradient><linearGradient id="linear-gradient-7" x1="111.45" y1="159.16" x2="247.69" y2="159.16" gradientUnits="userSpaceOnUse"><stop offset="0" stop-color="#ff4974"/><stop offset="1" stop-color="#ee1950"/></linearGradient><linearGradient id="linear-gradient-8" x1="111.45" y1="185.5" x2="247.69" y2="185.5" xlink:href="#linear-gradient-7"/><linearGradient id="linear-gradient-9" x1="111.45" y1="211.85" x2="247.69" y2="211.85" xlink:href="#linear-gradient-7"/><linearGradient id="linear-gradient-10" x1="111.45" y1="236.78" x2="247.69" y2="236.78" xlink:href="#linear-gradient-7"/><linearGradient id="linear-gradient-11" x1="110.45" y1="263.93" x2="160.21" y2="263.93" xlink:href="#linear-gradient-7"/><linearGradient id="linear-gradient-12" x1="111.45" y1="133.42" x2="205.46" y2="133.42" xlink:href="#linear-gradient-7"/><linearGradient id="linear-gradient-13" x1="111.45" y1="82.74" x2="205.46" y2="82.74" xlink:href="#linear-gradient-7"/><linearGradient id="linear-gradient-14" x1="110.52" y1="108.08" x2="207.27" y2="108.08" xlink:href="#linear-gradient-7"/><linearGradient id="linear-gradient-15" x1="309.4" y1="294.63" x2="315.17" y2="294.63" xlink:href="#linear-gradient"/><linearGradient id="linear-gradient-16" x1="300.7" y1="281.54" x2="324.13" y2="281.54" xlink:href="#linear-gradient-7"/><linearGradient id="linear-gradient-17" x1="300.7" y1="191.18" x2="324.13" y2="191.18" gradientUnits="userSpaceOnUse"><stop offset="0" stop-color="#ffcf0d"/><stop offset="1" stop-color="#ffa415"/></linearGradient><linearGradient id="linear-gradient-18" x1="300.7" y1="115.97" x2="324.13" y2="115.97" xlink:href="#linear-gradient-7"/><linearGradient id="linear-gradient-19" x1="307.69" y1="140.45" x2="317.34" y2="140.45" xlink:href="#linear-gradient-7"/></defs><g id="Layer_16" data-name="Layer 16"><path class="cls-1" d="M309.53,86.9h5.92a3,3,0,0,1,3,3v17.76a0,0,0,0,1,0,0H306.53a0,0,0,0,1,0,0V89.9A3,3,0,0,1,309.53,86.9Z"/><rect class="cls-2" x="100.87" y="72.35" width="185.41" height="245.35" rx="8.51"/><path class="cls-3" d="M279.14,182.31v-66.8a5.41,5.41,0,0,0-2.22-4.24l-.33-.26-57.9-45.28-1.35-1.06a8.19,8.19,0,0,0-5-1.63H97.68c-4,0-7.21,2.62-7.21,5.86V182.31c0,3.25,3.23,5.88,7.21,5.88H271.93C275.91,188.19,279.14,185.56,279.14,182.31Z"/><path class="cls-4" d="M279.14,301.38v-127H90.48v127a7.58,7.58,0,0,0,7.74,7.41H271.4A7.58,7.58,0,0,0,279.14,301.38Z"/><path class="cls-5" d="M286.29,121.26v54.22l-2.14,2.15L225.92,119.4h0l-2-2a2.21,2.21,0,0,1-.08-.37c0-.42-.09-.84-.13-1.27L249.6,89.9l24.49,19.16Z"/><path class="cls-6" d="M276.58,111l-.46.07q-24.54,4.2-49.08,8.39a2.8,2.8,0,0,1-1.12-.08h0a2.84,2.84,0,0,1-2-2,2.21,2.21,0,0,1-.08-.37c0-.42-.09-.84-.13-1.27l-5-50L249.6,89.9l24.49,19.16Z"/><path class="cls-7" d="M243.69,163.16H115.45a4,4,0,0,1,0-8H243.69a4,4,0,0,1,0,8Z"/><path class="cls-8" d="M243.69,189.5H115.45a4,4,0,1,1,0-8H243.69a4,4,0,0,1,0,8Z"/><path class="cls-9" d="M243.69,215.85H115.45a4,4,0,0,1,0-8H243.69a4,4,0,0,1,0,8Z"/><path class="cls-10" d="M243.69,240.78H115.45a4,4,0,0,1,0-8H243.69a4,4,0,0,1,0,8Z"/><path class="cls-11" d="M156.21,267.93H114.45a4,4,0,1,1,0-8h41.76a4,4,0,0,1,0,8Z"/><path class="cls-12" d="M201.46,137.42h-86a4,4,0,0,1,0-8h86a4,4,0,0,1,0,8Z"/><path class="cls-13" d="M201.46,86.74h-86a4,4,0,0,1,0-8h86a4,4,0,0,1,0,8Z"/><path class="cls-14" d="M203.27,112.08H114.52a4,4,0,0,1,0-8h88.75a4,4,0,0,1,0,8Z"/><rect class="cls-15" x="309.4" y="286.11" width="5.76" height="17.03" rx="2.88"/><path class="cls-16" d="M300.7,268.45h23.43a0,0,0,0,1,0,0v14.46a11.71,11.71,0,0,1-11.71,11.71h0a11.71,11.71,0,0,1-11.71-11.71V268.45a0,0,0,0,1,0,0Z"/><path class="cls-17" d="M324.13,107.17v172H300.7v-172a4,4,0,0,1,4-4H320.1A4,4,0,0,1,324.13,107.17Z"/><rect class="cls-18" x="300.7" y="112.55" width="23.42" height="6.84"/><path class="cls-19" d="M307.69,112.54h9.65a0,0,0,0,1,0,0v51a4.83,4.83,0,0,1-4.83,4.83h0a4.83,4.83,0,0,1-4.83-4.83v-51A0,0,0,0,1,307.69,112.54Z"/></g></svg>