<svg xmlns="http://www.w3.org/2000/svg" xmlns:xlink="http://www.w3.org/1999/xlink" viewBox="0 0 400 400"><defs><style>.cls-1{fill:url(#linear-gradient);}.cls-2{fill:url(#linear-gradient-2);}.cls-3{fill:url(#linear-gradient-3);}.cls-4{fill:url(#linear-gradient-4);}.cls-5{fill:url(#linear-gradient-5);}.cls-6{fill:url(#linear-gradient-6);}.cls-7{fill:url(#linear-gradient-7);}.cls-8{fill:url(#linear-gradient-8);}.cls-9{fill:url(#linear-gradient-9);}.cls-10{fill:url(#linear-gradient-10);}.cls-11{fill:url(#linear-gradient-11);}</style><linearGradient id="linear-gradient" x1="130.69" y1="315.73" x2="161.37" y2="315.73" gradientUnits="userSpaceOnUse"><stop offset="0" stop-color="#ffcf0d"/><stop offset="1" stop-color="#ffa415"/></linearGradient><linearGradient id="linear-gradient-2" x1="259.4" y1="315.73" x2="290.08" y2="315.73" xlink:href="#linear-gradient"/><linearGradient id="linear-gradient-3" x1="86.62" y1="190.32" x2="334.56" y2="190.32" gradientUnits="userSpaceOnUse"><stop offset="0.25" stop-color="#3c5494"/><stop offset="1" stop-color="#2b3f7e"/></linearGradient><linearGradient id="linear-gradient-4" x1="98.35" y1="190.32" x2="322.83" y2="190.32" gradientUnits="userSpaceOnUse"><stop offset="0" stop-color="#00e7b2"/><stop offset="1" stop-color="#16dbab"/></linearGradient><linearGradient id="linear-gradient-5" x1="105.44" y1="190.32" x2="315.75" y2="190.32" xlink:href="#linear-gradient-3"/><linearGradient id="linear-gradient-6" x1="313.66" y1="190.74" x2="113.55" y2="189.92" xlink:href="#linear-gradient-3"/><linearGradient id="linear-gradient-7" x1="79.82" y1="143.98" x2="95.88" y2="143.98" xlink:href="#linear-gradient"/><linearGradient id="linear-gradient-8" x1="79.82" y1="236.24" x2="95.88" y2="236.24" xlink:href="#linear-gradient"/><linearGradient id="linear-gradient-9" x1="274.43" y1="190.32" x2="303.67" y2="190.32" gradientTransform="translate(479.37 -98.74) rotate(90)" xlink:href="#linear-gradient"/><linearGradient id="linear-gradient-10" x1="252.02" y1="188.98" x2="174.17" y2="191.45" gradientUnits="userSpaceOnUse"><stop offset="0.46" stop-color="#fffcf8"/><stop offset="1" stop-color="#bac8e1"/></linearGradient><linearGradient id="linear-gradient-11" x1="171.5" y1="190.32" x2="248.62" y2="190.32" xlink:href="#linear-gradient-10"/></defs><g id="Layer_20" data-name="Layer 20"><path class="cls-1" d="M130.69,306.26h30.68a0,0,0,0,1,0,0v3.6A15.34,15.34,0,0,1,146,325.2h0a15.34,15.34,0,0,1-15.34-15.34v-3.6A0,0,0,0,1,130.69,306.26Z"/><path class="cls-2" d="M259.4,306.26h30.68a0,0,0,0,1,0,0v3.6a15.34,15.34,0,0,1-15.34,15.34h0a15.34,15.34,0,0,1-15.34-15.34v-3.6a0,0,0,0,1,0,0Z"/><rect class="cls-3" x="86.62" y="67.58" width="247.95" height="245.48" rx="35.74"/><rect class="cls-4" x="98.35" y="79.2" width="224.47" height="222.23" rx="35.74"/><rect class="cls-5" x="105.44" y="86.21" width="210.31" height="208.21" rx="35.74"/><rect class="cls-6" x="110.61" y="91.33" width="199.97" height="197.97" rx="35.74"/><rect class="cls-7" x="79.82" y="128.53" width="16.06" height="30.89" rx="8.03"/><rect class="cls-8" x="79.82" y="221.62" width="16.06" height="29.24" rx="8.03"/><rect class="cls-9" x="281.02" y="175.69" width="16.06" height="29.24" rx="8.03" transform="translate(98.74 479.37) rotate(-90)"/><circle class="cls-10" cx="210.06" cy="190.32" r="57.16"/><circle class="cls-11" cx="210.06" cy="190.32" r="38.56"/></g></svg>