<svg xmlns="http://www.w3.org/2000/svg" xmlns:xlink="http://www.w3.org/1999/xlink" viewBox="0 0 400 400"><defs><style>.cls-1{fill:url(#linear-gradient);}.cls-2{fill:url(#linear-gradient-2);}.cls-3{fill:url(#linear-gradient-3);}.cls-4{fill:url(#linear-gradient-4);}.cls-5{fill:url(#linear-gradient-5);}.cls-6{fill:url(#linear-gradient-6);}.cls-7{fill:url(#linear-gradient-7);}.cls-8{fill:url(#linear-gradient-8);}.cls-9{fill:url(#linear-gradient-9);}.cls-10{fill:url(#linear-gradient-10);}.cls-11{fill:url(#linear-gradient-11);}.cls-12{fill:url(#linear-gradient-12);}.cls-13{fill:url(#linear-gradient-13);}.cls-14{fill:url(#linear-gradient-14);}.cls-15{fill:url(#linear-gradient-15);}.cls-16{fill:url(#linear-gradient-16);}.cls-17,.cls-19{opacity:0.1;}.cls-17{fill:url(#linear-gradient-17);}.cls-18{fill:url(#linear-gradient-18);}.cls-19{fill:url(#linear-gradient-19);}.cls-20{fill:url(#linear-gradient-20);}.cls-21{fill:url(#linear-gradient-21);}</style><linearGradient id="linear-gradient" x1="103.46" y1="268.95" x2="103.17" y2="219.69" gradientUnits="userSpaceOnUse"><stop offset="0" stop-color="#00e7b2"/><stop offset="1" stop-color="#16dbab"/></linearGradient><linearGradient id="linear-gradient-2" x1="103.37" y1="268.96" x2="103.08" y2="219.71" xlink:href="#linear-gradient"/><linearGradient id="linear-gradient-3" x1="103.28" y1="268.98" x2="102.99" y2="219.72" xlink:href="#linear-gradient"/><linearGradient id="linear-gradient-4" x1="103.19" y1="269" x2="102.9" y2="219.74" xlink:href="#linear-gradient"/><linearGradient id="linear-gradient-5" x1="296.45" y1="264.27" x2="296.74" y2="221.43" xlink:href="#linear-gradient"/><linearGradient id="linear-gradient-6" x1="296.56" y1="264.29" x2="296.85" y2="221.45" xlink:href="#linear-gradient"/><linearGradient id="linear-gradient-7" x1="296.66" y1="264.31" x2="296.95" y2="221.47" xlink:href="#linear-gradient"/><linearGradient id="linear-gradient-8" x1="296.77" y1="264.33" x2="297.06" y2="221.49" xlink:href="#linear-gradient"/><linearGradient id="linear-gradient-9" x1="197.39" y1="58.1" x2="194.47" y2="170.73" gradientUnits="userSpaceOnUse"><stop offset="0.46" stop-color="#fffcf8"/><stop offset="1" stop-color="#bac8e1"/></linearGradient><linearGradient id="linear-gradient-10" x1="202.03" y1="169.82" x2="199.11" y2="303.46" gradientUnits="userSpaceOnUse"><stop offset="0" stop-color="#ffcf0d"/><stop offset="1" stop-color="#ffa415"/></linearGradient><linearGradient id="linear-gradient-11" x1="161.24" y1="183.19" x2="161.34" y2="189.98" gradientUnits="userSpaceOnUse"><stop offset="0" stop-color="#3c5494"/><stop offset="1" stop-color="#2b3f7e"/></linearGradient><linearGradient id="linear-gradient-12" x1="141.81" y1="180.38" x2="141.71" y2="190.87" xlink:href="#linear-gradient-11"/><linearGradient id="linear-gradient-13" x1="123.13" y1="180.21" x2="123.04" y2="190.7" xlink:href="#linear-gradient-11"/><linearGradient id="linear-gradient-14" x1="283.78" y1="148.01" x2="303.04" y2="147.52" gradientTransform="translate(57.15 376.78) rotate(-70.12)" xlink:href="#linear-gradient-11"/><linearGradient id="linear-gradient-15" x1="283.49" y1="136.22" x2="302.74" y2="135.73" gradientTransform="translate(-23.37 67.56) rotate(-13.02)" xlink:href="#linear-gradient-11"/><linearGradient id="linear-gradient-16" x1="284.22" y1="165.34" x2="303.48" y2="164.86" gradientTransform="translate(312.17 503.17) rotate(-121.99)" xlink:href="#linear-gradient-11"/><linearGradient id="linear-gradient-17" x1="229.15" y1="325.95" x2="228.46" y2="209.3" gradientUnits="userSpaceOnUse"><stop offset="0" stop-color="#1d1d1b"/><stop offset="0.99" stop-color="#2b3f7e" stop-opacity="0"/></linearGradient><linearGradient id="linear-gradient-18" x1="142.24" y1="247.47" x2="256.44" y2="247.47" gradientUnits="userSpaceOnUse"><stop offset="0" stop-color="#ff4974"/><stop offset="1" stop-color="#ee1950"/></linearGradient><linearGradient id="linear-gradient-19" x1="203.5" y1="249.74" x2="227.88" y2="278.27" xlink:href="#linear-gradient-17"/><linearGradient id="linear-gradient-20" x1="239.48" y1="248.35" x2="160.77" y2="247.55" xlink:href="#linear-gradient-9"/><linearGradient id="linear-gradient-21" x1="-2519.5" y1="3013.08" x2="-2598.21" y2="3012.28" gradientTransform="translate(-2812.56 -2310.9) rotate(-90)" xlink:href="#linear-gradient-9"/></defs><g id="Layer_16" data-name="Layer 16"><rect class="cls-1" x="95.42" y="216.84" width="15.56" height="15.56" rx="6.21"/><rect class="cls-2" x="95.42" y="232.41" width="15.56" height="15.56" rx="6.21"/><rect class="cls-3" x="95.42" y="247.97" width="15.56" height="15.56" rx="6.21"/><rect class="cls-4" x="95.42" y="263.53" width="15.56" height="15.56" rx="6.21"/><rect class="cls-5" x="288.94" y="216.84" width="15.56" height="15.56" rx="6.21"/><rect class="cls-6" x="288.94" y="232.41" width="15.56" height="15.56" rx="6.21"/><rect class="cls-7" x="288.94" y="247.97" width="15.56" height="15.56" rx="6.21"/><rect class="cls-8" x="288.94" y="263.53" width="15.56" height="15.56" rx="6.21"/><path class="cls-9" d="M130.24,184.83A13.33,13.33,0,0,1,117,172.54c-2.06-26.29,6.52-52.26,23.54-71.24C155.32,84.79,175.32,75,195.37,74.37c31.53-1,62.41,20.47,76.92,53.32a13.33,13.33,0,1,1-24.39,10.78c-10-22.56-30.13-37.47-50.47-37.47l-1.25,0c-12.8.39-25.85,7-35.82,18.09-12.17,13.57-18.3,32.29-16.81,51.35a13.33,13.33,0,0,1-12.25,14.33C131,184.82,130.59,184.83,130.24,184.83Z"/><rect class="cls-10" x="104.24" y="169.26" width="192.19" height="156.4" rx="19.71"/><rect class="cls-11" x="153.53" y="180.68" width="15.56" height="15.56" rx="6.21"/><rect class="cls-12" x="133.95" y="180.68" width="15.56" height="15.56" rx="6.21"/><rect class="cls-13" x="115.28" y="180.68" width="15.56" height="15.56" rx="6.21"/><rect class="cls-14" x="292.83" y="139.89" width="8.36" height="15.56" rx="4.18" transform="translate(334.89 -181.86) rotate(70.12)"/><rect class="cls-15" x="280.19" y="128.41" width="8.36" height="15.56" rx="4.18" transform="translate(37.99 -60.56) rotate(13.02)"/><rect class="cls-16" x="291.38" y="157.27" width="8.36" height="15.56" rx="4.18" transform="translate(592.14 1.83) rotate(121.99)"/><path class="cls-17" d="M296.43,263.75V306a19.7,19.7,0,0,1-19.71,19.71H197.11l-35.83-35.82,80.62-80.62Z"/><path class="cls-18" d="M256.44,247.46a57.11,57.11,0,0,1-57.1,57.11q-2.61,0-5.16-.24a57.1,57.1,0,1,1,62-62.39C256.34,243.75,256.44,245.6,256.44,247.46Z"/><path class="cls-19" d="M256.44,247.46a57.11,57.11,0,0,1-57.1,57.11q-2.61,0-5.16-.24L171,281.19,233.23,219l22.94,22.94C256.34,243.75,256.44,245.6,256.44,247.46Z"/><path class="cls-20" d="M230.18,287a9,9,0,0,1-6.37-2.64L163.7,224.26a9,9,0,1,1,12.73-12.73l60.11,60.11A9,9,0,0,1,230.18,287Z"/><path class="cls-21" d="M170.07,287a9,9,0,0,1-6.37-15.37l60.11-60.11a9,9,0,1,1,12.73,12.73l-60.11,60.11A9,9,0,0,1,170.07,287Z"/></g></svg>