<svg xmlns="http://www.w3.org/2000/svg" xmlns:xlink="http://www.w3.org/1999/xlink" viewBox="0 0 400 400"><defs><style>.cls-1{fill:url(#linear-gradient);}.cls-2{fill:url(#linear-gradient-2);}.cls-3{fill:url(#linear-gradient-3);}.cls-4{fill:url(#linear-gradient-4);}.cls-5{opacity:0.1;fill:url(#linear-gradient-5);}.cls-6{fill:url(#linear-gradient-6);}</style><linearGradient id="linear-gradient" x1="100.87" y1="208.36" x2="315.51" y2="208.36" gradientUnits="userSpaceOnUse"><stop offset="0.25" stop-color="#3c5494"/><stop offset="1" stop-color="#2b3f7e"/></linearGradient><linearGradient id="linear-gradient-2" x1="303.6" y1="201.75" x2="128.32" y2="213.98" xlink:href="#linear-gradient"/><linearGradient id="linear-gradient-3" x1="208.67" y1="134.2" x2="206.92" y2="290.27" gradientUnits="userSpaceOnUse"><stop offset="0.46" stop-color="#fffcf8"/><stop offset="1" stop-color="#bac8e1"/></linearGradient><linearGradient id="linear-gradient-4" x1="146.07" y1="208.36" x2="270.31" y2="208.36" gradientUnits="userSpaceOnUse"><stop offset="0" stop-color="#00e7b2"/><stop offset="1" stop-color="#16dbab"/></linearGradient><linearGradient id="linear-gradient-5" x1="210.36" y1="235.16" x2="311.22" y2="235.16" gradientUnits="userSpaceOnUse"><stop offset="0" stop-color="#1d1d1b"/><stop offset="0.99" stop-color="#2b3f7e" stop-opacity="0"/></linearGradient><linearGradient id="linear-gradient-6" x1="165.56" y1="196.16" x2="284.31" y2="196.16" gradientUnits="userSpaceOnUse"><stop offset="0" stop-color="#ffcf0d"/><stop offset="1" stop-color="#ffa415"/></linearGradient></defs><g id="Layer_20" data-name="Layer 20"><path class="cls-1" d="M311.22,209.88a171.14,171.14,0,0,1-14.05,39.83c-3.27,6.56-12.74,25.53-27.4,43.21-15.64,18.89-37.2,36.3-63.44,35.6-44.46-1.2-72.71-53.64-83.22-73.17-25.31-47-23.77-93.81-20.32-119.66a13.89,13.89,0,0,1,12.52-12,166.7,166.7,0,0,0,46.37-11A166.65,166.65,0,0,0,200.36,91a13.91,13.91,0,0,1,16.58-.12,155.7,155.7,0,0,0,43.74,22.58,155.28,155.28,0,0,0,38.61,7.44A13.84,13.84,0,0,1,312,132.14C315.25,149.55,318.26,178,311.22,209.88Z"/><path class="cls-2" d="M206.63,308.7c-37.12-1-60.71-44.79-69.49-61.1-21.14-39.23-19.85-78.33-17-99.92a11.58,11.58,0,0,1,10.46-10,139.38,139.38,0,0,0,38.72-9.21,139,139,0,0,0,32.3-18.11,11.6,11.6,0,0,1,13.85-.1A130.35,130.35,0,0,0,252,129.1a130.4,130.4,0,0,0,32.24,6.21,11.55,11.55,0,0,1,10.59,9.4c3.84,20.4,7.25,58.92-12.35,98.18C276.84,254.22,249.07,309.85,206.63,308.7Z"/><path class="cls-3" d="M206.76,300.45c-34.07-.92-55.72-41.11-63.78-56.07-19.4-36-18.22-71.9-15.57-91.72a10.63,10.63,0,0,1,9.59-9.19,127.49,127.49,0,0,0,65.19-25.07,10.64,10.64,0,0,1,12.71-.09,119.12,119.12,0,0,0,63.11,23,10.6,10.6,0,0,1,9.72,8.62c3.52,18.72,6.65,54.07-11.34,90.11C271.2,250.45,245.71,301.51,206.76,300.45Z"/><circle class="cls-4" cx="208.19" cy="208.36" r="62.12"/><path class="cls-5" d="M311.22,182.36v27.52a171.14,171.14,0,0,1-14.05,39.83c-3.27,6.56-12.74,25.53-27.4,43.21Q240.06,261,210.36,229.11l51.7-51.71Z"/><path class="cls-6" d="M210.35,243.11a14,14,0,0,1-9.89-4.1l-30.8-30.79a14,14,0,0,1,19.8-19.8l20.42,20.41,50.07-55a14,14,0,0,1,20.71,18.84l-60,65.9a14,14,0,0,1-10,4.58Z"/></g></svg>