<svg xmlns="http://www.w3.org/2000/svg" xmlns:xlink="http://www.w3.org/1999/xlink" viewBox="0 0 400 400"><defs><style>.cls-1{fill:url(#linear-gradient);}.cls-2{fill:url(#linear-gradient-2);}.cls-3{fill:url(#linear-gradient-3);}.cls-4{fill:url(#linear-gradient-4);}.cls-5{fill:url(#linear-gradient-5);}.cls-6,.cls-7{opacity:0.1;}.cls-6{fill:url(#linear-gradient-6);}.cls-7{fill:url(#linear-gradient-7);}.cls-8{fill:url(#linear-gradient-8);}.cls-9{fill:url(#linear-gradient-9);}.cls-10{fill:url(#linear-gradient-10);}.cls-11{fill:url(#linear-gradient-11);}.cls-12{fill:url(#linear-gradient-12);}.cls-13{fill:url(#linear-gradient-13);}.cls-14{fill:url(#linear-gradient-14);}.cls-15{fill:url(#linear-gradient-15);}.cls-16{fill:url(#linear-gradient-16);}.cls-17{fill:url(#linear-gradient-17);}</style><linearGradient id="linear-gradient" x1="307.17" y1="200.29" x2="91.68" y2="199.78" gradientUnits="userSpaceOnUse"><stop offset="0" stop-color="#3c5494"/><stop offset="0.86" stop-color="#2b3f7e"/></linearGradient><linearGradient id="linear-gradient-2" x1="187.1" y1="171.67" x2="262.97" y2="307.1" gradientUnits="userSpaceOnUse"><stop offset="0" stop-color="#3c5494"/><stop offset="1" stop-color="#2b3f7e"/></linearGradient><linearGradient id="linear-gradient-3" x1="110.54" y1="201.76" x2="296.5" y2="201.76" gradientUnits="userSpaceOnUse"><stop offset="0" stop-color="#00e7b2"/><stop offset="1" stop-color="#16dbab"/></linearGradient><linearGradient id="linear-gradient-4" x1="142.14" y1="201.66" x2="278.03" y2="201.66" gradientUnits="userSpaceOnUse"><stop offset="0" stop-color="#ff4974"/><stop offset="1" stop-color="#ee1950"/></linearGradient><linearGradient id="linear-gradient-5" x1="181.24" y1="200.25" x2="249.65" y2="200.25" gradientUnits="userSpaceOnUse"><stop offset="0" stop-color="#ffcf0d"/><stop offset="1" stop-color="#ffa415"/></linearGradient><linearGradient id="linear-gradient-6" x1="213.09" y1="182.41" x2="331.14" y2="182.41" gradientUnits="userSpaceOnUse"><stop offset="0" stop-color="#1d1d1b"/><stop offset="0.99" stop-color="#2b3f7e" stop-opacity="0"/></linearGradient><linearGradient id="linear-gradient-7" x1="211.72" y1="259.56" x2="320.66" y2="259.56" xlink:href="#linear-gradient-6"/><linearGradient id="linear-gradient-8" x1="296.05" y1="127.35" x2="322.26" y2="103.35" xlink:href="#linear-gradient-5"/><linearGradient id="linear-gradient-9" x1="277.33" y1="108.61" x2="303.54" y2="84.61" xlink:href="#linear-gradient-5"/><linearGradient id="linear-gradient-10" x1="226.93" y1="181" x2="276.46" y2="129.17" gradientUnits="userSpaceOnUse"><stop offset="0" stop-color="#fffcf8"/><stop offset="0.35" stop-color="#bac8e1"/></linearGradient><linearGradient id="linear-gradient-11" x1="212.51" y1="154.98" x2="291.06" y2="154.98" gradientUnits="userSpaceOnUse"><stop offset="0.45" stop-color="#fffcf8"/><stop offset="1" stop-color="#bac8e1"/></linearGradient><linearGradient id="linear-gradient-12" x1="300.81" y1="85.19" x2="296.52" y2="131.16" xlink:href="#linear-gradient-5"/><linearGradient id="linear-gradient-13" x1="-1292.39" y1="-2300" x2="-1266.18" y2="-2324" gradientTransform="translate(-1215.94 2416.26) rotate(64.54)" xlink:href="#linear-gradient-5"/><linearGradient id="linear-gradient-14" x1="-1310.31" y1="-2318.67" x2="-1284.1" y2="-2342.67" gradientTransform="translate(-1215.94 2416.26) rotate(64.54)" xlink:href="#linear-gradient-5"/><linearGradient id="linear-gradient-15" x1="-1360.71" y1="-2246.28" x2="-1311.17" y2="-2298.11" gradientTransform="translate(-1215.94 2416.26) rotate(64.54)" xlink:href="#linear-gradient-10"/><linearGradient id="linear-gradient-16" x1="-1375.13" y1="-2272.3" x2="-1296.57" y2="-2272.3" gradientTransform="translate(-1215.94 2416.26) rotate(64.54)" xlink:href="#linear-gradient-11"/><linearGradient id="linear-gradient-17" x1="-1286.83" y1="-2342.09" x2="-1291.11" y2="-2296.12" gradientTransform="translate(-1215.94 2416.26) rotate(64.54)" xlink:href="#linear-gradient-5"/></defs><g id="Layer_16" data-name="Layer 16"><ellipse class="cls-1" cx="185.97" cy="200" rx="128.17" ry="134.88"/><path class="cls-2" d="M331.14,200a140.79,140.79,0,0,1-7.95,46.85q-1.19,3.36-2.53,6.63a135.27,135.27,0,0,1-33.49,48.21c-22.52,20.67-52,33.19-84.2,33.19C132.18,334.88,74.8,274.49,74.8,200S132.18,65.12,203,65.12c38.53,0,73.09,17.89,96.58,46.22A138.47,138.47,0,0,1,331.14,200Z"/><ellipse class="cls-3" cx="203.52" cy="201.76" rx="92.98" ry="100.42"/><ellipse class="cls-4" cx="210.09" cy="201.66" rx="67.95" ry="72.94"/><ellipse class="cls-5" cx="215.45" cy="200.25" rx="34.2" ry="35.61"/><path class="cls-6" d="M331.14,200a140.45,140.45,0,0,1-10.48,53.48L255.82,234.1l-42.73-42.21,86.46-80.55A138.47,138.47,0,0,1,331.14,200Z"/><path class="cls-7" d="M320.66,253.48a127.89,127.89,0,0,1-6.2,13.09,141,141,0,0,1-11.93,18.09,149.15,149.15,0,0,1-15.36,17l-75.45-84.26Z"/><path class="cls-8" d="M321.29,103.55c3,4.86,3.31,12.38-6.31,20.3-12.61,10.39-32.42,6.82-33.46,6.63l31.34-32.42C315,97.59,319,99.77,321.29,103.55Z"/><path class="cls-9" d="M300.9,84.13c4.14,3.35,6.79,8.36,6.54,10.84l-30.2,31.83c-.3-1.26-6.05-25.26,3.35-38.49C287.77,78.21,295.56,79.8,300.9,84.13Z"/><line class="cls-10" x1="287.07" y1="119.71" x2="216.51" y2="190.26"/><path class="cls-11" d="M216.51,194.26a4,4,0,0,1-2.83-6.83l70.56-70.55a4,4,0,0,1,5.65,5.66l-70.55,70.55A4,4,0,0,1,216.51,194.26Z"/><path class="cls-12" d="M281.07,129.7a4,4,0,0,1-2.82-6.83l35.19-35.06a4,4,0,0,1,5.64,5.67l-35.19,35.05A4,4,0,0,1,281.07,129.7Z"/><path class="cls-13" d="M337.37,273.13c-3.1,4.8-9.75,8.31-21,3-14.8-6.92-20.1-26.34-20.38-27.36l42.75,14.36C340.05,264.91,339.78,269.41,337.37,273.13Z"/><path class="cls-14" d="M346.41,247.13c-1.25,5.18-4.62,9.73-7,10.56l-41.73-13.57c1-.82,20.2-16.33,36.19-13.53C346.11,232.73,348,240.45,346.41,247.13Z"/><line class="cls-15" x1="308.34" y1="249.94" x2="214.31" y2="216.57"/><path class="cls-16" d="M308.34,253.94a4.24,4.24,0,0,1-1.34-.23l-94-33.37a4,4,0,1,1,2.68-7.54l94,33.37a4,4,0,0,1-1.34,7.77Z"/><path class="cls-17" d="M347.13,267.8a4.19,4.19,0,0,1-1.34-.23L299,250.87a4,4,0,0,1,2.69-7.54L348.48,260a4,4,0,0,1-1.35,7.77Z"/></g></svg>