<svg xmlns="http://www.w3.org/2000/svg" xmlns:xlink="http://www.w3.org/1999/xlink" viewBox="0 0 400 400"><defs><style>.cls-1{fill:url(#linear-gradient);}.cls-2{fill:url(#linear-gradient-2);}.cls-3{fill:url(#linear-gradient-3);}.cls-4{fill:url(#linear-gradient-4);}.cls-5{fill:url(#linear-gradient-5);}.cls-6{fill:url(#linear-gradient-6);}.cls-7{fill:url(#linear-gradient-7);}.cls-8{fill:url(#linear-gradient-8);}.cls-9{fill:url(#linear-gradient-9);}.cls-10{fill:url(#linear-gradient-10);}.cls-11{fill:url(#linear-gradient-11);}</style><linearGradient id="linear-gradient" x1="115.18" y1="153.37" x2="294.48" y2="153.37" gradientUnits="userSpaceOnUse"><stop offset="0.46" stop-color="#fffcf8"/><stop offset="1" stop-color="#bac8e1"/></linearGradient><linearGradient id="linear-gradient-2" x1="116.39" y1="258.97" x2="295.68" y2="258.97" xlink:href="#linear-gradient"/><linearGradient id="linear-gradient-3" x1="182.81" y1="173.21" x2="202.12" y2="296.05" gradientUnits="userSpaceOnUse"><stop offset="0" stop-color="#00e7b2"/><stop offset="1" stop-color="#16dbab"/></linearGradient><linearGradient id="linear-gradient-4" x1="183.77" y1="235.92" x2="190.93" y2="235.92" xlink:href="#linear-gradient-3"/><linearGradient id="linear-gradient-5" x1="213.39" y1="226.39" x2="220.56" y2="226.39" xlink:href="#linear-gradient-3"/><linearGradient id="linear-gradient-6" x1="181.25" y1="223.5" x2="187.37" y2="223.5" xlink:href="#linear-gradient-3"/><linearGradient id="linear-gradient-7" x1="230.58" y1="241.08" x2="236.69" y2="241.08" xlink:href="#linear-gradient-3"/><linearGradient id="linear-gradient-8" x1="224.74" y1="223.93" x2="236.42" y2="223.93" xlink:href="#linear-gradient-3"/><linearGradient id="linear-gradient-9" x1="108.74" y1="96.07" x2="303.32" y2="96.07" gradientUnits="userSpaceOnUse"><stop offset="0.25" stop-color="#3c5494"/><stop offset="1" stop-color="#2b3f7e"/></linearGradient><linearGradient id="linear-gradient-10" x1="108.74" y1="317.85" x2="303.32" y2="317.85" xlink:href="#linear-gradient-9"/><linearGradient id="linear-gradient-11" x1="168.86" y1="124.89" x2="241.55" y2="124.89" gradientUnits="userSpaceOnUse"><stop offset="0" stop-color="#ffcf0d"/><stop offset="1" stop-color="#ffa415"/></linearGradient></defs><g id="Layer_20" data-name="Layer 20"><path class="cls-1" d="M188,204.26a39.66,39.66,0,0,0,35.1,0c9.33-3.74,36.28-15.93,54.69-45.92a113.92,113.92,0,0,0,16.67-60H115.18a135,135,0,0,0,14,47.09C147.13,180.34,175.62,197.69,188,204.26Z"/><path class="cls-2" d="M222.85,208.08a39.66,39.66,0,0,0-35.1,0c-9.33,3.74-36.27,15.93-54.69,45.92a113.92,113.92,0,0,0-16.67,60H295.68a134.81,134.81,0,0,0-14-47.09C263.73,232,235.24,214.65,222.85,208.08Z"/><path class="cls-3" d="M274.88,317.85H135.36c1-18.38,6.92-29.44,12-36.08,8.28-10.83,17.75-14.37,43.88-37.44,3.88-3.43,9.89-8.88,11.7-17.55a28.79,28.79,0,0,0-2.05-17.11c-3.51-8-8.84-10.51-19.6-19.31-14.8-12.1-22.2-18.15-21.2-22.81,2-9.56,36-9.41,46.65-9.36,9.57,0,43.57.2,45.39,9.49.6,3-4.68,7.58-15.27,16.54C220,198.47,213.61,201,210.28,209.48c-1.54,3.92-2.71,9.88-.63,18.47a64.09,64.09,0,0,0,6.24,13.17c13,21,31.26,22.65,44.71,38C266.43,285.73,273.42,297.27,274.88,317.85Z"/><circle class="cls-4" cx="187.35" cy="235.92" r="3.58"/><circle class="cls-5" cx="216.97" cy="226.39" r="3.58"/><circle class="cls-6" cx="184.31" cy="223.5" r="3.06"/><circle class="cls-7" cx="233.63" cy="241.08" r="3.06"/><circle class="cls-8" cx="230.58" cy="223.93" r="5.84"/><rect class="cls-9" x="108.74" y="85.21" width="194.58" height="21.72" rx="10.86"/><rect class="cls-10" x="108.74" y="306.99" width="194.58" height="21.72" rx="10.86"/><path class="cls-11" d="M219.81,53.55c-2.88-1.09-8,7.69-21.13,27.5-22.79,34.34-33,46.42-29,51.77,4.24,5.6,18.58-3.54,24.9,3.45,3.89,4.3,1.06,10.6-2.31,33-2.6,17.29-3.9,25.93-1.53,27,2.59,1.16,7.8-6.29,29.83-38.82,15.7-23.19,23.49-34.87,20.18-39-4-5.06-18.1,4.09-24-2.19-3.86-4.08-.67-10.85,2.11-27.43C220.07,81.54,224.45,55.32,219.81,53.55Z"/></g></svg>