<svg xmlns="http://www.w3.org/2000/svg" viewBox="0 0 4680 3120"><defs><style>.cls-1,.cls-8{fill:#fff;}.cls-1{opacity:0;}.cls-2{fill:#daecf7;}.cls-3{fill:#abbc64;}.cls-4{fill:#8c9b37;}.cls-5{fill:#ffaf02;}.cls-6{fill:#ff9203;}.cls-7{fill:#6847b8;}.cls-9{fill:#011949;}.cls-10{fill:#e1e7ff;}.cls-11{fill:#472f91;}.cls-12{fill:#eef1ff;}.cls-13{fill:#b5bfe2;}.cls-14{fill:#3175d6;}.cls-15{fill:#86bffc;}.cls-16{fill:#0e5ead;}.cls-17{fill:#f08557;}.cls-18{fill:#8c8226;}.cls-19{fill:#685e16;}.cls-20{fill:#9aa163;}.cls-21{fill:#848943;}.cls-22{fill:#364547;}.cls-23{fill:#c7c365;}.cls-24{fill:#ada43a;}.cls-25{fill:#3c7219;}.cls-26{fill:#e2714d;}.cls-27{fill:#a3523a;}.cls-28{fill:#d36d11;}.cls-29{fill:#f5ae97;}.cls-30{fill:#ed856e;}.cls-31{fill:#072c35;}.cls-32{fill:#cb6655;}.cls-33{fill:#131e36;}.cls-34{fill:#044275;}.cls-35{fill:#002035;}.cls-36{fill:#b2dbf9;}.cls-37{fill:#06252c;}</style></defs><title>09</title><g id="_09" data-name="09"><rect class="cls-1" width="4680" height="3120"/><path class="cls-2" d="M3779.78,1501.77c-97.36-276.59-327.17-270.15-542.65-749.35s-779.68-421.11-779.68-421.11c-362.31-17.39-785.48,139.12-944.9,522C1364.06,1210,1057.13,1274.15,1079,1766.16c1.61,36.2,5,74.72,10.36,115.84,78.26,600,600,608.68,600,608.68s969.69,286.19,1580.75,77.14c477-163.19,579.2-552.72,554.75-847.33C3818,1637.72,3801.13,1562.44,3779.78,1501.77Z"/><path class="cls-3" d="M3464.58,2473.72c-209.94-35.7-509.32-60.75-850.34-68.5-73.19-1.66-148.31-2.52-224.87-2.52C1621.46,2402.7,999,2489.6,999,2596.8c0,88,419.68,162.36,995,186.14,125.34,5.19,258.08,8,395.46,8,428.16,0,811.11-27,1066.17-69.51,202.38-33.71,324.24-77.16,324.24-124.6C3779.78,2550.08,3661.55,2507.22,3464.58,2473.72Z"/><path class="cls-4" d="M3464.58,2473.72c-209.94-35.7-509.32-60.75-850.34-68.5-338,11.37-591.19,58.15-591.19,114.13,0,64.48,336,116.75,750.5,116.75s750.5-52.27,750.5-116.75C3524.05,2503.16,3502.87,2487.74,3464.58,2473.72Z"/><ellipse class="cls-4" cx="2113.89" cy="2664.27" rx="403.03" ry="63.41"/><ellipse class="cls-4" cx="1303.53" cy="2565.61" rx="176.52" ry="31.74"/><path class="cls-5" d="M3571.07,734.53h0a24,24,0,0,0-15.91-6H3133a24.14,24.14,0,0,0-24.07,24.07v288.88a24.15,24.15,0,0,0,24.07,24.07h422.2a24.14,24.14,0,0,0,24.07-24.07V752.54A24,24,0,0,0,3571.07,734.53Z"/><path class="cls-6" d="M3571.07,734.53l-457.53,321.06a24.06,24.06,0,0,0,19.42,9.9h422.2a24.14,24.14,0,0,0,24.07-24.07V752.54A24,24,0,0,0,3571.07,734.53Z"/><path class="cls-7" d="M3273.46,927.44c-3.32-1.31-7.21-.79-11.64,1.56a53.38,53.38,0,0,1-13.41,5.2,58.59,58.59,0,0,1-13.63,1.67q-21,0-31.71-12.27t-10.71-34.94q0-22.67,10.71-34.83t31.71-12.17a58.94,58.94,0,0,1,13.94,1.67,47,47,0,0,1,13.1,5.4q6.24,3.54,11.23,1.46a13.82,13.82,0,0,0,7.38-7.07,15.16,15.16,0,0,0,.94-10.61q-1.47-5.61-7.91-9.35a72.31,72.31,0,0,0-18.61-7.28,86.09,86.09,0,0,0-21.1-2.71q-23.72,0-40.56,9.36a64,64,0,0,0-25.89,26.31q-9,16.95-9,39.82,0,23.08,9,40A64,64,0,0,0,3193.19,955q16.84,9.36,40.56,9.36a86.8,86.8,0,0,0,22.14-2.92,63.39,63.39,0,0,0,19-8.11q5.82-3.52,7.07-9a14.67,14.67,0,0,0-1.14-10.19A13.69,13.69,0,0,0,3273.46,927.44Z"/><path class="cls-7" d="M3394.07,891.57h-30.36V861.84q0-11.45-11.23-11.44t-11.23,11.44v29.73h-30.36q-11,0-11,10.82t11,10.81h30.36v31q0,11.43,11.23,11.43t11.23-11.43v-31h30.36q11,0,11-10.81T3394.07,891.57Z"/><path class="cls-7" d="M3518.84,891.57h-30.36V861.84q0-11.45-11.23-11.44T3466,861.84v29.73h-30.36q-11,0-11,10.82t11,10.81H3466v31q0,11.43,11.23,11.43t11.23-11.43v-31h30.36q11,0,11-10.81T3518.84,891.57Z"/><path class="cls-8" d="M3262.54,927.44c-3.32-1.31-7.21-.79-11.64,1.56a53.3,53.3,0,0,1-13.42,5.2,58.44,58.44,0,0,1-13.62,1.67q-21,0-31.71-12.27t-10.71-34.94q0-22.67,10.71-34.83t31.71-12.17a58.94,58.94,0,0,1,13.94,1.67,47,47,0,0,1,13.1,5.4q6.24,3.54,11.23,1.46a13.89,13.89,0,0,0,7.38-7.07,15.16,15.16,0,0,0,.94-10.61q-1.47-5.61-7.91-9.35a72.31,72.31,0,0,0-18.61-7.28,86.11,86.11,0,0,0-21.11-2.71q-23.7,0-40.55,9.36a64,64,0,0,0-25.89,26.31q-9,16.95-9,39.82,0,23.08,9,40A64,64,0,0,0,3182.27,955q16.84,9.36,40.55,9.36a86.82,86.82,0,0,0,22.15-2.92,63.39,63.39,0,0,0,19-8.11q5.82-3.52,7.07-9a14.61,14.61,0,0,0-1.15-10.19A13.63,13.63,0,0,0,3262.54,927.44Z"/><path class="cls-8" d="M3383.15,891.57h-30.36V861.84q0-11.45-11.23-11.44t-11.23,11.44v29.73H3300q-11,0-11,10.82t11,10.81h30.36v31q0,11.43,11.23,11.43t11.23-11.43v-31h30.36q11,0,11-10.81T3383.15,891.57Z"/><path class="cls-8" d="M3507.92,891.57h-30.36V861.84q0-11.45-11.23-11.44t-11.23,11.44v29.73h-30.36q-11,0-11,10.82t11,10.81h30.36v31q0,11.43,11.23,11.43t11.23-11.43v-31h30.36q11,0,11-10.81T3507.92,891.57Z"/><path class="cls-9" d="M2935.14,925.66l-72.48-37.26V488.22a72,72,0,0,0-72.07-72.07H1843.43a72.15,72.15,0,0,0-72.08,72.07v661.39a71.5,71.5,0,0,0,16.53,46v2.27l11.76,9a71.49,71.49,0,0,0,43.79,14.82h947.16a72.16,72.16,0,0,0,72.07-72.08V994.13h55.91a36.24,36.24,0,0,0,16.57-68.47Z"/><path class="cls-7" d="M2902.84,925.66l-72.48-37.26V488.22a72,72,0,0,0-72.07-72.07H1811.13a72.16,72.16,0,0,0-72.08,72.07v661.39a71.5,71.5,0,0,0,16.53,46l11.77,11.28a71.44,71.44,0,0,0,43.78,14.82h947.16a72.16,72.16,0,0,0,72.07-72.08V994.13h55.91a36.24,36.24,0,0,0,16.57-68.47Z"/><path class="cls-10" d="M2889.13,952.34l-88.77-45.63V488.22a42,42,0,0,0-42.07-42.07H1811.13a42.07,42.07,0,0,0-42.08,42.07v661.39a42,42,0,0,0,16.53,33.43h0a41.89,41.89,0,0,0,25.55,8.64h947.16a42.08,42.08,0,0,0,42.07-42.08V964.13h85.91A6.24,6.24,0,0,0,2889.13,952.34Z"/><path class="cls-11" d="M2758.29,446.15H1811.13a42.07,42.07,0,0,0-42.08,42.07v661.39a42,42,0,0,0,16.53,33.43h0a41.89,41.89,0,0,0,25.55,8.64h947.16a42.08,42.08,0,0,0,42.07-42.08V488.22a42,42,0,0,0-42.07-42.07Z"/><path class="cls-12" d="M2758.29,446.15H1833.45a42.07,42.07,0,0,0-42.08,42.07v661.39A42,42,0,0,0,1807.9,1183h0a41.89,41.89,0,0,0,25.55,8.64h924.84a42.08,42.08,0,0,0,42.07-42.08V488.22a42,42,0,0,0-42.07-42.07Z"/><path class="cls-10" d="M2889.13,952.34l-88.77-45.63V488.22l-989.23,703.47h947.16a42.08,42.08,0,0,0,42.07-42.08V964.13h85.91A6.24,6.24,0,0,0,2889.13,952.34Z"/><path class="cls-13" d="M2327.15,495.53h-459a10.59,10.59,0,0,0-10.56,10.56h0a10.59,10.59,0,0,0,10.56,10.55h459a10.58,10.58,0,0,0,10.55-10.55h0A10.59,10.59,0,0,0,2327.15,495.53Z"/><rect class="cls-13" x="1857.62" y="691.41" width="210.23" height="110.03" rx="15.95"/><rect class="cls-13" x="1857.62" y="587.69" width="376.03" height="21.11" rx="10.56"/><path class="cls-13" d="M2349.71,831.91h-419a10.59,10.59,0,0,0-10.56,10.56h0A10.59,10.59,0,0,0,1930.75,853h419a10.59,10.59,0,0,0,10.56-10.55h0A10.59,10.59,0,0,0,2349.71,831.91Z"/><path class="cls-13" d="M1988.06,629.34a3.33,3.33,0,0,0-4.63.79l-23.8,33.56a3.32,3.32,0,0,0,5.42,3.85l23.8-33.57A3.33,3.33,0,0,0,1988.06,629.34Z"/><path class="cls-13" d="M1944.49,636.88h-76.31a10.59,10.59,0,0,0-10.56,10.55h0A10.59,10.59,0,0,0,1868.18,658h76.31a10.59,10.59,0,0,0,10.56-10.56h0A10.59,10.59,0,0,0,1944.49,636.88Z"/><path class="cls-13" d="M2142.75,636.88h-132a10.56,10.56,0,0,0,0,21.11h132a10.56,10.56,0,1,0,0-21.11Z"/><path class="cls-13" d="M2090.15,538.58h-222a10.56,10.56,0,1,0,0,21.11h222a10.56,10.56,0,1,0,0-21.11Z"/><circle class="cls-13" cx="1878.06" cy="842.47" r="17.68"/><path class="cls-13" d="M2171.47,904.29H1930.75a10.56,10.56,0,1,0,0,21.12h240.72a10.56,10.56,0,0,0,0-21.12Z"/><circle class="cls-13" cx="1878.06" cy="914.85" r="17.68"/><path class="cls-13" d="M2005.92,976.68h-75.17a10.59,10.59,0,0,0-10.56,10.56h0a10.59,10.59,0,0,0,10.56,10.55h75.17a10.59,10.59,0,0,0,10.56-10.55h0A10.59,10.59,0,0,0,2005.92,976.68Z"/><circle class="cls-13" cx="1878.06" cy="987.24" r="17.68"/><rect class="cls-13" x="2409.86" y="592.59" width="376.82" height="506.24" rx="25.24"/><rect class="cls-8" x="2389.37" y="571.47" width="376.82" height="506.24" rx="25.24"/><path class="cls-9" d="M2458.81,643.64q-4.67,0-7.18,2.58c-1.68,1.72-2.52,4.18-2.52,7.36v54.27q0,9.95-10.07,10.58l-3.65.25a6.69,6.69,0,0,0-5,2.39,7.84,7.84,0,0,0-1.7,5,8.37,8.37,0,0,0,2.39,6.17,8.62,8.62,0,0,0,6.67,2.26l4.41-.25q26.45-1.63,26.44-26.69v-54Q2468.63,643.65,2458.81,643.64Z"/><path class="cls-9" d="M2536,651.82a14.56,14.56,0,0,0-4.66-6.23,11.54,11.54,0,0,0-12.84,0,15.39,15.39,0,0,0-4.78,6.23l-32.24,70.64q-2.38,5.16-.12,8.69t7.55,3.52a8.64,8.64,0,0,0,6-1.95,18.39,18.39,0,0,0,4-6.36l5.17-12.09h41.42l5.29,12.09a16.6,16.6,0,0,0,4.09,6.3,9.82,9.82,0,0,0,6.61,2q4.9,0,7.11-3.46t-.18-8.75ZM2510.68,699l14-33.49h.25L2539.14,699Z"/><path class="cls-9" d="M2645.41,643.64a9.59,9.59,0,0,0-6.36,2,14.1,14.1,0,0,0-3.84,5.6l-24.68,57.29-24.68-57.16a16,16,0,0,0-3.84-5.73q-2.21-2-6.48-2-5.3,0-7.87,3.71t-.07,9.38l31.73,70.51a13,13,0,0,0,4.22,5.61,11.22,11.22,0,0,0,6.61,1.82,10.89,10.89,0,0,0,6.61-1.82,14.42,14.42,0,0,0,4.22-5.61l31.73-70.51q2.52-5.65.06-9.38A8.25,8.25,0,0,0,2645.41,643.64Z"/><path class="cls-9" d="M2706.47,651.82a14.56,14.56,0,0,0-4.66-6.23,11.54,11.54,0,0,0-12.84,0,15.39,15.39,0,0,0-4.78,6.23L2652,722.46q-2.38,5.16-.12,8.69t7.55,3.52a8.64,8.64,0,0,0,6-1.95,18.25,18.25,0,0,0,4-6.36l5.17-12.09H2716l5.29,12.09a16.6,16.6,0,0,0,4.09,6.3,9.82,9.82,0,0,0,6.61,2c3.27,0,5.65-1.15,7.12-3.46s1.4-5.23-.19-8.75ZM2681.16,699l14-33.49h.25L2709.62,699Z"/><path class="cls-14" d="M2449.28,643.64q-4.67,0-7.18,2.58c-1.68,1.72-2.52,4.18-2.52,7.36v54.27q0,9.95-10.07,10.58l-3.65.25a6.67,6.67,0,0,0-5,2.39,7.84,7.84,0,0,0-1.7,5,8.33,8.33,0,0,0,2.39,6.17,8.62,8.62,0,0,0,6.67,2.26l4.41-.25q26.43-1.63,26.44-26.69v-54Q2459.1,643.65,2449.28,643.64Z"/><path class="cls-14" d="M2526.46,651.82a14.56,14.56,0,0,0-4.66-6.23,11.54,11.54,0,0,0-12.84,0,15.49,15.49,0,0,0-4.79,6.23l-32.23,70.64c-1.59,3.44-1.64,6.34-.12,8.69s4,3.52,7.55,3.52a8.65,8.65,0,0,0,6-1.95,18.39,18.39,0,0,0,4-6.36l5.16-12.09H2536l5.29,12.09a16.48,16.48,0,0,0,4.09,6.3,9.8,9.8,0,0,0,6.61,2q4.91,0,7.11-3.46t-.19-8.75ZM2501.15,699l14-33.49h.25L2529.61,699Z"/><path class="cls-14" d="M2635.87,643.64a9.58,9.58,0,0,0-6.35,2,14.22,14.22,0,0,0-3.85,5.6L2601,708.48l-24.68-57.16a16,16,0,0,0-3.84-5.73q-2.2-2-6.49-2c-3.52,0-6.15,1.24-7.86,3.71s-1.75,5.61-.07,9.38l31.73,70.51a13,13,0,0,0,4.22,5.61,11.22,11.22,0,0,0,6.61,1.82,10.89,10.89,0,0,0,6.61-1.82,14.42,14.42,0,0,0,4.22-5.61l31.73-70.51c1.67-3.77,1.7-6.9.06-9.38A8.25,8.25,0,0,0,2635.87,643.64Z"/><path class="cls-14" d="M2696.94,651.82a14.56,14.56,0,0,0-4.66-6.23,11.54,11.54,0,0,0-12.84,0,15.49,15.49,0,0,0-4.79,6.23l-32.23,70.64c-1.59,3.44-1.64,6.34-.12,8.69s4,3.52,7.55,3.52a8.65,8.65,0,0,0,6-1.95,18.39,18.39,0,0,0,4-6.36l5.16-12.09h41.43l5.29,12.09a16.6,16.6,0,0,0,4.09,6.3,9.8,9.8,0,0,0,6.61,2q4.9,0,7.11-3.46t-.19-8.75ZM2671.63,699l14-33.49h.25L2700.09,699Z"/><rect class="cls-2" x="2416.21" y="759.64" width="326.98" height="295.78" rx="12"/><path class="cls-15" d="M2318.71,488.22h-459a10.59,10.59,0,0,0-10.56,10.55h0a10.59,10.59,0,0,0,10.56,10.56h459a10.59,10.59,0,0,0,10.55-10.56h0A10.58,10.58,0,0,0,2318.71,488.22Z"/><rect class="cls-15" x="1849.18" y="684.09" width="210.23" height="110.03" rx="15.95"/><path class="cls-16" d="M2214.66,580.37H1859.74a10.56,10.56,0,1,0,0,21.12h354.92a10.56,10.56,0,0,0,0-21.12Z"/><path class="cls-14" d="M2341.27,824.6h-419a10.56,10.56,0,1,0,0,21.11h419a10.56,10.56,0,1,0,0-21.11Z"/><path class="cls-16" d="M1979.62,622a3.32,3.32,0,0,0-4.63.79l-23.8,33.56a3.32,3.32,0,1,0,5.42,3.84l23.8-33.56A3.33,3.33,0,0,0,1979.62,622Z"/><path class="cls-17" d="M1936.05,629.56h-76.31a10.56,10.56,0,1,0,0,21.11h76.31a10.56,10.56,0,1,0,0-21.11Z"/><path class="cls-3" d="M2134.31,629.56h-132a10.59,10.59,0,0,0-10.55,10.56h0a10.58,10.58,0,0,0,10.55,10.55h132a10.58,10.58,0,0,0,10.55-10.55h0A10.59,10.59,0,0,0,2134.31,629.56Z"/><path class="cls-15" d="M2081.71,531.26h-222a10.56,10.56,0,1,0,0,21.12h222a10.56,10.56,0,0,0,0-21.12Z"/><circle class="cls-17" cx="1869.62" cy="835.15" r="17.68"/><path class="cls-14" d="M2163,897H1922.31a10.56,10.56,0,1,0,0,21.11H2163a10.56,10.56,0,0,0,0-21.11Z"/><circle class="cls-17" cx="1869.62" cy="907.54" r="17.68"/><rect class="cls-14" x="1911.75" y="969.37" width="96.29" height="21.11" rx="10.56"/><circle class="cls-17" cx="1869.62" cy="979.92" r="17.68"/><path class="cls-18" d="M1329.45,1406.62c-32.55-58.78-88.65-162.57-88.65-162.57,1.48,25.93-12.72,104.33-33.54,227s21.8,274,21.8,274l6.23,102.79,101.23,46.24s55.11-67.44,55.29-70.2-7.09-64-7.09-64C1427.73,1640.85,1401.29,1536.33,1329.45,1406.62Z"/><path class="cls-19" d="M1313.72,1916.55l48.64-22.41C1297.34,1741,1255.82,1397,1255.82,1397,1255.57,1591.5,1313.72,1916.55,1313.72,1916.55Z"/><path class="cls-20" d="M1576.52,1605.19h0c-216.2,62.18-305.18,304.06-305.18,304.06l-.32,77.15-.33,85.65,29,4.78s11.66-11.8,29.13-27.46c27-24.09,67.69-57.29,100.67-70.17,54.33-21.25,139.39-103.71,204.22-251.58,2.3-5.2,4.65-10.17,7.09-14.89,66.64-130.48,187.11-97,187.11-97C1729.91,1583.79,1646.56,1585.05,1576.52,1605.19Z"/><path class="cls-21" d="M1271,1986.4l-.33,85.65,29,4.78s11.66-11.8,29.13-27.46c196.17-382.52,320-430.17,323.83-431.6C1465.14,1661.46,1320.08,1896.9,1271,1986.4Z"/><path class="cls-20" d="M1167.13,1596.56h0c-59-36.34-135-58.8-232.94-54.6,0,0,118.89.14,146.59,136.68,1,4.95,1.91,10.1,2.69,15.45,21.59,152,78.43,249.27,122.78,282.61,26.91,20.23,55.74,61,74.28,90,12,18.8,19.66,32.59,19.66,32.59l27.82,3,21.59-78.54L1369,1953S1349.27,1708.75,1167.13,1596.56Z"/><path class="cls-21" d="M1094.15,1588.62c3.19,2.3,104.39,77.58,186.34,478.07,12,18.8,19.66,32.59,19.66,32.59l27.82,3,21.59-78.54C1327.45,1929.27,1254.74,1676.55,1094.15,1588.62Z"/><path class="cls-22" d="M1318.39,2047.48s82.64-167.58,365.27-234.73C1683.66,1812.75,1413.6,1850.68,1318.39,2047.48Z"/><path class="cls-22" d="M1649.5,1773.5c-20.06,15-20.57,27.78-19.62,33.12a2.73,2.73,0,0,0,3.49,2.14c5.19-1.61,16.31-7.91,20.48-32.61A2.74,2.74,0,0,0,1649.5,1773.5Z"/><path class="cls-22" d="M1618.14,1781.66c-18.82,16.53-18.33,29.3-17,34.56a2.74,2.74,0,0,0,3.65,1.85c5-2,15.64-9.16,17.87-34.11A2.74,2.74,0,0,0,1618.14,1781.66Z"/><path class="cls-22" d="M1582.93,1795.6c-14.12,17.36-11.8,28.54-9.82,33a2.44,2.44,0,0,0,3.49,1.09c4.15-2.51,12.42-10.39,10.67-32.69A2.45,2.45,0,0,0,1582.93,1795.6Z"/><path class="cls-22" d="M1550.22,1806.91c-10.41,19.81-5.92,30.3-3.11,34.25a2.45,2.45,0,0,0,3.64.38c3.56-3.29,10.11-12.64,4-34.16A2.45,2.45,0,0,0,1550.22,1806.91Z"/><path class="cls-22" d="M1519.11,1820.61c-6.81,19.91-1.12,29,2.07,32.29a2.29,2.29,0,0,0,3.43-.18c2.84-3.57,7.58-13.21-1.22-32.33A2.31,2.31,0,0,0,1519.11,1820.61Z"/><path class="cls-22" d="M1485.18,1829.45a2.31,2.31,0,0,0-3.57,2.37c4.34,20.6,13.89,25.52,18.29,26.69a2.3,2.3,0,0,0,2.87-1.91C1503.38,1852.08,1502.52,1841.38,1485.18,1829.45Z"/><path class="cls-22" d="M1649.09,1833.32a2.73,2.73,0,0,0-1.47,3.82c2.52,4.82,10.72,14.64,35.8,14.3a2.75,2.75,0,0,0,1.83-4.77C1666.86,1829.63,1654.18,1831.42,1649.09,1833.32Z"/><path class="cls-22" d="M1620.76,1843.37a2.74,2.74,0,0,0-1.77,3.7c2.13,5,9.55,15.43,34.57,17a2.75,2.75,0,0,0,2.2-4.61C1638.76,1841.08,1626,1841.88,1620.76,1843.37Z"/><path class="cls-22" d="M1591.3,1851.42a2.44,2.44,0,0,0-2.11,3c1.14,4.72,6.12,15,27.92,20.15a2.45,2.45,0,0,0,2.62-3.73C1607.49,1852.07,1596.12,1850.88,1591.3,1851.42Z"/><path class="cls-22" d="M1563.53,1857.78a2.45,2.45,0,0,0-2.66,2.52c.18,4.85,3,15.92,23.38,25.27a2.46,2.46,0,0,0,3.31-3.14C1579.27,1861.62,1568.36,1858.21,1563.53,1857.78Z"/><path class="cls-22" d="M1540.41,1870.11a2.44,2.44,0,0,0-3.29,1.6c-1.3,4.67-1.93,16.09,14.64,31.16a2.46,2.46,0,0,0,4.1-2C1554.26,1878.53,1544.89,1872,1540.41,1870.11Z"/><path class="cls-22" d="M1512.21,1881.36a2.45,2.45,0,0,0-3.43,1.29c-1.73,4.53-3.44,15.83,11.63,32.4a2.45,2.45,0,0,0,4.27-1.6C1525.19,1891.06,1516.49,1883.65,1512.21,1881.36Z"/><path class="cls-22" d="M959,1614c308,206.19,332.18,443.38,332.18,443.38C1265,1779.68,959,1614,959,1614Z"/><path class="cls-22" d="M1010.94,1583.54c-6,31.39,4.48,43.88,10,48.11a3.49,3.49,0,0,0,5.13-1c3.51-6,8.58-21.46-8.71-48.34A3.51,3.51,0,0,0,1010.94,1583.54Z"/><path class="cls-22" d="M1044.73,1606.76c-8.46,30.82,1,44.09,6.16,48.74a3.49,3.49,0,0,0,5.19-.59c4-5.68,10.24-20.73-4.89-48.88A3.5,3.5,0,0,0,1044.73,1606.76Z"/><path class="cls-22" d="M1081.28,1638.08c-12,25.89-5.64,39-1.8,43.84a3.12,3.12,0,0,0,4.66.25c4.33-4.41,12.09-16.74,2.94-43.78A3.13,3.13,0,0,0,1081.28,1638.08Z"/><path class="cls-22" d="M1115.53,1665c-16.9,23-13.23,37.1-10.44,42.62a3.12,3.12,0,0,0,4.52,1.16c5.13-3.46,15.17-14,11.54-42.33A3.12,3.12,0,0,0,1115.53,1665Z"/><path class="cls-22" d="M1147.22,1694.55c-19,18.94-17.67,32.58-15.86,38.11a2.93,2.93,0,0,0,4,1.74c5.26-2.48,16.13-10.84,16.85-37.69A2.94,2.94,0,0,0,1147.22,1694.55Z"/><path class="cls-22" d="M1188.88,1722.4c-26.05,6.54-31.85,19-33.13,24.63a2.94,2.94,0,0,0,2.58,3.56c5.79.56,19.4-1.06,33.76-23.76A3,3,0,0,0,1188.88,1722.4Z"/><path class="cls-22" d="M942,1653.87a3.51,3.51,0,0,0,.06,6.51c29.83,11.58,44,3.5,49.17-1.14a3.49,3.49,0,0,0-.05-5.23C985.92,1649.48,971.57,1641.69,942,1653.87Z"/><path class="cls-22" d="M1020.57,1678.65c-5.58-4.11-20.5-10.75-49,3.71a3.51,3.51,0,0,0,.58,6.49c30.64,9.2,44.15,0,48.92-5A3.48,3.48,0,0,0,1020.57,1678.65Z"/><path class="cls-22" d="M1052.21,1701.4c-5.53-2.79-19.65-6.43-42.64,10.54a3.13,3.13,0,0,0,1.47,5.63c28.36,3.56,38.89-6.52,42.35-11.65A3.11,3.11,0,0,0,1052.21,1701.4Z"/><path class="cls-22" d="M1082.58,1721.37c-6-1.64-20.53-2.41-39.71,18.77a3.13,3.13,0,0,0,2.55,5.23c28.5-2.12,36.84-14.08,39.21-19.8A3.12,3.12,0,0,0,1082.58,1721.37Z"/><path class="cls-22" d="M1104.72,1746.41c-6.18.24-20.3,3.91-32.17,29.9a3.13,3.13,0,0,0,4,4.21c26.53-10.63,30.86-24.56,31.39-30.73A3.13,3.13,0,0,0,1104.72,1746.41Z"/><path class="cls-22" d="M1133.43,1772.43c-6.14.83-19.84,5.81-29.2,32.82a3.13,3.13,0,0,0,4.39,3.81c25.4-13.1,28.39-27.38,28.34-33.57A3.12,3.12,0,0,0,1133.43,1772.43Z"/><path class="cls-23" d="M1558.57,1928.92c-90.33-36.86-164,11.48-208.4,55.9a343.56,343.56,0,0,0-43.82,53.65,10.93,10.93,0,0,0-.66,11.06c2.4,4.37,7,5,10.45,4.67a19.15,19.15,0,0,0,6.64-1.93q8.88-4.32,17.75-7.7c158.36-60.93,312.16,89.5,358,140a7.09,7.09,0,0,0,12.3-5.48C1705.35,2124.08,1679.57,1978.28,1558.57,1928.92Z"/><path class="cls-24" d="M1306.35,2038.47a10.93,10.93,0,0,0-.66,11.06c2.4,4.37,7,5,10.45,4.67a19.15,19.15,0,0,0,6.64-1.93q8.88-4.32,17.75-7.7c166.46-158,293.66-2,305.1,13.49C1487.35,1838.12,1306.35,2038.47,1306.35,2038.47Z"/><path class="cls-24" d="M1645.63,2058.06l.33.46Z"/><path class="cls-25" d="M1646.44,2059.19c-.08-.12-.22-.34-.48-.67A6.72,6.72,0,0,1,1646.44,2059.19Z"/><path class="cls-23" d="M1146.34,1843.44c-137.16-34-252.67,76.86-292.56,121.46a7.67,7.67,0,0,0,7.25,12.63c72.27-14.92,302.55-48.24,402,106q5.58,8.61,10.58,18a20.79,20.79,0,0,0,4.57,5.92c2.87,2.49,7.23,4.87,12.11,2.59a11.82,11.82,0,0,0,6.48-10.09,372.3,372.3,0,0,0-4.06-74.8C1282.28,1958.05,1248.76,1868.85,1146.34,1843.44Z"/><path class="cls-24" d="M987.36,1900.91c16-4.8,230.55-64.21,275.7,182.6q5.58,8.61,10.58,18a20.79,20.79,0,0,0,4.57,5.92c2.87,2.49,7.23,4.87,12.11,2.59a11.82,11.82,0,0,0,6.48-10.09,372.3,372.3,0,0,0-4.06-74.8C1263.31,1943,1186.31,1834.57,987.36,1900.91Z"/><path class="cls-22" d="M1324,2216.51s-102.83-358.49,224.56-837C1548.53,1379.5,1200.48,1798,1324,2216.51Z"/><path class="cls-22" d="M1445.38,1367.36c-9.48,49.08,6.91,68.64,15.48,75.26a5.44,5.44,0,0,0,8-1.54c5.51-9.32,13.48-33.56-13.5-75.64A5.48,5.48,0,0,0,1445.38,1367.36Z"/><path class="cls-22" d="M1410,1421.5c-5.61,49.67,12.26,67.89,21.32,73.82a5.46,5.46,0,0,0,7.88-2.16c4.76-9.74,10.81-34.52-19.39-74.36A5.48,5.48,0,0,0,1410,1421.5Z"/><path class="cls-22" d="M1385,1485.53a4.89,4.89,0,0,0-8.24,3.83c2.43,44.59,20.87,58,29.73,61.86a4.87,4.87,0,0,0,6.62-3.08C1415.81,1538.87,1417.46,1516.14,1385,1485.53Z"/><path class="cls-22" d="M1350.89,1544.58a4.9,4.9,0,0,0-7.33,5.39c11.21,43.22,31.93,52.7,41.38,54.76a4.88,4.88,0,0,0,5.88-4.33C1391.68,1590.77,1388.81,1568.16,1350.89,1544.58Z"/><path class="cls-22" d="M1322,1605.88a4.61,4.61,0,0,0-6,6.07c16.67,38.56,37.31,44.38,46.39,44.92a4.57,4.57,0,0,0,4.84-4.87C1366.63,1642.92,1360.69,1622.32,1322,1605.88Z"/><path class="cls-22" d="M1277.73,1670.55a4.6,4.6,0,0,0-2.08,8.29c34,24.62,54.76,19.06,62.84,14.88a4.59,4.59,0,0,0,1.67-6.66C1335,1679.56,1319.36,1664.89,1277.73,1670.55Z"/><path class="cls-22" d="M1596.41,1427.46c-50.05-.48-66.36,19.17-71.34,28.81a5.46,5.46,0,0,0,3,7.62c10.18,3.74,35.49,7.23,72.07-26.93A5.49,5.49,0,0,0,1596.41,1427.46Z"/><path class="cls-22" d="M1570.08,1486c-49.86-4.41-67.66,13.91-73.38,23.12a5.47,5.47,0,0,0,2.36,7.84c9.85,4.52,34.8,10,74-21.2A5.49,5.49,0,0,0,1570.08,1486Z"/><path class="cls-22" d="M1532,1551.1c-43.26-11.28-61.65,2.21-68.06,9.48a4.88,4.88,0,0,0,.92,7.25c8,5.45,29.17,14,68.28-7.7A4.9,4.9,0,0,0,1532,1551.1Z"/><path class="cls-22" d="M1500.09,1611.41c-40.18-19.61-60.88-10-68.59-4.16a4.87,4.87,0,0,0-.54,7.28c6.77,6.93,25.84,19.46,68.46,6A4.9,4.9,0,0,0,1500.09,1611.41Z"/><path class="cls-22" d="M1413.9,1656.48a4.89,4.89,0,0,0-2.72,6.78c4.36,8.65,18.75,26.36,63.45,26.38a4.9,4.9,0,0,0,3.39-8.44C1445.66,1650.35,1423,1653.23,1413.9,1656.48Z"/><path class="cls-22" d="M1387.35,1711a4.89,4.89,0,0,0-3.35,6.5c3.52,9,16.17,28,60.67,32.26a4.9,4.9,0,0,0,4.17-8.09C1419.54,1707.86,1396.74,1708.59,1387.35,1711Z"/><path class="cls-23" d="M1135.45,2138.33l.06,0h-.06Z"/><path class="cls-17" d="M1140.09,2187.71l38.64,376.76,1.82.41a564.34,564.34,0,0,0,247.77-.41l43.24-426.19H1135.5Z"/><path class="cls-26" d="M1140.09,2187.71s296.59-162.4,228.05,387a561.08,561.08,0,0,0,60.18-10.26l43.24-426.19H1135.5Z"/><path class="cls-27" d="M1471.16,2032.17l-120.31,4.58q-46.35,1.76-92.73,0l-122.28-4.6a22.12,22.12,0,0,0-22.12,22.12v61.87a22.12,22.12,0,0,0,22.12,22.12l121.32,4.6q46.36,1.74,92.73,0l121.27-4.6a22.11,22.11,0,0,0,22.12-22.12v-61.87A22.11,22.11,0,0,0,1471.16,2032.17Z"/><path class="cls-17" d="M1471.16,2032.17l-120.31,4.58q-46.35,1.76-92.73,0l-122.28-4.6a22.12,22.12,0,0,0-22.12,22.12v32.77a22.12,22.12,0,0,0,22.12,22.12l121.32,4.59q46.36,1.76,92.73,0l121.27-4.59a22.12,22.12,0,0,0,22.12-22.12v-32.77A22.11,22.11,0,0,0,1471.16,2032.17Z"/><rect class="cls-8" x="3000.7" y="1787.49" width="80.26" height="345.09"/><rect class="cls-2" x="3013.64" y="1787.49" width="23.72" height="345.09"/><rect class="cls-2" x="3044.12" y="1787.49" width="9.99" height="345.09"/><path class="cls-14" d="M3095.51,2344.58l-52.8-16.65-52.81,16.65-130.54,58.36H2724.91v60.11s237.24,83.16,635.59,0v-60.11H3226.05Z"/><path class="cls-15" d="M3042.7,2267.82l-52.8,16.64-265,118.49s69.27,24.27,195.81,33.48q12.29.89,25.31,1.59c80.68,4.27,181.87,2.12,300.95-15l3.17-.47q11.1-1.61,22.41-3.41,20.07-3.2,40.74-6.95,23.19-4.22,47.19-9.22l-265-118.49Z"/><polygon class="cls-2" points="2818.54 2424.47 2852.47 2429.5 2853.96 2427.83 3019.83 2284.46 3009.98 2281.21 2818.54 2424.47"/><path class="cls-2" d="M2920.73,2436.43q12.29.89,25.31,1.59l91.32-153.56h-8.88Z"/><path class="cls-2" d="M3065,2284.46l207.54,134.66q20.07-3.2,40.74-6.95L3081,2284.46Z"/><path class="cls-2" d="M3054.11,2287.57,3247,2423l3.17-.47-192.64-135Z"/><path class="cls-7" d="M3019.83,2128.09a295.21,295.21,0,0,0-31.49,3.45v152.92s45,15,105,0V2131.54C3066,2126.81,3039.42,2126.87,3019.83,2128.09Z"/><path class="cls-11" d="M3019.83,2128.09a295.21,295.21,0,0,0-31.49,3.45v152.92s45,15,105,0v-27C3006.43,2262.62,3019.83,2128.09,3019.83,2128.09Z"/><path class="cls-28" d="M3109.79,1760.16c-70.61-20.55-288.22-15.25-454.94,93.17q-19.92,12.95-38.78,27.91s-43.64,57.45,78.19,53.88,216.67-7.52,301.92,22.55,339.6-56.38,339.6-122.79c0-23.35-5.16-39.84-14.08-51.35C3282.69,1733.06,3171.88,1778.24,3109.79,1760.16Z"/><path class="cls-6" d="M3109.79,1760.16c-70.61-20.55-288.22-15.25-454.94,93.17a260.89,260.89,0,0,0,39.41,1.42c121.83-3.57,216.67-7.51,301.92,22.56,73.19,25.81,271-34.25,325.52-93.78C3282.69,1733.06,3171.88,1778.24,3109.79,1760.16Z"/><path class="cls-28" d="M3111.77,1115.2S3022.48,1103,2976,1196.89s-68.57,469.87-68.57,469.87h434.65s32.08-348-19.9-463.08S3111.77,1115.2,3111.77,1115.2Z"/><path class="cls-5" d="M3046.57,1115.2s-89.29-12.16-135.74,81.69-68.57,469.87-68.57,469.87h434.65s32.08-348-19.9-463.08S3046.57,1115.2,3046.57,1115.2Z"/><path class="cls-27" d="M3031,2329.39c-41.54-16-100.3,36.12-131.24,116.42s-42.06,160.74,19.18,174.38c52.67,11.74,100.29-36.12,131.24-116.42S3072.51,2345.4,3031,2329.39Z"/><path class="cls-26" d="M3019.85,2322c-41.53-16-100.29,36.12-131.23,116.42s-42.06,160.73,19.18,174.38c52.67,11.73,100.29-36.12,131.24-116.42S3061.39,2338,3019.85,2322Z"/><path class="cls-27" d="M2530,2376.28l-10.59,2.86c-54.71-24.9-153.37-44.11-153.37-44.11l-140.32,100.28-9.48,25.83L2202,2465l6.68,16.52c2.95,9.08,19.24,18.85,74,20.43,98.33,2.83,270.13-78.41,253.12-111.72Z"/><path class="cls-26" d="M2521.62,2367.4c-52.13-26.91-162.06-48.31-162.06-48.31l-140.33,100.28-10.95,29.84s-38.2,33.75,67.86,36.81S2573.75,2394.31,2521.62,2367.4Z"/><path class="cls-29" d="M2614.94,1778.51l-48.66,22.65a149.07,149.07,0,0,0-76.55,88.87l-113.79,403.33s-94.16,80.92-118.41,99,6.84,49.91,91.42,49.63c70-.24,37.88-25.26,125.78-45.56,18.42-4.25,30-22.22,33.12-41v0a64.26,64.26,0,0,0,.72-6.45c.75-12.88-4.43-27.89-8.73-42.93-8.63-30.19.75-56.31,17.06-83.54h0c5.94-9.93,12.8-20,20-30.47,27.13-39.21,79.13-117.16,79.13-214.17l92.82-32.54,21.37-21.21,54-53.65s-4.53-89.7-7.71-92.41S2614.94,1778.51,2614.94,1778.51Z"/><path class="cls-30" d="M2493.11,2299.79c13.88,37.38,14.71,54.83,14.74,55.55a64.26,64.26,0,0,0,.72-6.45c.75-12.88-4.43-27.89-8.73-42.93-8.63-30.19.75-56.31,17.06-83.54C2515.93,2223.42,2479.12,2262.12,2493.11,2299.79Z"/><polygon class="cls-30" points="2612.17 1967.85 2616.07 1977.77 2708.89 1945.23 2730.26 1924.02 2726.95 1915.32 2612.17 1967.85"/><path class="cls-14" d="M2887.29,1654.54l-271.22,124.32s71.89,9,93,78.39h0c6.88,22.57,8.4,51.52.33,88.64l222.38-83.52,64.35-154.54-31.57-81.65Z"/><path class="cls-16" d="M2709.12,1857.26c6.88,22.57,8.4,51.52.33,88.64l222.38-83.52,64.35-154.54-287.06,149.41Z"/><path class="cls-29" d="M3041.06,1939.68l-7.95-63.61-53.19-77.46-54.13,4.67-80.87,78.47s-75,105.38-51.65,181c19,61.49,81.17,224.24,103.73,282.84,5.38,14,13.66,27.75,10.56,42.42L2893.64,2502l111.47,6.79,30.49-93.54c15.3-27,11.52-46.39-3.42-61.5-45.49-46-46.27-109.72-49.46-167.87-4.67-84.92-22.4-129.72-22.4-129.72l85.86-75.59Z"/><polygon class="cls-30" points="2950.9 2042.62 2960.32 2056.19 3046.18 1980.6 3041.06 1939.67 2950.9 2042.62"/><path class="cls-14" d="M3190.32,1654.54l-89.63-53.15-126.52,53.15-129.25,227.21s109.14-56.78,201.24,102.82L3133.92,1884a237.19,237.19,0,0,0,58.33-162.73Z"/><path class="cls-17" d="M3100.7,1136.17a148.23,148.23,0,0,0-18.39-1.91h-78.48a127.39,127.39,0,0,0-16.63,7,167.75,167.75,0,0,0-22.24,13.46s-60.66,34.81-122.57,185c0,0-180.47,73-209.88,111.72-11.85,15.6-11.64,37.86-4.62,58.78h0c10.39,31,35.69,59,58.78,58.08,30.76-1.23,149.41-41.93,212.82-96.44h0c-5.86,52.69-10.2,113.22-12.22,182.68h303s74.09-364.42,8.85-462.85C3173.1,1152.36,3126.28,1140.22,3100.7,1136.17Z"/><path class="cls-26" d="M2627.9,1510.23c10.39,31,35.69,59,58.78,58.08,30.76-1.23,149.41-41.93,212.82-96.44h0s18.19-163.73,32.3-211.68c-1,2.46-33.3,82-44.18,200.83C2887.63,1461,2697.21,1613.61,2627.9,1510.23Z"/><path class="cls-26" d="M3110.19,1291.29s-23,55.65-27.33,126l-128.55,28,43.55,52.31,99,27.22,60.14-68.51,3.4-86.56-19.85-86.06Z"/><path class="cls-17" d="M3162.34,1201.24c-63.81,31.68-73.63,231.22-73.63,231.22s-217.48,8.15-228.88,50.17c-3.7,13.62-6.55,31.61-4.55,48h0c1,8.39,3.3,16.37,7.41,23.13,14.87,24.52,42.75,35.11,71.11,39.48,96.49,14.88,175.4-9.92,220.93-33.35a84.44,84.44,0,0,0,44.91-62.53c5.76-38.38,9.79-72.16,12.51-101.81,0-.23.05-.45.07-.68.1-1.07.17-1.88.22-2.41,0-.17,0-.35.05-.53s0-.18,0-.18h0c7.8-87.48,4.1-138.13.17-164C3209.1,1204.27,3183.66,1190.65,3162.34,1201.24Z"/><path class="cls-26" d="M3212.5,1392c0,.12,0,.3-.05.53C3212.47,1392.32,3212.48,1392.14,3212.5,1392Z"/><path class="cls-26" d="M3206.11,1450.75c4.18-24,5.15-45.8,6-55.17Q3209.82,1421.08,3206.11,1450.75Z"/><path class="cls-26" d="M3165.85,1534c-30.9,21.22-202.09,85-310.56-3.37,1,8.39,3.3,16.37,7.41,23.13,14.87,24.52,42.75,35.11,71.11,39.48,96.49,14.88,175.4-9.92,220.93-33.35a84.44,84.44,0,0,0,44.91-62.53q3.69-24.56,6.46-46.64C3200.62,1482.3,3189.58,1517.73,3165.85,1534Z"/><path class="cls-29" d="M2871.24,1487.85s-41.21-8.91-62,10.75-55.42,49.24-52.65,58.93h110.27s31.51,19.13,36.37,16.49S2940.16,1494.83,2871.24,1487.85Z"/><path class="cls-30" d="M2871.24,1487.84s-22.42-4.84-42.53.5a111.93,111.93,0,0,1,31.64,1.48c60.93,6.18,42.94,66.72,34.58,82.5,3.91,1.58,7,2.39,8.31,1.69C2908.1,1571.37,2940.16,1494.83,2871.24,1487.84Z"/><path class="cls-27" d="M2871.24,1487.85c68.17,22.08,32,86.17,32,86.17s35.33-14.46,21.29-57.56C2910.09,1472.13,2871.24,1487.85,2871.24,1487.85Z"/><path class="cls-26" d="M3003.83,1134.26a127.39,127.39,0,0,0-16.63,7s-10.47,45,27.63,45,76.65-25.22,85.87-50.16a148.23,148.23,0,0,0-18.39-1.91Z"/><path class="cls-29" d="M3088.83,993.18l-63.67-99.76-79.45,24.19-10.5,79.71s.31,117.57,63,115.12l2.55,31.85c1.24,15.55,4.27,25.45,19.85,26,16.16.55,46-13.64,61.72-36-.28-22.33,4.53-54.44,6.36-65.66a6.53,6.53,0,0,1,4.36-5.25,97.89,97.89,0,0,0,14.56-6.43c1.9-1,3.87-2.21,5.84-3.48.05,0,.05,0,.1,0,12.61-8.25,24.64-21.5,20.69-41C3125.78,971.05,3088.83,993.18,3088.83,993.18Z"/><path class="cls-30" d="M2998.19,1112.49l1.3,16.38c49.14-13.4,46.63-46.2,46.63-46.2C3028.85,1109.73,3005.21,1112.28,2998.19,1112.49Z"/><path class="cls-30" d="M3107.41,1007.33c-4.91-3-11,2-9.09,7.42a2,2,0,0,1,.08.22c2.81,7.51-3.37,10.35-4.36,17.11s11,16.64,17.51-5.56C3114.87,1015.1,3111.48,1009.79,3107.41,1007.33Z"/><path class="cls-31" d="M3020.15,988.55a19.76,19.76,0,0,0-10.09-3.93c-6.76-.63-13.66,3.54-15.64,10.14-1.21,4,5.06,5.92,6.27,1.88a7.34,7.34,0,0,1,3.22-4.14,9.13,9.13,0,0,1,6-1.33c4,.38,9.36,3.59,9.85,7.85.2,1.76,2.42,2.77,4,2.38,1.89-.48,2.58-2.21,2.37-4C3025.68,993.7,3023,990.73,3020.15,988.55Z"/><path class="cls-31" d="M2955.39,980.8c-6.36.19-13.48,4.51-15.42,10.78a3.27,3.27,0,1,0,6.27,1.88c1.05-3.4,5.91-6.14,9.39-6.11,4,0,7.31,4,9,7.71a3.29,3.29,0,0,0,4.45,1.27,3.33,3.33,0,0,0,1.28-4.45C2967.74,986.12,2962.12,980.61,2955.39,980.8Z"/><path class="cls-31" d="M2955,1004.4c-3.22-.07-5.92,4-6,9.17s2.4,9.36,5.62,9.43,5.93-4,6-9.17S2958.26,1004.47,2955,1004.4Z"/><path class="cls-31" d="M3008.5,1005.1c-3.4-.07-6.25,4.26-6.38,9.68s2.53,9.87,5.93,10,6.25-4.26,6.38-9.68S3011.89,1005.18,3008.5,1005.1Z"/><path class="cls-32" d="M3006,1055.45l-38.38,4.14a3.68,3.68,0,0,0-3.19,4.55c2,7.63,8,23.11,24.2,22.46s20.38-18.48,21.43-27.07A3.68,3.68,0,0,0,3006,1055.45Z"/><path class="cls-30" d="M3077.07,1051c1.95,13.2,16,12.31,16,12.31a97.89,97.89,0,0,0,14.56-6.43C3087.86,1064.81,3078,1052.27,3077.07,1051Z"/><path class="cls-30" d="M3053.55,882.34l-72.48,2.38L2942.81,916l6.2,67.16c9.42-35.59,13.29-41.68,13.29-41.68,13.53-27.42,23.65,4.11,23.65,4.11-.77-5.68,7.7-22,11.83-9.27,5.21,16,24.19,39.89,24.19,39.89,36.58,45.68,65,20.23,65,20.23l29.37-43.12-30.92-42.73Z"/><path class="cls-33" d="M3143.29,853.8c-8.23,3-9.92,21.59-10.27,29a1.37,1.37,0,0,0,2.25,1.1C3154.42,867.68,3153.2,850.13,3143.29,853.8Z"/><path class="cls-33" d="M3161.06,882.46c-5.1-3.91-17.26,2.29-21.95,4.94a1,1,0,0,0,.19,1.83C3156.81,894.78,3167.21,887.17,3161.06,882.46Z"/><path class="cls-33" d="M3130.63,893.36s-5.46-38.58-55-52-87.8,20.12-87.8,20.12c-42.84-28.43-65,32.63-65,32.63-26.15,16.43-10.36,36.23-13.22,67.54a153.3,153.3,0,0,0-.57,18.17c1,22.45,8.69,37.5,26,26.84,21.67-13.34,11.78-52.7,27.13-73.62s22.1.5,22.1.5c1.69-5.1,4.16-8,6.76-9.44,5.63-3.22,12.45,1,13.46,7.33,5.74,35.39,57.65,82.25,84.1,64.1,28.15-19.38,39.69,3.15,39.69,3.15,2.27-3.14,4.39-6.24,6.29-9.23C3181,917.18,3130.63,893.36,3130.63,893.36Z"/><path d="M3082.13,980.27c-19.1,10.62-60-17.86-70.39-51.47s-28.35-7-28.35-7c-35-40.14-35.23,56.62-50.4,71.68s-23.89-13.69-23.89-13.69l-.06,0c1,22.45,8.69,37.5,26,26.84,21.67-13.34,11.78-52.7,27.13-73.62s22.1.5,22.1.5c1.69-5.1,4.16-8,6.76-9.44,5.63-3.22,12.45,1,13.46,7.33,5.74,35.39,57.65,82.25,84.1,64.1,28.15-19.38,39.69,3.15,39.69,3.15,2.27-3.14,4.39-6.24,6.29-9.23-.35-.69-.65-1.38-.9-2C3129,975,3101.24,969.7,3082.13,980.27Z"/><path d="M3028.22,906.71s11.57,57.38,72.52,57.42C3100.74,964.13,3057,949.25,3028.22,906.71Z"/><path d="M3131.41,906.41c12.05,26.93,1.49,61.57,1.49,61.57C3155.47,923.17,3131.41,906.41,3131.41,906.41Z"/><path d="M2931.2,896.93s14.87-31.36,53.22-26.18C2984.42,870.75,2951.09,847.53,2931.2,896.93Z"/><path d="M3011.7,864.06s67.25-14.42,107.57,26.41C3119.27,890.47,3087.54,834.59,3011.7,864.06Z"/><path class="cls-17" d="M2310.9,2319.09c-88,23.49-106.57,107.86-102.84,131.76,0,0,90.76,39.89,197.76-11.65C2405.82,2439.2,2400.5,2295.17,2310.9,2319.09Z"/><path class="cls-17" d="M2870.87,2464.33s-45.56,142.4,45.05,138.33c81-3.65,110.1-119.3,110.1-119.3C2907.23,2395.08,2870.87,2464.33,2870.87,2464.33Z"/><polygon class="cls-34" points="3066 2679.57 3112.56 2644.67 3112.56 1758.08 3066 1792.98 3066 2679.57"/><rect class="cls-10" x="2984.42" y="1792.98" width="81.58" height="886.59"/><polygon class="cls-34" points="3441.77 2497.01 3488.33 2462.11 3488.33 1637.09 3441.77 1671.99 3441.77 2497.01"/><rect class="cls-10" x="3360.19" y="1671.99" width="81.58" height="825.02"/><polygon class="cls-34" points="1651.64 2679.57 1698.21 2644.67 1698.21 1758.08 1651.64 1792.98 1651.64 2679.57"/><rect class="cls-10" x="1570.06" y="1792.98" width="81.58" height="886.59"/><polygon class="cls-34" points="2027.41 2497.01 2073.98 2462.11 2073.98 1637.09 2027.41 1671.99 2027.41 2497.01"/><rect class="cls-10" x="1945.83" y="1671.99" width="81.58" height="825.02"/><path class="cls-10" d="M3606.16,1596H1809.32l-420.8,126,1831.22,15.58L3607,1601.83A3,3,0,0,0,3606.16,1596Z"/><path class="cls-16" d="M3204,1722H1389.12a13.17,13.17,0,0,0-13.13,13.13v46a13.17,13.17,0,0,0,13.13,13.13h1828v-59.12A13.17,13.17,0,0,0,3204,1722Z"/><path class="cls-34" d="M3217.09,1734.5v59.71l380.74-121.47a15.29,15.29,0,0,0,10.65-14.57v-56.78L3232.37,1714A21.43,21.43,0,0,0,3217.09,1734.5Z"/><path class="cls-35" d="M2552,1558.6l-131.14,30.19a4.73,4.73,0,0,0-3.37,4.53v20.09l136.15-43.16a2.8,2.8,0,0,0,1.94-2.66l-1-7.06A2,2,0,0,0,2552,1558.6Z"/><path class="cls-34" d="M2567,1567.22,2398.81,1619c-3.29,1-5.68,2.58-5.68,6v33l174.93-55.8a4.59,4.59,0,0,0,3.19-4.37V1570.4A3.32,3.32,0,0,0,2567,1567.22Z"/><polygon class="cls-36" points="2398.06 1619.26 2874.41 1633.4 3050.39 1567.22 2566.98 1567.22 2398.06 1619.26"/><path class="cls-16" d="M2871.61,1619.26H2398.06a4.94,4.94,0,0,0-4.93,4.93v28.91a4.93,4.93,0,0,0,4.93,4.92h478.48v-33.83A5,5,0,0,0,2871.61,1619.26Z"/><path class="cls-34" d="M3050.39,1567.22l-168.32,50.39a7.75,7.75,0,0,0-5.53,7.43v33l174.93-55.8a4.59,4.59,0,0,0,3.19-4.37V1570.4A3.32,3.32,0,0,0,3050.39,1567.22Z"/><path class="cls-35" d="M3006.73,1557.61l-132.12,31.18a4.73,4.73,0,0,0-3.37,4.53v20.09l136.15-43.16a2.8,2.8,0,0,0,1.94-2.66v-8A2,2,0,0,0,3006.73,1557.61Z"/><polygon class="cls-14" points="2421.25 1589.38 2443.9 1597.78 2854.14 1597.78 2871.24 1593.13 3006.73 1557.61 2551.99 1558.6 2421.25 1589.38"/><path class="cls-34" d="M2867.48,1589.38h-7.29l-6.05,8.4-6.49-8.4H2835l-6.06,8.4-6.48-8.4h-13.53l-6,8.4-6.49-8.4H2783.7l-6,8.4-6.49-8.4h-13.53l-6.05,8.4-6.49-8.4h-12.67l-6.05,8.4-6.49-8.4h-13.53l-6,8.4-6.49-8.4h-12.67l-6,8.4-6.49-8.4h-13.53l-6.05,8.4-6.49-8.4h-12.67l-6.05,8.4-6.49-8.4h-13.53l-6.05,8.4-6.48-8.4h-12.68l-6,8.4-6.49-8.4h-13.52l-6.06,8.4-6.48-8.4H2527.3l-6.05,8.4-6.49-8.4h-13.52l-6.06,8.4-6.48-8.4H2476l-6.05,8.4-6.48-8.4H2450l-6.06,8.4-6.48-8.4h-16.17a3.77,3.77,0,0,0-3.76,3.76v16.51a3.77,3.77,0,0,0,3.76,3.76h450v-20.27A3.77,3.77,0,0,0,2867.48,1589.38Z"/><path class="cls-14" d="M2670,996.27A17.61,17.61,0,0,0,2648.35,981c-118.17,28.82-739.59,169.57-1015.91,14.7a17.43,17.43,0,0,0-18,.44l-21.8,12.43,18.33,41,57.6,450.87a17.63,17.63,0,0,0,5.93,11.08c35.16,30.49,264.69,219.45,1015.74,34.63,1,3.74,1.64,6.36,1.64,6.36l23.18-13.21h0a17.62,17.62,0,0,0,8.8-17.1Z"/><path class="cls-36" d="M2647.8,1009a17.61,17.61,0,0,0-21.69-15.31c-118.16,28.82-739.59,169.57-1015.91,14.7a17.6,17.6,0,0,0-26.1,17.57l62.24,487.2a17.63,17.63,0,0,0,5.93,11.08c35.47,30.76,268.77,222.31,1036.12,29.56a17.62,17.62,0,0,0,13.24-18.88Z"/><path class="cls-15" d="M2647.8,1009a17.53,17.53,0,0,0-4.06-9.56s-447.83,567.29-997.4,513.72a17.63,17.63,0,0,0,5.93,11.08c35.47,30.76,268.77,222.31,1036.12,29.56a17.62,17.62,0,0,0,13.24-18.88Z"/><path class="cls-9" d="M2640.55,1463.53a11.31,11.31,0,0,0-11.22-10c-.4,0-.81,0-1.22.07a11.31,11.31,0,0,0-10,12.44l5,45.45a11.27,11.27,0,1,0,22.41-2.46Z"/><path class="cls-14" d="M2640.55,1463.53a11.28,11.28,0,0,0-3.4-6.89,10.75,10.75,0,0,0-1.8-.15c-.4,0-.81,0-1.22.07a11.32,11.32,0,0,0-10,12.44l5,45.45a8.74,8.74,0,1,0,16.39-5.47Z"/><path class="cls-9" d="M2601.7,1473.14a11.31,11.31,0,0,0-11.22-10.05c-.4,0-.81,0-1.22.07a11.31,11.31,0,0,0-10,12.44l5,45.45a11.27,11.27,0,1,0,22.41-2.46Z"/><path class="cls-14" d="M2601.7,1473.14a11.28,11.28,0,0,0-3.4-6.89,10.75,10.75,0,0,0-1.8-.15c-.4,0-.81,0-1.22.07a11.32,11.32,0,0,0-10,12.44l5,45.45a8.74,8.74,0,1,0,16.39-5.47Z"/><path class="cls-9" d="M2562.32,1481.38a11.31,11.31,0,0,0-11.22-10.05c-.4,0-.81,0-1.22.07a11.31,11.31,0,0,0-10,12.44l5,45.45a11.27,11.27,0,1,0,22.41-2.46Z"/><path class="cls-14" d="M2562.32,1481.38a11.28,11.28,0,0,0-3.4-6.89,10.75,10.75,0,0,0-1.8-.15c-.4,0-.81,0-1.22.07a11.32,11.32,0,0,0-10,12.44l5,45.45a8.74,8.74,0,1,0,16.39-5.47Z"/><path class="cls-8" d="M2096.16,1611.14c-126.38,0-233.45-16.05-318.25-47.7-39.16-14.62-71.89-32-97.27-51.54a22.52,22.52,0,0,1-8.66-15.09l-53.1-415.67a22.62,22.62,0,0,1,30.72-23.93c84.59,33.26,196.49,50.13,332.59,50.13,105.34,0,224.88-9.91,355.31-29.46,108.26-16.22,200.68-35.6,259.14-49a22.64,22.64,0,0,1,27.58,19.76l47.18,460.95a22.74,22.74,0,0,1-17.18,24.31C2443.45,1585.15,2255.7,1611.14,2096.16,1611.14Zm-454.89-550.52a17.64,17.64,0,0,0-17.43,19.89l53.1,415.67a17.57,17.57,0,0,0,6.76,11.76c25,19.27,57.26,36.37,96,50.81,84.24,31.45,190.72,47.39,316.5,47.39,159.14,0,346.5-25.94,556.88-77.1a17.71,17.71,0,0,0,13.38-18.94l-47.18-460.95a17.64,17.64,0,0,0-21.48-15.4c-58.55,13.42-151.1,32.83-259.52,49.08-130.67,19.58-250.46,29.51-356,29.51-136.73,0-249.24-17-334.42-50.48A17.81,17.81,0,0,0,1641.27,1060.62Z"/><ellipse class="cls-9" cx="2033.97" cy="1329.6" rx="163.63" ry="193.64" transform="translate(-198.68 370.35) rotate(-9.92)"/><ellipse class="cls-16" cx="2023.05" cy="1325.57" rx="163.63" ry="193.64" transform="translate(-198.15 368.42) rotate(-9.92)"/><path class="cls-9" d="M2062.85,1172.56a121,121,0,0,0-68-8c-75.13,13.14-123.43,95.87-107.88,184.78,12.73,72.8,64.33,127.18,123.86,137.27a118.29,118.29,0,0,0,40.34-.08c75.13-13.14,123.43-95.87,107.87-184.78C2148.37,1240.54,2110.16,1192.33,2062.85,1172.56Z"/><path class="cls-10" d="M2062.85,1172.56a118.37,118.37,0,0,0-40.31.08c-75.13,13.15-123.43,95.88-107.88,184.79,10.71,61.23,48.92,109.43,96.21,129.21a118.29,118.29,0,0,0,40.34-.08c75.13-13.14,123.43-95.87,107.87-184.78C2148.37,1240.54,2110.16,1192.33,2062.85,1172.56Z"/><rect class="cls-9" x="1996.78" y="1266.79" width="96.47" height="125.61" rx="12.4"/><rect class="cls-34" x="1985.73" y="1266.79" width="96.47" height="125.61" rx="12.4"/><rect class="cls-9" x="1911.75" y="1191.69" width="131.66" height="653.81" rx="12"/><rect class="cls-14" x="1876.38" y="1191.69" width="131.66" height="653.81" rx="12"/><path class="cls-5" d="M2335.56,2377.69c-29.1-16.86-64.1-22.17-97.45-17.93s-65.12,17.61-93.42,35.76c-25.44,16.32-48.33,36.48-74.43,51.71-22.67,13.22-50.49,24-77.23,20.54-25.34-3.25-46.64-1.9-72.2,3.7-27.66,6.07-54.95,15.26-78.75,30.59s-44,37.21-54,63.71c-4.1,10.89-6.45,22.76-4.43,34.22,3.11,17.58,16.26,32.13,31.77,41s33.29,12.73,50.85,15.91c120.94,21.92,245,15.25,367.72,8.5,25.64-1.41,51.53-2.86,76.2-10,45.33-13.11,85.66-47.83,98.3-93.29,5.29-19,5.72-39.13,3.38-58.72C2405.89,2452.89,2379.53,2403.16,2335.56,2377.69Z"/><path class="cls-6" d="M1792,2518c-3.13-2.55-7.26-3.44-11.23-4.14a223.23,223.23,0,0,0-64.41-1.83,213.72,213.72,0,0,0,52.51,78.14c12.69,12,21.88,16.63,26.64-3.45a154.41,154.41,0,0,0,3.13-52.44C1798,2528.28,1796.67,2521.78,1792,2518Z"/><path class="cls-6" d="M1945.78,2379.09a222.73,222.73,0,0,0-18.48,61.72c-.59,4-1,8.19.39,12,2.15,5.63,7.91,8.92,13.38,11.42a154.74,154.74,0,0,0,50.77,13.5c20.56,1.77,19-8.41,11.64-24.22A213.68,213.68,0,0,0,1945.78,2379.09Z"/><path class="cls-6" d="M2030.68,2468.87c-50.66-11.34-86.24,30.75-136.83,42.41-25.41,5.86-51.79,15.75-66.95,37-6.61,9.25-10.64,20.08-13.73,31-4.34,15.33-6.94,31.9-3.93,47.72,2.81,14.8,7.53,19.42,21.13,23.74,34.61,11,70.12,14.8,106.36,13.22a512,512,0,0,0,62.35-6.87c21.82-3.65,43.91-8.44,63.07-19.53s49-62.59,30.17-108.17C2074.25,2485.6,2040.62,2471.1,2030.68,2468.87Z"/><path class="cls-5" d="M1980.52,2447.47c-40.75-7-86.21-10.93-127.1-1.86-18.47,4.1-38.75,22.15-51.94,35.7-14.89,15.31-23.21,36.21-25.89,57.4s-.06,42.75,4.63,63.59c1.9,8.46,4.27,17.11,9.66,23.91,8.11,10.24,32.47,23.26,45.26,26,73.7,15.56,95.16,16.44,140.24-.94,27.11-10.45,59.29-33.22,87.51-83.93,11.79-21.18,11.59-48.78-1.94-68.89C2044.17,2473.48,2010.14,2452.55,1980.52,2447.47Z"/><path class="cls-37" d="M1977.43,2585.25c-4.83,4.44-11.3,7.59-18,7.36-7.31-.26-13.38-5.13-17.48-10.85-.31-.43-.6-.86-.89-1.29-.1-.26-.19-.52-.29-.77a79.41,79.41,0,0,0-3.31-7.5,97.81,97.81,0,0,0,5.12-16.21,22.72,22.72,0,0,0,.69-7.94c-.36-2.64-1.66-6.06-4-7.42-2.54-1.5-11-2.51-15.07,3.7l0,.06a14.57,14.57,0,0,1-9.16,6.14,14.77,14.77,0,0,0-7.2,3.85,6.62,6.62,0,0,0-.33,10.26c3.52,3.82,8.77,5.53,13.89,6.45,4.35.78,8.8,1.11,13.07,2.2a76.62,76.62,0,0,0,4.56,8.11,74.73,74.73,0,0,1,2.92,10.17,19.2,19.2,0,0,1,.48,6.09,19.93,19.93,0,0,1-1.68,5.64,37.31,37.31,0,0,1-6.57,10.15,37.74,37.74,0,0,1-10.76,8.27,1.12,1.12,0,1,0,1.17,1.91,40,40,0,0,0,17.53-18,27.39,27.39,0,0,0,2.23-6.06,17.6,17.6,0,0,0,.14-6.43,53,53,0,0,0-1.42-6.54,30,30,0,0,0,4.68,4.15,22,22,0,0,0,10.55,4,23.42,23.42,0,0,0,10.38-1.53,32.22,32.22,0,0,0,10.35-6.46,1.12,1.12,0,1,0-1.63-1.53Z"/><path class="cls-37" d="M1874.14,2555.64c1.95,10.58-5.49,21.37-15.35,25.69s-21.39,3.16-31.53-.44c-3-1.07-6.11-2.47-7.9-5.11,1.8,7.6,8.17,13.37,15.11,17,7.28,3.78,15.68,5.69,23.78,4.44s15.83-5.89,19.93-13a22.61,22.61,0,0,0,2.47-16.08C1879.66,2563.8,1874.82,2559.32,1874.14,2555.64Z"/><path class="cls-37" d="M1996,2475.43c3.52,10.17-2.2,22-11.3,27.71s-20.67,6.35-31.24,4.32c-3.13-.6-6.41-1.52-8.58-3.86,2.93,7.25,10.1,12,17.5,14.5,7.77,2.63,16.36,3.26,24.18.8s14.76-8.21,17.74-15.85a22.55,22.55,0,0,0,0-16.27C2002.71,2482.67,1997.25,2479,1996,2475.43Z"/><path class="cls-28" d="M1804.08,2485.23c-.6-1.62-1.19-3.29-1.67-5l-.92.94a84.44,84.44,0,0,0-12.63,16.81c6.05,8.06,14.62,15.75,21,21.47a106.36,106.36,0,0,0,25.66,17.07C1819.11,2524.48,1811.1,2504.35,1804.08,2485.23Z"/><path class="cls-28" d="M1833.74,2454.15a157.06,157.06,0,0,0-23.22,18.21c24.73,11.69,35.87,41.29,58.3,57-14-21.19-17.31-48.08-31.2-69.37C1836.36,2458.05,1835,2456.12,1833.74,2454.15Z"/><path class="cls-28" d="M1868.07,2442.82c-4.94.72-9.82,1.6-14.64,2.67a53.36,53.36,0,0,0-10.74,3.76,24.55,24.55,0,0,1,2.36,2.43c3.82,4.54,6.1,10.15,8.5,15.57a252.18,252.18,0,0,0,31.94,53.2c-3-23.94-6-48.16-14.64-70.68C1870,2447.44,1869,2445.14,1868.07,2442.82Z"/><path class="cls-28" d="M1902.79,2440.24c-6,.06-12,.29-18,.74a173.16,173.16,0,0,1,23.56,50.34c1.34-15.54,1.1-31.51-3.78-46.32Q1903.77,2442.59,1902.79,2440.24Z"/><path class="cls-8" d="M1955.34,2409.35c-1.66-1-3.88-1.51-5.41-.36a6,6,0,0,0-1.82,3.49q-2.19,8.54-3.87,17.18c-.73,3.74-2.31,8.43-1.55,12.28s3.78,4.06,7.07,4.42c5.25.56,10.48,1.2,15.71,1.95q3.91.55,7.83,1.18c.9.15,7,.56,7.28,1.24a250.08,250.08,0,0,0-16.82-31.95C1961.51,2415.17,1959,2411.48,1955.34,2409.35Z"/><path class="cls-8" d="M1782.72,2534.75a237.24,237.24,0,0,0-43-1.73c1.74-.09,9.52,12.75,10.86,14.52,3.66,4.81,7.37,9.57,11.19,14.25,6.42,7.84,13.18,16.92,21.21,23.12A94.27,94.27,0,0,1,1782.72,2534.75Z"/><path class="cls-6" d="M2294.11,2416.22c-24.78-.09-45.8,8.12-68.47,18.12s-42.56,28.39-49.8,52.09c-7.68,25.11-.53,52.19,8.15,77,8.21,23.42,18.88,47.75,39.54,61.51-9.34-17.41-21.32-33.82-26.13-53a104.79,104.79,0,0,1-2.75-26.08c.09-20,3.79-40.1,12.06-58.3s21.25-34.44,37.93-45.46a96.32,96.32,0,0,1,50-15.73c6.7-.19,12.64,1.21,19,3.24,3.12,1,7.47,3.38,10.6,2.45C2321.2,2422.64,2302.08,2416.25,2294.11,2416.22Z"/><path class="cls-6" d="M2408.81,2480.12c5.66,34.94-1.87,72.67-24.06,100.74-23.88,30.21-62,46.44-100.15,51.7s-76.87.73-115.11-3.8l-102.28-12.12c-32.72-3.87-65.63-7.76-98.54-6.09s-66.13,9.16-94.12,26.55c-12.08,7.5-23.75,17.86-26.62,31.78s7.53,30.82,21.7,29.7c3.6-.29,7-1.65,10.4-2.93,93.17-35.33,196.88-20.66,295.35-5.45,59,9.12,122,17.74,176.25-7.29,33.57-15.5,61.42-44.12,73.48-79.08a120.27,120.27,0,0,0,3-67.5C2423.3,2516.65,2412.71,2500.24,2408.81,2480.12Z"/><path class="cls-28" d="M1914.31,2631.31c-1.54-2.84-3.23-5.93-2.67-9.12a7,7,0,0,1,.74-2.12,162.93,162.93,0,0,0-37.83,17c-12.08,7.5-23.75,17.86-26.62,31.79s7.53,30.82,21.7,29.69c3.6-.29,7-1.64,10.4-2.93a315.41,315.41,0,0,1,50-14.24c-.1-1.06-.21-2.11-.35-3.14A137.77,137.77,0,0,0,1914.31,2631.31Z"/><path class="cls-28" d="M2395.16,2565.1a110.32,110.32,0,0,1-18.53,24.94c8.5,4,15.88,11.26,20.8,19.4s8.13,17.39,11,26.66a127.63,127.63,0,0,0,16.7-32.17C2419.81,2590.24,2409,2573.34,2395.16,2565.1Z"/><path class="cls-28" d="M2240.65,2634.84c2.92,5.83,4.34,12.51,5,19a103.36,103.36,0,0,1-2.36,35.05c-.76,3.13-1.66,6.27-2.41,9.43a343.34,343.34,0,0,0,34.78.87c6.3-20.67,3.42-44.47-4.4-65.23A298.25,298.25,0,0,1,2240.65,2634.84Z"/><path class="cls-28" d="M2348.79,2611.39a162,162,0,0,1-30,13.31,58.43,58.43,0,0,1,13,16.15c7.49,13.89,10.31,29.48,12.41,45.25q3.72-1.48,7.39-3.18a145.2,145.2,0,0,0,23.27-13.51,121.75,121.75,0,0,0-21.68-51.59C2351.74,2615.79,2350.17,2613.63,2348.79,2611.39Z"/><path class="cls-28" d="M2169.49,2628.76l-5.84-.69a53.48,53.48,0,0,1,.24,11.46l-2.61,48.51,14.1,2.16c7.47,1.16,15,2.3,22.57,3.37,3.3-10.54,3.69-22.39,2.59-33.49-.89-9.06-1.94-19.57.84-27.76C2190.73,2631.27,2180.09,2630,2169.49,2628.76Z"/><path class="cls-28" d="M2022.89,2618.93a28.06,28.06,0,0,1,1.6-6.88,408.09,408.09,0,0,0-55.82-1.5q-8.82.45-17.64,1.48a47.65,47.65,0,0,1,12.16,4.94,49.26,49.26,0,0,1,23.73,36.38c.8,7,.08,14.09.07,21.12,13.12-.68,26.32-.8,39.56-.47a107.17,107.17,0,0,0-.62-28.06C2024.53,2637,2022,2628,2022.89,2618.93Z"/><path class="cls-28" d="M2060.52,2615.86a25.73,25.73,0,0,1,.76,3.65c1.47,11.5-2.8,22.84-5.43,34.14a99,99,0,0,0-2.68,21.56c15.63,1,31.29,2.54,46.92,4.38a118,118,0,0,0,5.51-32.17c.26-8.54.05-18.15,2.88-25.88l-41.27-4.89Z"/></g></svg>