<?xml version="1.0" encoding="UTF-8"?><svg id="Layer_1" xmlns="http://www.w3.org/2000/svg" viewBox="0 0 512 512"><g><rect x="227.54061" y="331.67534" width="95.65957" height="151.5078" fill="#b5b3ac"/><g><rect x="222.88952" y="324.73178" width="104.96175" height="29.11982" rx="3.69431" ry="3.69431" fill="#d4cec2"/><rect x="227.62814" y="329.47037" width="35.24681" height="19.64262" fill="#b5b3ac"/><g><path d="m231.66954,346.90801c-.96014,0-1.7385-.77835-1.7385-1.7385v-11.75568c0-.96014.77835-1.7385,1.7385-1.7385s1.7385.77835,1.7385,1.7385v11.75568c0,.96014-.77835,1.7385-1.7385,1.7385Z" fill="#d4cec2"/><path d="m237.10234,346.90801c-.96014,0-1.7385-.77835-1.7385-1.7385v-11.75568c0-.96014.77835-1.7385,1.7385-1.7385s1.7385.77835,1.7385,1.7385v11.75568c0,.96014-.77835,1.7385-1.7385,1.7385Z" fill="#d4cec2"/><path d="m242.53515,346.90801c-.96014,0-1.7385-.77835-1.7385-1.7385v-11.75568c0-.96014.77835-1.7385,1.7385-1.7385s1.7385.77835,1.7385,1.7385v11.75568c0,.96014-.77835,1.7385-1.7385,1.7385Z" fill="#d4cec2"/><path d="m247.96795,346.90801c-.96014,0-1.7385-.77835-1.7385-1.7385v-11.75568c0-.96014.77835-1.7385,1.7385-1.7385s1.7385.77835,1.7385,1.7385v11.75568c0,.96014-.77835,1.7385-1.7385,1.7385Z" fill="#d4cec2"/><path d="m253.40075,346.90801c-.96014,0-1.7385-.77835-1.7385-1.7385v-11.75568c0-.96014.77835-1.7385,1.7385-1.7385s1.7385.77835,1.7385,1.7385v11.75568c0,.96014-.77835,1.7385-1.7385,1.7385Z" fill="#d4cec2"/><path d="m257.09506,345.41708s0-8.22077,0-8.22077c0-1.98587,3.43442-2.07419,3.47699.00004,0-.00004,0,8.22077,0,8.22077,0,1.98587-3.43442,2.07419-3.47699-.00004Z" fill="#d4cec2"/></g><g><g><path d="m279.62204,332.14068c-.09132,3.52098-5.50314,3.52024-5.5939-.00008.09132-3.52089,5.50314-3.52016,5.5939.00008Z" fill="#b5b3ac"/><path d="m288.21601,332.14068c-.09132,3.52098-5.50314,3.52024-5.5939-.00008.09132-3.52089,5.50314-3.52016,5.5939.00008Z" fill="#b5b3ac"/><path d="m296.80997,332.14068c-.09132,3.52098-5.50314,3.52024-5.5939-.00008.09132-3.52089,5.50314-3.52016,5.5939.00008Z" fill="#b5b3ac"/><path d="m305.40393,332.14068c-.09132,3.52098-5.50314,3.52024-5.5939-.00008.09132-3.52089,5.50314-3.52016,5.5939.00008Z" fill="#b5b3ac"/><path d="m313.99789,332.14068c-.09132,3.52098-5.50314,3.52024-5.5939-.00008.09132-3.52089,5.50314-3.52016,5.5939.00008Z" fill="#b5b3ac"/><path d="m322.59186,332.14068c-.09132,3.52098-5.50314,3.52024-5.5939-.00008.09132-3.52089,5.50314-3.52016,5.5939.00008Z" fill="#b5b3ac"/></g><g><path d="m279.62204,339.29167c-.09132,3.52098-5.50314,3.52024-5.5939-.00008.09132-3.52089,5.50314-3.52016,5.5939.00008Z" fill="#b5b3ac"/><path d="m288.21601,339.29167c-.09132,3.52098-5.50314,3.52024-5.5939-.00008.09132-3.52089,5.50314-3.52016,5.5939.00008Z" fill="#b5b3ac"/><path d="m296.80997,339.29167c-.09132,3.52098-5.50314,3.52024-5.5939-.00008.09132-3.52089,5.50314-3.52016,5.5939.00008Z" fill="#b5b3ac"/><path d="m305.40393,339.29167c-.09132,3.52098-5.50314,3.52024-5.5939-.00008.09132-3.52089,5.50314-3.52016,5.5939.00008Z" fill="#b5b3ac"/><path d="m313.99789,339.29167c-.09132,3.52098-5.50314,3.52024-5.5939-.00008.09132-3.52089,5.50314-3.52016,5.5939.00008Z" fill="#b5b3ac"/><path d="m322.59186,339.29167c-.09132,3.52098-5.50314,3.52024-5.5939-.00008.09132-3.52089,5.50314-3.52016,5.5939.00008Z" fill="#b5b3ac"/></g><g><path d="m279.62204,346.44267c-.09132,3.52098-5.50314,3.52024-5.5939-.00008.09132-3.52089,5.50314-3.52016,5.5939.00008Z" fill="#b5b3ac"/><path d="m288.21601,346.44267c-.09132,3.52098-5.50314,3.52024-5.5939-.00008.09132-3.52089,5.50314-3.52016,5.5939.00008Z" fill="#b5b3ac"/><path d="m296.80997,346.44267c-.09132,3.52098-5.50314,3.52024-5.5939-.00008.09132-3.52089,5.50314-3.52016,5.5939.00008Z" fill="#b5b3ac"/><path d="m305.40393,346.44267c-.09132,3.52098-5.50314,3.52024-5.5939-.00008.09132-3.52089,5.50314-3.52016,5.5939.00008Z" fill="#b5b3ac"/><path d="m313.99789,346.44267c-.09132,3.52098-5.50314,3.52024-5.5939-.00008.09132-3.52089,5.50314-3.52016,5.5939.00008Z" fill="#b5b3ac"/><path d="m322.59186,346.44267c-.09132,3.52098-5.50314,3.52024-5.5939-.00008.09132-3.52089,5.50314-3.52016,5.5939.00008Z" fill="#b5b3ac"/></g></g></g><g><rect x="222.88952" y="359.80808" width="104.96175" height="29.11982" rx="3.69431" ry="3.69431" fill="#d4cec2"/><rect x="227.62814" y="364.54667" width="35.24681" height="19.64262" fill="#b5b3ac"/><g><path d="m231.66954,381.98431c-.96014,0-1.7385-.77835-1.7385-1.7385v-11.75568c0-.96014.77835-1.7385,1.7385-1.7385s1.7385.77835,1.7385,1.7385v11.75568c0,.96014-.77835,1.7385-1.7385,1.7385Z" fill="#d4cec2"/><path d="m237.10234,381.98431c-.96014,0-1.7385-.77835-1.7385-1.7385v-11.75568c0-.96014.77835-1.7385,1.7385-1.7385s1.7385.77835,1.7385,1.7385v11.75568c0,.96014-.77835,1.7385-1.7385,1.7385Z" fill="#d4cec2"/><path d="m242.53515,381.98431c-.96014,0-1.7385-.77835-1.7385-1.7385v-11.75568c0-.96014.77835-1.7385,1.7385-1.7385s1.7385.77835,1.7385,1.7385v11.75568c0,.96014-.77835,1.7385-1.7385,1.7385Z" fill="#d4cec2"/><path d="m247.96795,381.98431c-.96014,0-1.7385-.77835-1.7385-1.7385v-11.75568c0-.96014.77835-1.7385,1.7385-1.7385s1.7385.77835,1.7385,1.7385v11.75568c0,.96014-.77835,1.7385-1.7385,1.7385Z" fill="#d4cec2"/><path d="m253.40075,381.98431c-.96014,0-1.7385-.77835-1.7385-1.7385v-11.75568c0-.96014.77835-1.7385,1.7385-1.7385s1.7385.77835,1.7385,1.7385v11.75568c0,.96014-.77835,1.7385-1.7385,1.7385Z" fill="#d4cec2"/><path d="m257.09506,380.49338s0-8.22077,0-8.22077c0-1.98587,3.43442-2.07419,3.47699.00004,0-.00004,0,8.22077,0,8.22077,0,1.98587-3.43442,2.07419-3.47699-.00004Z" fill="#d4cec2"/></g><g><g><path d="m279.62204,367.21698c-.09132,3.52098-5.50314,3.52024-5.5939-.00008.09132-3.52089,5.50314-3.52016,5.5939.00008Z" fill="#b5b3ac"/><path d="m288.21601,367.21698c-.09132,3.52098-5.50314,3.52024-5.5939-.00008.09132-3.52089,5.50314-3.52016,5.5939.00008Z" fill="#b5b3ac"/><path d="m296.80997,367.21698c-.09132,3.52098-5.50314,3.52024-5.5939-.00008.09132-3.52089,5.50314-3.52016,5.5939.00008Z" fill="#b5b3ac"/><path d="m305.40393,367.21698c-.09132,3.52098-5.50314,3.52024-5.5939-.00008.09132-3.52089,5.50314-3.52016,5.5939.00008Z" fill="#b5b3ac"/><path d="m313.99789,367.21698c-.09132,3.52098-5.50314,3.52024-5.5939-.00008.09132-3.52089,5.50314-3.52016,5.5939.00008Z" fill="#b5b3ac"/><path d="m322.59186,367.21698c-.09132,3.52098-5.50314,3.52024-5.5939-.00008.09132-3.52089,5.50314-3.52016,5.5939.00008Z" fill="#b5b3ac"/></g><g><path d="m279.62204,374.36798c-.09132,3.52098-5.50314,3.52024-5.5939-.00008.09132-3.52089,5.50314-3.52016,5.5939.00008Z" fill="#b5b3ac"/><path d="m288.21601,374.36798c-.09132,3.52098-5.50314,3.52024-5.5939-.00008.09132-3.52089,5.50314-3.52016,5.5939.00008Z" fill="#b5b3ac"/><path d="m296.80997,374.36798c-.09132,3.52098-5.50314,3.52024-5.5939-.00008.09132-3.52089,5.50314-3.52016,5.5939.00008Z" fill="#b5b3ac"/><path d="m305.40393,374.36798c-.09132,3.52098-5.50314,3.52024-5.5939-.00008.09132-3.52089,5.50314-3.52016,5.5939.00008Z" fill="#b5b3ac"/><path d="m313.99789,374.36798c-.09132,3.52098-5.50314,3.52024-5.5939-.00008.09132-3.52089,5.50314-3.52016,5.5939.00008Z" fill="#b5b3ac"/><path d="m322.59186,374.36798c-.09132,3.52098-5.50314,3.52024-5.5939-.00008.09132-3.52089,5.50314-3.52016,5.5939.00008Z" fill="#b5b3ac"/></g><g><path d="m279.62204,381.51897c-.09132,3.52098-5.50314,3.52024-5.5939-.00008.09132-3.52089,5.50314-3.52016,5.5939.00008Z" fill="#b5b3ac"/><path d="m288.21601,381.51897c-.09132,3.52098-5.50314,3.52024-5.5939-.00008.09132-3.52089,5.50314-3.52016,5.5939.00008Z" fill="#b5b3ac"/><path d="m296.80997,381.51897c-.09132,3.52098-5.50314,3.52024-5.5939-.00008.09132-3.52089,5.50314-3.52016,5.5939.00008Z" fill="#b5b3ac"/><path d="m305.40393,381.51897c-.09132,3.52098-5.50314,3.52024-5.5939-.00008.09132-3.52089,5.50314-3.52016,5.5939.00008Z" fill="#b5b3ac"/><path d="m313.99789,381.51897c-.09132,3.52098-5.50314,3.52024-5.5939-.00008.09132-3.52089,5.50314-3.52016,5.5939.00008Z" fill="#b5b3ac"/><path d="m322.59186,381.51897c-.09132,3.52098-5.50314,3.52024-5.5939-.00008.09132-3.52089,5.50314-3.52016,5.5939.00008Z" fill="#b5b3ac"/></g></g></g><g><rect x="222.88952" y="394.88438" width="104.96175" height="29.11982" rx="3.69431" ry="3.69431" fill="#d4cec2"/><rect x="227.62814" y="399.62297" width="35.24681" height="19.64262" fill="#b5b3ac"/><g><path d="m231.66954,417.06061c-.96014,0-1.7385-.77835-1.7385-1.7385v-11.75568c0-.96014.77835-1.7385,1.7385-1.7385s1.7385.77835,1.7385,1.7385v11.75568c0,.96014-.77835,1.7385-1.7385,1.7385Z" fill="#d4cec2"/><path d="m237.10234,417.06061c-.96014,0-1.7385-.77835-1.7385-1.7385v-11.75568c0-.96014.77835-1.7385,1.7385-1.7385s1.7385.77835,1.7385,1.7385v11.75568c0,.96014-.77835,1.7385-1.7385,1.7385Z" fill="#d4cec2"/><path d="m242.53515,417.06061c-.96014,0-1.7385-.77835-1.7385-1.7385v-11.75568c0-.96014.77835-1.7385,1.7385-1.7385s1.7385.77835,1.7385,1.7385v11.75568c0,.96014-.77835,1.7385-1.7385,1.7385Z" fill="#d4cec2"/><path d="m247.96795,417.06061c-.96014,0-1.7385-.77835-1.7385-1.7385v-11.75568c0-.96014.77835-1.7385,1.7385-1.7385s1.7385.77835,1.7385,1.7385v11.75568c0,.96014-.77835,1.7385-1.7385,1.7385Z" fill="#d4cec2"/><path d="m253.40075,417.06061c-.96014,0-1.7385-.77835-1.7385-1.7385v-11.75568c0-.96014.77835-1.7385,1.7385-1.7385s1.7385.77835,1.7385,1.7385v11.75568c0,.96014-.77835,1.7385-1.7385,1.7385Z" fill="#d4cec2"/><path d="m257.09506,415.56969s0-8.22077,0-8.22077c0-1.98587,3.43442-2.07419,3.47699.00004,0-.00004,0,8.22077,0,8.22077,0,1.98587-3.43442,2.07419-3.47699-.00004Z" fill="#d4cec2"/></g><g><g><path d="m279.62204,402.29328c-.09132,3.52098-5.50314,3.52024-5.5939-.00008.09132-3.52089,5.50314-3.52016,5.5939.00008Z" fill="#b5b3ac"/><path d="m288.21601,402.29328c-.09132,3.52098-5.50314,3.52024-5.5939-.00008.09132-3.52089,5.50314-3.52016,5.5939.00008Z" fill="#b5b3ac"/><path d="m296.80997,402.29328c-.09132,3.52098-5.50314,3.52024-5.5939-.00008.09132-3.52089,5.50314-3.52016,5.5939.00008Z" fill="#b5b3ac"/><path d="m305.40393,402.29328c-.09132,3.52098-5.50314,3.52024-5.5939-.00008.09132-3.52089,5.50314-3.52016,5.5939.00008Z" fill="#b5b3ac"/><path d="m313.99789,402.29328c-.09132,3.52098-5.50314,3.52024-5.5939-.00008.09132-3.52089,5.50314-3.52016,5.5939.00008Z" fill="#b5b3ac"/><path d="m322.59186,402.29328c-.09132,3.52098-5.50314,3.52024-5.5939-.00008.09132-3.52089,5.50314-3.52016,5.5939.00008Z" fill="#b5b3ac"/></g><g><path d="m279.62204,409.44428c-.09132,3.52098-5.50314,3.52024-5.5939-.00008.09132-3.52089,5.50314-3.52016,5.5939.00008Z" fill="#b5b3ac"/><path d="m288.21601,409.44428c-.09132,3.52098-5.50314,3.52024-5.5939-.00008.09132-3.52089,5.50314-3.52016,5.5939.00008Z" fill="#b5b3ac"/><path d="m296.80997,409.44428c-.09132,3.52098-5.50314,3.52024-5.5939-.00008.09132-3.52089,5.50314-3.52016,5.5939.00008Z" fill="#b5b3ac"/><path d="m305.40393,409.44428c-.09132,3.52098-5.50314,3.52024-5.5939-.00008.09132-3.52089,5.50314-3.52016,5.5939.00008Z" fill="#b5b3ac"/><path d="m313.99789,409.44428c-.09132,3.52098-5.50314,3.52024-5.5939-.00008.09132-3.52089,5.50314-3.52016,5.5939.00008Z" fill="#b5b3ac"/><path d="m322.59186,409.44428c-.09132,3.52098-5.50314,3.52024-5.5939-.00008.09132-3.52089,5.50314-3.52016,5.5939.00008Z" fill="#b5b3ac"/></g><g><path d="m279.62204,416.59527c-.09132,3.52098-5.50314,3.52024-5.5939-.00008.09132-3.52089,5.50314-3.52016,5.5939.00008Z" fill="#b5b3ac"/><path d="m288.21601,416.59527c-.09132,3.52098-5.50314,3.52024-5.5939-.00008.09132-3.52089,5.50314-3.52016,5.5939.00008Z" fill="#b5b3ac"/><path d="m296.80997,416.59527c-.09132,3.52098-5.50314,3.52024-5.5939-.00008.09132-3.52089,5.50314-3.52016,5.5939.00008Z" fill="#b5b3ac"/><path d="m305.40393,416.59527c-.09132,3.52098-5.50314,3.52024-5.5939-.00008.09132-3.52089,5.50314-3.52016,5.5939.00008Z" fill="#b5b3ac"/><path d="m313.99789,416.59527c-.09132,3.52098-5.50314,3.52024-5.5939-.00008.09132-3.52089,5.50314-3.52016,5.5939.00008Z" fill="#b5b3ac"/><path d="m322.59186,416.59527c-.09132,3.52098-5.50314,3.52024-5.5939-.00008.09132-3.52089,5.50314-3.52016,5.5939.00008Z" fill="#b5b3ac"/></g></g></g><g><rect x="222.88952" y="429.96068" width="104.96175" height="29.11982" rx="3.69431" ry="3.69431" fill="#d4cec2"/><rect x="227.62814" y="434.69927" width="35.24681" height="19.64262" fill="#b5b3ac"/><g><path d="m231.66954,452.13692c-.96014,0-1.7385-.77835-1.7385-1.7385v-11.75568c0-.96014.77835-1.7385,1.7385-1.7385s1.7385.77835,1.7385,1.7385v11.75568c0,.96014-.77835,1.7385-1.7385,1.7385Z" fill="#d4cec2"/><path d="m237.10234,452.13692c-.96014,0-1.7385-.77835-1.7385-1.7385v-11.75568c0-.96014.77835-1.7385,1.7385-1.7385s1.7385.77835,1.7385,1.7385v11.75568c0,.96014-.77835,1.7385-1.7385,1.7385Z" fill="#d4cec2"/><path d="m242.53515,452.13692c-.96014,0-1.7385-.77835-1.7385-1.7385v-11.75568c0-.96014.77835-1.7385,1.7385-1.7385s1.7385.77835,1.7385,1.7385v11.75568c0,.96014-.77835,1.7385-1.7385,1.7385Z" fill="#d4cec2"/><path d="m247.96795,452.13692c-.96014,0-1.7385-.77835-1.7385-1.7385v-11.75568c0-.96014.77835-1.7385,1.7385-1.7385s1.7385.77835,1.7385,1.7385v11.75568c0,.96014-.77835,1.7385-1.7385,1.7385Z" fill="#d4cec2"/><path d="m253.40075,452.13692c-.96014,0-1.7385-.77835-1.7385-1.7385v-11.75568c0-.96014.77835-1.7385,1.7385-1.7385s1.7385.77835,1.7385,1.7385v11.75568c0,.96014-.77835,1.7385-1.7385,1.7385Z" fill="#d4cec2"/><path d="m257.09506,450.64599s0-8.22077,0-8.22077c0-1.98587,3.43442-2.07419,3.47699.00004,0-.00004,0,8.22077,0,8.22077,0,1.98587-3.43442,2.07419-3.47699-.00004Z" fill="#d4cec2"/></g><g><g><path d="m279.62204,437.36959c-.09132,3.52098-5.50314,3.52024-5.5939-.00008.09132-3.52089,5.50314-3.52016,5.5939.00008Z" fill="#b5b3ac"/><path d="m288.21601,437.36959c-.09132,3.52098-5.50314,3.52024-5.5939-.00008.09132-3.52089,5.50314-3.52016,5.5939.00008Z" fill="#b5b3ac"/><path d="m296.80997,437.36959c-.09132,3.52098-5.50314,3.52024-5.5939-.00008.09132-3.52089,5.50314-3.52016,5.5939.00008Z" fill="#b5b3ac"/><path d="m305.40393,437.36959c-.09132,3.52098-5.50314,3.52024-5.5939-.00008.09132-3.52089,5.50314-3.52016,5.5939.00008Z" fill="#b5b3ac"/><path d="m313.99789,437.36959c-.09132,3.52098-5.50314,3.52024-5.5939-.00008.09132-3.52089,5.50314-3.52016,5.5939.00008Z" fill="#b5b3ac"/><path d="m322.59186,437.36959c-.09132,3.52098-5.50314,3.52024-5.5939-.00008.09132-3.52089,5.50314-3.52016,5.5939.00008Z" fill="#b5b3ac"/></g><g><path d="m279.62204,444.52058c-.09132,3.52098-5.50314,3.52024-5.5939-.00008.09132-3.52089,5.50314-3.52016,5.5939.00008Z" fill="#b5b3ac"/><path d="m288.21601,444.52058c-.09132,3.52098-5.50314,3.52024-5.5939-.00008.09132-3.52089,5.50314-3.52016,5.5939.00008Z" fill="#b5b3ac"/><path d="m296.80997,444.52058c-.09132,3.52098-5.50314,3.52024-5.5939-.00008.09132-3.52089,5.50314-3.52016,5.5939.00008Z" fill="#b5b3ac"/><path d="m305.40393,444.52058c-.09132,3.52098-5.50314,3.52024-5.5939-.00008.09132-3.52089,5.50314-3.52016,5.5939.00008Z" fill="#b5b3ac"/><path d="m313.99789,444.52058c-.09132,3.52098-5.50314,3.52024-5.5939-.00008.09132-3.52089,5.50314-3.52016,5.5939.00008Z" fill="#b5b3ac"/><path d="m322.59186,444.52058c-.09132,3.52098-5.50314,3.52024-5.5939-.00008.09132-3.52089,5.50314-3.52016,5.5939.00008Z" fill="#b5b3ac"/></g><g><path d="m279.62204,451.67157c-.09132,3.52098-5.50314,3.52024-5.5939-.00008.09132-3.52089,5.50314-3.52016,5.5939.00008Z" fill="#b5b3ac"/><path d="m288.21601,451.67157c-.09132,3.52098-5.50314,3.52024-5.5939-.00008.09132-3.52089,5.50314-3.52016,5.5939.00008Z" fill="#b5b3ac"/><path d="m296.80997,451.67157c-.09132,3.52098-5.50314,3.52024-5.5939-.00008.09132-3.52089,5.50314-3.52016,5.5939.00008Z" fill="#b5b3ac"/><path d="m305.40393,451.67157c-.09132,3.52098-5.50314,3.52024-5.5939-.00008.09132-3.52089,5.50314-3.52016,5.5939.00008Z" fill="#b5b3ac"/><path d="m313.99789,451.67157c-.09132,3.52098-5.50314,3.52024-5.5939-.00008.09132-3.52089,5.50314-3.52016,5.5939.00008Z" fill="#b5b3ac"/><path d="m322.59186,451.67157c-.09132,3.52098-5.50314,3.52024-5.5939-.00008.09132-3.52089,5.50314-3.52016,5.5939.00008Z" fill="#b5b3ac"/></g></g></g><g><rect x="222.88952" y="465.03698" width="104.96175" height="29.11982" rx="3.69431" ry="3.69431" fill="#d4cec2"/><rect x="227.62814" y="469.77557" width="35.24681" height="19.64262" fill="#b5b3ac"/><g><path d="m231.66954,487.21322c-.96014,0-1.7385-.77835-1.7385-1.7385v-11.75568c0-.96014.77835-1.7385,1.7385-1.7385s1.7385.77835,1.7385,1.7385v11.75568c0,.96014-.77835,1.7385-1.7385,1.7385Z" fill="#d4cec2"/><path d="m237.10234,487.21322c-.96014,0-1.7385-.77835-1.7385-1.7385v-11.75568c0-.96014.77835-1.7385,1.7385-1.7385s1.7385.77835,1.7385,1.7385v11.75568c0,.96014-.77835,1.7385-1.7385,1.7385Z" fill="#d4cec2"/><path d="m242.53515,487.21322c-.96014,0-1.7385-.77835-1.7385-1.7385v-11.75568c0-.96014.77835-1.7385,1.7385-1.7385s1.7385.77835,1.7385,1.7385v11.75568c0,.96014-.77835,1.7385-1.7385,1.7385Z" fill="#d4cec2"/><path d="m247.96795,487.21322c-.96014,0-1.7385-.77835-1.7385-1.7385v-11.75568c0-.96014.77835-1.7385,1.7385-1.7385s1.7385.77835,1.7385,1.7385v11.75568c0,.96014-.77835,1.7385-1.7385,1.7385Z" fill="#d4cec2"/><path d="m253.40075,487.21322c-.96014,0-1.7385-.77835-1.7385-1.7385v-11.75568c0-.96014.77835-1.7385,1.7385-1.7385s1.7385.77835,1.7385,1.7385v11.75568c0,.96014-.77835,1.7385-1.7385,1.7385Z" fill="#d4cec2"/><path d="m257.09506,485.72229s0-8.22077,0-8.22077c0-1.98587,3.43442-2.07419,3.47699.00004,0-.00004,0,8.22077,0,8.22077,0,1.98587-3.43442,2.07419-3.47699-.00004Z" fill="#d4cec2"/></g><g><g><path d="m279.62204,472.44589c-.09132,3.52098-5.50314,3.52024-5.5939-.00008.09132-3.52089,5.50314-3.52016,5.5939.00008Z" fill="#b5b3ac"/><path d="m288.21601,472.44589c-.09132,3.52098-5.50314,3.52024-5.5939-.00008.09132-3.52089,5.50314-3.52016,5.5939.00008Z" fill="#b5b3ac"/><path d="m296.80997,472.44589c-.09132,3.52098-5.50314,3.52024-5.5939-.00008.09132-3.52089,5.50314-3.52016,5.5939.00008Z" fill="#b5b3ac"/><path d="m305.40393,472.44589c-.09132,3.52098-5.50314,3.52024-5.5939-.00008.09132-3.52089,5.50314-3.52016,5.5939.00008Z" fill="#b5b3ac"/><path d="m313.99789,472.44589c-.09132,3.52098-5.50314,3.52024-5.5939-.00008.09132-3.52089,5.50314-3.52016,5.5939.00008Z" fill="#b5b3ac"/><path d="m322.59186,472.44589c-.09132,3.52098-5.50314,3.52024-5.5939-.00008.09132-3.52089,5.50314-3.52016,5.5939.00008Z" fill="#b5b3ac"/></g><g><path d="m279.62204,479.59688c-.09132,3.52098-5.50314,3.52024-5.5939-.00008.09132-3.52089,5.50314-3.52016,5.5939.00008Z" fill="#b5b3ac"/><path d="m288.21601,479.59688c-.09132,3.52098-5.50314,3.52024-5.5939-.00008.09132-3.52089,5.50314-3.52016,5.5939.00008Z" fill="#b5b3ac"/><path d="m296.80997,479.59688c-.09132,3.52098-5.50314,3.52024-5.5939-.00008.09132-3.52089,5.50314-3.52016,5.5939.00008Z" fill="#b5b3ac"/><path d="m305.40393,479.59688c-.09132,3.52098-5.50314,3.52024-5.5939-.00008.09132-3.52089,5.50314-3.52016,5.5939.00008Z" fill="#b5b3ac"/><path d="m313.99789,479.59688c-.09132,3.52098-5.50314,3.52024-5.5939-.00008.09132-3.52089,5.50314-3.52016,5.5939.00008Z" fill="#b5b3ac"/><path d="m322.59186,479.59688c-.09132,3.52098-5.50314,3.52024-5.5939-.00008.09132-3.52089,5.50314-3.52016,5.5939.00008Z" fill="#b5b3ac"/></g><g><path d="m279.62204,486.74788c-.09132,3.52098-5.50314,3.52024-5.5939-.00008.09132-3.52089,5.50314-3.52016,5.5939.00008Z" fill="#b5b3ac"/><path d="m288.21601,486.74788c-.09132,3.52098-5.50314,3.52024-5.5939-.00008.09132-3.52089,5.50314-3.52016,5.5939.00008Z" fill="#b5b3ac"/><path d="m296.80997,486.74788c-.09132,3.52098-5.50314,3.52024-5.5939-.00008.09132-3.52089,5.50314-3.52016,5.5939.00008Z" fill="#b5b3ac"/><path d="m305.40393,486.74788c-.09132,3.52098-5.50314,3.52024-5.5939-.00008.09132-3.52089,5.50314-3.52016,5.5939.00008Z" fill="#b5b3ac"/><path d="m313.99789,486.74788c-.09132,3.52098-5.50314,3.52024-5.5939-.00008.09132-3.52089,5.50314-3.52016,5.5939.00008Z" fill="#b5b3ac"/><path d="m322.59186,486.74788c-.09132,3.52098-5.50314,3.52024-5.5939-.00008.09132-3.52089,5.50314-3.52016,5.5939.00008Z" fill="#b5b3ac"/></g></g></g></g><g><g><path d="m412.66569,27.08391s0,194.46938,0,194.46938c0,5.25148-4.4386,9.51134-9.92636,9.51134H125.15801c-5.48777,0-9.93213-4.25987-9.93213-9.51134.10406-.6374-.10259-194.48538.02308-195.06314.31707-4.98619,4.62887-8.92336,9.90905-8.92336h277.58131c5.49129-.00898,9.93923,4.28575,9.92636,9.51711Z" fill="#383b60"/><path d="m412.66569,44.11789H115.22587c0-12.42321-.01307-17.21864.02308-17.62773h297.39942l.01731,17.62773Z" fill="#e2dfda"/><g><path d="m412.66597,27.08129v8.23067H115.22878v-8.23067c0-5.25862,4.44131-9.51557,9.92735-9.51557h277.58268c5.48622,0,9.92717,4.25695,9.92717,9.51557Z" fill="#b5b3ac"/><g><path d="m136.91114,26.7289c-.08231,3.18042-4.95089,3.17976-5.03269-.00008.08231-3.18035,4.95089-3.17969,5.03269.00008Z" fill="#fefefe"/><path d="m145.51969,26.7289c-.08231,3.18042-4.95089,3.17976-5.03269-.00008.08231-3.18035,4.95089-3.17969,5.03269.00008Z" fill="#fefefe"/><path d="m154.12825,26.7289c-.08231,3.18042-4.95089,3.17976-5.03269-.00008.08231-3.18035,4.95089-3.17969,5.03269.00008Z" fill="#fefefe"/></g></g></g><g><rect x="137.6135" y="58.36914" width="67.41535" height="4.4849" fill="#f19e45"/><rect x="214.39213" y="58.36914" width="16.31891" height="4.4849" fill="#68a4c2"/><rect x="148.04693" y="69.66357" width="25.94959" height="4.4849" fill="#dde0e7"/><rect x="180.68418" y="69.66357" width="37.72055" height="4.4849" fill="#68a4c2"/><rect x="228.03541" y="69.66357" width="19.52932" height="4.4849" fill="#68a4c2"/><rect x="156.87487" y="83.86219" width="23.80931" height="4.4849" fill="#d2593a"/><rect x="190.04747" y="83.86219" width="28.35726" height="4.4849" fill="#d2593a"/><rect x="228.03541" y="83.86219" width="73.03343" height="4.4849" fill="#d2593a"/><rect x="165.43597" y="96.44743" width="28.62466" height="4.4849" fill="#dde0e7"/><rect x="203.15596" y="96.44743" width="27.55508" height="4.4849" fill="#68a4c2"/><rect x="238.73624" y="96.44743" width="58.32001" height="4.4849" fill="#68a4c2"/><rect x="306.15158" y="96.44743" width="27.55508" height="4.4849" fill="#68a4c2"/><rect x="176.85003" y="108.06471" width="18.54813" height="4.4849" fill="#68a4c2"/><rect x="204.2261" y="108.06471" width="57.78466" height="4.4849" fill="#f19e45"/><rect x="271.64145" y="108.06471" width="33.44" height="4.4849" fill="#f19e45"/><rect x="313.3746" y="108.06471" width="29.96275" height="4.4849" fill="#f19e45"/><rect x="180.68418" y="120.00455" width="24.34467" height="4.4849" fill="#d2593a"/><rect x="213.322" y="120.00455" width="77.04603" height="4.4849" fill="#dde0e7"/><rect x="195.39816" y="134.29802" width="42.40192" height="4.4849" fill="#d2593a"/><rect x="247.56474" y="134.29802" width="44.67617" height="4.4849" fill="#68a4c2"/><rect x="299.73132" y="134.29802" width="28.62466" height="4.4849" fill="#68a4c2"/><rect x="233.11871" y="144.2068" width="47.08328" height="4.4849" fill="#f19e45"/><rect x="288.36173" y="144.2068" width="42.13452" height="4.4849" fill="#dde0e7"/><rect x="339.32419" y="144.2068" width="41.17697" height="4.4849" fill="#f19e45"/><polygon points="228.94005 160.43 224.45571 160.43 224.45571 155.50151 244.88967 155.50151 244.88967 159.98641 228.94005 159.98641 228.94005 160.43" fill="#68a4c2"/><rect x="250.2398" y="155.50151" width="76.59568" height="4.4849" fill="#68a4c2"/><rect x="206.66192" y="168.07944" width="17.09351" height="4.4849" fill="#68a4c2"/><rect x="232.04857" y="168.07944" width="12.8411" height="4.4849" fill="#f19e45"/><rect x="252.91487" y="168.07944" width="65.81042" height="4.4849" fill="#f19e45"/><rect x="326.83549" y="168.07944" width="21.64652" height="4.4849" fill="#f19e45"/><rect x="180.68418" y="183.54269" width="27.55508" height="4.4849" fill="#dde0e7"/><rect x="218.40473" y="183.30626" width="30.49754" height="4.4849" fill="#68a4c2"/><rect x="165.43597" y="201.00182" width="86.40876" height="4.4849" fill="#f19e45"/><rect x="262.01076" y="199.48161" width="14.71342" height="4.4849" fill="#dde0e7"/><rect x="283.94776" y="199.48161" width="31.29972" height="4.4849" fill="#dde0e7"/><rect x="322.73789" y="198.85591" width="60.34376" height="4.4849" fill="#68a4c2"/></g></g><g><g><g><rect x="9.50167" y="447.5308" width="90.6212" height="4.6117" transform="translate(-395.39389 398.14715) rotate(-76.50318)" fill="#c0a19f"/><rect x="60.24853" y="447.5308" width="90.6212" height="4.6117" transform="translate(-356.49092 447.49252) rotate(-76.50318)" fill="#c0a19f"/><rect x="59.09564" y="429.68218" width="50.40853" height="4.61156" fill="#c0a19f"/><rect x="52.47103" y="457.28427" width="50.53463" height="4.61156" fill="#c0a19f"/></g><g><rect x="135.25216" y="404.52605" width="4.6117" height="90.6212" transform="translate(-101.18038 44.52295) rotate(-13.49559)" fill="#886b63"/><rect x="133.61297" y="429.68218" width="50.40853" height="4.61156" fill="#886b63"/><rect x="185.99902" y="404.52605" width="4.6117" height="90.6212" transform="translate(-99.77915 56.36577) rotate(-13.49559)" fill="#886b63"/><rect x="140.11148" y="457.28427" width="50.53407" height="4.61156" fill="#886b63"/></g><rect x="58.76931" y="401.72551" width="126.01088" height="6.69252" fill="#c0a19f"/><rect x="125.14118" y="401.72551" width="59.639" height="6.69252" fill="#886b63"/></g><g><path d="m87.24996,188.76437l-5.38982,17.61605s-29.43331-28.19964-33.66433-36.48308c-4.16475-7.12684,9.99099-24.93089,11.63262-26.60879l17.35091,10.57205-6.95196,12.5146,17.02258,22.38917Z" fill="#f9b9a7"/><g opacity=".33"><path d="m77.17935,153.8606l-6.60604,11.89199c-3.00326-1.6774-11.73634-6.36397-20.05454-8.90605,3.65471-7.02683,9.30967-13.558,9.30967-13.558l17.35091,10.57205Z" fill="#ff8389"/></g><path d="m88.25945,109.70844c-.01424-.1165-.56214,34.99714-1.11266,35.34215-.53027-.00028-12.16289,21.32242-12.16289,21.32242-12.08338-4.09885-19.20838-19.76358-19.9162-22.73495,5.28595-10.04177,33.19174-33.92961,33.19174-33.92961Z" fill="#f0a247"/><g opacity=".3"><path d="m87.88482,128.01634c-.20758,8.61782-.48426,17.03398-.73801,17.03398-.53028,0-12.1629,21.32269-12.1629,21.32269-2.68618-1.01455-5.0612-2.43835-7.148-4.08128,2.43272-12.79128,13.40234-41.9997,13.40234-41.9997l6.64657,7.72431Z" fill="#3c2123"/></g><path d="m127.92548,380.56854s-4.58002,21.90443-1.99131,22.30269,18.71833,0,18.71833,0v-1.39392s2.98697,1.15054,6.3722,1.57092c3.38523.42039,12.147-.17701,12.147-.17701,0,0,2.04821-7.8435-6.64622-10.98661-5.26989-1.89452-9.54847-5.9815-11.27557-11.31609-1.79219-5.37653-17.32442.00001-17.32442.00001Z" fill="#3c2123"/><path d="m76.56318,380.56854s-4.58002,21.90443-1.99131,22.30269,18.71833,0,18.71833,0v-1.39392s2.98697,1.15054,6.3722,1.57092,12.147-.17701,12.147-.17701c0,0,2.04821-7.8435-6.64622-10.98661-5.26989-1.89452-9.54847-5.9815-11.27557-11.31609-1.79219-5.37653-17.32442.00001-17.32442.00001Z" fill="#3c2123"/><path d="m120.27438,213.07878l-.70325,20.44071c-.54588,6.8716-5.81466,65.33656-8.10485,72.68976-2.46706,7.93189-13.39657,76.31548-13.39657,76.31548-8.10471,3.34341-23.96848.87621-23.96848.87621-1.93692-24.32018,5.46469-76.83437,5.46469-76.83437,0,0,.53028-60.53249-.17873-62.648-.70325-2.11551.53028-2.11551,0-7.75316-.52451-5.63765,0-23.08665,0-23.08665h40.8872Z" fill="#6062a3"/><path d="m117.91681,251.72367c-.54197,5.74137-1.17597,12.30124-1.83897,18.84395l-9.79379-23.99171-13.38503-8.26613,17.61619,2.56515,7.4016,10.84873Z" fill="#42437a"/><path d="m98.42366,218.36456s6.16833,24.67331,13.9228,34.71887c7.75447,10.04556,18.50498,53.48051,18.50498,53.48051,0,0-7.22576,51.81395-6.5208,73.8437,0,0,17.09508,4.58219,27.49312,0,0,0,12.16042-68.90903,12.16042-81.24569s-18.15251-92.78157-18.15251-92.78157l-47.40801,11.98418Z" fill="#6062a3"/><path d="m219.52099,103.58309s-22.41802,48.73268-39.07722,47.21655c-1.56214-.14411-3.03211-.3113-4.41566-.5072-13.35618-1.86768-18.45778-5.851-18.45778-5.851l7.11915-20.14672c3.85257,1.2477,11.60708,3.75647,15.44875,4.99773l28.78186-33.17429,10.6009,7.46493Z" fill="#f9b9a7"/><g opacity=".33"><path d="m176.02811,150.29244c-13.35618-1.86768-18.45778-5.851-18.45778-5.851l7.11915-20.14672,7.97805,2.58246c.50143,5.51085,1.65432,16.46907,3.36058,23.41526Z" fill="#ff8389"/></g><g><g><polygon points="120.86207 98.08624 120.16292 109.57885 104.52265 107.86881 106.89425 90.18955 120.86207 98.08624" fill="#f9b9a7"/><path d="m131.58117,70.39104c.27752.12685-.37226,6.21013-.4047,6.64518-.24865,3.33454-1.14081,6.33246-.13432,9.74856.34757,1.17967.85515,2.41775.55034,3.59079-.1964.75584-.70474,1.35643-1.07227,2.0303-1.64253,3.01156-.80624,7.41228-3.46772,8.94895-5.95314,2.90145-12.26742-1.29351-16.16292-6.0737,0,0,1.79027-32.82553,20.69159-24.89007Z" fill="#f9b9a7"/><path d="m98.99615,88.09996c5.69896,9.74187,6.69271,11.89492,6.76348,12.29756,1.21847-.13341,11.83062-1.46992,12.29036-7.07142,0,0-3.6541-11.98938,1.2867-9.83461,3.01398,1.31445,3.63405,5.77763,3.63405,5.77763l1.81144-.34814-.30982-4.60794c-.36462-2.27594.23891-4.55428,1.68208-6.28797.56403-.9177,1.14795-1.6757,2.13753-2.09312,2.34406-.98876,3.61476-.86028,3.82315-3.51839.21124-2.69446-.92969-5.81098-2.44558-7.98503-1.4729-2.11237-3.61942-2.3676-6.11144-2.79633-4.01835-1.12928-8.20457-2.17248-12.41255-1.70354-4.75856.44921-9.33106,2.99725-8.62536,8.87059,0,0-11.76413,5.23382-3.52405,19.30072Z" fill="#3c2123"/><path d="m105.64586,100.41018s.15048.16562.11377-.01267c-.07595.00674-.11377.01267-.11377.01267Z" fill="#161534"/></g><path d="m118.8237,88.14582c1.09378-1.19357,1.24943-3.44935-1.12909-4.5601l-.19649.52237c1.99648.93882,1.86558,2.60663.97272,3.62195l.35285.41578Z" fill="#dc926f"/></g><path d="m149.00515,212.19461c-53.0501,18.86126-71.83072,3.70073-71.83072,3.70073,0,0,2.04064-35.07096.62823-45.47005-1.40649-10.39318,0-27.84218,0-34.54053s3.17622-21.14973,12.68756-28.03245c9.51711-6.88863,29.79655-3.15891,29.79655-3.15891,0,0,13.2063,2.99172,14.43983,3.87369,1.79858,1.28546,2.2136,8.66398,2.61708,10.60653,1.55697,7.41535,3.13038,14.87706,4.35796,22.36609.48426,2.97441,0,5.75868.29976,8.74462.4381,4.35796,1.04917,8.70437,1.57368,13.05656.0016,9.11931,2.38254,18.54399,4.08704,27.5541,1.25084,6.62321,1.34302,14.52061,1.34302,21.29961Z" fill="#f0a247"/><polygon points="104.66219 240.02266 121.17852 238.30979 105.40791 243.36233 104.66219 240.02266" fill="#42437a"/><path d="m209.15682,99.79239s-.75878-2.53077.15284-5.845c.91162-3.31423-.92687-3.91628,2.60288-8.44701,3.52975-4.53073,11.39169-14.65294,12.48472-14.45828,1.09303.19467,2.0517.25522,1.59422,1.79184-.45748,1.53662-4.92639,9.30656-4.92639,9.30656,0,0,3.49655.24878,2.82994,3.3028,0,0,2.6267,1.58967,2.2877,4.60856,0,0,1.92872,1.07972,1.00949,4.14135-1.24554,4.1485-9.34363,13.16054-12.29882,16.58942l-5.73658-10.99024Z" fill="#ffbbae"/><g opacity=".3"><path d="m146.33628,184.21972c-9.89751-15.18938-15.13168-44.88783-15.13168-44.88783l9.64391-2.70349c.29976,1.63715.58799,3.27417.85313,4.91132.48426,2.97441,0,5.75868.29976,8.74462.4381,4.35796,1.04917,8.70437,1.57368,13.05656,0,6.87695,1.36624,14.00173,2.76119,20.87882Z" fill="#3c2123"/></g><path d="m132.62459,107.4917l35.35736,14.60406c1.05747,1.78999.04926,25.20891-2.7232,30.27574l-36.20272-11.05301c.5989,1.97707-8.81615-37.67066,3.56856-33.82679Z" fill="#f0a247"/></g></g><g><path d="m434.85816,135.04804c9.13326,5.6427,5.34988,17.78124,10.47209,25.78683,2.18038,3.35634,5.68527,5.56938,8.70635,8.19465,6.44968,5.60469,10.72423,13.52863,12.24657,21.90697.71026,3.90903,1.32627,9.06532.1128,12.93859-1.09411,3.49229-5.35306,5.8255-8.68034,6.94474-13.45441,4.11393-40.22943-3.91362-53.12519-9.56658-8.53387-3.0934-10.47192-9.91678-7.83047-18.3209,1.59131-4.87835,4.3831-9.33411,5.61219-14.31623,1.11137-4.50495.89102-9.21717.67223-13.85208-.26863-5.69079.53629-10.95713,3.58323-15.85359,2.94617-4.73453,8.02052-6.01732,13.35162-6.47718,5.7281-.49411,10.96405.10004,14.87894,2.61477Z" fill="#3c2123"/><path d="m401.90224,225.42744c-2.58356,3.86865-17.82263,22.41041-25.60585,24.47556-10.35848,3.58011-3.01458-28.80467-3.01458-28.80467l25.58256-37.21532c.58893,8.09571,2.41776,33.07376,3.03788,41.54443Z" fill="#d95838"/><g opacity=".26"><path d="m404.22814,227.26108s-4.53078,6.20832-10.33562,12.43396c-23.61596,2.01739,6.76023-49.52773,5.79907-48.13315,0,0,1.01455,2.7208,2.40373,6.55988l2.13282,29.13932Z" fill="#3c2123"/></g><path d="m424.86786,474.1288c-3.95447,1.32008-16.56702,0-16.56702,0-.64435-5.42886-5.07-76.54684-6.58873-92.8134l26.97188-7.15363-.61107,18.82664c2.20927,11.55959-2.23889,69.42528-3.20507,81.14039Z" fill="#f9b9a7"/><g opacity=".33"><path d="m428.68399,374.16177l-.61107,18.82664c.22475,1.17597.38617,2.84197.47835,4.88824-6.83656-3.07813-17.60451-3.61995-25.79591-3.49892-.18848-3.25477-.05679-6.14436-1.04326-13.06233l26.97188-7.15363Z" fill="#ff8389"/></g><path d="m482.1031,466.22577c-7.5284,5.83369-15.00488,3.75266-15.00488,3.75266-.58308-1.42843-22.57807-59.04499-30.17717-77.93034-2.44967-5.64841-3.01458-14.49675-3.01458-14.49675l27.8654-6.77914,1.08365,18.65382c8.8077,17.4899,18.9441,76.12815,19.24757,76.79975Z" fill="#f9b9a7"/><g opacity=".33"><path d="m464.25639,392.35441c-9.07338.3113-18.85549,4.53078-24.31455,7.27466-1.53329-3.91971-2.61708-6.6522-3.02057-7.58019-2.44989-5.64919-3.0148-14.49753-3.0148-14.49753l27.8654-6.77914,1.08365,18.65382c.45541.81274.92237,1.79281,1.40086,2.92839Z" fill="#ff8389"/></g><path d="m397.94699,258.37545s-9.41361,34.26553-6.7778,69.84897c2.63581,35.58344,4.51853,59.68228,4.51853,59.68228,0,0,60.24709,4.7068,72.86133-2.44754,0,0-4.06597-55.58165-4.19812-58.29092-.13214-2.70926-1.82659-56.74337-13.3112-65.78044l-53.09275-3.01235Z" fill="#6062a3"/><g><path d="m425.09092,472.09497c0-8.72523-14.12334-10.253-15.88196-3.44256-1.76542,6.81043-19.57576,18.60478-19.57576,18.60478h35.45772s0-15.1758,0-15.1758v.01358Z" fill="#f9b9a7"/><path d="m382.53079,492.48554h-.01358l-.02037-.02037c5.77777,3.18149,16.05671,1.53962,23.23561,1.48702,6.49809-.0679,12.96223-.23765,19.42637-.88271,1.52776-.16975,2.63454-1.54813,2.47158-3.08948l-1.27653-11.71286c-.08148-.69259-.79444-1.16789-1.45307-.92345l-11.97088,4.14873-1.4395-.08148s-2.3901-9.32955-6.58636-7.55734c-4.19626,1.77221-17.30108,10.51781-17.30108,10.51781v.02716c-8.91536,4.38638-5.06539,8.08018-5.06539,8.08018l-.0068.00679Z" fill="#3c2123"/></g><g><polygon points="466.92147 458.74992 466.92147 482.32081 485.39044 483.22389 481.5317 462.94981 466.92147 458.74992" fill="#f9b9a7"/><path d="m486.72808,494.18984c1.26971.00874,2.22741-1.23072,2.15245-2.63455-.20019-3.7493-.86419-6.87772-2.94689-10.00176-1.54134-2.3222-3.15059-4.96354-5.82588-6.74253,0,0-5.56106-9.2277-13.92642.46172,0,0-2.53948,6.04995-4.01293,9.07832,0,0-1.67714,6.20612-.2037,10.08325l24.76337-.23086v-.01358Z" fill="#3c2123"/></g><path d="m457.64444,250.43932c-2.10513,12.10548-4.12821,11.9416-9.91482,12.73372-11.27516,1.56791-23.13267.9166-34.45412.24783-4.75567-.28231-10.83128.01731-15.32758-1.8446-5.45892-2.25962,1.12981-19.76618-2.06949-33.32417-3.20507-13.558.35169-32.00423.54182-34.07949.1845-2.06949,2.06949-8.46794,2.44412-10.2896.37477-1.82152,16.35381-8.79079,16.35381-8.79079l15.68504-3.07813s18.50394,6.79631,21.14973,9.59198c1.08956,1.15866,1.83897,4.88824,1.94846,6.14485.3113,3.45304-1.15289,6.09883-.68031,9.60943,1.16443,8.61205,2.32309,17.22411,3.48752,25.84193,1.21687,9.00261,2.38865,18.22712.83582,27.23702Z" fill="#d95838"/><g opacity=".26"><path d="m456.62412,255.57554l-39.06985,8.09118-9.75501-19.00324,40.10908-17.03398-10.12818-27.68667c10.67.55336,16.41714,13.67326,19.51849,26.95457,1.25827,9.9054,1.8708,18.86588-.67454,28.67814Z" fill="#3c2123"/></g><g><path d="m370.51543,221.26294h36.04634c1.59404,0,3.03095.96072,3.64011,2.43377l17.65623,42.69598c1.07243,2.59333-.83378,5.44439-3.64011,5.44439h-36.68838c-1.61257,0-3.06229-.98288-3.65924-2.48089l-17.01419-42.69598c-1.03081-2.58676.87466-5.39727,3.65924-5.39727Z" fill="#3c2123"/><path d="m368.88195,221.26294h36.04634c1.59404,0,3.03095.96072,3.64011,2.43377l17.65623,42.69598c1.07243,2.59333-.83378,5.44439-3.64011,5.44439h-36.68838c-1.61257,0-3.06229-.98288-3.65924-2.48089l-17.01419-42.69598c-1.03081-2.58676.87466-5.39727,3.65924-5.39727Z" fill="#c2beb5"/><path d="m394.36907,244.44269c1.89902,5.91196-3.85867,7.90881-6.02885,2.09176-1.89899-5.91189,3.8587-7.90874,6.02885-2.09176Z" fill="#b2aca1"/></g><g><path d="m431.8193,243.30047s-4.46132-2.52127-5.85986-3.087c-1.39854-.56573-12.49449-4.31414-13.38463-4.081s-2.34388,1.33113-.66852,2.9098c1.67176,1.57961,7.068,3.36507,6.57252,4.44604s-4.21192,2.39955-7.43646,2.63809c-3.44026.25378-11.54665-.04749-13.79839.12368-.76341.05803-.78732,1.62151.25905,2.64385,0,0-2.37935.49277-.13714,3.43033,0,0-1.05959,1.89993,1.37745,2.94542l2.43345,1.04643s-2.02682,1.99984.6649,3.28547c2.69171,1.28563,6.27536,2.41819,9.5516,1.7327,3.27983-.68643,18.64301-7.5907,20.14017-7.21956,1.49622.36755.28586-10.81425.28586-10.81425Z" fill="#f9b9a7"/><g><path d="m403.19238,250.5083c-1.74414-.47461-5.68848-1.42188-5.72754-1.43164l.08594-.36035c6.5133,1.50918,5.30715,1.96338,15.32031,1.58789l.01562.37109c-1.66433.06747-8.08529.26791-9.69434-.16699Z" fill="#ff8389"/><path d="m402.97754,254.70654c-1.44629-.57227-5.67676-2.20605-5.67676-2.20605l.13281-.3457s4.23438,1.63379,5.68066,2.20703c1.39453.55176,9.10352.34131,9.18164.33936l.00977.37109c-1.4294.04143-7.98066.16752-9.32812-.36572Z" fill="#ff8389"/><path d="m405.93652,258.25488c-.52148-.20361-4.7793-1.74512-4.82227-1.76074l.12695-.34863c.1748.06348,4.30469,1.55859,4.83008,1.76367.3623.14062,3.58691.16748,5.55273.15625l.00195.37109c-.57644.0045-5.14633.0295-5.68945-.18164Z" fill="#ff8389"/></g></g><path d="m449.05609,181.07678c1.8653-.25833,3.71299.57421,4.79137,2.11797,5.58091,7.98935,27.06707,39.68719,26.18439,52.92731-1.01402,15.21027-48.04566,23.48343-48.04566,23.48343,0,0-3.2036-10.64719-3.51012-20.78737l26.78669-9.53489-17.48415-29.33991s2.08249-17.59311,11.27748-18.86655Z" fill="#d95838"/><g><g><path d="m431.19831,173.20375c-.2348,2.699-3.3066,5.75951-5.25619,7.38847-3.2436,3.08036-8.40026,3.26068-10.67172-.99941-.94491-1.89849-.51804-3.5914.08408-5.48006.50014-1.56179.27102-2.82491.16608-4.47329-.19555-3.26958-.26259-6.75437-.41163-10.03695,7.78036-.88676,12.59046-1.3273,14.1521-1.51708.50179,7.57063-.11102,7.28306,1.21555,11.17592l-.00657.00157c.43384,1.34093.83616,2.67253.7283,3.94082Z" fill="#f9b9a7"/><path d="m428.47606,163.19805c-.22399.47202-.3162,1.08759-.74233,1.55218-7.18836,8.25043-10.79812,8.08459-12.07355,7.57665-.03504-2.1103-.28855-4.46216-.32174-6.62862,4.27432-2.60667,10.37496-5.83441,12.92548-5.41435l.21215,2.91414Z" fill="#ff8389"/></g><path d="m433.71199,159.87032c-1.13159,1.20777-2.89632,2.18989-4.56486,2.75754,0,0-4.62914,8.89235-13.41822,8.38585-6.2966-.31985-8.91094-7.10258-9.19337-12.4491-.3459-6.78494-.26185-15.67092,6.25266-19.70996,3.25846-2.01807,7.56973-2.34272,11.08866-.7355,4.08631,1.76001,6.77896,5.64686,9.32049,9.33802.79929,1.23679,1.67174,2.4641,2.07252,3.87394.68396,1.75081-.32021,3.45596-.35915,5.12547-.0059,1.37595-.2609,2.36529-1.19874,3.41373Z" fill="#f9b9a7"/><path d="m417.07066,154.78269c.52092,1.62512,2.90649.91844,2.48459-.70857-.52091-1.62507-2.90649-.91838-2.48459.70857Z" fill="#100f36"/><g><path d="m417.07066,154.78269c.52092,1.62512,2.90649.91844,2.48459-.70857-.52091-1.62507-2.90649-.91838-2.48459.70857Z" fill="#080e1c"/><path d="m418.21037,154.46742c.19332.76851,1.37011.4258,1.14189-.30975-.20372-.79356-1.36214-.38248-1.14189.30975Z" fill="#fff"/></g><g><path d="m408.7355,153.96353c-1.62512.52092-.91844,2.90649.70857,2.48459,1.62507-.52091.91838-2.90649-.70857-2.48459Z" fill="#080e1c"/><path d="m408.99248,155.24528c.19332.7685,1.37011.4258,1.14189-.30975-.19332-.76848-1.37011-.42578-1.14189.30975Z" fill="#fff"/></g><path d="m436.36493,154.25217c.93555-2.15465,1.4459-4.52429,1.15891-6.8719-.28699-2.34761-1.84012-4.01639-2.35348-6.22903-1.80417-7.51327-10.65341-9.79263-17.73395-9.22694-3.88295.3203-7.51107,2.93286-10.0707,5.82413-1.44487,1.62414-2.20947,3.51566-2.4655,5.67786-.18369,1.56616-.1309,7.6499,1.81852,4.40543,1.54632-2.57373,2.51197-4.82476,5.13486-6.5947-.09089,4.27637,2.74171,7.14189,6.72057,8.05427,5.20328,1.75619,7.60044,6.9635,8.13835,12.05984.47358,4.50141,1.07741-.06915,1.37916-2.14422.23005-2.53213,1.32465-6.84994,4.72768-5.90826,1.30411.46668,2.16031,2.38485,2.13966,3.6336.06803-.07154.11883-.21962.18444-.29406.4054-.78568.88733-1.58858,1.22148-2.38603Z" fill="#3c2123"/><g><path d="m431.95987,156.45367c-.24065-.3912-.54644-.71328-.92054-1.02007.43658.23743.81311.54712,1.11406.8634,1.432,1.76501.41638-.66954.6016,1.32078.11796,1.00377-.74019,1.79446-1.51378,2.27137,1.18071-.90096,1.73411-2.14398.71867-3.43548Z" fill="#ff8389"/><path d="m430.54395,157.5475l-.7946.34898c.40604-.29306.98181-.72216,1.51671-.75537.48511-.21772,1.50786-.00327,1.30249.7036-.01438-.13787.27524-.29125.19567-.41891-.08488-.12814-.53117-.16827-.66349-.15607-.47155-.09571-1.06805.1746-1.55678.27777Z" fill="#ff8389"/></g><path d="m421.82143,152.48909c-.16435.0232-.16142.0486-.3471-.10084-2.28225-3.12071-4.62079-1.15901-4.78938-1.14838-.12766.07957-.26771.0884-.34728-.03926-.11609-.74145,3.65504-2.174,5.52303.9412.07957.12766.02103.27236-.03926.34728Z" fill="#3c2123"/><path d="m411.35945,151.79467c.13232-.0122.06761-.00731.00266.00024s-.13497.01196-.20989-.04833c-1.6101-1.90996-3.53144-1.85194-4.44329-.35136-.11243.28262-.60669.06626-.43151-.23429-.00755-.06495.71822-1.16728,2.00971-1.35375,1.02377-.09807,2.0368.42953,3.11159,1.64022.07957.12766.0884.26771-.03926.34728Z" fill="#3c2123"/><g><path d="m411.99,153.32961c.40364.72639.60375,1.35994.64425,2.21638-.02608,2.64718-1.45508,3.09174-1.00592,4.27731.23442.70217,1.22993.77618,1.91044.852-.76097.06394-1.60254-.14294-2.06159-.83881-.41133-.80193.3727-1.75456.53878-2.17962.40347-1.00817.63763-3.022-.02596-4.32726Z" fill="#ff8389"/><path d="m414.99715,160.53865c-.21852.01784-.43576.11078-.65452.13128.13066-.23195.4155-.3322.62453-.4232.29457-.02975.51309-.04759.74969.15043-.28902.02757-.51068.05048-.71971.14148Z" fill="#ff8389"/></g><path d="m420.58171,160.0983c-3.36884.1208-3.48752-2.27484-.12344-2.48811,3.36879-.1208,3.48747,2.27485.12344,2.48811Z" fill="#ff8389"/><path d="m409.18753,160.28447c-2.4591.08692-2.59105-2.57639-.1356-2.73319,2.45903-.08692,2.59099,2.57639.1356,2.73319Z" fill="#ff8389"/><g><path d="m411.26337,163.94133c-.13067-1.63351,6.46805-1.54518,6.29081.08634-.01268.85582-1.43472,1.86875-3.17049,1.84389-1.73842-.02511-3.13302-1.07442-3.12033-1.93022Z" fill="#342f46"/><path d="m411.58069,164.70095c1.12285,1.49431,4.469,1.53816,5.63278.07805-1.12268-1.49432-4.47068-1.53843-5.63278-.07805Z" fill="#ff8389"/><path d="m411.57936,163.34578c1.41341.37942,4.24894.42113,5.67287.07898-.96651-.833-4.68418-.88553-5.67287-.07898Z" fill="#fff"/></g></g><g><path d="m368.00455,233.71906c-5.29762.66297-1.66645,4.87553-1.45681,6.12784.20964,1.25231,1.40669,4.03385,1.40669,4.03385l.37864,2.36945c.38026,2.37568,2.41473,2.43855,2.41473,2.43855.30999,1.65966,1.77134,2.69992,1.77134,2.69992.00823.01045.02306.0251.03129.03555.76251.87603,1.85884,1.12697,2.83988.70085l4.12703-1.79377c.96092-.41381,1.16055-2.04972-.89502-3.35926.19301-2.01567-1.37748-2.56347-1.37748-2.56347,1.55108-2.26403-.68863-4.02911-.68863-4.02911l.74029-.65234c.53854-.47386.5694-1.45848.06009-1.97546-1.87887-1.92545-8.39124-1.94791-8.39124-1.94791l-.95906-2.09919-.00174.0145Z" fill="#ffbbae"/><path d="m376.60645,240.57277l-.0399.01621c-.32194.03427-7.84678.69889-9.96534-.5363-.19215-.09409-.0779-.5004.14169-.38847,2.03587,1.19293,9.72006.50494,9.79637.50152.09626-.01153.1753.08046.1829.19457.00935.09962-.03929.18831-.1141.21871l-.00162-.00624Z" fill="#ea8a7d"/><path d="m377.28174,244.6142c-.27082.08244-6.74229,2.06337-9.30303-.36413-.16639-.13224.004-.51152.20438-.33811,2.42883,2.30183,8.95342.31312,9.01825.28678.19578-.05176.31644.31953.0804.41546Z" fill="#ea8a7d"/><path d="m375.90137,248.53242c-3.82309,1.5531-5.3705.67315-5.16555.21635.04377-.10741.14851-.14995.22942-.0932,2.04985,1.35272,7.53203-1.84644,7.58864-1.88323.21492-.12432.33338.29689.14361.38289-.10486.06328-1.31646.7692-2.80273,1.37299l.00661.00421Z" fill="#ea8a7d"/></g></g><g><rect x="218.95093" y="174.83449" width="116.52978" height="132.35536" rx="4.77417" ry="4.77417" fill="#d8d6d3"/><rect x="215.26009" y="174.83449" width="116.52978" height="132.35536" rx="4.77417" ry="4.77417" fill="#fcfaef"/><g><rect x="285.13582" y="195.02627" width="39.75256" height="31.07641" rx="2.1296" ry="2.1296" fill="#ce6344"/><path d="m298.54442,204.38303v13.62488c0,.78811.85756,1.27683,1.53562.87515l11.4999-6.81244c.665-.39394.665-1.35637,0-1.75031l-11.4999-6.81244c-.67806-.40168-1.53562.08705-1.53562.87515Z" fill="#f9f0e2"/></g><g><rect x="220.48239" y="181.61766" width="37.83622" height="28.23694" rx="1.98045" ry="1.98045" fill="#ce6344"/><path d="m233.24461,190.11949v12.37996c0,.7161.81622,1.16017,1.46159.79519l10.94552-6.18998c.63295-.35795.63295-1.23243,0-1.59038l-10.94552-6.18998c-.64537-.36498-1.46159.0791-1.46159.79519Z" fill="#f9f0e2"/></g><rect x="264.1553" y="195.02627" width="16.09032" height="6.62543" fill="#d4cec2"/><g><rect x="264.15527" y="206.18359" width="16.09082" height="1.03223" fill="#d4cec2"/><rect x="264.15527" y="210.04834" width="16.09082" height="1.03223" fill="#d4cec2"/><rect x="264.15527" y="214.70215" width="16.09082" height="1.03223" fill="#d4cec2"/><rect x="264.15527" y="219.35547" width="16.09082" height="1.03223" fill="#d4cec2"/></g><g><rect x="264.15527" y="229.68799" width="16.09082" height="1.03223" fill="#d4cec2"/><rect x="264.15527" y="234.89355" width="46.2207" height="1.03223" fill="#d4cec2"/><rect x="264.15527" y="238.67969" width="46.2207" height="1.03223" fill="#d4cec2"/><rect x="264.15527" y="243.09668" width="23.82031" height="1.03223" fill="#d4cec2"/></g><g><rect x="223.45605" y="214.70215" width="28.55273" height="1.03223" fill="#d4cec2"/><rect x="223.45605" y="217.85693" width="28.55273" height="1.03223" fill="#d4cec2"/><rect x="223.45605" y="221.01172" width="28.55273" height="1.03223" fill="#d4cec2"/></g><rect x="222.19426" y="227.04916" width="33.28488" height="19.56079" fill="#d4cec2"/><rect x="223.45624" y="255.12836" width="48.74421" height="43.85402" fill="#f19e45"/><rect x="247.3125" y="246.99457" width="1.03223" height="59.14319" transform="translate(-123.52139 279.21934) rotate(-48.5461)" fill="#d4cec2"/><rect x="218.25702" y="276.05005" width="59.14319" height="1.03223" transform="translate(-121.02092 233.46298) rotate(-41.47148)" fill="#d4cec2"/><rect x="280.24562" y="253.55087" width="43.85402" height="6.15218" fill="#d4cec2"/><rect x="280.24562" y="263.17352" width="43.85402" height="34.54687" fill="#f19e45"/><g><rect x="286.08235" y="268.88214" width="7.09856" height="3.09553" fill="#fcfaef"/><rect x="297.7559" y="268.88214" width="21.45375" height="3.09553" fill="#fcfaef"/><rect x="286.08235" y="275.50754" width="21.1383" height="3.09553" fill="#fcfaef"/></g></g><rect x="7.95117" y="492.30029" width="498.04883" height="3.45898" fill="#331f1c"/><path d="m50.58391,246.61731c-.19824-1.59916-1.65643-2.73575-3.25558-2.5331-.49556.08601-2.92839.29324-3.3525.4934-.63438-2.00886-1.64321-3.82829-2.93839-5.3966.43586-.26974,1.84826-2.25899,2.20272-2.66966.99119-1.27317.76211-3.10581-.51105-4.09262l-.80178-.62116c-1.27316-.99121-3.1058-.76213-4.09261.51103-.28451.40364-1.86155,2.2823-2.01767,2.71372-1.81502-.91192-3.81066-1.48902-5.90322-1.65643.1455-.55703-.27536-2.92735-.31716-3.52432-.19827-1.59914-1.65646-2.73574-3.25561-2.53309l-1.00883.12335c-1.59916.19824-2.73575,1.65643-2.5331,3.25558.12316.5978.2613,2.98175.55067,3.49788-1.97361.67402-3.7578,1.7137-5.28647,3.03091-.32018-.65827-2.28396-1.95945-2.83705-2.44502-1.27318-.99118-3.10582-.7621-4.09263.51106l-.62116.80178c-.99121,1.27316-.76213,3.1058.51103,4.09261.63472.41748,2.33426,2.01232,3.08377,2.15865-.88989,1.80621-1.45378,3.78864-1.61237,5.86357-.80393-.34779-3.08192.16793-3.93843.22023-1.59915.19828-2.73574,1.65646-2.53309,3.25562l.12335,1.00883c.19824,1.59916,1.65643,2.73575,3.25558,2.5331.83301-.16918,3.15205-.20599,3.84591-.73129.64759,1.98243,1.66083,3.77542,2.95161,5.31731-.88663.31823-2.11104,2.29837-2.71375,2.98244-.99118,1.27317-.7621,3.10582.51106,4.09262l.80178.62116c1.27316.99121,3.1058.76213,4.09261-.51103.47109-.71267,2.08296-2.37531,2.2027-3.24237,1.78418.93835,3.75339,1.54629,5.82393,1.75775-.35065.80843.1683,3.08571.22023,3.94724.19828,1.59915,1.65646,2.73574,3.25562,2.53309l1.00883-.12335c1.59916-.19824,2.73575-1.65642,2.5331-3.25558-.15353-.74537-.2242-3.07648-.6564-3.70934,2.00005-.60354,3.81947-1.57273,5.38779-2.83266.31946.66339,2.28669,1.96006,2.84145,2.44943,1.27318.99118,3.10582.7621,4.09263-.51106l.62116-.80178c.99121-1.27316.76213-3.1058-.51103-4.0926-.50774-.35223-2.29773-1.91492-2.87231-2.08375.95157-1.78418,1.57272-3.7622,1.7974-5.83714.56119.14841,2.93461-.27527,3.53754-.31716,1.59915-.19827,2.73574-1.65645,2.53309-3.25561l-.12335-1.00883v.0132Zm-20.63044,13.8109c-6.05741.75332-11.58618-3.54634-12.3395-9.60375-1.23402-14.62338,19.55127-17.21498,21.94328-2.73565.75329,6.06172-3.54637,11.58609-9.60378,12.3394Z" fill="#fefbf0"/><path d="m61.86441,298.1003c-.0939-.75744-.78457-1.29579-1.54201-1.1998-.23473.04119-1.38686.13905-1.58791.2337-.30047-.95149-.77831-1.81327-1.39177-2.5561.21224-.12198.8712-1.07415,1.04332-1.26446,1.15368-1.53077-1.42705-3.45274-2.56029-1.99066-.12836.19642-.88582,1.07731-.95567,1.28535-.85968-.43193-1.80492-.70527-2.79606-.78457.07662-.26393-.13599-1.38644-.1502-1.66929-.27899-1.90464-3.45167-1.4301-3.21967.40063.05846.28343.12357,1.41182.26083,1.65677-.9348.31925-1.77988.81169-2.50393,1.43559-.14724-.31693-1.08496-.92448-1.34376-1.1581-1.5312-1.15402-3.45221,1.42746-1.99064,2.5603.30078.19777,1.10535.95306,1.46063,1.02244-.4215.85551-.68858,1.79449-.7637,2.77728-.38079-.17081-1.45982.08378-1.86545.1043-1.90457.27896-1.43002,3.45166.40065,3.21967.39461-.08019,1.49284-.09747,1.82161-.34638.30673.93897.78665,1.78823,1.39803,2.51854-.42376.14629-.99734,1.09177-1.28538,1.41263-1.15401,1.53117,1.42712,3.45264,2.5603,1.99063.22313-.33764.98657-1.1249,1.04331-1.53575.84508.44445,1.77779.7324,2.7585.83256-.17215.38293.08393,1.46162.1043,1.86962.2274,1.83374,3.42036,1.51233,3.21966-.40069-.07279-.35313-.10605-1.45689-.31089-1.75689.94732-.28586,1.80909-.74492,2.55192-1.34169.1468.31919,1.0863.92487,1.34585,1.16018,1.46421,1.13985,3.48201-1.36776,1.9906-2.56032-.24499-.16081-1.08512-.9112-1.36043-.98695.45071-.84508.74492-1.78196.85134-2.76476.26592.07311,1.38996-.1324,1.67554-.15021,1.0341-.15106,1.36336-1.09317,1.14138-2.01986v.00625Zm-9.7716,6.54153c-2.86909.35681-5.48779-1.67972-5.8446-4.54881-.6189-6.9076,9.29832-8.14444,10.39343-1.2957.35679,2.87109-1.67974,5.4877-4.54883,5.84451Z" fill="#68a4c2"/><path d="m467.10774,83.32577c-.14478-1.16788-1.20971-1.99795-2.37759-1.84995-.36143.06334-2.1392.21466-2.44837.36034-.46329-1.46709-1.20006-2.79584-2.14594-3.9412.3189-.19749,1.34944-1.64946,1.60867-1.94968.72388-.92981.55658-2.26821-.37323-2.98889l-.58555-.45364c-.9298-.72389-2.2682-.5566-2.98888.37321-.20797.29517-1.35919,1.66619-1.47353,1.98186-1.32553-.66598-2.78297-1.08745-4.31119-1.20971.11808-.40643-.20963-2.13803-.2316-2.57384-.14483-1.16789-1.20976-1.99795-2.37764-1.84996l-.73676.09008c-1.16788.14478-1.99795,1.20971-1.84995,2.37759.09002.43676.19071,2.17731.40216,2.55454-1.44135.49225-2.74436,1.25153-3.86077,2.21351-.22668-.48816-1.67307-1.42574-2.07192-1.78565-.92983-.72385-2.26823-.55655-2.9889.37325l-.45364.58555c-.72389.9298-.55659,2.2682.37321,2.98888.46369.30494,1.70448,1.46953,2.25212,1.57648-.6499,1.3191-1.06171,2.76689-1.17754,4.28224-.5869-.26329-2.251.12912-2.8763.16082-1.16786.14482-1.99793,1.20975-1.84993,2.37764l.09008.73676c.14478,1.16788,1.20971,1.99795,2.37759,1.84995.60836-.12357,2.30196-.1504,2.80871-.53407.47294,1.44779,1.21293,2.75724,2.1556,3.88329-.65309.22541-1.53795,1.68345-1.98191,2.17811-.72385.92981-.55655,2.26821.37325,2.98889l.58555.45364c.9298.72389,2.2682.55659,2.98888-.37321.34403-.52049,1.52122-1.73468,1.60865-2.36794,1.30301.68529,2.74115,1.12927,4.25328,1.28371-.26535.59021.12936,2.25376.16082,2.88274.14482,1.16786,1.20975,1.99793,2.37764,1.84993l.73676-.09008c1.16788-.14478,1.99795-1.20971,1.84995-2.37759-.11215-.54437-.16369-2.24673-.47938-2.70897,1.46066-.44077,2.78941-1.14858,3.93477-2.06873.22628.492,1.67498,1.42613,2.07514,1.78887.92983.72385,2.26823.55655,2.98891-.37325l.45364-.58555c.72389-.9298.5566-2.2682-.37321-2.98888-.37729-.24775-1.67405-1.40538-2.09768-1.52179.69494-1.30301,1.14858-2.74758,1.31266-4.26293.40949.11266,2.14346-.2041,2.58349-.23161,1.16789-.14481,1.99796-1.20974,1.84996-2.37762l-.09008-.73676v.00964Zm-15.06666,10.08627c-4.4238.55016-8.46152-2.58993-9.01168-7.01373-.90122-10.67963,14.27853-12.57231,16.02544-1.99788.55014,4.42695-2.58996,8.46146-7.01376,9.01161Z" fill="#6966a2"/></svg>