<?xml version="1.0" encoding="utf-8"?>
<!-- Generator: Adobe Illustrator 23.0.5, SVG Export Plug-In . SVG Version: 6.00 Build 0)  -->
<svg version="1.1" xmlns="http://www.w3.org/2000/svg" xmlns:xlink="http://www.w3.org/1999/xlink" x="0px" y="0px"
	 viewBox="0 0 2340 1560" style="enable-background:new 0 0 2340 1560;" xml:space="preserve">
<style type="text/css">
	.st0{fill-rule:evenodd;clip-rule:evenodd;fill:#F6FCFF;}
	.st1{fill-rule:evenodd;clip-rule:evenodd;fill:#F7A57D;}
	.st2{fill-rule:evenodd;clip-rule:evenodd;fill:#2B5A82;}
	.st3{fill-rule:evenodd;clip-rule:evenodd;fill:#3B76A2;}
	.st4{fill-rule:evenodd;clip-rule:evenodd;fill:#E5FDFD;}
	.st5{fill-rule:evenodd;clip-rule:evenodd;fill:#F95047;}
	.st6{fill-rule:evenodd;clip-rule:evenodd;fill:#FF0000;}
	.st7{fill-rule:evenodd;clip-rule:evenodd;fill:#26EBF4;}
	.st8{fill-rule:evenodd;clip-rule:evenodd;fill:#8B5942;}
	.st9{fill-rule:evenodd;clip-rule:evenodd;fill:#F19174;}
	.st10{fill-rule:evenodd;clip-rule:evenodd;fill:#BD4D50;}
	.st11{fill-rule:evenodd;clip-rule:evenodd;fill:#A1D9F0;}
	.st12{fill-rule:evenodd;clip-rule:evenodd;fill:#2AD5E5;}
	.st13{fill-rule:evenodd;clip-rule:evenodd;fill:#2F8DD5;}
	.st14{fill-rule:evenodd;clip-rule:evenodd;fill:#1C4266;}
	.st15{fill-rule:evenodd;clip-rule:evenodd;fill:#2B7697;}
	.st16{fill-rule:evenodd;clip-rule:evenodd;fill:#4C7CA0;}
	.st17{fill-rule:evenodd;clip-rule:evenodd;fill:#356A92;}
	.st18{fill-rule:evenodd;clip-rule:evenodd;fill:#234969;}
	.st19{fill-rule:evenodd;clip-rule:evenodd;}
</style>
<g id="Backgrounds">
	<polygon class="st0" points="2339.4,-0.1 -0.6,-0.1 -0.6,1559.9 2339.4,1559.9 2339.4,-0.1 	"/>
</g>
<g id="Object">
	<path class="st1" d="M1522.1,560.7l0.2,13.2c0,0.1-4.2,25.1,30.8,30.2c31.6,4.6,48.9-39.4,52.1-48.8l-6.6-0.2
		c-0.6,0-1.1-0.3-1.3-0.8c-7.9-17.5-6.8-65.1-6.7-67.3c0-1.1,1.1-1.7,1.9-1.3c21.7,9.8,29-5.4,34.7-17.3c1.1-2.3,1.7-3.4,2.1-5.7
		c1.8-10.5-6.7-25.2-16-29.8c-1.2-0.6-2.4-1-3.6-1.2c-8.9-1.5-13.7,11.8-16.5,19.7c-0.7,1.9-1.2,3.5-1.8,4.6
		c-2.4,5-9.6,6.6-12.3,3.6c-0.9-1-1.2-2.4-0.6-4.1c0.9-2.3,0.5-8.3-0.5-15.1c-1.1-7-3-14.8-5.1-20.2c-3.4-8.7,5.5-23.1,10.3-29.9
		c-6.5,2.2-19.3,5.7-33.1,4.8c-10.4-0.7-20.9-5.8-28.5-10.6c0.8,0.8,0.8,2-0.3,2.4c-11.8,4.5-25.4-4.3-34.8-12.5
		c-17.8-4.2-24.3,15.8-24.8,17.5c-0.2,1.4-1.5,14.6-2.7,31.5c0,0.1,0,0.2,0,0.2c-1.7,23.7-3.3,54.6-1.4,71.1
		c1.3,10.5,8,26.3,19.7,38.2c5.2,5.3,11.5,9.8,18.7,12.7c7.2,2.9,15.4,4.2,24.5,3.1c16.3-2,35.7-11.7,57.9-33.6
		c1.3-1.3,3.2,0.7,1.9,2c-22.4,22.1-42.1,32.1-58.7,34.4C1522.1,554.4,1522.1,557.5,1522.1,560.7L1522.1,560.7z M1385.4,606.3
		c1.9-24.5,12.7-51.9,21-69.9c-9-4-63.1-28.1-70.7-32.2c-3.9-2.1-24.5-25.4-45.9-50.7c-25.3-29.9-51.9-62.9-53.9-67.3
		c-2.3-5.2-8.4-52.1-13.2-88.3c-2.5-19.3-4.6-35.6-5.5-40.7c-15.7,0.9-15.8,45.7-15.7,55.2c2.1-0.4,4.2,0.1,5.8,2.3
		c4.4,5.7,3.7,32.3,13.8,38.4c1.6,0.9,0.1,3.3-1.4,2.4c-11.4-6.8-10.9-34.3-14.6-39.1c-1.1-1.5-2.8-1.5-4.3-1
		c-0.1,0.1-0.3,0.1-0.4,0.2c-1.6,0.6-3.2,1.8-4.1,2.6c0.5,1,0.8,2.3,0.7,3.9c-0.2,1.9-0.3,6.7-0.5,12.9c-0.3,11.2-0.8,27.1-1.7,39.8
		c0.6,1.6,4.2,11.2,12,15c1.6,0.8,0.4,3.3-1.2,2.5c-5.6-2.7-9.2-7.8-11.3-11.7c-0.6,7.2-1.2,11.6-2.8,15.1c1.4,1.2,4.8,4,10,6.8
		c3.2,1.8,9.8,12.7,16.8,25.9c9.5,18,20.1,40.6,23.8,50.4c3.1,7.9,13.2,23.8,24.6,39.9c12.5,17.6,26.4,35.3,34.2,42.9
		C1316.7,577,1364.5,597.8,1385.4,606.3L1385.4,606.3z M1198.8,313.3c-0.2-7.5-0.5-56.7,17.7-58.8c-1.7-4.2-5.6-4.7-9.5-2.6
		c-2.5,1.3-5.1,3.8-7.5,7.5c-7.8,12-8.7,40.6-8.7,54.4c1.3,0.5,2.7,1.1,3.8,2.1C1195.6,315.2,1197.1,314.1,1198.8,313.3
		L1198.8,313.3z M1776.6,634.3c-5,9-18.4,36.3-26.4,52.7c5.9,3.3,32.5,18.2,42.5,25.3c13.6-14.8,26.1-23.9,26.2-23.9
		c1.5-1.1,3.1,1.2,1.6,2.2c0,0-12.8,9.3-26.5,24.4l-0.1,0.1c-4.3,4.7-8.6,10-12.7,15.7c-17.4,24.5-34.4,46.8-34.4,46.8
		c-0.3,0.4-0.8,0.6-1.3,0.5c-1.3-0.1-38-3.9-46.5-3.9c-7.7,0-22.2,10.7-23.2,15.4c-0.7,2.6,0.2,5.1,0.9,6.7
		c3.8-4.6,15.4-17.5,24.2-17.3c1.8,0,1.8,2.8-0.1,2.8c-9-0.2-22.2,16.5-23.2,17.7c-0.1,0.1-0.1,0.2-0.2,0.2
		c-0.9,1-9.3,11.6-6.9,19.3c0.7,2.2,3.9,5.9,7.5,9.2c2-6.1,8.5-23.7,17.5-28.9c1.6-0.9,3,1.5,1.4,2.4c-8.8,5.1-15.3,24.3-16.6,28.5
		c3.1,2.7,6.8,5.5,10.6,8.1c2-5.7,8.8-23.8,16.6-28c1.6-0.8,2.9,1.6,1.3,2.4c-7.3,3.9-14,22.5-15.5,27.1c4.4,2.7,8.8,5.1,13.1,6.7
		c0.9-4.8,4.1-18.8,11.4-24c1.5-1,3.1,1.2,1.6,2.2c-6.7,4.8-9.7,18.6-10.4,22.6c3.8,1.2,7.3,1.5,10,0.7l0.5-0.2
		c1-1.4,4.9-6.8,8.4-10.3c0.1-0.3,0.3-0.5,0.6-0.6c1.4-1.3,2.6-2.2,3.5-2.4c4.3-1,27.4-6.1,31.5-14.6c4.7-9.6,8.4-14.7,8.8-14.9
		c0.2-0.1,53.7-38,73.6-59.7l2.8-3c18.1-19.5,30.5-33,6.9-59c-23.1-25.5-64.4-56.1-72-61.7C1781.9,624.9,1779.6,628.9,1776.6,634.3
		L1776.6,634.3z"/>
	<path class="st2" d="M834.9,884.7c-33.1,8.6-121,24.7-201.1-17.5c-2.5,14.3-19.1,106.9-29.9,142.9c-11.7,38.7-20.2,76.8-20.2,76.9
		c-0.1,0.6-0.7,1-1.3,1.1c0,0-6.7,0.5-7.3,2.3c-0.9,2.6-2,7.2-2.1,7.3c-0.1,0.4-0.4,0.8-0.8,1c-1.3,0.6-29.2,14.8-70.2,53
		c-39.7,37-76.7,72.8-80.7,76.7c-0.1,1.1-0.3,4.1-0.1,8.1c0,0.1,0,0.2,0,0.3c0.6,12.9,4.6,35.9,25.6,43.8l153.9-103.8
		c2.1-1.1,42.4-23.1,62.8-60.5c27.2-49.9,52.3-101.6,77.9-152.3c0.2-0.3,0.4-0.6,0.7-0.7l40.3-14.7c1.7-0.6,2.7,2,0.9,2.6
		l-39.7,14.5l-1.2,2.4l97.2,146c0.4,0.5,0.3,1.3-0.1,1.7c-0.1,0.1-4.2,4.5-4.2,8c0,3.6,2.8,7.4,2.8,7.4c0.3,0.3,0.3,0.8,0.2,1.1
		l-36,199.3c1.1,0.9,2.3,1.5,3.4,2.3c4.8,2.9,14,6.9,27.7,6.7c4.6-0.1,18.7-0.2,23.1-2.6l57.6-177.9l0-0.2
		c0.1-0.1,17.7-37.1-0.6-82.1c-18.5-45.6-77.1-178.7-77.3-179.1C836.2,898.1,834.8,889.3,834.9,884.7L834.9,884.7z M766.6,544.9
		c2.1,7.4,16.4,53.2,49.1,50.9c32.1-2.3,29.1-35.5,28.3-41.3l-5.4-1.4c-0.7-0.2-1.1-0.7-1-1.4l-0.6-15.3
		c-22.8-8.1-43.5-25.4-55.8-37.2C780.9,508.8,779.3,536.9,766.6,544.9L766.6,544.9z M437.8,1278.8c-14.8-10.2-18.4-28.7-19.2-40.5
		c-5.4,1.5-22.4,6.1-32.4,8.3c-5.8,4.5-7.3,11.1-7.4,11.4c-0.3,2-15.9,93-17.6,114.8c-1.6,19.6,10.2,24.4,11.8,25l54.6,0.5
		c-3.1-11.7-17.6-25.7-17.7-25.7c-0.3-0.3-0.5-0.8-0.4-1.2C409.7,1371.1,420.7,1308.7,437.8,1278.8L437.8,1278.8z M372.4,1400.5
		c0,0-15.8-4.7-13.9-27.9c1.8-22.1,17.6-114.9,17.7-115.2c0,0,1-5,4.9-9.6c-11.6,3.4-17.3,11.2-19.5,25.1
		c-2.9,18.7-11.9,104.3-12.3,108.6c0.4,2.2,4.4,26.9,12.8,29c6,1.4,28.4,4,45.8,2.7c10.1-0.8,18.3-2.9,19.9-7.1
		c0.6-1.5,0.7-3.2,0.6-5l-55.4-0.5C372.7,1400.6,372.5,1400.6,372.4,1400.5L372.4,1400.5L372.4,1400.5z M805.8,1336.9
		c-2.4,6.6-12,32.9-15.7,48.9c-0.5,2.4-0.9,4.6-1,6.6c5.2,2.1,20,4.3,37.7,6.2c26.3,2.8,58.6,4.9,74.8,5.4
		c23.8,0.7,47.9-1.3,54.4-1.9c-0.3-0.9-0.7-1.8-1.3-2.8c-2-1.3-13.7-9.2-20.7-11.7c-7.9-2.8-78.9-40.3-79.1-40.3
		c-0.5-0.3-0.8-0.8-0.7-1.3l0.1-4.5c-3.6,0.8-9.8,1.7-20.7,1.8C820.5,1343.4,811.2,1339.9,805.8,1336.9L805.8,1336.9z M826.6,1401.3
		c-16.8-1.8-31.1-3.8-37.5-6c0.7,13.7,13.1,17.2,28.9,17.4h0l127.9,4.1c1.3-0.2,12.4-2.4,10.8-12.1c-5.8,0.5-30.6,2.7-55.2,1.9
		C885.3,1406.2,852.9,1404.1,826.6,1401.3L826.6,1401.3z M795.8,397.2l6.4,81.4l41,39.3c3.8,0.7,34.2,5.8,54.7-4.7
		c8.9-19.5,17.3-56.8,15.2-92c-0.8-14.5-3.4-28.7-8.5-41c-2.3-0.2-9.1-0.7-18.3-0.9c-0.1,0-0.1,0-0.2,0c-16.6-0.5-40.8-0.3-59.5,3.7
		C797.9,389.1,795.9,396.3,795.8,397.2L795.8,397.2z"/>
	<path class="st3" d="M1723,950.8c-0.6-1.7,2-2.6,2.6-0.9c0.1,0.4,47.6,138.7,55.1,149.7c3.7,5.4,10,15.4,10,19.5
		c0,0.2,5.9,1.5,7.2,4.4c1,2.2,2.1,6.7,2.6,8.4c4.2,2,28.8,13.7,43.3,31.4c15.6,19.2,74.2,99.3,74.4,99.5c1.1,1.5-1.2,3.1-2.2,1.6
		c-0.2-0.2-58.8-80.3-74.3-99.4c-15.4-18.9-42.8-30.9-42.9-30.9c-0.4-0.2-0.7-0.5-0.8-0.9c0,0-1.4-6.1-2.6-8.6
		c-0.9-2.1-7.5-2.4-7.5-5.6c0-0.8-0.7-3-2.6-6.7c-1.5-2.9-3.7-6.5-6.9-11.2C1770.7,1089.8,1723.1,951.2,1723,950.8L1723,950.8z
		 M1726.5,942.3c-36,3.6-49.9-26.3-49.9-26.4c-0.8-1.7,1.7-2.9,2.5-1.2c0,0.1,13.1,28.2,47.1,24.8
		C1728,939.4,1728.3,942.1,1726.5,942.3L1726.5,942.3z M1494.1,1114.4l84.3-122.6c1-1.5,3.3,0.1,2.3,1.6l-83.9,121.9
		c1,1.8,3.3,6.5,3,10.3c-0.3,3.8-4.1,3.9-7.5,4.1c-1.6,0.1-3.1,0.2-3.2,0.4c-0.6,1.7,8.5,13.1,9.3,14.1c0.2,0.2,0.3,0.5,0.4,0.8
		l15.8,188.3c0.1,1.8-2.6,2.1-2.8,0.2l-15.7-187.9c-1.7-2.1-10.5-13.5-9.5-16.4c0.7-2,3.1-2.1,5.7-2.2c2.3-0.1,4.8-0.2,4.9-1.5
		c0.3-4-3-9.5-3.1-9.5C1493.7,1115.4,1493.7,1114.8,1494.1,1114.4L1494.1,1114.4z M1626.4,917.7c-46.7,1.5-91.1-11.9-113-19.8
		c-0.9,4.2-3.4,15.4-5.3,19.5c-7.8,16.7-48.4,104-59.8,121.3c-6.5,10-15.2,30.6-20.7,51.8c-4.4,16.6-6.8,33.4-4.9,45.5
		c4.2,26.8,38.3,183.8,41,195.9c1.2,0.4,4,1.2,8.1,2.1c0.1,0,0.2,0,0.3,0.1c11,2.4,31.3,5.2,56.6,1.2c-0.8-12.5-7.1-115.3-9.9-154.6
		c-2.9-41.7-5.5-53.6-5.5-53.6c-0.1-0.4,0-0.8,0.2-1.1c1.2-1.9,34.2-51.7,45.6-67.3l54.8-77.9c-14.2-9.9-38.1-20.5-38.1-20.6
		c-1.7-0.7-0.6-3.3,1.1-2.5c0.1,0.1,24.9,11.1,39.5,21.6l0.5,0.4c4.2,3,7.4,6,8.9,8.7c1.3,2.2,3.8,6.6,7.1,12.3
		c11.8,20.3,32.9,56.6,41.7,75.4c5.5,11.7,17.8,31.5,30.6,50.1c13.1,19,26.5,36.8,33.4,43.3c7.3,6.8,22.9,19.3,38.7,31.9
		c13.8,11,27.7,22.1,36.5,29.8c17.8,15.6,71.8,62.1,76.9,66.4c0.9,0,2.9-0.1,5.6-0.5c0.1,0,0.2,0,0.4,0c7.4-1.1,19.2-4.7,24.6-16.1
		c4-8.4,5.7-15.6,6.3-20.8c0-0.1,0-0.2,0.1-0.4c0.6-4.4,0.4-7.4,0.3-8.3c-4.1-5.7-67.7-93.6-88.4-115.8c-21.2-22.6-37-26.9-37-27
		c-0.7-0.2-1.1-0.9-1-1.6c0.1-0.8,0.7-6.5-1-9.7c-1.9-3.4-7.3-5.9-7.3-5.9c-0.4-0.2-0.6-0.5-0.8-0.8l-61.2-198.8
		C1713.5,900.4,1674.4,916.2,1626.4,917.7L1626.4,917.7z"/>
	<path class="st4" d="M771.2,455.7c1.8-11.4-1.1-25.7-5.7-36.5c-8.7-20.3-31.6-7.9-34.8-6.1c-5.9,13.5-5.8,28.8,0.1,42
		c3.3,7.5,8.4,14.1,14.8,19.2c5.8,0.9,10.5,0.3,14.2-1.2C766.9,470,770.1,463.2,771.2,455.7L771.2,455.7z M773.2,482.7
		c20.1-16.6,17.2-54.8,4.9-74.1c-0.9-1.4-1.8-2.6-2.7-3.8c-13.7-16.6-37.2-2.3-39.7-0.7c-1.1,1.6-2.1,3.2-3,4.9
		c8.1-3.8,27-10,35.3,9.1c5.9,13.7,10.2,36.5,1.8,49.7c-4.3,6.9-11.3,9.9-19.8,9.7c5.9,3.7,12.7,6.3,20.2,7.4
		C771.3,484.2,772.3,483.5,773.2,482.7L773.2,482.7z M815.9,598.6c-35,2.5-49.9-45.5-52-53c-6.9-0.3-47.1-2-64.7-1.4
		c-17.7,0.5-89.2,39.9-99.5,45.6c5.1,8.3,33.6,56.9,31,92.3l38.3-19.9l0.2-0.1l40.7-21.1c1.6-0.8,2.9,1.6,1.3,2.5l-40.2,20.8
		c-1.8,9.7-4.7,22-8,35.5c-2.5,10.1-5,20.8-7.5,31.7c-6.6,30.4-26.8,118.1-29.2,128.4c83.1,48.7,177.2,30.3,209.7,21.7
		c0.1,0,0.2-0.1,0.3-0.1c5.3-1.4,8.9-2.5,10.5-3.1c-0.5-10.9-4.1-104.9,5.4-129.5c10-25.8,35.4-133.9,35.5-134.2
		c0.4-1.8,3.1-1.1,2.7,0.6c0,0.1-4.1,17.6-9.7,40.2c27.8-11,73.4-21.9,80.4-23.4c0.3-1.9,0.9-6.7,1.3-14.8c0-0.1,0-0.1,0-0.2
		c0.3-6.3,0.5-14.6,0.3-25c-0.4-19.8-8.1-40.3-12.7-50.8c0-0.1-0.1-0.2-0.1-0.2c-1.2-2.8-2.2-4.9-2.7-6l-100.3,19.4
		C847.7,561.7,850.2,596.1,815.9,598.6L815.9,598.6z"/>
	<path class="st5" d="M1466,615.5c0,0.1,4.3,21.3,10,47.5l0,0.2c7.1,32.5,16.4,72.7,22.5,90.3c5.3,15.2,7.9,42.5,8.4,69.1
		c0.5,28.9-1.6,57-5.5,67.7c1.8,0.8,5.7,2.4,11.3,4.4l0.2,0.1c21.2,7.8,66.1,21.7,113.4,20.2c48.9-1.5,88.3-17.9,105-26.1
		c0.1-0.1,0.1-0.1,0.2-0.1c3.7-1.8,6.3-3.2,7.5-3.9c-1.1-4.2-5.3-20.9-10.7-43.5c-3.1,3.5-6.5,8.4-6.8,8.8c-0.4,0.5-1.1,0.7-1.7,0.9
		c-3.4,1.1-7.9,0.6-12.7-1l-0.4-0.2c-5.4-1.8-11.2-4.9-16.7-8.6c-4.4-2.9-8.6-6.1-12.1-9.2c-0.1-0.1-0.2-0.2-0.3-0.3
		c-4.6-4.2-8.1-8.1-9.4-10.9c-0.2-0.3-0.3-0.6-0.4-0.9c-2.6-8.1,4.6-18.3,6.8-21.2c-0.9-1.7-2.7-5.4-1.7-9.6
		c0.7-3,5.5-7.9,11.2-11.8c4.9-3.3,10.4-5.8,14.7-5.8c2.5,0,7.5,0.3,13.2,0.8c-4.1-18-8-36.1-11.2-52.4c-3.3-16.5-5.9-31.4-7.4-42.8
		l-32-15.4c-1.6-0.8-0.5-3.3,1.2-2.5l79.3,38.2c3.9-8,25.3-52.3,32.1-64.4l7.8-13.8c0.9-1.5,1.6-2.6,2-3.4
		c-10.1-6.3-82.9-52.1-101.3-56.1c-18.3-4-67-4.4-74.6-4.4c-2.5,7.5-20.6,56.5-55.4,51.4c-36.7-5.3-33.4-31.6-33.2-33.2l-0.2-11.9
		c-10.2-2.6-93-23.9-107.2-30.9c-2.9,5.8-14.7,30.5-20.6,55c-2.1,9.1-3.2,16.5-3.5,22.4c0,0.1,0,0.3,0,0.4c-0.6,10,0.6,15.6,1,17.4
		c5.2,2.5,46.5,22.5,83.7,35.3c-5.5-25.2-9.5-45.1-9.5-45.2C1462.9,614.2,1465.6,613.7,1466,615.5L1466,615.5z"/>
	<path class="st6" d="M1534.1,502.8c-16.8-4.9-29,9.3-32.4,14c2.6,0.8,5.5,1.2,8.7,1.2C1521,517.7,1529.2,511,1534.1,502.8
		L1534.1,502.8z"/>
	<path class="st7" d="M773.5,341.9c14.6-0.6,49.7,1.9,63.4,36.5c16.1-2.2,34.2-2.3,47.7-2l-6.3-29.2
		C847.4,325.2,806.5,324.9,773.5,341.9L773.5,341.9z M793,397.3c0-0.3,0.2-10,33.1-17.1c2.5-0.5,5.2-1,7.9-1.4
		c-16.1-39.8-62.6-34.2-66.4-33.7c-5.5,3.3-10.7,7.1-15.6,11.3c-0.9,0.8-14.9,14.9-15.9,44.1c6.8-3.8,28-13.7,41.4,2.5
		c8.5,10.4,13.3,27.9,13,43.6c-0.3,15.7-5.4,31.2-17.9,39.9c1.4,1.5,4.1,4.5,7.9,8.3c0.1,0.1,0.2,0.1,0.2,0.2
		c11.8,11.6,33.7,30.6,57.9,39l0.1,0c4.7,1.6,9.5,2.8,14.3,3.5c0.1,0,0.2,0,0.3,0.1c1.6,0.4,27.6,7,42.6-20.4
		c-22.6,9.5-53.5,3.4-53.6,3.4c-0.3-0.1-0.5-0.2-0.7-0.4l-41.7-40c-0.3-0.2-0.5-0.6-0.5-0.9L793,397.3L793,397.3z M1147.6,383.1
		c2.7,3,17.4,19.1,24.3,26.6c3.4-1.5,7.5-3.9,11.1-7.2c2.8-2.6,5.3-5.8,6.7-9.5c1.1-2.7,1.8-9.5,2.4-17.9c0-0.1,0-0.2,0-0.3
		c0.9-12.6,1.4-28.6,1.7-39.8c0.2-6.4,0.4-11.3,0.5-13.1c0.3-3.4-2.5-4.9-5-5.6l-3.3-0.6c-0.5,0-0.8,0.1-1.4,1.1
		c-0.7,1.1-1.4,2.7-2.1,4.7c-1.8,5.2-10.9,31-10.9,31c-0.6,1.7-3.2,0.8-2.6-0.9c0-0.1,9.7-27.7,10.9-31c1-2.8,2.4-6.5,4.7-7.5
		c-0.3-10.3-2.1-23-4.7-34c-1.8-7.7-4.1-14.5-6.5-19.1c-1.2,0-3.8,0.6-4.2,3.9c-0.6,5.8-3.9,55.3-4,55.4c-0.1,1.8-2.9,1.7-2.8-0.2
		c0-0.2,3.4-49.5,4-55.5c0.5-4.4,3.3-5.8,5.4-6.3c-0.3-0.5-0.7-0.9-1-1.3c-5.4-6-10.2,2.9-11.1,4.7
		C1160.3,289.9,1150,365.3,1147.6,383.1L1147.6,383.1z M1031.7,516.7c1.7,3.4,16.5,31,57,32.2c11.7-18.4,74.8-118.5,77.8-123.8
		c1.2-2.2,2.1-4.9,2.6-7.3c-17.1-2.4-26-17.9-28.7-23.4c-22.7,24.7-99.9,108.6-104,112C1032.8,509.5,1031.9,515.2,1031.7,516.7
		L1031.7,516.7z M953,541.5c4.7,11,11.9,31.1,12.3,50.5c0.2,9.4,0.1,17-0.2,23.1l78.2-32.3c-1.1-6.9-7.7-46.3-24.6-61L953,541.5
		L953,541.5z M537.6,636l27.7,61.4l58.8-26.6l3.4-1c-2.6-26.7-18.2-57.2-26.3-71.5l-2.4,1.1c0,0.5-0.3,0.9-0.7,1.2L537.6,636
		L537.6,636z M513.6,822.3c2.9-10,14.1-48.1,22-64.5c2-4,4.1-8.1,6.3-12.2c7.8-14.6,15.7-29.5,14.6-44.5
		c-1.9-3.1-20.5-32.3-54.3-23.2c-2,3.9-14.5,29.1-20.7,60.6c-5.9,30-5.7,71.9-5.6,81.9C482.1,817.3,501.5,809.7,513.6,822.3
		L513.6,822.3z M540.1,861.4c-3.1,3-9.5,7.3-11.5,8.6c-0.1,4.4,1.6,12.4,4.2,18.6c1.9,4.6,4.3,8.1,6.8,8.2c2.4,0.1,3.1-7.8,3.2-9.9
		C543.4,877.9,542,865.9,540.1,861.4L540.1,861.4z M517.2,834.9c0.9,7.4,1.6,18.2,0.5,29.7l9.3,3.2c2.1-1.4,9.3-6.2,11.7-8.8
		C534.4,852.8,522.7,840.5,517.2,834.9L517.2,834.9z M1052.6,558.2c-5.1,5.1-5.1,13.5,0,18.6c5.1,5.1,13.5,5.1,18.6,0
		c5.1-5.1,5.1-13.5,0-18.6C1066,553,1057.7,553,1052.6,558.2L1052.6,558.2z M532.6,664c5.2-5.2,5.2-13.6,0-18.9
		c-5.2-5.2-13.6-5.2-18.8,0c-5.2,5.2-5.2,13.6,0,18.9C519,669.1,527.4,669.1,532.6,664L532.6,664z M739.3,420.5
		c7-1.6,14.8,6.6,17.4,18.2c2.7,11.7-0.8,22.4-7.8,24c-7,1.6-14.8-6.5-17.4-18.2C728.8,432.9,732.4,422.1,739.3,420.5L739.3,420.5z
		 M514.2,869.8c1.4-9,1.5-17.8,1.1-25.2c-12.8-17.7-37-15.3-41.8-14.7c-3.6,10.8-10.2,31.5-10.9,41.4c-0.3,4.3-0.3,9.9,0.1,15.9
		c3.6-1.3,12.4-4.4,22.4-6.5l0.2,0c11.8-2.5,16.7-3.8,28.3-1.4C513.6,875.9,513.7,872.7,514.2,869.8L514.2,869.8z M881.7,349.8
		l5.8,26.8c7.3,0.2,13,0.6,16,0.8C898.1,365.5,891.5,357.5,881.7,349.8L881.7,349.8z"/>
	<path class="st8" d="M1581,439.9c1.1,7.2,1.4,13.7,0.4,16.4c-0.2,0.7-0.2,1.1,0,1.3c1.1,1.2,6,0.6,7.7-3c0.5-0.9,1-2.5,1.6-4.3
		c3.1-8.6,8.3-23.3,19.6-21.5c6.7,1.1,12.8,7.2,16.7,13.5c8.7-13.6,15.7-47.9,12.5-63c-3.1-14.5-21.5-19.1-22.7-19.3
		c-0.7-0.1-1.2-0.8-1.1-1.5c0,0,0.5-4.5-2.2-16.2c-1.3-5.7-6-11.1-12.2-15.1c-6.2-4-13.9-6.5-21.7-6.4c-3.7,0-7.4,0.3-11.1,0.6
		c-12.1,0.9-23.9,1.8-40-6c-9-4.4-19.5-6.1-28.7-6c-11.3,0.1-20.7,2.6-23,5.8c-4.1,5.7-0.2,11.7-0.2,11.7c0.5,0.8,0,2-1,2.1
		c-8.6,0.9-16.4,4.4-22.8,8.7c-9.4,6.2-15.5,13.7-15.9,16.7c-0.6,3.6,14.3,4.5,15.7,4.6c1.5,0,1.9,2,0.6,2.6c0,0-14.5,7.6-14.8,27.3
		c-0.2,16.1,13.4,27.9,18.5,31.9l2.6-29.7c0.2-0.8,6.3-21.1,23.9-20.1c-4.6-4.5-7.6-8.1-7.6-8.1c-1.2-1.4,1-3.2,2.2-1.8
		c0,0,4.2,5.2,10.4,10.7c0.1,0.1,0.3,0.2,0.3,0.3c8.2,7.2,19.7,14.9,29.8,12.7c-6.5-6.3-15-16.5-16.4-25.5c-0.3-1.8,2.5-2.2,2.7-0.4
		c0.8,5.1,4.1,10.6,7.7,15.1c1.1,0.9,19.9,16.9,38.3,18.1c19,1.3,36.2-6.2,36.2-6.2c1.3-0.6,2.6,1,1.6,2.2
		c-0.9,1.2-16.5,21.1-12.7,30.9C1578,424.7,1579.9,432.7,1581,439.9L1581,439.9z"/>
	<path class="st9" d="M1750.2,687c5.9,3.3,32.5,18.2,42.5,25.3c2.2-2.4,4.4-4.6,6.5-6.7c-7.6-3.7-28.8-14.8-28.8-23.4
		c0-8,14.3-39.3,21.2-54.2c-3.7-2.8-6.6-4.9-8-6c-1.7,2.9-4,6.9-7,12.3C1771.5,643.4,1758.2,670.6,1750.2,687L1750.2,687z
		 M1748.4,822.2c-18.8,2.6-25.6,8.5-29.4,13.8c-1.8,2.5-3.2,7.8-4.1,12.8c1.5,0.1,2.8-0.1,4-0.5l0.5-0.2c1-1.4,4.9-6.8,8.4-10.3
		c0.1-0.3,0.3-0.5,0.6-0.6c1.4-1.3,2.6-2.2,3.5-2.4c4.3-1,27.4-6.1,31.5-14.6c4.7-9.6,8.4-14.7,8.8-14.9c0.2-0.1,53.7-38,73.6-59.7
		l2.8-3c1.8-2,3.6-3.9,5.3-5.8c-15.1,12.4-31.1,24-37.7,28.8c-13.2,9.7-48.2,40-48.2,40C1768.1,805.7,1767.2,819.5,1748.4,822.2
		L1748.4,822.2z M1207.2,390c-5.2-9.8-11-46.4-11-46.4c-0.3,9.9-0.8,21.5-1.5,31.1c0.6,1.6,4.2,11.2,12,15
		C1207,389.8,1207.2,389.9,1207.2,390L1207.2,390z M1404.3,541c-18.5,11.1-30.4,41.4-30.4,41.4c-40-9.7-94.1-57.9-104.1-74.1
		c-10-16.2-56.8-108.4-62.3-117.8c0.3,1-0.7,2.2-1.9,1.6c-5.6-2.7-9.2-7.8-11.3-11.7c-0.6,7.2-1.2,11.6-2.8,15.1
		c1.4,1.2,4.8,4,10,6.8c3.2,1.8,9.8,12.7,16.8,25.9c9.5,18,20.1,40.6,23.8,50.4c3.1,7.9,13.2,23.8,24.6,39.9
		c12.5,17.6,26.4,35.3,34.2,42.9c15.9,15.6,63.6,36.3,84.6,44.9C1387.2,583.8,1396.4,558.9,1404.3,541L1404.3,541z M1198.8,313.3
		c-0.2-7.5-0.5-56.7,17.7-58.8c-1.7-4.2-5.6-4.7-9.5-2.6c-2.5,1.3-5.1,3.8-7.5,7.5c-7.8,12-8.7,40.6-8.7,54.4
		c1.3,0.5,2.7,1.1,3.8,2.1C1195.6,315.2,1197.1,314.1,1198.8,313.3L1198.8,313.3z M1600.2,456.3c0,0,6.2-17.4,21-10.6
		c1.7,0.7,0.5,3.3-1.1,2.5c-12.1-5.5-17.3,9.1-17.3,9.1C1602.1,459,1599.5,458.1,1600.2,456.3L1600.2,456.3z M1609.9,431.7
		c-7-1.2-11.4,6.6-14.3,13.9c2.2,1.2,4.3,3.5,3.5,8c-1.5,8.7,0.1,22.6,9,22.6c6.7,0,15-14.4,17.5-30.8c-3.1-5.5-7.5-10.3-12.1-12.5
		C1612.2,432.3,1611,431.9,1609.9,431.7L1609.9,431.7z M1486.1,474.5c1.4,1.6,3.4,3.2,6.2,4.8c1,0.6,0.8,1.6,0.3,2.2
		c7.2,1.3,12.2-3.6,12.2-6.3c0-3.2-2.1-1.5-9-0.3C1492.7,475.4,1489.1,475,1486.1,474.5L1486.1,474.5z M1522.1,560.7l0.1,9.2
		c8.1-1.8,19.2-5.1,30.6-11.2c15.6-8.3,31.2-28.5,38.3-39.6c-0.4-6.9-0.6-13.7-0.7-19.1c-2.8,4-6.7,9.6-10.5,14.6
		c0.9,0.2,1.7,1.5,0.7,2.3c-22.4,22.1-42.1,32.1-58.7,34.4l0.1,9.2C1522.1,560.5,1522.1,560.6,1522.1,560.7L1522.1,560.7z"/>
	<path class="st10" d="M1666.7,661l75.4,36.4c0.9-1.9,2.9-6,5.4-11.1c-29.9-11.6-76.3-29.2-79.7-28.4
		C1666.7,658.2,1666.4,659.3,1666.7,661L1666.7,661z M1699,771.5c2.5,0,7.5,0.3,13.2,0.8c-4.1-18-8-36.1-11.2-52.4
		c-3.3-16.5-5.9-31.4-7.4-42.8l-26.1-12.6c2.3,7.6,8.4,20.9,10.9,36.3c1.5,9.3,6.4,38.3,10.4,73.8
		C1692.4,772.8,1696,771.5,1699,771.5L1699,771.5z M1694.1,843.8c0.7,21.4,0.3,42.2-2.1,60.2c17.4-5.2,31-11.2,39.2-15.2
		c0.1-0.1,0.1-0.1,0.2-0.1c3.7-1.8,6.3-3.2,7.5-3.9c-1.1-4.2-5.3-20.9-10.7-43.5c-3.1,3.5-6.5,8.4-6.8,8.8c-0.4,0.5-1.1,0.7-1.7,0.9
		c-3.4,1.1-7.9,0.6-12.7-1l-0.4-0.2C1702.6,848.4,1698.4,846.3,1694.1,843.8L1694.1,843.8z M1528,823.9c-0.7-0.2-1.1-1-0.9-1.8
		c0.2-0.7,1-1.1,1.7-0.9c0.1,0,35.8,11.9,84.7-20.4c0.7-0.4,1.5-0.3,1.9,0.4c0.4,0.6,0.3,1.5-0.4,1.9
		C1565.1,836.2,1528.1,824,1528,823.9L1528,823.9z M1547.6,857.5c-0.7,0.2-1.5-0.3-1.7-1c-0.2-0.7,0.3-1.5,1-1.7
		c0.2,0,70.9-16,100-64.9c0.4-0.7,1.2-0.9,1.9-0.5c0.6,0.4,0.9,1.2,0.5,1.9C1619.6,841.2,1547.8,857.4,1547.6,857.5L1547.6,857.5z
		 M1472.8,661.2c-4-18.6-7.3-34.3-8.7-41.3c-7.7,5.8-16.7,8.9-16.7,8.9c0,0-39.7-14.7-59.2-22.6c-0.1,0.7-0.1,1.3-0.2,1.9
		c0,0.1,0,0.3,0,0.4c-0.6,10,0.6,15.6,1,17.4C1394.3,628.5,1435.6,648.4,1472.8,661.2L1472.8,661.2z"/>
	<path class="st7" d="M839.6,582.4c-6-5.1-12.2-13-14-24.7c-1.6-10.4-0.6-19,1.2-25.6c0.7,0.3,1.3,0.6,1.9,0.9
		c-1.7,6.3-2.6,14.5-1,24.4c1.7,11,7.4,18.4,13,23.2C840.2,581.2,839.9,581.8,839.6,582.4L839.6,582.4z M815.8,526.2
		c-3,18.1-7.3,50,0,69.7l0,0c-0.7,0-1.4,0.1-2.1,0.1c-7.3-20.5-2.7-52.9,0.3-70.9C814.5,525.4,815.2,525.8,815.8,526.2L815.8,526.2z
		 M696.6,889.4c-0.8-0.1-1.5-0.3-2.3-0.5c-19.7,23.6-47.8,33.1-47.9,33.2l-0.5,0.2l-0.2,0.5c-0.1,0.5-46.1,174.6-48.1,178.6
		c-1,2.1-3.4,2.5-5.7,3l0,0c-1.7,0.4-3.4,0.7-4.8,1.6c-2.1,1.3-2.5,5.1-3,9.1c-0.4,3.5-0.8,7.2-2.2,9.1c-2.7,3.6-10.4-1.4-10.4-1.4
		l-0.7-0.4l-0.6,0.5c-0.1,0.1-33,29.5-65.2,55.3c-25.1,20.1-64.9,57.3-81.6,73.2c0.2,0.7,0.4,1.5,0.6,2.3
		c16.2-15.4,56.9-53.5,82.3-73.9c30-24,60.2-50.8,64.7-54.8c2.2,1.3,9.3,4.9,12.5,0.5c1.7-2.4,2.2-6.4,2.7-10.1
		c0.4-3.6,0.8-6.8,2.1-7.6c1.1-0.7,2.5-1,4-1.3l0,0c2.8-0.6,5.7-1.1,7.2-4.1c2-4.1,45.4-168,48.1-178.5
		C651.6,922.4,678,912.2,696.6,889.4L696.6,889.4z M813.8,889.4c3.6,10.7,12,24.9,32.1,30.5l1.1,2.4c-22.3-5.5-31.4-21-35.2-32.6
		C812.4,889.6,813.1,889.5,813.8,889.4L813.8,889.4z M776.9,569.5c4.4-1.4,8.5-3.5,9.5-6.2c1.9-5.1,7.8-34.6,10.8-50.1
		c0.6,0.5,1.2,0.9,1.9,1.4c-3.1,15.8-8.8,44.2-10.7,49.4c-1.2,3.3-5.7,5.6-10.5,7.3C777.6,570.7,777.3,570.1,776.9,569.5
		L776.9,569.5z"/>
	<path class="st7" d="M891.3,415.1c5.2-0.4,10.1,6.6,10.9,15.8c0.7,9.2-2.9,17-8.1,17.4c-5.2,0.5-10.1-6.6-10.9-15.8
		C882.5,423.3,886.1,415.5,891.3,415.1L891.3,415.1z M850,480.6c-1.1-1-1.2-2.8-0.2-3.9c1-1.1,2.8-1.3,3.9-0.2
		c0,0,15.3,13.9,33.6-0.6c1.2-0.9,3-0.7,3.9,0.5c0.9,1.2,0.7,3-0.5,3.9C868.8,497.6,850.1,480.7,850,480.6L850,480.6z M843.9,416.3
		c5.6-0.5,10.8,7.1,11.6,16.9c0.8,9.8-3,18.1-8.6,18.6c-5.6,0.5-10.8-7.1-11.6-16.9C834.5,425.1,838.4,416.8,843.9,416.3
		L843.9,416.3z"/>
	<path class="st11" d="M669.1,662.1l40.7-21.1c1.6-0.8,2.9,1.6,1.3,2.5l-40.2,20.8c-1.8,9.7-4.7,22-8,35.5
		c-2.5,10.1-5,20.8-7.5,31.7c-6.6,30.4-26.8,118.1-29.2,128.4c17.9,10.5,36.3,17.8,54.4,22.9c-5.8-28.8-14.2-86.7-2.9-141.5
		c15.9-77,36.5-90.7,35.6-102.6c-0.7-9.9-62.7,17.7-83.5,27.3c0.7,5.5,1,10.9,0.7,16.1l38.3-19.9L669.1,662.1L669.1,662.1z
		 M709.6,768.6c0,0-5-2.5-5.3,2.2c-0.3,4.7,35.1,43.8,63.2,55c28.1,11.2,51.1,9,51.1,9c0,0-45.6-3.4-71.4-27.9
		C721.4,782.3,709.6,768.6,709.6,768.6L709.6,768.6z M748.8,788c0,0,24.8,10.5,40.7,10.2c15.8-0.3,18.2-0.3,18.2-0.3
		c0,0-14.3,3.4-28.2,2.1C765.5,798.6,749,794.1,748.8,788L748.8,788z M768,418.1c5.9,13.7,10.2,36.5,1.8,49.7
		c-4.3,6.9-11.3,9.9-19.8,9.7c5.9,3.7,12.7,6.3,20.2,7.4c1-0.7,2-1.4,2.9-2.2c20.1-16.6,17.2-54.8,4.9-74.1
		c-0.9-1.4-1.8-2.6-2.7-3.8c-13.7-16.6-37.2-2.3-39.7-0.7c-1.1,1.6-2.1,3.2-3,4.9C740.9,405.2,759.8,399,768,418.1L768,418.1z
		 M962.6,611.4c-17.4,4.9-50.5,14-62,15.9c-6,1-9.8-0.7-12.3-3.3c-1.8,7.3-4.5,18.6-7.7,31.6c27.8-11,73.4-21.9,80.4-23.4
		c0.3-1.9,0.9-6.7,1.3-14.8c0-0.1,0-0.1,0-0.2C962.4,615.3,962.5,613.4,962.6,611.4L962.6,611.4z"/>
	<path class="st12" d="M497.6,744.6c-4.4,1.8-10.3,3.5-17.8,4c-4.1,28.6-4,62.7-3.8,71.6c1.6-0.8,4.2-1.9,7.3-2.9
		C484.9,807.7,490.6,776.5,497.6,744.6L497.6,744.6z M498,736.3c-2,1.1-10.2,1.4-16.4,1.5c0,0.2-0.1,0.3-0.1,0.5
		c-0.5,2.6-1,5.4-1.4,8.2c7.9-0.6,13.9-2.5,18.1-4.4c0.7-3.4,1.5-6.7,2.3-10.1C499.5,734.3,498.7,735.9,498,736.3L498,736.3z
		 M508.4,700.1c-4.1-1.2-10-2.3-14.7-3.2c-0.7,1.8-1.4,3.7-2.1,5.7c8.3,1.4,14.6,3.7,14.6,3.7l0.5,0.2
		C507.3,704.4,507.8,702.2,508.4,700.1L508.4,700.1z M509,698.2c2.4-8.5,4.8-16.1,7.2-22.1c-4.3-0.1-8.9,0.4-13.9,1.7
		c-0.9,1.8-4,8-7.7,17.2C499.2,695.8,504.8,697,509,698.2L509,698.2z M560.5,633.8c-2.1-2.6-3.9-5.4-5.5-8L537.6,636l4.4,9.7
		C547.7,641.6,554,637.6,560.5,633.8L560.5,633.8z M562.3,632.8c17-9.8,34.7-18.1,45.4-22.9c-2.3-4.6-4.5-8.5-6.2-11.7l-2.4,1.1
		c0,0.5-0.3,0.9-0.7,1.2l-41.6,24.4C558.3,627.4,560.2,630.1,562.3,632.8L562.3,632.8z M479.5,829.4c-2.8,0.1-4.9,0.3-6.1,0.5
		c-3.6,10.8-10.2,31.5-10.9,41.4c-0.3,4.3-0.3,9.9,0.1,15.9c1.7-0.6,4.4-1.6,7.8-2.7c-0.3-8.4-0.4-21.3,1.5-29.7
		C473.7,847.1,477,836.8,479.5,829.4L479.5,829.4z"/>
	<path class="st12" d="M809.4,384.9c-16.9-19.3-41.8-12.2-53.2-12.2c-4.8,0-9.3-1.4-13-3.1c-3.4,7.2-6.6,17.5-7.1,30.9
		c6.8-3.8,28-13.7,41.4,2.5c8.5,10.4,13.3,27.9,13,43.6c-0.3,15.7-5.4,31.2-17.9,39.9c1.4,1.5,4.1,4.5,7.9,8.3
		c0.1,0.1,0.2,0.1,0.2,0.2c11.8,11.6,33.7,30.6,57.9,39l0.1,0c4.7,1.6,9.5,2.8,14.3,3.5c0.1,0,0.2,0,0.3,0.1
		c1.6,0.4,27.6,7,42.6-20.4c-22.6,9.5-53.5,3.4-53.6,3.4c-0.3-0.1-0.5-0.2-0.7-0.4l-41.7-40c-0.3-0.2-0.5-0.6-0.5-0.9l-6.4-82.1
		C793,397.1,793.1,391,809.4,384.9L809.4,384.9z"/>
	<path class="st12" d="M1098.3,513.9c-9.7,14.4-17.9,26.4-22.8,33.5c4.1,0.8,8.5,1.3,13.2,1.4c2.8-4.5,8.7-13.7,16-25.3
		C1101.6,520.8,1099.6,517.5,1098.3,513.9L1098.3,513.9z M1099.8,511.7c1.2,3.7,3.1,7.2,6.1,10c2-3.2,4.2-6.6,6.4-10
		c-2.3-2.8-4.5-6.2-5.7-9.9C1104.2,505.2,1101.9,508.5,1099.8,511.7L1099.8,511.7z M1130.7,466.1c1.4,0,4,0.7,7.8,3.8
		c1.7-2.7,3.4-5.3,5-7.9c-2.6-1.4-5.3-2.6-7.7-3.4C1134.1,461,1132.4,463.5,1130.7,466.1L1130.7,466.1z M1136.9,456.8
		c2.4,0.8,5,2.1,7.6,3.5c11.7-18.7,20.8-33.2,21.9-35.2c1.2-2.2,2.1-4.9,2.6-7.3c-1.8-0.3-3.5-0.7-5.1-1.2
		C1156.6,427.6,1147.1,441.8,1136.9,456.8L1136.9,456.8z M1183.4,343.7c1.3,3.8,0.4,41.2-4.9,50.6c-0.8,1.4-3.9,6.2-8.6,13.3
		c0.7,0.7,1.3,1.4,1.9,2.1c3.4-1.5,7.5-3.9,11.1-7.2c2.8-2.6,5.3-5.8,6.7-9.5c1.1-2.7,1.8-9.5,2.4-17.9c0-0.1,0-0.2,0-0.3
		c0.9-12.6,1.4-28.6,1.7-39.8c0.2-6.4,0.4-11.3,0.5-13.1c0.3-3.4-2.5-4.9-5-5.6l-3.3-0.6c-0.5,0-0.8,0.1-1.4,1.1
		c-0.7,1.1-1.4,2.7-2.1,4.7c-1.7,5-10.1,28.7-10.8,30.9c0.7,0.5,1.6,0.8,2.3,0.3C1175.6,351.5,1182.1,339.9,1183.4,343.7
		L1183.4,343.7z M1176.1,330.9c1.8-4.9,3.2-9.1,3.6-10.3c1-2.8,2.4-6.5,4.7-7.5c-0.3-10.3-2.1-23-4.7-34c-1.8-7.7-4.1-14.5-6.5-19.1
		c-1.2,0-3.8,0.6-4.2,3.9c-0.5,4.9-3,40.7-3.7,52C1170.4,321.3,1175,327,1176.1,330.9L1176.1,330.9z M1162.9,313.2
		c0.9-13.4,3.1-44.8,3.5-49.5c0.5-4.4,3.3-5.8,5.4-6.3c-0.3-0.5-0.7-0.9-1-1.3c-5.4-6-10.2,2.9-11.1,4.7c0.3,10.9-1,28.1-2.8,46.5
		C1158.7,309,1160.8,311.1,1162.9,313.2L1162.9,313.2z M1040.3,567.5l-74.9,32.3c0,6-0.1,11.1-0.3,15.4l78.2-32.3
		C1043,580.5,1042.1,574.7,1040.3,567.5L1040.3,567.5z"/>
	<path class="st13" d="M1112.2,511.7c-3.6-4.4-7-10.2-6.7-16.6l0-0.4l0.2-0.3l23.2-27.9l0.2-0.2l0.2-0.1c0,0,3-1.4,9.1,3.7
		C1133.5,483.2,1120,499.2,1112.2,511.7L1112.2,511.7z M1143.5,462c-4.5-2.4-9.1-4.3-12.2-4.3c-7.4,0-30.2,28.9-32.3,31.5
		c-0.5,2.4-4.2,22.3,6.8,32.6l-1.2,1.9c-12.9-11.6-7.7-35-7.7-35.1l0.2-0.4c0.1-0.1,25.3-32.5,34.1-32.5c3.5,0,8.5,2.1,13.3,4.7
		L1143.5,462L1143.5,462z M1058,541.6c1.3-1.3,2.6-2.7,4-4.3c6.5-7.4,13.2-16.8,16.1-22.6c5.1-10.2-0.9-28.9-1-28.9l-0.2-0.6
		l0.4-0.4l52-61.4l-3.3-13.3l1.7-1.9l3.8,15.2l0.1,0.5l-0.3,0.4l-52,61.3c1,3.2,5.6,20,0.7,29.9c-3,5.9-9.7,15.6-16.3,23.1
		c-1.2,1.4-2.4,2.7-3.6,3.9C1059.3,542.2,1058.6,541.9,1058,541.6L1058,541.6z M491.6,702.7c-3.7,10.1-8.6,21.6-9.6,33.1
		c-0.1,0.7-0.3,1.4-0.4,2.1c6.2-0.1,14.5-0.4,16.4-1.5c3.3-2,8.9-28.7,8.9-28.8l0.2-0.9l-0.8-0.3C506.2,706.4,499.9,704,491.6,702.7
		L491.6,702.7z M494.5,695c-0.3,0.7-0.5,1.3-0.8,2c7.5,1.3,17.8,3.5,19.6,5.1c2.6,2.4-7.4,32.8-8.4,36c-1.4,1.1-9.5,7.4-24.9,8.5
		c-0.1,0.7-0.2,1.4-0.3,2.1c17.9-1.2,26.8-9.1,26.8-9.2l0.2-0.2l0.1-0.3c0-0.1,11.7-35.1,7.9-38.5
		C512.7,698.6,502.2,696.4,494.5,695L494.5,695z M538.6,683c-0.6-0.4-1.2-0.8-1.9-1.1c-6.2,27-20.5,82.4-22.1,88.4
		c-2.8,1.1-16.4,6.4-20.5,11.6c-3.3,4.2-4,23.2-4.1,33.9c0.7-0.1,1.4-0.2,2.1-0.3c0.1-10.5,0.7-28.7,3.6-32.4
		c4.2-5.3,20-11.1,20.1-11.1l0.5-0.2l0.1-0.5C516.6,771.1,531.9,711.7,538.6,683L538.6,683z M556.7,624.8
		c5.3,8.6,13.4,18.9,22.8,20.5c8.1,1.4,23.5-6.7,37.2-15.5c0.3,0.6,0.5,1.3,0.8,1.9c-14,8.9-29.8,17.1-38.3,15.7
		c-10.1-1.7-18.7-12.5-24.2-21.5L556.7,624.8L556.7,624.8z M750.1,358.7c14.7-1.5,37.5-2.3,49.3,5c8.1,5.1,13.1,11.7,15.9,19.3
		c-0.7,0.2-1.3,0.4-2,0.6c-2.8-7.2-7.4-13.4-15.1-18.2c-11.8-7.4-35.6-6.1-49.9-4.5C749,360.1,749.5,359.3,750.1,358.7L750.1,358.7z
		 M964.3,579.8l36-12.6c0.3-3.8,1.6-23.9-7.2-37.7l2-0.6c9.8,16,7.2,39.1,7.1,39.2l-37.7,13.9C964.5,581.2,964.4,580.5,964.3,579.8
		L964.3,579.8z"/>
	<path class="st14" d="M480.1,930.1c-2.1-6-9.3-27.2-9.5-42.8c-3.7,1.2-6.4,2.2-7.8,2.7c0.7,9.4,2.8,24.5,6.7,30.4
		c2.7,4.1,4.7,6.8,6.6,8.3C477.3,929.8,478.6,930.2,480.1,930.1L480.1,930.1z M496.8,939.5c-3.1-7.5-15.4-38.7-13.1-55.7
		c-3.7,0.8-7.2,1.8-10.3,2.7c-0.2,17.1,9.1,42.1,9.9,44.2C484,931.7,489.7,939.9,496.8,939.5L496.8,939.5z M512.3,939.3
		c-1.2-2.8-16.1-36.6-13.4-58c-4.1,0.3-8.3,1-12.3,1.8c-3.2,17.4,12.3,54.2,13.4,56.7c0.7,0.9,5.7,8.1,9.3,6.6
		C512.8,945,512.4,940.3,512.3,939.3L512.3,939.3z M519.7,916.6c-2.4-10.3-5.3-23-5.9-34.6c-3.6-0.8-7.7-1.1-12-0.9
		c-2.9,19.8,11,52.1,13,56.7c1.6,0.5,6.4,1.6,8-2.7C523.4,932.8,521.8,925.7,519.7,916.6L519.7,916.6z M474.5,827
		c6.8-0.7,27.4-1.5,40.4,12.8l-2-14c-11.8-14.8-33.8-4.1-37.3-2.3C475.5,824.1,475,825.3,474.5,827L474.5,827z M503.7,674.6
		c32-7.3,50.6,18,54.5,24l3.5-2.4l-25.8-57.2l-4,2.1c8.6,5.5,10,17.6,2.7,24.9c-7.2,7.2-19,6-24.7-2.3
		C507,668.1,504.9,672.1,503.7,674.6L503.7,674.6z M1021.8,520.9c16.2,15.6,22.9,52.4,24.2,60.8l5.3-2.2c-6.9-6.1-7.3-16.7-0.7-23.2
		c8.5-8.5,23-4.8,26.5,6.6c6.8-6.2,9.7-11,9.8-11l0.1-0.2c-38.9-1.8-54.5-27.4-57.4-33L1021.8,520.9L1021.8,520.9z M1142.5,392.1
		c1.7,3.9,10,20.5,27.2,22.9c0.2-1.4,0.4-2.5,0.4-3.2c-6.3-6.8-18.3-20-23.1-25.2l0,0.2c0,0.3-0.2,0.5-0.4,0.7L1142.5,392.1
		L1142.5,392.1z"/>
	<path class="st15" d="M894,379.6c8.6,17.5,29.1,71.4-2.6,136.4c2.3-0.7,4.5-1.7,6.5-2.7c8.9-19.5,17.3-56.8,15.2-92
		c-0.8-14.5-3.4-28.7-8.5-41C903.1,380.1,899.3,379.9,894,379.6L894,379.6z"/>
	<path class="st16" d="M912.2,1097.5c2.8,11.8-4.8,66.7-10,99.7l12.1-37.3l0-0.2c0.1-0.1,17.7-37.1-0.6-82.1
		c-13.7-33.6-49.1-114.9-66.9-155.4c-2.3-0.6-4.5-1.2-6.6-2C850.7,946.2,908.5,1081.9,912.2,1097.5L912.2,1097.5z"/>
	<path class="st17" d="M1743.2,1173.6c8.2,7.1,21,17.3,33.9,27.6c13.8,11,27.7,22.1,36.5,29.8c17.8,15.6,71.8,62.1,76.9,66.4
		c0.9,0,2.9-0.1,5.6-0.5c0.1,0,0.2,0,0.4,0c7.4-1.1,19.2-4.7,24.6-16.1c2.9-6.2,4.6-11.7,5.6-16.3c-7.1-7-16.6-16.5-26.9-26.8
		c10.6,14.3,18.2,24.8,18.3,24.9c1.1,1.5-1.2,3.1-2.2,1.6c-0.1-0.1-13.5-18.5-29.2-39.7c-20.2-20.2-40.4-40.6-48.7-49.2
		c-18.8-19.7-50.9-9.7-67.3-3.8C1764,1174,1753.5,1174.2,1743.2,1173.6L1743.2,1173.6z M1558.8,1058.6l54.8-77.9
		c-9.8-6.9-24.2-14.1-32.2-17.8c0.6,11.6-0.3,24.8-0.7,29.1c0.2,0.4,0.2,0.9-0.1,1.4l-83.9,121.9c1,1.8,3.3,6.5,3,10.3
		c-0.3,3.8-4.1,3.9-7.5,4.1c-1.6,0.1-3.1,0.2-3.2,0.4c-0.6,1.7,8.5,13.1,9.3,14.1c0.2,0.2,0.3,0.5,0.4,0.8l15.8,188.3
		c0.1,1.3-1.3,1.8-2.2,1.3c0.1,0.9,0.2,1.7,0.3,2.5c5-0.3,10.3-0.8,15.8-1.7c-0.8-12.5-7.1-115.3-9.9-154.6
		c-2.9-41.7-5.5-53.6-5.5-53.6c-0.1-0.4,0-0.8,0.2-1.1C1514.5,1124.1,1547.5,1074.3,1558.8,1058.6L1558.8,1058.6z M1510.4,910
		c28.2,10.7,89.9,28.5,182.6,24.4c-11.5-7.8-16.4-18.4-16.4-18.4c-0.8-1.7,1.7-2.9,2.5-1.2c0,0.1,5.6,12,18.8,19.4
		c14.3-0.7,29.3-2,45-3.9l-11.8-38.3c-17.7,8.5-56.7,24.3-104.8,25.8c-46.7,1.5-91.1-11.9-113-19.8
		C1512.8,900.4,1511.7,905.4,1510.4,910L1510.4,910z"/>
	<path class="st18" d="M682.7,903.3c59.2,8.6,105.4,3.1,133.7-3.3c-2.1-3.5-3.6-7.1-4.6-10.4c-28.5,5.1-70.5,8.8-115.2-0.3
		C692.2,894.7,687.5,899.3,682.7,903.3L682.7,903.3z M358.5,1372.6c1.8-22.1,17.6-114.9,17.7-115.2c0,0,0.5-2.3,1.9-5.1
		c0.7-1.4,1.7-3,2.9-4.5c-4.1,1.2-7.5,2.9-10.2,5.3c-5,4.3-7.9,10.8-9.3,19.8c-2.9,18.7-11.9,104.3-12.3,108.6
		c0.4,2.2,4.4,26.9,12.8,29c6,1.4,28.4,4,45.8,2.7c10.1-0.8,18.3-2.9,19.9-7.1c0.6-1.5,0.7-3.2,0.6-5l-55.4-0.5
		c-0.2,0-0.3,0-0.4-0.1l0,0C372.4,1400.5,356.7,1395.8,358.5,1372.6L358.5,1372.6z M437.8,1278.8c-14.8-10.2-18.4-28.7-19.2-40.5
		c-5.4,1.5-22.4,6.1-32.4,8.3c-2.1,1.6-3.6,3.5-4.8,5.3l26.3-2.9c0,0,7.7,26.1,24.7,40.4C434.2,1285.6,435.9,1282,437.8,1278.8
		L437.8,1278.8z M805.8,1336.9c-2.4,6.6-12,32.9-15.7,48.9c-0.5,2.4-0.9,4.6-1,6.6c0.7,0.3,1.6,0.6,2.7,0.9
		c6.9-17.1,16-41.3,16-41.3c0,0,26.1,4.8,50.3-3.2c-2-1-3.1-1.6-3.1-1.6c-0.5-0.3-0.8-0.8-0.7-1.3l0.1-4.5
		c-3.6,0.8-9.8,1.7-20.7,1.8C820.5,1343.4,811.2,1339.9,805.8,1336.9L805.8,1336.9z M826.6,1401.3c-16.8-1.8-31.1-3.8-37.5-6
		c0.7,13.7,13.1,17.2,28.9,17.4h0l127.9,4.1c1.3-0.2,12.4-2.4,10.8-12.1c-5.8,0.5-30.6,2.7-55.2,1.9
		C885.3,1406.2,852.9,1404.1,826.6,1401.3L826.6,1401.3z M785.5,994.4c-10.6-15.9-10.7-31.1-9.1-40.8l-32.6,11.9l-1.2,2.4l97.2,146
		c0.4,0.5,0.3,1.3-0.1,1.7c-0.1,0.1-4.2,4.5-4.2,8c0,3.6,2.8,7.4,2.8,7.4c0.3,0.3,0.3,0.8,0.2,1.1l-36,199.3
		c0.6,0.5,1.6,1.3,3.2,2.2c0.1,0.1,0.2,0.1,0.3,0.2l41.3-194.2c0,0-1.5-10-1.2-16.2c0.3-6.2,5.3-11.2,5.3-11.2
		C851.3,1112.3,803.1,1020.8,785.5,994.4L785.5,994.4z M813.8,889.4c1.1,3.2,2.6,6.7,4.7,10.2c7-1.6,12.8-3.3,17.3-4.7
		c-0.5-3.1-0.9-7.4-0.8-10.2C829.3,886.1,822.2,887.8,813.8,889.4L813.8,889.4z M605,1006.1c21.7-50.1,48.1-108.1,48.1-108.1
		c9.2,2,18.1,3.6,26.8,4.9c4.9-4,9.9-8.6,14.4-14c-20-4.3-40.4-11.2-60.4-21.7C631.4,881.1,615.9,967.9,605,1006.1L605,1006.1z"/>
	<path class="st18" d="M811.8,476.3c0,0-0.6-58.5,0.7-75.1c0.6-7.2,3.7-12.7,7.1-16.5c-22,5.7-23.7,11.8-23.8,12.6l6.4,81.4l41,39.3
		c1.4,0.3,6.1,1,12.4,1.5C834.2,508.9,811.8,476.3,811.8,476.3L811.8,476.3z"/>
	<path class="st18" d="M828.6,532.9c-0.7,2.4-1.2,5.2-1.5,8.2c3.3,1.3,6.6,2.5,10.2,3.5l-0.3-8.2
		C834.1,535.3,831.4,534.2,828.6,532.9L828.6,532.9z"/>
	<path class="st18" d="M825.1,540.3c0.4-3,0.9-5.8,1.6-8.2c-3.7-1.8-7.4-3.8-10.9-5.9c-0.4,2.6-0.9,5.6-1.3,8.7
		C817.8,536.8,821.4,538.6,825.1,540.3L825.1,540.3z"/>
	<path class="st18" d="M812.5,533.8c0.5-3.2,0.9-6.1,1.4-8.8c-5.3-3.3-10.3-6.8-14.8-10.3c-0.5,2.6-1.1,5.5-1.7,8.7
		C801.4,526.5,806.5,530.2,812.5,533.8L812.5,533.8z"/>
	<path class="st18" d="M795.6,521.9c0.6-3.1,1.2-6.1,1.7-8.6c-6.2-5-11.7-9.8-16.1-14c-0.1,4.4-0.5,12.5-2.1,20.9l9.5-4.4
		C788.6,515.7,791.1,518.3,795.6,521.9L795.6,521.9z"/>
	<path class="st18" d="M768.5,660.5c-3,5-5.8,10.2-8.4,15.3c-4.4,8.7-8.5,17.5-12.3,26.4c6.6,0,13.2,0,19.8,0.1c2.1,0,4.3,0,6.4,0
		C772.9,688.3,771.3,674.2,768.5,660.5L768.5,660.5z M838.9,638.1l0.6,0l0.3,0c4.3,0.8,6.2,3.5,5.6,7.4l-16.2,95.2
		c-0.5,3.1-2.2,6.2-5.9,7.6l-0.4,0.1l-2.2,0.4l-0.8,0h-0.2c-4.2-0.5-6.8-2.8-6.2-6.7l16.6-97.7l0.1-0.2
		C831.5,640.6,834.5,638.1,838.9,638.1L838.9,638.1z M781.6,649c1.3,3.9,2.2,7.9,3,12c1,5.3,1.9,10.7,2.5,16.1
		c1.8,14.6,2.8,29.4,3.5,44.1l0,0.1v0c0.1,4.1,0.1,8.3-0.1,12.4c-0.1,2.9-0.3,5.9-0.8,8.8l-0.1,0.3l-0.1,0.3
		c-1.4,2.9-3.9,5.2-7.6,5.1l-1.2,0c-1,0-2-0.2-2.9-0.6c-3.5-1.7-3.4-6.2-2.8-9.4c0.3-7.6,0.3-15.2,0-22.8l-32.4,0
		c-2,5.4-3.9,10.8-5.6,16.3c-1.1,3.6-2.3,7.5-2.9,11.1l-0.1,0.8l-0.7,0.7c-1.9,1.9-4.3,3.4-7.2,3.3h-1.3l-0.4-0.1
		c-3.3-0.8-5.6-2.7-5.1-5.9l0.2-1.2c0.7-4,1.7-8,2.9-12c1.6-5.1,3.4-10.2,5.3-15.2c5.2-13.5,11.3-27,17.6-40.2l0,0v-0.1
		c5.8-11.2,12.6-22.7,21-32.9l0.4-0.4l0.5-0.3c1.7-1,3.7-1.8,5.7-1.8C779.3,637.4,780.9,644.7,781.6,649L781.6,649z"/>
	<path class="st14" d="M1522.7,1338.9c-22.5,2.6-40.6,0.2-51-2c-1.6,1-7.2,4.5-14,8.5c3.1,1.9,7,4.4,10.2,7.1
		c4.3,3.4,7.6,7.1,7.1,10.2c-1,6.2-9.9,7.1-13.2,7.2c-1.4,7.5-11.3,6.3-14.7,5.6c-1.2,2.3-4.8,7.7-10.1,6.7
		c-5.2-0.9-16-13.6-19.5-17.8c-3.5,1.4-7.4,3.1-11.4,5c5.7,3.4,19.7,13.3,22.6,29.8c11.4,0,22.2-0.1,30.2-0.4
		c25.9-0.8,65.4-5.2,72.8-6c0-9.7-0.2-21.6-1.2-27.9C1528.9,1354.5,1524.1,1342.4,1522.7,1338.9L1522.7,1338.9z"/>
	<path class="st14" d="M1955.4,1343.4c2.2,6.1-1,8.6-1.7,9c-0.3,0.2-0.6,0.3-1,0.3c-11.1-1.5-28.5,6.7-36.6,10.9
		c0.3,2.1,0.5,4,0.5,5.6c5.9-2.8,22-9.3,34.1-5.1c11.7,4,22.5,14.2,26.7,18.5c0.3-1.9,0.3-4,0-6.1c-1.7-13.8-16.2-87.8-17.3-93.6
		c-6.6-7-16.5-15.3-30.1-20.7c-0.8,5.3-2.6,12.2-6.3,20c-5.6,11.7-17.2,15.9-25.2,17.3c1.5,3.8,5.3,13.4,8.2,22.2
		c6.8-6.3,18.1-10.4,26.7-12.1c6.5-1.3,12.9-1.4,14.3,1c2.1,3.6,2,9.4,1.8,11.6c1.2,0.8,3.2,2.6,4.2,6c1,3.5-0.9,7.1-2,8.9
		C1952.7,1338,1954.1,1339.9,1955.4,1343.4L1955.4,1343.4z"/>
	<path class="st4" d="M1425.9,1399c-3.3-17.2-19.6-26.6-22.9-28.3c-8,3.7-16.2,8.1-22.9,12.4c-6.8,4.4-11,9.7-12.7,15.6
		C1374.3,1398.8,1401.1,1399.1,1425.9,1399L1425.9,1399z M1420.2,1363.2c3,3.6,13.3,15.4,17.3,16.1c3.7,0.7,6.3-3.5,7.2-5.3
		c-3.9-4.4-10.7-10.5-14.8-14.1c-0.6,0.2-1.1,0.4-1.6,0.5C1426.2,1361.1,1423.4,1362,1420.2,1363.2L1420.2,1363.2z M1432.8,1358.8
		c2.4,2.2,5.4,4.9,8.1,7.5c2.3,2.2,4.5,4.4,6.1,6.3c2.1,0.5,11.4,2.1,12.1-3.8c-1.8-2.5-4.4-5.5-7.2-8.3c-2.6-2.7-5.3-5.4-7.6-7.6
		C1440.1,1355.3,1436.1,1357.3,1432.8,1358.8L1432.8,1358.8z M1447,1351.5c4.5,4.3,10.7,10.6,14.4,15.5c2.4,0,10.3-0.4,11-4.9
		c0.7-4.1-14.1-13.3-17.3-15.2C1452.4,1348.4,1449.6,1350,1447,1351.5L1447,1351.5z M1913.8,1351.6c0.7,3.1,1.3,6.2,1.8,9
		c8.8-4.6,25.4-12.1,36.9-10.9c2.6-2.5-1.4-9.8-3-11.1C1936.8,1340.2,1923.4,1346,1913.8,1351.6L1913.8,1351.6z M1913.2,1348.8
		c9.8-5.6,23-11.2,35.9-12.9c0.8-1.2,2.7-4.4,1.9-7.1c-0.8-2.8-2.6-4.1-3.3-4.5c-7.9,0.2-15.7,2.6-22.3,5.6
		c-6.3,2.7-11.4,5.9-14.6,8.1L1913.2,1348.8L1913.2,1348.8z M1910.3,1334.9c9.9-6.4,23.3-12.8,36.5-13.4c0.1-2.2,0.1-6.8-1.5-9.6
		c-1.1-1-5.7-0.8-11.4,0.3c-8.3,1.6-20,5.8-26.2,12.3C1909,1328.9,1909.8,1331.8,1910.3,1334.9L1910.3,1334.9z M1949.8,1366.6
		c-13.4-4.6-32.3,5.1-34.1,6c-1.1,0.9-11.2,9.6-12.9,21l-0.1,0.6c3.5,1.7,17.8,7.5,41,6.2c14.9-0.8,29-4.3,32.8-14.7
		C1974,1382.8,1962.4,1370.9,1949.8,1366.6L1949.8,1366.6z M1943.9,1403.2c-22.3,1.2-36.7-4-41.5-6.1c-0.4,4.4-0.2,8.3,1.8,11.2
		c2.5,3.7,7.9,6.3,18.3,7.3c20.8,2,51.9-3,53.9-3.4c1.2-0.5,12.4-4.8,13.1-19.3c0.7-15.7-18.3-92.8-19.3-97.1
		c-0.4-0.8-2.5-4.3-6.4-8.9c3.5,17.6,14.9,76.9,16.4,89.1C1982.6,1396,1964.2,1402.1,1943.9,1403.2L1943.9,1403.2z M1531.5,1407.4
		c0.1-1.8,0.2-6.3,0.2-12c-8.2,0.9-46.9,5.2-72.7,6c-8.3,0.3-19.6,0.4-31.4,0.4c-0.1,0-0.1,0-0.2,0c-26,0.1-54.7-0.3-60.7-0.4
		c-0.6,3.9-0.1,7.4,0.7,9.7c2.1,6.1,62,7,69.5,7.2C1457.2,1418.7,1511,1416.7,1531.5,1407.4L1531.5,1407.4z"/>
	<path class="st4" d="M1484.6,497.5c4.4,1.1,27.1,5.6,53.6-8.1c-0.6-6.1-9-1.9-9-1.9l-0.2,0.1c-14,5-38.9,6.1-45.2,6.2
		C1484,495,1484.3,496.2,1484.6,497.5L1484.6,497.5z"/>
	<path class="st19" d="M1501.7,516.8c2.6,0.8,5.5,1.2,8.7,1.2c7.6-0.2,13.7-3.6,18.3-8.1c2.2-2.2,4-4.6,5.4-7
		C1517.3,497.8,1505.1,512.1,1501.7,516.8L1501.7,516.8z M1529.1,487.5c-14,5-38.9,6.1-45.2,6.2c0.1,1.2,0.4,2.5,0.7,3.7
		c4.4,1.1,27.1,5.6,53.6-8.1c-0.6-6.1-9-1.9-9-1.9l-0.1,0L1529.1,487.5L1529.1,487.5z M1482.3,491c0.1,0,30.1-0.4,45.8-6.1
		c1-0.5,13.1-6.1,13,5.3c-0.1,5.8-3.7,14.8-10.4,21.5c-5,5-11.8,8.8-20.2,9c-8.6,0.2-15.2-2.9-19.9-7.4c-6-5.7-9-13.9-9.6-20.8
		l-0.1-1.5L1482.3,491L1482.3,491z M1514.5,1333.2c0,0.8-0.5,1.4-1.3,1.5c-0.8,0.1-1.5-0.5-1.5-1.3l-15.7-187.9
		c-1.7-2.1-10.5-13.5-9.5-16.4c0.7-2,3.1-2.1,5.7-2.2c2.3-0.1,4.8-0.2,4.9-1.5c0.3-4-3-9.5-3.1-9.5c-0.3-0.5-0.2-1.1,0.1-1.5
		l84.3-122.6c0.4-0.6,1.3-0.8,1.9-0.4c0.7,0.5,0.8,1.3,0.4,2l-83.9,121.9c1,1.8,3.3,6.5,3,10.3c-0.3,3.8-4.1,3.9-7.5,4.1
		c-1.6,0.1-3.1,0.2-3.2,0.4c-0.6,1.7,8.5,13.1,9.3,14.1c0.2,0.2,0.3,0.5,0.4,0.8L1514.5,1333.2L1514.5,1333.2z M1723,950.8
		c-0.3-0.7,0.1-1.5,0.8-1.8c0.8-0.3,1.5,0.1,1.8,0.8c0.1,0.4,47.6,138.7,55.1,149.7c3.3,4.8,5.5,8.6,7.1,11.5
		c2.2,4.2,2.9,6.7,2.9,7.9c0,0.1,1,0.3,2.1,0.8c2,0.8,4.3,1.8,5.1,3.6c1,2.2,2.1,6.7,2.6,8.4c4.2,2,28.8,13.7,43.3,31.4
		c15.6,19.2,74.2,99.3,74.4,99.5c0.5,0.6,0.3,1.5-0.3,1.9c-0.6,0.5-1.5,0.3-1.9-0.3c-0.2-0.2-58.8-80.3-74.3-99.4
		c-15.4-18.9-42.8-30.9-42.9-30.9c-0.4-0.2-0.7-0.5-0.8-0.9c0,0-1.4-6.1-2.6-8.6c-0.4-0.9-2.1-1.6-3.6-2.2c-2-0.9-3.8-1.6-3.8-3.4
		c0-0.8-0.7-3-2.6-6.7c-1.5-2.9-3.7-6.5-6.9-11.2C1770.7,1089.8,1723.1,951.2,1723,950.8L1723,950.8z M1676.6,915.9
		c-0.3-0.7,0-1.5,0.7-1.9c0.7-0.3,1.5,0,1.8,0.7c0,0.1,13.1,28.2,47.1,24.8c0.8-0.1,1.5,0.5,1.5,1.2c0.1,0.7-0.5,1.4-1.2,1.5
		C1690.5,945.9,1676.6,916,1676.6,915.9L1676.6,915.9z M1902.4,1397.1c-0.4,4.4-0.2,8.3,1.8,11.2c2.5,3.7,7.9,6.3,18.3,7.3
		c20.8,2,51.9-3,53.9-3.4c1.2-0.5,12.4-4.8,13.1-19.3c0.7-15.7-18.3-92.8-19.3-97.1c-0.4-0.8-2.5-4.3-6.4-8.9
		c3.5,17.6,14.9,76.9,16.4,89.1c1,7.7-1.1,14.2-7.1,18.9c-5.8,4.6-15.2,7.5-29.2,8.2C1921.6,1404.4,1907.2,1399.2,1902.4,1397.1
		L1902.4,1397.1z M1915.8,1372.6c-1.1,0.9-11.2,9.6-12.9,21l-0.1,0.6c3.5,1.7,17.8,7.5,41,6.2c13.4-0.7,22.3-3.4,27.6-7.6
		c2.5-2,4.3-4.4,5.2-7.1c-2.6-2.8-14.2-14.7-26.8-19C1936.5,1362,1917.5,1371.8,1915.8,1372.6L1915.8,1372.6z M1913.8,1351.6
		c0.7,3.1,1.3,6.2,1.8,9c4.8-2.5,12.7-6.3,20.7-8.7c5.6-1.7,11.4-2.8,16.2-2.2c0.6-0.5,1.5-2,0.3-5.4c-1.4-3.8-2.7-5.2-3.3-5.6
		c-8,1-15.7,3.5-22.2,6.2C1921.4,1347.4,1916.6,1350,1913.8,1351.6L1913.8,1351.6z M1910.9,1337.9c0.5,2.7,1.2,5.7,1.9,8.9l0.4,2
		c2.9-1.7,7.5-4.1,13-6.4c6.6-2.8,14.6-5.4,22.8-6.4c0.8-1.2,2.7-4.4,1.9-7.1c-0.8-2.8-2.6-4.1-3.3-4.5c-7.9,0.2-15.7,2.6-22.3,5.6
		C1919.2,1332.5,1914.1,1335.7,1910.9,1337.9L1910.9,1337.9z M1907.7,1324.5c1.2,3.8,2.1,7.3,2.5,9.9l0.1,0.5
		c3.4-2.2,8.3-5.1,14.1-7.7c6.6-2.9,14.5-5.4,22.4-5.8c0.1-2.2,0.1-6.8-1.5-9.6c-1.1-1-5.7-0.8-11.4,0.3c-6,1.2-13.1,3.5-19,6.9
		C1912.1,1320.7,1909.6,1322.5,1907.7,1324.5L1907.7,1324.5z M1366.7,1401.4c-0.7,3.9-0.1,7.4,0.7,9.7c0.9,2.5,11.8,4.2,25.5,5.3
		c14.3,1.2,31.4,1.6,44,1.8c14.6,0.3,37.9-0.5,58.7-3c14.7-1.8,28-4.3,35.9-7.9c0.1-1.8,0.2-6.3,0.2-12c-8.2,0.9-46.9,5.2-72.7,6
		c-8.3,0.3-19.6,0.4-31.4,0.4c-0.1,0-0.1,0-0.2,0C1401.5,1401.9,1372.8,1401.5,1366.7,1401.4L1366.7,1401.4z M1403,1370.7
		c-8,3.7-16.2,8.1-22.9,12.4c-6.1,3.9-9.7,8.4-11.7,12.8c-0.4,0.9-0.8,1.9-1,2.8c7,0.1,33.7,0.4,58.5,0.3
		C1422.6,1381.8,1406.2,1372.4,1403,1370.7L1403,1370.7z M1429.9,1359.9c-0.6,0.2-1.1,0.4-1.6,0.5c-2.1,0.6-4.9,1.6-8.1,2.8
		c2.1,2.4,5,5.9,8,8.9c3.6,3.7,7.2,6.8,9.2,7.2c3.7,0.7,6.3-3.5,7.2-5.3c-1.6-1.7-3.6-3.7-5.7-5.8
		C1435.9,1365.3,1432.5,1362.2,1429.9,1359.9L1429.9,1359.9z M1444.4,1352.9c-4.3,2.3-8.4,4.4-11.6,5.9c2.4,2.2,5.4,4.9,8.1,7.5
		c2.3,2.2,4.5,4.4,6.1,6.3c2.1,0.5,11.4,2.1,12.1-3.8c-1.8-2.5-4.4-5.5-7.2-8.3C1449.4,1357.7,1446.7,1355.1,1444.4,1352.9
		L1444.4,1352.9z M1455,1347c-2.6,1.5-5.3,3.1-8,4.6c2.2,2,4.7,4.5,7.1,7c2.7,2.9,5.4,5.9,7.3,8.5c2.4,0,10.3-0.4,11-4.9
		c0.3-1.8-2.5-4.7-6.1-7.6C1462.6,1351.7,1458.2,1348.9,1455,1347L1455,1347z M1930,1262.1c-0.8,5.3-2.6,12.2-6.3,20
		c-5.6,11.7-17.2,15.9-25.2,17.3c1.5,3.8,5.3,13.4,8.2,22.2c2-1.8,4.2-3.4,6.8-4.8c6.1-3.5,13.6-6,19.9-7.2c6.6-1.3,12-1.2,13.8,0.3
		c0.2,0.2,0.4,0.4,0.6,0.7c2.1,3.6,2,9.4,1.8,11.6c1.2,0.8,3.2,2.6,4.2,6c1,3.5-0.9,7.1-2,8.9c1,1,2.4,2.9,3.7,6.4
		c2.3,6.1-1,8.6-1.7,9c-0.3,0.2-0.6,0.3-1,0.3c-4.5-0.6-10.1,0.4-15.6,2c-8.2,2.5-16.4,6.5-21,8.9c0.3,2.1,0.5,4,0.5,5.6
		c5.9-2.8,22-9.3,34.1-5.1c11.7,4,22.5,14.2,26.7,18.5c0.3-1.9,0.3-4,0-6.1c-1.7-13.8-16.2-87.8-17.3-93.6
		C1953.5,1275.8,1943.6,1267.5,1930,1262.1L1930,1262.1z M1522.7,1338.9c-22.5,2.6-40.6,0.2-51-2c-1.6,1-7.2,4.5-14,8.5
		c3.1,1.9,7,4.4,10.2,7.1c4.3,3.4,7.6,7.1,7.1,10.2c-1,6.2-9.9,7.1-13.2,7.2c-1.4,7.5-11.3,6.3-14.7,5.6c-1.2,2.3-4.8,7.7-10.1,6.7
		c-2.7-0.5-6.8-4-10.7-8c-3.4-3.5-6.8-7.4-8.8-9.8c-3.5,1.4-7.4,3.1-11.4,5c5.7,3.4,19.7,13.3,22.6,29.8c11.4,0,22.2-0.1,30.2-0.4
		c25.9-0.8,65.4-5.2,72.8-6c0-9.7-0.2-21.6-1.2-27.9C1528.9,1354.5,1524.1,1342.4,1522.7,1338.9L1522.7,1338.9z M1696.5,678.5
		c1.5,11,4,25.1,7.2,40.9c3.3,16.7,7.3,35,11.4,53.2c12.1,1,26.5,2.5,29.9,2.9c2.8-3.7,18.2-24.1,33.9-46.1
		c3.8-5.4,7.9-10.4,12-14.9c-10.1-7.1-35.9-21.5-41.9-24.9c-3,6.2-5,10.3-5,10.3c-0.3,0.7-1.1,1-1.8,0.7L1696.5,678.5L1696.5,678.5z
		 M1731.2,891.9c-17.7,8.5-56.7,24.3-104.8,25.8c-46.7,1.5-91.1-11.9-113-19.8c-0.9,4.2-3.4,15.4-5.3,19.5c-0.5,0.9-0.7,1.5-1.1,2.4
		c-7.5,16.1-47.7,102.2-58.7,119c-6.5,10-15.2,30.6-20.7,51.8c-4.4,16.6-6.8,33.4-4.9,45.5c4.2,26.8,38.3,183.8,41,195.9
		c1.2,0.4,4,1.2,8.1,2.1c0.1,0,0.2,0,0.3,0.1c11,2.4,31.3,5.2,56.6,1.2c-0.8-12.5-7.1-115.3-9.9-154.6c-2.9-41.7-5.5-53.6-5.5-53.6
		c-0.1-0.4,0-0.8,0.2-1.1c1.2-1.9,34.2-51.7,45.6-67.3c4.7-6.5,15.7-22.1,27-38.3c11.6-16.5,22.2-31.6,27.8-39.7
		c-14.2-9.9-38.1-20.5-38.1-20.6c-0.7-0.3-1-1.1-0.7-1.8c0.3-0.7,1.1-1,1.8-0.7c0.1,0.1,24.9,11.1,39.5,21.6c0.1,0,0.2,0.1,0.3,0.1
		c0.1,0.1,0.2,0.1,0.2,0.2c4.2,3,7.4,6,8.9,8.7c1.3,2.2,3.8,6.6,7.1,12.3c11.8,20.3,32.9,56.6,41.7,75.4
		c5.5,11.7,17.8,31.5,30.6,50.1c13.1,19,26.5,36.8,33.4,43.3c7.3,6.8,22.9,19.3,38.7,31.9c13.8,11,27.7,22.1,36.5,29.8
		c17.8,15.6,71.8,62.1,76.9,66.4c0.9,0,2.9-0.1,5.6-0.5c0.1,0,0.2,0,0.4,0c7.4-1.1,19.2-4.7,24.6-16.1c4-8.4,5.7-15.6,6.3-20.8
		c0-0.1,0-0.2,0.1-0.4c0.6-4.4,0.4-7.4,0.3-8.3c-4.1-5.7-67.7-93.6-88.4-115.8c-21.2-22.6-37-26.9-37-27c-0.7-0.2-1.1-0.9-1-1.6
		c0.1-0.8,0.7-6.5-1-9.7c-1.9-3.4-7.3-5.9-7.3-5.9c-0.4-0.2-0.6-0.5-0.8-0.8l0,0L1731.2,891.9L1731.2,891.9z M1727.9,837.8
		c0.1-0.3,0.3-0.5,0.5-0.6c1.4-1.3,2.6-2.2,3.5-2.4l0.4-0.1c4.3-1,27-6.1,31.2-14.5c4.6-9.4,8.5-14.6,8.5-14.6
		c0.1-0.1,0.2-0.2,0.3-0.3l0,0c0.2-0.1,53.7-38,73.5-59.7l2.8-3c18.1-19.5,30.5-33,6.9-59c-23.1-25.5-64.4-56.1-72-61.7
		c-1.7,2.9-4,6.9-7,12.3c-5,9-18.4,36.3-26.4,52.7c5.9,3.3,32.5,18.2,42.5,25.3c13.6-14.8,26.1-23.9,26.2-23.9
		c0.6-0.5,1.5-0.3,1.9,0.3c0.4,0.6,0.3,1.5-0.3,2c0,0-12.8,9.3-26.5,24.4c0,0-0.1,0.1-0.1,0.1c-4.3,4.7-8.6,10-12.7,15.7
		c-17.4,24.5-34.4,46.8-34.4,46.8c-0.3,0.4-0.8,0.6-1.3,0.5c-1.3-0.1-38-3.9-46.5-3.9c-3.7,0-8.7,2.3-13.2,5.3
		c-5.2,3.5-9.5,7.7-10,10.1c-0.7,2.6,0.2,5.1,0.9,6.7c3.8-4.6,15.4-17.5,24.2-17.3c0.8,0,1.4,0.7,1.3,1.4c0,0.7-0.6,1.4-1.4,1.4
		c-9-0.2-22.2,16.5-23.2,17.7c-0.1,0.1-0.1,0.2-0.2,0.2c-0.9,1-9.3,11.6-6.9,19.3c0,0.2,0.1,0.4,0.2,0.6c1,2.2,3.6,5.3,7.2,8.7
		c2-6.1,8.5-23.7,17.5-28.9c0.7-0.4,1.5-0.2,1.9,0.5c0.4,0.7,0.2,1.5-0.5,1.9c-8.8,5.1-15.3,24.3-16.6,28.5
		c3.1,2.7,6.8,5.5,10.6,8.1c2-5.7,8.8-23.8,16.6-28c0.7-0.4,1.5-0.1,1.9,0.6c0.4,0.7,0.1,1.5-0.6,1.9c-7.3,3.9-14,22.5-15.5,27.1
		c4.4,2.7,8.8,5.1,13.1,6.7c0.9-4.8,4.1-18.8,11.4-24c0.6-0.5,1.5-0.3,1.9,0.3c0.5,0.6,0.3,1.5-0.3,1.9c-6.7,4.8-9.7,18.6-10.4,22.6
		c3.8,1.2,7.3,1.5,10,0.7c0.2-0.1,0.4-0.1,0.5-0.2C1720.5,846.7,1724.4,841.3,1727.9,837.8L1727.9,837.8z M1602.8,457.3
		c-0.3,0.7-1.1,1.1-1.8,0.8c-0.7-0.3-1.1-1.1-0.8-1.8c0,0,6.2-17.4,21-10.6c0.7,0.3,1,1.1,0.7,1.8c-0.3,0.7-1.1,1-1.9,0.7
		C1608,442.8,1602.8,457.3,1602.8,457.3L1602.8,457.3z M1608.2,555.3c-2.5,7.5-20.6,56.5-55.4,51.4c-36.7-5.3-33.4-31.6-33.2-33.2
		l-0.2-11.9c-10.2-2.6-93-23.9-107.2-30.9c-2.9,5.8-14.7,30.5-20.6,55c-2.1,9.1-3.2,16.5-3.5,22.4c0,0.1,0,0.3,0,0.4
		c-0.6,10,0.6,15.6,1,17.4c5.2,2.5,46.5,22.5,83.7,35.3c-5.5-25.2-9.5-45.1-9.5-45.2c-0.1-0.7,0.4-1.5,1.1-1.6
		c0.8-0.2,1.5,0.3,1.6,1.1c0,0.1,4.3,21.3,10,47.5c0,0.1,0,0.1,0,0.2c7.1,32.5,16.4,72.7,22.5,90.3c5.3,15.2,7.9,42.5,8.4,69.1
		c0.5,28.9-1.6,57-5.5,67.7c1.8,0.8,5.7,2.4,11.3,4.4c0.1,0,0.1,0.1,0.2,0.1c21.2,7.8,66.1,21.7,113.4,20.2
		c48.9-1.5,88.3-17.9,105-26.1c0.1-0.1,0.1-0.1,0.2-0.1c3.7-1.8,6.3-3.2,7.5-3.9c-1.1-4.2-5.3-20.9-10.7-43.5
		c-3.1,3.5-6.5,8.4-6.8,8.8c-0.1,0.2-0.3,0.4-0.6,0.5c-0.4,0.2-0.8,0.3-1.1,0.5c-3.4,1.1-7.9,0.6-12.7-1l0,0c-0.2,0-0.3-0.1-0.4-0.2
		c-5.4-1.8-11.2-4.9-16.7-8.6c-4.4-2.9-8.6-6.1-12.1-9.2c-0.1-0.1-0.2-0.2-0.3-0.3c-4.6-4.2-8.1-8.1-9.4-10.9
		c-0.2-0.3-0.3-0.6-0.4-0.9c-2.6-8.1,4.6-18.3,6.8-21.2c-0.9-1.7-2.7-5.4-1.7-9.6c0.7-3,5.5-7.9,11.2-11.8
		c4.9-3.3,10.4-5.8,14.7-5.8c2.5,0,7.5,0.3,13.2,0.8c-4.1-18-8-36.1-11.2-52.4c-3.3-16.5-5.9-31.4-7.4-42.8l-32-15.4
		c-0.7-0.4-1-1.2-0.7-1.9c0.3-0.7,1.2-1,1.8-0.7l79.3,38.2c3.9-8,25.3-52.3,32.1-64.4c3.5-6.3,6.1-10.7,7.8-13.7c0,0,0-0.1,0.1-0.1
		c0.9-1.5,1.6-2.6,2-3.4c-10.1-6.3-82.9-52.1-101.3-56.1C1664.4,555.7,1615.8,555.4,1608.2,555.3L1608.2,555.3z M1456.8,420.7
		c1.3-16.5,2.5-28.9,2.6-29.4h0v0c0,0,0-0.1,0-0.1l0,0v0v0v0l0,0v0c0.2-0.8,6.3-21.1,23.9-20.1c-4.6-4.5-7.6-8.1-7.6-8.1
		c-0.5-0.6-0.4-1.5,0.2-2c0.6-0.5,1.5-0.4,1.9,0.2c0,0,4.2,5.2,10.4,10.7c0.1,0.1,0.3,0.2,0.3,0.3c8.2,7.2,19.7,14.9,29.8,12.7
		c-6.5-6.3-15-16.5-16.4-25.5c-0.1-0.7,0.4-1.5,1.2-1.6c0.8-0.1,1.5,0.4,1.6,1.2c0.8,5.1,4.1,10.5,7.7,15.1
		c1.1,0.9,19.9,16.9,38.3,18.1c19,1.3,36.2-6.2,36.2-6.2c0.7-0.3,1.5,0,1.8,0.7c0.2,0.5,0.1,1.1-0.2,1.5
		c-0.9,1.2-16.5,21.1-12.7,30.9c2.2,5.6,4.1,13.6,5.2,20.8c1.1,7.2,1.4,13.7,0.4,16.4c-0.2,0.7-0.2,1.1,0,1.3l0,0
		c0.2,0.2,0.4,0.3,0.8,0.4c0.5,0.1,1,0.2,1.6,0.1c2-0.2,4.3-1.4,5.3-3.5c0.5-0.9,1-2.5,1.6-4.3c3.1-8.6,8.3-23.3,19.6-21.5
		c1.5,0.2,2.9,0.7,4.4,1.4c4.6,2.2,9,6.7,12.3,12c4.2-6.5,7.9-17.7,10.4-29.2c2.7-12.8,3.8-26,2.2-33.8
		c-3.1-14.5-21.5-19.1-22.7-19.3c-0.7-0.1-1.2-0.8-1.1-1.5c0,0,0.5-4.5-2.2-16.2c-1.3-5.7-6-11.1-12.2-15.1
		c-6.2-4-13.9-6.5-21.7-6.4c-3.7,0-7.4,0.3-11.1,0.6c-12.1,0.9-23.9,1.8-40-6c-9-4.4-19.5-6.1-28.7-6c-11.3,0.1-20.7,2.6-23,5.8
		c-4.1,5.7-0.2,11.7-0.2,11.7v0c0.1,0.2,0.2,0.4,0.2,0.6c0.1,0.8-0.4,1.5-1.2,1.5c-8.6,0.9-16.4,4.4-22.8,8.7
		c-9.4,6.2-15.5,13.7-15.9,16.7c-0.6,3.6,14.3,4.5,15.7,4.6c0.5,0,1,0.3,1.2,0.7c0.4,0.7,0.1,1.5-0.6,1.9c0,0-14.5,7.6-14.8,27.3
		C1438,404.9,1451.6,416.8,1456.8,420.7L1456.8,420.7z M1578.8,514.9c0.5-0.6,1.4-0.5,2,0c0.5,0.6,0.5,1.4,0,2
		c-22.4,22.1-42.1,32.1-58.7,34.4l0.1,9.2c0,0.1,0,0.1,0,0.2l0.2,12.9c0,0.1,0,0.2,0,0.3c0,0.1-4.2,25.1,30.9,30.2
		c31.6,4.6,48.9-39.4,52.1-48.8l-6.6-0.2c-0.6,0-1.1-0.3-1.3-0.8c-7.9-17.5-6.8-65.1-6.7-67.3c0-0.2,0-0.4,0.1-0.6
		c0.3-0.7,1.1-1,1.9-0.7c21.7,9.8,29-5.4,34.7-17.3c0.4-0.9,0.8-1.7,0.9-1.9c0.6-1.2,1-2.5,1.2-3.8c0.9-5.2-0.7-11.5-3.7-17l0,0
		l-0.1-0.2c-3.1-5.6-7.5-10.4-12.1-12.6c-1.2-0.6-2.4-1-3.6-1.2c-8.9-1.5-13.7,11.8-16.5,19.7c-0.7,1.9-1.2,3.5-1.8,4.6
		c-1.5,3.1-4.7,4.8-7.5,5.1c-0.9,0.1-1.8,0-2.6-0.2c-0.9-0.2-1.6-0.7-2.2-1.3h0c-0.9-1-1.2-2.4-0.6-4.1c0.9-2.3,0.5-8.3-0.5-15.1
		c-1.1-7-3-14.8-5.1-20.2c-3.4-8.7,5.5-23.1,10.3-29.9c-6.5,2.2-19.3,5.7-33.1,4.8c-10.4-0.7-20.9-5.8-28.5-10.6l0.1,0.1
		c0.2,0.1,0.3,0.3,0.4,0.6c0.3,0.7-0.1,1.5-0.8,1.8c-11.8,4.5-25.4-4.3-34.8-12.5c-17.8-4.2-24.3,15.8-24.8,17.5
		c-0.2,1.4-1.5,14.6-2.7,31.5c0,0.1,0,0.2,0,0.2c-1.7,23.7-3.3,54.6-1.4,71.1c1.3,10.5,8,26.3,19.7,38.2c5.2,5.3,11.5,9.8,18.7,12.7
		c7.2,2.9,15.4,4.2,24.5,3.1C1537.2,546.5,1556.6,536.9,1578.8,514.9L1578.8,514.9z M1071.2,558.2c-2.4-2.4-5.7-3.8-9.3-3.8
		c-3.6,0-6.9,1.5-9.3,3.8c-2.4,2.4-3.8,5.7-3.8,9.3c0,3.6,1.5,6.9,3.8,9.3c2.4,2.4,5.7,3.9,9.3,3.9c3.6,0,6.9-1.5,9.3-3.9
		c2.4-2.4,3.8-5.7,3.8-9.3C1075,563.9,1073.5,560.6,1071.2,558.2L1071.2,558.2z M1171.8,409.7c3.4-1.5,7.5-3.9,11.1-7.2
		c2.2-2.1,4.2-4.4,5.6-7.1c0,0,0-0.1,0.1-0.1c0.4-0.7,0.7-1.5,1-2.2c1.1-2.7,1.8-9.5,2.4-17.9c0-0.1,0-0.2,0-0.3
		c0.9-12.6,1.4-28.6,1.7-39.8c0.2-6.4,0.4-11.3,0.5-13.1c0.3-3.4-2.5-4.9-5-5.6c-0.1,0-0.2,0-0.3-0.1c-1.5-0.4-2.7-0.5-3-0.5
		c-0.1,0-0.1,0-0.2,0c-0.3,0-0.7,0.4-1.3,1.1c-0.7,1.1-1.4,2.7-2.1,4.7c-1.8,5.2-10.9,31-10.9,31c-0.3,0.7-1,1.1-1.8,0.9
		c-0.7-0.3-1.1-1-0.8-1.8c0-0.1,9.7-27.7,10.9-31c0.8-2.2,1.6-4.1,2.5-5.4c0.7-1,1.4-1.7,2.3-2.1c-0.3-10.3-2.1-23-4.7-34
		c-1.8-7.7-4.1-14.5-6.5-19.1c-1.2,0-3.8,0.6-4.2,3.9c-0.6,5.8-3.9,55.3-4,55.4c0,0.8-0.7,1.4-1.5,1.3c-0.7-0.1-1.3-0.7-1.3-1.5
		c0-0.2,3.4-49.5,4-55.5c0.5-4.4,3.3-5.8,5.4-6.3c-0.3-0.5-0.7-0.9-1-1.3c-5.4-6-10.2,2.9-11.1,4.7c0.7,29.1-9.6,104.6-12.1,122.3
		C1150.3,386,1164.9,402.2,1171.8,409.7L1171.8,409.7z M1169.7,415c0.2-1.4,0.4-2.5,0.4-3.2c-6.3-6.8-18.3-20-23.1-25.2l0,0.2
		c0,0.3-0.2,0.5-0.4,0.7l-4.2,4.5C1144.2,396,1152.5,412.7,1169.7,415L1169.7,415z M1088.7,548.9c11.7-18.4,74.8-118.5,77.8-123.8
		c1.2-2.2,2.1-4.9,2.6-7.3c-17.1-2.4-26-17.9-28.7-23.4c-22.7,24.7-99.9,108.6-104,112c-3.7,3.1-4.6,8.8-4.7,10.3
		C1033.4,520,1048.2,547.7,1088.7,548.9L1088.7,548.9z M1077.1,562.8c6.8-6.2,9.7-11,9.8-11l0,0l0.1-0.2
		c-38.9-1.8-54.5-27.4-57.4-33l-7.7,2.3c16.2,15.6,22.9,52.4,24.2,60.8c1.3-0.5,2.5-1,3.6-1.5c0.6-0.3,1.1-0.5,1.7-0.7
		c-0.3-0.2-0.5-0.5-0.7-0.7c-2.9-2.9-4.7-6.9-4.7-11.3c0-4.4,1.8-8.4,4.7-11.3c2.9-2.9,6.9-4.7,11.3-4.7c4.4,0,8.4,1.8,11.3,4.7
		C1074.9,558,1076.3,560.3,1077.1,562.8L1077.1,562.8z M1196.3,318.2c0.5,1,0.8,2.3,0.6,3.9c-0.2,1.9-0.3,6.7-0.5,12.9
		c-0.3,11.2-0.8,27.1-1.7,39.8c0.6,1.6,4.2,11.2,12,15c0.7,0.3,1,1.1,0.6,1.9c-0.3,0.7-1.1,1-1.8,0.6c-5.6-2.7-9.2-7.8-11.3-11.7
		c-0.5,6.2-1.3,11.1-2.1,13.4c-0.2,0.6-0.5,1.1-0.7,1.7c1.4,1.2,4.8,4,10,6.8c3.2,1.8,9.8,12.7,16.8,25.9
		c9.5,18,20.1,40.6,23.8,50.4c3.1,7.9,13.2,23.8,24.6,39.9c12.5,17.6,26.4,35.3,34.2,42.9c6.3,6.2,17.7,13.3,31,20.3
		c17.3,9.1,37.6,18.1,53.6,24.6c0.5-5.8,1.5-12.9,3.5-21.2c4.6-19.1,12.6-38.2,17.5-48.7c-9-4-63.1-28.1-70.7-32.2
		c-3.9-2.1-24.5-25.4-45.9-50.7c-25.3-29.9-51.9-62.9-53.9-67.3c-2.3-5.2-8.4-52.1-13.2-88.3c-2.5-19.3-4.6-35.6-5.5-40.7
		c-15.7,0.9-15.8,45.7-15.7,55.2c2.1-0.4,4.2,0.1,5.8,2.3c1.7,2.2,2.6,7.1,3.6,12.9c1.7,9.6,3.9,21.7,10.2,25.5
		c0.7,0.4,0.9,1.2,0.5,1.9c-0.4,0.7-1.3,0.8-1.9,0.5c-7.3-4.4-9.7-17.3-11.5-27.4c-1-5.4-1.8-10.1-3.1-11.7c-1.1-1.5-2.8-1.5-4.3-1
		c-0.1,0.1-0.3,0.1-0.4,0.2C1198.8,316.2,1197.3,317.4,1196.3,318.2L1196.3,318.2z M1190.8,313.8c1.3,0.5,2.7,1.1,3.8,2.1
		c1-0.8,2.4-1.9,4.1-2.6c-0.2-7.5-0.5-56.7,17.7-58.8c-0.4-0.8-0.8-1.6-1.3-2.2c-0.9-1-2.1-1.5-3.4-1.6c-1.4-0.1-3.1,0.3-4.8,1.2
		c-2.5,1.3-5.1,3.8-7.5,7.5c-3.1,4.8-5.1,12.2-6.4,20.6C1191.3,291.2,1190.8,303.9,1190.8,313.8L1190.8,313.8z M789.1,1395.4
		c0.2,4.2,1.5,7.7,4.1,10.4c4.4,4.5,12.4,6.9,24.8,7.1h0l127.9,4.1c1.3-0.2,12.4-2.4,10.8-12.1c-5.8,0.5-30.6,2.7-55.2,1.9
		c-16.3-0.5-48.8-2.6-75.1-5.4C809.8,1399.6,795.4,1397.5,789.1,1395.4L789.1,1395.4z M381,1247.8c-4.1,1.2-7.9,3-11.1,6.1
		c-4,3.9-7,9.8-8.4,19c-2.9,18.7-11.9,104.3-12.3,108.6c0.4,2.2,4.4,26.9,12.8,29c6,1.4,28.4,4,45.8,2.7c10.1-0.8,18.3-2.9,19.9-7.1
		c0.6-1.5,0.7-3.2,0.6-5l-55.4-0.5c-0.2,0-0.3,0-0.4-0.1l0,0c0,0-15.8-4.7-13.9-27.9c1.8-22.1,17.6-114.8,17.7-115.1l0,0
		C376.2,1257.4,377.2,1252.5,381,1247.8L381,1247.8z M854.3,1341.4c-3.6,0.8-9.8,1.7-20.7,1.8c-13.1,0.2-22.4-3.3-27.8-6.3
		c-2.4,6.6-12,32.9-15.7,48.9c-0.5,2.4-0.9,4.6-1,6.6c5.2,2.1,20,4.3,37.7,6.2c26.3,2.8,58.6,4.9,74.8,5.4
		c23.8,0.7,47.9-1.3,54.4-1.9c-0.3-0.9-0.7-1.8-1.3-2.8c-2-1.3-13.7-9.2-20.7-11.7c-7.9-2.8-78.9-40.3-79.1-40.3
		c-0.5-0.3-0.8-0.8-0.7-1.3L854.3,1341.4L854.3,1341.4z M437.8,1278.8c-14.8-10.2-18.4-28.7-19.2-40.5c-5.4,1.5-22.4,6.1-32.4,8.3
		c-5.8,4.5-7.3,11.1-7.4,11.4c-0.3,2-15.9,93-17.6,114.8c-1.6,19.6,10.2,24.4,11.8,25l54.6,0.5c-3.1-11.7-17.6-25.7-17.7-25.7
		c-0.3-0.3-0.5-0.8-0.4-1.2l0,0C409.7,1371.1,420.7,1308.7,437.8,1278.8L437.8,1278.8z M834.9,884.7c-33.1,8.6-121,24.7-201.1-17.5
		c-2.5,14.3-19.1,106.9-29.9,142.9c-11.7,38.7-20.2,76.8-20.2,76.9c-0.1,0.6-0.7,1-1.3,1.1l0,0c0,0-6.7,0.5-7.3,2.3
		c-0.9,2.6-2,7.2-2.1,7.3c-0.1,0.4-0.4,0.8-0.8,1c-1.3,0.6-29.2,14.8-70.2,53c-39.7,37-76.7,72.8-80.7,76.7
		c-0.1,1.1-0.3,4.1-0.1,8.1c0,0.1,0,0.2,0,0.3c0.6,12.9,4.6,35.9,25.6,43.8l153.7-103.7c0.1,0,0.2-0.1,0.2-0.1
		c2.1-1.1,42.4-23.1,62.8-60.5c26.4-48.5,53-102.6,77.9-152.3c0.2-0.3,0.4-0.6,0.7-0.7l40.3-14.7c0.7-0.3,1.5,0.1,1.8,0.8
		c0.3,0.7-0.1,1.5-0.8,1.8l-39.7,14.5l-1.2,2.4l97.2,146c0.4,0.5,0.3,1.2-0.1,1.7l0,0c-0.1,0.1-4.2,4.5-4.2,8c0,3.6,2.8,7.4,2.8,7.4
		c0.3,0.3,0.3,0.8,0.2,1.1l-36,199.3c0.6,0.5,1.6,1.3,3.2,2.2c0.1,0.1,0.2,0.1,0.3,0.2c4.8,2.9,14,6.9,27.7,6.7
		c4.6-0.1,18.6-0.2,23.1-2.6l57.6-177.9c0-0.1,0-0.1,0-0.2l0,0c0.1-0.1,17.7-37.1-0.6-82.1c-18.5-45.6-77.1-178.7-77.3-179.1
		c-0.1-0.1-0.1-0.3-0.1-0.4C836.2,897.3,834.8,889.6,834.9,884.7L834.9,884.7z M953,541.5c4.7,11,11.9,31.1,12.3,50.5
		c0.2,9.4,0.1,17-0.2,23.1l78.2-32.3c-1.1-6.9-7.7-46.3-24.6-61L953,541.5L953,541.5z M528.5,870c-0.1,4.4,1.6,12.4,4.2,18.6
		c1.9,4.6,4.3,8.1,6.8,8.2c0.2,0,0.4,0,0.5-0.1c0.7-0.4,1.3-1.5,1.7-3c0.6-1.8,0.9-4.2,1-6.8c0.6-9.1-0.9-21-2.8-25.5
		C536.9,864.4,530.5,868.7,528.5,870L528.5,870z M517.2,834.9c0.9,7.4,1.6,18.2,0.5,29.7l9.3,3.2c2.1-1.4,9.3-6.2,11.7-8.8
		C534.4,852.8,522.7,840.5,517.2,834.9L517.2,834.9z M514.7,937.8c1.6,0.5,6.4,1.6,8-2.7c0.8-2.2-0.9-9.4-3-18.5
		c-2.4-10.3-5.3-23-5.9-34.6c-3.6-0.8-7.7-1.1-12-0.9C498.9,901,512.7,933.3,514.7,937.8L514.7,937.8z M500,939.9
		c0.7,0.9,5.7,8.1,9.3,6.6c3.5-1.5,3.1-6.2,3-7.2c-1.2-2.8-16.1-36.6-13.4-58c-4.1,0.3-8.3,1-12.3,1.8
		C483.5,900.5,499,937.4,500,939.9L500,939.9z M483.3,930.7c0.7,1.1,6.4,9.3,13.5,8.8c-3.1-7.5-15.4-38.8-13.1-55.7
		c-3.7,0.8-7.2,1.8-10.3,2.7C473.3,903.6,482.5,928.6,483.3,930.7L483.3,930.7z M462.9,890c0.3,3.5,0.7,7.1,1.2,10.6
		c1.2,8.5,3.1,16.2,5.5,19.8h0c2.7,4.1,4.7,6.8,6.6,8.3c1.2,1,2.5,1.5,4,1.4c-2.1-6-9.3-27.2-9.5-42.8
		C467,888.5,464.2,889.5,462.9,890L462.9,890z M473.5,829.9c-3.6,10.8-10.2,31.5-10.9,41.4c-0.3,4.3-0.3,9.9,0.1,15.9
		c3.6-1.3,12.4-4.4,22.4-6.5c0.1,0,0.2,0,0.2,0c11.8-2.5,16.7-3.8,28.3-1.4c-0.1-3.3,0.1-6.5,0.6-9.4c1.4-9,1.5-17.8,1.1-25.2
		C502.4,826.9,478.2,829.2,473.5,829.9L473.5,829.9z M532.6,645.1c-2.4-2.4-5.7-3.9-9.4-3.9c-3.7,0-7,1.5-9.4,3.9
		c-2.4,2.4-3.9,5.8-3.9,9.4c0,3.6,1.5,7,3.9,9.4c2.4,2.4,5.7,3.9,9.4,3.9c3.7,0,7-1.5,9.4-3.9c2.4-2.4,3.9-5.8,3.9-9.4
		C536.5,650.9,535,647.5,532.6,645.1L532.6,645.1z M556.5,701c-1.9-3.1-20.5-32.3-54.3-23.2c-2,3.9-14.5,29.1-20.7,60.6
		c-5.9,30-5.7,71.9-5.6,81.9c6.2-3,25.6-10.6,37.7,2.1c2.9-10,14.1-48.1,22-64.5c2-4,4.1-8.1,6.3-12.2
		C549.7,730.9,557.6,716.1,556.5,701L556.5,701z M513,825.7c-11.8-14.8-33.8-4.1-37.3-2.3c-0.2,0.7-0.7,1.9-1.2,3.5
		c6.8-0.7,27.4-1.5,40.4,12.8c-0.3-3.4-0.7-6.3-1-8.6v0v0C513.5,828.3,513.1,826.4,513,825.7L513,825.7z M561.7,696.1l-25.8-57.2
		c-0.8,0.4-1.6,0.7-2.4,1.2c-0.5,0.3-1.1,0.6-1.6,0.9c1,0.6,1.9,1.3,2.7,2.1c2.9,2.9,4.7,6.9,4.7,11.4c0,4.4-1.8,8.5-4.7,11.4
		c-2.9,2.9-6.9,4.7-11.4,4.7c-4.4,0-8.5-1.8-11.4-4.7c-0.7-0.7-1.4-1.5-2-2.3c-2.9,4.5-5,8.5-6.2,11c32-7.3,50.6,18,54.5,24
		L561.7,696.1L561.7,696.1z M599,599.3c0,0.5-0.3,0.9-0.7,1.2l0,0L537.6,636l27.7,61.4l58.8-26.6l3.4-1
		c-2.6-26.7-18.2-57.2-26.3-71.5L599,599.3L599,599.3z M846.8,554.5c0.9,7.2,3.5,41.6-30.9,44.1c-35,2.5-49.9-45.5-52-53
		c-6.9-0.3-47.1-2-64.7-1.4c-17.7,0.5-89.2,39.9-99.5,45.6c5.1,8.3,33.6,56.9,31,92.3l38.3-19.9c0.1,0,0.1,0,0.2-0.1l40.7-21.1
		c0.7-0.3,1.5-0.1,1.9,0.6c0.4,0.7,0.1,1.5-0.6,1.9l-40.2,20.8c-1.8,9.7-4.7,22-8,35.5c-2.5,10.1-5,20.8-7.5,31.7
		c-6.6,30.4-26.8,118.1-29.2,128.4c83.1,48.7,177.2,30.3,209.7,21.7c0.1,0,0.2-0.1,0.3-0.1c5.3-1.4,8.9-2.5,10.5-3.1
		c-0.5-10.9-4.1-104.9,5.4-129.5c10-25.8,35.4-133.9,35.5-134.2c0.2-0.7,0.9-1.2,1.7-1c0.7,0.2,1.2,0.9,1,1.7
		c0,0.1-4.1,17.6-9.7,40.2c27.8-11,73.4-21.9,80.4-23.4c0.3-1.9,0.9-6.7,1.3-14.8c0-0.1,0-0.1,0-0.2c0.3-6.3,0.5-14.6,0.3-25
		c-0.4-19.8-8.1-40.3-12.7-50.8c0-0.1-0.1-0.2-0.1-0.2c-1.2-2.8-2.2-4.9-2.7-6L846.8,554.5L846.8,554.5z M837,536.4
		c-22.8-8.1-43.5-25.4-55.8-37.2c-0.2,9.6-1.9,37.7-14.5,45.7c2.1,7.4,16.4,53.2,49.1,50.9c32.1-2.3,29.1-35.5,28.3-41.3l-5.4-1.4
		c-0.7-0.2-1.1-0.7-1-1.4L837,536.4L837,536.4z M852.6,540.3c-4.3-0.6-8.6-1.7-12.9-3l0.5,13.3l5,1.3l102.3-19.8
		c0.7-0.1,1.3,0.2,1.5,0.8c0.2,0.3,1.3,2.5,2.8,6l77.1-23.1c0.4-2.3,1.6-8.2,5.7-11.6c4-3.4,84.4-90.8,105.1-113.3
		c0,0,0.1-0.1,0.1-0.1l4.5-4.8c0.1-0.5,0.2-1.4,0.4-2.7v0c2.3-16.5,13-93.8,12.2-122.8c0-0.2,0-0.5,0.1-0.7
		c0.3-0.7,7.2-15.2,15.8-5.6c0.8,0.9,1.7,2.1,2.4,3.6c0.1,0.1,0.2,0.2,0.2,0.3c2.7,4.9,5.1,12.2,7,20.4c2.7,11.2,4.5,24.1,4.7,34.5
		c0.3,0,0.5,0.1,0.8,0.1c0-9.9,0.5-22.5,2.2-33.6c1.4-8.7,3.5-16.5,6.9-21.7c2.6-4.1,5.6-6.8,8.5-8.4c2.2-1.2,4.3-1.7,6.3-1.5
		c2.1,0.1,3.9,1,5.3,2.5c1.1,1.2,2,2.9,2.5,4.9c0,0.1,0,0.1,0,0.2c0.8,3.7,3.1,21,5.8,42c4.7,36,10.8,82.7,12.9,87.5
		c1.9,4.2,28.3,36.8,53.5,66.6c21.3,25.1,41.5,48.1,45.1,50.1c7.5,4,61.6,28.1,70.6,32.1c1.7-3.6,2.8-5.7,2.8-5.7h0
		c0,0,0.1-0.1,0.1-0.1c0.4-0.7,1.3-0.8,1.9-0.4c8.4,5.7,93.7,27.7,107,31.1l-0.1-7.3c-8.8,0.8-16.8-0.6-23.9-3.5
		c-7.6-3.1-14.2-7.8-19.7-13.4c-12.2-12.3-19.1-28.7-20.4-39.8c-2-16.5-0.5-47.2,1.3-70.9c-3.7-2.6-21.3-16-21.1-35.2
		c0.2-15.2,8.3-23.7,13-27.5c-5.6-0.7-15.2-2.5-14.4-7.4c0.6-3.4,7.1-11.9,17.1-18.5c6.2-4.1,13.7-7.6,22.1-8.9
		c-1.1-2.7-2.4-7.9,1.3-12.9c2.9-3.9,13.1-6.9,25.3-7c9.7-0.1,20.6,1.7,30,6.3c15.4,7.5,26.8,6.6,38.6,5.7c3.7-0.3,7.3-0.5,11.2-0.6
		c8.3-0.1,16.6,2.6,23.2,6.9c6.8,4.4,11.9,10.5,13.4,16.9c2.1,8.7,2.3,13.7,2.3,15.9c4.5,1.3,20.7,6.8,23.7,21.2
		c1.8,8.2,0.6,21.8-2.2,34.9c-2.6,12.5-6.8,24.6-11.6,31.3c3,5.8,4.6,12.3,3.7,18c-0.3,1.6-0.8,3.2-1.4,4.6c-0.5,1-0.7,1.5-0.9,1.9
		c-6.1,12.6-13.8,28.6-36.5,19.4c-0.1,9.3-0.3,47.5,6.2,63.3l7.7,0.3c1.8,0,56.3,0.1,76.1,4.5c20.3,4.5,103.1,57.1,103.3,57.2v0v0
		c0.7,0.4,0.8,1.3,0.4,1.9c0,0-0.7,1-2.1,3.4c7.1,5.2,49.1,36.3,72.6,62.3c25.3,27.9,12.1,42.1-7,62.7c-0.5,0.5-0.9,0.9-2.7,3
		c-19.4,21.2-70.4,57.5-73.8,59.9c-0.7,1-4.1,5.9-8.1,14c-4.7,9.6-28.6,14.9-33,16l-0.3,0.1c-0.5,0.1-1.2,0.6-2,1.3
		c6.4,26.3,11,44.8,11.4,46.1c0.2,0.6,0,1.3-0.6,1.6c0,0-2.7,1.6-7.7,4.1l61.1,198.7c1.6,0.8,6.1,3.3,8,6.8
		c1.7,3.2,1.6,8.1,1.4,10.3c4,1.4,18.7,7.7,37.2,27.4c21.6,23.1,88.7,116,88.9,116.3h0c0.1,0.2,0.2,0.4,0.2,0.6c0,0,0.5,3.2-0.1,8.5
		c14.5,5.7,25.1,14.5,32,21.9c0,0,0.1,0.1,0.1,0.1c6.9,7.4,10.2,13.4,10.2,13.4l0,0c0.1,0.1,0.1,0.2,0.1,0.3
		c0.1,0.2,20.2,81.5,19.5,98c-0.7,16.5-13.8,21.4-15,21.8c-0.1,0-0.2,0.1-0.3,0.1c-0.1,0-33,5.5-54.7,3.4c-11.3-1.1-17.3-4-20.3-8.4
		c-2.8-4.1-2.8-9.2-2.1-15c0,0,0-0.1,0-0.1c0.1-0.5,0.2-1,0.2-1.6c1.8-11.7,11.6-20.6,13.6-22.4c0.3-1.7,0.1-4.4-0.4-7.6
		c0-0.1,0-0.2-0.1-0.4c-0.5-3.4-1.4-7.5-2.3-11.5c0-0.1,0-0.1,0-0.1c-0.3-1.3-0.6-2.6-0.8-3.8c-0.8-3.5-1.5-6.9-2.1-9.8
		c0,0,0-0.1,0-0.1c-0.2-0.9-0.4-1.8-0.5-2.6c-0.4-2.5-1.4-6.2-2.6-10.1c0-0.1-0.1-0.2-0.1-0.3c-3.1-9.6-7.7-21.2-9.1-24.6
		c-3,0.4-5.2,0.4-5.5,0.4c-0.3,0-0.7-0.1-0.9-0.3c-0.2-0.1-58.4-50.2-77.3-66.8c-8.7-7.6-22.7-18.8-36.4-29.8
		c-15.8-12.6-31.4-25-38.9-32c-7.1-6.6-20.7-24.6-33.8-43.7c-12.9-18.7-25.3-38.6-30.9-50.5c-8.7-18.6-29.8-54.9-41.6-75.2
		c-3.2-5.4-5.6-9.7-7.2-12.4c-1.2-2.2-3.8-4.7-7.2-7.2c-6.3,9-17.8,25.4-27.8,39.6c-11.2,16-22.2,31.6-27.1,38.3
		c-10.8,14.9-41.8,61.6-45.2,66.8c0.5,2.8,2.9,16.6,5.5,53.4c3,41.7,10,155.6,10,155.9h0c0,0.7-0.5,1.3-1.2,1.5
		c-1.6,0.3-3.1,0.5-4.6,0.7c1.7,4.3,6.1,15.9,7.7,25.7c1.1,6.7,1.3,19.5,1.2,29.5c0,0.1,0,0.1,0,0.2c0,7.6-0.2,13.6-0.2,14.3
		c0,0.5-0.3,1-0.8,1.3c-8.1,3.9-22.2,6.7-37.6,8.6c-20.8,2.5-44.3,3.3-59,3c-12.8-0.2-30-0.6-44.2-1.8c-14.7-1.2-26.6-3.4-27.9-7.2
		c-1-2.9-1.6-7.4-0.5-12.3c0,0,0-0.1,0-0.1c0.4-1.6,0.9-3.3,1.6-5c2.1-4.8,6.1-9.7,12.7-14c7-4.5,15.6-9,23.8-12.9h0h0l0.5-0.3
		c5.1-2.4,10-4.5,14.4-6.2c0.1,0,0.1-0.1,0.2-0.1c4-1.6,7.5-2.8,10.1-3.5c0.6-0.2,1.3-0.4,2.1-0.7c0.1,0,0.1-0.1,0.2-0.1
		c3.6-1.4,8.6-4,14-7c0.1-0.1,0.2-0.1,0.3-0.1c3.4-1.9,6.8-3.8,10.1-5.7c0-0.1,0.1-0.1,0.2-0.1c5.5-3.2,10.5-6.3,13.5-8.1
		c-3.4-0.9-5.5-1.5-5.9-1.7c-0.5-0.2-0.9-0.5-1-1.1c-0.1-0.5-36.7-168.8-41.2-196.8c-1.9-12.5,0.5-29.7,5-46.6
		c5.6-21.5,14.4-42.5,21.1-52.6c10.9-16.6,51-102.5,58.5-118.6c0.8-1.6,1-2.1,1.1-2.4c1.9-4,4.4-15.6,5.2-19.3
		c-7.3-2.7-11.6-4.6-11.6-4.7l0,0h0c-0.7-0.3-1-1.1-0.7-1.8c4.1-9.2,6.3-38,5.8-67.8c-0.5-26.3-3-53.4-8.2-68.3
		c-6.1-17.6-15.4-57.5-22.5-90c-40.4-13.7-86.1-36.2-86.2-36.2l0,0c-0.3-0.2-0.6-0.5-0.7-0.8c0,0-1.9-5.9-1.3-18.1
		c-16.2-6.6-37-15.7-54.7-25.1c-13.5-7.1-25.2-14.4-31.7-20.7c-7.9-7.8-21.9-25.6-34.5-43.2c-11.5-16.2-21.8-32.4-24.9-40.5
		c-3.7-9.7-14.2-32.2-23.7-50.1c-6.8-12.8-13-23.3-15.7-24.7c-4.8-2.7-8.2-5.3-9.9-6.8c-1.5,2.4-3.4,4.6-5.4,6.4
		c-3.9,3.6-8.4,6.2-12,7.8c-0.1,0.9-0.3,2.6-0.7,4.5l0,0c-0.6,3-1.6,6.6-3.2,9.6c-3.2,5.9-79.4,126.3-79.7,126.8l0,0
		c0,0-3.5,5.7-11.5,12.7c0.1,0.5,0.1,1,0.1,1.5c0,4.4-1.8,8.4-4.7,11.3c-2.9,2.9-6.9,4.7-11.3,4.7c-2.9,0-5.6-0.8-7.9-2.1
		c-1,0.5-2.1,1-3.2,1.4c-1.3,0.6-2.7,1.1-4,1.6l0,0l-1.2,0.5c0,0-0.1,0-0.1,0.1L965,618.2c-0.6,10.4-1.4,15.3-1.4,15.3
		c-0.1,0.6-0.6,1-1.1,1.1v0c-0.1,0-53.1,12.2-82.7,24.3c-8.2,33.3-19.3,76-25.1,91c-9.9,25.6-5.2,129.1-5.2,129.4
		c0,0.7-0.4,1.2-0.9,1.4l0,0c-0.1,0-3.9,1.4-10.9,3.2c-0.4,4.2,1.1,12.4,1.3,13.7c2.1,4.7,59,134.2,77.3,179
		c18.4,45.2,1.3,82.6,0.6,84.3c-5.8,17.8-55.9,176.1-58,178.6c0,0-0.4,0.4-1.8,1l-0.1,4.6c7.6,4,70.8,37.3,78,39.8
		c7.8,2.8,21,11.8,21.6,12.2c0.2,0.1,0.3,0.3,0.5,0.5c9.9,18.5-9.7,21.9-10.8,22c-0.1,0-0.2,0-0.3,0l-128-4.1
		c-13.1-0.2-21.8-2.8-26.8-7.9c-5-5.2-6.1-12.7-3.8-22.5c3.8-16.6,13.8-44,15.9-49.7c-2.2-1.4-3.3-2.4-3.3-2.4l0,0
		c-0.3-0.3-0.5-0.8-0.4-1.2l36.1-199.6c-0.9-1.3-3-4.9-3-8.6c0-3.6,2.8-7.4,4.2-9.1l-95.7-143.8c-11.8,23.5-56.7,113-75.1,146.6
		c-20.8,38.2-61.8,60.5-64,61.7l-154.3,104.1c-0.3,0.2-0.8,0.3-1.2,0.2c-2.3-0.9-4.5-1.9-6.5-3c-15.8,27.7-26.3,83.9-27.6,90.8
		c2.8,2.8,15.8,16.3,18.1,28c0.1,0.2,0.1,0.4,0.1,0.6v0.1c0.4,2.6,0.3,5.1-0.5,7.3c-2.1,5.5-11.2,8-22.3,8.9
		c-17.6,1.4-40.5-1.3-46.6-2.8c-10.6-2.6-14.8-31.3-14.9-31.4h0c0-0.1,0-0.2,0-0.3c0-0.3,9.4-89.8,12.3-108.9
		c1.5-9.9,4.8-16.3,9.2-20.6c4.4-4.3,9.9-6.4,15.7-7.6c9.8-2.1,29.9-7.6,34.7-8.9c-0.1-4.5,0.1-7.6,0.2-8c0-0.3,0.2-0.7,0.4-0.9
		c0.1-0.1,39.1-38,81.1-77.1c38.8-36.1,66.1-51,70.3-53.1c0.3-1.4,1.2-4.8,1.9-6.8c0.9-2.8,6.4-3.8,8.7-4.1
		c1.4-6.2,9.4-40.9,20.1-76.2c11.1-36.6,28.2-132.9,30-143.4c-2.4-1.3-4.8-2.7-7.2-4.1c-0.6-0.3-0.8-1-0.7-1.6
		c0.5-2.1,22.4-97.2,29.4-129.3c2.3-10.7,5-21.6,7.5-31.8c3-12.4,5.8-23.8,7.6-33.2l-38.1,19.7c-0.3,0.2-0.6,0.2-0.8,0.2
		c-0.6-0.1-1-0.5-1.2-1l-3.7-10.8l-58.7,26.6c-0.7,0.3-1.5,0-1.8-0.7l-0.5-1.1l-3.6,2.5c1,15.7-7.1,30.8-15,45.6
		c-2.1,4-4.3,8.1-6.2,12.1c-8.6,17.8-21.2,62-22.4,66.2c0.1,0.7,0.5,2.5,0.9,5.1c2.6,2.6,19.9,20.4,24.9,27.9c0,0.1,0.1,0.1,0.1,0.2
		c0.3,0.4,0.5,0.8,0.7,1.1c2.2,4.2,4,17.7,3.4,27.6c-0.2,2.8-0.5,5.4-1.1,7.4c-0.7,2.3-1.7,3.9-3.1,4.7c-0.6,0.3-1.3,0.5-2,0.4
		c-3.7-0.2-6.9-4.5-9.2-9.9c-2.7-6.4-4.4-14.7-4.4-19.4l-8.4-2.9c-0.1,0.9-0.3,1.9-0.4,2.8c-2.1,13.5,2.2,31.9,5.4,45.8
		c2.2,9.5,4,17,2.9,20c-2,5.7-7.3,5.4-10.1,4.8c-0.1,2.5-0.8,6.5-4.8,8.2c-4.9,2.1-10.4-4.6-12.2-6.9c-8.4,1.4-14.9-6.7-16.8-9.3
		c-2.8,0.4-4.9-0.2-7.1-1.9c-2.2-1.8-4.3-4.7-7.1-9c-2.7-4-4.7-12-6-20.9c-0.6-3.8-1-7.8-1.2-11.8c0,0,0-0.1,0-0.1
		c-0.5-6.8-0.6-13.3-0.2-18.1c1-13.5,12.3-45.8,13.4-48.8c-0.1-3.9-0.9-51.3,5.6-84.5c6.7-33.9,20.7-60.7,21.3-61.8
		c0.3-0.8,3.2-7.4,8.3-15.2c-0.8-1.9-1.3-4-1.3-6.3c0-4.5,1.8-8.5,4.7-11.4c2.9-2.9,6.9-4.7,11.4-4.7c2.1,0,4,0.4,5.8,1.1
		c1-0.7,2.1-1.3,3.2-1.9c0.8-0.5,1.7-0.8,2.6-1.3l-0.2-0.4c-0.3-0.7-0.1-1.4,0.6-1.8l61.1-35.8l0.1-9.2c0-0.5,0.2-0.9,0.7-1.2
		c0,0,0.1,0,0.1,0c1.5-0.8,82.4-46,102-46.6c18.4-0.6,61,1.3,65.5,1.5c13.5-7.7,13.8-41.5,13.7-46.3c-4.6-4.5-7.6-7.8-8.5-8.9
		c-8.6-1.2-16.2-4.3-22.7-8.7c-1-0.7-2-1.4-2.9-2.1c0,0-0.1,0-0.1-0.1c-6.9-5.4-12.3-12.5-15.9-20.4c-4-9-5.6-19.2-4.2-29.5
		c0.7-5,2.1-10.1,4.3-15.1c0-0.1,0-0.1,0.1-0.2c1.3-3,3-6,4.9-8.9c0.4-31.8,15.7-47.1,16.8-48.2c0,0,0.1-0.1,0.1-0.1
		c5-4.4,10.4-8.3,16.1-11.7c0.1,0,0.1-0.1,0.2-0.1c17-10.1,36.5-15.4,55.9-15.5c20.3,0,40.5,5.8,57.7,18.2c0.1,0,0.1,0.1,0.2,0.1
		c3.6,2.6,7.1,5.6,10.5,8.8c6.9,6.7,12.1,14.9,16,24.1c0,0.1,0.1,0.1,0.1,0.2c5.4,12.8,8.1,27.5,9,42.6c2.1,35.9-6.6,74.1-15.7,93.7
		C884.7,548.4,854.5,540.8,852.6,540.3L852.6,540.3z M730.7,413.2c-2,4.6-3.3,9.3-3.9,14c-1.3,9.7,0.2,19.4,4,27.9
		c3.3,7.5,8.4,14.1,14.8,19.2c5.8,0.9,10.5,0.3,14.2-1.2c3.3-1.5,5.9-3.8,7.7-6.7c1.9-3,3.1-6.6,3.7-10.7
		c1.8-11.4-1.1-25.7-5.7-36.5C756.8,399,733.9,411.3,730.7,413.2L730.7,413.2z M735.7,404.1c-1.1,1.6-2.1,3.2-3,4.9
		c8.1-3.8,27-10,35.3,9.1c4.8,11.2,7.8,26.1,5.9,38c-0.7,4.4-2,8.4-4.1,11.7c-2.1,3.4-5.1,6.1-9,7.8c-3,1.3-6.6,2-10.8,1.9
		c5.9,3.7,12.7,6.3,20.2,7.4c1-0.7,2-1.4,2.9-2.2c10.1-8.4,14.4-22,14.6-36c0.2-14.1-3.6-28.5-9.7-38c-0.9-1.4-1.8-2.6-2.7-3.8
		C761.7,388.2,738.2,402.5,735.7,404.1L735.7,404.1z M878.3,347.2c-16.6-11.9-36.2-17.4-55.8-17.4c-16.9,0.1-33.8,4.2-49,12
		c14.6-0.6,49.7,1.9,63.4,36.5c16.1-2.2,34.2-2.3,47.7-2L878.3,347.2L878.3,347.2z M903.5,377.4c-3.7-8.1-8.4-15.3-14.5-21.2
		c-2.3-2.3-4.8-4.4-7.3-6.4l5.8,26.8C894.8,376.8,900.5,377.2,903.5,377.4L903.5,377.4z M898,513.2c8.9-19.5,17.3-56.8,15.2-92
		c-0.8-14.5-3.4-28.7-8.5-41c-2.3-0.2-9.1-0.7-18.3-0.9c-0.1,0-0.1,0-0.2,0c-16.6-0.5-40.8-0.3-59.5,3.7
		c-28.8,6.1-30.8,13.4-30.9,14.2l6.4,81.4l41,39.3C847.1,518.7,877.4,523.8,898,513.2L898,513.2z M772.7,486.6
		c1.4,1.5,4.1,4.5,7.9,8.3c0.1,0.1,0.2,0.1,0.2,0.2c11.8,11.6,33.7,30.6,57.9,39c0,0,0.1,0,0.1,0c4.7,1.6,9.5,2.8,14.3,3.5
		c0.1,0,0.2,0,0.3,0.1c1.6,0.4,27.6,7,42.6-20.4c-22.6,9.5-53.5,3.4-53.6,3.4c-0.3-0.1-0.5-0.2-0.7-0.4l-41.7-40
		c-0.3-0.2-0.5-0.6-0.5-0.9l-6.4-82.1c0-0.1,0-0.1,0-0.2c0,0,0.4-9.9,33.1-16.9c2.5-0.5,5.2-1,7.9-1.4
		c-16.1-39.8-62.6-34.2-66.4-33.7c-5.5,3.3-10.7,7.1-15.6,11.3l0,0c-1,0.9-14.9,14.8-15.9,44.1c6.8-3.8,28-13.7,41.4,2.5
		c1,1.3,2,2.6,2.9,4.1c6.3,10,10.3,24.9,10.1,39.6c-0.2,14.7-4.8,29.2-15.6,38.2C774.2,485.5,773.5,486,772.7,486.6L772.7,486.6z
		 M1532.8,453.9c3.5,0,6.2-5.3,6.2-11.9c0-6.6-2.8-11.9-6.2-11.9c-3.4,0-6.2,5.3-6.2,11.9C1526.6,448.6,1529.4,453.9,1532.8,453.9
		L1532.8,453.9z M1482.1,441.6c0-6-2.8-10.8-6.3-10.8c-3.4,0-6.3,4.8-6.3,10.8c0,6,2.8,10.8,6.3,10.8
		C1479.3,452.4,1482.1,447.6,1482.1,441.6L1482.1,441.6z M1463.3,416.1c0,0,15-4.7,19.8-2.1c4.9,2.6,7.6,0.9,7.6-2.6
		c0-3.5-9.3-7.7-15.9-6.8C1468.2,405.5,1462.4,411.5,1463.3,416.1L1463.3,416.1z M1523.2,406.1c0,0-4,5.2-0.2,7.4
		c3.8,2.2,20.7-1.2,25.3,2.4c4.6,3.6,8.2,2.4,8.3,1.3C1556.7,416.1,1550.4,400.9,1523.2,406.1L1523.2,406.1z M1493.2,429.5
		c-0.2-0.7,0.2-1.5,0.9-1.8c0.7-0.2,1.5,0.2,1.8,0.9c0,0.1,5.9,17.3-2.4,25.5c0,0,0,0.1-0.1,0.1l-0.6,0.6c-2.8,2.8-5.8,5.8-7.6,8.9
		c-2.8,4.8-2.5,10.1,7.1,15.6c0.7,0.4,0.9,1.2,0.5,1.9c-0.4,0.7-1.2,0.9-1.9,0.5c-11.4-6.6-11.6-13.3-8.1-19.4c2-3.4,5.1-6.6,8-9.5
		l0.6-0.6c0,0,0,0,0.1-0.1C1498.5,445.1,1493.3,429.5,1493.2,429.5L1493.2,429.5z"/>
	<path class="st15" d="M463.8,617.1c0,0-19.9,17.5-25.8,34.5c-6,17.1-7.7,26.6-7.7,26.6c0,0,0.3-27.4,7.3-38.1
		C444.6,629.5,458.4,617.1,463.8,617.1L463.8,617.1z M1882.3,617.9c0,0,14,12.1,18.2,24c4.2,11.9,5.5,18.5,5.5,18.5
		c0,0-0.4-19-5.3-26.5C1895.8,626.5,1886.1,617.9,1882.3,617.9L1882.3,617.9z M1840.1,608.8c0,0,27.8,23,40.1,45.5
		c12.3,22.5,17.5,35,17.5,35c0,0-9.7-36-21-50.1C1865.4,625,1846,608.8,1840.1,608.8L1840.1,608.8z M1118.1,318.2
		c0,0-52.3-5.7-64.6-1.1c-12.3,4.7,36.4,4.7,36.4,4.7C1089.8,321.9,1124.4,320.4,1118.1,318.2L1118.1,318.2z M1127.2,263.9
		c0,0-44.4-46.7-59.6-52c-15.2-5.4,30.2,33.1,30.2,33.1S1131.4,270.8,1127.2,263.9L1127.2,263.9z M1185.1,226.2
		c0,0-10.9-68.2-5.6-84.7c5.3-16.5,8.5,47.3,8.5,47.3C1188.1,188.8,1188.4,234.2,1185.1,226.2L1185.1,226.2z M1249.4,258.1
		c0,0,36.3-38.1,48.7-42.6c12.4-4.4-24.7,27.1-24.7,27.1S1245.9,263.8,1249.4,258.1L1249.4,258.1z M1258.5,312.3
		c0,0,52.3-5.7,64.7-1c12.3,4.7-36.4,4.7-36.4,4.7C1286.9,315.9,1252.3,314.4,1258.5,312.3L1258.5,312.3z M1214.4,517.2
		c0,0,12.9,87.9,28.2,107c0,0,4.4-0.3,3.3-6.7c-1.2-6.5-26.2-87.7-27.3-93.5C1217.4,518.1,1215.2,513.7,1214.4,517.2L1214.4,517.2z
		 M1186.2,477.8c0,0,9.4,191.1,24.1,207c0,0,2.1,0.6,0.6-12c-1.5-12.7-16.5-119.4-18.5-146.5c-2-27.1-4.1-47.9-4.1-47.9
		C1188.3,478.4,1188.3,474.7,1186.2,477.8L1186.2,477.8z M989.6,428.9c0,0,17-22.2,34.3-30.9c17.3-8.7,32.2-14.3,33.4-12.3
		c1.2,1.9-20.6,11.5-35.4,20.9c-14.8,9.4-31,24.6-31,24.6S988.5,431.6,989.6,428.9L989.6,428.9z M1029,439.4c0,0,13.5-20,25.1-30.2
		c11.6-10.1,29.6-16.9,29.6-16.9c0,0,2.5,1.8,1.2,3.2c-1.3,1.5-16.9,10.7-30.4,21.9c-13.5,11.2-23.9,24.1-23.9,24.1
		C1030.4,441.6,1027.3,441.1,1029,439.4L1029,439.4z M513.6,597.3c0,0-36.5,33-50.9,65.4c-14.4,32.4-19.9,50.3-19.9,50.3
		c0,0,8.6-51.8,22.7-72.1C479.6,620.5,505.1,597.3,513.6,597.3L513.6,597.3z"/>
</g>
</svg>
