<svg id="Layer_1" data-name="Layer 1" xmlns="http://www.w3.org/2000/svg" viewBox="0 0 24 24"><path d="M10.5,5a3.5,3.5,0,0,0-7,0V7a3.5,3.5,0,0,0,7,0Zm-1,2a2.5,2.5,0,0,1-5,0V5a2.5,2.5,0,0,1,5,0ZM17,13.5A3.50424,3.50424,0,0,0,13.5,17v2a3.5,3.5,0,0,0,7,0V17A3.50424,3.50424,0,0,0,17,13.5ZM19.5,19a2.5,2.5,0,0,1-5,0V17a2.5,2.5,0,0,1,5,0Zm1-9a.49971.49971,0,0,1-.5.5H14a.5.5,0,0,1,0-1h2.5V2.80859l-1.27637.63868a.50006.50006,0,1,1-.44726-.89454l2-1A.49973.49973,0,0,1,17.5,2V9.5H20A.49971.49971,0,0,1,20.5,10ZM6.5,21.5V14.80859l-1.27637.63868a.50006.50006,0,0,1-.44726-.89454l2-1A.49973.49973,0,0,1,7.5,14v7.5H10a.5.5,0,0,1,0,1H4a.5.5,0,0,1,0-1Z"/></svg>