<svg id="Layer_1" data-name="Layer 1" xmlns="http://www.w3.org/2000/svg" viewBox="0 0 24 24"><path d="M1.5,12a.49971.49971,0,0,1,.5-.5A2.50263,2.50263,0,0,0,4.5,9V6A2.50263,2.50263,0,0,1,7,3.5H9a.5.5,0,0,1,0,1H7A1.50164,1.50164,0,0,0,5.5,6V9a3.50082,3.50082,0,0,1-1.69922,3A3.50082,3.50082,0,0,1,5.5,15v3A1.50164,1.50164,0,0,0,7,19.5H9a.5.5,0,0,1,0,1H7A2.50263,2.50263,0,0,1,4.5,18V15A2.50263,2.50263,0,0,0,2,12.5.49971.49971,0,0,1,1.5,12ZM22,11.5A2.50263,2.50263,0,0,1,19.5,9V6A2.50263,2.50263,0,0,0,17,3.5H15a.5.5,0,0,0,0,1h2A1.50164,1.50164,0,0,1,18.5,6V9a3.50082,3.50082,0,0,0,1.69922,3A3.50082,3.50082,0,0,0,18.5,15v3A1.50164,1.50164,0,0,1,17,19.5H15a.5.5,0,0,0,0,1h2A2.50263,2.50263,0,0,0,19.5,18V15A2.50263,2.50263,0,0,1,22,12.5a.5.5,0,0,0,0-1Z"/></svg>