<svg id="Layer_1" data-name="Layer 1" xmlns="http://www.w3.org/2000/svg" viewBox="0 0 24 24"><path d="M9.14648,6.64648,11.293,4.5,9.14648,2.35352a.5.5,0,0,1,.707-.707L12,3.793l2.14648-2.14649a.5.5,0,0,1,.707.707L12.707,4.5l2.14649,2.14648a.5.5,0,1,1-.707.707L12,5.207,9.85352,7.35352a.5.5,0,0,1-.707-.707ZM17.5,15.55054V14A1.50164,1.50164,0,0,0,16,12.5H8A1.50164,1.50164,0,0,0,6.5,14v1.55054a3.5,3.5,0,1,1-1,0V14A2.50263,2.50263,0,0,1,8,11.5h8A2.50231,2.50231,0,0,1,18.5,14v1.55054a3.5,3.5,0,1,1-1,0ZM6,16.5A2.5,2.5,0,1,0,8.5,19,2.50263,2.50263,0,0,0,6,16.5ZM15.5,19A2.5,2.5,0,1,0,18,16.5,2.50231,2.50231,0,0,0,15.5,19Z"/></svg>