<svg id="Layer_1" data-name="Layer 1" xmlns="http://www.w3.org/2000/svg" viewBox="0 0 24 24"><path d="M5.5,8.44946V10A2.50263,2.50263,0,0,0,8,12.5h3.5v3.05054a3.5,3.5,0,1,0,1,0V12.5H16A2.50263,2.50263,0,0,0,18.5,10V8.44946a3.5,3.5,0,1,0-1,0V10A1.50164,1.50164,0,0,1,16,11.5H8A1.50164,1.50164,0,0,1,6.5,10V8.44946a3.5,3.5,0,1,0-1,0ZM15.5,5A2.5,2.5,0,1,1,18,7.5,2.50263,2.50263,0,0,1,15.5,5Zm-1,14A2.5,2.5,0,1,1,12,16.5,2.50263,2.50263,0,0,1,14.5,19ZM6,2.5A2.5,2.5,0,1,1,3.5,5,2.50263,2.50263,0,0,1,6,2.5Z"/></svg>