<svg id="Layer_1" data-name="Layer 1" xmlns="http://www.w3.org/2000/svg" viewBox="0 0 24 24"><path d="M5.5,15.55054a3.5,3.5,0,1,0,1,0V14A1.50164,1.50164,0,0,1,8,12.5h8A2.50263,2.50263,0,0,0,18.5,10V8.44946a3.5,3.5,0,1,0-1,0V10A1.50164,1.50164,0,0,1,16,11.5H8a2.47588,2.47588,0,0,0-1.5.51276V8.44946a3.5,3.5,0,1,0-1,0v7.10108ZM15.5,5A2.5,2.5,0,1,1,18,7.5,2.50263,2.50263,0,0,1,15.5,5ZM3.5,5A2.5,2.5,0,1,1,6,7.5,2.50294,2.50294,0,0,1,3.5,5ZM6,16.5A2.5,2.5,0,1,1,3.5,19,2.50294,2.50294,0,0,1,6,16.5Z"/></svg>