<svg id="Layer_1" data-name="Layer 1" xmlns="http://www.w3.org/2000/svg" viewBox="0 0 24 24"><path d="M4.5,9.44946V16A2.50294,2.50294,0,0,0,7,18.5H9.793L7.64648,20.64648a.5.5,0,1,0,.707.707l3-3a.49983.49983,0,0,0,0-.707l-3-3a.5.5,0,0,0-.707.707L9.793,17.5H7A1.50164,1.50164,0,0,1,5.5,16V9.44946a3.5,3.5,0,1,0-1,0ZM5,3.5A2.5,2.5,0,1,1,2.5,6,2.50294,2.50294,0,0,1,5,3.5ZM19.5,14.55054V8A2.50294,2.50294,0,0,0,17,5.5H14.207l2.14649-2.14648a.5.5,0,0,0-.707-.707l-3,3a.49983.49983,0,0,0,0,.707l3,3a.5.5,0,0,0,.707-.707L14.207,6.5H17A1.50164,1.50164,0,0,1,18.5,8v6.55054a3.5,3.5,0,1,0,1,0ZM19,20.5A2.5,2.5,0,1,1,21.5,18,2.50294,2.50294,0,0,1,19,20.5Z"/></svg>