<svg id="Layer_1" data-name="Layer 1" xmlns="http://www.w3.org/2000/svg" viewBox="0 0 24 24"><path d="M12.5,2V4.5H15a.5.5,0,0,1,0,1H12.5V8a.5.5,0,0,1-1,0V5.5H9a.5.5,0,0,1,0-1h2.5V2a.5.5,0,0,1,1,0Zm5,13.55054V14A1.50164,1.50164,0,0,0,16,12.5H8A1.50164,1.50164,0,0,0,6.5,14v1.55054a3.5,3.5,0,1,1-1,0V14A2.50263,2.50263,0,0,1,8,11.5h8A2.50263,2.50263,0,0,1,18.5,14v1.55054a3.5,3.5,0,1,1-1,0ZM6,16.5A2.5,2.5,0,1,0,8.5,19,2.50263,2.50263,0,0,0,6,16.5ZM15.5,19A2.5,2.5,0,1,0,18,16.5,2.50263,2.50263,0,0,0,15.5,19Z"/></svg>