<svg id="Layer_1" data-name="Layer 1" xmlns="http://www.w3.org/2000/svg" viewBox="0 0 24 24"><path d="M17.18268,15a2,2,0,1,0,2,2A2.0026,2.0026,0,0,0,17.18268,15Zm0,3a1,1,0,1,1,1-1A1.00067,1.00067,0,0,1,17.18268,18Zm5.2832-2.10645a.9907.9907,0,0,0-.10058-.75878l-.97559-1.69141a1.00176,1.00176,0,0,0-1.36621-.36524l-.84082.44629V12.5a1.00067,1.00067,0,0,0-1-1h-2a1.00067,1.00067,0,0,0-1,1l-.00977,1.05762-.831-.48047a1.00208,1.00208,0,0,0-1.36524.36719l-.97754,1.6914a1.00209,1.00209,0,0,0,.36719,1.36524l.81836.52539-.81933.47265a1.00238,1.00238,0,0,0-.36524,1.36621l.97559,1.68946a1.00086,1.00086,0,0,0,1.36718.36719l.83985-.47266V21.5a1.00067,1.00067,0,0,0,1,1h2a1.00067,1.00067,0,0,0,1-1l.00781-1.04395.0127-.00781.82129.47461a1.0049,1.0049,0,0,0,1.36523-.36719l.97559-1.68945A1.00106,1.00106,0,0,0,22.001,17.499h-.001l-.81055-.53027L22.001,16.501A.99369.99369,0,0,0,22.46588,15.89355Zm-1.77637.21a1.03713,1.03713,0,0,0,0,1.793l.81055.46778-.97656,1.69238-.83008-.47949a.97048.97048,0,0,0-.97168-.00391l-.03613.01953a.98977.98977,0,0,0-.50293.85645V21.5h-2V20.44922a.99144.99144,0,0,0-.51172-.86133,1.02984,1.02984,0,0,0-.51465-.13965.95855.95855,0,0,0-.4834.12891l-.831.47851-.97559-1.6914.81641-.47168a1.04583,1.04583,0,0,0,.002-1.78418l-.81933-.47363.97753-1.69141.82813.47852a1.0012,1.0012,0,0,0,1.00684-.01368.988.988,0,0,0,.50488-.85742V12.5h2v1.05078a.98869.98869,0,0,0,.5039.85645l.00879.00488a.98933.98933,0,0,0,.998.01074l.83106-.47851.97558,1.6914ZM10.00006,7.3125a2.99121,2.99121,0,1,0,2.99121,2.99121A2.99453,2.99453,0,0,0,10.00006,7.3125Zm0,4.98242a1.99121,1.99121,0,1,1,1.99121-1.99121A1.99385,1.99385,0,0,1,10.00006,12.29492Zm-6.70019,3.75-1.6211-2.80859A1.33207,1.33207,0,0,1,2.1651,11.419l1.36035-.78516a.36534.36534,0,0,0,.16309-.3252.37132.37132,0,0,0-.16309-.335L2.1651,9.18848a1.33023,1.33023,0,0,1-.48633-1.81641l1.6211-2.80859a1.33239,1.33239,0,0,1,1.8164-.48828l1.37988.79687a.33169.33169,0,0,0,.32715-.01758l.01075-.00683a.32248.32248,0,0,0,.1748-.27149V2.83008A1.3316,1.3316,0,0,1,8.33893,1.5h3.32226a1.3316,1.3316,0,0,1,1.33008,1.33008V4.57617a.32465.32465,0,0,0,.17383.27149c.01367.00781.02734.01562.03906.02343a.31738.31738,0,0,0,.29883.001l1.37988-.7959a1.33445,1.33445,0,0,1,1.81739.48731l1.62109,2.80859A1.33023,1.33023,0,0,1,17.835,9.18848l-1.3457.77636c-.01477.00855-.02167.02485-.035.03516H15.35278a1.35908,1.35908,0,0,1,.63654-.90039l1.3457-.77637a.33165.33165,0,0,0,.1211-.45117L15.835,5.06348a.33027.33027,0,0,0-.45312-.1211L14.004,5.7373a1.36554,1.36554,0,0,1-2.0127-1.16113V2.83008A.33093.33093,0,0,0,11.66119,2.5H8.33893a.33093.33093,0,0,0-.33008.33008V4.57617a1.3104,1.3104,0,0,1-.67676,1.13867c-.01465.00879-.03027.01661-.0459.02442a1.31994,1.31994,0,0,1-1.291-.002L4.61725,4.94141a.334.334,0,0,0-.45215.12207L2.544,7.87207a.33164.33164,0,0,0,.12109.45117l1.36035.78516a1.40889,1.40889,0,0,1,0,2.39062l-1.36035.78516a.33256.33256,0,0,0-.12109.45215L4.1651,15.54492a.33392.33392,0,0,0,.45215.1211l1.3789-.7959a1.30045,1.30045,0,0,1,1.32422.0166c.01368.00781.02735.01562.03907.02344a1.30977,1.30977,0,0,1,.64941,1.12109v1.74609a.33093.33093,0,0,0,.33008.33008H10v1H8.33893a1.3316,1.3316,0,0,1-1.33008-1.33008V16.03125a.32155.32155,0,0,0-.17578-.27148.33423.33423,0,0,0-.33594-.02442l-1.37988.7959A1.33037,1.33037,0,0,1,3.29987,16.04492Z"/></svg>