<svg id="Layer_1" data-name="Layer 1" xmlns="http://www.w3.org/2000/svg" viewBox="0 0 24 24"><path d="M15.93945,2.23242A2.48192,2.48192,0,0,0,14.17188,1.5H6A2.50263,2.50263,0,0,0,3.5,4V20A2.50263,2.50263,0,0,0,6,22.5H18A2.50231,2.50231,0,0,0,20.5,20V7.82812a2.48192,2.48192,0,0,0-.73242-1.76757ZM14.5,2.5401a1.50868,1.50868,0,0,1,.73242.39935l3.82813,3.82813A1.50868,1.50868,0,0,1,19.4599,7.5H16A1.50164,1.50164,0,0,1,14.5,6ZM19.5,20A1.50164,1.50164,0,0,1,18,21.5H6A1.50164,1.50164,0,0,1,4.5,20V4A1.50164,1.50164,0,0,1,6,2.5h7.5V6A2.50231,2.50231,0,0,0,16,8.5h3.5Zm-4.14648-8.35352,2,2a.49983.49983,0,0,1,0,.707l-2,2a.5.5,0,0,1-.707-.707L16.293,14l-1.64649-1.64648a.5.5,0,0,1,.707-.707Zm-6,.707L7.707,14l1.64649,1.64648a.5.5,0,1,1-.707.707l-2-2a.49983.49983,0,0,1,0-.707l2-2a.5.5,0,0,1,.707.707Zm4.12109-1.19532-2.00049,6a.49982.49982,0,1,1-.94824-.3164l2-6a.5.5,0,1,1,.94873.3164Z"/></svg>