<svg id="Layer_1" data-name="Layer 1" xmlns="http://www.w3.org/2000/svg" viewBox="0 0 24 24"><path d="M11,21.5h2A1.50164,1.50164,0,0,0,14.5,20V13.15527L20.25732,4.791a1.40692,1.40692,0,0,0,.07129-1.4629A1.61392,1.61392,0,0,0,18.89258,2.5H5.10742a1.61392,1.61392,0,0,0-1.436.82812,1.41053,1.41053,0,0,0,.07617,1.47022L9.5,13.15527V20A1.50164,1.50164,0,0,0,11,21.5ZM4.57568,4.23828a.41112.41112,0,0,1-.02295-.4375A.613.613,0,0,1,5.10742,3.5H18.89258a.613.613,0,0,1,.55469.30078.40688.40688,0,0,1-.01807.43018l-5.84082,8.48535A.49984.49984,0,0,0,13.5,13v7a.50034.50034,0,0,1-.5.5H11a.50034.50034,0,0,1-.5-.5V13a.49984.49984,0,0,0-.08838-.28369Z"/></svg>