<svg id="Layer_1" data-name="Layer 1" xmlns="http://www.w3.org/2000/svg" viewBox="0 0 24 24"><path d="M22.35352,11.64648a.49983.49983,0,0,1,0,.707l-4,4a.5.5,0,0,1-.707-.707L20.793,12.5h-6.3183A9.50373,9.50373,0,0,1,5,21.5a.5.5,0,0,1,0-1,8.5,8.5,0,0,0,0-17,.5.5,0,0,1,0-1,9.50373,9.50373,0,0,1,9.47467,9H20.793L17.64648,8.35352a.5.5,0,0,1,.707-.707ZM1.5,12a3.49216,3.49216,0,0,1,6.94946-.5H12a.5.5,0,0,1,0,1H8.44946A3.49216,3.49216,0,0,1,1.5,12Zm1,0A2.5,2.5,0,1,0,5,9.5,2.50263,2.50263,0,0,0,2.5,12Z"/></svg>