<svg id="Layer_1" data-name="Layer 1" xmlns="http://www.w3.org/2000/svg" viewBox="0 0 24 24"><path d="M7.88135,20.49805c.041.001.08154.002.12256.002a4.459,4.459,0,0,0,3.17822-1.31836l.707-.707a1.50122,1.50122,0,0,0,0-2.12109L11.53564,16l1.06055-1.06055a.49995.49995,0,1,0-.707-.707L10.82855,15.293,8.70709,13.17181l1.06049-1.06048a.49995.49995,0,0,0-.707-.707L8,12.46484l-.35352-.35351a1.53626,1.53626,0,0,0-2.12109,0L4.978,12.6582a4.68436,4.68436,0,0,0-.47992,6.13666L1.64648,21.64648a.5.5,0,1,0,.707.707L5.20105,19.506A4.44141,4.44141,0,0,0,7.88135,20.49805ZM5.68506,13.36523l.54785-.54687a.49924.49924,0,0,1,.70654,0l4.24268,4.24219a.50071.50071,0,0,1,0,.707l-.707.707a3.5009,3.5009,0,0,1-5.08008-.1377A3.66445,3.66445,0,0,1,5.68506,13.36523ZM21.64648,1.64648,18.79462,4.49835a4.68114,4.68114,0,0,0-6.13642.48017l-.54736.54687a1.50122,1.50122,0,0,0,0,2.12109l4.24268,4.24219a1.5018,1.5018,0,0,0,2.12109,0l.707-.707a4.4703,4.4703,0,0,0,.32422-5.98047l2.84766-2.84765a.5.5,0,0,0-.707-.707Zm-3.17187,8.82813-.707.707a.51082.51082,0,0,1-.707,0L12.81787,6.93945a.50071.50071,0,0,1,0-.707l.54736-.54687a3.84866,3.84866,0,0,1,2.71289-1.12891,3.35565,3.35565,0,0,1,2.25879.83789,3.49882,3.49882,0,0,1,.1377,5.08008Z"/></svg>