<svg id="Layer_1" data-name="Layer 1" xmlns="http://www.w3.org/2000/svg" viewBox="0 0 24 24"><path d="M12.5,17v2A2.50263,2.50263,0,0,0,15,21.5h6a.49971.49971,0,0,0,.5-.5V17A2.50263,2.50263,0,0,0,19,14.5H15A2.50263,2.50263,0,0,0,12.5,17Zm1,0A1.50164,1.50164,0,0,1,15,15.5h4A1.50164,1.50164,0,0,1,20.5,17v3.5H15A1.50164,1.50164,0,0,1,13.5,19Zm8-14a.49971.49971,0,0,0-.5-.5H17A2.50263,2.50263,0,0,0,14.5,5V7A2.50263,2.50263,0,0,0,17,9.5h2A2.50263,2.50263,0,0,0,21.5,7Zm-1,4A1.50164,1.50164,0,0,1,19,8.5H17A1.50164,1.50164,0,0,1,15.5,7V5A1.50164,1.50164,0,0,1,17,3.5h3.5ZM9,2.5H5A2.50263,2.50263,0,0,0,2.5,5v7a.5.5,0,0,0,1,0V9.5H9A2.50263,2.50263,0,0,0,11.5,7V5A2.50263,2.50263,0,0,0,9,2.5ZM10.5,7A1.50164,1.50164,0,0,1,9,8.5H3.5V5A1.50164,1.50164,0,0,1,5,3.5H9A1.50164,1.50164,0,0,1,10.5,5ZM19,19H15V17h4ZM17,5h2V7H17ZM5,5H9V7H5ZM2.5,19H7v2H2.5ZM9,19h2v2H9ZM7,15H9v2H7Zm2-4v2H7V11Zm0,2h2v2H9Zm6-2h2v2H15Zm-4,0h2v2H11Zm8,0h2v2H19ZM2.5,15H5v2H2.5Z"/></svg>