<svg id="Layer_1" data-name="Layer 1" xmlns="http://www.w3.org/2000/svg" viewBox="0 0 24 24"><path d="M17.5,15V9A2.50263,2.50263,0,0,0,15,6.5H9A2.50263,2.50263,0,0,0,6.5,9v6A2.50263,2.50263,0,0,0,9,17.5h6A2.50263,2.50263,0,0,0,17.5,15Zm-10,0V9A1.50164,1.50164,0,0,1,9,7.5h6A1.50164,1.50164,0,0,1,16.5,9v6A1.50164,1.50164,0,0,1,15,16.5H9A1.50164,1.50164,0,0,1,7.5,15ZM4,2,2,4V2ZM20,2h2V4ZM4,22H2V20Zm16,0,2-2v2ZM20,6h2V8H20Zm0,5h2v2H20Zm0,5h2v2H20ZM4,8H2V6H4Zm0,5H2V11H4ZM2,16H4v2H2Zm16,6H16V20h2Zm-7,0V20h2v2ZM8,22H6V20H8ZM18,4H16V2h2ZM13,2V4H11V2ZM6,4V2H8V4Z"/></svg>