<svg id="Layer_1" data-name="Layer 1" xmlns="http://www.w3.org/2000/svg" viewBox="0 0 24 24"><path d="M11.7002,22.3999a.499.499,0,0,0,.5996,0A20.598,20.598,0,0,0,20.5,6a.50021.50021,0,0,0-.27637-.44727l-8-4a.50056.50056,0,0,0-.44726,0l-8,4A.50021.50021,0,0,0,3.5,6,20.598,20.598,0,0,0,11.7002,22.3999ZM12,2.55908l7.49756,3.74854A19.60166,19.60166,0,0,1,12,21.37012,19.60166,19.60166,0,0,1,4.50244,6.30762Zm0,9.148L9.85352,13.85352a.5.5,0,0,1-.707-.707L11.293,11,9.14648,8.85352a.5.5,0,0,1,.707-.707L12,10.293l2.14648-2.14649a.5.5,0,0,1,.707.707L12.707,11l2.14649,2.14648a.5.5,0,1,1-.707.707Z"/></svg>