<svg id="Layer_1" data-name="Layer 1" xmlns="http://www.w3.org/2000/svg" viewBox="0 0 24 24"><path d="M11.7002,22.3999a.499.499,0,0,0,.5996,0A20.598,20.598,0,0,0,20.5,6a.5011.5011,0,0,0-.27637-.44727l-8-4a.50056.50056,0,0,0-.44726,0l-8,4A.5011.5011,0,0,0,3.5,6,20.598,20.598,0,0,0,11.7002,22.3999ZM12,2.55908l7.49707,3.74854A19.60118,19.60118,0,0,1,12,21.37012,19.60118,19.60118,0,0,1,4.50293,6.30762ZM10.64648,13.35352l-2-2a.5.5,0,0,1,.707-.707L11,12.293l3.64648-3.64649a.5.5,0,0,1,.707.707l-4,4a.49984.49984,0,0,1-.707,0Z"/></svg>