<svg id="Layer_1" data-name="Layer 1" xmlns="http://www.w3.org/2000/svg" viewBox="0 0 24 24"><path d="M19,2.5H5A2.50263,2.50263,0,0,0,2.5,5V19A2.50263,2.50263,0,0,0,5,21.5H19A2.50263,2.50263,0,0,0,21.5,19V5A2.50263,2.50263,0,0,0,19,2.5ZM8.5,20.5H5A1.50164,1.50164,0,0,1,3.5,19V5A1.50164,1.50164,0,0,1,5,3.5H8.5Zm12-1.5A1.50164,1.50164,0,0,1,19,20.5H9.5V3.5H19A1.50164,1.50164,0,0,1,20.5,5ZM5,5.5H7a.5.5,0,0,1,0,1H5a.5.5,0,0,1,0-1ZM7.5,9a.49971.49971,0,0,1-.5.5H5a.5.5,0,0,1,0-1H7A.49971.49971,0,0,1,7.5,9Zm0,3a.49971.49971,0,0,1-.5.5H5a.5.5,0,0,1,0-1H7A.49971.49971,0,0,1,7.5,12Z"/></svg>