<svg id="Layer_1" data-name="Layer 1" xmlns="http://www.w3.org/2000/svg" viewBox="0 0 24 24"><path d="M19,2.5H5A2.50263,2.50263,0,0,0,2.5,5V19A2.50263,2.50263,0,0,0,5,21.5H19A2.50263,2.50263,0,0,0,21.5,19V5A2.50263,2.50263,0,0,0,19,2.5Zm-4.5,18H5A1.50164,1.50164,0,0,1,3.5,19V5A1.50164,1.50164,0,0,1,5,3.5h9.5Zm6-1.5A1.50164,1.50164,0,0,1,19,20.5H15.5V3.5H19A1.50164,1.50164,0,0,1,20.5,5Zm-1-13a.49971.49971,0,0,1-.5.5H17a.5.5,0,0,1,0-1h2A.49971.49971,0,0,1,19.5,6Zm0,3a.49971.49971,0,0,1-.5.5H17a.5.5,0,0,1,0-1h2A.49971.49971,0,0,1,19.5,9Zm0,3a.49971.49971,0,0,1-.5.5H17a.5.5,0,0,1,0-1h2A.49971.49971,0,0,1,19.5,12Z"/></svg>