<svg id="Layer_1" data-name="Layer 1" xmlns="http://www.w3.org/2000/svg" viewBox="0 0 24 24"><path d="M2.5,5V19A2.50294,2.50294,0,0,0,5,21.5H19A2.50294,2.50294,0,0,0,21.5,19V5A2.50294,2.50294,0,0,0,19,2.5H5A2.50294,2.50294,0,0,0,2.5,5Zm5-1.5H19A1.50164,1.50164,0,0,1,20.5,5V6.5H7.5ZM3.5,5A1.50164,1.50164,0,0,1,5,3.5H6.5v3h-3Zm0,2.5h17V19A1.50164,1.50164,0,0,1,19,20.5H5A1.50164,1.50164,0,0,1,3.5,19Zm4,9.5V15a.5.5,0,0,1,1,0v2a.5.5,0,0,1-1,0Zm4,0V13a.5.5,0,0,1,1,0v4a.5.5,0,0,1-1,0Zm4,0V11a.5.5,0,0,1,1,0v6a.5.5,0,0,1-1,0Z"/></svg>