<svg id="Layer_1" data-name="Layer 1" xmlns="http://www.w3.org/2000/svg" viewBox="0 0 24 24"><path d="M2.5,5V19A2.50294,2.50294,0,0,0,5,21.5H19A2.50294,2.50294,0,0,0,21.5,19V5A2.50294,2.50294,0,0,0,19,2.5H5A2.50294,2.50294,0,0,0,2.5,5Zm18,14A1.50164,1.50164,0,0,1,19,20.5H5A1.50164,1.50164,0,0,1,3.5,19V7.5h17ZM7.5,3.5H19A1.50164,1.50164,0,0,1,20.5,5V6.5H7.5Zm-1,3h-3V5A1.50164,1.50164,0,0,1,5,3.5H6.5Zm2.14648,6.85352a.5.5,0,0,1,.707-.707L11,14.293l3.64648-3.64649a.5.5,0,0,1,.707.707l-4,4a.49984.49984,0,0,1-.707,0Z"/></svg>