<svg id="Layer_1" data-name="Layer 1" xmlns="http://www.w3.org/2000/svg" viewBox="0 0 24 24"><path d="M2.5,19A2.50263,2.50263,0,0,0,5,21.5H19A2.50263,2.50263,0,0,0,21.5,19V5A2.50263,2.50263,0,0,0,19,2.5H5A2.50263,2.50263,0,0,0,2.5,5Zm5-15.5H19A1.50164,1.50164,0,0,1,20.5,5V6.5H7.5ZM3.5,5A1.50164,1.50164,0,0,1,5,3.5H6.5v3h-3Zm0,2.5h17V19A1.50164,1.50164,0,0,1,19,20.5H5A1.50164,1.50164,0,0,1,3.5,19Zm11.14648,8.14648L16.293,14l-1.64649-1.64648a.5.5,0,0,1,.707-.707l2,2a.49983.49983,0,0,1,0,.707l-2,2a.5.5,0,0,1-.707-.707Zm-8-1.293a.49983.49983,0,0,1,0-.707l2-2a.5.5,0,0,1,.707.707L7.707,14l1.64649,1.64648a.5.5,0,1,1-.707.707Zm3.87891,2.48828,2-6a.50028.50028,0,0,1,.94922.3164l-2,6a.50028.50028,0,0,1-.94922-.3164Z"/></svg>