<svg id="Layer_1" data-name="Layer 1" xmlns="http://www.w3.org/2000/svg" viewBox="0 0 24 24"><path d="M2.5,5V15A2.50294,2.50294,0,0,0,5,17.5H15A2.50263,2.50263,0,0,0,17.5,15V5A2.50263,2.50263,0,0,0,15,2.5H5A2.50294,2.50294,0,0,0,2.5,5Zm14,10A1.50164,1.50164,0,0,1,15,16.5H5A1.50164,1.50164,0,0,1,3.5,15V7.5h13ZM7.5,3.5H15A1.50164,1.50164,0,0,1,16.5,5V6.5h-9Zm-1,3h-3V5A1.50164,1.50164,0,0,1,5,3.5H6.5ZM21.5,18A3.50424,3.50424,0,0,1,18,21.5H7A2.50294,2.50294,0,0,1,4.5,19v-.05054A3.9272,3.9272,0,0,0,5,19h.5A1.50164,1.50164,0,0,0,7,20.5H18A2.50263,2.50263,0,0,0,20.5,18V8A2.50141,2.50141,0,0,0,19,5.71179V5c0-.11908-.0249-.23126-.03516-.34772A3.49429,3.49429,0,0,1,21.5,8Z"/></svg>