<svg id="Layer_1" data-name="Layer 1" xmlns="http://www.w3.org/2000/svg" viewBox="0 0 24 24"><path d="M19,2.5H5A2.50231,2.50231,0,0,0,2.5,5V19A2.50231,2.50231,0,0,0,5,21.5H19A2.50231,2.50231,0,0,0,21.5,19V5A2.50231,2.50231,0,0,0,19,2.5ZM20.5,19A1.50164,1.50164,0,0,1,19,20.5H5A1.50164,1.50164,0,0,1,3.5,19V9.5h17Zm0-10.5H3.5V5A1.50164,1.50164,0,0,1,5,3.5H19A1.50164,1.50164,0,0,1,20.5,5ZM19,6a1,1,0,1,1-1-1A1,1,0,0,1,19,6ZM16,6a1,1,0,1,1-1-1A1,1,0,0,1,16,6ZM13,6a1,1,0,1,1-1-1A1,1,0,0,1,13,6Z"/></svg>