<?xml version="1.0" encoding="UTF-8"?>
<!DOCTYPE svg PUBLIC "-//W3C//DTD SVG 1.1//EN" "http://www.w3.org/Graphics/SVG/1.1/DTD/svg11.dtd">
<!-- Creator: CorelDRAW -->
<svg xmlns="http://www.w3.org/2000/svg" xml:space="preserve" width="6.82666in" height="6.82666in" style="shape-rendering:geometricPrecision; text-rendering:geometricPrecision; image-rendering:optimizeQuality; fill-rule:evenodd; clip-rule:evenodd"
viewBox="0 0 6.82666 6.82666"
 xmlns:xlink="http://www.w3.org/1999/xlink">
 <defs>
  <style type="text/css">
   <![CDATA[
    .fil0 {fill:none}
    .fil8 {fill:#0D47A1}
    .fil7 {fill:#1565C0}
    .fil1 {fill:#181818}
    .fil9 {fill:#1976D2}
    .fil12 {fill:#90CAF9}
    .fil10 {fill:#A31F3F}
    .fil2 {fill:#D81B60}
    .fil5 {fill:#F06292}
    .fil4 {fill:#F6C4AA}
    .fil6 {fill:#FF3869}
    .fil3 {fill:#FFDDCC}
    .fil11 {fill:white}
   ]]>
  </style>
 </defs>
 <g id="Layer_x0020_1">
  <metadata id="CorelCorpID_0Corel-Layer"/>
  <rect class="fil0" x="0.0364567" y="-0.00520866" width="6.82666" height="6.82666"/>
  <path class="fil1" d="M2.98919 1.39153c0.120035,-0.193122 1.06765,-0.488087 1.44255,0.298598 0.390315,0.686402 0.193724,0.926843 0.409059,1.1691 0.215299,0.242252 0.187122,0.840142 0.0375118,0.888858 -0.14961,0.0487559 -0.0895472,0.241008 -0.0165866,0.32363 0.311425,0.352665 -0.31348,0.905209 -1.5158,0.899142 -2.08973,-0.0106063 -1.09159,-0.933709 -1.32688,-1.17159 -0.117713,-0.119 -0.238681,-0.628701 0.0170236,-0.992098 0.255752,-0.363362 0.0902323,-1.68922 0.953126,-1.41563z"/>
  <path class="fil2" d="M3.83898 4.19281c-0.00872441,0.013752 -0.86928,0.0274646 -0.878776,0.0410039 -0.270244,0.385587 -0.854232,0.554504 -1.31854,0.658327 -0.462067,0.103311 -0.479949,0.690272 -0.480638,1.08119l4.5046 0c-0.000685039,-0.390913 -0.00928346,-0.975764 -0.480689,-1.08119 -0.471441,-0.105409 -1.08956,-0.296213 -1.34596,-0.699331z"/>
  <path class="fil3" d="M3.86465 3.3694l0 1.10573c-0.270543,0.474661 -0.676508,0.46263 -0.902638,0l0 -1.10573c0,-0.597016 0.902638,-0.597016 0.902638,0z"/>
  <path class="fil4" d="M3.86465 3.3694l0 0.740311c-0.170799,0.133614 -0.335421,0.208461 -0.451323,0.208461 -0.115906,0 -0.280516,-0.0748465 -0.451315,-0.208421l0 -0.74035c0,-0.597016 0.902638,-0.597016 0.902638,0z"/>
  <path class="fil3" d="M3.41333 4.13426c-0.293843,0 -0.914594,-0.46198 -1.10651,-1.12361 -0.19376,-0.668134 0.17115,-1.6264 1.10651,-1.6264 0.935319,0 1.30031,0.958268 1.1065,1.6264 -0.191953,0.661634 -0.812665,1.12361 -1.1065,1.12361z"/>
  <path class="fil5" d="M3.05939 3.46816c0.149736,-0.144969 0.2665,-0.036252 0.353941,-0.036252 0.087437,0 0.204217,-0.108717 0.353949,0.036252 -0.080437,0.382303 -0.601181,0.394047 -0.70789,0z"/>
  <path class="fil3" d="M4.66063 2.85313c-0.0945394,-0.0405827 -0.228067,0.0590236 -0.298272,0.222437 -0.0702047,0.163496 -0.0505157,0.328882 0.0440118,0.369461 0.0945394,0.040622 0.228079,-0.0589882 0.298283,-0.222437 0.0701929,-0.163449 0.0505157,-0.328843 -0.0440236,-0.369461z"/>
  <path class="fil3" d="M2.16509 2.85313c0.0945394,-0.0405827 0.228063,0.0589764 0.298268,0.222437 0.0702087,0.163496 0.0505157,0.328882 -0.0440236,0.3695 -0.0945394,0.0405827 -0.228063,-0.0589764 -0.298272,-0.222476 -0.0702047,-0.163449 -0.0504646,-0.328843 0.0440276,-0.369461z"/>
  <path class="fil1" d="M3.41507 1.93756c0.012815,0.513008 0.452949,0.695827 0.749024,0.574669 0.296087,-0.121146 0.31911,0.392272 0.265287,0.634528 0.262244,-0.327213 0.231421,-0.637949 0.149858,-0.953941 -0.089374,-0.346201 -0.54026,-0.872961 -0.963083,-0.863252 -0.229787,-0.0237717 -0.577587,0.00430315 -0.947524,0.266339 -0.64602,0.457587 -0.430248,1.48576 -0.256217,1.60703 -0.148276,-0.837594 0.138929,-0.801181 0.421626,-1.10346 0.104898,-0.112157 0.376835,-0.366004 0.581028,-0.161913z"/>
  <polygon class="fil6" points="2.96205,4.23297 2.63992,4.52741 3.00816,5.31756 3.40309,4.8277 "/>
  <polygon class="fil6" points="3.86465,4.23077 4.18674,4.53769 3.79846,5.34117 3.40309,4.8277 "/>
  <polygon class="fil6" points="3.30603,5.97333 3.52058,5.97333 3.52058,4.83139 3.30603,4.83139 "/>
  <path class="fil6" d="M1.96698 5.97333c0.00274409,-0.088563 0.0108307,-0.195181 0.0321929,-0.325189 -0.0398937,0.126787 -0.068185,0.232846 -0.0880866,0.325189l0.0558937 0z"/>
  <path class="fil1" d="M3.49841 2.11948c0.00274803,0.088563 0.00212205,0.212654 0.0933071,0.429937 -0.0835354,-0.116303 -0.129295,-0.337594 -0.149201,-0.429937l0.0558937 0z"/>
  <path class="fil6" d="M4.85963 5.97333c-0.00270866,-0.088563 -0.0108307,-0.195181 -0.0321969,-0.325189 0.0399331,0.126787 0.068185,0.232846 0.088126,0.325189l-0.0559291 0z"/>
  <path class="fil7" d="M4.29474 1.46538c-0.68026,0.371835 -1.19878,0.372382 -1.92175,0.144122 0.120634,-0.214512 0.377039,-0.577331 0.574764,-0.697079 0.144744,-0.0592717 0.223268,0.0433504 0.35785,0.127268 0.127606,-0.105701 0.190748,-0.217457 0.345886,-0.17839 0.168803,0.0635669 0.474941,0.401965 0.643252,0.604079z"/>
  <path class="fil8" d="M3.03963 0.895079c0.0907244,0.00476378 0.160067,0.0774094 0.260165,0.140953l0.0284291 0.533996 -0.288594 -0.674949z"/>
  <path class="fil9" d="M3.54188 0.858594c-0.0894449,0.0178504 -0.15,0.0999331 -0.242087,0.177437l0.0284291 0.533996 0.213657 -0.711433z"/>
  <path class="fil1" d="M3.48631 1.92575c-0.036437,0.0590039 -0.0763937,0.320618 -0.0296102,0.531913 -0.0766535,-0.164516 -0.0479094,-0.460445 -0.024748,-0.544925l0.0543583 0.0130118z"/>
  <path class="fil1" d="M3.50245 1.81798c-0.0467441,0.0512244 -0.134508,0.300898 -0.127709,0.517201 -0.0448228,-0.175874 0.0382835,-0.461343 0.0767047,-0.540067l0.0510039 0.0228661z"/>
  <path class="fil10" d="M3.15021 3.54963c0.104654,-0.0391457 0.197161,0.0375 0.263004,0.0375 0.0658386,0 0.158591,-0.102937 0.263244,-0.0335866 -0.122638,0.132555 -0.40278,0.125382 -0.526248,-0.00391339z"/>
  <path class="fil11" d="M3.10535 3.48793c0.041378,-0.0105827 0.168413,0.0302087 0.299043,0.0292244 0.127748,-0.00096063 0.258961,-0.0439882 0.316925,-0.0337795 -0.096811,0.178236 -0.534031,0.167913 -0.615969,0.00455512z"/>
  <path class="fil12" d="M2.8903 1.29487c0,0 0.0686929,0.0189528 0.0980197,0.0951614 0.0293268,0.0762126 0.039126,0.131882 0.107945,0.138335 0.0688228,0.00645276 0.0641378,0.00515748 0.0641378,0.00515748 -0.353673,0.0123071 -0.254496,-0.222921 -0.355181,-0.269744 -0.0268071,-0.0124685 0.0850787,0.0310906 0.0850787,0.0310906z"/>
 </g>
</svg>
