<?xml version="1.0" encoding="UTF-8"?>
<!DOCTYPE svg PUBLIC "-//W3C//DTD SVG 1.1//EN" "http://www.w3.org/Graphics/SVG/1.1/DTD/svg11.dtd">
<!-- Creator: CorelDRAW -->
<svg xmlns="http://www.w3.org/2000/svg" xml:space="preserve" width="6.82666in" height="6.82666in" style="shape-rendering:geometricPrecision; text-rendering:geometricPrecision; image-rendering:optimizeQuality; fill-rule:evenodd; clip-rule:evenodd"
viewBox="0 0 6.82666 6.82666"
 xmlns:xlink="http://www.w3.org/1999/xlink">
 <defs>
  <style type="text/css">
   <![CDATA[
    .fil17 {fill:none}
    .fil11 {fill:#0C1618}
    .fil7 {fill:#263238}
    .fil10 {fill:#2D3634}
    .fil1 {fill:#782B04}
    .fil9 {fill:#7E7067}
    .fil0 {fill:#802D03}
    .fil14 {fill:#A0938E}
    .fil16 {fill:#C4BDBA}
    .fil5 {fill:#C81F49}
    .fil12 {fill:#C8C8C8}
    .fil6 {fill:#D81B60}
    .fil8 {fill:#EFEFEF}
    .fil3 {fill:#F6C4AA}
    .fil4 {fill:#FF3869}
    .fil2 {fill:#FFDDCC}
    .fil13 {fill:white}
    .fil15 {fill:#37474F;fill-rule:nonzero}
   ]]>
  </style>
 </defs>
 <g id="Layer_x0020_1">
  <metadata id="CorelCorpID_0Corel-Layer"/>
  <g id="_490183728">
   <g>
    <path id="_490191960" class="fil0" d="M3.31876 1.79702c0.22315,0.157331 0.350744,0.324055 0.325205,0.558205 -0.0254921,0.234134 0.0373071,0.39428 0.309051,0.471031 0.271756,0.076752 0.189421,0.125587 0.184421,0.389795 -0.00311811,0.164465 0.158689,0.273217 0.33639,0.228555 0.0335827,-0.0084685 -0.19963,-0.0321339 -0.203575,-0.197819 -0.00634646,-0.266787 0.201047,-0.467945 -0.0752008,-0.653181 -0.441417,-0.333583 -0.0494724,-0.59074 -0.663677,-0.998067 -0.339122,-0.22489 -0.435764,0.0441496 -0.212614,0.20148z"/>
    <path id="_490192392" class="fil0" d="M2.20002 2.6683c-0.193268,0.201673 -0.29276,0.378866 -0.231075,0.605661 0.0616811,0.226713 0.0255,0.398331 -0.227811,0.530106 -0.25339,0.131819 -0.165303,0.163323 -0.11889,0.424118 0.0288583,0.162303 -0.112075,0.303268 -0.292681,0.295437 -0.0341142,-0.00148031 0.189957,-0.0727835 0.167756,-0.237768 -0.0357087,-0.265622 -0.269858,-0.422398 -0.0291654,-0.66263 0.240744,-0.240268 0.162197,-0.278787 0.101087,-0.438563 -0.0611378,-0.159776 0.141949,-0.448134 0.390354,-0.686535 1.51767,-1.45637 0.433689,-0.0315039 0.240425,0.170173z"/>
    <path id="_490192056" class="fil0" d="M2.32487 1.67272c-0.20822,0.186181 -0.32111,0.369398 -0.277106,0.600248 0.0440394,0.230839 -0.00525591,0.399102 -0.268035,0.510984 -0.262772,0.111878 -0.177374,0.150075 -0.151252,0.413638 0.0162756,0.164055 -0.135122,0.293728 -0.314563,0.272039 -0.0339213,-0.00412598 0.194984,-0.0579409 0.185591,-0.224138 -0.0151024,-0.267606 -0.236492,-0.441953 0.0220433,-0.662902 0.258531,-0.220992 0.28272,-0.29389 0.234114,-0.457913 -0.0485945,-0.163976 0.0802992,-0.403937 0.342642,-0.625949 0.317571,-0.268728 0.434787,-0.012185 0.226567,0.173992z"/>
    <path id="_490192032" class="fil0" d="M2.14792 1.69603c-0.190665,0.110205 -0.301283,0.240843 -0.284791,0.45035 0.0165236,0.209504 0.151343,0.168681 -0.0784449,0.201717 -0.21124,0.049126 -0.28765,0.226744 -0.315728,0.436587 -0.000826772,0.145272 -0.138961,0.220492 -0.287232,0.158539 -0.0280236,-0.0117323 0.214965,-0.019874 0.221744,-0.165327 0.00562205,-0.120445 0.0118228,-0.296634 0.0535866,-0.433346 0.034685,-0.113602 0.569417,-0.927657 0.597181,-0.946378 0.289457,-0.154961 0.284354,0.187654 0.093685,0.297858z"/>
    <path id="_490192248" class="fil0" d="M3.49273 2.65327c0.202039,0.218024 0.306358,0.406508 0.243016,0.639512 -0.0633465,0.233004 -0.0250079,0.412906 0.239343,0.560886 0.264343,0.148012 0.172732,0.176937 0.125457,0.445957 -0.0293898,0.167413 0.117929,0.320063 0.305921,0.319815 0.0355669,-8.26772e-005 -0.198028,-0.0839291 -0.175583,-0.254437 0.0360906,-0.274524 0.27935,-0.427287 0.0277126,-0.687429 -0.251594,-0.260189 -0.170016,-0.296803 -0.106988,-0.46022 0.0629921,-0.16337 -0.149571,-0.471921 -0.409193,-0.730488 -1.58617,-1.57959 -0.451709,-0.0515709 -0.249685,0.166406z"/>
    <path id="_490192536" class="fil1" d="M2.32125 1.34854c0.158646,-0.147319 1.00858,-0.260634 1.34854,0.294622 0.339961,0.555307 0.158689,0.41928 0.351331,0.770614 0.192646,0.351287 0.192646,0.396626 0.0112953,0.645921 -0.181307,0.249311 -0.373921,0.441988 -0.215264,0.611969 0.158642,0.169969 0.226634,0.260634 0.0679882,0.498606 -0.158689,0.237972 0.38528,0.509933 0.169937,0.804602 -0.215264,0.294634 -2.14178,0.385287 -2.26643,0.0453268 -0.124654,-0.339953 0.0793268,-0.577969 -0.0453268,-0.747949 -0.124654,-0.16998 -0.317299,-0.339953 0,-0.577921 0.183965,-0.137972 -0.0820079,-0.26839 -0.210402,-0.50722 -0.145681,-0.271102 -0.0536575,-0.611969 0.0177559,-0.716673 0.169937,-0.249307 0.13598,-1.1899 0.770579,-1.1219z"/>
    <path id="_490192320" class="fil2" d="M3.20709 3.26309l0 1.00157c-0.224846,0.29552 -0.592764,0.285323 -0.81761,0l0 -1.00157c0,-0.540776 0.81761,-0.540776 0.81761,0z"/>
    <path id="_490191480" class="fil3" d="M3.20709 3.26309l0 0.670567c-0.15472,0.121035 -0.303823,0.188835 -0.408811,0.188835 -0.104984,0 -0.254134,-0.0677992 -0.408799,-0.188835l0 -0.670567c0,-0.540776 0.81761,-0.540776 0.81761,0z"/>
    <path id="_490191288" class="fil2" d="M2.79828 3.95594c-0.266161,0 -0.828441,-0.418512 -1.00228,-1.01782 -0.175508,-0.605185 0.155028,-1.47319 1.00228,-1.47319 0.847217,0 1.17778,0.868004 1.00228,1.47319 -0.173882,0.599354 -0.736114,1.01782 -1.00228,1.01782z"/>
    <path id="_490191432" class="fil4" d="M2.4224 3.37507c0.159047,-0.101031 0.283035,-0.0252559 0.375882,-0.0252559 0.0928622,0 0.216835,-0.0757756 0.375843,0.0252559 -0.0854134,0.266449 -0.638378,0.274634 -0.751724,0z"/>
    <path id="_490191600" class="fil5" d="M2.4224 3.37507c0.159008,-0.100996 0.283035,-0.0252559 0.375882,-0.0252559 0.0928622,0 0.216835,-0.0757402 0.375843,0.0252559 -0.243138,0.078622 -0.588063,0.0418858 -0.751724,0z"/>
    <path id="_490191048" class="fil2" d="M1.62879 2.66565c0.0855906,-0.0367598 0.206547,0.0534646 0.270142,0.201516 0.0635945,0.148067 0.0457559,0.297902 -0.039878,0.334673 -0.0856339,0.0367598 -0.206547,-0.0534291 -0.270173,-0.201496 -0.0635945,-0.148051 -0.0457244,-0.29789 0.0399094,-0.334693z"/>
    <path id="_490191264" class="fil2" d="M3.99133 2.6657c-0.0856339,-0.0368031 -0.206591,0.0534213 -0.270185,0.201472 -0.0635827,0.148067 -0.0457126,0.297902 0.0399213,0.334673 0.0855906,0.0367598 0.206551,-0.0534291 0.27013,-0.201496 0.0635945,-0.148051 0.0457559,-0.29789 -0.0398661,-0.33465z"/>
    <path id="_490191768" class="fil0" d="M2.9197 1.46664c-0.218382,0.126453 -0.972909,0.859988 -1.05796,1.11622 -0.0850591,0.25624 0.00326772,0.466051 0.0546299,0.654335 -0.183917,-0.0459606 -0.640315,-2.1039 1.00333,-1.77056z"/>
    <path id="_490191120" class="fil2" d="M3.16968 4.10161c-0.00772047,0.0121102 -0.764969,0.0241811 -0.773327,0.0361063 -0.237846,0.339327 -0.751724,0.487961 -1.16031,0.579315 -0.406654,0.0909252 -0.422402,0.607429 -0.423004,0.951453l3.96409 0c-0.000649606,-0.344024 -0.00816929,-0.858669 -0.423004,-0.951453 -0.414858,-0.0927717 -0.958815,-0.260669 -1.18445,-0.615421z"/>
    <path id="_490191312" class="fil6" d="M1.02528 4.82786c0.41476,0.208736 1.07629,0.350937 1.76874,0.357272 0.61976,0.00566535 1.26117,-0.0983622 1.76816,-0.362146 0.0371811,0.0340197 0.0679409,0.0740157 0.0933622,0.118291 -0.0470236,0.0251024 -0.0951417,0.0488228 -0.144209,0.0713031 -0.197413,0.112209 -0.457925,0.323953 -0.47328,0.655909l-2.47465 0c-0.0071063,-0.332406 -0.315598,-0.560008 -0.520567,-0.669854 -0.0375669,-0.0168583 -0.0736181,-0.0341969 -0.108043,-0.0519764 0.0247402,-0.0443425 0.0545866,-0.0844685 0.0904843,-0.118799z"/>
    <path id="_490191216" class="fil0" d="M2.36081 1.73444c0.0652638,0.317106 0.401024,0.484941 0.718071,0.531591 0.31711,0.0466614 0.596902,0.0466142 0.41972,0.261142 -0.177224,0.214496 -0.0746142,0.410374 0.0932205,0.531591 0.167925,0.121228 0.111925,0.447673 -0.0373031,0.652854 -0.149181,0.205189 -0.186492,0.38237 -0.00930315,0.578201 0.177185,0.195878 0.0839173,0.203315 -0.065311,0.445764 -0.0928346,0.150933 -0.0219606,0.32598 0.146031,0.366165 0.0317717,0.00759449 -0.143496,-0.121413 -0.0556457,-0.27672 0.141437,-0.250043 0.338638,-0.339331 0.217409,-0.637776 -0.12122,-0.298453 -0.0466496,-0.307791 0.0746142,-0.447669 0.121264,-0.139882 0.167878,-0.494291 0.0186496,-0.783433 -0.149228,-0.289094 0.102579,-0.195831 0.0746142,-0.550236 -0.028,-0.354366 -0.895346,-1.66007 -1.59477,-0.671472z"/>
   </g>
   <g>
    <path id="_490190856" class="fil7" d="M4.11374 3.84158c-0.177323,-0.169106 -0.458843,-0.246961 -0.677614,-0.0806535 -0.218783,0.166327 -0.17998,0.436657 -0.265567,0.575122 -0.0855827,0.138465 -0.504016,0.125823 -0.771154,0.558004 -0.171331,0.277189 -0.132197,0.557488 0.0340079,0.794642l1.67659 0c0.120543,-0.336965 -0.0478937,-0.586807 0.0439921,-0.735469 0.106346,-0.172051 0.282925,-0.278185 0.351906,-0.368232 0.0693504,-0.0904961 0.052937,-0.156594 -0.00817717,-0.181409 -0.0594252,-0.024122 -0.193177,0.0729291 -0.282409,-0.00233465 -0.118039,-0.0995669 -0.0907835,-0.286264 -0.018185,-0.403728 0.072626,-0.1175 -0.0368583,-0.111563 -0.0833898,-0.155941z"/>
    <path id="_490190256" class="fil8" d="M3.99783 4.03721c-0.140106,-0.0821772 -0.196724,-0.172421 -0.253346,-0.121382 -0.084,0.0757244 0.0325472,0.335378 -0.260429,0.620736 -0.113697,0.110764 -0.22798,0.13148 -0.267469,0.271287 -0.0552756,0.195646 0.137567,0.27202 0.270921,0.360016 0.2195,0.144835 0.300161,0.355283 0.338563,0.520827l0.241272 0c0.131181,-0.334138 -0.0433071,-0.593579 0.0456575,-0.737512 0.100252,-0.162185 0.261591,-0.269902 0.333957,-0.348634 0.0935118,-0.101724 0.0834961,-0.153984 0.0277598,-0.168705 -0.0584685,-0.0154291 -0.176181,0.084126 -0.290598,-0.00766929 -0.113583,-0.0910984 -0.0960551,-0.263512 -0.0304449,-0.375957 0.0490512,-0.0840906 -0.0845197,0.0288543 -0.155843,-0.0130079z"/>
    <path id="_490190904" class="fil9" d="M3.88191 4.13812l0.112898 0.0697835c0.0595787,0.0368189 0.0925512,0.012189 0.116976,-0.0282283l1.24421 -2.05969c0.0244291,-0.040437 0.0116496,-0.0933465 -0.0285354,-0.118177l-0.0632638 -0.0391102c-0.040185,-0.0248346 -0.0932874,-0.0126417 -0.118618,0.0272244l-1.29055 2.03104c-0.0253307,0.0398661 -0.0382913,0.0768622 0.0268819,0.11715z"/>
    <path id="_490190448" class="fil7" d="M5.48726 1.97114c-0.0631457,0.0368898 -0.0935079,0.0900039 -0.126016,0.138697 -0.00128346,0.00191732 -0.00128346,0.00191732 -0.00221654,-0.00137402l-0.208059 -0.126098c0.000181102,-0.00369685 -0.000338583,0.00161417 0.000866142,-0.00197244l0.0342677 -0.216819c-0.000708661,-0.0835906 0.512138,-0.525343 0.681098,-0.60772 0.0470433,-0.0229055 0.12748,0.00801969 0.142378,0.0660157 0.0258031,0.100583 -0.0804016,0.161028 -0.0804016,0.161028 -0.0529764,0.0438976 -0.149843,0.0675472 -0.205669,0.240669l-0.0881181 0.273028c-0.016063,0.0499016 -0.0849646,0.0375748 -0.14813,0.0745472z"/>
    <polygon id="_490190400" class="fil10" points="5.72529,1.18073 5.77435,1.23821 5.74756,1.26107 5.6985,1.20358 "/>
    <polygon id="_490190088" class="fil10" points="5.5112,1.35427 5.56026,1.4118 5.53346,1.43465 5.4844,1.37713 "/>
    <polygon id="_490189560" class="fil10" points="5.3127,1.53955 5.36175,1.59707 5.33495,1.61991 5.28591,1.5624 "/>
    <path id="_490189824" class="fil11" d="M5.68317 1.23237c0.0233976,-0.00499213 0.0560039,-0.0194961 0.0737087,-0.0617953l-0.0269016 -0.0314961c-0.011626,-0.00440551 -0.0490079,0.00211024 -0.0742165,0.0601339l0.0274094 0.0331575z"/>
    <path id="_490189536" class="fil11" d="M5.46909 1.40591c0.0233858,-0.00496457 0.0559882,-0.0194528 0.0736732,-0.0617598l-0.026878 -0.0315236c-0.011626,-0.00440551 -0.0489803,0.00212598 -0.0741929,0.0601693l0.0273976 0.0331142z"/>
    <path id="_490189680" class="fil11" d="M5.27058 1.59119c0.0233583,-0.005 0.0559803,-0.0194646 0.0736732,-0.0617795l-0.026874 -0.0315079c-0.0116299,-0.00441732 -0.0490118,0.00211024 -0.0742244,0.0601378l0.0274252 0.0331496z"/>
    <path id="_490189320" class="fil12" d="M4.02922 4.33083c-0.0109213,0.0176693 -0.0340827,0.0231417 -0.0517441,0.0122323l-0.208543 -0.128906c-0.0176535,-0.0109055 -0.023122,-0.0340787 -0.0122047,-0.0517559 0.0109173,-0.0176457 0.0340866,-0.023122 0.0517441,-0.0122047l0.208539 0.128902c0.0176614,0.0109134 0.0231181,0.0340787 0.0122087,0.0517323z"/>
    <path id="_490189296" class="fil13" d="M4.02827 4.32288c-0.0109213,0.0176614 -0.0340827,0.0231299 -0.0517441,0.0122205l-0.208543 -0.128898c-0.0176535,-0.0109134 -0.0231181,-0.0340945 -0.0122047,-0.0517559 0.0109173,-0.0176654 0.0340906,-0.023122 0.0517402,-0.0122008l0.208539 0.128894c0.0176535,0.0109213 0.0231339,0.0340827 0.0122126,0.0517402z"/>
    <path id="_490188816" class="fil12" d="M3.87043 4.59511c-0.0109252,0.0176575 -0.0340748,0.0231417 -0.0517362,0.0122205l-0.208531 -0.128894c-0.0176693,-0.0109252 -0.023126,-0.0340866 -0.0122205,-0.0517598 0.0109213,-0.0176535 0.0340866,-0.023122 0.051752,-0.0121969l0.208535 0.128894c0.0176654,0.0109173 0.0231181,0.0340787 0.0122008,0.0517362z"/>
    <path id="_490189416" class="fil13" d="M3.87057 4.5875c-0.0109213,0.0176693 -0.0340866,0.0231417 -0.051748,0.0122244l-0.208539 -0.128902c-0.0176575,-0.0109055 -0.023126,-0.0340827 -0.0122087,-0.0517441 0.0109252,-0.0176614 0.0340866,-0.023122 0.051748,-0.0122126l0.208535 0.128898c0.0176614,0.0109252 0.023126,0.0340748 0.0122126,0.0517362z"/>
    <polygon id="_490189224" class="fil14" points="5.16628,2.47129 4.91163,2.31389 4.92972,2.28462 5.18437,2.44202 "/>
    <polygon id="_490187952" class="fil14" points="4.57389,3.42968 4.31925,3.27229 4.33733,3.24302 4.59198,3.40042 "/>
    <polygon id="_490188528" class="fil14" points="4.96882,2.79076 4.71418,2.63336 4.73226,2.60411 4.9869,2.7615 "/>
    <polygon id="_490188240" class="fil14" points="4.77135,3.11022 4.51671,2.95282 4.5348,2.92356 4.78944,3.08096 "/>
    <polygon id="_490188216" class="fil14" points="4.37643,3.74915 4.12179,3.59175 4.13987,3.56249 4.39452,3.71987 "/>
    <polygon id="_490188000" class="fil14" points="4.17896,4.0686 3.92433,3.91121 3.94241,3.88194 4.19705,4.03935 "/>
    <path id="_490188312" class="fil9" d="M5.33133 1.99394c0.0110827,-0.0179173 0.00512992,-0.0416614 -0.0132835,-0.0530394 -0.0184173,-0.0113898 -0.0423189,-0.00609843 -0.0533937,0.0118228l-0.043563 0.0704843 0.0668425 0.041311 0.043563 -0.0704803 -0.000165354 -9.84252e-005z"/>
    <path id="_490187400" class="fil9" d="M5.82275 1.30755c-0.0127244,0.0205906 -0.0397283,0.0269646 -0.0603228,0.0142323 -0.0205945,-0.0127244 -0.0269724,-0.0397362 -0.0142441,-0.0603228 0.0127205,-0.0206063 0.039748,-0.0269724 0.0603386,-0.014248 0.0205906,0.0127283 0.0269646,0.0397402 0.0142283,0.0603386z"/>
    <path id="_490187760" class="fil8" d="M5.80476 1.29643c-0.00658268,0.0106496 -0.0205669,0.0139409 -0.0312205,0.0073622 -0.0106614,-0.00658661 -0.0139606,-0.0205709 -0.00737795,-0.0312205 0.00659449,-0.0106614 0.0205709,-0.0139606 0.0312283,-0.00737008 0.0106535,0.00658661 0.0139567,0.0205709 0.00737008,0.0312283z"/>
    <path id="_490187472" class="fil9" d="M5.60515 1.47896c-0.0127244,0.0205906 -0.0397362,0.0269646 -0.0603307,0.0142323 -0.0205827,-0.0127323 -0.0269685,-0.0397323 -0.0142402,-0.0603268 0.0127323,-0.0205984 0.0397441,-0.0269646 0.0603268,-0.0142323 0.0206024,0.0127244 0.0269764,0.0397283 0.0142441,0.0603268z"/>
    <path id="_490187328" class="fil8" d="M5.58717 1.46784c-0.00658661,0.0106535 -0.0205787,0.0139528 -0.0312205,0.00737008 -0.0106654,-0.00659055 -0.0139724,-0.0205748 -0.00738189,-0.0312283 0.00659055,-0.0106535 0.0205787,-0.0139567 0.0312402,-0.00737008 0.0106417,0.00658661 0.0139528,0.0205669 0.0073622,0.0312283z"/>
    <path id="_490187280" class="fil9" d="M5.42145 1.65831c-0.0127323,0.0205787 -0.0397283,0.0269685 -0.0603307,0.0142362 -0.0205945,-0.0127362 -0.0269646,-0.0397441 -0.0142441,-0.0603307 0.0127323,-0.0205984 0.0397362,-0.0269764 0.0603425,-0.0142441 0.0205906,0.0127283 0.0269646,0.0397362 0.0142323,0.0603386z"/>
    <path id="_490186848" class="fil8" d="M5.40347 1.64719c-0.00659449,0.0106575 -0.020563,0.0139567 -0.0312323,0.00737008 -0.0106496,-0.00659055 -0.0139488,-0.0205669 -0.00735433,-0.0312244 0.00657087,-0.0106575 0.0205551,-0.0139567 0.0312126,-0.00737795 0.0106575,0.00659843 0.0139646,0.0205748 0.00737402,0.0312323z"/>
    <polygon id="_490186680" class="fil15" points="3.21238,5.19446 3.1993,5.18636 5.18392,2.00483 5.197,2.01293 "/>
    <polygon id="_490186464" class="fil15" points="3.36044,5.28225 5.29861,2.07576 5.31172,2.0838 3.37356,5.2903 "/>
    <polygon id="_490186416" class="fil15" points="3.28103,5.22994 5.23436,2.0398 5.24745,2.04788 3.29412,5.23802 "/>
    <polygon id="_490187016" class="fil16" points="3.14646,5.25358 3.12237,5.23869 3.16565,5.16866 3.18974,5.18355 "/>
    <polygon id="_490185696" class="fil16" points="3.14602,5.2089 3.13874,5.20441 3.20357,5.09952 3.21085,5.10402 "/>
    <polygon id="_490186224" class="fil16" points="3.19689,5.24034 3.18961,5.23585 3.25445,5.13096 3.26172,5.13545 "/>
    <polygon id="_490186128" class="fil16" points="3.25141,5.27404 3.24413,5.26955 3.30896,5.16466 3.31624,5.16916 "/>
    <polygon id="_490186056" class="fil16" points="3.30591,5.30774 3.29863,5.30324 3.36348,5.19835 3.37075,5.20284 "/>
    <polygon id="_490186104" class="fil16" points="3.35679,5.33918 3.3495,5.33469 3.41434,5.2298 3.42162,5.2343 "/>
    <polygon id="_490185792" class="fil16" points="3.40765,5.37063 3.40039,5.36613 3.46522,5.26124 3.47249,5.26574 "/>
    <polygon id="_490185072" class="fil9" points="3.47672,5.26023 3.17685,5.07487 3.05843,5.26646 3.3583,5.45182 "/>
    <polygon id="_490185384" class="fil12" points="3.39815,5.31237 3.16565,5.16866 3.18363,5.13957 3.41613,5.28327 "/>
    <polygon id="_490184928" class="fil11" points="3.17976,5.27417 3.15567,5.25928 3.19894,5.18925 3.22305,5.20414 "/>
    <polygon id="_490185144" class="fil11" points="3.24515,5.31459 3.22105,5.29969 3.26433,5.22967 3.28843,5.24456 "/>
    <polygon id="_490184904" class="fil11" points="3.31685,5.35891 3.29277,5.34402 3.33604,5.27399 3.36014,5.28888 "/>
    <g>
     <polygon id="_490184760" class="fil16" points="3.08667,5.35112 3.06258,5.33623 3.10587,5.2662 3.12996,5.2811 "/>
     <polygon id="_490184664" class="fil16" points="3.19035,5.4152 3.16626,5.4003 3.20954,5.33028 3.23363,5.34519 "/>
     <polygon id="_490184136" class="fil16" points="3.29402,5.47929 3.26993,5.46439 3.31321,5.39435 3.33731,5.40927 "/>
    </g>
    <polygon id="_490184304" class="fil14" points="5.36375,2.15181 5.10911,1.99442 5.12719,1.96517 5.38182,2.12256 "/>
   </g>
  </g>
  <rect class="fil17" x="0.0364567" y="-0.00520866" width="6.82666" height="6.82666"/>
 </g>
</svg>
