<?xml version="1.0" encoding="UTF-8"?>
<!DOCTYPE svg PUBLIC "-//W3C//DTD SVG 1.1//EN" "http://www.w3.org/Graphics/SVG/1.1/DTD/svg11.dtd">
<!-- Creator: CorelDRAW -->
<svg xmlns="http://www.w3.org/2000/svg" xml:space="preserve" width="6.82666in" height="6.82666in" style="shape-rendering:geometricPrecision; text-rendering:geometricPrecision; image-rendering:optimizeQuality; fill-rule:evenodd; clip-rule:evenodd"
viewBox="0 0 6.82666 6.82666"
 xmlns:xlink="http://www.w3.org/1999/xlink">
 <defs>
  <style type="text/css">
   <![CDATA[
    .fil22 {fill:none}
    .fil2 {fill:#006064}
    .fil1 {fill:#0097A7}
    .fil0 {fill:#00ACC1}
    .fil14 {fill:#00C853}
    .fil8 {fill:#1B1B1B}
    .fil7 {fill:#212121}
    .fil10 {fill:#263238}
    .fil9 {fill:#37474F}
    .fil20 {fill:#ADADAD}
    .fil18 {fill:#BDBDBD}
    .fil15 {fill:#D50000}
    .fil6 {fill:#F57C00}
    .fil4 {fill:#F6C4AA}
    .fil5 {fill:#FB8C00}
    .fil16 {fill:#FF6D00}
    .fil13 {fill:#FFD600}
    .fil3 {fill:#FFDDCC}
    .fil21 {fill:#795548;fill-rule:nonzero}
    .fil19 {fill:#E7BB87;fill-rule:nonzero}
    .fil17 {fill:#FDCC92;fill-rule:nonzero}
    .fil11 {fill:#FFBB00;fill-rule:nonzero}
    .fil12 {fill:#FFE57F;fill-rule:nonzero}
   ]]>
  </style>
 </defs>
 <g id="Layer_x0020_1">
  <metadata id="CorelCorpID_0Corel-Layer"/>
  <g id="_490192992">
   <path id="_490195224" class="fil0" d="M2.41324 3.78344c-0.861768,0.377799 -1.12025,0.579217 -1.22246,0.669634 -0.157476,0.139346 -0.244571,0.658764 -0.337449,1.09978l1.94969 0 1.9497 0c-0.0929055,-0.441016 -0.180012,-0.960453 -0.337476,-1.09978 -0.102185,-0.0904173 -0.351228,-0.286657 -1.21297,-0.664457l-0.789031 -0.00517717z"/>
   <path id="_490195056" class="fil1" d="M1.81041 4.06638l0 1.48647 -0.127386 0 0 -1.41984c0.0394016,-0.0211693 0.0817874,-0.0433622 0.127386,-0.0666299zm0.602831 -0.282941l0 0 -0.0260079 0.011437 0 1.75798 0.127374 0 0 -1.76874 -0.101366 -0.000669291zm-0.250728 0.112654l0 0c-0.0444291,0.0205118 -0.0868543,0.0403819 -0.127386,0.0596654l0 1.59709 0.127386 0 0 -1.65676zm-0.704209 0.365291l0 0c-0.0501969,0.0307874 -0.0920945,0.0582835 -0.127374,0.0828031l0 1.20867 0.127374 0 0 -1.29147zm-0.352102 0.313075l0 0c-0.0486457,0.0987874 -0.0898268,0.236488 -0.127374,0.39065l0 0.587744 0.127374 0 0 -0.978394zm1.63313 0.978394l0 0 0.063685 0 0.063689 0 0 -1.76645 -0.127374 -0.000826772 0 1.76728zm0.352102 0l0 0 0.127346 0 0 -1.75696 -0.0165118 -0.00727559 -0.110835 -0.000732283 0 1.76497zm0.352102 0l0 0 0.127374 0 0 -1.59645c-0.0405394,-0.0192126 -0.0829528,-0.0390433 -0.127374,-0.0594882l0 1.65594zm0.352094 0l0 0 0.127346 0 0 -1.41978c-0.0393661,-0.0210748 -0.081685,-0.0432047 -0.127346,-0.0664449l0 1.48622zm0.352102 0l0 0 0.127346 0 0 -1.20896c-0.035185,-0.0244843 -0.0770827,-0.0519961 -0.127346,-0.0827953l0 1.29175zm0.352106 0l0 0 0.127343 0 0 -0.587689c-0.0375197,-0.154217 -0.0787008,-0.291906 -0.127343,-0.390705l0 0.978394z"/>
   <path id="_490195176" class="fil1" d="M1.09388 4.60065l3.41826 0c0.017122,0.0379921 0.0333031,0.0807795 0.0487402,0.127346l-3.5157 0c0.015437,-0.0465669 0.0315906,-0.0893543 0.0487087,-0.127346z"/>
   <path id="_490195296" class="fil1" d="M0.981878 4.95274l3.64226 0c0.010185,0.0413661 0.0200748,0.0839606 0.0297717,0.127362l-3.7018 0c0.00969291,-0.0434016 0.0195866,-0.0859961 0.0297717,-0.127362z"/>
   <path id="_490195320" class="fil1" d="M0.904374 5.30484l3.79727 0c0.00872441,0.0425276 0.0174134,0.0851102 0.0260748,0.127362l-3.84942 0c0.00868898,-0.042252 0.0173465,-0.0848346 0.0260748,-0.127362z"/>
   <path id="_490195536" class="fil2" d="M1.09388 4.60065l0.0123228 0 0 0.127346 -0.0610315 0 0.00509055 -0.0151457 0.000106299 -0.000224409 0.00200394 -0.00593307 6.69291e-005 -0.000244094 0.00369685 -0.0105591 0.000318898 -0.000893701 0.000425197 -0.00121654 0.00298425 -0.00830315 0.000744094 -0.00200394 0 -6.69291e-005 0.00207874 -0.00562598 0.000161417 -0.00053937 0.00190945 -0.00509843 0.000358268 -0.000988189 0.000744094 -0.00203543 0.000779528 -0.00200394 0.000200787 -0.000574803 0.0012874 -0.00343701 0.000783465 -0.00200394 3.54331e-005 -0.000114173 0.000704724 -0.0018622 0.000783465 -0.00199606 0.000610236 -0.0016378 0.000133858 -0.000346457 0.000779528 -0.00196063 0.000744094 -0.00195669 0.000488189 -0.00118504 0.000291339 -0.000783465 0.000744094 -0.00195669 0.000783465 -0.00194882 0.000291339 -0.000732283 0.000488189 -0.00121654 0.000771654 -0.00192913 0.000783465 -0.00192913 9.44882e-005 -0.000251969 0.000685039 -0.00165748 0.000771654 -0.00191339 0.000716535 -0.00174803 6.69291e-005 -0.000161417 0.000779528 -0.00188189 0.000771654 -0.00190945 0.000519685 -0.00129921 0.00026378 -0.000586614 0.000779528 -0.00188189 0.000771654 -0.0018622 0.000358268 -0.000858268 0.000425197 -0.00100787 0.000807087 -0.0018622 0.000783465 -0.0018622 0.00015748 -0.000425197 0.000614173 -0.00141339 0.000818898 -0.00184252 0.000771654 -0.00183465 0.000779528 -0.0018189 0.000811024 -0.00183465 0.000622047 -0.00141339 0.00015748 -0.000401575 0.000811024 -0.00179921 0.000807087 -0.00179921 0.000425197 -0.000976378 0.000358268 -0.000811024 0.000807087 -0.00177953zm0.237051 0l0 0 0.127374 0 0 0.127346 -0.127374 0 0 -0.127346zm0.352094 0l0 0 0.127386 0 0 0.127346 -0.127386 0 0 -0.127346zm0.352102 0l0 0 0.127386 0 0 0.127346 -0.127386 0 0 -0.127346zm0.352106 0l0 0 0.127374 0 0 0.127346 -0.127374 0 0 -0.127346zm0.352102 0l0 0 0.127374 0 0 0.127346 -0.127374 0 0 -0.127346zm0.352102 0l0 0 0.127346 0 0 0.127346 -0.127346 0 0 -0.127346zm0.352102 0l0 0 0.127374 0 0 0.127346 -0.127374 0 0 -0.127346zm0.352094 0l0 0 0.127346 0 0 0.127346 -0.127346 0 0 -0.127346zm0.352102 0l0 0 0.127346 0 0 0.127346 -0.127346 0 0 -0.127346zm0.352106 0l0 0 0.0122913 0 0.000811024 0.00177953 0.000385827 0.000811024 0.00042126 0.000976378 0.000783465 0.00179921 0.000807087 0.00179921 0.000200787 0.00042126 0.000582677 0.0013937 0.000807087 0.00183465 0.000811024 0.0018189 0.000771654 0.00183465 0.000779528 0.00184252 0.000622047 0.00142126 0.000161417 0.000417323 0.000811024 0.0018622 0.000779528 0.0018622 0.000425197 0.00100787 0.000346457 0.000858268 0.000811024 0.0018622 0.000779528 0.00188189 0.000224409 0.000594488 0.000559055 0.00129134 0.000771654 0.00190945 0.000779528 0.00188189 6.69291e-005 0.000169291 0.000712598 0.00174016 0.000775591 0.00191339 0.00065748 0.00165748 0.000122047 0.000251969 0.000779528 0.00192913 0.000744094 0.00192913 0.000492126 0.00125197 0.000291339 0.00069685 0.000779528 0.00194882 0.000744094 0.00195669 0.000318898 0.00080315 0.00046063 0.00116535 0.000775591 0.00195669 0.000751969 0.00196063 0.00015748 0.000358268 0.000614173 0.00162598 0.000751969 0.00199606 0.000704724 0.00187402 6.69291e-005 0.000102362 0.000744094 0.00200394 0.00129921 0.00343701 0.000224409 0.000574803 0.000744094 0.00200394 0.000751969 0.00203543 0.000385827 0.000996063 0.000389764 0.00102756 0.00149606 0.00406299 0.00019685 0.000555118 0.000547244 0.00148819 0.000740157 0.00208268 0.000744094 0.00203937 3.93701e-005 8.66142e-005 0.000716535 0.00198425 6.29921e-005 0.000169291 0.00129134 0.00357874 0.000129921 0.000393701 0.00149606 0.00416142 0.000417323 0.00121654 0.000326772 0.000893701 0.000744094 0.0021063 0.000716535 0.00209843 0.000251969 0.000744094 0.00198819 0.00561024 9.44882e-005 0.000275591 0.00201181 0.00590157 5.90551e-005 0.000224409 0.00149606 0.00429134 0.000452756 0.00144882 0.000968504 0.00288189 0.000751969 0.00215354 0.000291339 0.00096063 0.000425197 0.00123622 0.000716535 0.00217323 -0.0610039 0 0 -0.127346z"/>
   <path id="_490195488" class="fil2" d="M0.981878 4.95274l0.124323 0 0 0.127362 -0.127374 0 0 -0.114976 0 -1.9685e-005 0.000188976 -0.000704724 0.000488189 -0.00194882 0.000492126 -0.00194882 0.000448819 -0.00194882 0.000161417 -0.000637795 0.000330709 -0.00129921 0.000448819 -0.00194882 0.000492126 -0.00192913zm0.349051 0l0 0 0.127374 0 0 0.127362 -0.127374 0 0 -0.127362zm0.352094 0l0 0 0.127386 0 0 0.127362 -0.127386 0 0 -0.127362zm0.352102 0l0 0 0.127386 0 0 0.127362 -0.127386 0 0 -0.127362zm0.352106 0l0 0 0.127374 0 0 0.127362 -0.127374 0 0 -0.127362zm0.352102 0l0 0 0.127374 0 0 0.127362 -0.127374 0 0 -0.127362zm0.352102 0l0 0 0.127346 0 0 0.127362 -0.127346 0 0 -0.127362zm0.352102 0l0 0 0.127374 0 0 0.127362 -0.127374 0 0 -0.127362zm0.352094 0l0 0 0.127346 0 0 0.127362 -0.127346 0 0 -0.127362zm0.352102 0l0 0 0.127346 0 0 0.127362 -0.127346 0 0 -0.127362zm0.352106 0l0 0 0.124295 0 0.000488189 0.00192913 0.000452756 0.00194882 0.000358268 0.00130709 0.000129921 0.000629921 0.000480315 0.00194882 0.000488189 0.00194882 0.000452756 0.00194882 0.00019685 0.000759843 0 0.114941 -0.127343 0 0 -0.127362z"/>
   <path id="_490195416" class="fil2" d="M0.978827 5.30484l0.127374 0 0 0.127362 -0.127374 0 0 -0.127362zm0.352102 0l0 0 0.127374 0 0 0.127362 -0.127374 0 0 -0.127362zm0.352094 0l0 0 0.127386 0 0 0.127362 -0.127386 0 0 -0.127362zm0.352102 0l0 0 0.127386 0 0 0.127362 -0.127386 0 0 -0.127362zm0.352106 0l0 0 0.127374 0 0 0.127362 -0.127374 0 0 -0.127362zm0.352102 0l0 0 0.127374 0 0 0.127362 -0.127374 0 0 -0.127362zm0.352102 0l0 0 0.127346 0 0 0.127362 -0.127346 0 0 -0.127362zm0.352102 0l0 0 0.127374 0 0 0.127362 -0.127374 0 0 -0.127362zm0.352094 0l0 0 0.127346 0 0 0.127362 -0.127346 0 0 -0.127362zm0.352102 0l0 0 0.127346 0 0 0.127362 -0.127346 0 0 -0.127362zm0.352106 0l0 0 0.127343 0 0 0.127362 -0.127343 0 0 -0.127362z"/>
   <path id="_490195392" class="fil1" d="M1.64788 5.55285l0.0668031 0c-0.00298425,-0.296925 -0.00302362,-0.510917 -0.00302362,-0.510917 0,0 -0.0295748,0.222386 -0.0637795,0.510917z"/>
   <path id="_490194888" class="fil1" d="M3.95817 5.55285l-0.0668031 0c0.00298425,-0.296925 0.00298425,-0.510917 0.00298425,-0.510917 0,0 0.0295748,0.222386 0.0638189,0.510917z"/>
   <path id="_490194288" class="fil3" d="M3.22144 3.03037l0 0.955236c-0.230142,0.281854 -0.606689,0.272102 -0.836831,0l0 -0.955236c0,-0.51578 0.836831,-0.51578 0.836831,0z"/>
   <path id="_490194744" class="fil4" d="M3.22144 3.12483l0 0.639551c-0.158343,0.115402 -0.310949,0.180083 -0.418417,0.180083 -0.107465,0 -0.260102,-0.0646811 -0.418413,-0.180075l0 -0.639559c0,-0.51578 0.836831,-0.51578 0.836831,0z"/>
   <path id="_490194552" class="fil5" d="M3.9063 2.0038l-0.363244 0.0423661c0.0277323,0.281366 -0.207307,0.474508 -0.32339,0.474508l-0.839697 0c-0.116063,0 -0.351102,-0.193142 -0.323398,-0.474508l-0.343504 0.0283701c-0.254016,-0.198496 0.0808268,-1.14962 0.788988,-1.0987 0.965492,0.0694213 1.62131,0.50528 1.40424,1.02797z"/>
   <path id="_490194144" class="fil6" d="M2.7991 2.6185c0.612173,0 1.11148,-0.304382 1.11148,-0.677587 0,-0.373197 -0.499311,-0.677587 -1.11148,-0.677587 -0.612169,0 -1.11148,0.30439 -1.11148,0.677587 0,0.373205 0.499307,0.677587 1.11148,0.677587z"/>
   <path id="_490194120" class="fil3" d="M2.80302 1.46119c-1.40435,0 -0.899323,1.5511 -0.807587,1.68616 0.0935906,0.137823 0.362854,0.489146 0.702457,0.510476 0.0373228,0.00234252 0.15963,-0.00425591 0.197677,-0.000649606 0.401343,0.0380276 0.617846,-0.366705 0.715039,-0.509827 0.0917402,-0.135083 0.596744,-1.68616 -0.807587,-1.68616z"/>
   <path id="_490194360" class="fil4" d="M2.35591 3.06681c0.299008,0.0768661 0.646075,0.0644016 0.90052,0 -0.0830276,0.274787 -0.741744,0.281461 -0.90052,0z"/>
   <path id="_490194240" class="fil7" d="M3.69446 2.1588c-0.00376378,-0.169154 -0.18302,-0.485102 -0.300539,-0.536563 -0.117516,-0.0514685 -0.711925,0.0128031 -1.01882,0.183803 -0.331902,0.184886 -0.470469,0.390866 -0.463626,0.557657 0.00483071,0.117079 -0.0449055,0.0451535 -0.0770787,0.0348937 -0.00674016,-0.174154 0.00194882,-0.529457 0.048937,-0.687283 0.0503307,-0.169059 0.486055,-0.270024 0.95613,-0.263697 0.47011,0.00631496 0.649433,0.0742402 0.812996,0.172339 0.116193,0.0696811 0.174984,0.791961 0.0717087,0.75398 -0.0390827,-0.0143622 -0.0275039,-0.117224 -0.0297087,-0.21513z"/>
   <path id="_490194696" class="fil3" d="M1.73375 2.33599c0.0736772,-0.0242598 0.167457,0.059374 0.209417,0.186831 0.0419606,0.127441 0.016248,0.250429 -0.0574646,0.274713 -0.0736732,0.0242756 -0.167453,-0.0593543 -0.209417,-0.186815 -0.0419606,-0.127457 -0.0162441,-0.250445 0.0574646,-0.274728z"/>
   <path id="_490194480" class="fil3" d="M3.88839 2.33601c-0.0737126,-0.0242756 -0.167465,0.0593583 -0.209453,0.186815 -0.0419646,0.127441 -0.016248,0.250437 0.0574528,0.274713 0.0737126,0.0242756 0.167492,-0.059374 0.209453,-0.186815 0.0419646,-0.127457 0.016248,-0.250453 -0.0574528,-0.274713z"/>
   <rect id="_490194456" class="fil8" transform="matrix(4.96491 -0 0.420898 4.96491 1.79623 4.28236)" width="0.0479134" height="0.256252"/>
   <rect id="_490193664" class="fil8" transform="matrix(-4.96491 -0 -0.420898 4.96491 3.82957 4.28236)" width="0.0479134" height="0.256252"/>
   <path id="_490193736" class="fil9" d="M1.93201 3.98971c-0.40461,0 -0.488882,0.044626 -0.505748,0.282496 -0.0168307,0.237878 0.0293583,0.543823 0.282205,0.856035 0.252835,0.312228 0.118008,-0.0445984 0.151724,-0.297339 0.0337323,-0.252744 0.0842795,0.356827 0.202287,0.0743386 0.117972,-0.282484 -0.0125,-0.216736 -0.130469,-0.915531z"/>
   <path id="_490193928" class="fil9" d="M3.94517 4.09841c0.184154,0 0.411638,0.0932598 0.249146,0.296736 -0.162465,0.203449 -0.249146,0.669697 -0.25998,0.864665 -0.0108346,0.194996 -0.129972,0.330642 -0.129972,0.169571 0,-0.161071 -0.151665,-0.534091 -0.194984,-0.37302 -0.0433268,0.161083 -0.205819,0.322134 -0.184161,0.0169646 0.0216693,-0.305181 0.108315,-1.14444 0.519953,-0.974917z"/>
   <path id="_490194048" class="fil9" d="M3.91893 4.16752c-0.350551,0.379748 -1.42018,0.889657 -2.12124,-0.0158898 -0.0773071,-0.235394 -0.0555787,-0.36124 0.148882,-0.302827 -0.0145984,-0.219063 0.182957,-0.300736 0.372823,-0.198504 0.277488,0.292106 0.895236,0.141803 1.01207,-0.048063 0.18063,-0.0491614 0.29328,0.0236457 0.29328,0.271945 0.365142,-0.175276 0.440236,0.103476 0.294189,0.293339z"/>
   <path id="_490193424" class="fil10" d="M3.79314 4.534l0 -0.126736c0.0620394,-0.0827362 0.131787,-0.141031 0.186917,-0.158858 -0.0395354,0.0329252 -0.115673,0.143846 -0.186917,0.285594zm0 -0.179335l0 0c0.0699173,-0.0528504 0.131004,-0.129969 0.154358,-0.224315 -0.0292165,0.0548031 -0.0887913,0.109583 -0.154358,0.158492l0 0.0658228zm0 -0.0658228l0 0 0 0.0658228c-0.0688465,0.0520551 -0.146248,0.0805551 -0.204618,0.0787559l0 -0.0132598c0.0544449,-0.0317205 0.133118,-0.0780236 0.204618,-0.131319zm0 0.118421l0 0c-0.100756,0.134323 -0.181205,0.333071 -0.145929,0.52798 0.0277992,-0.136654 0.085063,-0.280197 0.145929,-0.401244l0 -0.126736zm-0.204618 -0.505283l0 0 0 -0.00465354c0.00674016,-0.00517323 0.0132913,-0.0103504 0.0196181,-0.0154528 -0.00632677,0.00669291 -0.0129055,0.0134016 -0.0196181,0.0201063zm-1.73788 1.07534l0 0c-0.0129016,-0.0226535 -0.0251299,-0.0478543 -0.0367087,-0.0749134l0 0.0384409c0.0116811,0.0129409 0.0238701,0.0251693 0.0367087,0.0364724zm1.73788 -1.07999l0 0 0 0.00465354c-0.29539,0.295398 -0.971441,0.592984 -1.5628,-0.000669291 0.603189,0.489209 1.27581,0.217134 1.5628,-0.00398425zm0 0.522835l0 0 -0.0195866 0.0114252c0.00622047,0.00103543 0.012811,0.0016378 0.0195866,0.00183465l0 -0.0132598zm-1.77459 -0.166323l0 0 0 -0.0794724c0.0530236,0.0714803 0.131496,0.145425 0.179654,0.183953 -0.0649213,-0.0039252 -0.137268,-0.0420079 -0.179654,-0.10448zm0 0.648567l0 0c-0.109055,-0.254909 -0.15837,-0.677315 -0.121567,-0.743551 -0.11363,0.0869921 -0.0849961,0.553169 0.121567,0.781992l0 -0.0384409zm0 -0.728039l0 0 0 0.0794724c-0.0252913,-0.0372677 -0.0399488,-0.0831614 -0.0360866,-0.135697 0.0094685,0.0180748 0.0218543,0.0370787 0.0360866,0.0562244z"/>
   <g>
    <path id="_490193376" class="fil11" d="M5.09835 4.24542c0.32228,0.275394 0.573862,0.573894 0.720091,0.833862 0.15689,0.278929 0.193689,0.521945 0.0732165,0.662929 -0.120472,0.140984 -0.36626,0.142528 -0.666236,0.0310512 -0.279594,-0.103902 -0.613669,-0.305862 -0.935949,-0.581256 -0.158067,-0.135075 -0.18622,-0.206866 -0.141449,-0.25926 0.0325512,-0.0380906 0.0826024,-0.0377835 0.144398,-0.0373976 0.0570433,0.000358268 0.131594,0.000822835 0.156866,-0.0287559 0.0580039,-0.067878 0.00557874,-0.153051 -0.0954685,-0.245075 -0.099815,-0.0852913 -0.393,-0.289335 -0.526437,-0.371323 -0.078622,-0.0530906 -0.152043,-0.105579 -0.212492,-0.157232 -0.156488,-0.13372 -0.231421,-0.26587 -0.118724,-0.397752 0.10563,-0.123614 0.307598,-0.140024 0.557961,-0.0670472 0.168894,0.045685 0.38513,0.155209 0.495795,0.223587l-3.93701e-006 0c0.178524,0.104524 0.365378,0.237244 0.548433,0.393669z"/>
    <path id="_490193328" class="fil12" d="M5.09835 4.24542c0.32228,0.275394 0.575421,0.572071 0.724169,0.829091 0.159591,0.275768 0.200339,0.514165 0.0844134,0.649823 -0.115921,0.135657 -0.35776,0.132587 -0.655035,0.0179449 -0.277075,-0.106846 -0.609594,-0.31063 -0.931874,-0.586024 -0.158067,-0.135071 -0.18711,-0.205827 -0.144028,-0.25624 0.0313189,-0.0366496 0.0805787,-0.0354173 0.141398,-0.0338858 0.0561378,0.00141339 0.129512,0.00325591 0.153831,-0.0252008 0.055811,-0.065315 0.00262992,-0.14961 -0.0985236,-0.241508 -0.099811,-0.0852913 -0.39213,-0.290346 -0.524972,-0.373035 -0.0783583,-0.0533976 -0.151587,-0.10611 -0.212035,-0.157764 -0.156488,-0.133724 -0.232693,-0.264386 -0.124252,-0.391287 0.101642,-0.118945 0.300083,-0.131224 0.547815,-0.0551772 0.167055,0.0478425 0.38189,0.159008 0.492063,0.227957l0 0c0.177626,0.105575 0.363976,0.238882 0.547031,0.395307z"/>
    <path id="_490194024" class="fil13" d="M4.73766 4.14386c0.115268,0.0985 0.178134,0.21413 0.140417,0.258264 -0.0377165,0.0441378 -0.161732,7.08661e-005 -0.277,-0.0984291 -0.115268,-0.0984961 -0.178134,-0.214126 -0.140417,-0.25826 0.0377165,-0.0441378 0.161732,-7.08661e-005 0.277,0.0984252z"/>
    <path id="_490193640" class="fil14" d="M5.26147 4.55991c0.110291,0.094248 0.165768,0.210358 0.123906,0.259346 -0.0418583,0.0489882 -0.165201,0.0122953 -0.275496,-0.0819528 -0.110291,-0.094248 -0.165768,-0.210358 -0.123906,-0.259346 0.0418583,-0.0489882 0.165201,-0.0122953 0.275496,0.0819528z"/>
    <path id="_490193832" class="fil15" d="M5.07186 5.18584c0.110248,0.0942126 0.170583,0.204567 0.13476,0.246488 -0.0358189,0.0419173 -0.154232,-0.000472441 -0.264484,-0.0946811 -0.110248,-0.0942126 -0.170583,-0.204567 -0.134764,-0.246484 0.0358228,-0.0419213 0.154236,0.000468504 0.264488,0.0946772z"/>
    <path id="_490192728" class="fil16" d="M5.58076 5.09539c0.110291,0.094248 0.165764,0.210362 0.123906,0.259346 -0.0418622,0.0489882 -0.165205,0.0122992 -0.275496,-0.0819488 -0.110291,-0.094248 -0.165768,-0.210358 -0.123906,-0.259346 0.0418583,-0.0489882 0.165201,-0.0122953 0.275496,0.0819488z"/>
    <g>
     <g>
      <path id="_490193232" class="fil17" d="M4.53307 3.256c-0.00107874,0.048689 -0.0139724,0.12226 -0.0242835,0.185016 -0.0284173,0.172965 -0.0850512,0.406657 -0.163177,0.660563l-0.0042874 0.0138701c-0.0790866,0.255209 -0.176823,0.514047 -0.2825,0.770811 -0.106425,0.258571 -0.218528,0.509803 -0.32774,0.752972 -0.0151024,0.0333661 -0.0541732,0.0485197 -0.0872677,0.0338386 -0.0295079,-0.0130906 -0.0442992,-0.0454803 -0.0364528,-0.076 0.0472362,-0.265441 0.0969843,-0.537319 0.153181,-0.799665 0.0577756,-0.269724 0.123724,-0.537685 0.203248,-0.794287 0.0796496,-0.257004 0.166134,-0.485689 0.241575,-0.647646 0.029689,-0.0637441 0.0720354,-0.139295 0.101307,-0.182878 0.0713465,0.0883701 0.0969606,0.119787 0.226398,0.0834055z"/>
      <path id="_490193064" class="fil18" d="M4.30667 3.17259c-0.0292717,0.0435827 -0.0716181,0.119134 -0.101307,0.182878 -0.037437,0.0803622 -0.0775866,0.177154 -0.118272,0.285677 -0.0112795,0.0300866 -0.0225984,0.0610709 -0.0339134,0.0928622 0.111811,0.088315 0.234972,0.121098 0.363256,0.121472 0.00446063,-0.0167047 0.00880709,-0.0332402 0.0130276,-0.0495906 0.0354921,-0.137445 0.0624055,-0.261921 0.0793228,-0.364878 0.010311,-0.0627559 0.0232047,-0.136327 0.0242835,-0.185016 -0.0361772,0.0223858 -0.0788622,0.029063 -0.129768,0.0139685l-0.00770866 -0.00282677c-0.0440709,-0.0193858 -0.0729094,-0.0522795 -0.0889213,-0.0945472z"/>
     </g>
     <path id="_490193040" class="fil19" d="M3.64409 5.67319l-0.000275591 -0.00011811c-0.0295079,-0.0130906 -0.0442992,-0.0454803 -0.0364528,-0.076 0.0472362,-0.265441 0.0969843,-0.537319 0.153181,-0.799665 0.0577756,-0.269724 0.123724,-0.537685 0.203248,-0.794287 0.0796496,-0.257004 0.166134,-0.485689 0.241575,-0.647646 0.029689,-0.0637441 0.0720354,-0.139295 0.101307,-0.182878 0.0432756,0.0536024 0.0697283,0.0862402 0.112728,0.0955157l-0.775311 2.40508z"/>
     <path id="_490193016" class="fil20" d="M4.30667 3.17259c-0.0292717,0.0435827 -0.0716181,0.119134 -0.101307,0.182878 -0.037437,0.0803622 -0.0775866,0.177154 -0.118272,0.285677 -0.0112795,0.0300866 -0.0225984,0.0610709 -0.0339134,0.0928622 0.0587913,0.046437 0.120728,0.0775118 0.18489,0.0966063l0.179531 -0.556929c-0.00469291,-0.00104724 -0.00945669,-0.0022874 -0.0142992,-0.00372047l-0.00770866 -0.00282677c-0.0440709,-0.0193858 -0.0729094,-0.0522795 -0.0889213,-0.0945472z"/>
     <path id="_490192632" class="fil21" d="M4.67691 3.0357c-0.0512244,0.166469 -0.129362,0.29565 -0.272232,0.253276l-0.00770866 -0.00282283c-0.0440709,-0.0193898 -0.0729134,-0.0522835 -0.0889213,-0.0945512 -0.0218858,-0.0577795 -0.017063,-0.131752 0.0063937,-0.208563 0.0213071,-0.0697756 0.0585394,-0.144224 0.104594,-0.21076 0.0778228,-0.112441 0.183827,-0.204283 0.287004,-0.219583l0.112744 -0.0167205 -0.0431929 0.106244c-0.0137913,0.0339173 -0.0275748,0.0971614 -0.0431339,0.168539 -0.0157441,0.0722362 -0.0331969,0.152307 -0.0555472,0.224941z"/>
    </g>
   </g>
  </g>
  <rect class="fil22" x="0.0364567" y="-0.00520866" width="6.82666" height="6.82666"/>
 </g>
</svg>
