<?xml version="1.0" encoding="UTF-8"?>
<!DOCTYPE svg PUBLIC "-//W3C//DTD SVG 1.1//EN" "http://www.w3.org/Graphics/SVG/1.1/DTD/svg11.dtd">
<!-- Creator: CorelDRAW -->
<svg xmlns="http://www.w3.org/2000/svg" xml:space="preserve" width="6.82666in" height="6.82666in" style="shape-rendering:geometricPrecision; text-rendering:geometricPrecision; image-rendering:optimizeQuality; fill-rule:evenodd; clip-rule:evenodd"
viewBox="0 0 6.82666 6.82666"
 xmlns:xlink="http://www.w3.org/1999/xlink">
 <defs>
  <style type="text/css">
   <![CDATA[
    .fil8 {fill:none}
    .fil6 {fill:#1565C0}
    .fil0 {fill:#1976D2}
    .fil10 {fill:#546E7A}
    .fil11 {fill:#78909C}
    .fil4 {fill:#A13F0F}
    .fil5 {fill:#AD4916}
    .fil2 {fill:#D9AE9A}
    .fil1 {fill:#E3B8A4}
    .fil9 {fill:#E64A19}
    .fil3 {fill:#EDC5B2}
    .fil7 {fill:#424242;fill-rule:nonzero}
   ]]>
  </style>
 </defs>
 <g id="Layer_x0020_1">
  <metadata id="CorelCorpID_0Corel-Layer"/>
  <g id="_490195824">
   <g>
    <path id="_496693176" class="fil0" d="M2.49 4.09543c-0.914126,0.400756 -1.18831,0.614409 -1.2967,0.710319 -0.167043,0.147815 -0.259429,0.698791 -0.35798,1.1666l2.06819 0 2.06813 0c-0.0985197,-0.467811 -0.190917,-1.01881 -0.357949,-1.1666 -0.108394,-0.0959094 -0.372571,-0.304071 -1.28667,-0.704827l-0.837016 -0.00549213z"/>
    <path id="_496693104" class="fil1" d="M3.34731 3.2966l0 1.01328c-0.12415,0.155988 -0.286571,0.251004 -0.443807,0.258402 -0.167622,0.00789764 -0.329776,-0.0822913 -0.443878,-0.258402l0 -1.01328c0,-0.547122 0.887685,-0.547122 0.887685,0z"/>
    <path id="_496693680" class="fil2" d="M3.34731 3.2966l0 0.678398c-0.167929,0.122421 -0.329854,0.191016 -0.443807,0.191016 -0.113996,0 -0.275949,-0.0685945 -0.443878,-0.190996l0 -0.678417c0,-0.547122 0.887685,-0.547122 0.887685,0z"/>
    <path id="_496693536" class="fil3" d="M2.90351 1.47741c-1.48969,0 -0.953969,1.80001 -0.856657,1.94328 0.107256,0.158004 0.615937,0.576823 0.856657,0.576823 0.24065,0 0.749331,-0.418799 0.856614,-0.576823 0.097311,-0.143291 0.633031,-1.94328 -0.856614,-1.94328z"/>
    <path id="_496693488" class="fil4" d="M1.89528 2.26975c-0.0365551,-0.201732 -0.275827,-0.795839 0.456299,-1.17143 0.0691339,-0.0131693 -0.175122,0.162661 -0.101445,0.135075 0.20863,-0.0614252 0.37702,-0.228531 0.524146,-0.249169 0.041378,-0.0141693 -0.194264,0.18911 -0.0667677,0.147154 0.215709,-0.0963701 0.379339,-0.226622 0.533102,-0.230764 0.0453504,-0.00247638 -0.341425,0.230047 -0.276657,0.20824 0.340169,-0.114543 0.498079,-0.237846 0.662984,-0.263677 0.0962441,-0.0150472 -0.496858,0.327059 -0.144898,0.233744 0.286492,-0.0759252 0.393035,-0.25452 0.489398,-0.242319 0.101815,0.012878 -0.317602,0.322953 -0.280067,0.501091 0.0425118,0.201701 0.290441,0.350752 0.222587,0.940106 -0.10378,-0.305728 -0.410689,-0.466445 -0.733854,-0.416618 -0.514102,0.0634016 -1.03302,-0.279701 -1.28483,0.408563z"/>
    <path id="_496693368" class="fil5" d="M1.93795 2.1643c-0.0338622,-0.146614 -0.235673,-0.583354 0.442571,-0.856319 0.0640433,-0.00957087 -0.162232,0.118217 -0.0939803,0.0981693 0.193276,-0.0446417 0.349276,-0.166091 0.485571,-0.181087 0.0383307,-0.0102992 -0.179965,0.137437 -0.0618543,0.106945 0.199835,-0.0700394 0.351421,-0.164701 0.49387,-0.167713 0.0420118,-0.00179921 -0.316299,0.167189 -0.256295,0.151343 0.315134,-0.083248 0.461417,-0.172858 0.614189,-0.19163 0.0891614,-0.010937 -0.460291,0.237693 -0.134232,0.169874 0.265406,-0.0551772 0.36411,-0.184976 0.453382,-0.17611 0.0943189,0.0093622 -0.294228,0.234713 -0.259461,0.364177 0.0393858,0.146591 0.308772,0.259878 0.245909,0.688205 -0.0961457,-0.222197 -0.420165,-0.343961 -0.719547,-0.307752 -0.476264,0.0460827 -0.976846,-0.198311 -1.21012,0.301898z"/>
    <path id="_496693032" class="fil3" d="M1.77208 2.57765c0.0781496,-0.0257283 0.177626,0.0629843 0.222138,0.198185 0.0445551,0.135193 0.0172756,0.265665 -0.0609449,0.291406 -0.0781614,0.025748 -0.177638,-0.0629646 -0.22215,-0.198157 -0.0445118,-0.135201 -0.0172323,-0.265661 0.0609567,-0.291433z"/>
    <path id="_496693752" class="fil3" d="M4.05764 2.57767c-0.0781929,-0.025748 -0.17763,0.0629646 -0.222181,0.198165 -0.0445118,0.135193 -0.0172323,0.265665 0.0609567,0.291406 0.0781811,0.025748 0.177669,-0.0629843 0.222181,-0.198157 0.0445118,-0.135201 0.0172205,-0.265681 -0.0609567,-0.291413z"/>
    <polygon id="_496693344" class="fil6" points="2.45908,4.10904 2.10069,4.26409 2.55719,4.89681 2.90351,4.56828 "/>
    <polygon id="_496693728" class="fil6" points="3.34731,4.10967 3.7063,4.26409 3.2498,4.89681 2.90351,4.56828 "/>
    <path id="_496693296" class="fil6" d="M1.08838 4.96694c-0.105189,0.236969 -0.177319,0.64574 -0.253063,1.00541l0.839583 0c-0.0187795,-0.58678 -0.0198386,-0.89889 -0.58652,-1.00541z"/>
    <path id="_496692936" class="fil6" d="M4.71856 4.96694c0.105189,0.236969 0.177319,0.64574 0.253071,1.00541l-0.839602 0c0.0187835,-0.58678 0.0198504,-0.89889 0.586531,-1.00541z"/>
    <path id="_496692360" class="fil1" d="M4.89344 5.59363c0.0122402,0.0597992 0.065937,0.320551 0.078189,0.37872l-0.839602 0c0.00200787,-0.0622047 0.00382677,-0.121276 0.00609055,-0.17739l0.755323 -0.201331z"/>
    <path id="_496692600" class="fil1" d="M0.924543 5.54187c-0.0122126,0.0597874 -0.0769528,0.372311 -0.0892244,0.43048l0.839583 0c-0.00198819,-0.0622047 -0.00377559,-0.121276 -0.00605118,-0.17739l-0.744307 -0.253091z"/>
    <path id="_496692816" class="fil7" d="M2.64181 1.612c0.00499213,0.00151181 0.00331102,0.000976378 1.5748e-005,-3.93701e-005l-1.5748e-005 3.93701e-005z"/>
    <path id="_496692840" class="fil8" d="M2.20013 4.70002c-0.00153543,-0.000141732 -0.0030748,-0.000334646 -0.00461024,-0.000503937"/>
   </g>
   <g>
    <path id="_496692696" class="fil9" d="M5.94735 3.05446l-0.558795 -0.32563 -0.0507756 0.113004c0.198547,0.0902638 0.397083,0.180535 0.595634,0.270799 0.0569252,0.0258661 0.0890157,-0.0144213 0.013937,-0.0581732z"/>
    <path id="_498914592" class="fil9" d="M5.92307 3.18098l-0.634465 -0.285079 -0.0210354 0.046815 0.634465 0.285075c0.012874,0.00578346 0.0281339,-1.1811e-005 0.0339173,-0.0128858l3.93701e-006 -1.1811e-005c0.00578346,-0.012874 -1.1811e-005,-0.0281299 -0.0128858,-0.0339134z"/>
    <path id="_498914880" class="fil9" d="M5.87325 3.29186l-0.634461 -0.285079 -0.0210354 0.046815 0.634465 0.285075c0.012874,0.00578346 0.0281299,-1.1811e-005 0.0339173,-0.0128858l3.93701e-006 -1.1811e-005c0.00578346,-0.012874 -1.1811e-005,-0.0281299 -0.0128898,-0.0339134z"/>
    <path id="_498914688" class="fil9" d="M5.82343 3.40274l-0.634461 -0.285079 -0.0210354 0.046815 0.634465 0.285075c0.012874,0.0057874 0.0281299,-1.1811e-005 0.0339134,-0.0128858l7.87402e-006 -7.87402e-006c0.00578346,-0.012878 -1.5748e-005,-0.0281339 -0.0128898,-0.0339173z"/>
    <path id="_498914856" class="fil9" d="M5.77361 3.51362l-0.634461 -0.285079 -0.0210354 0.046815 0.634461 0.285075c0.012874,0.0057874 0.0281339,-1.1811e-005 0.0339173,-0.0128858l3.93701e-006 -7.87402e-006c0.0057874,-0.012878 -1.1811e-005,-0.0281339 -0.0128858,-0.0339173z"/>
    <path id="_498916392" class="fil9" d="M5.72379 3.6245l-0.634465 -0.285079 -0.0210315 0.046815 0.634461 0.285075c0.012874,0.0057874 0.0281339,-1.1811e-005 0.0339173,-0.0128858l3.93701e-006 -7.87402e-006c0.0057874,-0.012878 -1.1811e-005,-0.0281339 -0.0128858,-0.0339173z"/>
    <path id="_498916104" class="fil9" d="M5.67397 3.73537l-0.634465 -0.285079 -0.0210354 0.046815 0.634465 0.285075c0.012874,0.0057874 0.0281339,-1.1811e-005 0.0339173,-0.0128858l3.93701e-006 -7.87402e-006c0.00578346,-0.012878 -1.1811e-005,-0.0281339 -0.0128858,-0.0339173z"/>
    <path id="_498916080" class="fil9" d="M5.62415 3.84625l-0.634465 -0.285079 -0.0210354 0.046815 0.634465 0.285075c0.012874,0.0057874 0.0281299,-1.1811e-005 0.0339173,-0.0128858l3.93701e-006 -7.87402e-006c0.00578346,-0.012878 -1.1811e-005,-0.0281339 -0.0128858,-0.0339173z"/>
    <g>
     <path id="_498915240" class="fil9" d="M5.39657 2.73243c-0.155984,-0.0491654 -0.252587,-0.0657165 -0.30898,0.0127874l-0.488988 1.08829 0.158291 0.322587 0.639677 -1.42366zm-0.907496 1.4163l-0.761866 1.62414c-0.0322992,0.0688583 0.00143307,0.148815 0.0694646,0.182827l7.87402e-006 3.93701e-006c0.0693858,0.0311732 0.17128,0.0057126 0.182827,-0.0694685 0.0434291,-0.282807 0.387185,-1.00789 0.625791,-1.4158l-0.00887795 -0.0216811 -0.00703937 0.00288189 -0.0347717 -0.105004 -0.0431496 -0.105386 0.00726378 -0.00297638 -0.0296496 -0.0895354z"/>
     <path id="_498915696" class="fil9" d="M5.17975 4.76282l-0.171598 -0.0562835 -0.0421181 -0.102866 0.247961 0.110098c0.0571417,0.0253858 0.0483228,0.0761339 -0.0342441,0.0490512z"/>
     <path id="_498915528" class="fil9" d="M5.57433 3.95713l-0.634461 -0.285079 -0.0210354 0.046815 0.634465 0.285075c0.012874,0.0057874 0.0281299,-1.1811e-005 0.0339173,-0.0128858l3.93701e-006 -7.87402e-006c0.00578346,-0.012874 -1.5748e-005,-0.0281339 -0.0128898,-0.0339173z"/>
     <path id="_498915480" class="fil9" d="M5.52451 4.06801l-0.634461 -0.285079 -0.0210354 0.046815 0.634461 0.285075c0.012878,0.0057874 0.0281339,-1.1811e-005 0.0339173,-0.0128858l3.93701e-006 -7.87402e-006c0.0057874,-0.012874 -1.1811e-005,-0.0281339 -0.0128858,-0.0339173z"/>
     <path id="_490206672" class="fil9" d="M5.47469 4.17889l-0.634465 -0.285079 -0.0210315 0.046815 0.634461 0.285075c0.012874,0.0057874 0.0281339,-1.1811e-005 0.0339173,-0.0128858l3.93701e-006 -7.87402e-006c0.0057874,-0.012874 -1.1811e-005,-0.0281339 -0.0128858,-0.0339173z"/>
     <path id="_490200552" class="fil9" d="M5.42487 4.28976l-0.634465 -0.285079 -0.0210315 0.046815 0.634461 0.285075c0.012874,0.0057874 0.0281339,-1.1811e-005 0.0339173,-0.0128858l3.93701e-006 -7.87402e-006c0.00578346,-0.012874 -1.1811e-005,-0.0281339 -0.0128858,-0.0339173z"/>
     <path id="_490196568" class="fil9" d="M5.37506 4.40064l-0.634465 -0.285079 -0.00171654 0.00381496 0.0325315 0.0662992 0.582614 0.261776c0.012874,0.0057874 0.0281339,-1.1811e-005 0.0339173,-0.0128858l3.93701e-006 -7.87402e-006c0.00578346,-0.012874 -1.1811e-005,-0.0281339 -0.0128858,-0.0339173z"/>
     <path id="_490196496" class="fil9" d="M5.32523 4.51152l-0.505358 -0.227071 0.0354173 0.0721811 0.448909 0.201701c0.012874,0.0057874 0.0281299,-1.1811e-005 0.0339173,-0.0128858l3.93701e-006 -7.87402e-006c0.00578346,-0.012874 -1.5748e-005,-0.0281339 -0.0128898,-0.0339173z"/>
     <path id="_490196616" class="fil9" d="M5.27541 4.6224l-0.369732 -0.16613 0.00754724 0.018437 0.0259449 0.052878 0.315209 0.141626c0.012874,0.0057874 0.0281299,-1.1811e-005 0.0339134,-0.0128858l7.87402e-006 -7.87402e-006c0.00578346,-0.012874 -1.5748e-005,-0.0281339 -0.0128898,-0.0339173z"/>
     <g>
      <path id="_490196904" class="fil10" d="M4.94241 5.4854l-0.00076378 0.000311024 -0.00409843 -0.0100079c-0.0295984,-0.0561535 -0.0771811,-0.0979685 -0.132539,-0.121165 -0.0628622,-0.0263386 -0.135787,-0.0286929 -0.203854,-0.000822835 -0.0680669,0.0278701 -0.118398,0.0806929 -0.144728,0.143551 -0.0263425,0.0628543 -0.0286969,0.13578 -0.000826772,0.203846 0.0278701,0.0680669 0.0806929,0.118402 0.143551,0.144736 0.0628543,0.0263346 0.13578,0.0286929 0.203846,0.000822835 0.0680669,-0.0278701 0.118398,-0.0806929 0.14474,-0.143551 0.0263307,-0.0628543 0.028689,-0.13578 0.000818898,-0.203846 -0.00192913,-0.0047126 -0.00398031,-0.00933858 -0.00614567,-0.013874zm-0.358492 -0.87337l0.115933 -0.0474724 0.357732 0.873685 -0.000271654 0.000110236c0.00208661,0.00458268 0.00409449,0.00922835 0.00601969,0.0139252 0.0408425,0.099748 0.0373819,0.206622 -0.00122047,0.298768 -0.0386102,0.0921417 -0.11237,0.169559 -0.212118,0.210402 -0.099748,0.0408425 -0.20663,0.0373819 -0.298764,-0.00122047 -0.0921378,-0.0386063 -0.169563,-0.112366 -0.210406,-0.212118 -0.0408425,-0.099748 -0.0373858,-0.206622 0.00122441,-0.298764 0.0386063,-0.0921457 0.112362,-0.169563 0.212114,-0.210406 0.0946969,-0.0387756 0.195819,-0.0376142 0.284657,-0.00436614l-0.254902 -0.622543z"/>
      <path id="_490196016" class="fil10" d="M5.28753 5.34409l0.00076378 -0.000314961 -0.00409843 -0.0100079c-0.0182835,-0.0607913 -0.013689,-0.123965 0.00950394,-0.179327 0.0263386,-0.0628583 0.0766693,-0.115685 0.144736,-0.143555 0.0680669,-0.0278701 0.140992,-0.0255118 0.203846,0.000826772 0.0628583,0.0263346 0.115685,0.0766654 0.143555,0.144732 0.0278701,0.0680669 0.0255118,0.140992 -0.000826772,0.20385 -0.0263346,0.0628543 -0.0766654,0.115677 -0.144732,0.143547 -0.0680669,0.0278701 -0.140992,0.0255157 -0.20385,-0.000818898 -0.0628543,-0.0263386 -0.115677,-0.0766693 -0.143547,-0.144736 -0.00192913,-0.0047126 -0.0037126,-0.00944882 -0.00535039,-0.0141969zm-0.356969 -0.874l-0.115937 0.0474724 0.357732 0.873685 0.000271654 -0.000110236c0.00172835,0.00472835 0.00355118,0.00944488 0.00547638,0.0141457 0.0408425,0.099748 0.11826,0.173504 0.210402,0.212114 0.0921457,0.0386063 0.199016,0.042063 0.298768,0.00122047 0.099748,-0.0408425 0.173508,-0.118268 0.212114,-0.210402 0.0386024,-0.0921378 0.0420669,-0.199016 0.00122441,-0.298768 -0.0408425,-0.099748 -0.118264,-0.173508 -0.210406,-0.21211 -0.0921417,-0.0386102 -0.199016,-0.0420709 -0.298768,-0.00122835 -0.0946969,0.0387756 -0.165965,0.11052 -0.205976,0.196528l-0.254902 -0.622547z"/>
      <path id="_490195968" class="fil11" d="M4.58805 4.62211l0.346311 -0.141799 -0.713118 -1.45329c-0.141484,-0.288343 -0.23615,-0.225689 -0.140575,0.0629252l0.507382 1.53216zm0.0678504 -0.297614c0.0266142,-0.0108976 0.0570315,0.00184646 0.0679291,0.0284606 0.0108976,0.0266181 -0.00184646,0.0570315 -0.0284646,0.0679291 -0.0266142,0.0108976 -0.0570276,-0.00184646 -0.0679252,-0.0284606 -0.0109016,-0.0266181 0.00184252,-0.0570315 0.0284606,-0.0679291z"/>
     </g>
    </g>
   </g>
  </g>
  <rect class="fil8" x="0.0364567" y="-0.00520866" width="6.82666" height="6.82666"/>
 </g>
</svg>
