<?xml version="1.0" encoding="UTF-8"?>
<!DOCTYPE svg PUBLIC "-//W3C//DTD SVG 1.1//EN" "http://www.w3.org/Graphics/SVG/1.1/DTD/svg11.dtd">
<!-- Creator: CorelDRAW -->
<svg xmlns="http://www.w3.org/2000/svg" xml:space="preserve" width="6.82666in" height="6.82666in" style="shape-rendering:geometricPrecision; text-rendering:geometricPrecision; image-rendering:optimizeQuality; fill-rule:evenodd; clip-rule:evenodd"
viewBox="0 0 6.82666 6.82666"
 xmlns:xlink="http://www.w3.org/1999/xlink">
 <defs>
  <style type="text/css">
   <![CDATA[
    .fil13 {fill:none}
    .fil2 {fill:#212121}
    .fil5 {fill:#293439}
    .fil7 {fill:#424242}
    .fil11 {fill:#757575}
    .fil9 {fill:#A61E1E}
    .fil10 {fill:#C62828}
    .fil6 {fill:#C7B7B7}
    .fil0 {fill:#DBC0B2}
    .fil4 {fill:#DFC4B6}
    .fil12 {fill:#E4B7A0}
    .fil3 {fill:#ECCEBE}
    .fil1 {fill:#FFDDCC}
    .fil8 {fill:white}
   ]]>
  </style>
 </defs>
 <g id="Layer_x0020_1">
  <metadata id="CorelCorpID_0Corel-Layer"/>
  <g id="_496693896">
   <path id="_496695576" class="fil0" d="M2.15969 2.32676c0.0855827,-0.0282244 0.194528,0.0689291 0.243272,0.21702 0.048748,0.148043 0.018874,0.290925 -0.0667559,0.31915 -0.0855827,0.0281772 -0.194528,-0.0689764 -0.243272,-0.217067 -0.0487913,-0.148043 -0.018874,-0.290937 0.0667559,-0.319102z"/>
   <path id="_496695720" class="fil0" d="M4.66269 2.32676c-0.0856299,-0.0282244 -0.194571,0.0689724 -0.243319,0.21702 -0.0487441,0.148043 -0.018874,0.290925 0.066748,0.319106 0.085626,0.0282205 0.194571,-0.0689331 0.243315,-0.217024 0.048748,-0.148043 0.018874,-0.290937 -0.0667441,-0.319102z"/>
   <path id="_496695432" class="fil1" d="M2.96053 3.89922c-1.00111,0.438862 -1.30142,0.672831 -1.42012,0.777902 -0.182933,0.161878 -0.284114,0.765252 -0.392004,1.27757l2.26493 0 2.26493 0c-0.107894,-0.512319 -0.209114,-1.11569 -0.392008,-1.27757 -0.118697,-0.105071 -0.408004,-0.333 -1.40911,-0.771917l-0.916606 -0.00598425z"/>
   <path id="_496695456" class="fil2" d="M2.96048 3.89922c-1.00106,0.438862 -1.30137,0.672831 -1.42007,0.777902 -0.182933,0.161878 -0.284114,0.765252 -0.392004,1.27757l2.26493 0 2.26488 0c-0.107882,-0.512319 -0.209071,-1.11569 -0.391996,-1.27757 -0.118665,-0.105071 -0.407972,-0.333 -1.40908,-0.771917l-0.916654 -0.00598425z"/>
   <path id="_496694568" class="fil3" d="M3.8994 3.02438l0 1.10967c-0.267354,0.327437 -0.704827,0.316098 -0.972134,0l0 -1.10967c0,-0.599197 0.972134,-0.599197 0.972134,0z"/>
   <path id="_496694760" class="fil4" d="M3.8994 3.02438l0 0.742945c-0.183945,0.134079 -0.361228,0.209189 -0.486067,0.209189 -0.124843,0 -0.302157,-0.0751102 -0.486067,-0.209189l0 -0.742945c0,-0.599197 0.972134,-0.599197 0.972134,0z"/>
   <path id="_496694952" class="fil3" d="M3.41333 1.03212c-1.63142,0 -1.04473,1.97124 -0.938161,2.12815 0.117504,0.173051 0.674579,0.631705 0.938161,0.631705 0.263579,0 0.820622,-0.458654 0.938114,-0.631705 0.106614,-0.156902 0.693299,-2.12815 -0.938114,-2.12815z"/>
   <path id="_496694928" class="fil5" d="M2.66763 1.69181c-0.094626,0.517 -0.331614,0.468744 -0.312819,1.07543 -0.076126,-0.472846 -0.189823,-1.1021 0.131665,-1.51659 0.256878,-0.331197 1.10768,-0.568106 1.65861,-0.17072 0.6085,0.13 0.418217,1.36889 0.336622,1.60305 -0.0569567,-0.37928 -0.184543,-0.537276 -0.345622,-0.983209 -0.218528,0.156701 -1.18833,0.191661 -1.46846,-0.00796063z"/>
   <path id="_496695144" class="fil6" d="M3.41585 4.37538c0,0 -0.678339,0.161941 -0.678339,0.203004 0,0.0410591 0.258122,1.37631 0.258122,1.37631l0.920937 0 0.105551 -1.37043 -0.606272 -0.208886z"/>
   <polygon id="_496695216" class="fil7" points="2.92726,3.91384 2.92726,4.13405 3.13841,5.95469 2.77534,5.95469 2.37591,5.14379 2.75717,4.88962 2.29123,4.67177 2.71969,4.00691 "/>
   <polygon id="_496694664" class="fil7" points="3.8994,3.915 3.89943,4.13405 3.68618,5.95469 4.04926,5.95469 4.44863,5.14379 4.06741,4.88962 4.53335,4.67177 4.15254,4.02741 "/>
   <polygon id="_496694616" class="fil8" points="2.92726,3.76733 2.88477,3.93259 3.0037,4.79337 3.41585,4.37541 "/>
   <path id="_496694640" class="fil9" d="M3.20429 4.60054l0.117724 0.182366c0.0608386,0 0.121756,0 0.182594,0l0.117756 -0.182366 -0.206512 -0.225157 -0.211563 0.225157z"/>
   <polygon id="_496694976" class="fil10" points="3.32202,4.7829 3.15442,5.95469 3.67224,5.95469 3.50465,4.7829 "/>
   <polygon id="_496694496" class="fil8" points="3.8994,3.76733 3.93292,3.92991 3.82119,4.80196 3.41585,4.37541 "/>
   <path id="_496694448" class="fil11" d="M2.07142 5.95469l0.077563 0c-0.0034685,-0.344909 -0.0034685,-0.593496 -0.0034685,-0.593496 0,0 -0.0343543,0.258339 -0.0740945,0.593496z"/>
   <path id="_496693848" class="fil11" d="M4.75524 5.95469l-0.0776024 0c0.00346457,-0.344909 0.00346457,-0.593496 0.00346457,-0.593496 0,0 0.0343583,0.258339 0.0741378,0.593496z"/>
   <path id="_496694184" class="fil12" d="M2.91923 3.09563c0.328118,0.117425 0.708972,0.0983858 0.988189,0 -0.0911102,0.419787 -0.813957,0.429984 -0.988189,0z"/>
  </g>
  <rect class="fil13" x="0.0364567" y="-0.00520866" width="6.82666" height="6.82666"/>
 </g>
</svg>
