<?xml version="1.0" encoding="UTF-8"?>
<!DOCTYPE svg PUBLIC "-//W3C//DTD SVG 1.1//EN" "http://www.w3.org/Graphics/SVG/1.1/DTD/svg11.dtd">
<!-- Creator: CorelDRAW -->
<svg xmlns="http://www.w3.org/2000/svg" xml:space="preserve" width="6.82666in" height="6.82666in" style="shape-rendering:geometricPrecision; text-rendering:geometricPrecision; image-rendering:optimizeQuality; fill-rule:evenodd; clip-rule:evenodd"
viewBox="0 0 6.82666 6.82666"
 xmlns:xlink="http://www.w3.org/1999/xlink">
 <defs>
  <style type="text/css">
   <![CDATA[
    .fil13 {fill:none}
    .fil5 {fill:#263238}
    .fil1 {fill:#66BB6A}
    .fil4 {fill:#8D6E63}
    .fil3 {fill:#A1887F}
    .fil7 {fill:#B2EBF2}
    .fil0 {fill:#D6BDB0}
    .fil2 {fill:#FFDDCC}
    .fil6 {fill:white}
    .fil11 {fill:black;fill-rule:nonzero}
    .fil10 {fill:#1A2930;fill-rule:nonzero}
    .fil9 {fill:#24525B;fill-rule:nonzero}
    .fil8 {fill:#263238;fill-rule:nonzero}
    .fil12 {fill:#455A64;fill-rule:nonzero}
   ]]>
  </style>
 </defs>
 <g id="Layer_x0020_1">
  <metadata id="CorelCorpID_0Corel-Layer"/>
  <g id="_496690680">
   <g>
    <path id="_496691880" class="fil0" d="M2.9245 2.02163c0.0741575,-0.0244173 0.168567,0.0597677 0.210795,0.188047 0.0422795,0.128311 0.0163543,0.252098 -0.0578346,0.276543 -0.0741693,0.0244173 -0.168567,-0.0597677 -0.210807,-0.188055 -0.0422677,-0.128272 -0.0163504,-0.252091 0.0578465,-0.276535z"/>
    <path id="_496692000" class="fil0" d="M5.09336 2.02163c-0.0741969,-0.0244173 -0.168594,0.0597677 -0.210835,0.188047 -0.0422402,0.128311 -0.0163543,0.252098 0.0578425,0.276543 0.074189,0.0244173 0.168598,-0.0597677 0.210835,-0.188055 0.0422677,-0.128272 0.0163465,-0.252091 -0.0578425,-0.276535z"/>
    <path id="_496691808" class="fil1" d="M3.61841 3.65957c-0.867457,0.380272 -1.12765,0.583047 -1.23054,0.674051 -0.158508,0.14026 -0.246185,0.663083 -0.339677,1.10702l1.96257 0 1.96257 0c-0.0934803,-0.443937 -0.181161,-0.96676 -0.339677,-1.10702 -0.10285,-0.0910039 -0.353535,-0.288555 -1.221,-0.668831l-0.794244 -0.00522047z"/>
    <path id="_496691952" class="fil2" d="M4.43196 2.73492l0 0.961531c-0.231661,0.283724 -0.61072,0.273902 -0.842354,0l0 -0.961531c0,-0.519209 0.842354,-0.519209 0.842354,0z"/>
    <path id="_496691832" class="fil3" d="M4.43196 2.73492l0 0.64376c-0.159386,0.116173 -0.313,0.181268 -0.421177,0.181268 -0.108173,0 -0.261819,-0.0650945 -0.421177,-0.181268l0 -0.64376c0,-0.519209 0.842354,-0.519209 0.842354,0z"/>
    <path id="_496692168" class="fil2" d="M4.01078 1.00862c-1.41363,0 -0.90526,1.70809 -0.812909,1.84407 0.101807,0.149921 0.584516,0.547374 0.812909,0.547374 0.228366,0 0.711075,-0.397453 0.812917,-0.547374 0.0923425,-0.135984 0.600681,-1.84407 -0.812917,-1.84407z"/>
    <path id="_496692096" class="fil4" d="M3.55755 2.70322c0.118587,0.0887638 0.787913,0.0838819 0.906472,0 -0.10302,0.467067 -0.769795,0.481433 -0.906472,0z"/>
    <path id="_496691688" class="fil5" d="M4.0253 3.10474c0.146567,0.0169409 0.0542638,0.168343 0.194398,0.101941 0.146984,-0.069622 0.410043,-0.177957 0.518354,-0.317201 0.108335,-0.139291 0.123807,-0.201181 0.162492,-0.557067 0.0387165,-0.355937 -0.00770079,-0.784598 -0.239858,-0.769126 -0.232087,0.0154724 -0.379098,0.0541496 -0.649902,0.0541496l0 -0.608823c0.988043,0 0.978217,0.529252 0.977299,1.02202 -0.000708661,0.392421 -0.123449,0.761764 -0.164382,0.822051 -0.101843,0.149921 -0.584551,0.547374 -0.812917,0.547374l0.0145157 -0.295323zm-0.0232047 -0.00126772l0 0c0.00829134,0 0.0160236,0.000452756 0.0232047,0.00126772l-0.0145157 0.295323c-0.228394,0 -0.711102,-0.397453 -0.812909,-0.547374 -0.0436142,-0.0642402 -0.180051,-0.479185 -0.162921,-0.899224 0.0191299,-0.469228 -0.0331614,-0.94485 0.975831,-0.94485l0 0.608823c-0.270791,0 -0.417815,-0.0386772 -0.649929,-0.0541496 -0.232118,-0.0154724 -0.278535,0.413189 -0.239823,0.769126 0.0386496,0.355886 0.054122,0.417776 0.162457,0.557067 0.108339,0.139244 0.37137,0.247579 0.518394,0.317201 0.147012,0.0696299 0.022248,-0.103209 0.200213,-0.103209z"/>
    <polygon id="_496691184" class="fil6" points="3.54962,3.48268 3.25091,3.64436 3.68407,4.24478 4.01271,3.93301 "/>
    <polygon id="_496691040" class="fil6" points="4.47578,3.48268 4.77451,3.64436 4.34135,4.24478 4.01271,3.93301 "/>
    <g>
     <path id="_496690920" class="fil7" d="M2.84802 5.44064l0.0672402 0c-0.00300394,-0.298874 -0.00300394,-0.51428 -0.00300394,-0.51428 0,0 -0.0297677,0.223866 -0.0642362,0.51428z"/>
     <path id="_496691424" class="fil7" d="M5.17356 5.44064l-0.0672362 0c0.00299606,-0.298874 0.00299606,-0.51428 0.00299606,-0.51428 0,0 0.0297795,0.223866 0.0642402,0.51428z"/>
    </g>
   </g>
   <g>
    <path id="_496691376" class="fil8" d="M2.55476 5.75031c0,0.0374764 -0.0303228,0.0677402 -0.0676496,0.0677402l-0.304831 0c-0.037315,0 -0.0675866,-0.0302638 -0.0675866,-0.0677402l0 -0.0676732c0,-0.0374094 0.0302717,-0.067748 0.0675866,-0.067748l0.304831 0c0.0373268,0 0.0676496,0.0303386 0.0676496,0.067748l0 0.0676732z"/>
    <path id="_496690824" class="fil8" d="M1.65543 4.56963l0 -0.10122c0,0 0.226362,-0.119122 0.357319,-0.214382 0.130961,-0.0952638 0.140213,-0.210008 0.140213,-0.210008l0.401996 0c0,0 -0.0300669,0.10285 0.0652008,0.174236 0.0952598,0.0715276 0.369197,0.226358 0.369197,0.226358l0 0.125016 -1.33393 0z"/>
    <polygon id="_496690704" class="fil8" points="1.51776,4.89817 1.1855,4.89921 1.18699,5.33915 1.51932,5.33796 "/>
    <polygon id="_496691064" class="fil9" points="1.18634,4.89809 0.853331,4.73828 0.856902,5.49888 1.18783,5.33803 "/>
    <polygon id="_496691352" class="fil8" points="3.11355,4.65983 3.31887,4.65915 3.31974,4.9079 3.11437,4.90865 "/>
    <polygon id="_496690752" class="fil8" points="3.31118,4.65915 3.51643,4.56747 3.51732,4.99774 3.31211,4.90791 "/>
    <polygon id="_496690080" class="fil8" points="1.18634,4.89809 0.853331,4.73828 0.856902,5.49888 1.18783,5.33803 "/>
    <path id="_496690632" class="fil10" d="M3.19188 5.65347c0,0.0394094 -0.0320787,0.0714016 -0.0714961,0.0714016l-1.57212 0c-0.0394764,0 -0.0714606,-0.0319921 -0.0714606,-0.0714016l0 -1.02428c0,-0.0394173 0.0319843,-0.0714606 0.0714606,-0.0714606l1.57212 0c0.0394173,0 0.0714961,0.0320433 0.0714961,0.0714606l0 1.02428z"/>
    <path id="_496690536" class="fil11" d="M3.46197 3.83795c0,0.240098 -0.19463,0.434752 -0.434736,0.434752 -0.240181,0 -0.434843,-0.194654 -0.434843,-0.434752 0,-0.240102 0.194661,-0.434776 0.434843,-0.434776 0.240106,0 0.434736,0.194673 0.434736,0.434776z"/>
    <path id="_496690488" class="fil12" d="M3.02723 3.24665c-0.326602,0 -0.591331,0.264744 -0.591331,0.591291 0,0.326512 0.264728,0.591299 0.591331,0.591299 0.326555,0 0.591276,-0.264787 0.591276,-0.591299 0,-0.326547 -0.26472,-0.591291 -0.591276,-0.591291zm-0.544256 0.600768l0 0c-0.000358268,-0.00414961 -0.000755906,-0.00833071 -0.000755906,-0.0126457 0,-0.0848504 0.0688898,-0.153634 0.15372,-0.153634 0.0799567,0 0.145602,0.0611457 0.152827,0.139319 0.000358268,0.00468898 0.000716535,0.00946063 0.000716535,0.014315 0,0.0847953 -0.0688346,0.15352 -0.153543,0.15352 -0.0806299,0 -0.146563,-0.0620551 -0.152965,-0.140874zm0.354921 0.48052l0 0c-0.0847402,0 -0.1535,-0.0687756 -0.1535,-0.153634 0,-0.0848071 0.0687598,-0.153579 0.1535,-0.153579 0.0849213,0 0.153618,0.0687717 0.153618,0.153579 0,0.0848583 -0.0686969,0.153634 -0.153618,0.153634zm0 -0.66098l0 0c-0.0847402,0 -0.1535,-0.068752 -0.1535,-0.153591 0,-0.0848031 0.0687598,-0.153591 0.1535,-0.153591 0.0849213,0 0.153618,0.0687874 0.153618,0.153591 0,0.0848386 -0.0686969,0.153591 -0.153618,0.153591zm0.383673 -0.309169l0 0c0.0847835,0 0.153559,0.0688268 0.153559,0.153606 0,0.0515394 -0.0254094,0.0970236 -0.0643976,0.12487 -0.0251929,0.0180354 -0.0558701,0.0287008 -0.0891614,0.0287008 -0.0135197,0 -0.0264764,-0.00187008 -0.0389213,-0.00512992 -0.0659528,-0.0172126 -0.114724,-0.0770512 -0.114724,-0.148441 0,-0.0847795 0.0687756,-0.153606 0.153646,-0.153606zm0.00194882 0.97015l0 0c-0.0847992,0 -0.153591,-0.0687756 -0.153591,-0.153634 0,-0.0848071 0.0687913,-0.153579 0.153591,-0.153579 0.0848307,0 0.153579,0.0687717 0.153579,0.153579 0,0.0848583 -0.068748,0.153634 -0.153579,0.153634zm0.202079 -0.343539l0 0c-0.0848504,0 -0.15361,-0.0687795 -0.15361,-0.153535 0,-0.0848858 0.0687598,-0.15365 0.15361,-0.15365 0.0227835,0 0.044378,0.00509843 0.0639213,0.0140551 0.0322835,0.0148071 0.0584606,0.0404803 0.0739803,0.0723268 0.00997638,0.0203661 0.0157126,0.0430551 0.0157126,0.0672677 0,0.0847559 -0.0688307,0.153535 -0.153614,0.153535z"/>
    <path id="_496690008" class="fil8" d="M3.08512 3.83795c0,-0.032 -0.0259921,-0.0579685 -0.0579252,-0.0579685 -0.0320039,0 -0.0579252,0.0259685 -0.0579252,0.0579685 0,0.0320236 0.0259213,0.0579449 0.0579252,0.0579449 0.0319331,0 0.0579252,-0.0259213 0.0579252,-0.0579449z"/>
    <path id="_496690200" class="fil11" d="M2.07635 3.84178c0,0.24011 -0.194642,0.434764 -0.43476,0.434764 -0.240146,0 -0.434803,-0.194654 -0.434803,-0.434764 0,-0.240094 0.194657,-0.434787 0.434803,-0.434787 0.240118,0 0.43476,0.194693 0.43476,0.434787z"/>
    <path id="_496690656" class="fil12" d="M1.64161 3.25048c-0.326618,0 -0.591339,0.264744 -0.591339,0.591299 0,0.326508 0.26472,0.591299 0.591339,0.591299 0.326543,0 0.59124,-0.264791 0.59124,-0.591299 0,-0.326555 -0.264697,-0.591299 -0.59124,-0.591299zm-0.544283 0.600772l0 0c-0.000358268,-0.00416535 -0.000724409,-0.00833071 -0.000724409,-0.0126496 0,-0.0848504 0.068878,-0.153638 0.153685,-0.153638 0.0799724,0 0.14561,0.0611535 0.152831,0.139315 0.00038189,0.00469685 0.000755906,0.00947638 0.000755906,0.0143228 0,0.0847953 -0.0688465,0.153524 -0.153587,0.153524 -0.0805984,0 -0.146551,-0.0620472 -0.152961,-0.140874zm0.354949 0.480516l0 0c-0.084752,0 -0.153512,-0.0687874 -0.153512,-0.153634 0,-0.0848071 0.0687598,-0.153571 0.153512,-0.153571 0.0849173,0 0.153622,0.0687638 0.153622,0.153571 0,0.0848465 -0.0687047,0.153634 -0.153622,0.153634zm0 -0.660969l0 0c-0.084752,0 -0.153512,-0.0687717 -0.153512,-0.153594 0,-0.084811 0.0687598,-0.153598 0.153512,-0.153598 0.0849173,0 0.153622,0.0687874 0.153622,0.153598 0,0.0848228 -0.0687047,0.153594 -0.153622,0.153594zm0.383685 -0.309169l0 0c0.084748,0 0.153531,0.0688228 0.153531,0.153594 0,0.0515433 -0.0254134,0.0970236 -0.0643937,0.124874 -0.0251614,0.0180354 -0.0558701,0.0287008 -0.0891378,0.0287008 -0.0135276,0 -0.0265039,-0.00186614 -0.038937,-0.00512205 -0.0659488,-0.0172323 -0.114736,-0.0770551 -0.114736,-0.148453 0,-0.0847717 0.0687638,-0.153594 0.153673,-0.153594zm0.00192913 0.970138l0 0c-0.0848071,0 -0.153575,-0.0687874 -0.153575,-0.153634 0,-0.0848071 0.0687677,-0.153571 0.153575,-0.153571 0.0848543,0 0.153575,0.0687638 0.153575,0.153571 0,0.0848465 -0.0687205,0.153634 -0.153575,0.153634zm0.202094 -0.343539l0 0c-0.0848465,0 -0.153634,-0.0687677 -0.153634,-0.153539 0,-0.0848701 0.0687874,-0.153654 0.153634,-0.153654 0.0227638,0 0.0443898,0.0051063 0.0638898,0.0140669 0.032311,0.014811 0.0584567,0.0404764 0.0740039,0.0723346 0.00995669,0.0203543 0.0156929,0.0430315 0.0156929,0.067252 0,0.0847717 -0.0688189,0.153539 -0.153587,0.153539z"/>
    <path id="_496690368" class="fil8" d="M1.6995 3.84178c0,-0.032 -0.0259724,-0.0579606 -0.0579291,-0.0579606 -0.0320157,0 -0.057937,0.0259606 -0.057937,0.0579606 0,0.0320197 0.0259213,0.0579528 0.057937,0.0579528 0.0319567,0 0.0579291,-0.0259331 0.0579291,-0.0579528z"/>
   </g>
  </g>
  <rect class="fil13" x="0.0364567" y="-0.00520866" width="6.82666" height="6.82666"/>
 </g>
</svg>
