<?xml version="1.0" encoding="UTF-8"?>
<!DOCTYPE svg PUBLIC "-//W3C//DTD SVG 1.1//EN" "http://www.w3.org/Graphics/SVG/1.1/DTD/svg11.dtd">
<!-- Creator: CorelDRAW -->
<svg xmlns="http://www.w3.org/2000/svg" xml:space="preserve" width="6.82666in" height="6.82666in" style="shape-rendering:geometricPrecision; text-rendering:geometricPrecision; image-rendering:optimizeQuality; fill-rule:evenodd; clip-rule:evenodd"
viewBox="0 0 6.82666 6.82666"
 xmlns:xlink="http://www.w3.org/1999/xlink">
 <defs>
  <style type="text/css">
   <![CDATA[
    .fil20 {fill:none}
    .fil5 {fill:#00796B}
    .fil3 {fill:#212121}
    .fil9 {fill:#263238}
    .fil1 {fill:#26A69A}
    .fil15 {fill:#3B4C55}
    .fil16 {fill:#445862}
    .fil14 {fill:#90CAF9}
    .fil4 {fill:#BB6847}
    .fil19 {fill:#BDBDBD}
    .fil17 {fill:#E0F2F1}
    .fil18 {fill:#E65100}
    .fil6 {fill:#E7F7FF}
    .fil2 {fill:#EBCFC1}
    .fil8 {fill:#FAFAFA}
    .fil0 {fill:#FFDDCC}
    .fil7 {fill:white}
    .fil13 {fill:#455A64;fill-rule:nonzero}
    .fil10 {fill:#78909C;fill-rule:nonzero}
    .fil11 {fill:#ED8803;fill-rule:nonzero}
    .fil12 {fill:#FFA000;fill-rule:nonzero}
   ]]>
  </style>
 </defs>
 <g id="Layer_x0020_1">
  <metadata id="CorelCorpID_0Corel-Layer"/>
  <g id="_487923768">
   <g>
    <path id="_487926480" class="fil0" d="M3.38661 3.20585c-0.784118,0.34376 -1.01935,0.527024 -1.11233,0.609327 -0.143291,0.126795 -0.222543,0.599413 -0.307055,1.00071l1.7741 0 1.77407 0c-0.0845118,-0.401295 -0.163772,-0.873913 -0.307059,-1.00071 -0.0929803,-0.0823031 -0.319594,-0.260839 -1.10372,-0.604642l-0.718008 -0.00468504z"/>
    <path id="_487926264" class="fil1" d="M3.38661 3.20585c-0.784154,0.34376 -1.01935,0.527024 -1.11233,0.609327 -0.143291,0.126795 -0.222543,0.599413 -0.307079,1.00071l1.77412 0 1.77407 0c-0.0845118,-0.401295 -0.163772,-0.873913 -0.307059,-1.00071 -0.0929803,-0.0823031 -0.319594,-0.260839 -1.10372,-0.604642l-0.718008 -0.00468504z"/>
    <path id="_487926072" class="fil0" d="M4.12203 2.5206l0 0.869197c-0.209417,0.25648 -0.552059,0.247598 -0.761476,0l0 -0.869197c0,-0.469346 0.761476,-0.469346 0.761476,0z"/>
    <path id="_487926240" class="fil2" d="M4.12203 2.5206l0 0.581941c-0.144055,0.105028 -0.282921,0.163858 -0.380709,0.163858 -0.0977874,0 -0.236677,-0.0588307 -0.380768,-0.163858l0 -0.581941c0,-0.469346 0.761476,-0.469346 0.761476,0z"/>
    <path id="_487926024" class="fil0" d="M3.74132 0.960083c-1.27787,0 -0.818327,1.54406 -0.73485,1.66696 0.0920394,0.135551 0.528358,0.494811 0.73485,0.494811 0.206433,0 0.642787,-0.35926 0.734819,-0.494811 0.0834764,-0.122898 0.543024,-1.66696 -0.734819,-1.66696z"/>
    <path id="_487926144" class="fil0" d="M2.77077 1.97417c0.0670354,-0.0221063 0.15237,0.0539921 0.190551,0.169988 0.0382205,0.115961 0.0148189,0.227882 -0.0522795,0.249988 -0.0670472,0.0220709 -0.152382,-0.0540276 -0.190563,-0.170024 -0.0381811,-0.115965 -0.0147835,-0.22789 0.0522913,-0.249953z"/>
    <path id="_487926384" class="fil0" d="M4.73135 1.97417c-0.0670709,-0.0221063 -0.15237,0.0540276 -0.190591,0.169988 -0.0381811,0.115961 -0.0147795,0.227882 0.0522913,0.249953 0.067063,0.0221063 0.152406,-0.0539921 0.190591,-0.169988 0.0381811,-0.115965 0.0147717,-0.22789 -0.0522913,-0.249953z"/>
    <path id="_487925304" class="fil3" d="M3.76058 1.44001c-0.39548,0.00197638 -0.782028,-0.0572677 -0.85748,0.809134 -0.191882,-0.677638 0.0704055,-1.40479 0.826004,-1.39856 0.782055,0.00643307 1.06427,0.726236 0.848272,1.39935 -0.175976,-0.929358 -0.459197,-0.811701 -0.816795,-0.809925z"/>
    <path id="_487925328" class="fil4" d="M3.37907 2.54896c0.244134,0.12239 0.519925,0.110469 0.715205,0 -0.0410551,0.168921 -0.200626,0.23622 -0.360469,0.234988 -0.126571,0.0104646 -0.30165,-0.0729173 -0.354736,-0.234988z"/>
    <polygon id="_487925856" class="fil5" points="3.32444,3.19656 3.05439,3.34268 3.44596,3.88546 3.74303,3.60364 "/>
    <polygon id="_487925520" class="fil5" points="4.16162,3.19656 4.43168,3.34268 4.04011,3.88546 3.74303,3.60364 "/>
    <path id="_487925640" class="fil6" d="M3.57758 3.75519l0.0922087 0.14285c0.0476575,0 0.0953386,0 0.143055,0l0.092185 -0.14285 -0.162 -0.155504 -0.165449 0.155504z"/>
    <polygon id="_487925352" class="fil7" points="3.66979,3.89804 3.53848,4.81589 3.94412,4.81589 3.81285,3.89804 "/>
    <path id="_487925184" class="fil8" d="M2.69018 4.81589l0.0607874 0c-0.00271654,-0.270165 -0.00271654,-0.464882 -0.00271654,-0.464882 0,0 -0.0269016,0.202358 -0.0580709,0.464882z"/>
    <path id="_487925592" class="fil8" d="M4.7924 4.81589l-0.0607874 0c0.00271654,-0.270165 0.00274409,-0.464882 0.00274409,-0.464882 0,0 0.0269094,0.202358 0.0580433,0.464882z"/>
   </g>
   <rect id="_487925664" class="fil9" x="1.81101" y="3.86807" width="1.90833" height="0.379243"/>
   <polygon id="_487925112" class="fil10" points="1.67025,2.9933 1.67025,5.12 1.45691,5.12 1.45691,2.9933 "/>
   <polygon id="_487924440" class="fil11" points="0.936732,4.9862 5.38175,4.9862 5.46531,4.9862 5.46531,5.15076 5.08198,5.809 5.08198,5.97357 4.99842,5.97357 0.936732,5.97357 0.853169,5.97357 0.853169,5.809 0.853169,5.15076 0.853169,4.9862 "/>
   <path id="_487924728" class="fil12" d="M5.97911 4.63898c0,0.124768 0,0.249539 0,0.374307l-5.12594 0c0,-0.124768 0,-0.249539 0,-0.374307l5.12594 0z"/>
   <g>
    <path id="_487924944" class="fil13" d="M0.943748 2.47477l1.42659 0 0.0905787 0 0 0.0905787 0 0.577366 0 0.0905787 -0.0905787 0 -1.42659 0 -0.0905787 0 0 -0.0905787 0 -0.577366 0 -0.0905787 0.0905787 0zm1.39085 0.146303l-1.35511 0 0 0.334854 1.35511 0 0 -0.334854z"/>
    <polygon id="_487924632" class="fil14" points="0.979484,2.95593 2.3346,2.95593 2.3346,2.62107 0.979484,2.62107 "/>
   </g>
   <rect id="_487924896" class="fil15" x="1.26934" y="4.04444" width="2.99167" height="0.594535"/>
   <rect id="_487924968" class="fil16" x="1.26934" y="4.14444" width="2.99167" height="0.394535"/>
   <path id="_487924176" class="fil17" d="M3.45026 4.04028l0.673535 0c0.0386693,0.0224528 0.0514213,0.0535433 0.0456614,0.111791l0 0.284555 0.0012126 0 -0.0801457 -0.0801496 -0.0801496 0.0801496 -0.00743701 0 -0.0801457 -0.0801496 -0.0801457 0.0801496 -0.015689 0 -0.0801496 -0.0801496 -0.0801457 0.0801496 -0.010189 0 -0.0801496 -0.0801496 -0.0801457 0.0801496 -0.000255906 0c0,-0.099374 -0.00146457,-0.198752 -0.00146457,-0.29813 0,-0.0327402 -0.00840551,-0.0802874 -0.0441969,-0.0982165z"/>
   <rect id="_487924272" class="fil18" x="3.40161" y="3.97829" width="0.789587" height="0.0661535"/>
   <rect id="_487924080" class="fil19" x="3.8331" y="4.24731" width="0.272571" height="0.0229449"/>
   <rect id="_487923888" class="fil19" x="3.56053" y="4.18519" width="0.545142" height="0.0229449"/>
   <rect id="_487924320" class="fil19" x="3.55706" y="4.1215" width="0.545142" height="0.0229449"/>
  </g>
  <rect class="fil20" x="0.0364567" y="-0.00520866" width="6.82666" height="6.82666"/>
 </g>
</svg>
