<?xml version="1.0" encoding="UTF-8"?>
<!DOCTYPE svg PUBLIC "-//W3C//DTD SVG 1.1//EN" "http://www.w3.org/Graphics/SVG/1.1/DTD/svg11.dtd">
<!-- Creator: CorelDRAW -->
<svg xmlns="http://www.w3.org/2000/svg" xml:space="preserve" width="6.82666in" height="6.82666in" style="shape-rendering:geometricPrecision; text-rendering:geometricPrecision; image-rendering:optimizeQuality; fill-rule:evenodd; clip-rule:evenodd"
viewBox="0 0 6.82666 6.82666"
 xmlns:xlink="http://www.w3.org/1999/xlink">
 <defs>
  <style type="text/css">
   <![CDATA[
    .fil12 {fill:none}
    .fil0 {fill:#A13F0F}
    .fil8 {fill:#A31F3F}
    .fil7 {fill:#B0682C}
    .fil2 {fill:#EDAAC3}
    .fil5 {fill:#EF5350}
    .fil4 {fill:#F6C4AA}
    .fil10 {fill:#F8BBD0}
    .fil1 {fill:#FB8C00}
    .fil6 {fill:#FFB74D}
    .fil3 {fill:#FFDDCC}
    .fil9 {fill:white}
    .fil11 {fill:#FFD180;fill-rule:nonzero}
   ]]>
  </style>
 </defs>
 <g id="Layer_x0020_1">
  <metadata id="CorelCorpID_0Corel-Layer"/>
  <path class="fil0" d="M3.06602 2.07322c0.0982913,-0.158138 0.874244,-0.399673 1.18124,0.244508 0.319614,0.562063 0.15863,0.618327 0.334961,0.816697 0.176299,0.19837 0.153224,0.687953 0.0307165,0.727846 -0.122508,0.0399252 -0.0733268,0.197346 -0.0135787,0.265004 0.255008,0.288783 -0.256697,0.741236 -1.24122,0.736268 -1.71119,-0.00868504 -0.893858,-0.764571 -1.08652,-0.959366 -0.0963937,-0.0974409 -0.195449,-0.514815 0.013937,-0.812386 0.209425,-0.297539 0.0738898,-1.2426 0.780472,-1.01857z"/>
  <path class="fil1" d="M3.76188 4.22643c-0.00714567,0.0112598 -0.711815,0.0224882 -0.719594,0.0335748 -0.221287,0.31574 -0.699488,0.454055 -1.07969,0.539075 -0.37837,0.0845984 -0.393012,0.856894 -0.393575,1.177l3.68861 0c-0.000562992,-0.320102 -0.00760236,-1.09067 -0.393614,-1.177 -0.386039,-0.086315 -0.892189,-0.242555 -1.10215,-0.57265z"/>
  <g id="_487928664">
   <path id="_487928856" class="fil2" d="M2.596 4.59844c-0.0322559,0.0165079 -0.0651575,0.0320787 -0.0984961,0.0467992l0.028063 0.65628 0.100094 -0.00158661 -0.0295866 -0.701516 -7.48031e-005 2.3622e-005z"/>
   <path id="_487928544" class="fil2" d="M4.23067 4.59844c0.0322559,0.0165079 0.0651575,0.0320787 0.0984961,0.0467992l-0.028063 0.65628 -0.100094 -0.00158661 0.0295866 -0.701516 7.48031e-005 2.3622e-005z"/>
  </g>
  <path class="fil3" d="M3.78289 3.55218l0 0.905433c-0.221535,0.388677 -0.553961,0.378827 -0.739126,0l0 -0.905433c0,-0.48887 0.739126,-0.48887 0.739126,0z"/>
  <path class="fil4" d="M3.78289 3.55218l0 0.606205c-0.139858,0.109409 -0.274657,0.170701 -0.369567,0.170701 -0.0949094,0 -0.229701,-0.0612913 -0.369559,-0.170669l0 -0.606236c0,-0.48887 0.739126,-0.48887 0.739126,0z"/>
  <path class="fil3" d="M3.41333 4.17849c-0.240614,0 -0.748917,-0.378299 -0.906067,-0.920079 -0.158661,-0.547102 0.140146,-1.33179 0.906067,-1.33179 0.76589,0 1.06477,0.784685 0.906067,1.33179 -0.157181,0.54178 -0.665457,0.920079 -0.906067,0.920079z"/>
  <path class="fil5" d="M3.1235 3.63305c0.12261,-0.118705 0.218224,-0.029685 0.289827,-0.029685 0.0715984,0 0.167224,-0.0890197 0.289835,0.029685 -0.0658701,0.313051 -0.492283,0.322669 -0.579661,0z"/>
  <path class="fil3" d="M4.43469 3.12943c-0.0774134,-0.0332323 -0.186748,0.0483307 -0.24424,0.182142 -0.0574882,0.133882 -0.0413622,0.269307 0.0360433,0.302535 0.0774134,0.0332638 0.18676,-0.0483031 0.244248,-0.182142 0.0574803,-0.133843 0.0413661,-0.269276 -0.0360512,-0.302535z"/>
  <path class="fil3" d="M2.3912 3.12943c0.0774173,-0.0332323 0.186752,0.0482913 0.244244,0.182142 0.0574882,0.133882 0.0413622,0.269307 -0.0360512,0.302567 -0.0774173,0.0332323 -0.186752,-0.0482913 -0.24424,-0.182173 -0.0574921,-0.133843 -0.0413268,-0.269276 0.0360472,-0.302535z"/>
  <g id="_487927632">
   <path id="_487927944" class="fil6" d="M3.03741 4.25931l-0.26378 0.241102c0.107098,0.426169 0.322157,0.73578 0.624925,0.245898l-0.361146 -0.487z"/>
   <path id="_487927872" class="fil6" d="M3.77678 4.25931l0.276256 0.241102c-0.112165,0.426169 -0.337394,0.73578 -0.654488,0.245898l0.378232 -0.487z"/>
  </g>
  <polygon class="fil6" points="3.32547,5.68442 3.50115,5.68442 3.50115,4.74934 3.32547,4.74934 "/>
  <g id="_487928160">
   <path id="_487927992" class="fil7" d="M2.16044 5.97608c0.00235827,-0.0725197 0.0311772,-0.451488 0.0495472,-0.557945 -0.0343031,0.103819 -0.109189,0.389886 -0.125626,0.557945l0.0760787 0z"/>
   <path id="_487927824" class="fil7" d="M4.66621 5.97608c-0.0023622,-0.0725197 -0.0311772,-0.451488 -0.0495472,-0.557945 0.0343031,0.103819 0.109189,0.389886 0.125626,0.557945l-0.0760787 0z"/>
  </g>
  <path class="fil8" d="M3.19787 3.69976c0.0856969,-0.0320551 0.161449,0.0307087 0.215362,0.0307087 0.0539134,0 0.129862,-0.0842913 0.215559,-0.0275039 -0.100421,0.108543 -0.329819,0.102669 -0.430921,-0.00320472z"/>
  <path class="fil9" d="M3.16113 3.64923c0.0338858,-0.00866142 0.137909,0.0247402 0.244874,0.0239331 0.104606,-0.000787402 0.212055,-0.0360197 0.25952,-0.0276614 -0.0792756,0.145949 -0.437299,0.1375 -0.504394,0.00372835z"/>
  <path class="fil0" d="M2.49593 2.65243c0.0315315,-1.03099 1.82659,-0.934409 1.8348,0 -0.528091,0.126772 -1.37919,0.106008 -1.8348,0z"/>
  <path class="fil0" d="M3.89317 2.4443c0.363307,0.231488 0.384614,0.542433 0.3995,0.782744 0.163335,-0.203579 0.177398,-0.924335 -0.3995,-0.782744z"/>
  <path class="fil0" d="M2.91224 2.4443c-0.363343,0.231488 -0.38465,0.542433 -0.399504,0.782744 -0.163366,-0.203579 -0.177437,-0.924335 0.399504,-0.782744z"/>
  <path class="fil10" d="M2.42217 5.23092c0.353268,0 0.643571,0.0706024 0.991161,0.0706024 0.34924,0 0.641846,-0.0706024 0.997642,-0.0706024 0.0755197,0 0.192031,0.00870866 0.183157,0.136677 -0.0107913,0.155547 -0.0524646,0.436492 0.0487087,0.608484l-2.45902 0c0.114197,-0.194134 0.0412244,-0.456752 0.0412244,-0.591512 0,-0.133819 0.126764,-0.152362 0.197122,-0.15365z"/>
  <path class="fil11" d="M4.19146 1.67161l0 0.49035 0 0.0453071 -0.0486339 0.0170906c-0.257047,0.0903307 -0.514106,0.140071 -0.771161,0.142374 -0.258012,0.00230709 -0.514331,-0.0432047 -0.768681,-0.143429l-0.0455945 -0.0179646 0 -0.043378 0 -0.505531c-0.0606575,-0.0206772 -0.113087,-0.0498465 -0.152811,-0.0877008 -0.0508898,-0.0484921 -0.080626,-0.109445 -0.080626,-0.183004 0,-0.0766457 0.060748,-0.148728 0.141421,-0.203075 0.0878819,-0.0592047 0.204913,-0.100209 0.286551,-0.100209 0.0491772,0 0.079126,0.00129134 0.099685,0.0037874 0.0439961,-0.063248 0.10852,-0.117429 0.185047,-0.158193 0.0973937,-0.051874 0.215122,-0.0824921 0.334862,-0.0824921 0.114098,0 0.215339,0.0222874 0.300929,0.0610748 0.0677441,0.0306969 0.125098,0.0714882 0.17085,0.119594 0.0426378,-0.0206024 0.0911063,-0.0320945 0.205256,-0.0320945 0.0957244,0 0.218201,0.0449173 0.309642,0.112965 0.0834646,0.0621063 0.144512,0.144909 0.144512,0.23448 0,0.090063 -0.040437,0.168154 -0.10778,0.227839 -0.053437,0.0473622 -0.123661,0.0825827 -0.203469,0.102209z"/>
  <rect class="fil12" x="0.0364567" y="-0.00520866" width="6.82666" height="6.82666"/>
 </g>
</svg>
