<?xml version="1.0" encoding="UTF-8"?>
<!DOCTYPE svg PUBLIC "-//W3C//DTD SVG 1.1//EN" "http://www.w3.org/Graphics/SVG/1.1/DTD/svg11.dtd">
<!-- Creator: CorelDRAW -->
<svg xmlns="http://www.w3.org/2000/svg" xml:space="preserve" width="6.82666in" height="6.82666in" style="shape-rendering:geometricPrecision; text-rendering:geometricPrecision; image-rendering:optimizeQuality; fill-rule:evenodd; clip-rule:evenodd"
viewBox="0 0 6.82666 6.82666"
 xmlns:xlink="http://www.w3.org/1999/xlink">
 <defs>
  <style type="text/css">
   <![CDATA[
    .fil8 {fill:none}
    .fil3 {fill:#424242}
    .fil2 {fill:#D4AF9B}
    .fil1 {fill:#DBC0B3}
    .fil5 {fill:#DD2C00}
    .fil6 {fill:#E1F5FE}
    .fil4 {fill:#E64A19}
    .fil0 {fill:#E6CABD}
    .fil7 {fill:#BDBDBD;fill-rule:nonzero}
   ]]>
  </style>
 </defs>
 <g id="Layer_x0020_1">
  <metadata id="CorelCorpID_0Corel-Layer"/>
  <g id="_487929120">
   <path id="_487930560" class="fil0" d="M3.04242 4.28094c-0.819976,0.359488 -1.06596,0.551142 -1.1632,0.637181 -0.149835,0.132591 -0.232717,0.626835 -0.321094,1.04648l1.85519 0 1.85521 0c-0.088374,-0.419642 -0.171248,-0.913886 -0.321094,-1.04648 -0.0971969,-0.0860394 -0.334169,-0.272768 -1.15419,-0.632264l-0.750823 -0.00491732z"/>
   <path id="_487930704" class="fil0" d="M3.81149 3.56437l0 0.908945c-0.218988,0.268193 -0.577323,0.258913 -0.796287,0l0 -0.908945c0,-0.490783 0.796287,-0.490783 0.796287,0z"/>
   <path id="_487930752" class="fil1" d="M3.81149 3.56437l0 0.608539c-0.150673,0.109827 -0.29589,0.171346 -0.398146,0.171346 -0.10226,0 -0.2475,-0.0615197 -0.398142,-0.171331l0 -0.608555c0,-0.490783 0.796287,-0.490783 0.796287,0z"/>
   <path id="_487930824" class="fil2" d="M2.39589 2.81662c0.0701024,-0.0230709 0.159339,0.0564961 0.199264,0.17778 0.0399646,0.121272 0.0154606,0.238307 -0.0546417,0.261398 -0.0701417,0.0230984 -0.159374,-0.0564803 -0.199303,-0.17776 -0.0399567,-0.121264 -0.0154606,-0.238299 0.0546811,-0.261417z"/>
   <path id="_487929792" class="fil2" d="M4.44611 2.81663c-0.0701378,-0.0230866 -0.159374,0.0564803 -0.199303,0.177764 -0.0399291,0.121272 -0.0154567,0.238307 0.0546811,0.261398 0.0701299,0.0230984 0.159366,-0.0564882 0.199295,-0.17776 0.0399646,-0.121264 0.0154685,-0.238299 -0.0546732,-0.261402z"/>
   <path id="_487930296" class="fil0" d="M3.41331 1.93251c-1.33626,0 -0.855705,1.61465 -0.768413,1.74317 0.0962362,0.141736 0.552539,0.517441 0.768413,0.517441 0.215933,0 0.672177,-0.375697 0.768449,-0.517441 0.0873189,-0.128535 0.56785,-1.74317 -0.768449,-1.74317z"/>
   <path id="_487930224" class="fil3" d="M3.10602 2.29687c-0.227898,-0.148445 -0.520075,0.411075 -0.598469,0.865862 -0.0650315,-0.387327 -0.0134173,-1.1802 0.118878,-1.36661 0.0157756,-0.141413 1.48983,-0.117287 1.50582,0.0187835 0.086122,0.18876 0.25748,0.886154 0.192449,1.27878 -0.0838189,-0.369843 -0.379791,-0.950902 -0.603933,-0.796823 -0.18672,0.128366 -0.427791,0.121756 -0.614744,0z"/>
   <path id="_487930128" class="fil2" d="M2.9849 3.5344c0.292524,0.113142 0.622933,0.102087 0.856878,0 -0.0935157,0.242114 -0.723575,0.244079 -0.856878,0z"/>
   <path id="_487929720" class="fil4" d="M2.73386 4.42475c-0.57661,0.270728 -0.77085,0.423268 -0.854634,0.497402 -0.149835,0.132587 -0.232717,0.626811 -0.321118,1.04648l1.85521 0 1.85524 0c-0.0884016,-0.419669 -0.171276,-0.913913 -0.321122,-1.04648 -0.0809291,-0.0716535 -0.258882,-0.21313 -0.789524,-0.465992 -0.0037874,0.00391339 -0.009,0.0066811 -0.0113228,0.0117402 -0.144531,0.316465 -0.399465,0.496878 -0.664087,0.586768 -0.366819,-0.0719331 -0.681803,-0.356268 -0.730681,-0.605039 -0.00595669,-0.00846063 -0.0119764,-0.0165669 -0.0179567,-0.024878z"/>
   <path id="_487930104" class="fil5" d="M1.78515 5.06674c-0.0943583,0.212575 -0.159094,0.579252 -0.227039,0.901894l0.753142 0c-0.0168465,-0.526378 -0.0177677,-0.806343 -0.526102,-0.901894z"/>
   <path id="_487929864" class="fil5" d="M5.04151 5.06674c0.0943937,0.212575 0.159094,0.579252 0.227039,0.901894l-0.753142 0c0.0168189,-0.526378 0.0177795,-0.806343 0.526102,-0.901894z"/>
   <path id="_487930200" class="fil5" d="M2.73386 4.42475c-0.0545551,0.0256063 -0.105681,0.0501535 -0.153606,0.073685 0.139445,0.29048 0.394315,0.583098 0.902244,0.698248 0.441185,-0.132854 0.672732,-0.402976 0.805906,-0.677122 -0.0409764,-0.020311 -0.0843622,-0.0414331 -0.130496,-0.0634016 -0.0037874,0.00391339 -0.009,0.0066811 -0.0113228,0.0117402 -0.144531,0.316465 -0.399465,0.496878 -0.664087,0.586768 -0.366819,-0.0719331 -0.681803,-0.356268 -0.730681,-0.605039 -0.00595669,-0.00846063 -0.0119764,-0.0165669 -0.0179567,-0.024878z"/>
   <g>
    <path id="_487930344" class="fil6" d="M2.64148 4.46577c-0.0304606,0.018063 -0.0615315,0.0351024 -0.0930118,0.0512126l0.0265 0.718173 0.0945236 -0.00173622 -0.0279409 -0.767673 -7.08661e-005 2.3622e-005z"/>
    <path id="_487929240" class="fil6" d="M4.18518 4.46577c0.0304606,0.018063 0.0615315,0.0351024 0.0930118,0.0512126l-0.0265 0.718173 -0.0945236 -0.00173622 0.0279409 -0.767673 7.08661e-005 2.3622e-005z"/>
   </g>
   <path id="_487929696" class="fil6" d="M2.47733 5.1579c0.33361,0 0.607756,0.0772598 0.936,0.0772598 0.329803,0 0.606126,-0.0772598 0.942118,-0.0772598 0.071315,0 0.181343,0.00952756 0.172965,0.149567 -0.0101929,0.170217 -0.0495472,0.477654 0.0459961,0.665866l-2.32216 0c0.107839,-0.212441 0.0389291,-0.499827 0.0389291,-0.647295 0,-0.146437 0.119709,-0.166732 0.18615,-0.168138z"/>
   <path id="_487929144" class="fil7" d="M4.31118 1.69455l-0.0709291 0.446614 0 0.0425079 -0.0504646 0.0160315c-0.266717,0.084752 -0.55698,0.131398 -0.823705,0.133559 -0.26772,0.00216535 -0.533681,-0.0405354 -0.797602,-0.134571l-0.047311 -0.0168543 0 -0.0406969 -0.075815 -0.462075c-0.0683071,-0.0210512 -0.127354,-0.0507598 -0.172094,-0.0893071 -0.057311,-0.049378 -0.0908031,-0.111449 -0.0908031,-0.186354 0,-0.0780472 0.0684173,-0.151449 0.159268,-0.206791 0.0989764,-0.0602874 0.230776,-0.102047 0.322717,-0.102047 0.0553858,0 0.0891142,0.00131496 0.112264,0.0038622 0.0495551,-0.0644055 0.122217,-0.119579 0.208406,-0.161087 0.109677,-0.0528268 0.242268,-0.0840079 0.377118,-0.0840079 0.128496,0 0.242512,0.0227008 0.338906,0.0621969 0.0762874,0.0312559 0.14089,0.0727953 0.192409,0.121783 0.0480157,-0.0209803 0.10261,-0.032689 0.231157,-0.032689 0.107807,0 0.24574,0.0457441 0.34872,0.115039 0.0939961,0.0632402 0.162752,0.147563 0.162752,0.238772 0,0.0917126 -0.0455433,0.171232 -0.121382,0.232008 -0.0601811,0.0482323 -0.113732,0.084122 -0.20361,0.104106z"/>
  </g>
  <rect class="fil8" x="0.0364567" y="-0.00520866" width="6.82666" height="6.82666"/>
 </g>
</svg>
