<?xml version="1.0" encoding="UTF-8"?>
<!DOCTYPE svg PUBLIC "-//W3C//DTD SVG 1.1//EN" "http://www.w3.org/Graphics/SVG/1.1/DTD/svg11.dtd">
<!-- Creator: CorelDRAW -->
<svg xmlns="http://www.w3.org/2000/svg" xml:space="preserve" width="6.82666in" height="6.82666in" style="shape-rendering:geometricPrecision; text-rendering:geometricPrecision; image-rendering:optimizeQuality; fill-rule:evenodd; clip-rule:evenodd"
viewBox="0 0 6.82666 6.82666"
 xmlns:xlink="http://www.w3.org/1999/xlink">
 <defs>
  <style type="text/css">
   <![CDATA[
    .fil15 {fill:none}
    .fil9 {fill:#0288D1}
    .fil7 {fill:#29B6F6}
    .fil0 {fill:#424242}
    .fil10 {fill:#4FC3F7}
    .fil6 {fill:#6690B5}
    .fil12 {fill:#7CB342}
    .fil5 {fill:#85BCEB}
    .fil11 {fill:#90A4AE}
    .fil13 {fill:#9CCC65}
    .fil2 {fill:#B88052}
    .fil3 {fill:#CF976A}
    .fil14 {fill:#CFD8DC}
    .fil1 {fill:#E6A875}
    .fil4 {fill:white}
    .fil8 {fill:#039BE5;fill-rule:nonzero}
   ]]>
  </style>
 </defs>
 <g id="Layer_x0020_1">
  <metadata id="CorelCorpID_0Corel-Layer"/>
  <path class="fil0" d="M4.82785 2.63794c0.158102,0 0.287047,-0.128945 0.287047,-0.287047 0,-0.158071 -0.128945,-0.28702 -0.287047,-0.28702 -0.158071,0 -0.287016,0.128949 -0.287016,0.28702 0,0.158102 0.128945,0.287047 0.287016,0.287047z"/>
  <path class="fil0" d="M4.54578 2.51174c0.158102,0 0.287016,-0.128945 0.287016,-0.287024 0,-0.158102 -0.128913,-0.287039 -0.287016,-0.287039 -0.158106,0 -0.287016,0.128937 -0.287016,0.287039 0,0.158079 0.128909,0.287024 0.287016,0.287024z"/>
  <path class="fil0" d="M4.11522 2.4672c0.158106,0 0.287016,-0.128937 0.287016,-0.287039 0,-0.158079 -0.128909,-0.287024 -0.287016,-0.287024 -0.158102,0 -0.287016,0.128945 -0.287016,0.287024 0,0.158102 0.128913,0.287039 0.287016,0.287039z"/>
  <path class="fil0" d="M3.7292 2.60825c0.158102,0 0.287039,-0.128937 0.287039,-0.287039 0,-0.158106 -0.128937,-0.287028 -0.287039,-0.287028 -0.158079,0 -0.287024,0.128921 -0.287024,0.287028 0,0.158102 0.128945,0.287039 0.287024,0.287039z"/>
  <path class="fil0" d="M3.5065 2.92745c0.158102,0 0.287047,-0.128913 0.287047,-0.287016 0,-0.158106 -0.128945,-0.287051 -0.287047,-0.287051 -0.158075,0 -0.287043,0.128945 -0.287043,0.287051 0,0.158102 0.128969,0.287016 0.287043,0.287016z"/>
  <path class="fil0" d="M5.07282 2.93487c0.158102,0 0.287016,-0.128913 0.287016,-0.287016 0,-0.158102 -0.128913,-0.287047 -0.287016,-0.287047 -0.158102,0 -0.287016,0.128945 -0.287016,0.287047 0,0.158102 0.128913,0.287016 0.287016,0.287016z"/>
  <path class="fil0" d="M5.08767 3.33573c0.158102,0 0.287016,-0.128937 0.287016,-0.287043 0,-0.158079 -0.128913,-0.287024 -0.287016,-0.287024 -0.158102,0 -0.287016,0.128945 -0.287016,0.287024 0,0.158106 0.128913,0.287043 0.287016,0.287043z"/>
  <path class="fil0" d="M4.87981 3.81825c0.158102,0 0.287047,-0.128945 0.287047,-0.287016 0,-0.158106 -0.128945,-0.287051 -0.287047,-0.287051 -0.158075,0 -0.28702,0.128945 -0.28702,0.287051 0,0.158071 0.128945,0.287016 0.28702,0.287016z"/>
  <path class="fil0" d="M3.48423 3.2912c0.158102,0 0.287047,-0.128945 0.287047,-0.287016 0,-0.158106 -0.128945,-0.287051 -0.287047,-0.287051 -0.158102,0 -0.287039,0.128945 -0.287039,0.287051 0,0.158071 0.128937,0.287016 0.287039,0.287016z"/>
  <path class="fil0" d="M3.69209 3.85539c0.158106,0 0.287016,-0.128945 0.287016,-0.287051 0,-0.158102 -0.128909,-0.287024 -0.287016,-0.287024 -0.158102,0 -0.287016,0.128921 -0.287016,0.287024 0,0.158106 0.128913,0.287051 0.287016,0.287051z"/>
  <path class="fil0" d="M5.04645 3.60994c0.158106,0 0.287051,-0.128909 0.287051,-0.287016 0,-0.158102 -0.128945,-0.287016 -0.287051,-0.287016 -0.158071,0 -0.287016,0.128913 -0.287016,0.287016 0,0.158106 0.128945,0.287016 0.287016,0.287016z"/>
  <path class="fil0" d="M3.52589 3.58978c0.158102,0 0.287016,-0.128945 0.287016,-0.287051 0,-0.158102 -0.128913,-0.287016 -0.287016,-0.287016 -0.158106,0 -0.287051,0.128913 -0.287051,0.287016 0,0.158106 0.128945,0.287051 0.287051,0.287051z"/>
  <path class="fil1" d="M3.96024 4.34259c-0.741539,0.325075 -0.963961,0.498382 -1.05192,0.576213 -0.135504,0.119906 -0.210449,0.566839 -0.29037,0.946327l1.67769 0 1.67769 0c-0.0799449,-0.379488 -0.154898,-0.826421 -0.290398,-0.946327 -0.0879252,-0.0778307 -0.302224,-0.246665 -1.04374,-0.571783l-0.678957 -0.00442913z"/>
  <path class="fil1" d="M4.65569 3.69457l0 0.821961c-0.198035,0.242543 -0.522047,0.234142 -0.720083,0l0 -0.821961c0,-0.443839 0.720083,-0.443839 0.720083,0z"/>
  <path class="fil2" d="M4.65569 3.69457l0 0.550319c-0.136248,0.099315 -0.267567,0.154953 -0.360039,0.154953 -0.0924764,0 -0.223819,-0.0556378 -0.360043,-0.154953l0 -0.550319c0,-0.443839 0.720083,-0.443839 0.720083,0z"/>
  <path class="fil1" d="M4.29565 2.21886c-1.20843,0 -0.773858,1.46015 -0.694921,1.57637 0.0870394,0.128185 0.499681,0.467921 0.694921,0.467921 0.195213,0 0.607854,-0.339736 0.694917,-0.467921 0.078937,-0.11622 0.513488,-1.57637 -0.694917,-1.57637z"/>
  <path class="fil1" d="M3.37555 3.16351c0.0633976,-0.020874 0.144091,0.0510906 0.180201,0.16076 0.0361063,0.109657 0.0139803,0.215496 -0.0494488,0.236394 -0.0633937,0.020874 -0.144091,-0.0510945 -0.180197,-0.160752 -0.0361102,-0.109685 -0.0139803,-0.215508 0.0494449,-0.236402z"/>
  <path class="fil1" d="M5.22959 3.16351c-0.0634291,-0.020874 -0.144102,0.0510906 -0.180232,0.16076 -0.0361102,0.109657 -0.0139803,0.215496 0.0494409,0.236394 0.0634252,0.020874 0.144122,-0.0510945 0.180228,-0.160752 0.0361102,-0.109685 0.0139803,-0.215508 -0.049437,-0.236402z"/>
  <path class="fil0" d="M4.19686 2.71217c0.158102,0 0.287047,-0.128913 0.287047,-0.287016 0,-0.158102 -0.128945,-0.287051 -0.287047,-0.287051 -0.158071,0 -0.287016,0.128949 -0.287016,0.287051 0,0.158102 0.128945,0.287016 0.287016,0.287016z"/>
  <path class="fil0" d="M4.59031 2.69732c0.158102,0 0.287047,-0.128945 0.287047,-0.287016 0,-0.158102 -0.128945,-0.287051 -0.287047,-0.287051 -0.158106,0 -0.287016,0.128949 -0.287016,0.287051 0,0.158071 0.128909,0.287016 0.287016,0.287016z"/>
  <path class="fil0" d="M3.90737 2.80126c0.158102,0 0.287039,-0.128945 0.287039,-0.287047 0,-0.158094 -0.128937,-0.287016 -0.287039,-0.287016 -0.158102,0 -0.287024,0.128921 -0.287024,0.287016 0,0.158102 0.128921,0.287047 0.287024,0.287047z"/>
  <path class="fil0" d="M3.69376 2.90111c0.1345,0 0.244161,-0.109693 0.244161,-0.244165 0,-0.134492 -0.109661,-0.244154 -0.244161,-0.244154 -0.134492,0 -0.244154,0.109661 -0.244154,0.244154 0,0.134472 0.109661,0.244165 0.244154,0.244165z"/>
  <path class="fil0" d="M4.82043 2.87549c0.158102,0 0.287047,-0.128913 0.287047,-0.287016 0,-0.158102 -0.128945,-0.287047 -0.287047,-0.287047 -0.158106,0 -0.287051,0.128945 -0.287051,0.287047 0,0.158102 0.128945,0.287016 0.287051,0.287016z"/>
  <path class="fil0" d="M5.05346 3.07011c0.111531,0 0.202472,-0.0909567 0.202472,-0.202465 0,-0.111531 -0.0909409,-0.202472 -0.202472,-0.202472 -0.111508,0 -0.202472,0.0909409 -0.202472,0.202472 0,0.111508 0.0909646,0.202465 0.202472,0.202465z"/>
  <path class="fil0" d="M3.56384 3.10896c0.107937,0 0.195937,-0.0880118 0.195937,-0.195913 0,-0.107902 -0.088,-0.195913 -0.195937,-0.195913 -0.107902,0 -0.195913,0.0880118 -0.195913,0.195913 0,0.107902 0.0880118,0.195913 0.195913,0.195913z"/>
  <path class="fil0" d="M3.52302 3.24259c0.0690669,0 0.125398,-0.0563425 0.125398,-0.125406 0,-0.0690906 -0.0563307,-0.125398 -0.125398,-0.125398 -0.069063,0 -0.125398,0.0563071 -0.125398,0.125398 0,0.069063 0.0563346,0.125406 0.125398,0.125406z"/>
  <path class="fil0" d="M5.08934 3.25743c0.069063,0 0.125406,-0.0563307 0.125406,-0.125398 0,-0.0690669 -0.0563425,-0.125398 -0.125406,-0.125398 -0.0690591,0 -0.125398,0.0563307 -0.125398,0.125398 0,0.0690669 0.0563386,0.125398 0.125398,0.125398z"/>
  <path class="fil0" d="M3.53786 3.35393c0.0486378,0 0.0882874,-0.0396575 0.0882874,-0.0882953 0,-0.0486063 -0.0396496,-0.088252 -0.0882874,-0.088252 -0.0486102,0 -0.0882598,0.0396457 -0.0882598,0.088252 0,0.0486378 0.0396496,0.0882953 0.0882598,0.0882953z"/>
  <path class="fil0" d="M5.07449 3.3465c0.0486378,0 0.0882913,-0.0396457 0.0882913,-0.0882835 0,-0.0486063 -0.0396535,-0.0882638 -0.0882913,-0.0882638 -0.0486063,0 -0.0882559,0.0396575 -0.0882559,0.0882638 0,0.0486378 0.0396496,0.0882835 0.0882559,0.0882835z"/>
  <path class="fil3" d="M3.9082 3.66748c0.101374,0.0795315 0.673512,0.0751496 0.774886,0 -0.0880906,0.418449 -0.658059,0.431311 -0.774886,0z"/>
  <path class="fil4" d="M3.9356 4.35342c-0.721787,0.318102 -0.940331,0.488453 -1.02728,0.565386 -0.135504,0.119906 -0.210449,0.566839 -0.29037,0.946327l1.67769 0 1.67769 0c-0.0799449,-0.379488 -0.154898,-0.826421 -0.290398,-0.946327 -0.0872559,-0.0772402 -0.299098,-0.244161 -1.02725,-0.564492 -0.14328,0.194098 -0.534272,0.225906 -0.720083,-0.000893701z"/>
  <path class="fil5" d="M3.84302 4.39465c-0.648177,0.291705 -0.851567,0.450594 -0.934693,0.52415 -0.135504,0.119906 -0.210449,0.566839 -0.29037,0.946327l1.67769 0 1.67769 0c-0.0799449,-0.379488 -0.154898,-0.826421 -0.290398,-0.946327 -0.0826772,-0.0731969 -0.27728,-0.226909 -0.916894,-0.515362 -0.286118,0.30187 -0.822681,0.205626 -0.923028,-0.0087874z"/>
  <path class="fil6" d="M3.30166 5.86513l0.0574803 0c-0.00256693,-0.255484 -0.00259843,-0.439618 -0.00259843,-0.439618 0,0 -0.0254488,0.191358 -0.0548819,0.439618z"/>
  <path class="fil6" d="M5.28963 5.86513l-0.0574803 0c0.00256693,-0.255484 0.00256693,-0.439618 0.00256693,-0.439618 0,0 0.0254488,0.191358 0.0549134,0.439618z"/>
  <path class="fil7" d="M4.29956 1.71338c0.388362,-0.00284646 0.989421,0.281571 1.09107,0.855024l-2.16442 0c0.024878,-0.496114 0.666571,-0.852047 1.07335,-0.855024z"/>
  <path class="fil8" d="M4.29854 1.73948c-0.115709,0.0428425 -0.226933,0.101976 -0.326213,0.204382 -0.0995079,0.102642 -0.187331,0.249039 -0.256138,0.466449l-0.0244961 -0.00817323c0.0701693,-0.221724 0.160181,-0.371484 0.26239,-0.476913 0.102445,-0.105669 0.21687,-0.166559 0.335791,-0.210591l0.00866535 0.0248465z"/>
  <path class="fil8" d="M4.29854 1.73948c0.115709,0.0428425 0.226937,0.101976 0.326213,0.204382 0.0995118,0.102642 0.187331,0.249039 0.256138,0.466449l0.0245 -0.00817323c-0.0701732,-0.221724 -0.160181,-0.371484 -0.262394,-0.476913 -0.102441,-0.105669 -0.216866,-0.166559 -0.335787,-0.210591l-0.00866929 0.0248465z"/>
  <ellipse class="fil9" cx="4.29421" cy="1.72673" rx="0.122572" ry="0.0702512"/>
  <path class="fil10" d="M5.36919 2.64044c-0.0338307,0.110126 -0.0892283,0.252327 -0.252917,0.290087 -0.174717,0.0403071 -0.584685,-0.100858 -0.801945,-0.100858 -0.228343,0 -0.564039,0.125972 -0.744535,0.0817835 -0.181508,-0.0444331 -0.277579,-0.190075 -0.327831,-0.306126 -0.0149173,-0.0344449 -0.0287126,-0.0399646 0.00575591,-0.0613071 0.429441,-0.265921 1.57155,-0.285087 2.14085,0.0131142 0.00674409,0.0148976 -0.0101339,0.0532244 -0.019374,0.0833071z"/>
  <polygon class="fil11" points="2.41706,2.07634 2.58861,2.02046 3.86508,5.86649 3.67452,5.86513 "/>
  <polygon class="fil12" points="1.17865,2.59121 3.892,1.71174 3.84285,1.56009 1.12949,2.43956 "/>
  <path class="fil13" d="M0.853335 2.1969l3.07081 -0.995327 0.0526654 0.16248c0.0289606,0.0893622 -0.0204567,0.186173 -0.109819,0.215134l-2.74585 0.89c-0.0893622,0.0289685 -0.186173,-0.0204449 -0.215138,-0.109807l-0.0526654 -0.16248z"/>
  <polygon class="fil14" points="0.901114,1.86422 3.6903,0.960169 3.78333,1.24722 0.994154,2.15126 "/>
  <rect class="fil15" x="0.0364567" y="-0.00520866" width="6.82666" height="6.82666"/>
 </g>
</svg>
