<?xml version="1.0" encoding="UTF-8"?>
<!DOCTYPE svg PUBLIC "-//W3C//DTD SVG 1.1//EN" "http://www.w3.org/Graphics/SVG/1.1/DTD/svg11.dtd">
<!-- Creator: CorelDRAW -->
<svg xmlns="http://www.w3.org/2000/svg" xml:space="preserve" width="6.82666in" height="6.82666in" style="shape-rendering:geometricPrecision; text-rendering:geometricPrecision; image-rendering:optimizeQuality; fill-rule:evenodd; clip-rule:evenodd"
viewBox="0 0 6.82666 6.82666"
 xmlns:xlink="http://www.w3.org/1999/xlink">
 <defs>
  <style type="text/css">
   <![CDATA[
    .fil12 {fill:none}
    .fil0 {fill:#0F0D0D}
    .fil11 {fill:#1C1B1B}
    .fil9 {fill:#212121}
    .fil2 {fill:#26A69A}
    .fil8 {fill:#272727}
    .fil5 {fill:#616161}
    .fil3 {fill:#B88052}
    .fil1 {fill:#E6A875}
    .fil4 {fill:#EFB88A}
    .fil10 {fill:#004D40;fill-rule:nonzero}
    .fil6 {fill:#212121;fill-rule:nonzero}
    .fil7 {fill:#272727;fill-rule:nonzero}
   ]]>
  </style>
 </defs>
 <g id="Layer_x0020_1">
  <metadata id="CorelCorpID_0Corel-Layer"/>
  <g id="_492211976">
   <polygon id="_492213512" class="fil0" points="2.30221,3.49516 3.41835,3.06079 4.54081,3.49516 4.18302,4.14153 3.84005,4.32296 2.73865,4.27174 "/>
   <path id="_492213104" class="fil1" d="M3.85109 3.34601l0 0.999366c-0.240776,0.29489 -0.634724,0.284677 -0.8755,0l0 -0.999366c0,-0.539634 0.8755,-0.539634 0.8755,0z"/>
   <path id="_492213368" class="fil2" d="M2.97577 4.27957c-0.626618,0.339496 -0.82324,0.524417 -0.903602,0.61002 -0.131,0.139551 -0.203453,0.638087 -0.280713,1.07975l3.23837 0.0014685c-0.0772835,-0.441661 -0.144346,-0.941665 -0.275339,-1.08122 -0.0799291,-0.085189 -0.268059,-0.264083 -0.886398,-0.599791 -0.276598,0.351327 -0.795315,0.239311 -0.892323,-0.0102283z"/>
   <path id="_492213464" class="fil3" d="M3.85109 3.34601l0 0.669094c-0.165657,0.120752 -0.325319,0.188394 -0.437752,0.188394 -0.112429,0 -0.272118,-0.0676417 -0.437748,-0.188394l0 -0.669094c0,-0.539634 0.8755,-0.539634 0.8755,0z"/>
   <path id="_492213176" class="fil1" d="M2.29466 2.70033c0.0770787,-0.025378 0.175193,0.0621181 0.219091,0.195457 0.0439016,0.133327 0.017,0.262008 -0.0601181,0.287413 -0.0770787,0.025378 -0.175193,-0.0621181 -0.219091,-0.195445 -0.0439016,-0.133358 -0.017,-0.26202 0.0601181,-0.287425z"/>
   <path id="_492213344" class="fil1" d="M4.54886 2.70033c-0.0771181,-0.025378 -0.175201,0.0621181 -0.21913,0.195457 -0.0439016,0.133327 -0.017,0.262008 0.0601102,0.287413 0.0771181,0.025378 0.175228,-0.0621181 0.21913,-0.195445 0.0439016,-0.133358 0.0169961,-0.26202 -0.0601102,-0.287425z"/>
   <path id="_492212960" class="fil4" d="M3.41334 1.55179c-1.20933,0 -1.06529,1.20275 -0.922972,1.70708 0.0830354,0.29426 0.515705,0.702642 0.765744,0.757228 0.214358,0.0128031 0.106898,0.0136299 0.27222,0.0136299 0.273098,0 0.746976,-0.521079 0.826618,-0.84113 0.133701,-0.537311 0.21463,-1.63681 -0.94161,-1.63681z"/>
   <path id="_492212648" class="fil3" d="M2.97557 3.58135c0.298882,-0.0866535 0.636476,-0.078189 0.875512,0 -0.0955512,-0.185437 -0.739315,-0.186937 -0.875512,0z"/>
   <path id="_492212576" class="fil3" d="M3.14106 3.49799c0.185898,0.0538976 0.395874,0.0486299 0.544547,0 -0.0594291,0.115335 -0.459835,0.116272 -0.544547,0z"/>
   <path id="_492212504" class="fil5" d="M3.07431 2.17625c-0.249535,-0.147618 -0.569449,0.408776 -0.655287,0.861028 -0.0712047,-0.385165 0.00652756,-1.21978 0.0290433,-1.40272 0.0172677,-0.140626 1.90811,-0.135311 1.92562,0 0.0236181,0.182843 0.106197,0.943626 0.0349882,1.33406 -0.0917756,-0.36778 -0.415843,-0.945594 -0.661264,-0.792374 -0.204449,0.12765 -0.468406,0.121075 -0.673102,0z"/>
   <g>
    <path id="_492212984" class="fil6" d="M4.21166 1.54842c0.31337,0.0304961 0.578969,0.0787087 0.765878,0.138437 0.225811,0.0721575 0.356346,0.175134 0.356346,0.303591 0,0.164374 -0.238189,0.294201 -0.623276,0.371213 -0.333232,0.0666496 -0.791996,0.107874 -1.29728,0.107874 -0.505283,0 -0.964043,-0.0412244 -1.29728,-0.107874 -0.385087,-0.0770118 -0.623276,-0.206839 -0.623276,-0.371213 0,-0.127886 0.128882,-0.230398 0.352071,-0.302358 0.184386,-0.0594449 0.446724,-0.107602 0.756748,-0.138382l0.0912205 -0.00905906 0.0316732 0.0860394c0.0220709,0.0599606 0.0986181,0.117264 0.210138,0.16265 0.126358,0.0514331 0.290843,0.0823898 0.472008,0.0823898 0.182366,0 0.347189,-0.0309488 0.473035,-0.0823465 0.11148,-0.0455276 0.187878,-0.10298 0.209563,-0.163051l0.0313228 -0.0867717 0.0911024 0.0088622z"/>
    <path id="_492212312" class="fil7" d="M3.40664 0.91074c0.11587,0 0.213063,-0.0194173 0.29411,-0.0356024 0.174409,-0.0348346 0.29424,-0.0587677 0.416469,0.0740984 0.0325866,0.0354252 0.0795354,0.155732 0.120346,0.282657 0.0485787,0.151067 0.0939331,0.324276 0.0939331,0.365823 0,0.15787 -0.115756,0.293189 -0.302898,0.384362 -0.161169,0.0785118 -0.381232,0.127087 -0.621961,0.127087 -0.240732,0 -0.460787,-0.0485748 -0.621957,-0.127087 -0.187142,-0.0911732 -0.302898,-0.226492 -0.302898,-0.384362 0,-0.0362953 0.0413071,-0.215213 0.0842441,-0.37052 0.0353465,-0.12785 0.0754016,-0.248409 0.102154,-0.281827 0.116559,-0.145614 0.241236,-0.117732 0.42278,-0.0771299 0.0860315,0.0192402 0.190016,0.0425 0.315677,0.0425z"/>
   </g>
   <path id="_492212288" class="fil8" d="M1.84152 5.97033c-0.0329331,-0.481819 -0.178067,-1.40586 -0.32124,-1.70638 0.00316929,-0.0030748 0.00631102,-0.0061811 0.00951969,-0.00920472l0.0645787 -0.0314094 1.17043 -0.165319c0.0546181,0.0142441 0.0750276,0.0460551 0.114209,0.0855433 0.381346,0.38435 0.303087,1.08673 0.300878,1.82677l-1.33837 0z"/>
   <path id="_492212336" class="fil9" d="M5.9069 5.97033c-0.126547,-0.715787 -0.244181,-1.34431 -0.583949,-1.68992 -0.00546457,-0.00556299 -0.0109882,-0.0110472 -0.0165709,-0.0164606 -0.215173,0.300512 -0.359646,1.22456 -0.336098,1.70638l0.936618 0z"/>
   <path id="_492212888" class="fil8" d="M4.98514 5.97033c0.0329331,-0.481819 0.178067,-1.40586 0.32124,-1.70638 -0.00316929,-0.0030748 -0.00631102,-0.0061811 -0.00951969,-0.00920472l-0.0645787 -0.0314094 -1.17043 -0.165319c-0.0546181,0.0142441 -0.0750276,0.0460551 -0.114209,0.0855433 -0.379815,0.382807 -0.302937,1.08627 -0.299575,1.82677l1.33707 0z"/>
   <path id="_492212744" class="fil9" d="M0.91976 5.97033c0.126547,-0.715787 0.244181,-1.34431 0.583949,-1.68992 0.00546457,-0.00556299 0.0109882,-0.0110472 0.0165709,-0.0164606 0.215173,0.300512 0.359646,1.22456 0.336098,1.70638l-0.936618 0z"/>
   <path id="_492211832" class="fil10" d="M3.04519 4.39857c0.124843,0.0569528 0.248488,0.0840748 0.370984,0.0834016 0.122496,-0.000677165 0.244472,-0.0292126 0.365925,-0.0835591l0.0325472 0.0729094c-0.131441,0.0588189 -0.264138,0.0897008 -0.398161,0.090437 -0.134039,0.000732283 -0.268846,-0.0287244 -0.404465,-0.0905906l0.0331693 -0.0725984z"/>
   <path id="_492211784" class="fil11" d="M3.2558 4.56792c-0.00217323,0.466252 0.0171299,0.934209 0.0400669,1.40241l-0.386346 0 -0.157217 -0.524161 0.101622 -0.478516 -0.551717 -1.47249c0.0234409,0.0314291 0.953803,1.02628 0.953591,1.07276z"/>
   <path id="_492211712" class="fil11" d="M3.58722 4.56792c0.00217323,0.466252 -0.0171299,0.934209 -0.0400709,1.40241l0.386346 0 0.15722 -0.524161 -0.101622 -0.478516 0.551713 -1.47249c-0.0234409,0.0314291 -0.953803,1.02628 -0.953587,1.07276z"/>
  </g>
  <rect class="fil12" x="0.0364567" y="-0.00520866" width="6.82666" height="6.82666"/>
 </g>
</svg>
