<?xml version="1.0" encoding="UTF-8"?>
<!DOCTYPE svg PUBLIC "-//W3C//DTD SVG 1.1//EN" "http://www.w3.org/Graphics/SVG/1.1/DTD/svg11.dtd">
<!-- Creator: CorelDRAW -->
<svg xmlns="http://www.w3.org/2000/svg" xml:space="preserve" width="6.82666in" height="6.82666in" style="shape-rendering:geometricPrecision; text-rendering:geometricPrecision; image-rendering:optimizeQuality; fill-rule:evenodd; clip-rule:evenodd"
viewBox="0 0 6.82666 6.82666"
 xmlns:xlink="http://www.w3.org/1999/xlink">
 <defs>
  <style type="text/css">
   <![CDATA[
    .fil19 {fill:none}
    .fil14 {fill:none;fill-rule:nonzero}
    .fil17 {fill:#212121}
    .fil0 {fill:#424242}
    .fil6 {fill:#79ACC4}
    .fil4 {fill:#81C784}
    .fil8 {fill:#A14A4A}
    .fil3 {fill:#B3E5FC}
    .fil1 {fill:#DEC3B6}
    .fil5 {fill:#E1F5FE}
    .fil7 {fill:#E35252}
    .fil2 {fill:#EDD0C2}
    .fil18 {fill:#FFDDCC}
    .fil9 {fill:white}
    .fil16 {fill:#00211C;fill-rule:nonzero}
    .fil11 {fill:#004D40;fill-rule:nonzero}
    .fil15 {fill:#00796B;fill-rule:nonzero}
    .fil10 {fill:#00897B;fill-rule:nonzero}
    .fil12 {fill:#424242;fill-rule:nonzero}
    .fil13 {fill:#616161;fill-rule:nonzero}
   ]]>
  </style>
 </defs>
 <g id="Layer_x0020_1">
  <metadata id="CorelCorpID_0Corel-Layer"/>
  <path class="fil0" d="M3.38052 0.855902c0.514913,0.00877953 0.889591,0.122535 1.21439,0.67965 0.168268,0.377268 0.415197,1.15618 0.129882,2.23816 0.00305512,-0.21089 -0.127205,-0.296638 -0.289764,-0.399516 0.0429252,0.128988 0.197291,0.38835 0.21189,0.647055 0.0116654,0.206906 -0.0910591,0.403421 -0.226764,0.606465 -0.299902,0.448693 -1.54345,0.444843 -2.01868,-0.21276 -0.166098,-0.229776 -0.197047,-0.609091 -0.00597638,-0.894272 -0.240941,0.106953 -0.22661,0.542559 -0.270693,0.449488 -0.0677047,-0.0943661 -0.197768,-0.407051 -0.213815,-0.869547 -0.0137244,-0.395717 0.0559921,-0.894181 0.319626,-1.4733 0.215937,-0.468622 0.619425,-0.780433 1.14991,-0.771425z"/>
  <path class="fil1" d="M2.15248 2.17165c0.0866614,-0.0285197 0.196902,0.0698189 0.246287,0.219669 0.049374,0.149886 0.0191024,0.294492 -0.0675709,0.323047 -0.0866732,0.0285236 -0.196902,-0.0698189 -0.246287,-0.219681 -0.0493425,-0.149839 -0.0190591,-0.294476 0.0675709,-0.323035z"/>
  <path class="fil1" d="M4.68607 2.17165c-0.0866614,-0.0285197 -0.196945,0.0698189 -0.246287,0.219669 -0.0493425,0.149886 -0.0191024,0.294492 0.0675709,0.323047 0.0866732,0.0285236 0.196902,-0.0698189 0.246287,-0.219681 0.0493425,-0.149839 0.0191063,-0.294476 -0.0675709,-0.323035z"/>
  <path class="fil2" d="M3.90539 3.00488l0 1.12321c-0.270602,0.331437 -0.713461,0.319961 -0.984031,0l0 -1.12321c0,-0.606512 0.984031,-0.606512 0.984031,0z"/>
  <path class="fil3" d="M2.95498 3.89039c-1.01328,0.44422 -1.31726,0.681087 -1.43741,0.787398 -0.185169,0.163843 -0.287583,0.774579 -0.396791,1.29317l2.29257 0 2.29253 0c-0.109197,-0.518587 -0.211622,-1.12932 -0.396783,-1.29317 -0.12011,-0.106311 -0.412961,-0.337079 -1.42628,-0.781299l-0.927843 -0.00609843z"/>
  <path class="fil2" d="M2.81855 3.81481l-0.0509803 2.15615 1.28946 0 -0.0510157 -2.15615c-0.395795,0 -0.791634,0 -1.18746,0z"/>
  <path class="fil4" d="M2.64017 4.42448c0.255024,0.189622 0.961291,0.313858 1.59563,0.0457559 -0.438354,0.579283 -0.287736,1.50072 -0.287736,1.50072l-0.895921 0c0,0 -0.0915118,-0.807531 -0.411969,-1.54647z"/>
  <path class="fil5" d="M2.92135 3.55522l0 0.572874 0.213713 1.84287 -0.367496 0 -0.404307 -0.820811 0.385925 -0.257256 -0.471634 -0.220524c0,0 0.0989803,-0.773516 0.643799,-1.11715z"/>
  <path class="fil1" d="M3.90535 3.00488l0 0.752012c-0.186157,0.135705 -0.365638,0.211744 -0.492,0.211744 -0.126366,0 -0.305846,-0.0760394 -0.492,-0.211744l0 -0.752012c0,-0.606512 0.984,-0.606512 0.984,0z"/>
  <path class="fil5" d="M3.90535 3.55522l3.14961e-005 0.572874 -0.21585 1.84287 0.367496 0 0.404272 -0.820811 -0.38589 -0.257256 0.471634 -0.220524c0,0 -0.175894,-0.813051 -0.641693,-1.11715z"/>
  <path class="fil2" d="M3.41335 0.988299c-1.65133,0 -1.05748,1.99531 -0.949614,2.15415 0.118929,0.175134 0.682815,0.639417 0.949614,0.639417 0.266795,0 0.830638,-0.464283 0.949567,-0.639417 0.107913,-0.158846 0.70176,-2.15415 -0.949567,-2.15415z"/>
  <path class="fil0" d="M4.48932 2.69178c0,0 -0.107748,-0.58824 -0.356173,-0.925583 -0.17998,0.395874 -0.357709,0.589732 -1.21263,0.791138 0.258795,-0.217114 0.379205,-0.542791 0.391524,-0.719106 -0.553504,0.152563 -0.89539,0.584051 -0.980835,0.87613 -0.259327,-0.451236 -0.0220354,-1.1315 0.156756,-1.38865 0.345083,-0.496283 1.1904,-0.616815 1.69525,-0.165524 0.350303,0.313169 0.494598,0.243539 0.30611,1.53159z"/>
  <path class="fil6" d="M2.05506 5.97096l0.0785039 0c-0.00350787,-0.349134 -0.00350787,-0.600756 -0.00350787,-0.600756 0,0 -0.0347756,0.261508 -0.0749961,0.600756z"/>
  <path class="fil6" d="M4.77164 5.97096l-0.0785472 0c0.00350787,-0.349134 0.00350787,-0.600756 0.00350787,-0.600756 0,0 0.0347756,0.261508 0.0750394,0.600756z"/>
  <path class="fil7" d="M3.07586 3.1861c0.142756,-0.104429 0.291756,-0.0426496 0.341563,-0.0426496 0.0498307,0 0.190598,-0.0617795 0.333382,0.0426496 -0.0710512,0.287146 -0.567441,0.29439 -0.674945,0z"/>
  <path class="fil8" d="M3.08014 3.18459c0.132524,-0.0467402 0.249665,0.0447795 0.333039,0.0447795 0.083374,0 0.200823,-0.122894 0.333346,-0.0401142 -0.155295,0.158299 -0.510039,0.149724 -0.666386,-0.00466535z"/>
  <path class="fil9" d="M3.07584 3.18459c0.142783,-0.0588858 0.247831,-0.0162008 0.331217,-0.0162008 0.083374,0 0.200972,-0.042685 0.343756,0.0162008 -0.155295,0.0886693 -0.518598,0.0856929 -0.674972,0z"/>
  <path class="fil7" d="M3.07654 3.18511c0.142098,-0.103075 0.264134,-0.0315551 0.347354,-0.0315551 0.083248,0 0.183445,-0.0718858 0.326224,0.0325433 -0.000492126,0.00145669 -0.00111417,0.00287795 -0.00164567,0.00430709 -0.182012,-0.00325591 -0.479902,-0.0051063 -0.671933,-0.00529528z"/>
  <path class="fil10" d="M2.60297 5.1894l0.000444882 0.00102756c0.00247244,0.00574409 0.00491732,0.0115197 0.00711811,0.0172402l0.00336614 0.0088189c0.00990157,0.0259449 0.0197874,0.0519016 0.0279567,0.0784606 0.0150906,0.049063 0.0271102,0.106094 0.0151024,0.157043 -0.0169921,0.0720866 -0.0791969,0.111366 -0.144681,0.134673l-0.0129213 -0.0420551c0.051815,-0.0196457 0.0969291,-0.0528937 0.111165,-0.110063 0.0103937,-0.0417598 0.00188583,-0.0863976 -0.0105236,-0.126748 -0.00787795,-0.0256142 -0.0174173,-0.0506614 -0.0269685,-0.075689l-0.00336614 -0.0088189c-0.0021063,-0.00551969 -0.00444882,-0.0110945 -0.00683465,-0.0166417l-0.000165354 -0.000385827 0.0403071 -0.0168622z"/>
  <path class="fil10" d="M1.82202 5.21017l-0.00030315 0.000708661c-0.00238583,0.00558268 -0.00472441,0.0112165 -0.00664567,0.0166457l-0.00273228 0.00773622 6.29921e-005 0.00015748c-0.0208819,0.0593386 -0.0438976,0.131614 -0.0384449,0.193689 0.00616142,0.0701417 0.0524094,0.107815 0.115051,0.124291l-0.00786614 0.0432717c-0.0862638,-0.0208071 -0.142382,-0.0690827 -0.150681,-0.163587 -0.00595669,-0.0678268 0.0158661,-0.141343 0.0383071,-0.20585l0.00511811 -0.0142126c0.00193701,-0.00537402 0.0041811,-0.0108701 0.00647244,-0.0163307l0.00011811 -0.000279528 0.0415433 0.0137598z"/>
  <path class="fil11" d="M1.76034 5.18974c0.0180118,-0.0438937 0.0700118,-0.168276 0.122717,-0.294339 0.0396063,-0.0947205 0.0795906,-0.190362 0.105217,-0.251906l-6.29921e-005 -0.00015748c0.0235787,-0.0566024 0.0560551,-0.100122 0.0927953,-0.129079 0.0337598,-0.0266063 0.0711417,-0.0409843 0.109024,-0.0422441 0.0387874,-0.0012874 0.0770748,0.0109764 0.111594,0.0377087 0.0327559,0.0253661 0.0619528,0.0639764 0.084311,0.116563 0.0259646,0.0610669 0.0692598,0.162469 0.11222,0.263114 0.0523661,0.122669 0.104252,0.244201 0.124012,0.290945l-0.0195669 0.00818504 0.000374016 0.000866142 -0.0403071 0.0168622 -0.000374016 -0.000866142 -0.0197087 0.00824803c-0.0187953,-0.0444685 -0.0710945,-0.166969 -0.123882,-0.29063 -0.0429685,-0.100646 -0.0862598,-0.202047 -0.112224,-0.263118 -0.0162126,-0.0381339 -0.036122,-0.0651496 -0.057689,-0.0818543 -0.0179409,-0.0138976 -0.037,-0.0202992 -0.0556417,-0.0196772 -0.0195512,0.000645669 -0.0397047,0.00874803 -0.0587953,0.0237953 -0.0252717,0.0199134 -0.0483661,0.0516732 -0.0662008,0.0944843l-0.000110236 -4.72441e-005c-0.0264724,0.0635827 -0.0661102,0.158382 -0.10535,0.25224 -0.0512283,0.122524 -0.101799,0.24348 -0.120248,0.287984l-0.0203858 -0.00672441 -3.14961e-005 7.48031e-005 -0.0415433 -0.0137598 7.87402e-006 -1.9685e-005 -0.0162874 -0.00537402 -0.0038622 -0.00127559z"/>
  <polygon class="fil12" points="1.76033,5.18974 1.76034,5.18974 1.7642,5.19102 "/>
  <path class="fil11" d="M2.46351 5.64783c-0.0216811,0.00907087 -0.0449961,0.00849606 -0.0651496,0.000228346 -0.0201575,-0.00826772 -0.0371654,-0.0242205 -0.0462362,-0.0459055 -0.00907087,-0.0216811 -0.00849606,-0.0449921 -0.000228346,-0.0651535 0.00826378,-0.0201535 0.0242205,-0.0371614 0.0459016,-0.0462323 0.0216811,-0.00907087 0.0449961,-0.00849606 0.0651535,-0.000228346 0.0201614,0.00826772 0.0371654,0.0242244 0.0462362,0.0459055 0.00907087,0.0216811 0.00849213,0.0449921 0.000228346,0.0651535 -0.00826772,0.0201575 -0.0242244,0.0371614 -0.0459055,0.0462323z"/>
  <path class="fil11" d="M1.98587 5.65747c-0.0216811,0.00906693 -0.0449961,0.00849213 -0.0651535,0.000224409 -0.0201535,-0.00826378 -0.0371614,-0.0242205 -0.0462323,-0.0459016 -0.00907087,-0.021685 -0.00849606,-0.0449921 -0.000228346,-0.0651535 0.00826378,-0.0201535 0.0242205,-0.0371654 0.0459016,-0.0462362 0.0216811,-0.00907087 0.0449961,-0.00848819 0.0651535,-0.000224409 0.0201575,0.00826772 0.0371654,0.0242205 0.0462362,0.0459055 0.00907087,0.0216811 0.00849213,0.0449921 0.000224409,0.0651496 -0.00826378,0.0201575 -0.0242205,0.0371654 -0.0459016,0.0462362z"/>
  <path class="fil13" d="M2.45937 4.09614c-0.226894,0.0158937 -0.264402,0.077122 -0.260283,0.156091 0.00120866,0.0231457 0.00568504,0.0490512 0.0103031,0.0758031 0.00815354,0.0472047 0.0167441,0.0969488 0.0106772,0.147756l-0.050185 -0.00131102c0.00632677,-0.045189 -0.00190945,-0.092874 -0.0097126,-0.138043 -0.0048189,-0.0279173 -0.00949213,-0.0549488 -0.0108858,-0.0816693 -0.00575984,-0.110441 0.0444921,-0.194354 0.336606,-0.209587 -0.00267323,0.00570472 -0.0247008,0.0508346 -0.0265197,0.0509606z"/>
  <path class="fil13" d="M4.34205 4.09614c0.226894,0.0158937 0.264402,0.077122 0.260283,0.156091 -0.00573622,0.109815 -0.0171693,0.154917 -0.00403937,0.278563 0.010126,0.095311 0.029437,0.199598 0.061185,0.2575l0.050185 -0.00131102c-0.0331654,-0.0584528 -0.0578858,-0.171575 -0.0666142,-0.266988 -0.0096811,-0.105799 0.00402362,-0.168169 0.00908661,-0.265228 0.00575984,-0.110441 -0.0444921,-0.194354 -0.336606,-0.209587 0.00267323,0.00570472 0.0247008,0.0508346 0.0265197,0.0509606z"/>
  <line class="fil14" x1="4.70194" y1="4.85891" x2="4.70194" y2= "4.85891" />
  <line class="fil14" x1="4.70065" y1="4.77254" x2="4.70066" y2= "4.77254" />
  <line class="fil14" x1="4.78957" y1="4.94464" x2="4.78957" y2= "4.94464" />
  <line class="fil14" x1="4.87594" y1="4.94335" x2="4.87594" y2= "4.94335" />
  <path class="fil11" d="M4.70514 5.11864l-3.93701e-006 0c-0.047874,0.000586614 -0.0914094,-0.0182402 -0.123091,-0.0491496 -0.0317126,-0.0309488 -0.0516181,-0.0739488 -0.0522047,-0.121661l0 -7.87402e-006c-0.000586614,-0.0478701 0.0182402,-0.0914055 0.0491496,-0.123079 0.0309449,-0.0317165 0.0739488,-0.051626 0.121657,-0.0522126l1.1811e-005 3.93701e-006c0.0478701,-0.000586614 0.0914055,0.0182402 0.123079,0.0491496 0.0317126,0.0309449 0.051626,0.0739449 0.0522087,0.121657l0 1.1811e-005c0.000586614,0.0478701 -0.0182402,0.0914055 -0.0491496,0.123079 -0.0309449,0.0317126 -0.0739488,0.051622 -0.121657,0.0522087z"/>
  <path class="fil15" d="M4.70409 5.03804l-3.93701e-006 0c-0.0255709,0.000314961 -0.0488307,-0.00974409 -0.065752,-0.0262598 -0.0169409,-0.0165315 -0.0275748,-0.0395 -0.0278898,-0.0649882l0 -3.93701e-006c-0.000314961,-0.0255748 0.00974409,-0.0488307 0.0262559,-0.065752 0.0165315,-0.0169409 0.0395039,-0.0275787 0.0649921,-0.0278898l7.87402e-006 0c0.0255709,-0.000314961 0.0488268,0.00974409 0.065748,0.0262559 0.0169409,0.0165315 0.0275787,0.0395039 0.0278898,0.0649921l0 3.93701e-006c0.000314961,0.0255748 -0.00974409,0.0488307 -0.0262559,0.065752 -0.0165315,0.0169409 -0.0395039,0.0275748 -0.0649921,0.0278898z"/>
  <path class="fil16" d="M4.70389 5.02477l3.93701e-006 0c0.0107598,-0.000133858 0.0209685,-0.00238976 0.0302165,-0.00635827 0.00959055,-0.00411417 0.0182283,-0.0101102 0.0254685,-0.0175276 0.00721654,-0.00739764 0.0129961,-0.0162008 0.0168858,-0.025937 0.00374016,-0.00936614 0.00574409,-0.019622 0.00561024,-0.0303543l0 -7.87402e-006c-0.000133858,-0.0107638 -0.00238583,-0.0209685 -0.00635433,-0.0302165 -0.00411417,-0.00959055 -0.0101142,-0.0182283 -0.0175315,-0.0254685 -0.0073937,-0.00721654 -0.0161969,-0.0129961 -0.025937,-0.0168858 -0.0093622,-0.00374016 -0.019622,-0.00574409 -0.0303543,-0.00561024l-7.87402e-006 0c-0.0107638,0.000133858 -0.0209646,0.00238583 -0.0302126,0.00635433 -0.00959449,0.00411417 -0.0182323,0.0101142 -0.0254685,0.0175315 -0.00722047,0.00739764 -0.013,0.0161969 -0.0168898,0.025937 -0.00374016,0.0093622 -0.00574016,0.0196181 -0.00561024,0.0303543l0 3.93701e-006c0.000133858,0.0107638 0.00238976,0.0209685 0.00635433,0.0302165 0.00411417,0.00959055 0.0101142,0.0182323 0.0175276,0.0254685 0.00740157,0.00722047 0.0162008,0.013 0.0259409,0.0168898 0.00936614,0.00373622 0.019622,0.00574016 0.0303583,0.00561024zm0.000397638 0.0265276c-0.0143504,0.000177165 -0.0280748,-0.00250394 -0.0406181,-0.00751575 -0.0130118,-0.00519291 -0.024752,-0.0128937 -0.0345945,-0.0225 -0.00984252,-0.0096063 -0.0178386,-0.0211614 -0.023374,-0.034063 -0.00532283,-0.0124055 -0.00834252,-0.0259961 -0.00851969,-0.0402323l0 -7.87402e-006c-0.000177165,-0.0143504 0.00250394,-0.0280709 0.00751181,-0.0406142 0.00519685,-0.0130118 0.0128976,-0.024752 0.0225039,-0.0345945 0.0096063,-0.00984252 0.0211575,-0.0178386 0.034063,-0.023374 0.0124016,-0.00532283 0.0259961,-0.00834646 0.0402323,-0.00852362l1.1811e-005 3.93701e-006c0.0143425,-0.000177165 0.0280669,0.00250394 0.0406102,0.00751181 0.0130118,0.00519685 0.024752,0.0128976 0.0345945,0.0225039 0.00984252,0.00960236 0.0178386,0.0211575 0.023374,0.0340591 0.00532283,0.0124055 0.00834646,0.026 0.00852362,0.0402362l-3.93701e-006 7.87402e-006c0.000177165,0.0143465 -0.00250394,0.0280709 -0.00751181,0.0406102 -0.00519685,0.0130157 -0.0128976,0.024752 -0.0225039,0.0345945 -0.00960236,0.00984252 -0.0211575,0.0178425 -0.0340591,0.023378 -0.0124055,0.00532283 -0.026,0.00834646 -0.0402362,0.00851969l-3.93701e-006 0zm-0.00239764 -0.184894l0 0m-0.000389764 -0.0265276l3.93701e-006 0m0.0805709 0.104709l0 0m0.0265276 -0.000389764l0 0"/>
  <g id="_492214472">
   <path id="_492213848" class="fil17" d="M3.94267 2.36899c0.297728,-0.0202087 0.460772,0.034748 0.491272,0.0461457 0.0367598,0.0137835 0.028311,0.113224 -0.00281496,0.133031 -0.031126,0.0198228 -0.0565669,0.0990512 -0.130177,0.198102 -0.047315,0.0636811 -0.212992,0.0906417 -0.35828,0.0978465l0 -0.0278189c0.118772,-0.00548819 0.243169,-0.0267362 0.297283,-0.0639764 0.109827,-0.075622 0.120287,-0.236563 0.0396181,-0.311472 -0.0423031,-0.0393425 -0.189772,-0.0502992 -0.336902,-0.0432874l0 -0.0285709zm-1.05864 0l0 0 0.0124724 0.000897638c0.305642,0.022622 0.370752,0.0820591 0.401878,0.0792441 0.0364094,-0.00331102 0.075752,-0.00828346 0.112913,-0.00828346 0.0371614,0 0.0792441,0.00483071 0.117067,0.00828346 0.031126,0.00281496 0.0961969,-0.056622 0.401839,-0.0792441l0.0124724 -0.000897638 0 0.0285709 -0.00151575 9.05512e-005c-0.147661,0.00716535 -0.340264,0.0414055 -0.378087,0.126024 -0.0377835,0.0846024 0.0342047,0.235835 0.13863,0.273622 0.0473898,0.0171693 0.142236,0.0235197 0.240972,0.019l0 0.0278189c-0.0807598,0.00398425 -0.155161,0.00188189 -0.199528,-0.00344094 -0.124492,-0.0149016 -0.217638,-0.165146 -0.234591,-0.210445 -0.038189,-0.101728 -0.152217,-0.101728 -0.190366,0 -0.0169921,0.0452992 -0.110138,0.195543 -0.23463,0.210445 -0.0443661,0.00532283 -0.118768,0.0074252 -0.199528,0.00344094l0 -0.0278189c0.0987756,0.00451969 0.193622,-0.00183071 0.241028,-0.019 0.10437,-0.0377874 0.176409,-0.18902 0.138575,-0.273622 -0.0377874,-0.0846181 -0.230425,-0.118858 -0.378047,-0.126024l-0.00155512 -9.05512e-005 0 -0.0285709zm-0.491272 0.0461457l0 0c0.0305394,-0.0113976 0.193583,-0.0663543 0.491272,-0.0461457l0 0.0285709c-0.147079,-0.00706299 -0.294559,0.00398425 -0.336902,0.0432874 -0.0806299,0.0749094 -0.0702087,0.23585 0.0396142,0.311472 0.0541142,0.0372402 0.178516,0.0584882 0.297287,0.0639764l0 0.0278189c-0.145287,-0.00720472 -0.310969,-0.0341654 -0.35824,-0.0978465 -0.0735984,-0.0990512 -0.0990512,-0.17828 -0.130177,-0.198102 -0.0311654,-0.0198071 -0.0396142,-0.119248 -0.00285433,-0.133031z"/>
   <path id="_492213896" class="fil18" d="M2.54712 2.44085c0.0424843,-0.0394331 0.190846,-0.0503898 0.338457,-0.0431969 0.147622,0.00716535 0.34026,0.0414055 0.378047,0.126024 0.0378346,0.0846024 -0.0342047,0.235835 -0.138575,0.273622 -0.104465,0.0378346 -0.439224,0.0232598 -0.538315,-0.0449764 -0.109823,-0.075622 -0.120244,-0.236563 -0.0396142,-0.311472z"/>
   <path id="_492213800" class="fil18" d="M4.27957 2.44085c-0.0424331,-0.0394331 -0.190807,-0.0503898 -0.338417,-0.0431969 -0.147661,0.00716535 -0.340264,0.0414055 -0.378087,0.126024 -0.0377835,0.0846024 0.0342047,0.235835 0.13863,0.273622 0.104409,0.0378346 0.439169,0.0232598 0.538256,-0.0449764 0.109827,-0.075622 0.120287,-0.236563 0.0396181,-0.311472z"/>
  </g>
  <rect class="fil19" x="0.0364567" y="-0.00520866" width="6.82666" height="6.82666"/>
 </g>
</svg>
