<?xml version="1.0" encoding="UTF-8"?>
<!DOCTYPE svg PUBLIC "-//W3C//DTD SVG 1.1//EN" "http://www.w3.org/Graphics/SVG/1.1/DTD/svg11.dtd">
<!-- Creator: CorelDRAW -->
<svg xmlns="http://www.w3.org/2000/svg" xml:space="preserve" width="6.82666in" height="6.82666in" style="shape-rendering:geometricPrecision; text-rendering:geometricPrecision; image-rendering:optimizeQuality; fill-rule:evenodd; clip-rule:evenodd"
viewBox="0 0 6.82666 6.82666"
 xmlns:xlink="http://www.w3.org/1999/xlink">
 <defs>
  <style type="text/css">
   <![CDATA[
    .fil17 {fill:none}
    .fil11 {fill:none;fill-rule:nonzero}
    .fil15 {fill:#293439}
    .fil5 {fill:#5C6BC0}
    .fil7 {fill:#79ACC4}
    .fil3 {fill:#B3E5FC}
    .fil0 {fill:#DBC0B2}
    .fil2 {fill:#DFC4B6}
    .fil6 {fill:#E1F5FE}
    .fil16 {fill:#E4B7A0}
    .fil1 {fill:#ECCEBE}
    .fil4 {fill:#EDD0C2}
    .fil13 {fill:#00211C;fill-rule:nonzero}
    .fil9 {fill:#004D40;fill-rule:nonzero}
    .fil12 {fill:#00796B;fill-rule:nonzero}
    .fil8 {fill:#00897B;fill-rule:nonzero}
    .fil10 {fill:#424242;fill-rule:nonzero}
    .fil14 {fill:#616161;fill-rule:nonzero}
   ]]>
  </style>
 </defs>
 <g id="Layer_x0020_1">
  <metadata id="CorelCorpID_0Corel-Layer"/>
  <path class="fil0" d="M2.24675 2.3278c0.0796299,-0.0342205 0.180996,0.0835748 0.22635,0.263126 0.0453543,0.179496 0.0175591,0.352736 -0.0621142,0.386953 -0.0796299,0.0341654 -0.180992,-0.0836299 -0.226346,-0.263181 -0.0453976,-0.179496 -0.0175591,-0.352748 0.0621102,-0.386898z"/>
  <path class="fil0" d="M4.57562 2.3278c-0.0796732,-0.0342205 -0.181035,0.0836299 -0.22639,0.263126 -0.0453543,0.179496 -0.0175591,0.352736 0.0621024,0.386898 0.0796693,0.0342205 0.181031,-0.0835748 0.22639,-0.263126 0.0453543,-0.179496 0.0175591,-0.352748 -0.0621024,-0.386898z"/>
  <path class="fil1" d="M3.8994 3.02438l0 1.10967c-0.267354,0.327437 -0.704827,0.316098 -0.972134,0l0 -1.10967c0,-0.599197 0.972134,-0.599197 0.972134,0z"/>
  <path class="fil2" d="M3.8994 3.02438l0 0.742945c-0.183945,0.134079 -0.361228,0.209189 -0.486067,0.209189 -0.124843,0 -0.302157,-0.0751102 -0.486067,-0.209189l0 -0.742945c0,-0.599197 0.972134,-0.599197 0.972134,0z"/>
  <path class="fil3" d="M2.95498 3.89039c-1.01328,0.44422 -1.31726,0.681087 -1.43741,0.787398 -0.185169,0.163843 -0.287583,0.774579 -0.396791,1.29317l2.29257 0 2.29253 0c-0.109197,-0.518587 -0.211622,-1.12932 -0.396783,-1.29317 -0.12011,-0.106311 -0.412961,-0.337079 -1.42628,-0.781299l-0.927843 -0.00609843z"/>
  <path class="fil4" d="M2.81855 3.81481l-0.0509803 2.15615 1.28946 0 -0.0510157 -2.15615c-0.395795,0 -0.791634,0 -1.18746,0z"/>
  <path class="fil5" d="M2.64017 4.42448c0.255024,0.189622 0.961291,0.313858 1.59563,0.0457559 -0.438354,0.579283 -0.287736,1.50072 -0.287736,1.50072l-0.895921 0c0,0 -0.0915118,-0.807531 -0.411969,-1.54647z"/>
  <path class="fil6" d="M2.92135 3.55522l0 0.572874 0.213713 1.84287 -0.367496 0 -0.404307 -0.820811 0.385925 -0.257256 -0.471634 -0.220524c0,0 0.0989803,-0.773516 0.643799,-1.11715z"/>
  <path class="fil6" d="M3.90535 3.55522l3.14961e-005 0.572874 -0.21585 1.84287 0.367496 0 0.404272 -0.820811 -0.38589 -0.257256 0.471634 -0.220524c0,0 -0.175894,-0.813051 -0.641693,-1.11715z"/>
  <path class="fil7" d="M2.05506 5.97096l0.0785039 0c-0.00350787,-0.349134 -0.00350787,-0.600756 -0.00350787,-0.600756 0,0 -0.0347756,0.261508 -0.0749961,0.600756z"/>
  <path class="fil7" d="M4.77164 5.97096l-0.0785472 0c0.00350787,-0.349134 0.00350787,-0.600756 0.00350787,-0.600756 0,0 0.0347756,0.261508 0.0750394,0.600756z"/>
  <path class="fil8" d="M2.60297 5.1894l0.000444882 0.00102756c0.00247244,0.00574409 0.00491732,0.0115197 0.00711811,0.0172402l0.00336614 0.0088189c0.00990157,0.0259449 0.0197874,0.0519016 0.0279567,0.0784606 0.0150906,0.049063 0.0271102,0.106094 0.0151024,0.157043 -0.0169921,0.0720866 -0.0791969,0.111366 -0.144681,0.134673l-0.0129213 -0.0420551c0.051815,-0.0196457 0.0969291,-0.0528937 0.111165,-0.110063 0.0103937,-0.0417598 0.00188583,-0.0863976 -0.0105236,-0.126748 -0.00787795,-0.0256142 -0.0174173,-0.0506614 -0.0269685,-0.075689l-0.00336614 -0.0088189c-0.0021063,-0.00551969 -0.00444882,-0.0110945 -0.00683465,-0.0166417l-0.000165354 -0.000385827 0.0403071 -0.0168622z"/>
  <path class="fil8" d="M1.82202 5.21017l-0.00030315 0.000708661c-0.00238583,0.00558268 -0.00472441,0.0112165 -0.00664567,0.0166457l-0.00273228 0.00773622 6.29921e-005 0.00015748c-0.0208819,0.0593386 -0.0438976,0.131614 -0.0384449,0.193689 0.00616142,0.0701417 0.0524094,0.107815 0.115051,0.124291l-0.00786614 0.0432717c-0.0862638,-0.0208071 -0.142382,-0.0690827 -0.150681,-0.163587 -0.00595669,-0.0678268 0.0158661,-0.141343 0.0383071,-0.20585l0.00511811 -0.0142126c0.00193701,-0.00537402 0.0041811,-0.0108701 0.00647244,-0.0163307l0.00011811 -0.000279528 0.0415433 0.0137598z"/>
  <path class="fil9" d="M1.76034 5.18974c0.0180118,-0.0438937 0.0700118,-0.168276 0.122717,-0.294339 0.0396063,-0.0947205 0.0795906,-0.190362 0.105217,-0.251906l-6.29921e-005 -0.00015748c0.0235787,-0.0566024 0.0560551,-0.100122 0.0927953,-0.129079 0.0337598,-0.0266063 0.0711417,-0.0409843 0.109024,-0.0422441 0.0387874,-0.0012874 0.0770748,0.0109764 0.111594,0.0377087 0.0327559,0.0253661 0.0619528,0.0639764 0.084311,0.116563 0.0259646,0.0610669 0.0692598,0.162469 0.11222,0.263114 0.0523661,0.122669 0.104252,0.244201 0.124012,0.290945l-0.0195669 0.00818504 0.000374016 0.000866142 -0.0403071 0.0168622 -0.000374016 -0.000866142 -0.0197087 0.00824803c-0.0187953,-0.0444685 -0.0710945,-0.166969 -0.123882,-0.29063 -0.0429685,-0.100646 -0.0862598,-0.202047 -0.112224,-0.263118 -0.0162126,-0.0381339 -0.036122,-0.0651496 -0.057689,-0.0818543 -0.0179409,-0.0138976 -0.037,-0.0202992 -0.0556417,-0.0196772 -0.0195512,0.000645669 -0.0397047,0.00874803 -0.0587953,0.0237953 -0.0252717,0.0199134 -0.0483661,0.0516732 -0.0662008,0.0944843l-0.000110236 -4.72441e-005c-0.0264724,0.0635827 -0.0661102,0.158382 -0.10535,0.25224 -0.0512283,0.122524 -0.101799,0.24348 -0.120248,0.287984l-0.0203858 -0.00672441 -3.14961e-005 7.48031e-005 -0.0415433 -0.0137598 7.87402e-006 -1.9685e-005 -0.0162874 -0.00537402 -0.0038622 -0.00127559z"/>
  <polygon class="fil10" points="1.76033,5.18974 1.76034,5.18974 1.7642,5.19102 "/>
  <path class="fil9" d="M2.46351 5.64783c-0.0216811,0.00907087 -0.0449961,0.00849606 -0.0651496,0.000228346 -0.0201575,-0.00826772 -0.0371654,-0.0242205 -0.0462362,-0.0459055 -0.00907087,-0.0216811 -0.00849606,-0.0449921 -0.000228346,-0.0651535 0.00826378,-0.0201535 0.0242205,-0.0371614 0.0459016,-0.0462323 0.0216811,-0.00907087 0.0449961,-0.00849606 0.0651535,-0.000228346 0.0201614,0.00826772 0.0371654,0.0242244 0.0462362,0.0459055 0.00907087,0.0216811 0.00849213,0.0449921 0.000228346,0.0651535 -0.00826772,0.0201575 -0.0242244,0.0371614 -0.0459055,0.0462323z"/>
  <path class="fil9" d="M1.98587 5.65747c-0.0216811,0.00906693 -0.0449961,0.00849213 -0.0651535,0.000224409 -0.0201535,-0.00826378 -0.0371614,-0.0242205 -0.0462323,-0.0459016 -0.00907087,-0.021685 -0.00849606,-0.0449921 -0.000228346,-0.0651535 0.00826378,-0.0201535 0.0242205,-0.0371654 0.0459016,-0.0462362 0.0216811,-0.00907087 0.0449961,-0.00848819 0.0651535,-0.000224409 0.0201575,0.00826772 0.0371654,0.0242205 0.0462362,0.0459055 0.00907087,0.0216811 0.00849213,0.0449921 0.000224409,0.0651496 -0.00826378,0.0201575 -0.0242205,0.0371654 -0.0459016,0.0462362z"/>
  <line class="fil11" x1="4.78957" y1="4.94464" x2="4.78957" y2= "4.94464" />
  <line class="fil11" x1="4.87594" y1="4.94335" x2="4.87594" y2= "4.94335" />
  <path class="fil9" d="M4.70514 5.11864l-3.93701e-006 0c-0.047874,0.000586614 -0.0914094,-0.0182402 -0.123091,-0.0491496 -0.0317126,-0.0309488 -0.0516181,-0.0739488 -0.0522047,-0.121661l0 -7.87402e-006c-0.000586614,-0.0478701 0.0182402,-0.0914055 0.0491496,-0.123079 0.0309449,-0.0317165 0.0739488,-0.051626 0.121657,-0.0522126l1.1811e-005 3.93701e-006c0.0478701,-0.000586614 0.0914055,0.0182402 0.123079,0.0491496 0.0317126,0.0309449 0.051626,0.0739449 0.0522087,0.121657l0 1.1811e-005c0.000586614,0.0478701 -0.0182402,0.0914055 -0.0491496,0.123079 -0.0309449,0.0317126 -0.0739488,0.051622 -0.121657,0.0522087z"/>
  <path class="fil12" d="M4.70409 5.03804l-3.93701e-006 0c-0.0255709,0.000314961 -0.0488307,-0.00974409 -0.065752,-0.0262598 -0.0169409,-0.0165315 -0.0275748,-0.0395 -0.0278898,-0.0649882l0 -3.93701e-006c-0.000314961,-0.0255748 0.00974409,-0.0488307 0.0262559,-0.065752 0.0165315,-0.0169409 0.0395039,-0.0275787 0.0649921,-0.0278898l7.87402e-006 0c0.0255709,-0.000314961 0.0488268,0.00974409 0.065748,0.0262559 0.0169409,0.0165315 0.0275787,0.0395039 0.0278898,0.0649921l0 3.93701e-006c0.000314961,0.0255748 -0.00974409,0.0488307 -0.0262559,0.065752 -0.0165315,0.0169409 -0.0395039,0.0275748 -0.0649921,0.0278898z"/>
  <path class="fil13" d="M4.70389 5.02477l3.93701e-006 0c0.0107598,-0.000133858 0.0209685,-0.00238976 0.0302165,-0.00635827 0.00959055,-0.00411417 0.0182283,-0.0101102 0.0254685,-0.0175276 0.00721654,-0.00739764 0.0129961,-0.0162008 0.0168858,-0.025937 0.00374016,-0.00936614 0.00574409,-0.019622 0.00561024,-0.0303543l0 -7.87402e-006c-0.000133858,-0.0107638 -0.00238583,-0.0209685 -0.00635433,-0.0302165 -0.00411417,-0.00959055 -0.0101142,-0.0182283 -0.0175315,-0.0254685 -0.0073937,-0.00721654 -0.0161969,-0.0129961 -0.025937,-0.0168858 -0.0093622,-0.00374016 -0.019622,-0.00574409 -0.0303543,-0.00561024l-7.87402e-006 0c-0.0107638,0.000133858 -0.0209646,0.00238583 -0.0302126,0.00635433 -0.00959449,0.00411417 -0.0182323,0.0101142 -0.0254685,0.0175315 -0.00722047,0.00739764 -0.013,0.0161969 -0.0168898,0.025937 -0.00374016,0.0093622 -0.00574016,0.0196181 -0.00561024,0.0303543l0 3.93701e-006c0.000133858,0.0107638 0.00238976,0.0209685 0.00635433,0.0302165 0.00411417,0.00959055 0.0101142,0.0182323 0.0175276,0.0254685 0.00740157,0.00722047 0.0162008,0.013 0.0259409,0.0168898 0.00936614,0.00373622 0.019622,0.00574016 0.0303583,0.00561024zm0.000397638 0.0265276c-0.0143504,0.000177165 -0.0280748,-0.00250394 -0.0406181,-0.00751575 -0.0130118,-0.00519291 -0.024752,-0.0128937 -0.0345945,-0.0225 -0.00984252,-0.0096063 -0.0178386,-0.0211614 -0.023374,-0.034063 -0.00532283,-0.0124055 -0.00834252,-0.0259961 -0.00851969,-0.0402323l0 -7.87402e-006c-0.000177165,-0.0143504 0.00250394,-0.0280709 0.00751181,-0.0406142 0.00519685,-0.0130118 0.0128976,-0.024752 0.0225039,-0.0345945 0.0096063,-0.00984252 0.0211575,-0.0178386 0.034063,-0.023374 0.0124016,-0.00532283 0.0259961,-0.00834646 0.0402323,-0.00852362l1.1811e-005 3.93701e-006c0.0143425,-0.000177165 0.0280669,0.00250394 0.0406102,0.00751181 0.0130118,0.00519685 0.024752,0.0128976 0.0345945,0.0225039 0.00984252,0.00960236 0.0178386,0.0211575 0.023374,0.0340591 0.00532283,0.0124055 0.00834646,0.026 0.00852362,0.0402362l-3.93701e-006 7.87402e-006c0.000177165,0.0143465 -0.00250394,0.0280709 -0.00751181,0.0406102 -0.00519685,0.0130157 -0.0128976,0.024752 -0.0225039,0.0345945 -0.00960236,0.00984252 -0.0211575,0.0178425 -0.0340591,0.023378 -0.0124055,0.00532283 -0.026,0.00834646 -0.0402362,0.00851969l-3.93701e-006 0zm-0.00239764 -0.184894l0 0m-0.000389764 -0.0265276l3.93701e-006 0m0.0805709 0.104709l0 0m0.0265276 -0.000389764l0 0"/>
  <path class="fil14" d="M2.45937 4.09614c-0.226894,0.0158937 -0.264402,0.077122 -0.260283,0.156091 0.00120866,0.0231457 0.00568504,0.0490512 0.0103031,0.0758031 0.00815354,0.0472047 0.0167441,0.0969488 0.0106772,0.147756l-0.050185 -0.00131102c0.00632677,-0.045189 -0.00190945,-0.092874 -0.0097126,-0.138043 -0.0048189,-0.0279173 -0.00949213,-0.0549488 -0.0108858,-0.0816693 -0.00575984,-0.110441 0.0444921,-0.194354 0.336606,-0.209587 -0.00267323,0.00570472 -0.0247008,0.0508346 -0.0265197,0.0509606z"/>
  <path class="fil14" d="M4.34205 4.09614c0.226894,0.0158937 0.264402,0.077122 0.260283,0.156091 -0.00573622,0.109815 -0.0171693,0.154917 -0.00403937,0.278563 0.010126,0.095311 0.029437,0.199598 0.061185,0.2575l0.050185 -0.00131102c-0.0331654,-0.0584528 -0.0578858,-0.171575 -0.0666142,-0.266988 -0.0096811,-0.105799 0.00402362,-0.168169 0.00908661,-0.265228 0.00575984,-0.110441 -0.0444921,-0.194354 -0.336606,-0.209587 0.00267323,0.00570472 0.0247008,0.0508346 0.0265197,0.0509606z"/>
  <path class="fil2" d="M3.8994 3.02438l0 0.742945c-0.183945,0.134079 -0.361228,0.209189 -0.486067,0.209189 -0.124843,0 -0.302157,-0.0751102 -0.486067,-0.209189l0 -0.742945c0,-0.599197 0.972134,-0.599197 0.972134,0z"/>
  <path class="fil1" d="M3.41333 1.03212c-1.63142,0 -1.04473,1.97124 -0.938161,2.12815 0.117504,0.173051 0.674579,0.631705 0.938161,0.631705 0.263579,0 0.820622,-0.458654 0.938114,-0.631705 0.106614,-0.156902 0.693299,-2.12815 -0.938114,-2.12815z"/>
  <path class="fil15" d="M2.66763 1.69181c-0.094626,0.517 -0.331614,0.468744 -0.312819,1.07543 -0.076126,-0.472846 -0.189823,-1.1021 0.131665,-1.51659 0.256878,-0.331197 1.10768,-0.568106 1.65861,-0.17072 0.6085,0.13 0.418217,1.36889 0.336622,1.60305 -0.0569567,-0.37928 -0.184543,-0.537276 -0.345622,-0.983209 -0.218528,0.156701 -1.18833,0.191661 -1.46846,-0.00796063z"/>
  <path class="fil16" d="M2.91923 3.09563c0.328118,0.117425 0.708972,0.0983858 0.988189,0 -0.0911102,0.419787 -0.813957,0.429984 -0.988189,0z"/>
  <rect class="fil17" x="0.0364567" y="-0.00520866" width="6.82666" height="6.82666"/>
 </g>
</svg>
