<?xml version="1.0" encoding="UTF-8"?>
<!DOCTYPE svg PUBLIC "-//W3C//DTD SVG 1.1//EN" "http://www.w3.org/Graphics/SVG/1.1/DTD/svg11.dtd">
<!-- Creator: CorelDRAW -->
<svg xmlns="http://www.w3.org/2000/svg" xml:space="preserve" width="6.82666in" height="6.82666in" style="shape-rendering:geometricPrecision; text-rendering:geometricPrecision; image-rendering:optimizeQuality; fill-rule:evenodd; clip-rule:evenodd"
viewBox="0 0 6.82666 6.82666"
 xmlns:xlink="http://www.w3.org/1999/xlink">
 <defs>
  <style type="text/css">
   <![CDATA[
    .str0 {stroke:#00796B;stroke-width:0.0166654}
    .fil15 {fill:none}
    .fil4 {fill:#00796B}
    .fil8 {fill:#263F56}
    .fil14 {fill:#424242}
    .fil7 {fill:#85BCEB}
    .fil0 {fill:#CC7C54}
    .fil12 {fill:#E0E0E0}
    .fil9 {fill:#E57373}
    .fil10 {fill:#EF5350}
    .fil5 {fill:#F0D0C0}
    .fil1 {fill:#F2CDBA}
    .fil3 {fill:#F6C4AA}
    .fil13 {fill:#FFAB40}
    .fil2 {fill:#FFDDCC}
    .fil6 {fill:white}
    .fil11 {fill:#00796B;fill-rule:nonzero}
    .fil16 {fill:black;fill-rule:nonzero}
   ]]>
  </style>
 </defs>
 <g id="Layer_x0020_1">
  <metadata id="CorelCorpID_0Corel-Layer"/>
  <g id="_488493152">
   <path id="_488495288" class="fil0" d="M2.2731 5.34541c-0.398547,-1.67267 -0.610232,-4.15951 1.11283,-4.15951 1.72312,0 1.63153,2.46166 1.21726,4.21231 -0.806409,0.472614 -1.63436,0.342287 -2.33009,-0.0528031z"/>
   <path id="_488494664" class="fil1" d="M4.62705 2.78743c-0.091185,-0.0413307 -0.219969,0.0601102 -0.28765,0.226524 -0.067752,0.166508 -0.0487205,0.334929 0.0424646,0.37626 0.091185,0.0413622 0.219933,-0.0600748 0.287685,-0.226528 0.0677165,-0.166457 0.048685,-0.334894 -0.0425,-0.376256z"/>
   <path id="_488494568" class="fil2" d="M3.87296 3.3132l0 1.12606c-0.252831,0.332264 -0.666437,0.320787 -0.919232,0l0 -1.12606c0,-0.607992 0.919232,-0.607992 0.919232,0z"/>
   <path id="_488495072" class="fil1" d="M2.17508 2.78743c0.091185,-0.0413307 0.219933,0.0600591 0.287685,0.226524 0.0677165,0.166508 0.048685,0.334929 -0.0424646,0.376295 -0.0911732,0.0413268 -0.219969,-0.0600591 -0.287685,-0.226563 -0.0677165,-0.166457 -0.0486732,-0.334894 0.0424646,-0.376256z"/>
   <path id="_488494544" class="fil3" d="M3.87296 3.3132l0 0.753925c-0.173937,0.136067 -0.341575,0.212295 -0.45961,0.212295 -0.118035,0 -0.285685,-0.0762283 -0.459622,-0.212256l0 -0.753965c0,-0.607992 0.919232,-0.607992 0.919232,0z"/>
   <path id="_488495120" class="fil3" d="M1.94044 5.96504c0.00275984,-0.0901811 0.0109961,-0.198811 0.0327874,-0.331157 -0.0406654,0.129067 -0.069437,0.237075 -0.0897441,0.331157l0.0569567 0z"/>
   <path id="_488494880" class="fil3" d="M4.88628 5.96504c-0.00279528,-0.0901811 -0.0110276,-0.198811 -0.0328386,-0.331157 0.0406811,0.129067 0.0694409,0.237075 0.0897598,0.331157l-0.0569213 0z"/>
   <path id="_488494448" class="fil4" d="M2.97773 3.99601c-0.963004,0.422177 -1.25189,0.647291 -1.36607,0.748323 -0.17598,0.155713 -0.273315,0.736146 -0.377102,1.229l2.17881 0 2.17877 0c-0.10378,-0.49285 -0.201122,-1.07328 -0.377091,-1.229 -0.114154,-0.101031 -0.392472,-0.32035 -1.35551,-0.742528l-0.881799 -0.00579528z"/>
   <path id="_488494496" class="fil5" d="M2.84807 3.84848l-0.0484528 2.12485 1.22547 0 -0.0484803 -2.12485c-0.376157,0 -0.752354,0 -1.12854,0z"/>
   <path id="_488494712" class="fil6" d="M2.67854 4.5036c0.242366,0.180209 0.913587,0.298283 1.51644,0.0434843 -0.416598,0.550535 -0.273457,1.42624 -0.273457,1.42624l-0.851465 0c0,0 -0.0869685,-0.767457 -0.391524,-1.46973z"/>
   <path id="_488494784" class="fil7" d="M2.94577 3.67746l0 0.544449 0.20311 1.75141 -0.34926 0 -0.384244 -0.780079 0.366776 -0.244492 -0.448232 -0.209579c0,0 0.0940709,-0.735134 0.61185,-1.06171z"/>
   <path id="_488494256" class="fil7" d="M3.88094 3.67746l3.14961e-005 0.544449 -0.205138 1.75141 0.349256 0 0.384213 -0.780079 -0.36674 -0.244492 0.448232 -0.209579c0,0 -0.167165,-0.772705 -0.609854,-1.06171z"/>
   <path id="_488494160" class="fil8" d="M2.12247 5.97333l0.0746102 0c-0.00333465,-0.331807 -0.00333465,-0.570945 -0.00333465,-0.570945 0,0 -0.0330512,0.248531 -0.0712756,0.570945z"/>
   <path id="_488493896" class="fil8" d="M4.70425 5.97333l-0.0746535 0c0.00333465,-0.331807 0.00333465,-0.570945 0.00333465,-0.570945 0,0 0.0330512,0.248531 0.0713189,0.570945z"/>
   <path id="_488493752" class="fil3" d="M3.87856 3.3854l0 0.710894c-0.175972,0.128283 -0.345642,0.200165 -0.465098,0.200165 -0.119453,0 -0.289122,-0.0718819 -0.465098,-0.200146l0 -0.710913c0,-0.573331 0.930197,-0.573331 0.930197,0z"/>
   <path id="_488493992" class="fil2" d="M3.41335 4.09212c-0.426264,0 -0.931409,-0.470476 -1.12685,-1.14427 -0.197323,-0.680421 0.174295,-1.65631 1.12685,-1.65631 0.952555,0 1.32417,0.975886 1.1268,1.65631 -0.195441,0.673795 -0.667177,1.14427 -1.1268,1.14427z"/>
   <path id="_488494376" class="fil9" d="M3.06979 3.41377c0.149933,-0.108315 0.269748,-0.0111339 0.3605,-0.0369173 0.0826811,0.0334724 0.196941,-0.0527638 0.360461,0.0369173 -0.0425748,0.151701 -0.206028,0.202165 -0.368543,0.197169 -0.150469,-0.00461024 -0.300185,-0.0533228 -0.352417,-0.197169z"/>
   <path id="_488494064" class="fil10" d="M3.06979 3.41377c0.143567,-0.120831 0.271453,-0.0369173 0.3605,-0.0369173 0.0890591,0 0.212028,-0.0660472 0.360461,0.0369173 -0.233185,0.11487 -0.564,0.0612047 -0.720961,0z"/>
   <path id="_488493944" class="fil0" d="M4.57241 2.9344c0.232882,-1.27676 -0.521921,-1.68182 -1.15885,-1.68182 -0.717402,0 -1.45897,0.550209 -1.11577,1.72394 0.683866,-0.0337047 1.30907,-0.438732 1.9133,-1.23977 0.102886,0.406909 0.172323,0.935795 0.361323,1.19765z"/>
   <g>
    <path id="_488493872" class="fil11" d="M4.64698 1.92528c0.0462244,0.0388071 0.0712323,0.0800079 0.0712323,0.121386 0,0.107126 -0.19735,0.25063 -0.507437,0.340091 -0.21724,0.0626732 -0.495567,0.109492 -0.797445,0.109492 -0.301878,0 -0.580205,-0.0468189 -0.797445,-0.109492 -0.310091,-0.0894606 -0.507441,-0.232965 -0.507441,-0.340091 0,-0.041378 0.0250118,-0.0825787 0.0712323,-0.121386l2.4673 0z"/>
    <path id="_488493296" class="fil12" d="M3.40546 0.853331c0.759008,0 1.2351,0.476909 1.37431,0.754567 0.0682126,0.136043 -0.0226063,0.173594 -0.134177,0.173594l-2.46942 0c-0.113248,0 -0.17576,-0.0562087 -0.14502,-0.173594 0.0694409,-0.265079 0.615299,-0.754567 1.37431,-0.754567z"/>
    <rect id="_488493584" class="fil4" x="2.17958" y="1.78149" width="2.4675" height="0.144663"/>
    <rect id="_488493536" class="fil13" x="2.17958" y="1.85383" width="2.4675" height="0.0723298"/>
    <ellipse id="_488493272" class="fil14" cx="3.41333" cy="1.4505" rx="0.172062" ry="0.166393"/>
    <ellipse id="_488493224" class="fil15 str0" cx="3.41333" cy="1.4505" rx="0.207091" ry="0.200268"/>
   </g>
  </g>
  <circle class="fil14" cx="2.42761" cy="5.64576" r="0.308282"/>
  <path class="fil16" d="M2.43073 4.10181c-0.872024,0 -1.57893,0.706906 -1.57893,1.57892 0,0.0996181 0.00932283,0.197043 0.0269685,0.291543l0.23463 0c-0.000925197,-0.00420079 -0.0018937,-0.00838189 -0.00277953,-0.0125984l0.516 -0.151228c0.242181,-0.0534921 0.326268,-0.0654646 0.451957,0.0268386l0.0680118 0.0579055c0.030248,0.0265276 0.0531142,0.0518543 0.0704055,0.0790827l0.427465 0c0.0172913,-0.0272283 0.0401535,-0.0525551 0.0704016,-0.0790827l0.0680157 -0.0579055c0.125709,-0.0923031 0.209795,-0.0803307 0.451976,-0.0268386l0.515988 0.151228c-0.000885827,0.0042126 -0.00185433,0.00839764 -0.00277953,0.0125984l0.234618 0c0.0176457,-0.0945 0.0269685,-0.191925 0.0269685,-0.291543 0,-0.872016 -0.706909,-1.57892 -1.57891,-1.57892zm0 0.22987l0 0c0.720264,0 1.30867,0.5645 1.34701,1.27521 -0.152248,-0.0601929 -0.828433,-0.315453 -1.34701,-0.315453 -0.518591,0 -1.19477,0.25526 -1.34702,0.315453 0.0383504,-0.710709 0.626724,-1.27521 1.34702,-1.27521zm-0.284402 1.31792l0 0c0,-0.157071 0.127331,-0.284402 0.284402,-0.284402 0.157067,0 0.284406,0.127331 0.284406,0.284402 0,0.157059 -0.127339,0.284398 -0.284406,0.284398 -0.157071,0 -0.284402,-0.127339 -0.284402,-0.284398zm0.284402 -0.145272l0 0c-0.0802205,0 -0.145272,0.0650512 -0.145272,0.145272 0,0.0802283 0.0650512,0.145268 0.145272,0.145268 0.0802323,0 0.145272,-0.0650394 0.145272,-0.145268 0,-0.0802205 -0.0650394,-0.145272 -0.145272,-0.145272z"/>
  <rect class="fil15" x="0.0364567" y="-0.00520866" width="6.82666" height="6.82666"/>
 </g>
</svg>
