<?xml version="1.0" encoding="UTF-8"?>
<!DOCTYPE svg PUBLIC "-//W3C//DTD SVG 1.1//EN" "http://www.w3.org/Graphics/SVG/1.1/DTD/svg11.dtd">
<!-- Creator: CorelDRAW -->
<svg xmlns="http://www.w3.org/2000/svg" xml:space="preserve" width="6.82666in" height="6.82666in" style="shape-rendering:geometricPrecision; text-rendering:geometricPrecision; image-rendering:optimizeQuality; fill-rule:evenodd; clip-rule:evenodd"
viewBox="0 0 6.82666 6.82666"
 xmlns:xlink="http://www.w3.org/1999/xlink">
 <defs>
  <style type="text/css">
   <![CDATA[
    .str0 {stroke:#00796B;stroke-width:0.0166654}
    .fil14 {fill:none}
    .fil7 {fill:#004D40}
    .fil3 {fill:#00796B}
    .fil6 {fill:#26A69A}
    .fil8 {fill:#293439}
    .fil13 {fill:#424242}
    .fil5 {fill:#4FC3F7}
    .fil2 {fill:#DFC4B6}
    .fil11 {fill:#E0E0E0}
    .fil9 {fill:#E4B7A0}
    .fil1 {fill:#ECCEBE}
    .fil0 {fill:#F2D0BF}
    .fil12 {fill:#FFAB40}
    .fil4 {fill:#FFDDCC}
    .fil10 {fill:#00796B;fill-rule:nonzero}
    .fil15 {fill:black;fill-rule:nonzero}
   ]]>
  </style>
 </defs>
 <g id="Layer_x0020_1">
  <metadata id="CorelCorpID_0Corel-Layer"/>
  <path class="fil0" d="M2.24675 2.3278c0.0796299,-0.0342205 0.180996,0.0835748 0.22635,0.263126 0.0453543,0.179496 0.0175591,0.352736 -0.0621142,0.386953 -0.0796299,0.0341654 -0.180992,-0.0836299 -0.226346,-0.263181 -0.0453976,-0.179496 -0.0175591,-0.352748 0.0621102,-0.386898z"/>
  <path class="fil0" d="M4.57562 2.3278c-0.0796732,-0.0342205 -0.181035,0.0836299 -0.22639,0.263126 -0.0453543,0.179496 -0.0175591,0.352736 0.0621024,0.386898 0.0796693,0.0342205 0.181031,-0.0835748 0.22639,-0.263126 0.0453543,-0.179496 0.0175591,-0.352748 -0.0621024,-0.386898z"/>
  <path class="fil1" d="M3.8994 3.02438l0 1.10967c-0.267354,0.327437 -0.704827,0.316098 -0.972134,0l0 -1.10967c0,-0.599197 0.972134,-0.599197 0.972134,0z"/>
  <path class="fil2" d="M3.8994 3.02438l0 0.742945c-0.183945,0.134079 -0.361228,0.209189 -0.486067,0.209189 -0.124843,0 -0.302157,-0.0751102 -0.486067,-0.209189l0 -0.742945c0,-0.599197 0.972134,-0.599197 0.972134,0z"/>
  <path class="fil3" d="M2.95498 3.89039c-1.01328,0.44422 -1.31726,0.681087 -1.43741,0.787398 -0.185169,0.163843 -0.287583,0.774579 -0.396791,1.29317l2.29257 0 2.29253 0c-0.109197,-0.518587 -0.211622,-1.12932 -0.396783,-1.29317 -0.12011,-0.106311 -0.412961,-0.337079 -1.42628,-0.781299l-0.927843 -0.00609843z"/>
  <path class="fil4" d="M2.81855 3.6707l-0.0509803 2.30026 1.28946 0 -0.0510157 -2.30026c-0.395795,0 -0.791634,0 -1.18746,0z"/>
  <path class="fil5" d="M2.64017 4.42448c0.255024,0.189622 0.961291,0.313858 1.59563,0.0457559 -0.438354,0.579283 -0.287736,1.50072 -0.287736,1.50072l-0.895921 0c0,0 -0.0915118,-0.807531 -0.411969,-1.54647z"/>
  <path class="fil6" d="M2.92135 3.55522l0 0.572874 0.213713 1.84287 -0.367496 0 -0.404307 -0.820811 0.385925 -0.257256 -0.471634 -0.220524c0,0 0.0989803,-0.773516 0.643799,-1.11715z"/>
  <path class="fil6" d="M3.90535 3.55522l3.14961e-005 0.572874 -0.21585 1.84287 0.367496 0 0.404272 -0.820811 -0.38589 -0.257256 0.471634 -0.220524c0,0 -0.175894,-0.813051 -0.641693,-1.11715z"/>
  <path class="fil7" d="M2.05506 5.97096l0.0785039 0c-0.00350787,-0.349134 -0.00350787,-0.600756 -0.00350787,-0.600756 0,0 -0.0347756,0.261508 -0.0749961,0.600756z"/>
  <path class="fil7" d="M4.77164 5.97096l-0.0785472 0c0.00350787,-0.349134 0.00350787,-0.600756 0.00350787,-0.600756 0,0 0.0347756,0.261508 0.0750394,0.600756z"/>
  <path class="fil0" d="M3.92362 3.04546l-0.018248 0.750902c-0.189972,0.134083 -0.363106,0.210055 -0.492039,0.210055 -0.128933,0 -0.302035,-0.0707677 -0.491972,-0.20485l-0.0183189 -0.756106c0,-0.599197 1.02058,-0.599197 1.02058,0z"/>
  <path class="fil4" d="M3.41333 1.03212c-1.63142,0 -1.04473,2.05806 -0.938161,2.21495 0.117504,0.173055 0.446189,0.544898 0.938161,0.544898 0.447937,0 0.820622,-0.371843 0.938114,-0.544898 0.106614,-0.156898 0.693299,-2.21495 -0.938114,-2.21495z"/>
  <path class="fil8" d="M2.66763 1.69181c-0.094626,0.517 -0.331614,0.468744 -0.312819,1.07543 -0.076126,-0.472846 -0.189823,-1.1021 0.131665,-1.51659 0.256878,-0.331197 1.10768,-0.568106 1.65861,-0.17072 0.6085,0.13 0.418217,1.36889 0.336622,1.60305 -0.0569567,-0.37928 -0.184543,-0.537276 -0.345622,-0.983209 -0.218528,0.156701 -1.18833,0.191661 -1.46846,-0.00796063z"/>
  <path class="fil9" d="M2.91923 3.09563c0.328118,0.117425 0.708972,0.0983858 0.988189,0 -0.0911102,0.419787 -0.813957,0.429984 -0.988189,0z"/>
  <g id="_488496488">
   <path id="_488496128" class="fil10" d="M4.657 1.89194c0.0462244,0.0388071 0.0712323,0.0800079 0.0712323,0.121386 0,0.107126 -0.19735,0.25063 -0.507437,0.340091 -0.21724,0.0626732 -0.495567,0.109492 -0.797445,0.109492 -0.301878,0 -0.580205,-0.0468189 -0.797445,-0.109492 -0.310091,-0.0894606 -0.507441,-0.232965 -0.507441,-0.340091 0,-0.041378 0.0250118,-0.0825787 0.0712323,-0.121386l2.4673 0z"/>
   <path id="_488496104" class="fil11" d="M3.41548 0.819996c0.759008,0 1.2351,0.476909 1.37431,0.754567 0.0682126,0.136043 -0.0226063,0.173594 -0.134177,0.173594l-2.46942 0c-0.113248,0 -0.17576,-0.0562087 -0.14502,-0.173594 0.0694409,-0.265079 0.615299,-0.754567 1.37431,-0.754567z"/>
   <rect id="_488496056" class="fil3" x="2.1896" y="1.74816" width="2.4675" height="0.144663"/>
   <rect id="_488496680" class="fil12" x="2.1896" y="1.82049" width="2.4675" height="0.0723298"/>
   <ellipse id="_488496416" class="fil13" cx="3.42335" cy="1.41717" rx="0.172062" ry="0.166393"/>
   <ellipse id="_488496728" class="fil14 str0" cx="3.42335" cy="1.41717" rx="0.207091" ry="0.200268"/>
  </g>
  <circle class="fil13" cx="2.42761" cy="5.64576" r="0.308282"/>
  <path class="fil15" d="M2.43073 4.10181c-0.872024,0 -1.57893,0.706906 -1.57893,1.57892 0,0.0996181 0.00932283,0.197043 0.0269685,0.291543l0.23463 0c-0.000925197,-0.00420079 -0.0018937,-0.00838189 -0.00277953,-0.0125984l0.516 -0.151228c0.242181,-0.0534921 0.326268,-0.0654646 0.451957,0.0268386l0.0680118 0.0579055c0.030248,0.0265276 0.0531142,0.0518543 0.0704055,0.0790827l0.427465 0c0.0172913,-0.0272283 0.0401535,-0.0525551 0.0704016,-0.0790827l0.0680157 -0.0579055c0.125709,-0.0923031 0.209795,-0.0803307 0.451976,-0.0268386l0.515988 0.151228c-0.000885827,0.0042126 -0.00185433,0.00839764 -0.00277953,0.0125984l0.234618 0c0.0176457,-0.0945 0.0269685,-0.191925 0.0269685,-0.291543 0,-0.872016 -0.706909,-1.57892 -1.57891,-1.57892zm0 0.22987l0 0c0.720264,0 1.30867,0.5645 1.34701,1.27521 -0.152248,-0.0601929 -0.828433,-0.315453 -1.34701,-0.315453 -0.518591,0 -1.19477,0.25526 -1.34702,0.315453 0.0383504,-0.710709 0.626724,-1.27521 1.34702,-1.27521zm-0.284402 1.31792l0 0c0,-0.157071 0.127331,-0.284402 0.284402,-0.284402 0.157067,0 0.284406,0.127331 0.284406,0.284402 0,0.157059 -0.127339,0.284398 -0.284406,0.284398 -0.157071,0 -0.284402,-0.127339 -0.284402,-0.284398zm0.284402 -0.145272l0 0c-0.0802205,0 -0.145272,0.0650512 -0.145272,0.145272 0,0.0802283 0.0650512,0.145268 0.145272,0.145268 0.0802323,0 0.145272,-0.0650394 0.145272,-0.145268 0,-0.0802205 -0.0650394,-0.145272 -0.145272,-0.145272z"/>
  <rect class="fil14" x="0.0364567" y="-0.00520866" width="6.82666" height="6.82666"/>
 </g>
</svg>
