<?xml version="1.0" encoding="UTF-8"?>
<!DOCTYPE svg PUBLIC "-//W3C//DTD SVG 1.1//EN" "http://www.w3.org/Graphics/SVG/1.1/DTD/svg11.dtd">
<!-- Creator: CorelDRAW -->
<svg xmlns="http://www.w3.org/2000/svg" xml:space="preserve" width="6.82666in" height="6.82666in" style="shape-rendering:geometricPrecision; text-rendering:geometricPrecision; image-rendering:optimizeQuality; fill-rule:evenodd; clip-rule:evenodd"
viewBox="0 0 6.82666 6.82666"
 xmlns:xlink="http://www.w3.org/1999/xlink"
 version="1.1">
 <defs>
  <style type="text/css">
   <![CDATA[
    .fil19 {fill:none}
    .fil10 {fill:#0277BD}
    .fil9 {fill:#039BE5}
    .fil11 {fill:#212121}
    .fil8 {fill:#424242}
    .fil2 {fill:#85BCEB}
    .fil3 {fill:#B6DBFB}
    .fil15 {fill:#C04806}
    .fil1 {fill:#D4996A}
    .fil6 {fill:#D69B6B}
    .fil5 {fill:#DB830F}
    .fil0 {fill:#DBA070}
    .fil12 {fill:#E0E0E0}
    .fil14 {fill:#E65100}
    .fil4 {fill:#E6A875}
    .fil18 {fill:#F08D0C}
    .fil7 {fill:#FAFAFA}
    .fil17 {fill:#FF9100}
    .fil13 {fill:#424242;fill-rule:nonzero}
    .fil16 {fill:#545454;fill-rule:nonzero}
   ]]>
  </style>
 </defs>
 <g id="Layer_x0020_1">
  <metadata id="CorelCorpID_0Corel-Layer"/>
  <path class="fil0" d="M2.9285 3.76117c-1.07176,0.46989 -1.39327,0.720354 -1.52035,0.832846 -0.195854,0.173295 -0.304177,0.819276 -0.419689,1.36781l2.42486 0 2.42486 0c-0.115512,-0.548531 -0.223882,-1.19454 -0.419689,-1.36781 -0.127075,-0.112492 -0.436827,-0.356531 -1.50862,-0.826406l-0.981382 -0.00644094z"/>
  <path class="fil1" d="M2.92851 3.76117c-0.0345315,0.0151417 -0.068248,0.0300433 -0.101244,0.0447323 0.0393425,0.0439803 0.0814488,0.084311 0.126591,0.119949 0.0694882,0.0548622 0.143902,0.0869016 0.224146,0.105055 0.0756299,0.0171181 0.153071,0.0215748 0.235327,0.0215748 0.0814921,0 0.157902,-0.00396063 0.231665,-0.0201063 0.0797992,-0.0174646 0.153736,-0.0484173 0.222618,-0.101933 0.0468937,-0.0364252 0.0905591,-0.0779961 0.131295,-0.123539 -0.0291024,-0.0129252 -0.0587126,-0.0260079 -0.0890197,-0.0392953l-0.981378 -0.00643701z"/>
  <path class="fil2" d="M2.5252 3.94387c-0.753661,0.353862 -1.00755,0.55324 -1.11704,0.650138 -0.195854,0.173295 -0.304177,0.819276 -0.419689,1.36781l2.42486 0 2.42486 0c-0.115512,-0.548531 -0.223882,-1.19454 -0.419689,-1.36781 -0.105831,-0.0936535 -0.338417,-0.278575 -1.03199,-0.609083 -0.00491732,0.00511811 -0.00996063,0.0101378 -0.0148071,0.0153465 -0.651098,0.70426 -1.57346,0.358102 -1.82303,-0.0238819 -0.00778346,-0.011063 -0.0156496,-0.0216575 -0.0234803,-0.0325197z"/>
  <path class="fil3" d="M1.28518 4.78299c-0.123331,0.27785 -0.207902,0.757114 -0.296709,1.17883l0.984354 0c-0.0219764,-0.688008 -0.0232283,-1.05394 -0.687646,-1.17883z"/>
  <path class="fil3" d="M5.54147 4.78299c0.123331,0.27785 0.207902,0.757114 0.29672,1.17883l-0.984402 0c0.0220197,-0.688008 0.0232756,-1.05394 0.687681,-1.17883z"/>
  <path class="fil3" d="M2.52592 3.94387c-0.0495669,0.0232165 -0.096874,0.045752 -0.142283,0.0676772 0.342819,0.485213 1.3936,0.959323 2.11448,0.0250039 -0.0345236,-0.0168228 -0.070185,-0.0340079 -0.107248,-0.051626 -0.00496457,0.00511811 -0.00999606,0.0101378 -0.0148425,0.0153465 -0.65235,0.70426 -1.5765,0.358102 -1.82659,-0.0238819 -0.0077874,-0.011063 -0.015689,-0.0216575 -0.0235197,-0.0325197z"/>
  <path class="fil4" d="M4.34161 2.23005l-0.130772 0.107272 -0.0675 0.0245866 -1.52083 0 -0.0725 -0.028752 -0.0927598 -0.0861654 3.93701e-006 0 -0.156539 -0.0204173c-0.0314213,0.0297638 -0.0580827,0.0654567 -0.0785472,0.10548 -0.0292441,0.0572008 -0.0459921,0.122752 -0.0459921,0.191744 0,0.0986654 0.0335118,0.189307 0.0885236,0.258272 0.0427402,0.0535787 0.0984724,0.0942717 0.162039,0.116248 0.0484685,0.151461 0.108528,0.321236 0.186315,0.481067 0.0910787,0.187134 0.207024,0.361429 0.358406,0.480933 0.0668268,0.0527638 0.13839,0.0835748 0.215559,0.101035 0.0727362,0.0164606 0.147213,0.020748 0.226319,0.020748 0.0783701,0 0.151854,-0.00381102 0.222791,-0.0193386 0.0767441,-0.0167953 0.14785,-0.046563 0.214094,-0.0980276 0.152638,-0.118575 0.269803,-0.293744 0.361972,-0.482433 0.0784646,-0.160626 0.138965,-0.331571 0.187736,-0.483984 0.0635709,-0.0219764 0.119299,-0.0626732 0.162043,-0.116252 0.0550157,-0.0689606 0.0885276,-0.159602 0.0885276,-0.258268 0,-0.0841496 -0.0246299,-0.16276 -0.066315,-0.227165 -0.0200472,-0.0309646 -0.0441024,-0.0586102 -0.0713622,-0.0820315l-0.171209 0.0154488z"/>
  <ellipse class="fil5" cx="3.41333" cy="1.46717" rx="0.773905" ry="0.536457"/>
  <path class="fil6" d="M3.87125 3.46227c-0.304094,0.0811378 -0.657067,0.0679843 -0.915843,0 0.0844409,0.290067 0.754366,0.29711 0.915843,0z"/>
  <path class="fil7" d="M2.05615 5.96183l0.0784843 0c-0.00350394,-0.348835 -0.00350394,-0.600252 -0.00350394,-0.600252 0,0 -0.0347362,0.26128 -0.0749803,0.600252z"/>
  <path class="fil7" d="M4.7705 5.96183l-0.0784843 0c0.00350394,-0.348835 0.00353937,-0.600252 0.00353937,-0.600252 0,0 0.0347441,0.26128 0.0749449,0.600252z"/>
  <g id="_499250344">
   <path id="_499250896" class="fil8" d="M4.15999 5.43552c0.0589134,0 0.106669,0.0481535 0.106669,0.107559 0,0.0594094 -0.0477559,0.107563 -0.106669,0.107563 -0.0589134,0 -0.106669,-0.0481535 -0.106669,-0.107563 0,-0.0594055 0.0477559,-0.107559 0.106669,-0.107559z"/>
   <path id="_499250968" class="fil8" d="M2.66667 5.43552c0.0589134,0 0.106669,0.0481535 0.106669,0.107559 0,0.0594094 -0.0477559,0.107563 -0.106669,0.107563 -0.0589134,0 -0.106669,-0.0481535 -0.106669,-0.107563 0,-0.0594055 0.0477559,-0.107559 0.106669,-0.107559z"/>
   <path id="_499251016" class="fil9" d="M2.2 4.68261l2.42667 0c0.0366693,0 0.0666654,0.0299961 0.0666654,0.0666654l0 1.22406 -2.56 0 0 -1.22406c0,-0.0366693 0.0299961,-0.0666654 0.0666654,-0.0666654z"/>
   <path id="_499250032" class="fil10" d="M2.41697 3.9705c0.087937,-0.0425866 0.181244,-0.0756378 0.278949,-0.0978189l0 1.06259c0,0.0767126 -0.0627559,0.139472 -0.139472,0.139472l0 0c-0.0767205,0 -0.139476,-0.0627598 -0.139476,-0.139472l0 -0.964772z"/>
   <path id="_499250056" class="fil10" d="M4.13074 3.86268c0.0963937,0.0176614 0.18985,0.045437 0.278949,0.0821693l0 0.990425c0,0.0767126 -0.0627559,0.139472 -0.139472,0.139472l0 0c-0.0767205,0 -0.139476,-0.0627598 -0.139476,-0.139472l0 -1.07259z"/>
   <path id="_499249936" class="fil11" d="M2.55728 4.8204c0.0605157,0 0.109583,0.0490669 0.109583,0.109583 0,0.0605157 -0.0490669,0.109583 -0.109583,0.109583 -0.0605157,0 -0.109583,-0.0490669 -0.109583,-0.109583 0,-0.0605157 0.0490669,-0.109583 0.109583,-0.109583z"/>
   <path id="_499250416" class="fil11" d="M4.27022 4.8204c0.0605157,0 0.109583,0.0490669 0.109583,0.109583 0,0.0605157 -0.0490669,0.109583 -0.109583,0.109583 -0.0605157,0 -0.109583,-0.0490669 -0.109583,-0.109583 0,-0.0605157 0.0490669,-0.109583 0.109583,-0.109583z"/>
   <g>
    <path id="_499250560" class="fil12" d="M2.55728 4.88223c0.00940945,0 0.0170354,0.00762598 0.0170354,0.0170354 0,0.00940551 -0.00762598,0.0170354 -0.0170354,0.0170354 -0.00940945,0 -0.0170354,-0.00762992 -0.0170354,-0.0170354 0,-0.00940945 0.00762598,-0.0170354 0.0170354,-0.0170354z"/>
    <path id="_499250368" class="fil12" d="M2.55728 4.94366c0.00940945,0 0.0170354,0.00762598 0.0170354,0.0170354 0,0.00940551 -0.00762598,0.0170354 -0.0170354,0.0170354 -0.00940945,0 -0.0170354,-0.00762992 -0.0170354,-0.0170354 0,-0.00940945 0.00762598,-0.0170354 0.0170354,-0.0170354z"/>
   </g>
   <g>
    <path id="_499249984" class="fil12" d="M4.27022 4.88223c0.00940945,0 0.0170354,0.00762598 0.0170354,0.0170354 0,0.00940551 -0.00762598,0.0170354 -0.0170354,0.0170354 -0.00940945,0 -0.0170354,-0.00762992 -0.0170354,-0.0170354 0,-0.00940945 0.00762598,-0.0170354 0.0170354,-0.0170354z"/>
    <path id="_499250536" class="fil12" d="M4.27022 4.94366c0.00940945,0 0.0170354,0.00762598 0.0170354,0.0170354 0,0.00940551 -0.00762598,0.0170354 -0.0170354,0.0170354 -0.00940945,0 -0.0170354,-0.00762992 -0.0170354,-0.0170354 0,-0.00940945 0.00762598,-0.0170354 0.0170354,-0.0170354z"/>
   </g>
  </g>
  <g id="_499249312">
   <polygon id="_499250272" class="fil13" points="1.2252,2.9849 2.253,4.0127 2.16709,4.09861 1.13929,3.07081 "/>
   <path id="_499250200" class="fil14" d="M2.68006 3.87315l-0.65252 0.652524 0.00764961 0.00764961 0.0112795 -0.0112756c0.0568543,-0.0568583 0.14989,-0.0568583 0.206744,0l0 0c0.0568543,0.0568543 0.0568543,0.14989 0,0.206744l-0.0112756 0.0112756 1.23282 1.23282c0.118437,0.118437 0.31226,0.118437 0.430709,-1.1811e-005l0.221799 -0.221799c0.118449,-0.118449 0.118449,-0.312272 1.1811e-005,-0.430709l-1.23282 -1.23282 -0.0112795 0.0112756c-0.0568543,0.0568543 -0.149886,0.0568543 -0.20674,0l0 0c-0.0568583,-0.0568583 -0.0568583,-0.149894 -3.93701e-006,-0.206744l0.0112795 -0.0112795 -0.00765354 -0.00765354z"/>
   <path id="_499249504" class="fil15" d="M2.68006 3.87315l-0.482091 0.206437 -0.170429 0.446087 0.00764961 0.00764961 0.0112795 -0.0112756c0.0568543,-0.0568583 0.14989,-0.0568583 0.206744,0l0 0c0.0568543,0.0568543 0.0568543,0.14989 0,0.206744l-0.0112756 0.0112756 0.00468898 0.00468898 0.65252 -0.65252 -0.00468898 -0.00468504 -0.0112795 0.0112756c-0.0568543,0.0568543 -0.149886,0.0568543 -0.20674,0l0 0c-0.0568583,-0.0568583 -0.0568583,-0.149894 -3.93701e-006,-0.206744l0.0112795 -0.0112795 -0.00765354 -0.00765354z"/>
   <path id="_499249360" class="fil14" d="M2.69473 3.87306l-0.667268 0.667268c-0.0146654,0.0146654 -0.0386575,0.0146654 -0.0533228,3.93701e-006l-0.153425 -0.153429c-0.0146654,-0.0146614 -0.0146614,-0.0386575 0,-0.0533189l0.667272 -0.667272c0.0146614,-0.0146614 0.0386575,-0.0146654 0.0533189,0l0.153425 0.153429c0.0146654,0.0146614 0.0146614,0.0386575 0,0.0533189z"/>
   <path id="_499249552" class="fil16" d="M1.32404 3.16965l0 0c-0.0284646,0.0284646 -0.065937,0.0426969 -0.10337,0.0426969 -0.037437,0 -0.0749134,-0.0142323 -0.103374,-0.0426929l-0.210083 -0.210087 -0.0350945 -0.0350906 0.0350945 -0.0350945 0.136563 -0.136559 0.0350906 -0.0350906 0.0350945 0.0350906 0.210079 0.210083c0.0284646,0.0284646 0.0426969,0.0659331 0.0426969,0.10337 0,0.037437 -0.0142323,0.0749094 -0.0426969,0.103374z"/>
   <g>
    <path id="_499249192" class="fil15" d="M3.99524 5.47111l0 0c-0.0219331,0.021937 -0.0578268,0.021937 -0.0797598,0l-1.03224 -1.03223c-0.021937,-0.021937 -0.021937,-0.0578268 0,-0.0797638l0 0c0.021937,-0.0219331 0.0578268,-0.0219331 0.0797638,3.93701e-006l1.03223 1.03223c0.021937,0.021937 0.021937,0.0578307 0,0.0797638z"/>
    <path id="_499249744" class="fil15" d="M3.81038 5.65598l0 0c-0.021937,0.021937 -0.0578268,0.021937 -0.0797638,0l-1.03223 -1.03223c-0.021937,-0.021937 -0.021937,-0.0578307 0,-0.0797638l0 0c0.0219331,-0.0219331 0.0578268,-0.0219331 0.0797638,0l1.03223 1.03223c0.021937,0.021937 0.021937,0.0578307 3.93701e-006,0.0797638z"/>
    <path id="_499249096" class="fil15" d="M3.62551 5.84085l0 0c-0.0219331,0.021937 -0.0578268,0.021937 -0.0797638,0l-1.03223 -1.03223c-0.021937,-0.0219331 -0.021937,-0.0578268 0,-0.0797598l0 0c0.0219331,-0.021937 0.0578228,-0.021937 0.0797598,0l1.03223 1.03223c0.021937,0.0219409 0.021937,0.0578307 0,0.0797638z"/>
   </g>
  </g>
  <path class="fil8" d="M2.42479 2.35318c-0.0236575,0.193795 -0.0141339,0.374106 0.00122047,0.552055l0.0655433 -0.147657c0,0 0.0562953,-0.355039 0.11463,-0.404398 0.0583346,-0.0493622 -0.181394,0 -0.181394,0z"/>
  <path class="fil8" d="M4.37377 2.35318c0.0236575,0.193795 0.0141339,0.374106 -0.00122047,0.552055l-0.0655433 -0.147657c0,0 -0.0562953,-0.355039 -0.11463,-0.404398 -0.0583346,-0.0493622 0.181394,0 0.181394,0z"/>
  <polygon class="fil6" points="4.34161,2.23609 4.21083,2.38535 4.14333,2.41956 2.6225,2.41956 2.55,2.37956 2.45724,2.25967 2.45724,2.25967 2.3007,2.23126 2.55,2.55348 2.6225,2.59349 4.14333,2.59349 4.21083,2.55928 4.51281,2.2146 "/>
  <path class="fil17" d="M3.54756 1.0729l0 0 -1.1811e-005 0 2.3622e-005 0.00158661 -1.1811e-005 -0.00158661zm0.0378976 -0.125335c0.00980709,0.0228819 0.0150276,0.0477126 0.0150276,0.0731772l0 0.0535354 0 0.551488 0.106677 0 0 -0.438098 0 -1.1811e-005 0 -0.166913c0,-0.0177323 -0.00160236,-0.035252 -0.00471654,-0.0523976 0.240433,0.0480748 0.429854,0.159992 0.580421,0.306646 0.153756,0.149756 0.265209,0.334272 0.348425,0.52252 0.0121417,0.0274646 0.0232559,0.0301732 0.0303386,0.0318898 0.0653189,0.0158543 0.1085,0.0263386 0.1085,0.124173l0 0.0499528 -0.0391693 0.0321299 -0.520126 0.426665 -0.0675 0.0245866 -1.52083 0 -0.0725 -0.028752 -0.459299 -0.426665 -0.0341693 -0.0317402 0 -0.0461772c0,-0.176417 0.119555,-0.0867756 0.13352,-0.121921 0.0786142,-0.197894 0.18811,-0.390445 0.342429,-0.545717 0.151571,-0.1525 0.344744,-0.268283 0.591736,-0.317594 -0.00311417,0.0171457 -0.00472047,0.0346693 -0.00472047,0.0524016l0 0.166874 0 1.1811e-005 0 0.438138 0.106677 0 0 -0.551488 0 -0.0535354c0,-0.0254646 0.00522047,-0.0502953 0.0150276,-0.0731772l0.0406417 -0.0070748 -0.0406378 0.0070748c0.00934646,-0.0217992 0.0228543,-0.0418307 0.0399843,-0.0589606 0.0351142,-0.0351181 0.0824134,-0.0550157 0.132142,-0.0550157 0.0497244,0 0.0970315,0.0199016 0.132142,0.0550157 0.0171299,0.0171299 0.0306378,0.0371614 0.0399843,0.0589606zm-0.306358 0.125335l0 0z"/>
  <path class="fil18" d="M2.18462 1.83797c0.134122,0.12726 0.413791,0.390008 0.457083,0.409689 0.0572913,0.0260433 1.41146,0.0104173 1.41146,0.0104173 0,0 0.104169,-0.0260394 0.130209,-0.046874 0.0206378,-0.0165118 0.334413,-0.280402 0.463732,-0.389197 0.00570079,0.00524803 0.0107008,0.0064685 0.0145276,0.0073937 0.0653189,0.0158543 0.1085,0.0263386 0.1085,0.124173l0 0.0499528 -0.0391693 0.0321299 -0.520126 0.426665 -0.0675 0.0245866 -1.52083 0 -0.0725 -0.028752 -0.459299 -0.426665 -0.0341693 -0.0317402 0 -0.0461772c0,-0.161988 0.100787,-0.0996732 0.128087,-0.115602z"/>
  <rect class="fil19" x="0.0364567" y="-0.00520866" width="6.82666" height="6.82666"/>
 </g>
</svg>
