<?xml version="1.0" encoding="UTF-8"?>
<!DOCTYPE svg PUBLIC "-//W3C//DTD SVG 1.1//EN" "http://www.w3.org/Graphics/SVG/1.1/DTD/svg11.dtd">
<!-- Creator: CorelDRAW -->
<svg xmlns="http://www.w3.org/2000/svg" xml:space="preserve" width="6.82666in" height="6.82666in" style="shape-rendering:geometricPrecision; text-rendering:geometricPrecision; image-rendering:optimizeQuality; fill-rule:evenodd; clip-rule:evenodd"
viewBox="0 0 6.82666 6.82666"
 xmlns:xlink="http://www.w3.org/1999/xlink">
 <defs>
  <style type="text/css">
   <![CDATA[
    .fil11 {fill:none}
    .fil7 {fill:#00796B}
    .fil1 {fill:#00897B}
    .fil3 {fill:#B88052}
    .fil5 {fill:#CC4D08}
    .fil4 {fill:#D69B6B}
    .fil6 {fill:#E65100}
    .fil2 {fill:#E6A875}
    .fil10 {fill:#FAFAFA}
    .fil8 {fill:#FFAB40}
    .fil9 {fill:#FFD180}
    .fil0 {fill:#FFDDCC}
   ]]>
  </style>
 </defs>
 <g id="Layer_x0020_1">
  <metadata id="CorelCorpID_0Corel-Layer"/>
  <g id="_499252360">
   <path id="_499254256" class="fil0" d="M2.95537 3.91422c-1.01244,0.443854 -1.31618,0.680484 -1.43622,0.786752 -0.185016,0.163717 -0.287346,0.773953 -0.396465,1.2921l2.29069 0 2.29066 0c-0.109122,-0.51815 -0.211461,-1.12839 -0.396469,-1.2921 -0.120055,-0.106268 -0.412654,-0.336791 -1.42511,-0.780701l-0.927079 -0.00605118z"/>
   <path id="_499253728" class="fil1" d="M2.95537 3.91422c-1.01249,0.443854 -1.31618,0.680484 -1.43622,0.786752 -0.185016,0.163717 -0.287346,0.773953 -0.3965,1.2921l2.29072 0 2.29066 0c-0.109122,-0.51815 -0.211461,-1.12839 -0.396469,-1.2921 -0.120055,-0.106268 -0.412654,-0.336791 -1.42511,-0.780701l-0.927079 -0.00605118z"/>
   <path id="_499253536" class="fil2" d="M3.89906 3.40361l0 0.821961c-0.267161,0.242543 -0.704283,0.234142 -0.971445,0l0 -0.821961c0,-0.443839 0.971445,-0.443839 0.971445,0z"/>
   <path id="_499252936" class="fil3" d="M3.89906 3.40361l0 0.550319c-0.183811,0.099315 -0.360969,0.154953 -0.48572,0.154953 -0.124752,0 -0.301945,-0.0556378 -0.485724,-0.154953l0 -0.550319c0,-0.443839 0.971445,-0.443839 0.971445,0z"/>
   <path id="_499253464" class="fil2" d="M4.34161 2.23005l-0.130772 0.107272 -0.0675 0.0245866 -1.52083 0 -0.0725 -0.028752 -0.0927598 -0.0861654 3.93701e-006 0 -0.156539 -0.0204173c-0.0314213,0.0297638 -0.0580827,0.0654567 -0.0785472,0.10548 -0.0292441,0.0572008 -0.0459921,0.122752 -0.0459921,0.191744 0,0.0986654 0.0335118,0.189307 0.0885236,0.258272 0.0427402,0.0535787 0.0984724,0.0942717 0.162039,0.116248 0.0484685,0.151461 0.108528,0.321236 0.186315,0.481067 0.0910787,0.187134 0.207024,0.361429 0.358406,0.480933 0.0668268,0.0527638 0.13839,0.0835748 0.215559,0.101035 0.0727362,0.0164606 0.147213,0.020748 0.226319,0.020748 0.0783701,0 0.151854,-0.00381102 0.222791,-0.0193386 0.0767441,-0.0167953 0.14785,-0.046563 0.214094,-0.0980276 0.152638,-0.118575 0.269803,-0.293744 0.361972,-0.482433 0.0784646,-0.160626 0.138965,-0.331571 0.187736,-0.483984 0.0635709,-0.0219764 0.119299,-0.0626732 0.162043,-0.116252 0.0550157,-0.0689606 0.0885276,-0.159602 0.0885276,-0.258268 0,-0.0841496 -0.0246299,-0.16276 -0.066315,-0.227165 -0.0200472,-0.0309646 -0.0441024,-0.0586102 -0.0713622,-0.0820315l-0.171209 0.0154488z"/>
   <polygon id="_499253392" class="fil4" points="4.34161,2.23609 4.21083,2.38535 4.14333,2.41956 2.6225,2.41956 2.55,2.37956 2.45724,2.25967 2.45724,2.25967 2.3007,2.23126 2.55,2.55348 2.6225,2.59349 4.14333,2.59349 4.21083,2.55928 4.51281,2.2146 "/>
   <ellipse id="_499253440" class="fil5" cx="3.41333" cy="1.46717" rx="0.773905" ry="0.536457"/>
   <path id="_499253008" class="fil6" d="M3.54756 1.0729l0 0 -1.1811e-005 0 2.3622e-005 0.00158661 -1.1811e-005 -0.00158661zm0.0378976 -0.125335c0.00980709,0.0228819 0.0150276,0.0477126 0.0150276,0.0731772l0 0.0535354 0 0.551488 0.106677 0 0 -0.438098 0 -1.1811e-005 0 -0.166913c0,-0.0177323 -0.00160236,-0.035252 -0.00471654,-0.0523976 0.240433,0.0480748 0.429854,0.159992 0.580421,0.306646 0.153756,0.149756 0.265209,0.334272 0.348425,0.52252 0.0121417,0.0274646 0.0232559,0.0301732 0.0303386,0.0318898 0.0653189,0.0158543 0.1085,0.0263386 0.1085,0.124173l0 0.0499528 -0.0391693 0.0321299 -0.520126 0.426665 -0.0675 0.0245866 -1.52083 0 -0.0725 -0.028752 -0.459299 -0.426665 -0.0341693 -0.0317402 0 -0.0461772c0,-0.122457 0.0528583,-0.119094 0.134445,-0.11398 0.00145276,9.05512e-005 -0.00398031,-0.000251969 -0.000925197,-0.00794094 0.0786142,-0.197894 0.18811,-0.390445 0.342429,-0.545717 0.151571,-0.1525 0.344744,-0.268283 0.591736,-0.317594 -0.00311417,0.0171457 -0.00472047,0.0346693 -0.00472047,0.0524016l0 0.166874 0 1.1811e-005 0 0.438138 0.106677 0 0 -0.551488 0 -0.0535354c0,-0.0254646 0.00522047,-0.0502953 0.0150276,-0.0731772l0.0406417 -0.0070748 -0.0406378 0.0070748c0.00934646,-0.0217992 0.0228543,-0.0418307 0.0399843,-0.0589606 0.0351142,-0.0351181 0.0824134,-0.0550157 0.132142,-0.0550157 0.0497244,0 0.0970315,0.0199016 0.132142,0.0550157 0.0171299,0.0171299 0.0306378,0.0371614 0.0399843,0.0589606zm-0.306358 0.125335l0 0z"/>
   <path id="_499252480" class="fil4" d="M3.87125 3.46227c-0.304094,0.0811378 -0.657067,0.0679843 -0.915843,0 0.0844409,0.290067 0.754366,0.29711 0.915843,0z"/>
   <polygon id="_499252696" class="fil7" points="2.8751,3.90222 2.52641,4.09089 3.03199,4.79172 3.41557,4.42784 "/>
   <polygon id="_499252456" class="fil7" points="3.95605,3.90222 4.30474,4.09089 3.79916,4.79172 3.41557,4.42784 "/>
   <path id="_499252624" class="fil8" d="M3.20195 4.62352l0.119063 0.184441c0.0615315,0 0.123094,0 0.184705,0l0.119028 -0.184441 -0.209169 -0.200787 -0.213626 0.200787z"/>
   <polygon id="_499252912" class="fil9" points="3.32101,4.80796 3.15146,5.99308 3.67522,5.99308 3.50572,4.80796 "/>
   <path id="_499252672" class="fil10" d="M2.05615 5.99308l0.0784843 0c-0.00350394,-0.348835 -0.00350394,-0.600252 -0.00350394,-0.600252 0,0 -0.0347362,0.26128 -0.0749803,0.600252z"/>
   <path id="_499252816" class="fil10" d="M4.7705 5.99308l-0.0784843 0c0.00350394,-0.348835 0.00353937,-0.600252 0.00353937,-0.600252 0,0 0.0347441,0.26128 0.0749449,0.600252z"/>
  </g>
  <rect class="fil11" x="0.0364567" y="-0.00520866" width="6.82666" height="6.82666"/>
 </g>
</svg>
