<?xml version="1.0" encoding="UTF-8"?>
<!DOCTYPE svg PUBLIC "-//W3C//DTD SVG 1.1//EN" "http://www.w3.org/Graphics/SVG/1.1/DTD/svg11.dtd">
<!-- Creator: CorelDRAW -->
<svg xmlns="http://www.w3.org/2000/svg" xml:space="preserve" width="6.82666in" height="6.82666in" style="shape-rendering:geometricPrecision; text-rendering:geometricPrecision; image-rendering:optimizeQuality; fill-rule:evenodd; clip-rule:evenodd"
viewBox="0 0 6.82666 6.82666"
 xmlns:xlink="http://www.w3.org/1999/xlink">
 <defs>
  <style type="text/css">
   <![CDATA[
    .fil18 {fill:none}
    .fil8 {fill:#212121}
    .fil3 {fill:#37474F}
    .fil5 {fill:#424242}
    .fil2 {fill:#455A64}
    .fil7 {fill:#4E342E}
    .fil1 {fill:#546E7A}
    .fil6 {fill:#5D4037}
    .fil13 {fill:#9E6639}
    .fil12 {fill:#C48E62}
    .fil10 {fill:#C99366}
    .fil11 {fill:#D99F6F}
    .fil0 {fill:#DBA070}
    .fil9 {fill:#E0E0E0}
    .fil4 {fill:#FAFAFA}
    .fil17 {fill:#3E2723;fill-rule:nonzero}
    .fil16 {fill:#424242;fill-rule:nonzero}
    .fil14 {fill:#4E342E;fill-rule:nonzero}
    .fil15 {fill:#5D4037;fill-rule:nonzero}
   ]]>
  </style>
 </defs>
 <g id="Layer_x0020_1">
  <metadata id="CorelCorpID_0Corel-Layer"/>
  <g id="_499253776">
   <path id="_499257088" class="fil0" d="M3.11851 3.67324c-1.07176,0.46989 -1.39327,0.720354 -1.52035,0.832846 -0.195854,0.173295 -0.304177,0.819276 -0.419689,1.36781l2.42486 0 2.42486 0c-0.115512,-0.548531 -0.223882,-1.19454 -0.419689,-1.36781 -0.127075,-0.112492 -0.436827,-0.356531 -1.50862,-0.826406l-0.981382 -0.00644094z"/>
   <path id="_499257280" class="fil1" d="M2.7152 3.85595c-0.753661,0.353862 -1.00755,0.55324 -1.11704,0.650138 -0.195854,0.173295 -0.304177,0.819276 -0.419689,1.36781l2.42486 0 2.42486 0c-0.115512,-0.548531 -0.223882,-1.19454 -0.419689,-1.36781 -0.105831,-0.0936535 -0.338417,-0.278575 -1.03199,-0.609083 -0.00491732,0.00511811 -0.00996063,0.0101378 -0.0148071,0.0153465 -0.651098,0.70426 -1.57346,0.358102 -1.82303,-0.0238819 -0.00778346,-0.011063 -0.0156496,-0.0216575 -0.0234803,-0.0325197z"/>
   <path id="_499257376" class="fil2" d="M1.47519 4.69507c-0.123331,0.27785 -0.207902,0.757114 -0.296709,1.17883l0.984354 0c-0.0219764,-0.688008 -0.0232283,-1.05394 -0.687646,-1.17883z"/>
   <path id="_499257256" class="fil2" d="M5.73148 4.69507c0.123331,0.27785 0.207902,0.757114 0.29672,1.17883l-0.984402 0c0.0220197,-0.688008 0.0232756,-1.05394 0.687681,-1.17883z"/>
   <path id="_499256152" class="fil3" d="M2.71593 3.85595c-0.0495669,0.0232165 -0.096874,0.045752 -0.142283,0.0676772 0.342819,0.485213 1.3936,0.959323 2.11448,0.0250039 -0.0345236,-0.0168228 -0.070185,-0.0340079 -0.107248,-0.051626 -0.00496457,0.00511811 -0.00999606,0.0101378 -0.0148425,0.0153465 -0.65235,0.70426 -1.5765,0.358102 -1.82659,-0.0238819 -0.0077874,-0.011063 -0.015689,-0.0216575 -0.0235197,-0.0325197z"/>
   <path id="_499256104" class="fil4" d="M2.24615 5.87391l0.0784843 0c-0.00350394,-0.348835 -0.00350394,-0.600252 -0.00350394,-0.600252 0,0 -0.0347362,0.26128 -0.0749803,0.600252z"/>
   <path id="_499256464" class="fil4" d="M4.96051 5.87391l-0.0784843 0c0.00350394,-0.348835 0.00353937,-0.600252 0.00353937,-0.600252 0,0 0.0347441,0.26128 0.0749449,0.600252z"/>
   <g>
    <path id="_499256704" class="fil5" d="M4.35 5.3476c0.0589134,0 0.106669,0.0481535 0.106669,0.107559 0,0.0594094 -0.0477559,0.107563 -0.106669,0.107563 -0.0589134,0 -0.106669,-0.0481535 -0.106669,-0.107563 0,-0.0594055 0.0477559,-0.107559 0.106669,-0.107559z"/>
    <path id="_499256608" class="fil5" d="M2.85668 5.3476c0.0589134,0 0.106669,0.0481535 0.106669,0.107559 0,0.0594094 -0.0477559,0.107563 -0.106669,0.107563 -0.0589134,0 -0.106669,-0.0481535 -0.106669,-0.107563 0,-0.0594055 0.0477559,-0.107559 0.106669,-0.107559z"/>
    <path id="_499256440" class="fil6" d="M2.39 4.59469l2.42667 0c0.0366693,0 0.0666654,0.0299961 0.0666654,0.0666654l0 1.22406 -2.56 0 0 -1.22406c0,-0.0366693 0.0299961,-0.0666654 0.0666654,-0.0666654z"/>
    <path id="_499256320" class="fil7" d="M2.60698 3.88258c0.087937,-0.0425866 0.181244,-0.0756378 0.278949,-0.0978189l0 1.06259c0,0.0767126 -0.0627559,0.139472 -0.139472,0.139472l0 0c-0.0767205,0 -0.139476,-0.0627598 -0.139476,-0.139472l0 -0.964772z"/>
    <path id="_499256560" class="fil7" d="M4.32075 3.77476c0.0963937,0.0176614 0.18985,0.045437 0.278949,0.0821693l0 0.990425c0,0.0767126 -0.0627559,0.139472 -0.139472,0.139472l0 0c-0.0767205,0 -0.139476,-0.0627598 -0.139476,-0.139472l0 -1.07259z"/>
    <path id="_499256536" class="fil8" d="M2.74728 4.73248c0.0605157,0 0.109583,0.0490669 0.109583,0.109583 0,0.0605157 -0.0490669,0.109583 -0.109583,0.109583 -0.0605157,0 -0.109583,-0.0490669 -0.109583,-0.109583 0,-0.0605157 0.0490669,-0.109583 0.109583,-0.109583z"/>
    <path id="_499256680" class="fil8" d="M4.46022 4.73248c0.0605157,0 0.109583,0.0490669 0.109583,0.109583 0,0.0605157 -0.0490669,0.109583 -0.109583,0.109583 -0.0605157,0 -0.109583,-0.0490669 -0.109583,-0.109583 0,-0.0605157 0.0490669,-0.109583 0.109583,-0.109583z"/>
    <g>
     <path id="_499256584" class="fil9" d="M2.74728 4.79431c0.00940945,0 0.0170354,0.00762598 0.0170354,0.0170354 0,0.00940551 -0.00762598,0.0170354 -0.0170354,0.0170354 -0.00940945,0 -0.0170354,-0.00762992 -0.0170354,-0.0170354 0,-0.00940945 0.00762598,-0.0170354 0.0170354,-0.0170354z"/>
     <path id="_499255696" class="fil9" d="M2.74728 4.85574c0.00940945,0 0.0170354,0.00762598 0.0170354,0.0170354 0,0.00940551 -0.00762598,0.0170354 -0.0170354,0.0170354 -0.00940945,0 -0.0170354,-0.00762992 -0.0170354,-0.0170354 0,-0.00940945 0.00762598,-0.0170354 0.0170354,-0.0170354z"/>
    </g>
    <g>
     <path id="_499255600" class="fil9" d="M4.46022 4.79431c0.00940945,0 0.0170354,0.00762598 0.0170354,0.0170354 0,0.00940551 -0.00762598,0.0170354 -0.0170354,0.0170354 -0.00940945,0 -0.0170354,-0.00762992 -0.0170354,-0.0170354 0,-0.00940945 0.00762598,-0.0170354 0.0170354,-0.0170354z"/>
     <path id="_499255552" class="fil9" d="M4.46022 4.85574c0.00940945,0 0.0170354,0.00762598 0.0170354,0.0170354 0,0.00940551 -0.00762598,0.0170354 -0.0170354,0.0170354 -0.00940945,0 -0.0170354,-0.00762992 -0.0170354,-0.0170354 0,-0.00940945 0.00762598,-0.0170354 0.0170354,-0.0170354z"/>
    </g>
   </g>
   <path id="_499255240" class="fil10" d="M2.45891 2.0927c0.0796299,-0.0418976 0.180996,0.102327 0.22635,0.322161 0.0453543,0.219772 0.0175591,0.431878 -0.0621142,0.473776 -0.0796299,0.0418307 -0.180992,-0.102394 -0.226346,-0.322228 -0.0453976,-0.219772 -0.0175591,-0.431894 0.0621102,-0.473709z"/>
   <path id="_499255840" class="fil10" d="M4.73356 2.0927c-0.0796299,-0.0418976 -0.180996,0.102327 -0.22635,0.322161 -0.0453543,0.219772 -0.0175591,0.431878 0.0621142,0.473776 0.0796299,0.0418307 0.180992,-0.102394 0.226346,-0.322228 0.0453976,-0.219772 0.0175591,-0.431894 -0.0621102,-0.473709z"/>
   <path id="_499255768" class="fil11" d="M4.54998 2.18543c-0.333937,0.273925 -1.30341,0.111917 -1.79161,0.103106l-0.0927598 -0.0861654 3.93701e-006 0c-0.0796457,-0.419827 -0.233925,0.471654 -0.0305157,0.701776 0.0484685,0.151461 0.108528,0.321236 0.186315,0.481067 0.0910787,0.187134 0.207024,0.361429 0.358406,0.480933 0.0668268,0.0527638 0.13839,0.0835748 0.215559,0.101035 0.0727362,0.0164606 0.147213,0.020748 0.226319,0.020748 0.0783701,0 0.151854,-0.00381102 0.222791,-0.0193386 0.0767441,-0.0167953 0.14785,-0.046563 0.214094,-0.0980276 0.152638,-0.118575 0.269803,-0.293744 0.361972,-0.482433 0.0784646,-0.160626 0.138965,-0.331571 0.187736,-0.483984 0.0487638,-0.452646 0.140469,-1.026 -0.058315,-0.718717z"/>
   <path id="_499255672" class="fil12" d="M4.06126 3.37435c-0.304094,0.0811378 -0.657067,0.0679843 -0.915843,0 0.0844409,0.290067 0.754366,0.29711 0.915843,0z"/>
   <path id="_499254640" class="fil13" d="M4.48965 2.58042c-0.0319488,0.0910472 -0.0739843,0.329067 -0.0905866,0.418394l0.00206299 -0.000181102c0.000440945,0.0113898 0.0037874,0.0210984 0.0109567,0.0266102 0.0102087,0.00784646 0.0194921,0.00844882 0.0279921,0.0032874 0.00484646,0.0311417 0.00686614,0.0661181 0.00966535,0.0933465 -0.105591,0.147972 -0.192366,0.162134 -0.109303,0.233594 -0.0135984,0.0135354 -0.0581496,0.0604291 -0.0427756,0.0810669 -0.102563,0.0752244 -0.267299,0.184272 -0.148819,0.203189l-0.00384646 0.0037126c-0.0427126,0.0231969 -0.128953,0.0250827 -0.179043,0.0595236 -0.0720787,0.049563 -0.140484,0.0953386 -0.0596142,0.121559 -0.000338583,0.000232283 -0.000673228,0.000444882 -0.00100394,0.000637795 -0.0461614,-0.00350394 -0.0552756,-0.0418819 -0.129315,0.023815 -0.0203465,0.0170512 -0.0379449,0.0341102 -0.0451969,0.0576181 -0.0234882,-0.0274764 -0.0170039,-0.0962638 -0.113012,-0.107362 -0.0071811,-0.000814961 -0.0149134,-0.00126772 -0.0232047,-0.00126772l0 0c-0.097374,0 -0.104118,0.0517441 -0.114339,0.0872047 -0.00887795,-0.0133583 -0.0212717,-0.0247756 -0.0348937,-0.0361929 -0.0740394,-0.0656969 -0.0831535,-0.0273189 -0.129315,-0.023815 -0.000330709,-0.000192913 -0.000665354,-0.000405512 -0.00100394,-0.000637795 0.0808701,-0.0262205 0.0124646,-0.0719961 -0.0596142,-0.121559 -0.052437,-0.0360551 -0.144496,-0.0364291 -0.184756,-0.0629252 0.12215,-0.0180512 -0.0438425,-0.127874 -0.146953,-0.2035 0.015374,-0.0206378 -0.0291772,-0.0675315 -0.0427756,-0.0810669 0.083063,-0.0714606 -0.0037126,-0.085622 -0.109303,-0.233594 0.00279921,-0.0272283 0.0048189,-0.0622047 0.00966535,-0.0933465 0.0085,0.00516142 0.0177835,0.00455906 0.0279921,-0.0032874 0.00716929,-0.00551181 0.0105157,-0.0152205 0.0109567,-0.0266102l0.00206299 0.000181102c-0.0176339,-0.094878 -0.0639606,-0.357539 -0.0964213,-0.433622 -0.000228346,-0.000535433 -0.000472441,-0.00106299 -0.000724409,-0.00158268 0.018063,-0.185945 0.0823622,-0.315551 0.228181,-0.305831 0.232114,0.0154724 0.379138,0.0541496 0.649929,0.0541496 0.270803,0 0.417815,-0.0386772 0.649902,-0.0541496 0.135165,-0.00900787 0.207354,0.132555 0.236453,0.322642zm-1.75352 0.371421l-0.00174409 -0.0160787c-0.000677165,-0.00622835 -0.00133071,-0.0124488 -0.0019685,-0.0186614 0.00231102,0.00964961 0.00468898,0.0189449 0.00714961,0.0277638 -0.00115748,0.00217323 -0.00230315,0.0045 -0.00343701,0.00697638zm0.91361 1.25509c-0.00905118,0.0173228 -0.0260787,0.0141339 -0.0471929,-7.87402e-006 -0.0404882,-0.0047126 -0.0738031,-0.0229803 -0.0861496,-0.0616181 -0.00119291,-0.00372835 -0.0931417,-0.0095315 -0.0957638,-0.0202598 -0.0269094,-0.0102362 -0.0170984,-0.0175039 -0.0226969,-0.0308858 -0.0200945,-0.0112913 -0.0427677,-0.0277402 -0.0662165,-0.0468937m-0.00956693 -0.00793701c-0.0563661,-0.047315 -0.11574,-0.107996 -0.153614,-0.148429 -0.00460236,-0.0032874 -0.00918898,-0.00659843 -0.0137717,-0.00992126 -0.0459646,0.118618 -0.123496,-0.0125276 -0.159252,-0.115772 -0.00415354,-0.000228346 -0.00833071,-0.00123622 -0.0123268,-0.00311024l-0.0026063 -0.00222047c-0.0102598,0.0736929 -0.0718031,-0.007 -0.115665,-0.0722402 -0.000720472,0.00177165 -0.0015315,0.0032874 -0.00244882,0.0045 -0.0383425,0.0506811 -0.077374,-0.0345748 -0.103331,-0.112772l-0.000866142 -1.1811e-005c-0.0206654,0.0587441 -0.048185,0.0545787 -0.0636614,-0.00106299l-0.00092126 -1.5748e-005 0.000374016 -0.00201575c-0.00384646,-0.0144016 -0.00690945,-0.0320748 -0.00887402,-0.052878 -0.0131772,-0.139457 -0.0572047,-0.259524 -0.044315,-0.382862 0.0134291,-0.128528 -0.0109685,-0.0501535 -0.041063,-0.0963268 -0.0132087,-0.0134016 -0.0150551,-0.0307874 -0.0133701,-0.0481299 -0.0624961,0.0229961 -0.0303346,-0.0769921 -0.00688976,-0.136264 -0.00190945,-0.0123976 0.00322047,-0.0291496 0.0118228,-0.0443661 -0.0117992,-0.0395197 0.0112402,-0.237717 0.0132677,-0.278831 0,-0.0164882 0.0119685,-0.0301772 0.0276929,-0.0328543 0.0147205,-0.417665 0.0655748,-0.800638 0.970965,-0.800638 0.840398,0 0.958843,0.382909 0.974921,0.800571 0.00170079,-0.000267717 0.00343701,-0.000409449 0.00520866,-0.000409449 0.0184094,0 0.0333307,0.0149213 0.0333307,0.0333307 0.00202756,0.0411142 0.0250669,0.239311 0.0132677,0.278831 0.00860236,0.0152165 0.0137323,0.0319685 0.0118228,0.0443661 0.0234449,0.0592717 0.0556063,0.15926 -0.00688976,0.136264 0.00168504,0.0173425 -0.000161417,0.0347283 -0.0133701,0.0481299 -0.0300945,0.0461732 -0.0544921,-0.0322008 -0.041063,0.0963268 0.0128898,0.123339 -0.0311378,0.243406 -0.044315,0.382862 -0.00196457,0.0208031 -0.00502756,0.0384764 -0.00887402,0.052878l0.000374016 0.00201575 -0.00092126 1.5748e-005c-0.0154764,0.0556417 -0.0429961,0.0598071 -0.0636614,0.00106299l-0.000866142 1.1811e-005c-0.0259567,0.0781969 -0.0649882,0.163453 -0.103331,0.112772 -0.000917323,-0.0012126 -0.00172835,-0.00272835 -0.00244882,-0.0045 -0.0438622,0.0652402 -0.105406,0.145933 -0.115665,0.0722402l-0.0026063 0.00222047c-0.00399606,0.00187402 -0.00817323,0.00288583 -0.0123268,0.00311417 -0.0361024,0.10424 -0.114795,0.236969 -0.160579,0.112303 -0.0787087,0.0853071 -0.274685,0.398913 -0.290752,0.289606 -0.0343504,0.0198189 -0.0806339,0.0353976 -0.124815,0.039811m-1.01583 -1.30728c-0.0016063,0.0039685 -0.00317323,0.00805512 -0.00466929,0.0122795l0.0057126 -0.000795276c-0.000350394,-0.00382677 -0.000712598,-0.00764567 -0.00104331,-0.0114843zm-0.0348031 0.143421c-0.00125591,-0.00200787 -0.00252362,-0.00420472 -0.00379921,-0.00667717 0.00159843,0.00335827 0.00257087,0.00513386 0.00379921,0.00667717zm1.52073 0.786823l-0.00230709 0.0033189 -0.00042126 -0.00120079 0.00272835 -0.00211811zm0.454854 -0.832965c0.000496063,-0.00046063 0.0010315,-0.00092126 0.0016063,-0.00140157l-0.00144488 0.00133071 -0.000161417 7.08661e-005zm0.0476063 0.0461417c0.00125591,-0.00200787 0.00252362,-0.00420472 0.00379921,-0.00667717 -0.00159843,0.00335827 -0.00257087,0.00513386 -0.00379921,0.00667717z"/>
   <path id="_499254928" class="fil14" d="M4.30787 1.5972c0.281563,0.0273976 0.551331,-0.053815 0.719268,-0.000149606 0.20289,0.0648346 0.320177,0.157358 0.320177,0.272776 0,0.147689 -0.214012,0.264339 -0.560012,0.333535 -0.299409,0.0598819 -0.742736,0.221453 -1.19673,0.221453 -0.453992,0 -0.835059,-0.161571 -1.13447,-0.221453 -0.346,-0.0691969 -0.560012,-0.185846 -0.560012,-0.333535 0,-0.114906 0.115799,-0.207012 0.316335,-0.271665 0.165669,-0.0534134 0.370252,0.0278504 0.648807,0.000192913l0.0819606 -0.0081378 0.0284567 0.0773071c0.0198307,0.053874 0.0886102,0.105358 0.188807,0.146138 0.113535,0.0462126 0.261323,0.0740276 0.424098,0.0740276 0.163854,0 0.311949,-0.0278071 0.42502,-0.0739882 0.100165,-0.0409055 0.168807,-0.0925276 0.188291,-0.1465l0.0281457 -0.0779646 0.0818543 0.00796457z"/>
   <path id="_499254736" class="fil15" d="M3.6217 1.00868c0.10411,0 0.191437,-0.0174449 0.264256,-0.0319882 0.156709,-0.0312992 0.264374,-0.0528031 0.374197,0.0665787 0.0292795,0.0318268 0.0714606,0.139925 0.10813,0.253965 0.0436496,0.135732 0.0843976,0.291362 0.0843976,0.328693 0,0.141843 -0.104004,0.263429 -0.27215,0.345346 -0.144811,0.0705433 -0.342535,0.114185 -0.558831,0.114185 -0.216295,0 -0.414016,-0.0436417 -0.558827,-0.114185 -0.168146,-0.0819173 -0.27215,-0.203504 -0.27215,-0.345346 0,-0.0326142 0.0371142,-0.19337 0.0756929,-0.332913 0.0317559,-0.11487 0.067748,-0.223193 0.0917835,-0.25322 0.104728,-0.130831 0.216748,-0.10578 0.379866,-0.0692992 0.0772992,0.0172874 0.170728,0.038185 0.283634,0.038185z"/>
   <path id="_499254976" class="fil13" d="M3.59025 3.31874c0.00372441,0.0496929 -0.0915984,0.133402 -0.372138,0.0482205 -0.0143701,-0.0043622 -0.0614803,-0.0188228 -0.0819921,-0.0136024 -0.00430315,0.00835827 -0.00714173,0.0107795 -0.0166535,0.0154331 -0.0450512,0.062 0.0954685,0.355795 0.117724,0.411602 0.00602362,0.0173937 -0.00319291,0.0363819 -0.0205866,0.0424055 -0.0173937,0.00602362 -0.0363819,-0.00319291 -0.0424055,-0.0205866 -0.0144764,-0.0362402 -0.0554173,-0.119787 -0.0872953,-0.208705 0.0023622,0.0175591 0.0056811,0.0339685 0.0105827,0.0483346 0.00998031,0.0140709 0.00757874,0.0336811 -0.00590945,0.0448898 -0.0141575,0.0117638 -0.0351732,0.0098189 -0.046937,-0.00433858 -0.0390118,-0.0615709 -0.0270197,-0.217732 -0.0417205,-0.277957 -0.0124213,-0.0102874 -0.0119961,-0.0204528 -0.00538976,-0.0359291 -0.0195748,-0.00986614 -0.0294685,-0.0152008 -0.0408268,-0.0334724 -0.000909449,-0.00112992 -0.0018189,-0.00226378 -0.00269685,-0.00345669 -0.00165748,-0.00224803 -0.00312598,-0.00538583 -0.00429921,-0.0090315l-0.00128346 -0.00252362 0.000507874 -0.000129921c-0.00690157,-0.0261024 0.00137402,-0.0714724 0.0624173,-0.0209213 -0.00114173,-0.00372441 -0.00290551,-0.00660236 -0.00653543,-0.00964961 0.021311,0.00740945 0.0670827,0.00833858 0.0898425,0.00233858 0.183783,-0.159654 0.339315,0.106787 0.449106,-0.0205551 0.0111535,-0.0146457 0.0320669,-0.0174724 0.0467126,-0.0063189 0.0146457,0.0111535 0.0174724,0.0320669 0.0063189,0.0467126 -0.00217717,0.00251969 -0.00435827,0.00491339 -0.00654331,0.00724016zm-0.585882 0.0868504c0.00356693,0.00470866 0.00873228,0.00691732 0.0144882,0.00886614 -0.00596063,-0.00306299 -0.0107323,-0.00597638 -0.0144882,-0.00886614zm0.133067 -0.0548622l0.000295276 -0.000570866 -1.9685e-005 3.93701e-006 -0.000275591 0.000566929zm-0.018378 0.0182598l-0.00141732 0.000685039c0.000665354,-0.00030315 0.00100787,-0.000413386 0.00141732,-0.000685039z"/>
   <path id="_499254544" class="fil13" d="M3.61698 3.31874c-0.00372441,0.0496929 0.0915984,0.133402 0.372138,0.0482205 0.0143701,-0.0043622 0.0614803,-0.0188228 0.0819921,-0.0136024 0.00430315,0.00835827 0.00714173,0.0107795 0.0166535,0.0154331 0.0450512,0.062 -0.0954685,0.355795 -0.117724,0.411602 -0.00602362,0.0173937 0.00319291,0.0363819 0.0205866,0.0424055 0.0173937,0.00602362 0.0363819,-0.00319291 0.0424055,-0.0205866 0.0144764,-0.0362402 0.0554173,-0.119787 0.0872953,-0.208705 -0.0023622,0.0175591 -0.0056811,0.0339685 -0.0105827,0.0483346 -0.00998031,0.0140709 -0.00757874,0.0336811 0.00590945,0.0448898 0.0141575,0.0117638 0.0351732,0.0098189 0.046937,-0.00433858 0.0390118,-0.0615709 0.0270197,-0.217732 0.0417205,-0.277957 0.0124213,-0.0102874 0.0119961,-0.0204528 0.00538976,-0.0359291 0.0195748,-0.00986614 0.0294685,-0.0152008 0.0408268,-0.0334724 0.000909449,-0.00112992 0.0018189,-0.00226378 0.00269685,-0.00345669 0.00165748,-0.00224803 0.00312598,-0.00538583 0.00429921,-0.0090315l0.00128346 -0.00252362 -0.000507874 -0.000129921c0.00690157,-0.0261024 -0.00137402,-0.0714724 -0.0624173,-0.0209213 0.00114173,-0.00372441 0.00290551,-0.00660236 0.00653543,-0.00964961 -0.021311,0.00740945 -0.0670827,0.00833858 -0.0898425,0.00233858 -0.183783,-0.159654 -0.339315,0.106787 -0.449106,-0.0205551 -0.0111535,-0.0146457 -0.0320669,-0.0174724 -0.0467126,-0.0063189 -0.0146457,0.0111535 -0.0174724,0.0320669 -0.0063189,0.0467126 0.00217717,0.00251969 0.00435827,0.00491339 0.00654331,0.00724016zm0.585882 0.0868504c-0.00356693,0.00470866 -0.00873228,0.00691732 -0.0144882,0.00886614 0.00596063,-0.00306299 0.0107323,-0.00597638 0.0144882,-0.00886614zm-0.133067 -0.0548622l-0.000295276 -0.000570866 1.9685e-005 3.93701e-006 0.000275591 0.000566929zm0.018378 0.0182598l0.00141732 0.000685039c-0.000665354,-0.00030315 -0.00100787,-0.000413386 -0.00141732,-0.000685039z"/>
   <g>
    <path id="_499254832" class="fil16" d="M1.54946 3.60381l-0.128228 0.0104882 0.184917 2.2596c0.0138976,-0.00163386 0.0914606,-0.010748 0.127921,-0.0141732l-0.18461 -2.25591z"/>
    <path id="_499254760" class="fil17" d="M1.89131 2.00226c-0.0485039,-0.0798386 -0.0406654,0.0152992 -0.0406654,0.0152992 0,0 0.0194449,0.23789 0.0296654,0.36278 0.0102638,0.12489 0.0805472,0.837563 0.036378,0.883098 -0.00697244,0.0072126 -0.087,0.0184449 -0.197602,0.0302677 -0.013248,-0.00797638 -0.0271969,-0.0198937 -0.0304882,-0.0356811 -0.00666142,-0.0317402 -0.111768,-1.21747 -0.111768,-1.21747 0,0 -0.0169331,-0.0591417 -0.0353346,-0.0374449 -0.0184094,0.0216654 -0.00840157,0.0450591 -0.00840157,0.0450591 0,0 0.0863504,1.20341 0.0799843,1.22409 -0.00272835,0.00891339 -0.0141181,0.0222323 -0.0261181,0.0345512 -0.0765197,0.00705512 -0.158413,0.0139016 -0.236669,0.0197205 -0.0142205,-0.00793307 -0.0308268,-0.0206102 -0.0344449,-0.0380118 -0.00666535,-0.0317283 -0.111724,-1.21747 -0.111724,-1.21747 0,0 -0.0169764,-0.0591299 -0.035378,-0.0374449 -0.0184094,0.0216772 -0.00844882,0.0450669 -0.00844882,0.0450669 0,0 0.0863937,1.2034 0.0800551,1.22409 -0.00266535,0.00855512 -0.0131693,0.0211181 -0.024626,0.0329843 -0.129913,0.00801969 -0.228346,0.0111142 -0.237268,0.00447638 -0.0509882,-0.0377362 -0.0447126,-0.316315 -0.0690906,-0.680161 -0.00842913,-0.12502 -0.0683386,-0.55987 -0.0683386,-0.55987 0,0 -0.00779134,-0.0951614 -0.0425669,-0.00849213 0,0 0.0295591,0.260799 0.0434567,0.533531 0.0172559,0.338087 0.0222795,0.707984 0.0581339,0.781268 0.0647244,0.132406 0.208886,0.138579 0.357575,0.126386l0.0878228 -0.00717717c0,0 0.0069252,-0.000566929 0.0191181,-0.00155906l0.0245748 0.300287c0,0 0.0537165,0.0208976 0.106957,0.0165472 0.0532362,-0.00436614 0.102429,-0.0336732 0.102429,-0.0336732l-0.0245551 -0.300287 0.0985591 -0.00806299c0.148713,-0.0121811 0.289929,-0.0417087 0.332287,-0.182882 0.0423465,-0.14115 -0.113508,-1.31381 -0.113508,-1.31381z"/>
    <path id="_499254136" class="fil15" d="M1.60237 3.29102c9.05512e-005,-0.000464567 0.000216535,-0.00172835 0.000267717,-0.0033622 -0.00325197,0.00370472 -0.0067126,0.00743701 -0.0102638,0.0111063 -0.0765669,0.00707087 -0.158484,0.0138898 -0.236669,0.0197165 -0.0142756,-0.0079252 -0.0308543,-0.0206024 -0.0345197,-0.038 -0.00664173,-0.0317323 -0.111748,-1.21747 -0.111748,-1.21747 0,0 -0.0169488,-0.0591457 -0.035315,-0.0374646 -0.00653543,0.0077126 -0.00944094,0.0155945 -0.0105472,0.0226063 0.0160906,-0.00602756 0.0298228,0.0416654 0.0298228,0.0416654 0,0 0.105098,1.18574 0.111681,1.21747 0.0036811,0.0173976 0.020248,0.0300866 0.0345157,0.038 0.0782126,-0.00582677 0.160091,-0.0126457 0.236661,-0.0197047 0.012,-0.0123425 0.0233898,-0.0256496 0.0261142,-0.034563zm-0.618571 0.0411575l0 0c-0.0509921,-0.0377323 -0.0447362,-0.316327 -0.0690984,-0.680157 -0.00837795,-0.125028 -0.0683307,-0.55989 -0.0683307,-0.55989 0,0 -0.00738583,-0.0900512 -0.0398425,-0.0149961 0.0189882,-0.0169291 0.023752,0.0418268 0.023752,0.0418268 0,0 0.0599331,0.434839 0.0683386,0.559866 0.0243583,0.363843 0.0180984,0.642433 0.0690709,0.680142 0.00898819,0.00662598 0.107374,0.00357087 0.237311,-0.00446063 0.0114764,-0.011874 0.022,-0.0244449 0.0246378,-0.0329803 8.66142e-005,-0.000452756 0.000192913,-0.00174016 0.000244094,-0.00334252 -0.00279528,0.00314961 -0.00573622,0.0063622 -0.00877165,0.00951575 -0.129957,0.00801181 -0.22835,0.0111102 -0.237311,0.00447638zm0.710122 -0.0822047l0 0c-0.00662598,-0.0317441 -0.111732,-1.21746 -0.111732,-1.21746 0,0 -0.0169724,-0.0591417 -0.0352874,-0.0374646 -0.00658661,0.00769291 -0.00948425,0.0155866 -0.0105669,0.0225984 0.016063,-0.00603937 0.0297913,0.0416575 0.0297913,0.0416575 0,0 0.105059,1.18574 0.111728,1.21748 0.0032874,0.0157835 0.0172795,0.0277087 0.0304882,0.0357008 0.110555,-0.0118228 0.190626,-0.0230787 0.197642,-0.0302756 0.00355118,-0.00367323 0.00636614,-0.0117598 0.00848819,-0.0234882 -0.023126,0.00712598 -0.0953189,0.0168228 -0.190028,0.0269488 -0.0132047,-0.00798031 -0.027189,-0.0199094 -0.0305236,-0.0356929zm0.202709 -1.25576l0 0c-0.0336929,-0.0555157 -0.0401417,-0.0264488 -0.0409213,-0.00355512 0.00588976,0.00328346 0.0139488,0.0123346 0.0248583,0.0303543 0,0 0.15585,1.17268 0.1135,1.31385 -0.00398425,0.0134331 -0.00896063,0.025878 -0.0147244,0.0373898 0.0129488,-0.0183425 0.0234724,-0.0395551 0.0308346,-0.0642323 0.0422677,-0.141161 -0.113547,-1.31381 -0.113547,-1.31381zm-0.333445 1.51269l0 0 0.0232087 0.301449c0.0108701,-0.0051811 0.0174921,-0.00909449 0.0174921,-0.00909449l-0.0225197 -0.29385 -0.0181811 0.00149606z"/>
   </g>
  </g>
  <rect class="fil18" x="0.0364567" y="-0.00520866" width="6.82666" height="6.82666"/>
 </g>
</svg>
