<?xml version="1.0" encoding="UTF-8"?>
<!DOCTYPE svg PUBLIC "-//W3C//DTD SVG 1.1//EN" "http://www.w3.org/Graphics/SVG/1.1/DTD/svg11.dtd">
<!-- Creator: CorelDRAW -->
<svg xmlns="http://www.w3.org/2000/svg" xml:space="preserve" width="6.82666in" height="6.82666in" style="shape-rendering:geometricPrecision; text-rendering:geometricPrecision; image-rendering:optimizeQuality; fill-rule:evenodd; clip-rule:evenodd"
viewBox="0 0 6.82666 6.82666"
 xmlns:xlink="http://www.w3.org/1999/xlink">
 <defs>
  <style type="text/css">
   <![CDATA[
    .fil9 {fill:none}
    .fil4 {fill:#393939}
    .fil5 {fill:#424242}
    .fil6 {fill:#43A047}
    .fil3 {fill:#512DA8}
    .fil7 {fill:#546E7A}
    .fil2 {fill:#5E35B1}
    .fil8 {fill:#78909C}
    .fil1 {fill:#F6C4AA}
    .fil0 {fill:#FFDDCC}
   ]]>
  </style>
 </defs>
 <g id="Layer_x0020_1">
  <metadata id="CorelCorpID_0Corel-Layer"/>
  <path class="fil0" d="M2.46124 3.87688c-1.00179,0.439213 -1.30231,0.673327 -1.42109,0.778472 -0.183067,0.16198 -0.284319,0.765791 -0.392287,1.27851l2.26656 0 2.26655 0c-0.107969,-0.51272 -0.209264,-1.11655 -0.392287,-1.27851 -0.11878,-0.105146 -0.408307,-0.333256 -1.41013,-0.772453l-0.917307 -0.00601969z"/>
  <path class="fil0" d="M3.44946 3.00144l0 1.11047c-0.294268,0.32765 -0.775823,0.316327 -1.07013,0l0 -1.11047c0,-0.59965 1.07013,-0.59965 1.07013,0z"/>
  <path class="fil1" d="M3.44946 3.00144l0 0.743457c-0.20248,0.134165 -0.397642,0.209339 -0.535043,0.209339 -0.137417,0 -0.33261,-0.0751732 -0.535091,-0.209319l0 -0.743476c0,-0.59965 1.07013,-0.59965 1.07013,0z"/>
  <path class="fil0" d="M1.66785 2.08296c0.0856811,-0.028189 0.194669,0.0690236 0.243492,0.217197 0.048815,0.148161 0.0188898,0.291146 -0.0668031,0.319358 -0.085689,0.0282205 -0.194665,-0.0690039 -0.243492,-0.217177 -0.0487795,-0.14815 -0.0188425,-0.291138 0.0668031,-0.319378z"/>
  <path class="fil0" d="M4.17269 2.08298c-0.0856772,-0.0282087 -0.194709,0.0690039 -0.243492,0.217177 -0.0487795,0.148161 -0.0188858,0.291146 0.0668031,0.319358 0.0856929,0.0282205 0.194669,-0.0690157 0.243496,-0.217177 0.0487795,-0.14815 0.0188858,-0.291138 -0.0668071,-0.319358z"/>
  <path class="fil1" d="M2.357 2.96482c0.150646,0.107457 1.00093,0.101528 1.15152,0 -0.130839,0.565303 -0.977921,0.582701 -1.15152,0z"/>
  <path class="fil2" d="M2.08426 4.04766c-0.704461,0.33076 -0.941768,0.517122 -1.04411,0.607693 -0.183067,0.16198 -0.284319,0.765791 -0.392287,1.27851l2.26656 0 2.26655 0c-0.107969,-0.51272 -0.209264,-1.11655 -0.392287,-1.27851 -0.0989213,-0.0875394 -0.316327,-0.26039 -0.964614,-0.569315 -0.00459843,0.00477953 -0.00931102,0.00947244 -0.0138425,0.0143425 -0.608591,0.65828 -1.47074,0.33472 -1.70401,-0.0223228 -0.00727559,-0.0103386 -0.0146299,-0.0202441 -0.0219488,-0.0303976z"/>
  <path class="fil3" d="M0.925193 4.832c-0.11528,0.259709 -0.194327,0.707685 -0.277335,1.10187l0.920087 0c-0.0205394,-0.643091 -0.0217087,-0.985134 -0.642752,-1.10187z"/>
  <path class="fil3" d="M4.90362 4.832c0.11528,0.259709 0.194327,0.707685 0.277346,1.10187l-0.920134 0c0.0205866,-0.643091 0.0217559,-0.985134 0.642787,-1.10187z"/>
  <path class="fil3" d="M2.08494 4.04766c-0.0463307,0.0217008 -0.0905512,0.0427638 -0.132996,0.0632598 0.320441,0.453535 1.30262,0.896693 1.97644,0.023374 -0.0322717,-0.0157244 -0.0656024,-0.0317874 -0.100244,-0.0482559 -0.00464173,0.00477953 -0.00934646,0.00947244 -0.013878,0.0143425 -0.60976,0.65828 -1.47357,0.33472 -1.70733,-0.0223228 -0.00727953,-0.0103386 -0.0146654,-0.0202441 -0.0219843,-0.0303976z"/>
  <path class="fil0" d="M2.91437 1.00283c-1.63254,0 -1.04543,1.97266 -0.938787,2.12968 0.117575,0.173165 0.326106,0.632169 0.938787,0.632169 0.535091,0 0.82126,-0.458992 0.938835,-0.632169 0.106689,-0.157035 0.693756,-2.12968 -0.938835,-2.12968z"/>
  <path class="fil1" d="M2.45037 3.21402c0.121406,0.105941 0.806697,0.10402 0.928067,0 -0.10548,0.361776 -0.788161,0.372886 -0.928067,0z"/>
  <path class="fil4" d="M4.54365 2.2761c-0.260575,-0.0949488 -0.424835,-0.179709 -0.535594,-0.638606 -0.220339,-0.912898 -1.78096,-0.932728 -2.01941,-0.351043 -0.529157,0.467528 -0.139858,1.70698 -0.139858,1.39207 0,-0.314925 0.0987677,-0.585677 0.237882,-0.821004 0.172878,0.359449 0.560791,0.68463 0.968717,0.649118 -0.279524,-0.234594 -0.434614,-0.335835 -0.499567,-0.713657 0.200291,0.569709 1.20496,0.933386 1.98783,0.483122z"/>
  <path class="fil5" d="M4.16651 2.36306c-0.210409,-0.0766693 -0.51128,-0.49839 -0.600717,-0.868937 -0.177917,-0.73715 -1.43809,-0.753161 -1.63063,-0.283465 -0.427287,0.377524 -0.112933,1.37836 -0.112933,1.12407 0,-0.254295 0.079752,-0.472921 0.192083,-0.662945 0.139598,0.290252 0.452831,0.552827 0.78222,0.524154 -0.225709,-0.189433 -0.350941,-0.271181 -0.40339,-0.576268 0.161732,0.460031 1.01926,0.921917 1.77337,0.74339z"/>
  <g id="_499257016">
   <path id="_499257832" class="fil6" d="M5.95337 3.04815l-0.551169 -0.321185 0.00038189 -0.000846457 -0.0039685 -0.00124409 -0.00403937 -0.00235433 -0.000429134 0.000956693c-0.151035,-0.0470866 -0.245173,-0.0616496 -0.300543,0.0154291l-0.488988 1.08829 0.140276 0.285874 0 3.93701e-006 0.0325315 0.0662992 0.582614 0.261776c0.012874,0.0057874 0.0281339,-1.1811e-005 0.0339173,-0.0128858l3.93701e-006 -7.87402e-006c0.00578346,-0.012874 -1.1811e-005,-0.0281339 -0.0128858,-0.0339173l-0.605752 -0.272177 0.0287835 -0.0640669 0.605752 0.272177c0.012874,0.0057874 0.0281339,-1.1811e-005 0.0339173,-0.0128858l3.93701e-006 -7.87402e-006c0.00578346,-0.012874 -1.1811e-005,-0.0281339 -0.0128858,-0.0339173l-0.605756 -0.272177 0.0287874 -0.0640669 0.605752 0.272177c0.012874,0.0057874 0.0281339,-1.1811e-005 0.0339173,-0.0128858l3.93701e-006 -7.87402e-006c0.0057874,-0.012874 -1.1811e-005,-0.0281339 -0.0128858,-0.0339173l-0.605756 -0.272177 0.0287874 -0.0640669 0.605752 0.272177c0.012878,0.0057874 0.0281339,-1.1811e-005 0.0339173,-0.0128858l3.93701e-006 -7.87402e-006c0.0057874,-0.012874 -1.1811e-005,-0.0281339 -0.0128858,-0.0339173l-0.605752 -0.272181 0.0287835 -0.064063 0.605756 0.272177c0.012874,0.0057874 0.0281299,-1.1811e-005 0.0339173,-0.0128858l3.93701e-006 -7.87402e-006c0.00578346,-0.012874 -1.5748e-005,-0.0281339 -0.0128898,-0.0339173l-0.605752 -0.272181 0.0287835 -0.0640591 0.605756 0.272173c0.012874,0.0057874 0.0281299,-1.1811e-005 0.0339173,-0.0128858l3.93701e-006 -7.87402e-006c0.00578346,-0.012878 -1.1811e-005,-0.0281339 -0.0128858,-0.0339173l-0.605756 -0.272177 0.0287874 -0.064063 0.605752 0.272173c0.012874,0.0057874 0.0281339,-1.1811e-005 0.0339173,-0.0128858l3.93701e-006 -7.87402e-006c0.00578346,-0.012878 -1.1811e-005,-0.0281339 -0.0128858,-0.0339173l-0.605756 -0.272177 0.0287874 -0.0640669 0.605752 0.272177c0.012874,0.0057874 0.0281339,-1.1811e-005 0.0339173,-0.0128858l3.93701e-006 -7.87402e-006c0.0057874,-0.012878 -1.1811e-005,-0.0281339 -0.0128858,-0.0339173l-0.605752 -0.272177 0.0287835 -0.0640669 0.605752 0.272177c0.012874,0.0057874 0.0281339,-1.1811e-005 0.0339173,-0.0128858l3.93701e-006 -7.87402e-006c0.0057874,-0.012878 -1.1811e-005,-0.0281339 -0.0128858,-0.0339173l-0.605752 -0.272181 0.0287835 -0.064063 0.605756 0.272177c0.012874,0.0057874 0.0281299,-1.1811e-005 0.0339134,-0.0128858l7.87402e-006 -7.87402e-006c0.00578346,-0.012878 -1.5748e-005,-0.0281339 -0.0128898,-0.0339173l-0.605752 -0.272181 0.0287835 -0.0640591 0.605756 0.272173c0.012874,0.00578346 0.0281299,-1.1811e-005 0.0339173,-0.0128858l3.93701e-006 -1.1811e-005c0.00578346,-0.012874 -1.1811e-005,-0.0281299 -0.0128898,-0.0339134l-0.605752 -0.272177 0.0287835 -0.064063 0.605756 0.272173c0.012874,0.00578346 0.0281339,-1.1811e-005 0.0339173,-0.0128858l3.93701e-006 -1.1811e-005c0.00578346,-0.012874 -1.1811e-005,-0.0281299 -0.0128858,-0.0339134l-0.605756 -0.272177 0.0284606 -0.0633425 0.587642 0.267165c0.0569252,0.0258661 0.0890157,-0.0144213 0.013937,-0.0581732zm-0.671941 1.56794l-0.369732 -0.16613 0.00754724 0.018437 0.0259449 0.052878 0.315209 0.141626c0.012874,0.0057874 0.0281299,-1.1811e-005 0.0339134,-0.0128858l7.87402e-006 -7.87402e-006c0.00578346,-0.012874 -1.5748e-005,-0.0281339 -0.0128898,-0.0339173zm0.0498189 -0.110878l-0.505358 -0.227071 0.0354173 0.0721811 0.448909 0.201701c0.012874,0.0057874 0.0281299,-1.1811e-005 0.0339173,-0.0128858l3.93701e-006 -7.87402e-006c0.00578346,-0.012874 -1.5748e-005,-0.0281339 -0.0128898,-0.0339173zm-0.14548 0.251299l-0.171598 -0.0562835 -0.0421181 -0.102866 0.247961 0.110098c0.0571417,0.0253858 0.0483228,0.0761339 -0.0342441,0.0490512zm-0.690681 -0.614094l-0.761866 1.62414c-0.0322992,0.0688583 0.00143307,0.148815 0.0694646,0.182827l7.87402e-006 3.93701e-006c0.0693858,0.0311732 0.17128,0.0057126 0.182827,-0.0694685 0.0434291,-0.282807 0.387185,-1.00789 0.625791,-1.4158l-0.00887795 -0.0216811 -0.00703937 0.00288189 -0.0347717 -0.105004 -0.0431496 -0.105386 0.00726378 -0.00297638 -0.0296496 -0.0895354z"/>
   <g>
    <path id="_499257808" class="fil7" d="M4.94843 5.47909l-0.00076378 0.000311024 -0.00409843 -0.0100079c-0.0295984,-0.0561535 -0.0771811,-0.0979685 -0.132539,-0.121165 -0.0628622,-0.0263386 -0.135787,-0.0286929 -0.203854,-0.000822835 -0.0680669,0.0278701 -0.118398,0.0806929 -0.144728,0.143551 -0.0263425,0.0628543 -0.0286969,0.13578 -0.000826772,0.203846 0.0278701,0.0680669 0.0806929,0.118402 0.143551,0.144736 0.0628543,0.0263346 0.13578,0.0286929 0.203846,0.000822835 0.0680669,-0.0278701 0.118398,-0.0806929 0.14474,-0.143551 0.0263307,-0.0628543 0.028689,-0.13578 0.000818898,-0.203846 -0.00192913,-0.0047126 -0.00398031,-0.00933858 -0.00614567,-0.013874zm-0.358492 -0.87337l0.115933 -0.0474724 0.357732 0.873685 -0.000271654 0.000110236c0.00208661,0.00458268 0.00409449,0.00922835 0.00601969,0.0139252 0.0408425,0.099748 0.0373819,0.206622 -0.00122047,0.298768 -0.0386102,0.0921417 -0.11237,0.169559 -0.212118,0.210402 -0.099748,0.0408425 -0.20663,0.0373819 -0.298764,-0.00122047 -0.0921378,-0.0386063 -0.169563,-0.112366 -0.210406,-0.212118 -0.0408425,-0.099748 -0.0373858,-0.206622 0.00122441,-0.298764 0.0386063,-0.0921457 0.112362,-0.169563 0.212114,-0.210406 0.0946969,-0.0387756 0.195819,-0.0376142 0.284657,-0.00436614l-0.254902 -0.622543z"/>
    <path id="_499257568" class="fil7" d="M5.29355 5.33778l0.00076378 -0.000314961 -0.00409843 -0.0100079c-0.0182835,-0.0607913 -0.013689,-0.123965 0.00950394,-0.179327 0.0263386,-0.0628583 0.0766693,-0.115685 0.144736,-0.143555 0.0680669,-0.0278701 0.140992,-0.0255118 0.203846,0.000826772 0.0628583,0.0263346 0.115685,0.0766654 0.143555,0.144732 0.0278701,0.0680669 0.0255118,0.140992 -0.000826772,0.20385 -0.0263346,0.0628543 -0.0766654,0.115677 -0.144732,0.143547 -0.0680669,0.0278701 -0.140992,0.0255157 -0.20385,-0.000818898 -0.0628543,-0.0263386 -0.115677,-0.0766693 -0.143547,-0.144736 -0.00192913,-0.0047126 -0.0037126,-0.00944882 -0.00535039,-0.0141969zm-0.356969 -0.874l-0.115937 0.0474724 0.357732 0.873685 0.000271654 -0.000110236c0.00172835,0.00472835 0.00355118,0.00944488 0.00547638,0.0141457 0.0408425,0.099748 0.11826,0.173504 0.210402,0.212114 0.0921457,0.0386063 0.199016,0.042063 0.298768,0.00122047 0.099748,-0.0408425 0.173508,-0.118268 0.212114,-0.210402 0.0386024,-0.0921378 0.0420669,-0.199016 0.00122441,-0.298768 -0.0408425,-0.099748 -0.118264,-0.173508 -0.210406,-0.21211 -0.0921417,-0.0386102 -0.199016,-0.0420709 -0.298768,-0.00122835 -0.0946969,0.0387756 -0.165965,0.11052 -0.205976,0.196528l-0.254902 -0.622547z"/>
    <path id="_499257712" class="fil8" d="M4.59407 4.61581l0.346311 -0.141799 -0.713118 -1.45329c-0.141484,-0.288343 -0.23615,-0.225689 -0.140575,0.0629252l0.507382 1.53216zm0.0678504 -0.297614c0.0266142,-0.0108976 0.0570315,0.00184646 0.0679291,0.0284606 0.0108976,0.0266181 -0.00184646,0.0570315 -0.0284646,0.0679291 -0.0266142,0.0108976 -0.0570276,-0.00184646 -0.0679252,-0.0284606 -0.0109016,-0.0266181 0.00184252,-0.0570315 0.0284606,-0.0679291z"/>
   </g>
  </g>
  <rect class="fil9" x="0.0364567" y="-0.00520866" width="6.82666" height="6.82666"/>
 </g>
</svg>
