<?xml version="1.0" encoding="UTF-8"?>
<!DOCTYPE svg PUBLIC "-//W3C//DTD SVG 1.1//EN" "http://www.w3.org/Graphics/SVG/1.1/DTD/svg11.dtd">
<!-- Creator: CorelDRAW -->
<svg xmlns="http://www.w3.org/2000/svg" xml:space="preserve" width="6.82666in" height="6.82666in" style="shape-rendering:geometricPrecision; text-rendering:geometricPrecision; image-rendering:optimizeQuality; fill-rule:evenodd; clip-rule:evenodd"
viewBox="0 0 6.82666 6.82666"
 xmlns:xlink="http://www.w3.org/1999/xlink">
 <defs>
  <style type="text/css">
   <![CDATA[
    .fil0 {fill:none}
    .fil15 {fill:none;fill-rule:nonzero}
    .fil2 {fill:#212121}
    .fil4 {fill:#424242}
    .fil10 {fill:#757575}
    .fil8 {fill:#A61E1E}
    .fil11 {fill:#B3B3B3}
    .fil6 {fill:#C4A291}
    .fil9 {fill:#C62828}
    .fil3 {fill:#C7B7B7}
    .fil7 {fill:#CFD8DC}
    .fil5 {fill:#D9B9A9}
    .fil1 {fill:#FFDDCC}
    .fil13 {fill:#36211D;fill-rule:nonzero}
    .fil14 {fill:#3E2723;fill-rule:nonzero}
    .fil12 {fill:#546E7A;fill-rule:nonzero}
   ]]>
  </style>
 </defs>
 <g id="Layer_x0020_1">
  <metadata id="CorelCorpID_0Corel-Layer"/>
  <rect class="fil0" x="0.0364567" y="-0.00520866" width="6.82666" height="6.82666"/>
  <rect class="fil0" x="0.0364567" y="-0.00520866" width="6.82666" height="6.82666"/>
  <rect class="fil0" x="0.0364567" y="-0.00520866" width="6.82666" height="6.82666"/>
  <g id="_499243216">
   <g>
    <path id="_499245448" class="fil1" d="M3.58459 3.82573c-0.884016,0.387528 -1.1492,0.59413 -1.25401,0.686913 -0.161539,0.142941 -0.250882,0.67574 -0.346154,1.12814l2.00001 0 2.00001 0c-0.0952756,-0.452398 -0.184657,-0.985197 -0.346157,-1.12814 -0.104811,-0.0927835 -0.360283,-0.294055 -1.2443,-0.681634l-0.809398 -0.00527953z"/>
    <path id="_499245520" class="fil2" d="M3.58455 3.82573c-0.883976,0.387528 -1.14916,0.59413 -1.25397,0.686913 -0.161539,0.142941 -0.250882,0.67574 -0.346154,1.12814l2.00001 0 1.99997 0c-0.0952638,-0.452398 -0.184618,-0.985197 -0.346146,-1.12814 -0.104783,-0.0927835 -0.360256,-0.294055 -1.24427,-0.681634l-0.809437 -0.00527953z"/>
    <path id="_499245976" class="fil3" d="M3.98666 4.24619c0,0 -0.599,0.143 -0.599,0.179256 0,0.0362598 0.227933,1.21533 0.227933,1.21533l0.81322 0 0.0932047 -1.21013 -0.535358 -0.184453z"/>
    <polygon id="_499245784" class="fil4" points="3.55521,3.83864 3.55521,4.03309 3.74167,5.64078 3.42106,5.64078 3.06835,4.92472 3.40502,4.70029 2.99357,4.50792 3.37192,3.92083 "/>
    <path id="_499245232" class="fil5" d="M4.41519 3.36002l0 0.725819c-0.235913,0.214173 -0.621906,0.206756 -0.857823,0l0 -0.725819c0,-0.391929 0.857823,-0.391929 0.857823,0z"/>
    <path id="_499245136" class="fil6" d="M4.41519 3.36002l0 0.485949c-0.162315,0.0877008 -0.318752,0.136827 -0.428909,0.136827 -0.110161,0 -0.266626,-0.049126 -0.428913,-0.136827l0 -0.485949c0,-0.391929 0.857823,-0.391929 0.857823,0z"/>
    <polygon id="_499244800" class="fil4" points="4.41364,3.83966 4.41367,4.03309 4.22537,5.64078 4.54597,5.64078 4.89864,4.92472 4.562,4.70029 4.97345,4.50792 4.63718,3.93892 "/>
    <polygon id="_499244752" class="fil7" points="3.55521,3.70926 3.51769,3.8552 3.62271,4.61529 3.98666,4.24622 "/>
    <path id="_499244968" class="fil8" d="M3.79984 4.44501l0.103953 0.161039c0.0537205,0 0.107516,0 0.16124,0l0.10398 -0.161039 -0.182358 -0.198819 -0.186815 0.198819z"/>
    <polygon id="_499244656" class="fil9" points="3.9038,4.60605 3.7558,5.64078 4.21306,5.64078 4.06506,4.60605 "/>
    <polygon id="_499245016" class="fil7" points="4.41364,3.70926 4.44325,3.85283 4.34458,4.62288 3.98666,4.24622 "/>
    <path id="_499244608" class="fil10" d="M2.79948 5.64078l0.0684843 0c-0.00305906,-0.304567 -0.00305906,-0.524079 -0.00305906,-0.524079 0,0 -0.0303386,0.228122 -0.0654252,0.524079z"/>
    <path id="_499244920" class="fil10" d="M5.16938 5.64078l-0.0685276 0c0.00306299,-0.304567 0.00306299,-0.524079 0.00306299,-0.524079 0,0 0.0303386,0.228122 0.0654646,0.524079z"/>
    <path id="_499244080" class="fil1" d="M4.80597 2.32372l-0.115476 -0.210657 -0.0596063 0.0217087 -1.34295 0 -0.0640197 -0.0253898 -0.0819094 0.229299 3.93701e-006 0c-0.120791,-0.0157559 -0.0573465,-0.0202677 -0.119287,0.10087 -0.0258228,0.0505118 -0.0406142,0.108394 -0.0406142,0.169319 0,0.087122 0.0295945,0.167161 0.0781693,0.228059 0.0377402,0.047315 -0.00134646,0.0574882 0.0547835,0.0768937 0.0427992,0.133748 0.0958346,0.283665 0.164524,0.424799 0.0804252,0.165248 0.182807,0.319157 0.316484,0.424681 0.0590118,0.0465945 0.122205,0.0737992 0.190346,0.0892205 0.0642283,0.0145354 0.129992,0.0183189 0.199846,0.0183189 0.0692047,0 0.134094,-0.00336614 0.196732,-0.0170748 0.0677677,-0.0148307 0.130559,-0.0411181 0.189055,-0.086563 0.134783,-0.104705 0.238244,-0.259386 0.319634,-0.426004 0.0692874,-0.141839 0.122709,-0.292791 0.165776,-0.427378 0.0561378,-0.0194055 0.0575118,-0.0553425 0.0952559,-0.102654 0.0485827,-0.0608937 0.0781732,-0.140933 0.0781732,-0.228059 0,-0.0743071 -0.021748,-0.14372 -0.0585591,-0.200594 -0.0177008,-0.0273425 0.00888976,-0.0517559 -0.0151811,-0.072437l-0.151181 0.0136417z"/>
    <path id="_499244032" class="fil6" d="M4.39063 3.41182c-0.268524,0.0716496 -0.580213,0.0600315 -0.80872,0 0.0745669,0.256138 0.666134,0.262358 0.80872,0z"/>
    <g>
     <path id="_499243984" class="fil11" d="M3.21098 2.61268c-0.00185433,0.00917323 -0.00358661,0.0184409 -0.00521654,0.0277835 0.0114606,0.0158504 0.018189,0.0351654 0.018189,0.0560079 0,0.0290118 -0.0130315,0.0550551 -0.0337087,0.0729173 -0.000114173,0.00164961 -0.000200787,0.0033189 -0.000311024,0.0049685 0.0121378,0.016122 0.0193071,0.0360079 0.0193071,0.0575276 0,0.0234173 -0.00849606,0.0449055 -0.0226457,0.0617126 3.14961e-005,0.00376772 9.05512e-005,0.0075315 0.000149606,0.0113031 0.0118425,0.0160079 0.0188189,0.0356496 0.0188189,0.056874 0,0.018189 -0.00512205,0.0352205 -0.0140433,0.0497913 0.000503937,0.00682283 0.00105512,0.0136378 0.00163386,0.0204567 0.0189764,0.0177402 0.0307953,0.0426693 0.0307953,0.0702953 0,0.0196969 -0.00601575,0.0380315 -0.0163425,0.0533661 0.000767717,0.00515748 0.00155118,0.0103071 0.0023622,0.0154449 0.0198937,0.017815 0.0323622,0.0433543 0.0323622,0.0717323 0,0.0157126 -0.00382677,0.0305551 -0.0106181,0.0437047 0.00283465,0.0128661 0.00579528,0.0256102 0.00886614,0.0382323 0.0126378,0.016311 0.0201378,0.0366024 0.0201378,0.0586024 0,0.00457874 -0.000326772,0.00908661 -0.000956693,0.0135l0.00282677 0.00963386c0.0337087,0.0157047 0.0569882,0.0491969 0.0569882,0.0879724 0,0.015689 -0.0038189,0.0305118 -0.0105906,0.0436457 0.0420472,0.0115945 0.0728543,0.0492047 0.0728543,0.093811 0,0.0128465 -0.00255906,0.0251102 -0.00720472,0.0363425 0.00232283,0.00365748 0.00465748,0.00725591 0.00700787,0.0107874 0.0366378,0.0145118 0.0624606,0.0494882 0.0624606,0.0903307 0,0.0129606 -0.0026063,0.0253307 -0.00733071,0.0366496l0.0025748 0.00879528c0.0390354,0.0133307 0.0670197,0.0494921 0.0670197,0.0920118 0,0.0156929 -0.00381496,0.0305118 -0.0105906,0.0436457 0.0420512,0.0115906 0.0728543,0.0492047 0.0728543,0.093811 0,0.0359213 -0.0199764,0.0672992 -0.0497047,0.0842126l0.000279528 0.00120866c0.0430866,0.0109252 0.0748976,0.0490197 0.0748976,0.0943465 0,0.030252 -0.0141732,0.0572913 -0.0364094,0.0751693l0.00352756 0.0160079c0.0344449,0.0154331 0.0583543,0.0492913 0.0583543,0.0885906 0,0.028689 -0.0127402,0.0544724 -0.0330197,0.072315 0.000685039,0.00646457 0.00134252,0.0130394 0.00196063,0.0197008 0.0334567,0.0157992 0.0565315,0.0491496 0.0565315,0.087752 0,0.0223465 -0.00773228,0.0429331 -0.0207323,0.059378 0.000137795,0.00209449 0.000212598,0.00420079 0.000212598,0.00632677 0,0.0538465 -0.0448858,0.0975039 -0.100256,0.0975039 -0.0544291,0 -0.0987205,-0.0421732 -0.100224,-0.094748 -0.00691732,0.00146457 -0.0141063,0.00224409 -0.0214764,0.00224409 -0.0492717,0 -0.0902441,-0.034563 -0.0986732,-0.0801181 -0.0142008,0.00750394 -0.0304764,0.0117638 -0.0477756,0.0117638 -0.0383583,0 -0.0716772,-0.0209528 -0.0885394,-0.0517244 -0.0158583,0.0102362 -0.0348858,0.0161969 -0.0553465,0.0161969 -0.0361063,0 -0.0677441,-0.018563 -0.0853976,-0.0464055l-0.00987402 -0.00133465c-0.0144016,0.00777953 -0.0309724,0.0122126 -0.0486142,0.0122126 -0.0294764,0 -0.0559764,-0.0123701 -0.0743189,-0.0320669 -0.0122677,-0.00290551 -0.0234882,-0.00617323 -0.0336024,-0.00992126 -0.0111614,0.00417323 -0.0232874,0.00646457 -0.0359646,0.00646457 -0.0383583,0 -0.0716772,-0.0209567 -0.0885394,-0.0517244 -0.0158583,0.0102323 -0.0348858,0.0161969 -0.0553465,0.0161969 -0.055374,0 -0.100264,-0.0436535 -0.100264,-0.0975039 0,-0.0281614 0.0122835,-0.0535394 0.0319213,-0.0713386l0.000653543 -0.00552362c-0.0102992,-0.0153189 -0.0162953,-0.033626 -0.0162953,-0.0533031 0,-0.0291811 0.013185,-0.0553661 0.0340787,-0.0732362l0.00019685 -0.00118504c-0.0113386,-0.0157992 -0.018,-0.0350118 -0.018,-0.0557402 0,-0.0320394 0.0159016,-0.0604685 0.040437,-0.0782441 -0.00834646,-0.0142244 -0.013122,-0.030689 -0.013122,-0.0482441 0,-0.0320748 0.0159252,-0.0605236 0.0405079,-0.0782953 -0.00557087,-0.012126 -0.00867323,-0.0255709 -0.00867323,-0.0397165 0,-0.024815 0.00953937,-0.0474646 0.0252402,-0.0646732 0.000673228,-0.0104567 0.00131102,-0.0215079 0.00191339,-0.0331929 -0.0200748,-0.0178346 -0.0326693,-0.0434882 -0.0326693,-0.0720118 0,-0.0302992 0.0142126,-0.0573701 0.0365118,-0.075252 -0.0141969,-0.0168268 -0.0227205,-0.0383504 -0.0227205,-0.0618071 0,-0.0249094 0.0096063,-0.0476378 0.0254173,-0.0648701l3.14961e-005 -0.00464961c-0.0201535,-0.0178346 -0.0328071,-0.0435472 -0.0328071,-0.0721378 0,-0.0261732 0.0106102,-0.0499331 0.0278701,-0.0674488 -0.0215551,-0.0178858 -0.0352244,-0.0444882 -0.0352244,-0.0742047 0,-0.0261732 0.0106142,-0.0499331 0.027874,-0.0674449 -0.0215591,-0.0178858 -0.0352323,-0.0444961 -0.0352323,-0.0742087 0,-0.0241732 0.00905512,-0.0462913 0.0240354,-0.0633268l-0.00145669 -0.0107402c-0.0248425,-0.0177441 -0.0409724,-0.0463504 -0.0409724,-0.078626 0,-0.0226102 0.00792126,-0.0434213 0.0212008,-0.0599567l-0.00239764 -0.016937c-0.022689,-0.017878 -0.0371969,-0.045185 -0.0371969,-0.0757953 0,-0.0221693 0.00761024,-0.0426024 0.0204252,-0.0589803 -0.000614173,-0.00601575 -0.00120079,-0.0120236 -0.00175984,-0.0180276 -0.0226063,-0.017878 -0.0370591,-0.0451417 -0.0370591,-0.075685 0,-0.027126 0.0113898,-0.0516535 0.0297717,-0.0693307l0 -3.54331e-005c-0.0288819,-0.0171181 -0.0481654,-0.0480315 -0.0481654,-0.0833268 0,-0.0362559 0.0203543,-0.0678819 0.0505551,-0.084685 -0.0187008,-0.0177126 -0.0303189,-0.0424567 -0.0303189,-0.0698465 0,-0.0475315 0.0349803,-0.0871142 0.0812677,-0.095748 0.0014685,-0.00524803 0.00304331,-0.0102874 0.00453543,-0.0154882 -0.00890157,-0.014563 -0.0140157,-0.0315669 -0.0140157,-0.0497402 0,-0.039248 0.0238504,-0.0730748 0.0582283,-0.0885354 0.000503937,-0.00142913 0.00103937,-0.00279134 0.00155118,-0.00421654 -0.0127953,-0.016374 -0.0203976,-0.0367913 -0.0203976,-0.0589449 0,-0.0406417 0.0255748,-0.0754685 0.0619213,-0.0901102 -0.0140827,-0.0167913 -0.0225354,-0.0382283 -0.0225354,-0.0615866 0,-0.0538504 0.0448898,-0.0975039 0.100264,-0.0975039 0.00219291,0 0.00437008,7.08661e-005 0.00652756,0.000204724 -0.00690551,-0.0132362 -0.0108031,-0.0282126 -0.0108031,-0.0440709 0,-0.0538465 0.0448898,-0.0975039 0.100264,-0.0975039 0.00219291,0 0.00437008,7.08661e-005 0.00652756,0.000204724 -0.00690945,-0.0132323 -0.0108031,-0.0282087 -0.0108031,-0.0440709 0,-0.0538465 0.0448858,-0.0975 0.10026,-0.0975 0.00806693,0 0.0159094,0.000933071 0.0234252,0.0026811 -0.00711811,-0.0133898 -0.0111417,0.0934173 -0.0111417,0.058437 0,-0.0349803 0.0647756,-0.0975 0.100264,-0.0975 0.0354882,0 0.030374,0.0034685 0.0435433,0.00965354 -0.000767717,-0.00487008 -0.00116929,0.0145236 -0.00116929,-0.0149409 0,-0.0294606 0.0626575,-0.0975 0.100264,-0.0975 0.0376063,0 0.0383346,0.00560236 0.0538976,0.0152756 -9.05512e-005,-0.00170079 -0.000137795,0.0226457 -0.000137795,-0.0051378 0,-0.0277835 0.0585,-0.0975039 0.100264,-0.0975039 0.0417638,0 0.0535984,0.0112953 0.0718071,0.0294724l0.00127559 -0.000464567c0.00575197,-0.0485315 0.0573189,-0.0862205 0.0995866,-0.0862205 0.0422717,0 0.0624449,0.0156063 0.0807008,0.0396496l0.00053937 -7.48031e-005c0.0130748,-0.039063 0.0537992,-0.0672992 0.0953465,-0.0672992 0.0415472,0 0.0720394,0.0211772 0.0888071,0.0522244 0.0163228,-0.0323386 0.0425984,-0.0546063 0.0900551,-0.0546063 0.0474606,0 0.10026,0.0525866 0.10026,0.0975039 0,0.0449134 -0.0200512,0.0674213 -0.0498819,0.084315l-0.0332874 0.69528c0.0127205,0.0163504 0.0202717,0.0367087 0.0202717,0.0587913 0,0.0538465 -0.0448858,0.0975 -0.100256,0.0975 -0.040626,0 -0.0756024,-0.0234921 -0.0913543,-0.0572717 -0.0121181,0.0405945 -0.0506417,0.0702756 -0.0962913,0.0702756 -0.037878,0 -0.0708465,-0.0204291 -0.0878976,-0.0505709 -0.00989764,0.0437244 -0.0499724,0.0764488 -0.0979094,0.0764488 -0.024311,0 -0.0466024,-0.00841339 -0.0639606,-0.0224134 0.000322835,0.00317717 0.000492126,0.00639764 0.000492126,0.00965354 0,0.0538504 -0.0448898,0.0975039 -0.10026,0.0975039 -0.0157638,0 -0.0306693,-0.00353937 -0.043937,-0.00984252 0.00402362,0.0105512 0.00622047,0.0219606 0.00622047,0.033874 0,0.0508425 -0.0400157,0.0925866 -0.0910866,0.0970945 0.0121535,0.0161339 0.0193386,0.0360276 0.0193386,0.0575551 0,0.0415906 -0.0267835,0.0770866 -0.0644843,0.0910945z"/>
     <path id="_499243912" class="fil11" d="M4.80202 2.61268c0.00185433,0.00917323 0.00359055,0.0184409 0.00522047,0.0277835 -0.0114606,0.0158504 -0.018189,0.0351654 -0.018189,0.0560079 0,0.0290118 0.0130276,0.0550551 0.0337087,0.0729173 0.000114173,0.00164961 0.00019685,0.0033189 0.000307087,0.0049685 -0.0121339,0.016122 -0.0193031,0.0360079 -0.0193031,0.0575276 0,0.0234173 0.00849213,0.0449055 0.0226417,0.0617126 -3.14961e-005,0.00376772 -9.05512e-005,0.0075315 -0.000145669,0.0113031 -0.0118425,0.0160079 -0.0188228,0.0356496 -0.0188228,0.056874 0,0.018189 0.00512598,0.0352205 0.0140472,0.0497913 -0.000503937,0.00682283 -0.00105906,0.0136378 -0.00163386,0.0204567 -0.0189803,0.0177402 -0.0307953,0.0426693 -0.0307953,0.0702953 0,0.0196969 0.00601181,0.0380315 0.0163425,0.0533661 -0.000767717,0.00515748 -0.00155512,0.0103071 -0.00236614,0.0154449 -0.0198898,0.017815 -0.0323622,0.0433543 -0.0323622,0.0717323 0,0.0157126 0.00382677,0.0305551 0.010622,0.0437047 -0.00283858,0.0128661 -0.00579921,0.0256102 -0.00887008,0.0382323 -0.0126378,0.016311 -0.0201339,0.0366024 -0.0201339,0.0586024 0,0.00457874 0.000326772,0.00908661 0.000956693,0.0135l-0.00282677 0.00963386c-0.0337087,0.0157047 -0.0569882,0.0491969 -0.0569882,0.0879724 0,0.015689 0.0038189,0.0305118 0.0105906,0.0436457 -0.0420512,0.0115945 -0.0728543,0.0492047 -0.0728543,0.093811 0,0.0128465 0.00255906,0.0251102 0.00720079,0.0363425 -0.0023189,0.00365748 -0.00465748,0.00725591 -0.00700787,0.0107874 -0.0366339,0.0145118 -0.0624567,0.0494882 -0.0624567,0.0903307 0,0.0129606 0.00260236,0.0253307 0.00733071,0.0366496l-0.0025748 0.00879528c-0.0390354,0.0133307 -0.0670197,0.0494921 -0.0670197,0.0920118 0,0.0156929 0.00381102,0.0305118 0.0105866,0.0436457 -0.0420472,0.0115906 -0.0728543,0.0492047 -0.0728543,0.093811 0,0.0359213 0.0199764,0.0672992 0.0497087,0.0842126l-0.000283465 0.00120866c-0.0430866,0.0109252 -0.0748976,0.0490197 -0.0748976,0.0943465 0,0.030252 0.0141772,0.0572913 0.0364094,0.0751693l-0.00352756 0.0160079c-0.0344409,0.0154331 -0.0583543,0.0492913 -0.0583543,0.0885906 0,0.028689 0.0127441,0.0544724 0.0330197,0.072315 -0.000681102,0.00646457 -0.00133858,0.0130394 -0.00196063,0.0197008 -0.0334567,0.0157992 -0.0565315,0.0491496 -0.0565315,0.087752 0,0.0223465 0.00773228,0.0429331 0.0207362,0.059378 -0.000137795,0.00209449 -0.000216535,0.00420079 -0.000216535,0.00632677 0,0.0538465 0.0448898,0.0975039 0.10026,0.0975039 0.0544291,0 0.0987205,-0.0421732 0.10022,-0.094748 0.00691732,0.00146457 0.0141063,0.00224409 0.0214764,0.00224409 0.0492756,0 0.0902441,-0.034563 0.0986772,-0.0801181 0.0142008,0.00750394 0.0304724,0.0117638 0.0477717,0.0117638 0.0383622,0 0.0716811,-0.0209528 0.0885394,-0.0517244 0.0158622,0.0102362 0.0348898,0.0161969 0.0553465,0.0161969 0.0361102,0 0.0677441,-0.018563 0.0853976,-0.0464055l0.00987795 -0.00133465c0.0143976,0.00777953 0.0309724,0.0122126 0.0486102,0.0122126 0.0294803,0 0.0559803,-0.0123701 0.0743228,-0.0320669 0.0122638,-0.00290551 0.0234882,-0.00617323 0.0335984,-0.00992126 0.0111654,0.00417323 0.0232913,0.00646457 0.0359646,0.00646457 0.0383622,0 0.0716811,-0.0209567 0.0885433,-0.0517244 0.0158583,0.0102323 0.0348858,0.0161969 0.0553425,0.0161969 0.055374,0 0.100264,-0.0436535 0.100264,-0.0975039 0,-0.0281614 -0.0122835,-0.0535394 -0.0319173,-0.0713386l-0.00065748 -0.00552362c0.0103031,-0.0153189 0.0162992,-0.033626 0.0162992,-0.0533031 0,-0.0291811 -0.013189,-0.0553661 -0.0340827,-0.0732362l-0.00019685 -0.00118504c0.0113425,-0.0157992 0.018,-0.0350118 0.018,-0.0557402 0,-0.0320394 -0.0159016,-0.0604685 -0.0404331,-0.0782441 0.00834646,-0.0142244 0.0131181,-0.030689 0.0131181,-0.0482441 0,-0.0320748 -0.0159252,-0.0605236 -0.0405079,-0.0782953 0.0055748,-0.012126 0.00867323,-0.0255709 0.00867323,-0.0397165 0,-0.024815 -0.00953937,-0.0474646 -0.0252362,-0.0646732 -0.000677165,-0.0104567 -0.00131102,-0.0215079 -0.00191339,-0.0331929 0.0200748,-0.0178346 0.0326693,-0.0434882 0.0326693,-0.0720118 0,-0.0302992 -0.0142165,-0.0573701 -0.0365157,-0.075252 0.0142008,-0.0168268 0.0227244,-0.0383504 0.0227244,-0.0618071 0,-0.0249094 -0.00961024,-0.0476378 -0.0254173,-0.0648701l-3.54331e-005 -0.00464961c0.0201535,-0.0178346 0.0328071,-0.0435472 0.0328071,-0.0721378 0,-0.0261732 -0.0106102,-0.0499331 -0.0278701,-0.0674488 0.0215591,-0.0178858 0.0352283,-0.0444882 0.0352283,-0.0742047 0,-0.0261732 -0.0106142,-0.0499331 -0.027874,-0.0674449 0.0215551,-0.0178858 0.0352283,-0.0444961 0.0352283,-0.0742087 0,-0.0241732 -0.00905118,-0.0462913 -0.0240315,-0.0633268l0.00145669 -0.0107402c0.0248386,-0.0177441 0.0409724,-0.0463504 0.0409724,-0.078626 0,-0.0226102 -0.00792126,-0.0434213 -0.0212008,-0.0599567l0.0023937 -0.016937c0.0226929,-0.017878 0.0372008,-0.045185 0.0372008,-0.0757953 0,-0.0221693 -0.00761024,-0.0426024 -0.0204252,-0.0589803 0.000610236,-0.00601575 0.00119685,-0.0120236 0.00175984,-0.0180276 0.0226063,-0.017878 0.0370591,-0.0451417 0.0370591,-0.075685 0,-0.027126 -0.0113937,-0.0516535 -0.0297756,-0.0693307l0 -3.54331e-005c0.0288858,-0.0171181 0.0481693,-0.0480315 0.0481693,-0.0833268 0,-0.0362559 -0.0203543,-0.0678819 -0.0505551,-0.084685 0.0187008,-0.0177126 0.0303189,-0.0424567 0.0303189,-0.0698465 0,-0.0475315 -0.0349803,-0.0871142 -0.0812717,-0.095748 -0.0014685,-0.00524803 -0.00304331,-0.0102874 -0.0045315,-0.0154882 0.00889764,-0.014563 0.0140157,-0.0315669 0.0140157,-0.0497402 0,-0.039248 -0.0238543,-0.0730748 -0.0582283,-0.0885354 -0.000507874,-0.00142913 -0.00104331,-0.00279134 -0.00155512,-0.00421654 0.0127992,-0.016374 0.0203976,-0.0367913 0.0203976,-0.0589449 0,-0.0406417 -0.0255748,-0.0754685 -0.0619213,-0.0901102 0.0140866,-0.0167913 0.0225354,-0.0382283 0.0225354,-0.0615866 0,-0.0538504 -0.0448898,-0.0975039 -0.100264,-0.0975039 -0.00219291,0 -0.00437008,7.08661e-005 -0.00652756,0.000204724 0.00690945,-0.0132362 0.0108071,-0.0282126 0.0108071,-0.0440709 0,-0.0538465 -0.0448898,-0.0975039 -0.100264,-0.0975039 -0.00219291,0 -0.00437008,7.08661e-005 -0.00652756,0.000204724 0.00690551,-0.0132323 0.0108031,-0.0282087 0.0108031,-0.0440709 0,-0.0538465 -0.0448898,-0.0975 -0.100264,-0.0975 -0.00806299,0 -0.0159055,0.000933071 -0.0234252,0.0026811 0.00712205,-0.0133898 0.0111457,-0.0285945 0.0111457,-0.0447087 0,-0.0538504 -0.0647756,-0.0975039 -0.100264,-0.0975039 -0.0354882,0 -0.030374,0.106618 -0.0435433,0.112803 0.000767717,-0.00487008 0.00116535,-0.088622 0.00116535,-0.118087 0,-0.0294646 -0.0626535,0.00564567 -0.10026,0.00564567 -0.0376063,0 -0.0383346,0.00560236 -0.0539016,0.0152756 9.05512e-005,-0.00170079 0.000141732,0.0226457 0.000141732,-0.0051378 0,-0.0277835 -0.0585,-0.0975039 -0.100264,-0.0975039 -0.0417638,0 -0.0535984,0.0112953 -0.0718071,0.0294724l-0.00127559 -0.000464567c-0.00575591,-0.0485315 -0.0573189,-0.0862205 -0.0995906,-0.0862205 -0.0422717,0 -0.0624449,0.0156063 -0.0807008,0.0396496l-0.00053937 -7.48031e-005c-0.0130748,-0.039063 -0.0537992,-0.0672992 -0.0953465,-0.0672992 -0.0415472,0 -0.0720354,0.0211772 -0.0888071,0.0522244 -0.0163228,-0.0323386 -0.0425984,-0.0546063 -0.0900551,-0.0546063 -0.0474567,0 -0.10026,0.0525866 -0.10026,0.0975039 0,0.0449134 0.0200551,0.0674213 0.0498858,0.084315l0.0332835 0.69528c-0.0127205,0.0163504 -0.0202717,0.0367087 -0.0202717,0.0587913 0,0.0538465 0.0448898,0.0975 0.10026,0.0975 0.040622,0 0.0755984,-0.0234921 0.0913504,-0.0572717 0.012122,0.0405945 0.0506457,0.0702756 0.0962953,0.0702756 0.037874,0 0.0708425,-0.0204291 0.0878976,-0.0505709 0.00989764,0.0437244 0.0499685,0.0764488 0.0979055,0.0764488 0.024311,0 0.0466063,-0.00841339 0.0639646,-0.0224134 -0.000326772,0.00317717 -0.000492126,0.00639764 -0.000492126,0.00965354 0,0.0538504 0.0448898,0.0975039 0.10026,0.0975039 0.0157638,0 0.0306693,-0.00353937 0.043937,-0.00984252 -0.00402362,0.0105512 -0.00622047,0.0219606 -0.00622047,0.033874 0,0.0508425 0.0400157,0.0925866 0.0910827,0.0970945 -0.0121535,0.0161339 -0.0193346,0.0360276 -0.0193346,0.0575551 0,0.0415906 0.0267835,0.0770866 0.0644803,0.0910945z"/>
    </g>
   </g>
   <g>
    <polygon id="_499243816" class="fil12" points="1.75377,4.76083 4.18208,5.43606 4.12509,5.64078 1.69679,4.96555 "/>
    <polygon id="_499244104" class="fil13" points="1.38901,4.29325 1.80695,4.41309 1.90916,4.4424 1.8798,4.54478 1.68754,5.21526 1.65823,5.31748 1.55585,5.28812 1.13791,5.16828 1.0357,5.13896 1.06506,5.03658 1.25732,4.3661 1.28663,4.26389 "/>
    <path id="_499244152" class="fil14" d="M1.02504 4.91449l0.761362 0.218323 0.102213 0.0293031 -0.0293583 0.102386 -0.0411969 0.143673c-0.0194055,0.0676575 -0.0647087,0.12122 -0.122059,0.153008 -0.0572874,0.0317559 -0.126748,0.0417559 -0.194508,0.0223268l-0.474012 -0.135925c-0.0676535,-0.0194016 -0.121224,-0.0647087 -0.153004,-0.122063 -0.0317559,-0.0572913 -0.041752,-0.126744 -0.0223228,-0.194504l0.0411969 -0.143673 0.029311 -0.102217 0.102378 0.0293622z"/>
    <line id="_499243360" class="fil15" x1="1.91739" y1="4.13379" x2="1.9174" y2= "4.13379" />
    <path id="_499243288" class="fil14" d="M1.91983 4.66688l-0.761362 -0.218327 -0.102217 -0.029311 0.0293622 -0.102378 0.0412008 -0.143673c0.0193937,-0.0676417 0.0646969,-0.121213 0.122055,-0.153008 0.0572913,-0.0317559 0.126752,-0.0417559 0.194512,-0.0223268l0.474008 0.135929 1.5748e-005 7.87402e-006c0.0676457,0.0193976 0.121209,0.0646929 0.152996,0.122047 0.0317441,0.0572913 0.0417441,0.126748 0.0223228,0.194504l-3.93701e-006 1.1811e-005 -0.0412008 0.143669 -0.029311 0.102209 -0.102378 -0.0293543z"/>
   </g>
  </g>
  <rect class="fil0" x="0.0364567" y="-0.00520866" width="6.82666" height="6.82666"/>
 </g>
</svg>
