<?xml version="1.0" encoding="UTF-8"?>
<!DOCTYPE svg PUBLIC "-//W3C//DTD SVG 1.1//EN" "http://www.w3.org/Graphics/SVG/1.1/DTD/svg11.dtd">
<!-- Creator: CorelDRAW -->
<svg xmlns="http://www.w3.org/2000/svg" xml:space="preserve" width="6.82666in" height="6.82666in" style="shape-rendering:geometricPrecision; text-rendering:geometricPrecision; image-rendering:optimizeQuality; fill-rule:evenodd; clip-rule:evenodd"
viewBox="0 0 6.82666 6.82666"
 xmlns:xlink="http://www.w3.org/1999/xlink">
 <defs>
  <style type="text/css">
   <![CDATA[
    .fil19 {fill:none}
    .fil8 {fill:#006064}
    .fil3 {fill:#00838F}
    .fil2 {fill:#0097A7}
    .fil12 {fill:#212121}
    .fil9 {fill:#424242}
    .fil10 {fill:#689F38}
    .fil11 {fill:#7CB342}
    .fil1 {fill:#D4996A}
    .fil6 {fill:#D69B6B}
    .fil5 {fill:#DB830F}
    .fil0 {fill:#DBA070}
    .fil13 {fill:#E0E0E0}
    .fil4 {fill:#E6A875}
    .fil15 {fill:#F08D0C}
    .fil7 {fill:#FAFAFA}
    .fil14 {fill:#FF9100}
    .fil16 {fill:#424242;fill-rule:nonzero}
    .fil18 {fill:#546E7A;fill-rule:nonzero}
    .fil17 {fill:#78909C;fill-rule:nonzero}
   ]]>
  </style>
 </defs>
 <g id="Layer_x0020_1">
  <metadata id="CorelCorpID_0Corel-Layer"/>
  <g id="_499246144">
   <path id="_490483904" class="fil0" d="M3.36536 3.73065c-0.957205,0.419661 -1.24435,0.643358 -1.35785,0.743827 -0.174917,0.154772 -0.271665,0.731705 -0.374827,1.22161l2.16568 0 2.16568 0c-0.103165,-0.489906 -0.199953,-1.06686 -0.374831,-1.22161 -0.113496,-0.100469 -0.390138,-0.318425 -1.34737,-0.738079l-0.876484 -0.00574803z"/>
   <path id="_490483688" class="fil1" d="M3.36536 3.73065c-0.0308386,0.0135197 -0.0609528,0.0268307 -0.0904213,0.0399488 0.0351378,0.0392795 0.0727441,0.0752992 0.113059,0.10713 0.0620591,0.0489961 0.12852,0.0776102 0.200189,0.0938268 0.0675433,0.0152874 0.136709,0.0192677 0.210173,0.0192677 0.0727795,0 0.141024,-0.00353937 0.206902,-0.0179567 0.0712717,-0.0155984 0.137307,-0.0432441 0.198827,-0.0910394 0.0418819,-0.0325315 0.080878,-0.0696575 0.11726,-0.110335 -0.0259921,-0.0115433 -0.052437,-0.0232283 -0.0795039,-0.0350945l-0.876484 -0.00574803z"/>
   <path id="_490484072" class="fil2" d="M3.00515 3.89383c-0.673106,0.316039 -0.899854,0.494106 -0.997646,0.58065 -0.174917,0.154772 -0.271665,0.731705 -0.374827,1.22161l2.16568 0 2.16568 0c-0.103165,-0.489906 -0.199953,-1.06686 -0.374831,-1.22161 -0.0945157,-0.0836457 -0.302248,-0.248799 -0.921685,-0.54398 -0.00438976,0.00456693 -0.00889764,0.00905512 -0.0132244,0.0137047 -0.581504,0.628984 -1.40528,0.319827 -1.62818,-0.0213268 -0.00695276,-0.00988189 -0.0139764,-0.0193425 -0.0209724,-0.0290472z"/>
   <path id="_490484384" class="fil3" d="M1.89767 4.64326c-0.11015,0.24815 -0.185677,0.676189 -0.264992,1.05283l0.879138 0c-0.019622,-0.614472 -0.0207402,-0.941287 -0.614146,-1.05283z"/>
   <path id="_490484120" class="fil3" d="M5.69904 4.64326c0.110146,0.24815 0.185677,0.676189 0.265004,1.05283l-0.879185 0c0.0196693,-0.614472 0.0207874,-0.941287 0.614181,-1.05283z"/>
   <path id="_490483760" class="fil4" d="M4.62742 2.36319l-0.116791 0.0958071 -0.0602874 0.0219606 -1.35828 0 -0.064752 -0.0256811 -0.0828465 -0.0769567 3.93701e-006 0 -0.139807 -0.0182323c-0.028063,0.0265827 -0.051874,0.0584606 -0.0701496,0.0942047 -0.0261181,0.0510866 -0.0410787,0.109634 -0.0410787,0.171248 0,0.088122 0.0299291,0.169075 0.079063,0.230669 0.0381732,0.0478504 0.0879449,0.0841929 0.14472,0.103823 0.0432874,0.135272 0.0969252,0.286902 0.166402,0.429646 0.0813425,0.167134 0.184894,0.322799 0.320094,0.429531 0.059685,0.047122 0.123598,0.0746417 0.19252,0.0902362 0.0649606,0.0147008 0.13148,0.0185276 0.20213,0.0185276 0.0699921,0 0.135622,-0.00340157 0.198976,-0.0172677 0.0685433,-0.0150039 0.132047,-0.0415866 0.191213,-0.0875512 0.136323,-0.105902 0.240965,-0.262346 0.323283,-0.43087 0.0700787,-0.143457 0.12411,-0.29613 0.167669,-0.432252 0.0567756,-0.0196299 0.106547,-0.0559764 0.144724,-0.103827 0.0491339,-0.0615906 0.0790669,-0.142543 0.0790669,-0.230665 0,-0.0751535 -0.022,-0.145362 -0.0592283,-0.202882 -0.0179055,-0.0276575 -0.0393898,-0.0523465 -0.0637362,-0.0732638l-0.152909 0.0137953z"/>
   <ellipse id="_488496992" class="fil5" cx="3.79836" cy="1.68185" rx="0.691187" ry="0.479118"/>
   <path id="_488489336" class="fil6" d="M4.20733 3.4637c-0.271591,0.0724685 -0.586835,0.0607165 -0.817949,0 0.0754134,0.259063 0.673732,0.265354 0.817949,0z"/>
   <path id="_499258408" class="fil7" d="M2.58624 5.69609l0.0700945 0c-0.00312992,-0.311547 -0.00312992,-0.536091 -0.00312992,-0.536091 0,0 -0.0310236,0.233354 -0.0669646,0.536091z"/>
   <path id="_499252504" class="fil7" d="M5.01047 5.69609l-0.0700945 0c0.00312992,-0.311547 0.00316142,-0.536091 0.00316142,-0.536091 0,0 0.0310315,0.233354 0.0669331,0.536091z"/>
   <g>
    <path id="_499248040" class="fil8" d="M3.0058 3.89383c-0.0442717,0.0207362 -0.0865197,0.0408622 -0.127079,0.0604449 0.306181,0.43335 1.24465,0.856787 1.88848,0.0223307 -0.0308346,-0.0150236 -0.0626811,-0.0303701 -0.0957835,-0.0461063 -0.00443307,0.00456693 -0.00892913,0.00905512 -0.0132559,0.0137047 -0.582626,0.628984 -1.40799,0.319827 -1.63135,-0.0213268 -0.00695276,-0.00988189 -0.0140118,-0.0193425 -0.0210039,-0.0290472z"/>
    <g>
     <path id="_499248256" class="fil9" d="M4.46522 5.22605c0.0526181,0 0.0952677,0.0430079 0.0952677,0.096063 0,0.0530591 -0.0426496,0.0960669 -0.0952677,0.0960669 -0.0526181,0 -0.0952677,-0.0430079 -0.0952677,-0.0960669 0,-0.0530551 0.0426496,-0.096063 0.0952677,-0.096063z"/>
     <path id="_499248088" class="fil9" d="M3.13151 5.22605c0.0526142,0 0.0952677,0.0430079 0.0952677,0.096063 0,0.0530591 -0.0426535,0.0960669 -0.0952677,0.0960669 -0.0526181,0 -0.0952717,-0.0430079 -0.0952717,-0.0960669 0,-0.0530551 0.0426535,-0.096063 0.0952717,-0.096063z"/>
     <path id="_499248232" class="fil10" d="M2.71471 4.55361l2.1673 0c0.032752,0 0.0595394,0.0267874 0.0595394,0.0595394l0 1.09322 -2.28638 0 0 -1.09322c0,-0.032752 0.0267913,-0.0595394 0.0595394,-0.0595394z"/>
     <path id="_499248280" class="fil11" d="M2.9085 3.91761c0.0785354,-0.0380315 0.16187,-0.0675512 0.249134,-0.0873622l0 0.949016c0,0.0685118 -0.0560512,0.124567 -0.124567,0.124567l0 0c-0.0685197,0 -0.124567,-0.0560551 -0.124567,-0.124567l0 -0.861654z"/>
     <path id="_499248112" class="fil11" d="M4.43909 3.82131c0.0860906,0.0157717 0.169559,0.0405787 0.249134,0.0733858l0 0.884563c0,0.0685118 -0.0560472,0.124567 -0.124567,0.124567l0 0c-0.0685197,0 -0.124567,-0.0560551 -0.124567,-0.124567l0 -0.957949z"/>
     <path id="_499248304" class="fil12" d="M3.03381 4.67667c0.0540472,0 0.0978701,0.0438228 0.0978701,0.0978701 0,0.0540472 -0.0438228,0.0978701 -0.0978701,0.0978701 -0.0540512,0 -0.0978701,-0.0438228 -0.0978701,-0.0978701 0,-0.0540472 0.0438189,-0.0978701 0.0978701,-0.0978701z"/>
     <path id="_499247608" class="fil12" d="M4.56366 4.67667c0.0540512,0 0.0978701,0.0438228 0.0978701,0.0978701 0,0.0540472 -0.0438189,0.0978701 -0.0978701,0.0978701 -0.0540472,0 -0.0978661,-0.0438228 -0.0978661,-0.0978701 0,-0.0540472 0.0438189,-0.0978701 0.0978661,-0.0978701z"/>
     <g>
      <path id="_499247896" class="fil13" d="M3.03381 4.73189c0.00840157,0 0.0152126,0.00681102 0.0152126,0.0152165 0,0.00839764 -0.00681102,0.0152126 -0.0152126,0.0152126 -0.00840551,0 -0.0152165,-0.00681496 -0.0152165,-0.0152126 0,-0.00840551 0.00681102,-0.0152165 0.0152165,-0.0152165z"/>
      <path id="_499247704" class="fil13" d="M3.03381 4.78676c0.00840157,0 0.0152126,0.00681102 0.0152126,0.0152165 0,0.00839764 -0.00681102,0.0152126 -0.0152126,0.0152126 -0.00840551,0 -0.0152165,-0.00681496 -0.0152165,-0.0152126 0,-0.00840551 0.00681102,-0.0152165 0.0152165,-0.0152165z"/>
     </g>
     <g>
      <path id="_499247368" class="fil13" d="M4.56366 4.73189c0.00840551,0 0.0152165,0.00681102 0.0152165,0.0152165 0,0.00839764 -0.00681102,0.0152126 -0.0152165,0.0152126 -0.00840157,0 -0.0152126,-0.00681496 -0.0152126,-0.0152126 0,-0.00840551 0.00681102,-0.0152165 0.0152126,-0.0152165z"/>
      <path id="_499247200" class="fil13" d="M4.56366 4.78676c0.00840551,0 0.0152165,0.00681102 0.0152165,0.0152165 0,0.00839764 -0.00681102,0.0152126 -0.0152165,0.0152126 -0.00840157,0 -0.0152126,-0.00681496 -0.0152126,-0.0152126 0,-0.00840551 0.00681102,-0.0152165 0.0152126,-0.0152165z"/>
     </g>
    </g>
   </g>
   <path id="_499247104" class="fil9" d="M2.91548 2.47316c-0.021126,0.173083 -0.012622,0.334122 0.00109055,0.493051l0.0585394 -0.131878c0,0 0.0502795,-0.317087 0.102378,-0.361173 0.0520984,-0.0440827 -0.162008,0 -0.162008,0z"/>
   <path id="_499246864" class="fil9" d="M4.65614 2.47316c0.0211299,0.173083 0.012622,0.334122 -0.00109055,0.493051l-0.0585354 -0.131878c0,0 -0.0502795,-0.317087 -0.102378,-0.361173 -0.0520984,-0.0440827 0.162004,0 0.162004,0z"/>
   <polygon id="_499247008" class="fil6" points="4.62742,2.36859 4.51063,2.50189 4.45034,2.53245 3.09206,2.53245 3.02731,2.49672 2.94446,2.38964 2.94446,2.38964 2.80466,2.36427 3.02731,2.65206 3.09206,2.68778 4.45034,2.68778 4.51063,2.65723 4.78033,2.34939 "/>
   <path id="_499247296" class="fil14" d="M3.91824 1.32972l0 0 -1.1811e-005 0 1.9685e-005 0.00141732 -7.87402e-006 -0.00141732zm0.0338465 -0.111937c0.00875984,0.020437 0.0134213,0.0426142 0.0134213,0.0653543l0 0.047815 0 0.492543 0.0952756 0 0 -0.391272 0 -1.1811e-005 0 -0.149075c0,-0.0158346 -0.00143307,-0.0314843 -0.0042126,-0.0467953 0.214732,0.042937 0.383909,0.14289 0.518382,0.27387 0.137323,0.133748 0.236862,0.298543 0.311185,0.466669 0.0108425,0.0245315 0.0207677,0.0269488 0.0270945,0.0284803 0.0583386,0.0141614 0.0969016,0.0235236 0.0969016,0.110902l0 0.0446142 -0.0349803 0.0286969 -0.464531 0.381059 -0.0602874 0.0219606 -1.35828 0 -0.064752 -0.0256772 -0.410209 -0.381063 -0.0305157 -0.0283465 0 -0.0412441c0,-0.157559 0.106776,-0.0775 0.119248,-0.10889 0.0702126,-0.17674 0.168004,-0.348713 0.305831,-0.487386 0.13537,-0.136201 0.307894,-0.23961 0.528488,-0.28365 -0.00278346,0.015315 -0.00421654,0.0309646 -0.00421654,0.0467992l0 0.149039 0 1.1811e-005 0 0.391307 0.0952756 0 0 -0.492543 0 -0.047815c0,-0.0227402 0.00466142,-0.0449173 0.0134213,-0.0653543l0.0362992 -0.0063189 -0.0362953 0.0063189c0.00834646,-0.0194685 0.0204094,-0.0373583 0.0357087,-0.0526575 0.0313622,-0.0313661 0.0736063,-0.0491378 0.11802,-0.0491378 0.0444094,0 0.0866614,0.0177756 0.118016,0.0491378 0.0152992,0.0152992 0.0273661,0.033189 0.0357126,0.0526575zm-0.273614 0.111937l0 0z"/>
   <path id="_499246168" class="fil15" d="M2.70098 2.01302c0.119783,0.113657 0.369563,0.348323 0.408228,0.365898 0.0511654,0.0232598 1.26059,0.00930315 1.26059,0.00930315 0,0 0.0930354,-0.0232559 0.116291,-0.0418622 0.0184331,-0.014748 0.298669,-0.250429 0.414169,-0.347598 0.00509055,0.00468898 0.00955512,0.00577953 0.0129724,0.00660236 0.0583386,0.0141614 0.0969016,0.0235236 0.0969016,0.110902l0 0.0446142 -0.0349803 0.0286969 -0.464531 0.381059 -0.0602874 0.0219606 -1.35828 0 -0.064752 -0.0256772 -0.410209 -0.381063 -0.0305157 -0.0283465 0 -0.0412441c0,-0.144673 0.0900157,-0.0890197 0.114398,-0.103244z"/>
   <g>
    <polygon id="_499246648" class="fil16" points="3.2075,5.71068 2.23011,3.73039 2.02017,3.81571 2.95544,5.71068 "/>
    <path id="_499246456" class="fil17" d="M1.39157 3.89733c0.0618701,-0.0547323 0.135138,-0.110252 0.215634,-0.164484 0.0625827,-0.0421575 0.12878,-0.083252 0.196783,-0.122382l0.149484 0.302878 0.0383189 0.0776299c0.342807,0.167996 0.317638,0.208535 0.388185,-0.191587l-0.038315 -0.0776417 -0.150354 -0.30463c0.0770118,-0.0330157 0.152311,-0.0619921 0.223606,-0.0857756 0.0909291,-0.0303504 0.17678,-0.0527835 0.252811,-0.0649252l0.115933 -0.0185236 -0.0518701 -0.105106 -0.327717 -0.664008c-0.00620079,-0.0125433 0.00458268,0.00951575 -0.00325591,-0.00597638 -0.123697,-0.244421 -0.357724,-0.354295 -0.581126,-0.39265 -0.219272,-0.0376378 -0.434102,-0.0040748 -0.518567,0.037622l-0.000425197 0.000204724 -0.00148031 0.00073622 -0.000102362 0.000318898c-0.075563,0.0382402 -0.296594,0.263197 -0.390193,0.537835 -0.0584606,0.171535 -0.0716024,0.364417 0.0199803,0.549992l0.327732 0.663992 0.0501024 0.101524 0.0848346 -0.0750433z"/>
    <path id="_499246768" class="fil18" d="M1.79849 3.61364l0.00550394 -0.00317717 0.149488 0.302878 0.038315 0.0776299c0.342807,0.167996 0.317638,0.208535 0.388185,-0.191591l-0.0383189 -0.0776378 -0.1415 -0.286701 -0.394413 -0.510244c-0.0588071,-0.0760787 -0.147315,-0.177634 -0.161953,-0.134449l0 0c-0.0146417,0.043185 -0.00669291,0.118083 0.0143346,0.209992l0.140358 0.613299z"/>
   </g>
  </g>
  <rect class="fil19" x="0.0364567" y="-0.00520866" width="6.82666" height="6.82666"/>
 </g>
</svg>
