<?xml version="1.0" encoding="UTF-8"?>
<!DOCTYPE svg PUBLIC "-//W3C//DTD SVG 1.1//EN" "http://www.w3.org/Graphics/SVG/1.1/DTD/svg11.dtd">
<!-- Creator: CorelDRAW -->
<svg xmlns="http://www.w3.org/2000/svg" xml:space="preserve" width="6.82666in" height="6.82666in" style="shape-rendering:geometricPrecision; text-rendering:geometricPrecision; image-rendering:optimizeQuality; fill-rule:evenodd; clip-rule:evenodd"
viewBox="0 0 6.82666 6.82666"
 xmlns:xlink="http://www.w3.org/1999/xlink">
 <defs>
  <style type="text/css">
   <![CDATA[
    .fil12 {fill:none}
    .fil0 {fill:#424242}
    .fil10 {fill:#6A1B9A}
    .fil8 {fill:#7B1FA2}
    .fil7 {fill:#8E24AA}
    .fil2 {fill:#E0C2B3}
    .fil1 {fill:#E6CABD}
    .fil6 {fill:#EC407A}
    .fil3 {fill:#F2CFBD}
    .fil11 {fill:#FB8C00}
    .fil5 {fill:#FF4081}
    .fil9 {fill:#FFCC80}
    .fil4 {fill:#FFDDCC}
   ]]>
  </style>
 </defs>
 <g id="Layer_x0020_1">
  <metadata id="CorelCorpID_0Corel-Layer"/>
  <g id="_490486496">
   <path id="_490486856" class="fil0" d="M1.71013 3.92353c0.102843,0.257071 0.791587,0.539957 0.545043,-0.516713 -0.0455748,-0.195358 -0.140665,-0.348409 -0.198807,-0.55635 -0.453138,-1.62067 0.828205,-2.2081 1.45923,-1.93133 0.807091,-0.268106 1.79651,0.573728 1.34842,2.22393 -0.362811,1.05109 0.265795,1.17208 0.530685,0.819209 -0.833059,2.14167 -2.83456,2.10293 -3.68457,-0.0387402z"/>
   <path id="_490487408" class="fil0" d="M1.88032 3.93032c0.0968701,0.184831 0.607059,0.236232 0.374862,-0.523508 -0.0429252,-0.140445 -0.0909685,-0.269327 -0.14572,-0.418835 -0.426819,-1.16524 0.780098,-1.58761 1.37447,-1.38862 0.760209,-0.192768 1.77926,0.426433 1.35719,1.61292 -0.341736,0.755732 0.087248,0.968307 0.336752,0.714594 -0.784669,1.53985 -2.49692,1.5433 -3.29756,0.00345276z"/>
  </g>
  <path class="fil1" d="M2.55162 4.06481c0,0 0.426146,-0.204161 0.432701,-0.204161 0.00655512,0 1.03202,0.0390591 1.03202,0.0390591l0.3225 0.196106 0.110209 0.501378 -0.692394 0.11102 -1.12953 -0.0389764 -0.0755039 -0.604425z"/>
  <path class="fil1" d="M4.01635 3.51446l0 1.12577c-0.283819,0.332177 -0.748236,0.320685 -1.03202,0l0 -1.12577c0,-0.607866 1.03202,-0.607866 1.03202,0z"/>
  <path class="fil2" d="M4.01635 2.77731l0 1.12577c-0.283819,0.332177 -0.748236,0.320685 -1.03202,0l0 -1.12577c0,-0.607866 1.03202,-0.607866 1.03202,0z"/>
  <g id="_490485344">
   <path id="_490486208" class="fil3" d="M2.07134 2.33772c0.103583,-0.0444961 0.249906,0.0646339 0.326835,0.243736 0.076878,0.179102 0.0552992,0.360378 -0.0482953,0.404846 -0.103579,0.0444921 -0.249906,-0.0646378 -0.32678,-0.24374 -0.0769724,-0.179102 -0.0553543,-0.360378 0.0482402,-0.404843z"/>
   <path id="_490486280" class="fil3" d="M4.92933 2.33772c-0.103594,-0.0444961 -0.249906,0.0646339 -0.326835,0.243736 -0.0769291,0.179102 -0.055311,0.360378 0.0482835,0.404846 0.103539,0.0444921 0.249862,-0.0646378 0.326791,-0.24374 0.0769291,-0.179102 0.0553543,-0.360378 -0.0482402,-0.404843z"/>
   <path id="_490486328" class="fil4" d="M3.49696 4.01069c-0.32198,0 -1.00218,-0.506209 -1.21242,-1.23123 -0.212354,-0.732091 0.187484,-1.78213 1.21242,-1.78213 1.02494,0 1.42484,1.05001 1.21247,1.78213 -0.210331,0.725031 -0.890476,1.23123 -1.21247,1.23123z"/>
   <path id="_490486664" class="fil5" d="M3.12731 3.30774c0.16413,-0.122638 0.292063,-0.0306575 0.38789,-0.0306575 0.095815,0 0.22376,-0.0919803 0.38789,0.0306575 -0.0881969,0.323421 -0.658811,0.333343 -0.77578,0z"/>
   <path id="_490486136" class="fil6" d="M3.12735 3.30774c0.164091,-0.122638 0.292024,-0.0306575 0.38785,-0.0306575 0.095815,0 0.223803,-0.0919803 0.38789,0.0306575 -0.250906,0.0954134 -0.60685,0.0508425 -0.77574,0z"/>
   <path id="_490485992" class="fil0" d="M2.17563 2.03863c0.0454134,-1.48494 2.63084,-1.34583 2.64267,0 -0.760614,0.182587 -1.98646,0.152681 -2.64267,0z"/>
   <path id="_490485272" class="fil0" d="M4.17 1.72984c0.520677,0.33176 0.551213,0.777394 0.572543,1.1218 0.234087,-0.291764 0.25424,-1.32472 -0.572543,-1.1218z"/>
   <path id="_490485608" class="fil0" d="M2.83148 1.72984c-0.520732,0.33176 -0.551268,0.777394 -0.572559,1.1218 -0.234122,-0.291764 -0.254291,-1.32472 0.572559,-1.1218z"/>
  </g>
  <path class="fil7" d="M2.56482 4.0586c-0.708732,0.333256 -0.94813,0.521268 -1.05157,0.612787 -0.185579,0.164217 -0.288228,0.776339 -0.39772,1.29612l2.29778 0 2.29781 0c-0.109492,-0.519783 -0.212134,-1.13193 -0.397728,-1.29612 -0.100063,-0.0885984 -0.319925,-0.263386 -0.974555,-0.575571 -0.0844646,0.294343 -0.447465,0.515657 -0.882484,0.515657 -0.453161,0 -0.828134,-0.240177 -0.891539,-0.552874z"/>
  <path class="fil8" d="M1.39673 4.85046c-0.116866,0.263287 -0.197051,0.717433 -0.281205,1.11705l0.932811 0c-0.0208661,-0.651953 -0.0220079,-0.998705 -0.651606,-1.11705z"/>
  <path class="fil8" d="M5.42992 4.85046c0.116913,0.263287 0.197051,0.717433 0.281205,1.11705l-0.932811 0c0.0208346,-0.651953 0.0220197,-0.998705 0.651606,-1.11705z"/>
  <g id="_490484432">
   <path id="_490485392" class="fil9" d="M2.45736 4.10614c-0.0377283,0.022374 -0.0762126,0.0434764 -0.115205,0.0634291l0.0328228 0.889496 0.117071 -0.00214961 -0.0346024 -0.950807 -8.66142e-005 3.14961e-005z"/>
   <path id="_490485632" class="fil9" d="M4.36877 4.11849c0.0381535,0.0101063 0.0766654,0.0280354 0.115657,0.0479882l-0.0327402 0.892587 -0.117071 -0.00214961 0.0346024 -0.950807 -0.000448819 0.0123819z"/>
  </g>
  <polygon class="fil10" points="3.283,5.56389 3.5006,5.56389 3.5006,4.61147 3.283,4.61147 "/>
  <path class="fil9" d="M2.25404 4.96337c0.413193,0 0.752736,0.0956929 1.15929,0.0956929 0.40848,0 0.75072,-0.0956929 1.16687,-0.0956929 0.0883307,0 0.224606,0.0118031 0.214224,0.185248 -0.012622,0.210823 -0.0613622,0.591602 0.0569724,0.824717l-2.87613 0c0.133567,-0.263122 0.0482165,-0.619063 0.0482165,-0.801713 0,-0.181374 0.148268,-0.206504 0.230559,-0.208252z"/>
  <path class="fil11" d="M3.64387 4.59741c0.0257638,0.0705039 0.0934331,0.120839 0.172862,0.120839 0.101614,0 0.183988,-0.082374 0.183988,-0.183988 0,-0.0174685 -0.00244488,-0.0343661 -0.00699606,-0.050378 -0.102126,0.0545512 -0.220902,0.0939291 -0.349854,0.113528zm0.351531 -0.114406c0.0330945,0.0487598 0.0889646,0.0808031 0.152335,0.0808031 0.101614,0 0.183988,-0.082374 0.183988,-0.183988 0,-0.0545787 -0.0237756,-0.103602 -0.0615276,-0.137295 -0.0632874,0.0953504 -0.158091,0.177843 -0.274795,0.24048zm0.277681 -0.244917c0.00629528,0.000649606 0.012685,0.000992126 0.0191496,0.000992126 0.067126,0 0.125843,-0.0359528 0.157976,-0.0896457l-0.111366 -0.0536142c-0.0143228,0.0457205 -0.038752,0.100768 -0.0657598,0.142268zm-1.00356 0.359429c-0.0257953,0.0704528 -0.093437,0.120732 -0.172823,0.120732 -0.101614,0 -0.183988,-0.082374 -0.183988,-0.183988 0,-0.0173504 0.00240945,-0.0341339 0.00690551,-0.0500512 0.102169,0.0544803 0.220953,0.0937835 0.349906,0.113307zm-0.351681 -0.114236c-0.0331102,0.0486063 -0.0888937,0.0805276 -0.152146,0.0805276 -0.101614,0 -0.183988,-0.082374 -0.183988,-0.183988 0,-0.0543622 0.0235866,-0.103209 0.0610748,-0.13689 0.0633858,0.0953228 0.15828,0.177768 0.275059,0.24035zm-0.278161 -0.245122c-0.00607874,0.000610236 0.0256535,0.00092126 -0.0184803,0.00092126 -0.0441339,0 -0.148429,-0.053878 -0.172161,-0.128035l0.11578 -0.0524409c0.0133386,0.0603661 0.0399724,0.125965 0.0748622,0.179555zm0.999886 0.359925c0.000507874,0.00556693 0.000779528,0.0112047 0.000779528,0.0169055 0,0.101614 -0.082374,0.183988 -0.183988,0.183988 -0.101614,0 -0.183988,-0.082374 -0.183988,-0.183988 0,-0.00570079 0.000271654,-0.0113386 0.000779528,-0.0169055 0.0591575,0.00877559 0.120429,0.0133937 0.183209,0.0133937 0.0627795,0 0.124051,-0.00461811 0.183209,-0.0133937z"/>
  <rect class="fil12" x="0.0364567" y="-0.00520866" width="6.82666" height="6.82666"/>
 </g>
</svg>
