<?xml version="1.0" encoding="UTF-8"?>
<!DOCTYPE svg PUBLIC "-//W3C//DTD SVG 1.1//EN" "http://www.w3.org/Graphics/SVG/1.1/DTD/svg11.dtd">
<!-- Creator: CorelDRAW -->
<svg xmlns="http://www.w3.org/2000/svg" xml:space="preserve" width="6.82666in" height="6.82666in" style="shape-rendering:geometricPrecision; text-rendering:geometricPrecision; image-rendering:optimizeQuality; fill-rule:evenodd; clip-rule:evenodd"
viewBox="0 0 6.82666 6.82666"
 xmlns:xlink="http://www.w3.org/1999/xlink">
 <defs>
  <style type="text/css">
   <![CDATA[
    .fil22 {fill:none}
    .fil9 {fill:#212121}
    .fil13 {fill:#37474F}
    .fil0 {fill:#424242}
    .fil12 {fill:#455A64}
    .fil21 {fill:#78909C}
    .fil7 {fill:#A14A4A}
    .fil20 {fill:#B0BEC5}
    .fil16 {fill:#DB830F}
    .fil5 {fill:#DEC3B6}
    .fil14 {fill:#E0E0E0}
    .fil6 {fill:#E35252}
    .fil1 {fill:#EDD0C2}
    .fil18 {fill:#F08D0C}
    .fil4 {fill:#FAFAFA}
    .fil11 {fill:#FF8F00}
    .fil17 {fill:#FF9100}
    .fil3 {fill:#FFA000}
    .fil2 {fill:#FFB300}
    .fil10 {fill:#FFDDCC}
    .fil8 {fill:white}
    .fil19 {fill:#90A4AE;fill-rule:nonzero}
    .fil15 {fill:#757575;fill-opacity:0.501961}
   ]]>
  </style>
 </defs>
 <g id="Layer_x0020_1">
  <metadata id="CorelCorpID_0Corel-Layer"/>
  <path class="fil0" d="M3.76615 1.20305c0.487331,0.00830709 0.841941,0.115972 1.14934,0.643248 0.159256,0.357063 0.392961,1.09425 0.122929,2.11828 0.00288976,-0.199594 -0.120394,-0.280748 -0.274244,-0.378114 0.040622,0.122079 0.186724,0.367547 0.200539,0.612398 0.0110394,0.195823 -0.0861811,0.381811 -0.214618,0.573984 -0.283839,0.424657 -1.46078,0.421012 -1.91056,-0.20137 -0.157205,-0.217465 -0.186492,-0.576465 -0.00565748,-0.84637 -0.228035,0.10122 -0.214472,0.513496 -0.256193,0.425409 -0.0640787,-0.089311 -0.187173,-0.385248 -0.202362,-0.822969 -0.0129921,-0.374524 0.0529921,-0.846291 0.302504,-1.39439 0.204374,-0.443524 0.586252,-0.738634 1.08832,-0.73011z"/>
  <path class="fil1" d="M3.37112 3.85076c-0.905933,0.397185 -1.1777,0.608902 -1.28512,0.703988 -0.165555,0.14648 -0.257118,0.692516 -0.354756,1.15618l2.04969 0 2.04969 0c-0.0976378,-0.463665 -0.18924,-1.00972 -0.354752,-1.15618 -0.107417,-0.0950866 -0.36924,-0.30137 -1.2752,-0.698547l-0.829543 -0.00544094z"/>
  <path class="fil2" d="M3.03021 4.0052c-0.637055,0.29911 -0.851657,0.467642 -0.944209,0.549547 -0.165555,0.14648 -0.257118,0.692516 -0.354756,1.15618l2.04969 0 2.04969 0c-0.0976378,-0.463665 -0.18924,-1.00972 -0.354752,-1.15618 -0.0894567,-0.0791654 -0.286059,-0.235476 -0.872319,-0.514846 -0.00415748,0.00432677 -0.00842126,0.00857087 -0.0125197,0.0129724 -0.550358,0.595295 -1.33002,0.302697 -1.54097,-0.020185 -0.00657874,-0.00935039 -0.0132283,-0.0183071 -0.0198504,-0.0274882z"/>
  <path class="fil3" d="M1.98205 4.71449c-0.104252,0.234862 -0.175736,0.639972 -0.250803,0.996441l0.832055 0c-0.0185748,-0.581559 -0.0196339,-0.890874 -0.581252,-0.996441z"/>
  <path class="fil3" d="M5.57981 4.71449c0.104252,0.234862 0.175736,0.639972 0.250811,0.996441l-0.832091 0c0.0186102,-0.581559 0.0196693,-0.890874 0.58128,-0.996441z"/>
  <path class="fil4" d="M2.63374 5.71094l0.0663425 0c-0.00296457,-0.294862 -0.00296457,-0.507378 -0.00296457,-0.507378 0,0 -0.0293622,0.220854 -0.063378,0.507378z"/>
  <path class="fil4" d="M4.92813 5.71094l-0.0663425 0c0.00296457,-0.294862 0.00299213,-0.507378 0.00299213,-0.507378 0,0 0.029374,0.220854 0.0633504,0.507378z"/>
  <path class="fil5" d="M2.60388 2.44832c0.0820236,-0.0269961 0.186354,0.0660787 0.233098,0.207902 0.0467283,0.141858 0.0180787,0.278717 -0.0639528,0.305744 -0.0820315,0.0269961 -0.186358,-0.0660787 -0.233098,-0.207913 -0.0466969,-0.141815 -0.0180394,-0.278709 0.0639528,-0.305732z"/>
  <path class="fil5" d="M5.00178 2.44832c-0.0820236,-0.0269961 -0.186398,0.0660787 -0.233098,0.207902 -0.0466969,0.141858 -0.0180787,0.278717 0.0639528,0.305744 0.0820315,0.0269961 0.186354,-0.0660787 0.233094,-0.207913 0.0467008,-0.141815 0.0180827,-0.278709 -0.0639488,-0.305732z"/>
  <path class="fil1" d="M4.2629 3.23693l0 1.06306c-0.25611,0.313681 -0.675248,0.302819 -0.931327,0l0 -1.06306c0,-0.574028 0.931327,-0.574028 0.931327,0z"/>
  <path class="fil5" d="M4.26287 3.23693l0 0.711732c-0.176185,0.128437 -0.346051,0.200402 -0.465646,0.200402 -0.119598,0 -0.289465,-0.0719646 -0.46565,-0.200402l0 -0.711732c0,-0.574028 0.931295,-0.574028 0.931295,0z"/>
  <path class="fil1" d="M3.79722 1.32835c-1.56289,0 -1.00084,1.88844 -0.898752,2.03878 0.112559,0.165752 0.646244,0.605169 0.898752,0.605169 0.252504,0 0.78615,-0.439417 0.898705,-0.605169 0.102138,-0.150339 0.664177,-2.03878 -0.898705,-2.03878z"/>
  <path class="fil0" d="M4.81556 2.9406c0,0 -0.101976,-0.556732 -0.337094,-0.876008 -0.170339,0.374669 -0.338551,0.558146 -1.14769,0.748764 0.244933,-0.205484 0.358894,-0.51372 0.370551,-0.680591 -0.523858,0.14439 -0.847429,0.552772 -0.928299,0.829205 -0.245437,-0.427067 -0.0208583,-1.07089 0.148362,-1.31428 0.326598,-0.469701 1.12664,-0.583776 1.60445,-0.156657 0.331543,0.296398 0.46811,0.2305 0.289717,1.44956z"/>
  <path class="fil6" d="M3.4778 3.40844c0.13511,-0.0988346 0.27613,-0.0403661 0.323268,-0.0403661 0.0471654,0 0.180394,-0.0584685 0.315528,0.0403661 -0.0672441,0.271768 -0.537047,0.278626 -0.638795,0z"/>
  <path class="fil7" d="M3.48185 3.40701c0.125425,-0.0442362 0.236291,0.0423819 0.315201,0.0423819 0.0789094,0 0.190067,-0.116315 0.315492,-0.0379646 -0.146976,0.149819 -0.48272,0.141701 -0.630693,-0.00441732z"/>
  <path class="fil8" d="M3.47779 3.40701c0.135134,-0.0557323 0.234555,-0.0153307 0.313472,-0.0153307 0.0789094,0 0.190213,-0.0404016 0.325346,0.0153307 -0.14698,0.0839213 -0.490823,0.0811063 -0.638819,0z"/>
  <path class="fil6" d="M3.47845 3.4075c0.134484,-0.0975512 0.24998,-0.0298622 0.328748,-0.0298622 0.0787874,0 0.173618,-0.0680354 0.308752,0.0307992 -0.000468504,0.00137795 -0.00105512,0.00272441 -0.00155906,0.0040748 -0.172264,-0.00307874 -0.454197,-0.00483071 -0.635941,-0.00501181z"/>
  <path class="fil9" d="M4.29818 2.63509c0.28178,-0.0191299 0.436091,0.0328858 0.464961,0.0436732 0.0347913,0.0130433 0.0267913,0.107161 -0.00266535,0.125906 -0.0294606,0.0187598 -0.0535394,0.093748 -0.123205,0.187492 -0.0447795,0.0602717 -0.201583,0.0857874 -0.339091,0.0926063l0 -0.0263268c0.112409,-0.00519685 0.230146,-0.0253071 0.281362,-0.0605551 0.103945,-0.0715709 0.113846,-0.22389 0.0374921,-0.294787 -0.0400354,-0.0372362 -0.179602,-0.0476024 -0.318854,-0.0409685l0 -0.0270394zm-1.00194 0l0 0 0.0118031 0.000846457c0.289276,0.0214134 0.350894,0.0776654 0.380354,0.075 0.0344606,-0.00313386 0.0716929,-0.00783858 0.106866,-0.00783858 0.0351732,0 0.075,0.00457087 0.110799,0.00783858 0.0294567,0.00266535 0.0910433,-0.0535866 0.380315,-0.075l0.0118031 -0.000846457 0 0.0270394 -0.00143701 8.26772e-005c-0.139752,0.00678346 -0.322035,0.039189 -0.357835,0.119276 -0.0357598,0.0800748 0.032374,0.223205 0.131205,0.258965 0.0448504,0.0162559 0.134618,0.0222598 0.228067,0.0179882l0 0.0263268c-0.0764331,0.00376772 -0.14685,0.00177953 -0.188843,-0.00325591 -0.117823,-0.0141063 -0.20598,-0.156303 -0.222024,-0.199177 -0.0361417,-0.0962756 -0.144067,-0.0962756 -0.180169,0 -0.0160827,0.042874 -0.10424,0.185071 -0.222063,0.199177 -0.0419921,0.00503543 -0.112406,0.00702362 -0.188843,0.00325591l0 -0.0263268c0.0934882,0.00427165 0.183252,-0.00173228 0.228118,-0.0179882 0.0987835,-0.0357598 0.166965,-0.17889 0.131154,-0.258965 -0.0357638,-0.0800866 -0.218083,-0.112492 -0.357799,-0.119276l-0.00147244 -8.26772e-005 0 -0.0270394zm-0.464961 0.0436732l0 0c0.0289055,-0.0107874 0.183217,-0.0628031 0.464961,-0.0436732l0 0.0270394c-0.139201,-0.00668504 -0.278783,0.00377165 -0.318854,0.0409685 -0.076315,0.0708976 -0.0664488,0.223217 0.0374921,0.294787 0.0512165,0.035248 0.168953,0.0553583 0.281362,0.0605551l0 0.0263268c-0.137508,-0.0068189 -0.294311,-0.0323346 -0.339051,-0.0926063 -0.0696575,-0.0937441 -0.093748,-0.168732 -0.123205,-0.187492 -0.0294961,-0.0187441 -0.0374961,-0.112862 -0.00270472,-0.125906z"/>
  <path class="fil10" d="M2.97739 2.7031c0.0402087,-0.0373228 0.180622,-0.047689 0.320327,-0.0408858 0.139717,0.00678346 0.322035,0.039189 0.357799,0.119276 0.035811,0.0800748 -0.0323701,0.223205 -0.131154,0.258965 -0.0988701,0.035811 -0.415697,0.0220157 -0.50948,-0.0425669 -0.103941,-0.0715709 -0.113807,-0.22389 -0.0374921,-0.294787z"/>
  <path class="fil10" d="M4.61704 2.7031c-0.0401575,-0.0373228 -0.180587,-0.047689 -0.320291,-0.0408858 -0.139752,0.00678346 -0.322035,0.039189 -0.357835,0.119276 -0.0357598,0.0800748 0.032374,0.223205 0.131205,0.258965 0.0988189,0.035811 0.415646,0.0220157 0.509429,-0.0425669 0.103945,-0.0715709 0.113846,-0.22389 0.0374921,-0.294787z"/>
  <path class="fil11" d="M3.03083 4.0052c-0.0418976,0.019622 -0.0818858,0.0386693 -0.120272,0.0572047 0.28978,0.410138 1.17798,0.810898 1.78733,0.0211378 -0.029185,-0.0142205 -0.0593268,-0.028748 -0.0906535,-0.0436417 -0.00419685,0.00432677 -0.00845276,0.00857087 -0.0125472,0.0129724 -0.551417,0.595295 -1.33258,0.302697 -1.54398,-0.020185 -0.00657874,-0.00935039 -0.0132598,-0.0183071 -0.019878,-0.0274882z"/>
  <path class="fil0" d="M4.41207 5.26606c0.0497992,0 0.0901654,0.0407047 0.0901654,0.0909173 0,0.0502205 -0.0403661,0.0909213 -0.0901654,0.0909213 -0.0497992,0 -0.0901654,-0.0407008 -0.0901654,-0.0909213 0,-0.0502126 0.0403661,-0.0909173 0.0901654,-0.0909173z"/>
  <path class="fil0" d="M3.1498 5.26606c0.0497953,0 0.0901654,0.0407047 0.0901654,0.0909173 0,0.0502205 -0.0403701,0.0909213 -0.0901654,0.0909213 -0.0497992,0 -0.0901654,-0.0407008 -0.0901654,-0.0909213 0,-0.0502126 0.0403661,-0.0909173 0.0901654,-0.0909173z"/>
  <path class="fil12" d="M2.75533 4.62964l2.05122 0c0.0309961,0 0.0563504,0.0253543 0.0563504,0.0563504l0 1.03467 -2.16392 0 0 -1.03467c0,-0.0309961 0.0253583,-0.0563504 0.0563504,-0.0563504z"/>
  <path class="fil13" d="M2.93873 4.02771c0.0743307,-0.0359961 0.153201,-0.0639331 0.235787,-0.082685l0 0.898189c0,0.0648425 -0.0530433,0.117894 -0.117894,0.117894l0 0c-0.0648504,0 -0.117894,-0.0530512 -0.117894,-0.117894l0 -0.815504z"/>
  <path class="fil13" d="M4.38735 3.93657c0.0814803,0.0149291 0.160476,0.0384094 0.235791,0.0694567l0 0.837189c0,0.0648425 -0.0530472,0.117894 -0.117894,0.117894l0 0c-0.0648504,0 -0.117898,-0.0530512 -0.117898,-0.117894l0 -0.906646z"/>
  <path class="fil9" d="M3.05733 4.74611c0.0511535,0 0.092626,0.0414764 0.092626,0.0926299 0,0.0511496 -0.0414724,0.092626 -0.092626,0.092626 -0.0511535,0 -0.0926299,-0.0414764 -0.0926299,-0.092626 0,-0.0511535 0.0414764,-0.0926299 0.0926299,-0.0926299z"/>
  <path class="fil9" d="M4.50524 4.74611c0.0511535,0 0.0926299,0.0414764 0.0926299,0.0926299 0,0.0511496 -0.0414764,0.092626 -0.0926299,0.092626 -0.0511535,0 -0.092626,-0.0414764 -0.092626,-0.092626 0,-0.0511535 0.0414724,-0.0926299 0.092626,-0.0926299z"/>
  <path class="fil14" d="M3.05733 4.79838c0.00795276,0 0.0143976,0.00644488 0.0143976,0.0144016 0,0.00794882 -0.00644488,0.0143976 -0.0143976,0.0143976 -0.00795276,0 -0.0144016,-0.00644882 -0.0144016,-0.0143976 0,-0.00795669 0.00644882,-0.0144016 0.0144016,-0.0144016z"/>
  <path class="fil14" d="M3.05733 4.8503c0.00795276,0 0.0143976,0.00644488 0.0143976,0.0143976 0,0.00795276 -0.00644488,0.0144016 -0.0143976,0.0144016 -0.00795276,0 -0.0144016,-0.00644882 -0.0144016,-0.0144016 0,-0.00795276 0.00644882,-0.0143976 0.0144016,-0.0143976z"/>
  <path class="fil14" d="M4.50524 4.79838c0.00795276,0 0.0144016,0.00644488 0.0144016,0.0144016 0,0.00794882 -0.00644882,0.0143976 -0.0144016,0.0143976 -0.00795276,0 -0.0143976,-0.00644882 -0.0143976,-0.0143976 0,-0.00795669 0.00644488,-0.0144016 0.0143976,-0.0144016z"/>
  <path class="fil14" d="M4.50524 4.8503c0.00795276,0 0.0144016,0.00644488 0.0144016,0.0143976 0,0.00795276 -0.00644882,0.0144016 -0.0144016,0.0144016 -0.00795276,0 -0.0143976,-0.00644882 -0.0143976,-0.0144016 0,-0.00795276 0.00644488,-0.0143976 0.0143976,-0.0143976z"/>
  <polygon class="fil15" points="4.68431,2.1493 4.55934,2.28722 4.49483,2.31883 3.04147,2.31883 2.97219,2.28187 2.88354,2.17108 2.88354,2.17108 2.73395,2.14483 2.97219,2.44258 3.04147,2.47955 4.49483,2.47955 4.55934,2.44794 4.84792,2.12944 "/>
  <ellipse class="fil16" cx="3.79722" cy="1.43879" rx="0.739572" ry="0.495706"/>
  <path class="fil17" d="M3.92549 1.07446l0 0 -1.1811e-005 0 2.3622e-005 0.00146457 -1.1811e-005 -0.00146457zm0.0362165 -0.115815c0.00937402,0.0211457 0.0143622,0.0440906 0.0143622,0.0676181l0 0.0494685 0 0.509598 0.101945 0 0 -0.404819 0 -1.1811e-005 0 -0.154236c0,-0.0163858 -0.0015315,-0.0325748 -0.00450787,-0.0484173 0.229768,0.0444252 0.410783,0.147839 0.554673,0.283354 0.146933,0.138378 0.253441,0.308878 0.332965,0.482827 0.0116063,0.025378 0.0222244,0.0278819 0.0289961,0.0294685 0.0624173,0.0146496 0.103685,0.0243346 0.103685,0.11474l0 0.0461575 -0.0374331 0.029689 -0.497051 0.394256 -0.0645039 0.0227165 -1.45337 0 -0.0692835 -0.0265669 -0.438921 -0.394256 -0.0326535 -0.0293268 0 -0.0426693c0,-0.163016 0.114252,-0.080185 0.127594,-0.112661 0.075126,-0.182862 0.179768,-0.360783 0.32724,-0.50426 0.144846,-0.140917 0.329449,-0.247906 0.565484,-0.293472 -0.00297638,0.0158465 -0.00451181,0.0320354 -0.00451181,0.0484213l0 0.154201 0 7.87402e-006 0 0.404858 0.101945 0 0 -0.509598 0 -0.0494685c0,-0.0235276 0.00498819,-0.0464724 0.0143583,-0.0676181l0.0388425 -0.00653543 -0.0388386 0.00653543c0.00893307,-0.0201417 0.0218425,-0.0386535 0.0382126,-0.0544803 0.0335551,-0.0324528 0.0787559,-0.0508386 0.12628,-0.0508386 0.0475197,0 0.0927244,0.0183898 0.12628,0.0508386 0.0163701,0.0158268 0.0292795,0.0343386 0.0382087,0.0544803zm-0.292768 0.115815l0 0z"/>
  <path class="fil18" d="M2.62302 1.78142c0.128169,0.117594 0.395433,0.360382 0.436803,0.378567 0.054748,0.0240669 1.34884,0.00962598 1.34884,0.00962598 0,0 0.0995472,-0.0240591 0.124433,-0.043311 0.0197205,-0.0152598 0.319575,-0.259102 0.443157,-0.359634 0.00544882,0.00485039 0.0102283,0.00597638 0.0138858,0.00683465 0.0624173,0.0146496 0.103685,0.0243346 0.103685,0.11474l0 0.0461575 -0.0374331 0.029689 -0.497051 0.394256 -0.0645039 0.0227165 -1.45337 0 -0.0692835 -0.0265669 -0.438921 -0.394256 -0.0326535 -0.0293268 0 -0.0426693c0,-0.149685 0.096315,-0.0921024 0.122406,-0.106823z"/>
  <path class="fil19" d="M2.40148 4.3456l0.00106299 0.00181102 0.00125591 0.00214567c-0.102567,0.152291 -0.391146,0.338185 -0.643689,0.338004l-0.000232283 3.93701e-006m0 0l-3.93701e-006 0 0.00023622 -3.93701e-006c0.252543,0.000181102 0.541122,-0.185713 0.643689,-0.338004l-0.0023189 -0.00395669 0.0023189 0.00395669c-0.102567,0.152291 -0.391146,0.338185 -0.643689,0.338004l-0.00023622 3.93701e-006m0.643925 -0.338008l0.90602 1.54658 0.0452165 0.077189 -0.778575 0 -0.754677 -1.28824c-0.0205669,0.00166142 -0.0411457,0.00247638 -0.0616732,0.00247244l-0.00023622 3.93701e-006c-0.112728,-4.72441e-005 -0.224106,-0.0248701 -0.32576,-0.0723307 -0.135094,-0.0630787 -0.25287,-0.166126 -0.333693,-0.304087 -0.0620512,-0.105921 -0.0955551,-0.220551 -0.102854,-0.33511 -0.00755906,-0.118646 0.0130551,-0.237594 0.0592165,-0.346996l0.0699882 -0.165858 0.0909449 0.155248 0.247484 0.422449 0.367012 -0.00232283 0.181602 -0.319189 -0.247386 -0.422291 -0.0911063 -0.155516 0.178819 0.0200433c0.117732,0.0132008 0.231677,0.0535276 0.331957,0.118461 0.0963661,0.0623858 0.179925,0.147571 0.241854,0.253295 0.0809843,0.138236 0.11337,0.29128 0.102362,0.439579 -0.00792913,0.106843 -0.0382205,0.211346 -0.0889213,0.30624 -0.0121457,0.0227205 -0.0254567,0.0449016 -0.0399134,0.0664213l0.0023189 0.00395669zm-0.643689 0.338004c0.252543,0.000181102 0.541122,-0.185713 0.643689,-0.338004l-0.0023189 -0.00395669 0.0023189 0.00395669c-0.102567,0.152291 -0.391146,0.338185 -0.643689,0.338004l-0.00023622 3.93701e-006 0.00023622 -3.93701e-006z"/>
  <path class="fil20" d="M1.43419 4.61434c-0.135098,-0.0630787 -0.25287,-0.166122 -0.333693,-0.304091 -0.0620512,-0.105917 -0.0955551,-0.220547 -0.102854,-0.335102 -0.00755906,-0.11865 0.0130591,-0.237598 0.0592165,-0.346996l0.0699882 -0.165858 0.0909488 0.155244 0.24748 0.422449 0.367012 -0.00232283 0.181602 -0.319189 -0.247386 -0.422291 -0.0911063 -0.155516 0.178823 0.0200433c0.117728,0.0131969 0.231673,0.0535276 0.331957,0.118457 0.0963661,0.0623898 0.179921,0.147575 0.24185,0.253299 0.0809882,0.138236 0.11337,0.29128 0.102366,0.439579 -0.00793307,0.106843 -0.0382244,0.211346 -0.0889252,0.30624 -0.10624,0.198815 -0.338189,0.357945 -0.568791,0.398398 -0.147197,0.025815 -0.304268,0.000322835 -0.438488,-0.0623425z"/>
  <polygon class="fil21" points="2.74602,5.97333 2.12835,4.85754 2.4044,4.70374 3.13643,5.97333 "/>
  <rect class="fil22" x="0.0364567" y="-0.00520866" width="6.82666" height="6.82666"/>
 </g>
</svg>
