<?xml version="1.0" encoding="UTF-8"?>
<!DOCTYPE svg PUBLIC "-//W3C//DTD SVG 1.1//EN" "http://www.w3.org/Graphics/SVG/1.1/DTD/svg11.dtd">
<!-- Creator: CorelDRAW -->
<svg xmlns="http://www.w3.org/2000/svg" xml:space="preserve" width="6.82666in" height="6.82666in" style="shape-rendering:geometricPrecision; text-rendering:geometricPrecision; image-rendering:optimizeQuality; fill-rule:evenodd; clip-rule:evenodd"
viewBox="0 0 6.82666 6.82666"
 xmlns:xlink="http://www.w3.org/1999/xlink">
 <defs>
  <style type="text/css">
   <![CDATA[
    .fil18 {fill:none}
    .fil11 {fill:#212121}
    .fil10 {fill:#37474F}
    .fil8 {fill:#424242}
    .fil9 {fill:#455A64}
    .fil17 {fill:#78909C}
    .fil2 {fill:#7986CB}
    .fil1 {fill:#9FA8DA}
    .fil16 {fill:#B0BEC5}
    .fil3 {fill:#D4996A}
    .fil6 {fill:#D69B6B}
    .fil5 {fill:#DB830F}
    .fil0 {fill:#DBA070}
    .fil12 {fill:#E0E0E0}
    .fil4 {fill:#E6A875}
    .fil14 {fill:#F08D0C}
    .fil7 {fill:#FAFAFA}
    .fil13 {fill:#FF9100}
    .fil15 {fill:#90A4AE;fill-rule:nonzero}
   ]]>
  </style>
 </defs>
 <g id="Layer_x0020_1">
  <metadata id="CorelCorpID_0Corel-Layer"/>
  <g id="_490490672">
   <path id="_490478000" class="fil0" d="M3.22514 3.6095c-0.957205,0.419661 -1.24435,0.643358 -1.35785,0.743827 -0.174917,0.154772 -0.271665,0.731705 -0.374827,1.22161l2.16568 0 2.16568 0c-0.103165,-0.489906 -0.199953,-1.06686 -0.374831,-1.22161 -0.113496,-0.100469 -0.390138,-0.318425 -1.34737,-0.738079l-0.876484 -0.00574803z"/>
   <path id="_490477688" class="fil1" d="M2.8449 3.76022c-0.690106,0.32402 -0.922583,0.506583 -1.02284,0.595311 -0.179339,0.158681 -0.278528,0.750189 -0.384295,1.25246l2.22038 0.078126 2.22038 0c-0.105772,-0.50228 -0.205,-1.17193 -0.384295,-1.33059 -0.0969055,-0.0857559 -0.309882,-0.255083 -0.944965,-0.55772 -0.00450394,0.00468504 -0.00912205,0.00928346 -0.0135591,0.0140551 -0.596193,0.64487 -1.44078,0.327902 -1.6693,-0.0218661 -0.00712598,-0.0101339 -0.0143307,-0.0198346 -0.0215,-0.0297795z"/>
   <path id="_490477952" class="fil2" d="M5.64086 4.63327c0.110146,0.24815 0.185677,0.676189 0.265004,1.05283l-0.879185 0c0.0196693,-0.614472 0.0207874,-0.941287 0.614181,-1.05283z"/>
   <path id="_490477808" class="fil3" d="M3.20201 3.6164c-0.0324882,0.0142441 -0.0642087,0.0282638 -0.0952559,0.0420827 0.0370157,0.0413819 0.0766299,0.0793228 0.119102,0.112854 0.065378,0.0516142 0.135386,0.0817598 0.210886,0.0988386 0.0711535,0.0161063 0.144012,0.0202992 0.221402,0.0202992 0.0766693,0 0.148559,-0.00372835 0.217961,-0.0189173 0.0750748,-0.0164331 0.144638,-0.0455512 0.209445,-0.0959016 0.0441181,-0.0342717 0.0852008,-0.0733819 0.123528,-0.116232 -0.0273819,-0.0121575 -0.0552402,-0.0244685 -0.083752,-0.0369685l-0.923315 -0.00605512z"/>
   <path id="_490477880" class="fil2" d="M1.65591 4.57777c-0.116035,0.261409 -0.195602,0.712319 -0.279154,1.10908l0.926114 0c-0.0206732,-0.647299 -0.0218543,-0.991579 -0.646961,-1.10908z"/>
   <path id="_490477208" class="fil4" d="M4.5315 2.17587l-0.123035 0.100925 -0.0635079 0.0231339 -1.43085 0 -0.0682126 -0.0270512 -0.0872717 -0.0810669 3.93701e-006 0 -0.147276 -0.0192087c-0.029563,0.028 -0.0546496,0.0615827 -0.0739016,0.0992362 -0.0275157,0.0538189 -0.0432717,0.115492 -0.0432717,0.180402 0,0.0928268 0.0315315,0.178106 0.0832874,0.242992 0.0402126,0.0504055 0.0926457,0.0886929 0.152453,0.10937 0.0455984,0.142496 0.102106,0.302228 0.175291,0.452602 0.085689,0.176063 0.194776,0.340047 0.337201,0.45248 0.0628701,0.0496417 0.130201,0.0786299 0.202803,0.0950551 0.0684331,0.0154882 0.138504,0.0195236 0.212929,0.0195236 0.0737323,0 0.14287,-0.00358661 0.20961,-0.0181969 0.0722047,-0.0157992 0.139102,-0.0438071 0.201429,-0.0922283 0.143606,-0.111559 0.253839,-0.276362 0.340555,-0.45389 0.0738228,-0.151122 0.13074,-0.311953 0.176626,-0.455346 0.059811,-0.0206772 0.112244,-0.0589646 0.152457,-0.109374 0.0517638,-0.0648819 0.0832913,-0.150161 0.0832913,-0.242988 0,-0.0791693 -0.0231732,-0.15313 -0.0623937,-0.213724 -0.0188583,-0.0291339 -0.0414921,-0.0551417 -0.0671378,-0.0771772l-0.161079 0.0145315z"/>
   <ellipse id="_490476992" class="fil5" cx="3.65815" cy="1.45813" rx="0.728117" ry="0.504717"/>
   <path id="_490476872" class="fil6" d="M4.08897 3.33519c-0.286102,0.0763386 -0.618193,0.0639606 -0.861657,0 0.0794488,0.272902 0.709736,0.279531 0.861657,0z"/>
   <path id="_490477112" class="fil7" d="M2.38126 5.68685l0.0738425 0c-0.00329921,-0.328197 -0.00329921,-0.564736 -0.00329921,-0.564736 0,0 -0.0326811,0.245823 -0.0705433,0.564736z"/>
   <path id="_490477448" class="fil7" d="M4.93502 5.68685l-0.0738386 0c0.00329528,-0.328197 0.00332677,-0.564736 0.00332677,-0.564736 0,0 0.0326929,0.245823 0.0705118,0.564736z"/>
   <path id="_490476968" class="fil2" d="M2.79732 3.7883c-0.0466339,0.0218425 -0.0911417,0.0430433 -0.133866,0.0636732 0.322539,0.456504 1.31115,0.902567 1.98937,0.0235276 -0.0324803,-0.0158307 -0.0660276,-0.0319961 -0.100898,-0.0485748 -0.00466929,0.00481496 -0.00940551,0.00953937 -0.0139685,0.0144409 -0.613752,0.662587 -1.48322,0.336909 -1.71852,-0.0224685 -0.00732283,-0.0104094 -0.0147559,-0.020378 -0.022126,-0.0305984z"/>
   <path id="_490476944" class="fil8" d="M4.36063 5.19169c0.0554291,0 0.100358,0.0453071 0.100358,0.101197 0,0.0558937 -0.0449291,0.101201 -0.100358,0.101201 -0.0554252,0 -0.100358,-0.0453071 -0.100358,-0.101201 0,-0.0558898 0.0449331,-0.101197 0.100358,-0.101197z"/>
   <path id="_490476728" class="fil8" d="M2.95567 5.19169c0.0554252,0 0.100358,0.0453071 0.100358,0.101197 0,0.0558937 -0.0449331,0.101201 -0.100358,0.101201 -0.0554291,0 -0.100358,-0.0453071 -0.100358,-0.101201 0,-0.0558898 0.0449291,-0.101197 0.100358,-0.101197z"/>
   <path id="_490477088" class="fil9" d="M2.5166 4.48332l2.2831 0c0.0345,0 0.0627205,0.0282205 0.0627205,0.0627205l0 1.15164 -2.40854 0 0 -1.15164c0,-0.0345 0.0282205,-0.0627205 0.0627205,-0.0627205z"/>
   <path id="_490476800" class="fil10" d="M2.72073 3.81335c0.0827362,-0.0400669 0.170524,-0.0711654 0.262445,-0.0920315l0 0.99972c0,0.0721732 -0.0590433,0.13122 -0.13122,0.13122l0 0c-0.0721811,0 -0.131224,-0.0590472 -0.131224,-0.13122l0 -0.907689z"/>
   <path id="_490492928" class="fil10" d="M4.33311 3.7119c0.090689,0.0166181 0.178618,0.042748 0.262445,0.0773071l0 0.931827c0,0.0721732 -0.0590433,0.13122 -0.13122,0.13122l0 0c-0.0721811,0 -0.131224,-0.0590472 -0.131224,-0.13122l0 -1.00913z"/>
   <path id="_490492952" class="fil11" d="M2.85274 4.61296c0.0569331,0 0.103098,0.0461614 0.103098,0.103098 0,0.0569331 -0.0461654,0.103098 -0.103098,0.103098 -0.056937,0 -0.103098,-0.0461654 -0.103098,-0.103098 0,-0.056937 0.0461614,-0.103098 0.103098,-0.103098z"/>
   <path id="_490492304" class="fil11" d="M4.46433 4.61296c0.0569331,0 0.103098,0.0461614 0.103098,0.103098 0,0.0569331 -0.0461654,0.103098 -0.103098,0.103098 -0.056937,0 -0.103098,-0.0461654 -0.103098,-0.103098 0,-0.056937 0.0461614,-0.103098 0.103098,-0.103098z"/>
   <path id="_490492232" class="fil12" d="M2.85274 4.67113c0.00885039,0 0.0160276,0.00717717 0.0160276,0.0160276 0,0.00885039 -0.00717717,0.0160276 -0.0160276,0.0160276 -0.00885433,0 -0.0160276,-0.00717717 -0.0160276,-0.0160276 0,-0.00885039 0.00717323,-0.0160276 0.0160276,-0.0160276z"/>
   <path id="_490492184" class="fil12" d="M2.85274 4.72893c0.00885039,0 0.0160276,0.00717323 0.0160276,0.0160276 0,0.00885039 -0.00717717,0.0160276 -0.0160276,0.0160276 -0.00885433,0 -0.0160276,-0.00717717 -0.0160276,-0.0160276 0,-0.00885433 0.00717323,-0.0160276 0.0160276,-0.0160276z"/>
   <path id="_490492376" class="fil12" d="M4.46433 4.67113c0.00885039,0 0.0160276,0.00717717 0.0160276,0.0160276 0,0.00885039 -0.00717717,0.0160276 -0.0160276,0.0160276 -0.00885433,0 -0.0160276,-0.00717717 -0.0160276,-0.0160276 0,-0.00885039 0.00717323,-0.0160276 0.0160276,-0.0160276z"/>
   <path id="_490492640" class="fil12" d="M4.46433 4.72893c0.00885039,0 0.0160276,0.00717323 0.0160276,0.0160276 0,0.00885039 -0.00717717,0.0160276 -0.0160276,0.0160276 -0.00885433,0 -0.0160276,-0.00717717 -0.0160276,-0.0160276 0,-0.00885433 0.00717323,-0.0160276 0.0160276,-0.0160276z"/>
   <path id="_490492760" class="fil8" d="M2.72809 2.29172c-0.0222598,0.182331 -0.0132992,0.351972 0.00114961,0.519394l0.0616654 -0.138925c0,0 0.0529646,-0.334031 0.107846,-0.380469 0.0548819,-0.0464409 -0.170661,0 -0.170661,0z"/>
   <path id="_490492544" class="fil8" d="M4.56176 2.29172c0.0222559,0.182331 0.0132953,0.351972 -0.00114961,0.519394l-0.0616654 -0.138925c0,0 -0.0529646,-0.334031 -0.107846,-0.380469 -0.0548858,-0.0464409 0.170661,0 0.170661,0z"/>
   <polygon id="_490492136" class="fil6" points="4.5315,2.18156 4.40846,2.32198 4.34496,2.35417 2.91411,2.35417 2.84589,2.31653 2.75862,2.20374 2.75863,2.20374 2.61135,2.17701 2.84589,2.48017 2.91411,2.51781 4.34496,2.51781 4.40846,2.48562 4.69258,2.16133 "/>
   <path id="_490491344" class="fil13" d="M3.78443 1.08718l0 0 -1.1811e-005 0 2.3622e-005 0.00149213 -1.1811e-005 -0.00149213zm0.0356535 -0.117917c0.00922835,0.0215276 0.0141378,0.0448898 0.0141378,0.0688465l0 0.0503661 0 0.518862 0.100366 0 0 -0.412181 0 -7.87402e-006 0 -0.157039c0,-0.016685 -0.00150787,-0.0331654 -0.00443701,-0.0492992 0.226209,0.0452323 0.404421,0.150528 0.546083,0.288504 0.144657,0.140898 0.249516,0.314496 0.327807,0.491606 0.0114252,0.0258386 0.0218819,0.0283858 0.0285472,0.03 0.0614528,0.0149173 0.102079,0.0247835 0.102079,0.116827l0 0.047 -0.0368504 0.0302283 -0.489354 0.401421 -0.0635079 0.0231299 -1.43085 0 -0.0682126 -0.0270512 -0.432122 -0.401421 -0.0321496 -0.0298622 0 -0.0434449c0,-0.165976 0.11248,-0.0816417 0.125622,-0.114705 0.0739606,-0.186185 0.17698,-0.367346 0.322165,-0.513429 0.142606,-0.14348 0.32435,-0.252413 0.556728,-0.298807 -0.00292913,0.0161339 -0.00444094,0.0326181 -0.00444094,0.0493031l0 0.157 0 1.1811e-005 0 0.412217 0.100366 0 0 -0.518862 0 -0.0503661c0,-0.0239567 0.00490945,-0.0473189 0.0141378,-0.0688465l0.0382362 -0.00665748 -0.0382323 0.00665748c0.00879134,-0.0205118 0.0215,-0.0393583 0.0376181,-0.0554724 0.0330354,-0.0330433 0.0775354,-0.0517638 0.124323,-0.0517638 0.0467835,0 0.0912913,0.0187244 0.124323,0.0517638 0.0161181,0.0161142 0.0288268,0.0349606 0.0376181,0.0554724zm-0.288232 0.117917l0 0z"/>
   <path id="_490491944" class="fil14" d="M2.50213 1.80699c0.126189,0.119728 0.389311,0.366933 0.430039,0.385449 0.0539016,0.0245 1.32795,0.00979921 1.32795,0.00979921 0,0 0.0980039,-0.0244961 0.122504,-0.0440984 0.0194173,-0.0155354 0.314626,-0.263811 0.436295,-0.366169 0.0053622,0.00493701 0.0100669,0.00608268 0.0136693,0.00695276 0.0614528,0.0149173 0.102079,0.0247835 0.102079,0.116827l0 0.047 -0.0368504 0.0302283 -0.489354 0.401421 -0.0635079 0.0231299 -1.43085 0 -0.0682126 -0.0270512 -0.432122 -0.401421 -0.0321496 -0.0298622 0 -0.0434449c0,-0.152402 0.0948228,-0.0937756 0.120508,-0.10876z"/>
   <g>
    <path id="_490491776" class="fil15" d="M2.32624 4.33691l0.00106299 0.00181102 0.00125591 0.00214567c-0.102567,0.152291 -0.391146,0.338185 -0.643689,0.338004l-0.000232283 3.93701e-006m0 0l-3.93701e-006 0 0.00023622 -3.93701e-006c0.252543,0.000181102 0.541122,-0.185713 0.643689,-0.338004l-0.0023189 -0.00395669 0.0023189 0.00395669c-0.102567,0.152291 -0.391146,0.338185 -0.643689,0.338004l-0.00023622 3.93701e-006m0.643925 -0.338008l0.90602 1.54658 0.0452165 0.077189 -0.778575 0 -0.754677 -1.28824c-0.0205669,0.00166142 -0.0411457,0.00247638 -0.0616732,0.00247244l-0.00023622 3.93701e-006c-0.112728,-4.72441e-005 -0.224106,-0.0248701 -0.32576,-0.0723307 -0.135094,-0.0630787 -0.25287,-0.166126 -0.333693,-0.304087 -0.0620512,-0.105921 -0.0955551,-0.220551 -0.102854,-0.33511 -0.00755906,-0.118646 0.0130551,-0.237594 0.0592165,-0.346996l0.0699882 -0.165858 0.0909449 0.155248 0.247484 0.422449 0.367012 -0.00232283 0.181602 -0.319189 -0.247386 -0.422291 -0.0911063 -0.155516 0.178819 0.0200433c0.117732,0.0132008 0.231677,0.0535276 0.331957,0.118461 0.0963661,0.0623858 0.179925,0.147571 0.241854,0.253295 0.0809843,0.138236 0.11337,0.29128 0.102362,0.439579 -0.00792913,0.106843 -0.0382205,0.211346 -0.0889213,0.30624 -0.0121457,0.0227205 -0.0254567,0.0449016 -0.0399134,0.0664213l0.0023189 0.00395669zm-0.643689 0.338004c0.252543,0.000181102 0.541122,-0.185713 0.643689,-0.338004l-0.0023189 -0.00395669 0.0023189 0.00395669c-0.102567,0.152291 -0.391146,0.338185 -0.643689,0.338004l-0.00023622 3.93701e-006 0.00023622 -3.93701e-006z"/>
    <path id="_490491656" class="fil16" d="M1.35894 4.60565c-0.135098,-0.0630787 -0.25287,-0.166122 -0.333693,-0.304091 -0.0620512,-0.105917 -0.0955551,-0.220547 -0.102854,-0.335102 -0.00755906,-0.11865 0.0130591,-0.237598 0.0592165,-0.346996l0.0699882 -0.165858 0.0909488 0.155244 0.24748 0.422449 0.367012 -0.00232283 0.181602 -0.319189 -0.247386 -0.422291 -0.0911063 -0.155516 0.178823 0.0200433c0.117728,0.0131969 0.231673,0.0535276 0.331957,0.118457 0.0963661,0.0623898 0.179921,0.147575 0.24185,0.253299 0.0809882,0.138236 0.11337,0.29128 0.102366,0.439579 -0.00793307,0.106843 -0.0382244,0.211346 -0.0889252,0.30624 -0.10624,0.198815 -0.338189,0.357945 -0.568791,0.398398 -0.147197,0.025815 -0.304268,0.000322835 -0.438488,-0.0623425z"/>
    <polygon id="_490491632" class="fil17" points="2.67078,5.96464 2.05311,4.84885 2.32916,4.69505 3.06119,5.96464 "/>
   </g>
  </g>
  <rect class="fil18" x="0.0364567" y="-0.00520866" width="6.82666" height="6.82666"/>
 </g>
</svg>
