<?xml version="1.0" encoding="UTF-8"?>
<!DOCTYPE svg PUBLIC "-//W3C//DTD SVG 1.1//EN" "http://www.w3.org/Graphics/SVG/1.1/DTD/svg11.dtd">
<!-- Creator: CorelDRAW -->
<svg xmlns="http://www.w3.org/2000/svg" xml:space="preserve" width="6.82666in" height="6.82666in" style="shape-rendering:geometricPrecision; text-rendering:geometricPrecision; image-rendering:optimizeQuality; fill-rule:evenodd; clip-rule:evenodd"
viewBox="0 0 6.82666 6.82666"
 xmlns:xlink="http://www.w3.org/1999/xlink">
 <defs>
  <style type="text/css">
   <![CDATA[
    .fil16 {fill:none}
    .fil9 {fill:#4E342E}
    .fil11 {fill:#795548}
    .fil12 {fill:#FBE9E7}
    .fil10 {fill:#FFAB40}
    .fil8 {fill:#0288D1;fill-rule:nonzero}
    .fil7 {fill:#0C2A48;fill-rule:nonzero}
    .fil4 {fill:#161313;fill-rule:nonzero}
    .fil3 {fill:#424242;fill-rule:nonzero}
    .fil15 {fill:#4E342E;fill-rule:nonzero}
    .fil5 {fill:#795548;fill-rule:nonzero}
    .fil6 {fill:#8D6E63;fill-rule:nonzero}
    .fil0 {fill:#E8BC7B;fill-rule:nonzero}
    .fil1 {fill:#F9CC89;fill-rule:nonzero}
    .fil13 {fill:#FFAB40;fill-rule:nonzero}
    .fil2 {fill:black;fill-rule:nonzero;fill-opacity:0.050980}
    .fil14 {fill:black;fill-rule:nonzero;fill-opacity:0.101961}
   ]]>
  </style>
 </defs>
 <g id="Layer_x0020_1">
  <metadata id="CorelCorpID_0Corel-Layer"/>
  <g id="_490478432">
   <path id="_490481984" class="fil0" d="M2.67641 2.92352c0.0379409,0.182291 -0.00740157,0.345913 -0.101224,0.365449 -0.0938465,0.0195315 -0.200673,-0.112449 -0.238583,-0.294756 -0.0379094,-0.182307 0.0073622,-0.345937 0.101256,-0.365445 0.093815,-0.0195276 0.200594,0.112445 0.238551,0.294752z"/>
   <path id="_490481936" class="fil0" d="M4.18913 2.92352c-0.0379291,0.182291 0.00741339,0.345913 0.101228,0.365449 0.0938425,0.0195315 0.200673,-0.112449 0.238559,-0.294756 0.0380039,-0.182307 -0.00733858,-0.345937 -0.101232,-0.365445 -0.093815,-0.0195276 -0.200594,0.112445 -0.238555,0.294752z"/>
   <path id="_490481888" class="fil1" d="M4.21314 4.34296c-0.152469,-0.0207874 -0.272988,-0.157673 -0.292315,-0.331921l-0.067937 -0.614051 -0.840209 0 -0.0679685 0.614051c-0.0192717,0.174248 -0.139795,0.311134 -0.292264,0.331921 -0.196071,0.026748 0.294295,0.398768 0.780331,0.398909 0.491449,0.000149606 0.978594,-0.37187 0.780362,-0.398909z"/>
   <path id="_490481816" class="fil2" d="M3.02121 4.09514c0.14587,0.127 0.219287,0.197083 0.412697,0.197083 0.191992,0 0.26311,-0.0691181 0.408047,-0.19498 0.0257283,-0.0223386 0.0527244,-0.0483504 0.0802677,-0.0769961 -0.000417323,-0.00309449 -0.00102756,-0.00609055 -0.00139764,-0.00920079l-0.067937 -0.614051 -0.840209 0 -0.0679685 0.614051c-0.000338583,0.00314567 -0.000948819,0.00617717 -0.00138976,0.00930709 0.0267047,0.0277205 0.0528937,0.053 0.0778898,0.0747874z"/>
   <path id="_490481336" class="fil1" d="M4.3325 2.32256c-0.00751181,-0.491264 -0.407756,-0.88587 -0.899075,-0.88587l-0.000271654 0c-0.492106,0 -0.892618,0.394744 -0.900122,0.886772 -0.0053622,0.352516 -0.0103031,0.675874 -0.0103031,0.675917 0,0.344319 0.289406,0.751602 0.498469,0.933654 0.145858,0.12702 0.21928,0.197102 0.412669,0.197102 0.191988,0 0.263087,-0.0691299 0.408067,-0.194972 0.209504,-0.181913 0.500909,-0.590118 0.500909,-0.935783 0,-4.33071e-005 -0.00493307,-0.323957 -0.0103425,-0.676819z"/>
   <path id="_490482056" class="fil3" d="M3.44445 1.87407c0.203165,0.0181102 0.541681,-0.086815 0.749886,0.330642 0.0826614,0.165839 0.103343,0.434563 0.118795,0.46902 0.075315,-0.0723189 0.133492,-0.0510827 0.184744,0.00772441 -0.0478425,-0.708283 -0.0600669,-1.26851 -1.06507,-1.30638 -0.743016,-0.0280039 -1.00564,0.426035 -1.04276,0.974626l-0.0269409 0.33911c0.0814213,-0.0752795 0.144071,-0.0541378 0.187996,0.0153701 0.11861,-0.382594 -0.067748,-0.915693 0.89335,-0.83011z"/>
   <path id="_490481744" class="fil4" d="M3.84841 1.87651c0,0.0895984 -0.185067,0.162217 -0.413327,0.162217 -0.22826,0 -0.413307,-0.0726181 -0.413307,-0.162217 0,-0.0895709 0.185047,-0.162201 0.413307,-0.162201 0.22826,0 0.413327,0.0726299 0.413327,0.162201z"/>
   <path id="_490482032" class="fil4" d="M2.44048 2.03872c0,0 0.135587,-0.729823 0.443528,-0.664886 0,0 0.280752,-0.396709 0.991307,0.0691378 0,0 0.183768,-0.0285039 0.402614,0.10115 0.218795,0.129681 0.182378,0.703386 0.182378,0.703386 0,0 -0.454488,-0.598028 -1.02755,-0.598028 -0.573035,0 -0.99228,0.38924 -0.99228,0.38924z"/>
   <path id="_490480904" class="fil3" d="M2.48694 2.62685c0,0 0.106827,0.062685 0.135075,0.332024l0.0823583 0.0193307c-0.00405906,-0.126571 -0.0985945,-0.524012 -0.0751142,-0.667516l-0.142319 0.316161z"/>
   <path id="_490480736" class="fil3" d="M4.34159 2.64164c0,0 -0.100425,0.0724843 -0.103236,0.34326l-0.0802323 0.0136142c-0.00777559,-0.126394 0.102248,-0.583764 0.065311,-0.724417l0.118157 0.367543z"/>
   <path id="_490481288" class="fil5" d="M4.21314 4.34296c-0.124752,-0.0170118 -0.227969,-0.111732 -0.272039,-0.241024l-0.508291 0.384236 -0.508343 -0.384236c-0.0440315,0.129291 -0.147287,0.224012 -0.27202,0.241024 -0.231122,0.0315118 -1.03418,0.128252 -1.14912,0.263406 -0.185394,0.217988 -0.250031,0.535961 -0.291646,0.841488 -0.00214173,0.0157441 -0.018315,0.452008 -0.0226339,0.535764l4.44856 0c-0.0108976,-0.0980354 -0.0568976,-0.522327 -0.0591181,-0.538591 -0.0407244,-0.298051 -0.10365,-0.607646 -0.279433,-0.824413 -0.115622,-0.142591 -0.84678,-0.245047 -1.08592,-0.277654z"/>
   <polygon id="_490481144" class="fil6" points="3.28744,5.98362 3.3281,4.4953 3.53742,4.4953 3.57813,5.98362 "/>
   <path id="_490480592" class="fil7" d="M3.22149 2.82163c0,-0.0583465 0.0236575,-0.111169 0.0618976,-0.149406 0.0382402,-0.0382362 0.0910787,-0.0618898 0.149421,-0.0618898 0.0582441,0 0.111051,0.0236693 0.149335,0.061937l4.72441e-005 -4.72441e-005c0.0382283,0.0382323 0.061878,0.0910591 0.061878,0.149406l-0.047063 0c0,-0.0453543 -0.0183819,-0.0864173 -0.0480906,-0.11613l0 -9.44882e-005c-0.0296535,-0.0296614 -0.0707047,-0.0480079 -0.116106,-0.0480079 -0.0453543,0 -0.0864252,0.0183858 -0.116146,0.0481024 -0.0297205,0.0297165 -0.0481102,0.0707795 -0.0481102,0.11613l-0.047063 0z"/>
   <path id="_490481120" class="fil3" d="M3.43278 3.42021c0,-0.0122047 0.00686614,-0.0237047 0.0185197,-0.0310748 0.0116811,-0.00737402 0.0267913,-0.00977559 0.0409094,-0.00648031 0.111909,0.0260945 0.276563,0.0684016 0.334059,0.13139 3.14961e-005,2.3622e-005 3.14961e-005,5.11811e-005 5.90551e-005,5.90551e-005 0.0157323,0.0172205 0.0242441,0.0379921 0.0245669,0.0596378 0.000417323,0.0273898 0.0288031,0.239079 -0.0256929,0.239079 -0.00854331,-0.037185 0.00356299,-0.168063 -0.123874,-0.226406 -0.0292283,-0.0155315 -0.0649449,-0.0202244 -0.098374,-0.0128425 -0.0303189,0.00671654 -0.0836811,0.00900787 -0.119315,0.0115591 -0.0130591,0.000940945 -0.0259764,-0.00273622 -0.0356614,-0.0101102 -0.00964961,-0.00738189 -0.0151969,-0.0178189 -0.0151969,-0.0287362l0 -0.126075z"/>
   <path id="_490481312" class="fil3" d="M3.43278 3.42021c0,-0.0122047 -0.00686614,-0.0237047 -0.0185197,-0.0310748 -0.0116811,-0.00737402 -0.0267913,-0.00977559 -0.0409094,-0.00648031 -0.111909,0.0260945 -0.276563,0.0684016 -0.334059,0.13139 -3.14961e-005,2.3622e-005 -3.14961e-005,5.11811e-005 -5.90551e-005,5.90551e-005 -0.0157323,0.0172205 -0.0242441,0.0379921 -0.0245669,0.0596378 -0.000417323,0.0273898 -0.0288031,0.239079 0.0256929,0.239079 0.00854331,-0.037185 -0.00356299,-0.168063 0.123874,-0.226406 0.0292283,-0.0155315 0.0649449,-0.0202244 0.098374,-0.0128425 0.0303189,0.00671654 0.0836811,0.00900787 0.119315,0.0115591 0.0130591,0.000940945 0.0259764,-0.00273622 0.0356614,-0.0101102 0.00964961,-0.00738189 0.0151969,-0.0178189 0.0151969,-0.0287362l0 -0.126075z"/>
   <path id="_490481048" class="fil8" d="M3.32879 2.89881c-0.0681142,0.108508 -0.187217,0.174366 -0.31535,0.174366 -0.181157,0 -0.335996,-0.13039 -0.366835,-0.30889 -0.00643307,-0.0372795 0.00227165,-0.0755276 0.024185,-0.106319 0.0219173,-0.0307795 0.0552047,-0.0515315 0.0924961,-0.0576417l0.00403937 -0.000661417c0.150339,-0.0246417 0.303417,-0.027937 0.454681,-0.00978346 0.0607047,0.00728346 0.113457,0.0451299 0.139803,0.100311 0.0263661,0.0551732 0.0226181,0.119996 -0.00988189,0.171787l-0.0231378 0.0368307z"/>
   <path id="_490479968" class="fil8" d="M4.18619 2.89882c-0.0681102,0.108496 -0.187193,0.174354 -0.315303,0.174354l-5.11811e-005 0c-0.181157,0 -0.335988,-0.13039 -0.366827,-0.30889 -0.00644094,-0.0372795 0.00227165,-0.0755276 0.024185,-0.106319 0.0219094,-0.0307795 0.0551969,-0.0515315 0.0924961,-0.0576417l0.0040315 -0.000661417c0.150339,-0.0246417 0.303421,-0.027937 0.454665,-0.00978346 0.060748,0.00728346 0.113504,0.0451299 0.139846,0.100327 0.0263386,0.0551732 0.0225984,0.119996 -0.00990157,0.171772l-0.0231417 0.0368425z"/>
   <path id="_490480064" class="fil6" d="M4.65981 1.91499c0.0462244,0.0388071 0.0712323,0.0800079 0.0712323,0.121386 0,0.107126 -0.19735,0.25063 -0.507437,0.340091 -0.21724,0.0626732 -0.495567,0.109492 -0.797445,0.109492 -0.301878,0 -0.580205,-0.0468189 -0.797445,-0.109492 -0.310091,-0.0894606 -0.507441,-0.232965 -0.507441,-0.340091 0,-0.041378 0.0250118,-0.0825787 0.0712323,-0.121386l2.4673 0z"/>
   <rect id="_490479896" class="fil9" x="2.19241" y="1.75618" width="2.4675" height="0.159686"/>
   <rect id="_490480112" class="fil10" x="2.19241" y="1.84353" width="2.4675" height="0.0723298"/>
   <path id="_490480016" class="fil11" d="M3.4183 0.843039c0.759008,0 1.2351,0.476909 1.37431,0.754567 0.0682126,0.136043 -0.0226063,0.173594 -0.134177,0.173594l-2.46942 0c-0.113248,0 -0.17576,-0.0562087 -0.14502,-0.173594 0.0694409,-0.265079 0.615299,-0.754567 1.37431,-0.754567z"/>
   <ellipse id="_490480328" class="fil12" cx="3.42616" cy="1.44021" rx="0.172062" ry="0.166393"/>
   <path id="_490480280" class="fil13" d="M3.42616 1.23161c0.0594094,0 0.113224,0.0233189 0.152197,0.0610039 0.0390669,0.0377756 0.0632283,0.0899685 0.0632283,0.147598 0,0.0576299 -0.0241654,0.109823 -0.0632323,0.147598 -0.0389685,0.037685 -0.0927874,0.0610039 -0.152193,0.0610039 -0.0594055,0 -0.11322,-0.0233189 -0.152193,-0.0610039 -0.039063,-0.0377795 -0.0632323,-0.0899724 -0.0632323,-0.147598 0,-0.0576339 0.0241693,-0.109827 0.0632283,-0.147598 0.0389724,-0.037685 0.0927913,-0.0610039 0.152197,-0.0610039zm0.140677 0.0729803c-0.0359724,-0.0347874 -0.0857126,-0.056311 -0.140677,-0.056311 -0.0549606,0 -0.104705,0.0215236 -0.140677,0.056311 -0.035878,0.0346969 -0.0580787,0.0826535 -0.0580787,0.135622 0,0.0529685 0.0222008,0.100917 0.0580827,0.135622 0.0359724,0.0347874 0.0857126,0.056311 0.140673,0.056311 0.0549606,0 0.104701,-0.0215236 0.140673,-0.056311 0.0358819,-0.0346969 0.0580827,-0.0826535 0.0580827,-0.135622 0,-0.0529685 -0.0221969,-0.100925 -0.0580787,-0.135622z"/>
   <polygon id="_490479176" class="fil14" points="3.64804,4.96803 3.43276,4.48618 3.9411,4.20323 4.21309,4.34296 "/>
   <polygon id="_490479104" class="fil14" points="3.21754,4.96803 3.43276,4.48618 2.92447,4.20323 2.65245,4.34296 "/>
   <polygon id="_490479536" class="fil15" points="3.64804,4.86675 3.43276,4.48618 3.9411,4.10194 4.21309,4.34296 "/>
   <polygon id="_490479512" class="fil15" points="3.21748,4.86675 3.43276,4.48618 2.92447,4.10194 2.65245,4.34296 "/>
   <path id="_490479728" class="fil9" d="M4.39114 4.52455l0.0438228 -0.159638c0.181717,0.0259291 0.406839,0.0618543 0.586331,0.105878l-0.0843189 0.149594 -0.545835 -0.0958346z"/>
   <ellipse id="_490479056" class="fil10" cx="4.56198" cy="4.43601" rx="0.0746201" ry="0.043748"/>
   <ellipse id="_490479680" class="fil10" cx="4.72448" cy="4.46101" rx="0.0746201" ry="0.043748"/>
   <g>
    <path id="_490479248" class="fil9" d="M2.43228 4.52455l-0.0438228 -0.159638c-0.181717,0.0259291 -0.406839,0.0618543 -0.586331,0.105878l0.0843189 0.149594 0.545835 -0.0958346z"/>
    <ellipse id="_490479656" class="fil10" cx="2.26144" cy="4.43601" rx="0.0746201" ry="0.043748"/>
    <ellipse id="_490478720" class="fil10" cx="2.09894" cy="4.46101" rx="0.0746201" ry="0.043748"/>
    <ellipse id="_490478648" class="fil10" cx="1.94165" cy="4.4933" rx="0.0746201" ry="0.043748"/>
   </g>
   <ellipse id="_490478984" class="fil10" cx="4.88177" cy="4.4933" rx="0.0746201" ry="0.043748"/>
   <rect id="_490478528" class="fil9" x="4.02287" y="5.4093" width="0.920835" height="0.145835"/>
  </g>
  <rect class="fil16" x="0.0364567" y="-0.00520866" width="6.82666" height="6.82666"/>
 </g>
</svg>
