<?xml version="1.0" encoding="UTF-8"?>
<!DOCTYPE svg PUBLIC "-//W3C//DTD SVG 1.1//EN" "http://www.w3.org/Graphics/SVG/1.1/DTD/svg11.dtd">
<!-- Creator: CorelDRAW -->
<svg xmlns="http://www.w3.org/2000/svg" xml:space="preserve" width="6.82666in" height="6.82666in" style="shape-rendering:geometricPrecision; text-rendering:geometricPrecision; image-rendering:optimizeQuality; fill-rule:evenodd; clip-rule:evenodd"
viewBox="0 0 6.82666 6.82666"
 xmlns:xlink="http://www.w3.org/1999/xlink">
 <defs>
  <style type="text/css">
   <![CDATA[
    .fil15 {fill:none}
    .fil3 {fill:#424242}
    .fil2 {fill:#616161}
    .fil1 {fill:#757575}
    .fil4 {fill:#B71C1C}
    .fil5 {fill:#C48D60}
    .fil6 {fill:#CF976A}
    .fil7 {fill:#D32F2F}
    .fil0 {fill:#E6A875}
    .fil9 {fill:#EF5350}
    .fil13 {fill:#00897B;fill-rule:nonzero}
    .fil10 {fill:#4DB6AC;fill-rule:nonzero}
    .fil12 {fill:#80CBC4;fill-rule:nonzero}
    .fil8 {fill:#B71C1C;fill-rule:nonzero}
    .fil11 {fill:#D50000;fill-rule:nonzero}
    .fil14 {fill:#26A69A;fill-rule:nonzero;fill-opacity:0.411765}
   ]]>
  </style>
 </defs>
 <g id="Layer_x0020_1">
  <metadata id="CorelCorpID_0Corel-Layer"/>
  <path class="fil0" d="M3.47869 4.12803c-0.902256,0.395531 -1.17289,0.606402 -1.2799,0.701098 -0.164878,0.145894 -0.256067,0.689697 -0.353307,1.15143l2.04131 0 2.04131 0c-0.0972717,-0.461736 -0.188469,-1.00554 -0.353335,-1.15143 -0.106984,-0.0946969 -0.367732,-0.300126 -1.26996,-0.695709l-0.82611 -0.00538976z"/>
  <path class="fil1" d="M3.12772 4.25583c-0.64415,0.302445 -0.861146,0.472854 -0.95474,0.555669 -0.167386,0.148118 -0.25998,0.700232 -0.358736,1.16906l2.07252 0 2.07255 0c-0.0987559,-0.468831 -0.191343,-1.02097 -0.358736,-1.16906 -0.0904134,-0.0800433 -0.289209,-0.238094 -0.882008,-0.520579 -0.00423228,0.00437402 -0.0100551,0.00746457 -0.0126496,0.0131181 -0.161461,0.353531 -0.446256,0.555079 -0.741874,0.655496 -0.409787,-0.0803543 -0.761669,-0.397996 -0.816272,-0.675909 -0.00665354,-0.00945276 -0.013378,-0.0185079 -0.0200591,-0.0277953z"/>
  <path class="fil2" d="M3.12772 4.25583c-0.0609449,0.0286063 -0.118059,0.0560315 -0.171598,0.0823189 0.15578,0.324508 0.440504,0.651406 1.00793,0.780039 0.492862,-0.148417 0.751531,-0.450181 0.900307,-0.756437 -0.0457756,-0.0226929 -0.0942441,-0.0462874 -0.145783,-0.0708307 -0.00423228,0.00437402 -0.0100551,0.00746457 -0.0126496,0.0131181 -0.161461,0.353531 -0.446256,0.555079 -0.741874,0.655496 -0.409787,-0.0803543 -0.761669,-0.397996 -0.816272,-0.675909 -0.00665354,-0.00945276 -0.013378,-0.0185079 -0.0200591,-0.0277953z"/>
  <path class="fil3" d="M4.53434 2.05393c0.19237,0 0.349264,-0.156894 0.349264,-0.349264 0,-0.192331 -0.156894,-0.349224 -0.349264,-0.349224 -0.192331,0 -0.349224,0.156894 -0.349224,0.349224 0,0.19237 0.156894,0.349264 0.349224,0.349264z"/>
  <path class="fil4" d="M4.19113 1.90036c0.192374,0 0.349224,-0.15689 0.349224,-0.349232 0,-0.19237 -0.15685,-0.349252 -0.349224,-0.349252 -0.19237,0 -0.34922,0.156882 -0.34922,0.349252 0,0.192343 0.15685,0.349232 0.34922,0.349232z"/>
  <path class="fil4" d="M3.66725 1.84617c0.19237,0 0.349224,-0.156882 0.349224,-0.349252 0,-0.192339 -0.156854,-0.349232 -0.349224,-0.349232 -0.19237,0 -0.349224,0.156894 -0.349224,0.349232 0,0.19237 0.156854,0.349252 0.349224,0.349252z"/>
  <path class="fil3" d="M3.19757 2.0178c0.19237,0 0.349252,-0.156882 0.349252,-0.349252 0,-0.19237 -0.156882,-0.349232 -0.349252,-0.349232 -0.192343,0 -0.349232,0.156862 -0.349232,0.349232 0,0.19237 0.15689,0.349252 0.349232,0.349252z"/>
  <path class="fil3" d="M2.9266 2.40617c0.19237,0 0.34926,-0.15685 0.34926,-0.349224 0,-0.19237 -0.15689,-0.34926 -0.34926,-0.34926 -0.192335,0 -0.349256,0.15689 -0.349256,0.34926 0,0.192374 0.156921,0.349224 0.349256,0.349224z"/>
  <path class="fil3" d="M4.83241 2.4152c0.19237,0 0.349224,-0.156854 0.349224,-0.349224 0,-0.19237 -0.156854,-0.34926 -0.349224,-0.34926 -0.19237,0 -0.349224,0.15689 -0.349224,0.34926 0,0.19237 0.156854,0.349224 0.349224,0.349224z"/>
  <path class="fil3" d="M4.85047 2.90295c0.19237,0 0.349224,-0.156886 0.349224,-0.349256 0,-0.192339 -0.156854,-0.349232 -0.349224,-0.349232 -0.19237,0 -0.34922,0.156894 -0.34922,0.349232 0,0.19237 0.15685,0.349256 0.34922,0.349256z"/>
  <path class="fil3" d="M4.59756 3.49004c0.19237,0 0.349264,-0.156894 0.349264,-0.349224 0,-0.19237 -0.156894,-0.349264 -0.349264,-0.349264 -0.192331,0 -0.349224,0.156894 -0.349224,0.349264 0,0.192331 0.156894,0.349224 0.349224,0.349224z"/>
  <path class="fil3" d="M2.8995 2.84876c0.19237,0 0.349264,-0.156894 0.349264,-0.349224 0,-0.19237 -0.156894,-0.34926 -0.349264,-0.34926 -0.19237,0 -0.349252,0.15689 -0.349252,0.34926 0,0.192331 0.156882,0.349224 0.349252,0.349224z"/>
  <path class="fil3" d="M3.15242 3.53524c0.19237,0 0.34922,-0.15689 0.34922,-0.34926 0,-0.192374 -0.15685,-0.349236 -0.34922,-0.349236 -0.192374,0 -0.349224,0.156862 -0.349224,0.349236 0,0.19237 0.15685,0.34926 0.349224,0.34926z"/>
  <path class="fil3" d="M4.80032 3.23659c0.19237,0 0.34926,-0.156854 0.34926,-0.349224 0,-0.19237 -0.15689,-0.349224 -0.34926,-0.349224 -0.192331,0 -0.349224,0.156854 -0.349224,0.349224 0,0.19237 0.156894,0.349224 0.349224,0.349224z"/>
  <path class="fil3" d="M2.9502 3.21205c0.19237,0 0.34922,-0.156894 0.34922,-0.349264 0,-0.19237 -0.15685,-0.349224 -0.34922,-0.349224 -0.19237,0 -0.349264,0.156854 -0.349264,0.349224 0,0.19237 0.156894,0.349264 0.349264,0.349264z"/>
  <path class="fil0" d="M4.32486 3.33957l0 1.00011c-0.240957,0.295106 -0.635201,0.28489 -0.876154,0l0 -1.00011c0,-0.540039 0.876154,-0.540039 0.876154,0z"/>
  <path class="fil5" d="M4.32486 3.29007l0 0.73922c-0.0905197,0.0702559 -0.191181,0.11611 -0.298366,0.109146 -0.0766811,-0.00498819 -0.242894,-0.0110472 -0.318012,-0.0162795 -0.0918583,-0.00639764 -0.179504,-0.0496654 -0.259772,-0.110898l0 -0.721189c0,-0.540035 0.87615,-0.540035 0.87615,0z"/>
  <path class="fil0" d="M3.88678 1.544c-1.47034,0 -0.941579,1.77662 -0.845531,1.91803 0.0887323,0.130677 0.353461,0.582315 0.667224,0.604161 0.0751142,0.00523228 0.241331,0.0112953 0.318012,0.0162835 0.338425,0.0219961 0.611969,-0.482248 0.705831,-0.620445 0.0960472,-0.141409 0.62478,-1.91803 -0.845535,-1.91803z"/>
  <path class="fil0" d="M2.76727 2.6934c0.0771339,-0.0253937 0.175319,0.0621693 0.219252,0.195606 0.043937,0.133425 0.0170118,0.262201 -0.0601614,0.28763 -0.0771378,0.0253937 -0.175323,-0.0621693 -0.219256,-0.195594 -0.0439331,-0.133457 -0.0170118,-0.262213 0.0601654,-0.287642z"/>
  <path class="fil0" d="M5.02315 2.6934c-0.0771732,-0.0253937 -0.175331,0.0621693 -0.219295,0.195606 -0.0439331,0.133425 -0.0170079,0.262201 0.0601575,0.28763 0.0771732,0.0253937 0.175358,-0.0621693 0.219295,-0.195594 0.0439331,-0.133457 0.0170079,-0.262213 -0.0601575,-0.287642z"/>
  <path class="fil3" d="M3.76659 2.14424c0.19237,0 0.349264,-0.156854 0.349264,-0.349224 0,-0.19237 -0.156894,-0.34926 -0.349264,-0.34926 -0.192331,0 -0.34922,0.15689 -0.34922,0.34926 0,0.19237 0.15689,0.349224 0.34922,0.349224z"/>
  <path class="fil3" d="M4.24531 2.12617c0.19237,0 0.349264,-0.156894 0.349264,-0.349224 0,-0.19237 -0.156894,-0.349264 -0.349264,-0.349264 -0.19237,0 -0.349224,0.156894 -0.349224,0.349264 0,0.192331 0.156854,0.349224 0.349224,0.349224z"/>
  <path class="fil3" d="M3.41435 2.25264c0.19237,0 0.349252,-0.156894 0.349252,-0.349264 0,-0.192358 -0.156882,-0.34922 -0.349252,-0.34922 -0.192374,0 -0.349236,0.156862 -0.349236,0.34922 0,0.19237 0.156862,0.349264 0.349236,0.349264z"/>
  <path class="fil3" d="M3.15444 2.37413c0.163654,0 0.297083,-0.133469 0.297083,-0.297083 0,-0.163642 -0.133429,-0.297067 -0.297083,-0.297067 -0.163642,0 -0.297071,0.133425 -0.297071,0.297067 0,0.163614 0.133429,0.297083 0.297071,0.297083z"/>
  <path class="fil3" d="M4.52531 2.34295c0.19237,0 0.349264,-0.15685 0.349264,-0.34922 0,-0.192374 -0.156894,-0.349264 -0.349264,-0.349264 -0.19237,0 -0.34926,0.15689 -0.34926,0.349264 0,0.19237 0.15689,0.34922 0.34926,0.34922z"/>
  <path class="fil3" d="M4.80884 2.57976c0.135705,0 0.246354,-0.110669 0.246354,-0.246346 0,-0.135705 -0.11065,-0.246354 -0.246354,-0.246354 -0.135673,0 -0.246358,0.11065 -0.246358,0.246354 0,0.135677 0.110685,0.246346 0.246358,0.246346z"/>
  <path class="fil3" d="M2.99637 2.62703c0.131331,0 0.238406,-0.107087 0.238406,-0.238374 0,-0.131291 -0.107075,-0.238374 -0.238406,-0.238374 -0.131287,0 -0.238374,0.107083 -0.238374,0.238374 0,0.131287 0.107087,0.238374 0.238374,0.238374z"/>
  <path class="fil3" d="M2.9467 2.78963c0.0840354,0 0.152575,-0.0685551 0.152575,-0.152587 0,-0.084063 -0.0685394,-0.152575 -0.152575,-0.152575 -0.0840354,0 -0.152575,0.0685118 -0.152575,0.152575 0,0.0840315 0.0685394,0.152587 0.152575,0.152587z"/>
  <path class="fil3" d="M4.8525 2.80768c0.0840354,0 0.152587,-0.0685394 0.152587,-0.152575 0,-0.0840354 -0.0685512,-0.152575 -0.152587,-0.152575 -0.0840236,0 -0.152575,0.0685394 -0.152575,0.152575 0,0.0840354 0.0685512,0.152575 0.152575,0.152575z"/>
  <path class="fil3" d="M2.96476 2.92509c0.0591811,0 0.107421,-0.048248 0.107421,-0.107429 0,-0.0591378 -0.0482402,-0.107382 -0.107421,-0.107382 -0.0591496,0 -0.10739,0.0482441 -0.10739,0.107382 0,0.0591811 0.0482402,0.107429 0.10739,0.107429z"/>
  <path class="fil3" d="M4.83444 2.91606c0.0591772,0 0.107429,-0.0482402 0.107429,-0.107421 0,-0.0591378 -0.048252,-0.10739 -0.107429,-0.10739 -0.0591417,0 -0.107382,0.048252 -0.107382,0.10739 0,0.0591811 0.0482402,0.107421 0.107382,0.107421z"/>
  <path class="fil6" d="M3.41537 3.49746c0.123346,0.0635394 0.819488,0.0600394 0.942835,0 -0.107185,0.334319 -0.800685,0.344594 -0.942835,0z"/>
  <path class="fil3" d="M2.67736 5.98056l0.0699409 0c-0.00312205,-0.310854 -0.00316142,-0.534902 -0.00316142,-0.534902 0,0 -0.0309646,0.232835 -0.0667795,0.534902z"/>
  <path class="fil3" d="M5.0962 5.98056l-0.0699409 0c0.00312598,-0.310854 0.00312598,-0.534902 0.00312598,-0.534902 0,0 0.0309646,0.232835 0.066815,0.534902z"/>
  <path class="fil7" d="M3.89155 0.928969c0.472535,-0.00346063 1.20387,0.342598 1.32754,1.04034l-2.63353 0c0.0302717,-0.603642 0.811039,-1.03672 1.30599,-1.04034z"/>
  <path class="fil8" d="M3.89031 0.960724c-0.140787,0.0521299 -0.276118,0.124079 -0.396913,0.248681 -0.121079,0.124886 -0.227933,0.303012 -0.311654,0.567547l-0.0298071 -0.00994882c0.0853819,-0.26978 0.194902,-0.451996 0.319264,-0.580276 0.124642,-0.128571 0.26387,-0.202657 0.408567,-0.256236l0.0105433 0.0302323z"/>
  <path class="fil8" d="M3.89031 0.960724c0.140787,0.0521299 0.276122,0.124079 0.396917,0.248681 0.121075,0.124886 0.227933,0.303012 0.31165,0.567547l0.029811 -0.00994882c-0.0853819,-0.26978 -0.194902,-0.451996 -0.319264,-0.580276 -0.124646,-0.128571 -0.26387,-0.202657 -0.408567,-0.256236l-0.0105472 0.0302323z"/>
  <ellipse class="fil4" cx="3.88504" cy="0.945212" rx="0.149138" ry="0.0854772"/>
  <path class="fil9" d="M5.193 2.05697c-0.0411693,0.133992 -0.108571,0.307012 -0.307736,0.352957 -0.212587,0.0490433 -0.711406,-0.122717 -0.975756,-0.122717 -0.277835,0 -0.686291,0.153272 -0.905906,0.0995079 -0.220846,-0.054063 -0.33774,-0.231272 -0.398882,-0.372476 -0.0181496,-0.0419094 -0.0349331,-0.048622 0.00700394,-0.0745906 0.52252,-0.323559 1.91216,-0.346878 2.60485,0.0159528 0.00820472,0.0181299 -0.0123307,0.0647638 -0.0235709,0.101366z"/>
  <path class="fil10" d="M0.91474 3.95662c-0.0245315,0.169008 0.0925787,0.325902 0.261598,0.350433 0.169004,0.0245315 0.325902,-0.0925866 0.350433,-0.261594 0.0245315,-0.169004 -0.0925906,-0.325902 -0.261594,-0.350433 -0.16902,-0.0245315 -0.325906,0.0925906 -0.350437,0.261594z"/>
  <path class="fil11" d="M0.838717 4.78281c-0.0162677,0.036752 0.000488189,0.080248 0.0372953,0.0965354l0.034937 0.0155039c0.0367677,0.0162677 0.0802047,-0.000472441 0.0965118,-0.0372323l0.74087 -1.67085c0.0162677,-0.036752 -0.000468504,-0.0802362 -0.0372362,-0.0965669l-0.0349764 -0.0154685c-0.0367362,-0.0163071 -0.0802559,0.000480315 -0.0965354,0.0372362l-0.740866 1.67084z"/>
  <path class="fil11" d="M2.45037 4.89784c-0.0195827,0.0441654 0.000492126,0.0963583 0.0446299,0.115921l0.482236 0.213803c0.0441614,0.0195669 0.0963543,-0.000555118 0.115902,-0.0447244l0.289654 -0.653248c0.0195827,-0.0441693 -0.000523622,-0.0962913 -0.0447008,-0.115882l-0.482201 -0.213815c-0.0441732,-0.0195591 -0.0962953,0.00053937 -0.115886,0.0447087l-0.289634 0.653236z"/>
  <path class="fil10" d="M3.37551 4.54604c0.111685,0.0866063 0.155614,0.241169 0.0959173,0.375756l-0.0341496 0.0769409c-0.0596378,0.134575 -0.203685,0.205862 -0.342819,0.181217l0.281051 -0.633913z"/>
  <path class="fil12" d="M2.73999 4.24468l-0.293953 0.662945c-0.660256,-0.233933 -1.23128,-0.133094 -1.42244,-0.0864252l0.707909 -1.59661c0.0945039,0.182437 0.39989,0.688382 1.00848,1.02009z"/>
  <path class="fil10" d="M1.22195 4.37382c0.560016,-0.117776 1.22053,0.176315 1.35435,0.240031l-0.13026 0.293772c-0.660256,-0.233933 -1.23128,-0.133094 -1.42244,-0.0864252l0.198354 -0.447378z"/>
  <path class="fil13" d="M3.00241 5.23871c-0.00158661,0.00264567 -0.00263386,0.00566929 -0.00479921,0.00805906l-0.0992165 0.108469c-0.0160591,0.0175197 -0.0433622,0.0188622 -0.0612244,0.00319685l-0.256028 0.602516 -0.00963386 0.021748 -0.0172283 0.0388071c-0.00977559,0.0220551 -0.0358622,0.0320866 -0.057874,0.0223465l-0.276941 -0.122811c-0.0220079,-0.00977953 -0.0320984,-0.0358543 -0.0223465,-0.0578858l0.0268976 -0.0605472c0.00972047,-0.0220433 0.0368858,-0.0316102 0.057874,-0.0223504 0,0 0.0894291,-0.158665 0.12185,-0.231846 0.0408386,-0.0920394 0.149157,-0.336343 0.184874,-0.416957l-0.0706575 -0.0646535c-0.0136378,-0.0124528 -0.0174134,-0.0316024 -0.0113031,-0.0478898l0.495756 0.219799z"/>
  <path class="fil14" d="M2.73872 5.1218l0.263685 0.116913c-0.00158661,0.00264567 -0.00263386,0.00566929 -0.00479921,0.00805906l-0.0992165 0.108469c-0.0160591,0.0175197 -0.0433622,0.0188622 -0.0612244,0.00319685l-0.256028 0.602516 -0.00963386 0.021748 -0.0172283 0.0388071c-0.00977559,0.0220551 -0.0358622,0.0320866 -0.057874,0.0223465l-0.139953 -0.0620669 0.382272 -0.859988z"/>
  <path class="fil8" d="M3.21978 4.89729l-0.126638 0.285551c-0.0195472,0.0441693 -0.0717402,0.0642913 -0.115902,0.0447244l-0.482236 -0.213803c-0.0441378,-0.019563 -0.0642126,-0.0717559 -0.0446299,-0.115921l0.126606 -0.285539 0.642799 0.284988z"/>
  <path class="fil8" d="M1.3562 4.07103l-0.348744 0.786587c-0.0163071,0.0367598 -0.0597441,0.0535 -0.0965118,0.0372323l-0.034937 -0.0155039c-0.0368071,-0.0162874 -0.053563,-0.0597835 -0.0372953,-0.0965354l0.348783 -0.786594 0.168705 0.074815z"/>
  <rect class="fil15" x="0.0364567" y="-0.00520866" width="6.82666" height="6.82666"/>
 </g>
</svg>
