<?xml version="1.0" encoding="UTF-8"?>
<!DOCTYPE svg PUBLIC "-//W3C//DTD SVG 1.1//EN" "http://www.w3.org/Graphics/SVG/1.1/DTD/svg11.dtd">
<!-- Creator: CorelDRAW -->
<svg xmlns="http://www.w3.org/2000/svg" xml:space="preserve" width="6.82666in" height="6.82666in" style="shape-rendering:geometricPrecision; text-rendering:geometricPrecision; image-rendering:optimizeQuality; fill-rule:evenodd; clip-rule:evenodd"
viewBox="0 0 6.82666 6.82666"
 xmlns:xlink="http://www.w3.org/1999/xlink">
 <defs>
  <style type="text/css">
   <![CDATA[
    .fil8 {fill:none}
    .fil2 {fill:#1565C0}
    .fil10 {fill:#263238}
    .fil0 {fill:#689F38}
    .fil11 {fill:#8F1010}
    .fil5 {fill:#A13F0F}
    .fil6 {fill:#AD4916}
    .fil14 {fill:#B71C1C}
    .fil3 {fill:#D9AE9A}
    .fil1 {fill:#E3B8A4}
    .fil15 {fill:#E4B7A0}
    .fil4 {fill:#EDC5B2}
    .fil12 {fill:#F08888}
    .fil9 {fill:#37474F;fill-rule:nonzero}
    .fil7 {fill:#424242;fill-rule:nonzero}
    .fil13 {fill:#B71C1C;fill-rule:nonzero}
   ]]>
  </style>
 </defs>
 <g id="Layer_x0020_1">
  <metadata id="CorelCorpID_0Corel-Layer"/>
  <path class="fil0" d="M3.47611 4.09543c-0.914126,0.400756 -1.18831,0.614409 -1.2967,0.710319 -0.167043,0.147815 -0.259429,0.698791 -0.35798,1.1666l2.06819 0 2.06813 0c-0.0985197,-0.467811 -0.190917,-1.01881 -0.357949,-1.1666 -0.108394,-0.0959094 -0.372571,-0.304071 -1.28667,-0.704827l-0.837016 -0.00549213z"/>
  <path class="fil1" d="M3.47611 4.09543c-0.131744,0.0577559 -0.250122,0.111606 -0.356705,0.161799 0.0652244,0.389307 0.385228,0.684874 0.770185,0.684874 0.384728,0 0.704594,-0.295232 0.770071,-0.684213 -0.10372,-0.0487087 -0.218768,-0.100953 -0.346535,-0.156969l-0.837016 -0.00549213z"/>
  <path class="fil2" d="M3.17269 4.22749c-0.0219724,0.0101969 -0.0434843,0.020252 -0.0645354,0.0301693 0.0661811,0.39502 0.390882,0.694925 0.781492,0.694925 0.390374,0 0.714937,-0.299563 0.781374,-0.694256 -0.0210551,-0.00988976 -0.0425748,-0.0199213 -0.0645669,-0.0300984 -0.0658701,0.356953 -0.361744,0.626268 -0.716811,0.626268 -0.355323,0 -0.651354,-0.269689 -0.716953,-0.627008z"/>
  <path class="fil1" d="M4.33343 3.2966l0 1.01328c-0.12415,0.155988 -0.286571,0.251004 -0.443807,0.258402 -0.167622,0.00789764 -0.329776,-0.0822913 -0.443878,-0.258402l0 -1.01328c0,-0.547122 0.887685,-0.547122 0.887685,0z"/>
  <path class="fil3" d="M4.33343 3.2966l0 0.678398c-0.167929,0.122421 -0.329854,0.191016 -0.443807,0.191016 -0.113996,0 -0.275949,-0.0685945 -0.443878,-0.190996l0 -0.678417c0,-0.547122 0.887685,-0.547122 0.887685,0z"/>
  <path class="fil4" d="M3.88962 1.47741c-1.48969,0 -0.953969,1.80001 -0.856657,1.94328 0.107256,0.158004 0.615937,0.576823 0.856657,0.576823 0.24065,0 0.749331,-0.418799 0.856614,-0.576823 0.097311,-0.143291 0.633031,-1.94328 -0.856614,-1.94328z"/>
  <path class="fil5" d="M2.88139 2.26975c-0.0365551,-0.201732 -0.275827,-0.795839 0.456299,-1.17143 0.0691339,-0.0131693 -0.175122,0.162661 -0.101445,0.135075 0.20863,-0.0614252 0.37702,-0.228531 0.524146,-0.249169 0.041378,-0.0141693 -0.194264,0.18911 -0.0667677,0.147154 0.215709,-0.0963701 0.379339,-0.226622 0.533102,-0.230764 0.0453504,-0.00247638 -0.341425,0.230047 -0.276657,0.20824 0.340169,-0.114543 0.498079,-0.237846 0.662984,-0.263677 0.0962441,-0.0150472 -0.496858,0.327059 -0.144898,0.233744 0.286492,-0.0759252 0.393035,-0.25452 0.489398,-0.242319 0.101815,0.012878 -0.317602,0.322953 -0.280067,0.501091 0.0425118,0.201701 0.290441,0.350752 0.222587,0.940106 -0.10378,-0.305728 -0.410689,-0.466445 -0.733854,-0.416618 -0.514102,0.0634016 -1.03302,-0.279701 -1.28483,0.408563z"/>
  <path class="fil6" d="M2.92406 2.1643c-0.0338622,-0.146614 -0.235673,-0.583354 0.442571,-0.856319 0.0640433,-0.00957087 -0.162232,0.118217 -0.0939803,0.0981693 0.193276,-0.0446417 0.349276,-0.166091 0.485571,-0.181087 0.0383307,-0.0102992 -0.179965,0.137437 -0.0618543,0.106945 0.199835,-0.0700394 0.351421,-0.164701 0.49387,-0.167713 0.0420118,-0.00179921 -0.316299,0.167189 -0.256295,0.151343 0.315134,-0.083248 0.461417,-0.172858 0.614189,-0.19163 0.0891614,-0.010937 -0.460291,0.237693 -0.134232,0.169874 0.265406,-0.0551772 0.36411,-0.184976 0.453382,-0.17611 0.0943189,0.0093622 -0.294228,0.234713 -0.259461,0.364177 0.0393858,0.146591 0.308772,0.259878 0.245909,0.688205 -0.0961457,-0.222197 -0.420165,-0.343961 -0.719547,-0.307752 -0.476264,0.0460827 -0.976846,-0.198311 -1.21012,0.301898z"/>
  <path class="fil4" d="M2.75819 2.57765c0.0781496,-0.0257283 0.177626,0.0629843 0.222138,0.198185 0.0445551,0.135193 0.0172756,0.265665 -0.0609449,0.291406 -0.0781614,0.025748 -0.177638,-0.0629646 -0.22215,-0.198157 -0.0445118,-0.135201 -0.0172323,-0.265661 0.0609567,-0.291433z"/>
  <path class="fil4" d="M5.04375 2.57767c-0.0781929,-0.025748 -0.17763,0.0629646 -0.222181,0.198165 -0.0445118,0.135193 -0.0172323,0.265665 0.0609567,0.291406 0.0781811,0.025748 0.177669,-0.0629843 0.222181,-0.198157 0.0445118,-0.135201 0.0172205,-0.265681 -0.0609567,-0.291413z"/>
  <path class="fil2" d="M2.07449 4.96694c-0.105189,0.236969 -0.177319,0.64574 -0.253063,1.00541l0.839583 0c-0.0187795,-0.58678 -0.0198386,-0.89889 -0.58652,-1.00541z"/>
  <path class="fil2" d="M5.70467 4.96694c0.105189,0.236969 0.177319,0.64574 0.253071,1.00541l-0.839602 0c0.0187835,-0.58678 0.0198504,-0.89889 0.586531,-1.00541z"/>
  <path class="fil1" d="M5.87956 5.59363c0.0122402,0.0597992 0.065937,0.320551 0.078189,0.37872l-0.839602 0c0.00200787,-0.0622047 0.00382677,-0.121276 0.00609055,-0.17739l0.755323 -0.201331z"/>
  <path class="fil1" d="M1.91065 5.54187c-0.0122126,0.0597874 -0.0769528,0.372311 -0.0892244,0.43048l0.839583 0c-0.00198819,-0.0622047 -0.00377559,-0.121276 -0.00605118,-0.17739l-0.744307 -0.253091z"/>
  <path class="fil7" d="M3.62792 1.612c0.00499213,0.00151181 0.00331102,0.000976378 1.5748e-005,-3.93701e-005l-1.5748e-005 3.93701e-005z"/>
  <path class="fil8" d="M3.18624 4.70002c-0.00153543,-0.000141732 -0.0030748,-0.000334646 -0.00461024,-0.000503937"/>
  <g id="_47483256">
   <path id="_47483424" class="fil9" d="M2.76264 2.43488c0.0174685,-0.372102 0.149449,-0.595406 0.349276,-0.729264 0.20378,-0.136496 0.479472,-0.183118 0.777685,-0.199524l-0.0033937 -0.0798386c-0.308831,0.0169843 -0.595594,0.0661063 -0.811591,0.210791 -0.219949,0.147335 -0.365098,0.390689 -0.384024,0.793764l0.0720472 0.00407087z"/>
   <path id="_47483304" class="fil9" d="M5.01656 2.43488c-0.0174685,-0.372102 -0.149449,-0.595406 -0.349276,-0.729264 -0.20378,-0.136496 -0.479472,-0.183118 -0.777685,-0.199524l0.0033937 -0.0798386c0.308831,0.0169843 0.595594,0.0661063 0.811591,0.210791 0.219949,0.147335 0.365098,0.390689 0.384024,0.793764l-0.0720472 0.00407087z"/>
  </g>
  <g id="_47483160">
   <path id="_47483712" class="fil10" d="M2.64909 2.42056l0.128953 0c0.0255354,0 0.0464252,0.0208898 0.0464252,0.0464252l0 0.603492c0,0.0255354 -0.0208898,0.0464252 -0.0464252,0.0464252l-0.128953 0c-0.0964567,0 -0.175374,-0.0789173 -0.175374,-0.175374l0 -0.345594c0,-0.0964567 0.0789173,-0.175374 0.175374,-0.175374z"/>
   <path id="_47483112" class="fil10" d="M5.13012 2.42056l-0.128953 0c-0.0255354,0 -0.0464252,0.0208898 -0.0464252,0.0464252l0 0.603492c0,0.0255354 0.0208898,0.0464252 0.0464252,0.0464252l0.128953 0c0.0964567,0 0.175374,-0.0789173 0.175374,-0.175374l0 -0.345594c0,-0.0964567 -0.0789173,-0.175374 -0.175374,-0.175374z"/>
  </g>
  <g id="_47482248">
   <path id="_47483736" class="fil11" d="M1.11661 4.30717c-0.0756929,0.215307 -0.106213,0.425028 -0.102559,0.630496 0.00367323,0.206441 0.041937,0.409791 0.10365,0.611031 0.0139449,0.0454803 0.0335866,0.0809488 0.0601575,0.107551 0.0264291,0.0264606 0.0615984,0.0459803 0.106748,0.0597165 0.102516,0.0311969 0.203906,0.0544567 0.304217,0.0701575 0.0999803,0.0156496 0.198858,0.0238189 0.296665,0.0248858 0.097811,-0.00106693 0.196689,-0.00923622 0.296669,-0.0248858 0.100303,-0.0157008 0.201701,-0.0389606 0.304217,-0.0701575 0.0451496,-0.0137362 0.0803189,-0.0332559 0.106748,-0.0597165 0.0265709,-0.0266024 0.0462126,-0.0620709 0.0601575,-0.107551 0.0617087,-0.201236 0.0999764,-0.404591 0.10365,-0.611031 0.00365748,-0.205472 -0.0268661,-0.415189 -0.102559,-0.630496 -0.015874,-0.0451417 -0.0364409,-0.0789685 -0.0633504,-0.105217 -0.0280945,-0.0274055 -0.0650709,-0.0488268 -0.112287,-0.067874 -0.0967795,-0.0390354 -0.194673,-0.0664882 -0.293524,-0.0839016 -0.0998661,-0.0175906 -0.199394,-0.0249094 -0.298626,-0.0235433l-0.00218504 0c-0.0992283,-0.00136614 -0.19876,0.00594882 -0.298626,0.0235433 -0.0988543,0.0174173 -0.196748,0.0448661 -0.293524,0.0839016 -0.0472165,0.0190472 -0.0841969,0.0404685 -0.112287,0.067874 -0.0269094,0.026248 -0.0474764,0.0600748 -0.0633504,0.105217z"/>
   <path id="_47483064" class="fil12" d="M1.67111 5.29307l0 0zm0 -0.748661l1.1811e-005 0.748661c0,0.0217402 0.00829134,0.0434882 0.0248858,0.0600748 0.0331772,0.0331811 0.0869764,0.0331811 0.120154,0l0.374323 -0.374331c0.0331811,-0.0331772 0.0331811,-0.0869764 0,-0.120154l-0.373803 -0.373803c-0.0154134,-0.015689 -0.0368661,-0.0254173 -0.0605984,-0.0254173 -0.0469291,0 -0.0849724,0.0380433 -0.0849724,0.0849685z"/>
   <path id="_47482320" class="fil13" d="M1.23802 3.98314c0.107453,-0.0433465 0.215205,-0.0736614 0.323197,-0.0926811 0.10665,-0.0187913 0.214827,-0.0266142 0.324272,-0.0251654 0.109453,-0.00144882 0.217626,0.00637402 0.324276,0.0251654 0.107992,0.0190197 0.215744,0.0493346 0.323197,0.0926811 0.0679016,0.0273858 0.123173,0.060252 0.168803,0.104756 0.0467835,0.0456339 0.0814646,0.101382 0.106744,0.17328 0.0813583,0.231421 0.114161,0.457276 0.110213,0.678906 -0.00392913,0.220681 -0.0442165,0.436051 -0.10915,0.647791 -0.0224213,0.073122 -0.0562165,0.132374 -0.103614,0.179823 -0.0475394,0.0475945 -0.106953,0.0815315 -0.180461,0.103898 -0.108382,0.0329803 -0.215795,0.0576063 -0.322268,0.0742717 -0.106539,0.0166772 -0.212209,0.0253661 -0.317028,0.0264764l-0.00142126 0c-0.104823,-0.00111024 -0.210488,-0.00979921 -0.317028,-0.0264764 -0.106476,-0.0166654 -0.213886,-0.0412913 -0.322268,-0.0742717 -0.0735079,-0.0223661 -0.132925,-0.0563031 -0.180461,-0.103898 -0.0473976,-0.0474488 -0.0811929,-0.106701 -0.103614,-0.179823 -0.064937,-0.21174 -0.10522,-0.42711 -0.10915,-0.647791 -0.00394488,-0.22163 0.0288543,-0.447484 0.110213,-0.678906 0.0252795,-0.0718976 0.0599567,-0.127646 0.106744,-0.17328 0.045626,-0.0445039 0.100902,-0.0773701 0.168803,-0.104756zm0.354496 0.0865827c-0.0966299,0.0170236 -0.192319,0.0438543 -0.286917,0.0820118 -0.0461535,0.0186181 -0.0823031,0.0395591 -0.10976,0.0663465 -0.0263071,0.0256575 -0.0464094,0.0587244 -0.0619252,0.10285 -0.0739921,0.210461 -0.103823,0.415461 -0.100252,0.616307 0.00359055,0.201795 0.0409921,0.400571 0.101319,0.59728 0.0136299,0.0444567 0.0328268,0.0791299 0.0588031,0.105134 0.0258346,0.0258622 0.0602126,0.0449449 0.104346,0.0583701 0.100209,0.0304921 0.199319,0.0532323 0.297366,0.0685787 0.0977323,0.0152992 0.194386,0.0232835 0.289992,0.0243268 0.0956102,-0.00104331 0.192264,-0.00902756 0.289996,-0.0243268 0.0980433,-0.0153465 0.197157,-0.0380866 0.297366,-0.0685787 0.0441339,-0.0134252 0.0785118,-0.0325079 0.104346,-0.0583701 0.0259764,-0.0260039 0.0451732,-0.0606772 0.0588031,-0.105134 0.0603228,-0.196709 0.0977283,-0.395484 0.101319,-0.59728 0.0035748,-0.20085 -0.0262598,-0.405846 -0.100252,-0.616307 -0.0155157,-0.044126 -0.0356181,-0.0771929 -0.0619252,-0.10285 -0.0274606,-0.0267874 -0.0636063,-0.0477283 -0.10976,-0.0663465 -0.0946024,-0.0381575 -0.190291,-0.0649921 -0.286917,-0.0820118 -0.0976181,-0.0171969 -0.194906,-0.0243504 -0.291906,-0.0230157l-0.0021378 0c-0.0969961,-0.00133465 -0.194287,0.00581496 -0.291906,0.0230157z"/>
   <path id="_47482800" class="fil14" d="M1.88549 4.22909c0.380882,0 0.68965,0.308764 0.68965,0.689646 0,0.380882 -0.308768,0.689646 -0.68965,0.689646 -0.380878,0 -0.689646,-0.308764 -0.689646,-0.689646 0,-0.380882 0.308768,-0.689646 0.689646,-0.689646zm-0.068815 0.255768l0.373803 0.373803c0.0331811,0.0331772 0.0331811,0.0869764 0,0.120154l-0.374323 0.374331c-0.0331772,0.0331811 -0.0869764,0.0331811 -0.120154,0 -0.0165945,-0.0165866 -0.0248858,-0.0383346 -0.0248858,-0.0600748l-1.1811e-005 0 0 -0.748661c0,-0.0469252 0.0380433,-0.0849685 0.0849724,-0.0849685 0.0237323,0 0.045185,0.00972835 0.0605984,0.0254173z"/>
  </g>
  <path class="fil15" d="M3.49744 3.25794c0.260425,0.0932008 0.562713,0.0780866 0.784327,0 -0.072315,0.333185 -0.646039,0.341276 -0.784327,0z"/>
  <rect class="fil8" x="0.0364567" y="-0.00520866" width="6.82666" height="6.82666"/>
 </g>
</svg>
