<?xml version="1.0" encoding="UTF-8"?>
<!DOCTYPE svg PUBLIC "-//W3C//DTD SVG 1.1//EN" "http://www.w3.org/Graphics/SVG/1.1/DTD/svg11.dtd">
<!-- Creator: CorelDRAW -->
<svg xmlns="http://www.w3.org/2000/svg" xml:space="preserve" width="6.82666in" height="6.82666in" style="shape-rendering:geometricPrecision; text-rendering:geometricPrecision; image-rendering:optimizeQuality; fill-rule:evenodd; clip-rule:evenodd"
viewBox="0 0 6.82666 6.82666"
 xmlns:xlink="http://www.w3.org/1999/xlink">
 <defs>
  <style type="text/css">
   <![CDATA[
    .fil17 {fill:none}
    .fil2 {fill:#212121}
    .fil5 {fill:#293439}
    .fil7 {fill:#424242}
    .fil13 {fill:#5D4037}
    .fil11 {fill:#757575}
    .fil9 {fill:#A61E1E}
    .fil10 {fill:#C62828}
    .fil6 {fill:#C7B7B7}
    .fil0 {fill:#DBC0B2}
    .fil4 {fill:#DFC4B6}
    .fil12 {fill:#E4B7A0}
    .fil3 {fill:#ECCEBE}
    .fil1 {fill:#FFDDCC}
    .fil8 {fill:white}
    .fil14 {fill:#3E2723;fill-rule:nonzero}
    .fil15 {fill:#EEEEEE;fill-rule:nonzero}
    .fil16 {fill:#FAFAFA;fill-rule:nonzero}
   ]]>
  </style>
 </defs>
 <g id="Layer_x0020_1">
  <metadata id="CorelCorpID_0Corel-Layer"/>
  <g id="_47485800">
   <g>
    <path id="_47487000" class="fil0" d="M2.41831 2.03871c0.0679291,-0.0224016 0.154398,0.0547126 0.193087,0.172248 0.038689,0.117504 0.0149803,0.230913 -0.0529843,0.253311 -0.0679291,0.0223661 -0.154398,-0.0547441 -0.193087,-0.172283 -0.0387244,-0.117504 -0.0149803,-0.230917 0.0529843,-0.253276z"/>
    <path id="_47487576" class="fil0" d="M4.40495 2.03871c-0.0679646,-0.0224016 -0.154433,0.054748 -0.193122,0.172248 -0.0386929,0.117504 -0.0149803,0.230913 0.0529724,0.253276 0.0679646,0.0224016 0.154433,-0.0547087 0.193122,-0.172248 0.0386929,-0.117504 0.0149803,-0.230917 -0.0529724,-0.253276z"/>
    <path id="_47487120" class="fil1" d="M3.05394 3.28677c-0.794583,0.348327 -1.03294,0.534031 -1.12715,0.617425 -0.145197,0.12848 -0.225504,0.607382 -0.311138,1.01401l1.79768 0 1.79768 0c-0.0856339,-0.40663 -0.165972,-0.885531 -0.311134,-1.01401 -0.0942126,-0.0833937 -0.323835,-0.264307 -1.11842,-0.612677l-0.727516 -0.00474803z"/>
    <path id="_47487528" class="fil2" d="M3.0539 3.28677c-0.794547,0.348327 -1.03291,0.534031 -1.12711,0.617425 -0.145197,0.12848 -0.225504,0.607382 -0.311138,1.01401l1.79768 0 1.79765 0c-0.085626,-0.40663 -0.165941,-0.885531 -0.31113,-1.01401 -0.094185,-0.0833937 -0.323807,-0.264307 -1.11839,-0.612677l-0.727551 -0.00474803z"/>
    <path id="_47486928" class="fil3" d="M3.79912 2.59241l0 0.880748c-0.212197,0.25989 -0.559421,0.25089 -0.771587,0l0 -0.880748c0,-0.475587 0.771587,-0.475587 0.771587,0z"/>
    <path id="_47487360" class="fil4" d="M3.79912 2.59241l0 0.589677c-0.145996,0.106417 -0.286705,0.166035 -0.385791,0.166035 -0.0990866,0 -0.239823,-0.0596181 -0.385795,-0.166035l0 -0.589677c0,-0.475587 0.771587,-0.475587 0.771587,0z"/>
    <path id="_47486880" class="fil3" d="M3.41333 1.01115c-1.29486,0 -0.829205,1.56458 -0.744622,1.68911 0.0932638,0.13735 0.535417,0.501386 0.744622,0.501386 0.209205,0 0.651331,-0.364035 0.744587,-0.501386 0.0846181,-0.124531 0.550272,-1.68911 -0.744587,-1.68911z"/>
    <path id="_47486280" class="fil5" d="M2.82146 1.53474c-0.0751063,0.410346 -0.263205,0.372047 -0.248283,0.853575 -0.055622,-0.34548 -0.163894,-0.783016 0.0557008,-1.04913 -0.0459134,-0.0136811 -0.201445,-0.218831 -0.226642,-0.341098 0.22626,0.189539 0.39922,0.0153622 0.671484,-0.0671654 0.120854,-0.0366339 0.251913,-0.0653858 0.394039,-0.0600157 0.163996,0.00620472 0.342252,0.0529606 0.533551,0.174386 0.3175,0.201547 0.486874,0.625008 0.259992,1.27615 -0.0344567,-0.229453 -0.0301575,-0.40526 -0.18802,-0.561213 -0.164811,-0.162815 -0.536449,0.279496 -1.25182,-0.225484z"/>
    <path id="_47486208" class="fil6" d="M3.41533 3.6647c0,0 -0.538402,0.128531 -0.538402,0.161122 0,0.0325906 0.204874,1.09238 0.204874,1.09238l0.730949 0 0.0837795 -1.08771 -0.481201 -0.165791z"/>
    <polygon id="_47486688" class="fil7" points="3.02754,3.29838 3.02754,3.47316 3.19513,4.91821 2.90695,4.91821 2.58992,4.27459 2.89254,4.07286 2.52271,3.89995 2.86279,3.37225 "/>
    <polygon id="_47486664" class="fil7" points="3.79912,3.2993 3.79915,3.47316 3.62989,4.91821 3.91807,4.91821 4.23506,4.27459 3.93247,4.07286 4.3023,3.89995 4.00005,3.38852 "/>
    <polygon id="_47486424" class="fil8" points="3.02754,3.18209 2.99381,3.31326 3.0882,3.99646 3.41533,3.66473 "/>
    <path id="_47486400" class="fil9" d="M3.24742 3.84341l0.093437 0.144748c0.0482874,0 0.0966378,0 0.144925,0l0.0934646 -0.144748 -0.163909 -0.178705 -0.167917 0.178705z"/>
    <polygon id="_47486376" class="fil10" points="3.34085,3.98816 3.20783,4.91821 3.61883,4.91821 3.48581,3.98816 "/>
    <polygon id="_47486184" class="fil8" points="3.79912,3.18209 3.82573,3.31113 3.73705,4.00328 3.41533,3.66473 "/>
    <path id="_47486520" class="fil11" d="M2.34825 4.91821l0.0615591 0c-0.00275197,-0.273756 -0.00275197,-0.471063 -0.00275197,-0.471063 0,0 -0.0272717,0.205047 -0.0588071,0.471063z"/>
    <path id="_47486088" class="fil11" d="M4.47841 4.91821l-0.0615945 0c0.00275197,-0.273756 0.00275197,-0.471063 0.00275197,-0.471063 0,0 0.0272677,0.205047 0.0588425,0.471063z"/>
    <path id="_47485536" class="fil12" d="M3.02117 2.64896c0.260425,0.0932008 0.562713,0.0780866 0.784327,0 -0.072315,0.333185 -0.646039,0.341276 -0.784327,0z"/>
   </g>
   <rect id="_47486016" class="fil13" x="0.863339" y="5.86487" width="5.09998" height="0.110386"/>
   <polygon id="_47485872" class="fil14" points="5.29452,4.9755 5.34771,4.9755 5.37715,5.01806 5.96303,5.86511 1.03644,5.86511 0.863339,5.86487 0.9515,5.72471 1.42036,4.9755 "/>
  </g>
  <polygon class="fil15" points="3.80881,5.05809 4.01658,5.55753 2.81007,5.55739 3.02953,5.05809 "/>
  <polygon class="fil16" points="3.72012,5.0815 3.76847,5.59957 2.74468,5.52493 3.12715,5.03596 "/>
  <rect class="fil17" x="0.0364567" y="-0.00520866" width="6.82666" height="6.82666"/>
 </g>
</svg>
