<?xml version="1.0" encoding="UTF-8"?>
<!DOCTYPE svg PUBLIC "-//W3C//DTD SVG 1.1//EN" "http://www.w3.org/Graphics/SVG/1.1/DTD/svg11.dtd">
<!-- Creator: CorelDRAW -->
<svg xmlns="http://www.w3.org/2000/svg" xml:space="preserve" width="6.82666in" height="6.82666in" style="shape-rendering:geometricPrecision; text-rendering:geometricPrecision; image-rendering:optimizeQuality; fill-rule:evenodd; clip-rule:evenodd"
viewBox="0 0 6.82666 6.82666"
 xmlns:xlink="http://www.w3.org/1999/xlink">
 <defs>
  <style type="text/css">
   <![CDATA[
    .fil13 {fill:none}
    .fil10 {fill:none;fill-rule:nonzero}
    .fil0 {fill:#424242}
    .fil5 {fill:#5CA15F}
    .fil3 {fill:#66BB6A}
    .fil7 {fill:#A14A4A}
    .fil1 {fill:#DEC3B6}
    .fil6 {fill:#E35252}
    .fil12 {fill:#E8F5E9}
    .fil2 {fill:#EDD0C2}
    .fil4 {fill:#FAFAFA}
    .fil8 {fill:white}
    .fil9 {fill:#424242;fill-rule:nonzero}
    .fil11 {fill:#66BB6A;fill-rule:nonzero}
   ]]>
  </style>
 </defs>
 <g id="Layer_x0020_1">
  <metadata id="CorelCorpID_0Corel-Layer"/>
  <g id="_47473464">
   <path id="_47475936" class="fil0" d="M3.3816 0.936622c0.498071,0.00849213 0.860496,0.118531 1.17467,0.657425 0.162768,0.364933 0.401622,1.11837 0.125638,2.16497 0.00295669,-0.203996 -0.123047,-0.286933 -0.280287,-0.386449 0.0415197,0.124772 0.190839,0.37565 0.204961,0.625894 0.0112835,0.200142 -0.0880827,0.390232 -0.21935,0.586634 -0.290094,0.43402 -1.49298,0.430295 -1.95267,-0.205803 -0.160665,-0.22226 -0.190602,-0.589173 -0.00577953,-0.865028 -0.233063,0.103453 -0.219197,0.524815 -0.261843,0.434787 -0.0654882,-0.0912795 -0.191295,-0.39374 -0.206819,-0.84111 -0.0132756,-0.382776 0.0541614,-0.864941 0.309173,-1.42512 0.208874,-0.453299 0.599169,-0.754913 1.11231,-0.746201z"/>
   <path id="_47475528" class="fil1" d="M2.19371 2.20934c0.0838307,-0.0275906 0.190465,0.0675354 0.238236,0.212488 0.0477598,0.14498 0.0184803,0.284858 -0.0653622,0.31248 -0.0838386,0.0275906 -0.190461,-0.0675354 -0.238232,-0.212496 -0.0477283,-0.144941 -0.018437,-0.28485 0.0653583,-0.312472z"/>
   <path id="_47475312" class="fil1" d="M4.64446 2.20934c-0.0838307,-0.0275906 -0.190508,0.0675354 -0.238236,0.212488 -0.0477283,0.14498 -0.0184764,0.284858 0.0653622,0.31248 0.0838425,0.0275906 0.190465,-0.0675354 0.238236,-0.212496 0.0477283,-0.144941 0.0184764,-0.28485 -0.0653622,-0.312472z"/>
   <path id="_47474904" class="fil2" d="M3.8893 3.01533l0 1.08648c-0.261756,0.320598 -0.69013,0.309496 -0.951854,0l0 -1.08648c0,-0.586677 0.951854,-0.586677 0.951854,0z"/>
   <path id="_47474688" class="fil3" d="M2.96996 3.87189c-0.98015,0.429693 -1.27419,0.658815 -1.3904,0.76165 -0.179118,0.158484 -0.278181,0.749252 -0.383819,1.25088l2.2176 0 2.21756 0c-0.105626,-0.501626 -0.204705,-1.09239 -0.383807,-1.25088 -0.116181,-0.102835 -0.399457,-0.326059 -1.37964,-0.755752l-0.8975 -0.00589764z"/>
   <path id="_47474832" class="fil2" d="M2.838 3.79877l-0.049311 2.08564 1.24729 0 -0.0493425 -2.08564c-0.382854,0 -0.765752,0 -1.14864,0z"/>
   <path id="_47475288" class="fil4" d="M2.66545 4.38851c0.246681,0.183421 0.929854,0.303598 1.54345,0.0442598 -0.42402,0.560343 -0.278331,1.45164 -0.278331,1.45164l-0.866622 0c0,0 -0.0885197,-0.781122 -0.398496,-1.4959z"/>
   <path id="_47474880" class="fil5" d="M2.93744 3.54767l0 0.554142 0.206724 1.7826 -0.355476 0 -0.391087 -0.793972 0.373303 -0.248843 -0.456213 -0.213311c0,0 0.095748,-0.74822 0.622748,-1.08062z"/>
   <path id="_47474976" class="fil1" d="M3.88926 3.01533l0 0.727421c-0.180067,0.131268 -0.353681,0.204819 -0.475913,0.204819 -0.122232,0 -0.295843,-0.0735512 -0.475909,-0.204819l0 -0.727421c0,-0.586677 0.951823,-0.586677 0.951823,0z"/>
   <path id="_47474616" class="fil5" d="M3.88926 3.54767l3.14961e-005 0.554142 -0.208791 1.7826 0.355476 0 0.391055 -0.793972 -0.373272 -0.248843 0.456213 -0.213311c0,0 -0.170142,-0.786465 -0.620713,-1.08062z"/>
   <path id="_47474592" class="fil2" d="M3.41335 1.06469c-1.59733,0 -1.0229,1.93006 -0.918555,2.08371 0.115035,0.169402 0.660484,0.618508 0.918555,0.618508 0.258075,0 0.80348,-0.449106 0.918516,-0.618508 0.104386,-0.153657 0.678815,-2.08371 -0.918516,-2.08371z"/>
   <path id="_47475048" class="fil0" d="M4.45413 2.71247c0,0 -0.104228,-0.569 -0.344528,-0.895315 -0.174091,0.382929 -0.346012,0.570449 -1.17298,0.765268 0.250335,-0.210012 0.366807,-0.525043 0.37872,-0.695591 -0.535406,0.147575 -0.866106,0.564953 -0.94876,0.84748 -0.250846,-0.43648 -0.021315,-1.09449 0.151634,-1.34324 0.333795,-0.480055 1.15147,-0.596646 1.63981,-0.160114 0.33885,0.302933 0.478425,0.235583 0.296102,1.48151z"/>
   <path id="_47475168" class="fil5" d="M2.09948 5.88441l0.075937 0c-0.0033937,-0.337717 -0.0033937,-0.58111 -0.0033937,-0.58111 0,0 -0.0336378,0.252957 -0.0725433,0.58111z"/>
   <path id="_47474232" class="fil5" d="M4.72722 5.88441l-0.0759803 0c0.0033937,-0.337717 0.0033937,-0.58111 0.0033937,-0.58111 0,0 0.0336378,0.252957 0.0725866,0.58111z"/>
   <path id="_47474040" class="fil6" d="M3.08689 3.19062c0.138087,-0.101016 0.282217,-0.0412559 0.330394,-0.0412559 0.0482008,0 0.184366,-0.0597598 0.32248,0.0412559 -0.0687283,0.277756 -0.548886,0.284764 -0.652874,0z"/>
   <path id="_47474448" class="fil7" d="M3.09103 3.18916c0.128193,-0.0452126 0.241504,0.043315 0.32215,0.043315 0.0806496,0 0.194256,-0.118878 0.322445,-0.0388031 -0.150217,0.153122 -0.493358,0.144827 -0.644594,-0.00451181z"/>
   <path id="_47473896" class="fil8" d="M3.08688 3.18916c0.138114,-0.0569606 0.239728,-0.0156732 0.320386,-0.0156732 0.0806457,0 0.194402,-0.0412874 0.332516,0.0156732 -0.15022,0.0857677 -0.501638,0.0828898 -0.652902,0z"/>
   <path id="_47474352" class="fil6" d="M3.08756 3.18967c0.137453,-0.0997047 0.255492,-0.0305236 0.335992,-0.0305236 0.0805276,0 0.177445,-0.0695354 0.315559,0.0314803 -0.000480315,0.00140551 -0.00107874,0.00277953 -0.00159055,0.00416535 -0.176063,-0.00314961 -0.464213,-0.00494094 -0.649961,-0.00512205z"/>
   <polygon id="_47473992" class="fil9" points="1.81439,5.12874 1.81439,5.12874 1.81813,5.12998 "/>
   <line id="_47473800" class="fil10" x1="4.65981" y1="4.80873" x2="4.6598" y2= "4.80873" />
   <line id="_47473872" class="fil10" x1="4.65856" y1="4.72518" x2="4.65856" y2= "4.72518" />
   <line id="_47473824" class="fil10" x1="4.74457" y1="4.89166" x2="4.74457" y2= "4.89166" />
   <line id="_47474400" class="fil10" x1="4.82812" y1="4.89041" x2="4.82812" y2= "4.89041" />
   <path id="_47473488" class="fil11" d="M2.23176 0.919264c0.38478,-0.103583 0.771587,-0.155024 1.16037,-0.154846 0.387949,0.000177165 0.776425,0.0519724 1.16541,0.154846l0.103461 0.0273622 -0.0160906 0.0792008 -0.116185 0.571752 -0.017126 0.084252 -0.11524 0 -2.00237 0 -0.115244 0 -0.017122 -0.084252 -0.116193 -0.571752 -0.0160512 -0.079 0.102382 -0.027563z"/>
   <polygon id="_47473296" class="fil12" points="3.29752,0.881051 3.49285,0.881051 3.49285,1.12546 3.73725,1.12546 3.73725,1.3208 3.49285,1.3208 3.49285,1.5652 3.29752,1.5652 3.29752,1.3208 3.05311,1.3208 3.05311,1.12546 3.29752,1.12546 "/>
  </g>
  <g id="_47488032">
   <path id="_47473344" class="fil0" d="M3.3816 1.02554c0.498071,0.00849213 0.860496,0.118531 1.17467,0.657425 0.162768,0.364933 0.401622,1.11837 0.125638,2.16497 0.00295669,-0.203996 -0.123047,-0.286933 -0.280287,-0.386449 0.0415197,0.124772 0.190839,0.37565 0.204961,0.625894 0.0112835,0.200142 -0.0880827,0.390232 -0.21935,0.586634 -0.290094,0.43402 -1.49298,0.430295 -1.95267,-0.205803 -0.160665,-0.22226 -0.190602,-0.589173 -0.00577953,-0.865028 -0.233063,0.103453 -0.219197,0.524815 -0.261843,0.434787 -0.0654882,-0.0912795 -0.191295,-0.39374 -0.206819,-0.84111 -0.0132756,-0.382776 0.0541614,-0.864941 0.309173,-1.42512 0.208874,-0.453299 0.599169,-0.754913 1.11231,-0.746201z"/>
   <path id="_47473392" class="fil1" d="M2.19371 2.29826c0.0838307,-0.0275906 0.190465,0.0675354 0.238236,0.212488 0.0477598,0.14498 0.0184803,0.284858 -0.0653622,0.31248 -0.0838386,0.0275906 -0.190461,-0.0675354 -0.238232,-0.212496 -0.0477283,-0.144941 -0.018437,-0.28485 0.0653583,-0.312472z"/>
   <path id="_47473728" class="fil1" d="M4.64446 2.29826c-0.0838307,-0.0275906 -0.190508,0.0675354 -0.238236,0.212488 -0.0477283,0.14498 -0.0184764,0.284858 0.0653622,0.31248 0.0838425,0.0275906 0.190465,-0.0675354 0.238236,-0.212496 0.0477283,-0.144941 0.0184764,-0.28485 -0.0653622,-0.312472z"/>
   <path id="_47473200" class="fil2" d="M3.8893 3.10424l0 1.08648c-0.261756,0.320598 -0.69013,0.309496 -0.951854,0l0 -1.08648c0,-0.586677 0.951854,-0.586677 0.951854,0z"/>
   <path id="_47473056" class="fil3" d="M2.96996 3.9608c-0.98015,0.429693 -1.27419,0.658815 -1.3904,0.76165 -0.179118,0.158484 -0.278181,0.749252 -0.383819,1.25088l2.2176 0 2.21756 0c-0.105626,-0.501626 -0.204705,-1.09239 -0.383807,-1.25088 -0.116181,-0.102835 -0.399457,-0.326059 -1.37964,-0.755752l-0.8975 -0.00589764z"/>
   <path id="_47473224" class="fil2" d="M2.838 3.88769l-0.049311 2.08564 1.24729 0 -0.0493425 -2.08564c-0.382854,0 -0.765752,0 -1.14864,0z"/>
   <path id="_47473536" class="fil4" d="M2.66545 4.47743c0.246681,0.183421 0.929854,0.303598 1.54345,0.0442598 -0.42402,0.560343 -0.278331,1.45164 -0.278331,1.45164l-0.866622 0c0,0 -0.0885197,-0.781122 -0.398496,-1.4959z"/>
   <path id="_47489184" class="fil5" d="M2.93744 3.63658l0 0.554142 0.206724 1.7826 -0.355476 0 -0.391087 -0.793972 0.373303 -0.248843 -0.456213 -0.213311c0,0 0.095748,-0.74822 0.622748,-1.08062z"/>
   <path id="_47489232" class="fil1" d="M3.88926 3.10424l0 0.727421c-0.180067,0.131268 -0.353681,0.204819 -0.475913,0.204819 -0.122232,0 -0.295843,-0.0735512 -0.475909,-0.204819l0 -0.727421c0,-0.586677 0.951823,-0.586677 0.951823,0z"/>
   <path id="_47488608" class="fil5" d="M3.88926 3.63658l3.14961e-005 0.554142 -0.208791 1.7826 0.355476 0 0.391055 -0.793972 -0.373272 -0.248843 0.456213 -0.213311c0,0 -0.170142,-0.786465 -0.620713,-1.08062z"/>
   <path id="_47488464" class="fil2" d="M3.41335 1.15361c-1.59733,0 -1.0229,1.93006 -0.918555,2.08371 0.115035,0.169402 0.660484,0.618508 0.918555,0.618508 0.258075,0 0.80348,-0.449106 0.918516,-0.618508 0.104386,-0.153657 0.678815,-2.08371 -0.918516,-2.08371z"/>
   <path id="_47488776" class="fil0" d="M4.45413 2.80138c0,0 -0.104228,-0.569 -0.344528,-0.895315 -0.174091,0.382929 -0.346012,0.570449 -1.17298,0.765268 0.250335,-0.210012 0.366807,-0.525043 0.37872,-0.695591 -0.535406,0.147575 -0.866106,0.564953 -0.94876,0.84748 -0.250846,-0.43648 -0.021315,-1.09449 0.151634,-1.34324 0.333795,-0.480055 1.15147,-0.596646 1.63981,-0.160114 0.33885,0.302933 0.478425,0.235583 0.296102,1.48151z"/>
   <path id="_47488392" class="fil5" d="M2.09948 5.97333l0.075937 0c-0.0033937,-0.337717 -0.0033937,-0.58111 -0.0033937,-0.58111 0,0 -0.0336378,0.252957 -0.0725433,0.58111z"/>
   <path id="_47489112" class="fil5" d="M4.72722 5.97333l-0.0759803 0c0.0033937,-0.337717 0.0033937,-0.58111 0.0033937,-0.58111 0,0 0.0336378,0.252957 0.0725866,0.58111z"/>
   <path id="_47488896" class="fil6" d="M3.08689 3.27954c0.138087,-0.101016 0.282217,-0.0412559 0.330394,-0.0412559 0.0482008,0 0.184366,-0.0597598 0.32248,0.0412559 -0.0687283,0.277756 -0.548886,0.284764 -0.652874,0z"/>
   <path id="_47489016" class="fil7" d="M3.09103 3.27807c0.128193,-0.0452126 0.241504,0.043315 0.32215,0.043315 0.0806496,0 0.194256,-0.118878 0.322445,-0.0388031 -0.150217,0.153122 -0.493358,0.144827 -0.644594,-0.00451181z"/>
   <path id="_47489064" class="fil8" d="M3.08688 3.27807c0.138114,-0.0569606 0.239728,-0.0156732 0.320386,-0.0156732 0.0806457,0 0.194402,-0.0412874 0.332516,0.0156732 -0.15022,0.0857677 -0.501638,0.0828898 -0.652902,0z"/>
   <path id="_47488944" class="fil6" d="M3.08756 3.27858c0.137453,-0.0997047 0.255492,-0.0305236 0.335992,-0.0305236 0.0805276,0 0.177445,-0.0695354 0.315559,0.0314803 -0.000480315,0.00140551 -0.00107874,0.00277953 -0.00159055,0.00416535 -0.176063,-0.00314961 -0.464213,-0.00494094 -0.649961,-0.00512205z"/>
   <polygon id="_47488824" class="fil9" points="1.81439,5.21766 1.81439,5.21765 1.81813,5.21889 "/>
   <line id="_47487816" class="fil10" x1="4.65981" y1="4.89764" x2="4.6598" y2= "4.89764" />
   <line id="_47487600" class="fil10" x1="4.65856" y1="4.81409" x2="4.65856" y2= "4.81409" />
   <line id="_47488296" class="fil10" x1="4.74457" y1="4.98057" x2="4.74457" y2= "4.98057" />
   <line id="_47487888" class="fil10" x1="4.82812" y1="4.97932" x2="4.82812" y2= "4.97933" />
   <path id="_47488320" class="fil11" d="M2.23176 1.00818c0.38478,-0.103583 0.771587,-0.155024 1.16037,-0.154846 0.387949,0.000177165 0.776425,0.0519724 1.16541,0.154846l0.103461 0.0273622 -0.0160906 0.0792008 -0.116185 0.571752 -0.017126 0.084252 -0.11524 0 -2.00237 0 -0.115244 0 -0.017122 -0.084252 -0.116193 -0.571752 -0.0160512 -0.079 0.102382 -0.027563z"/>
   <polygon id="_47488104" class="fil12" points="3.29752,0.969965 3.49285,0.969965 3.49285,1.21437 3.73725,1.21437 3.73725,1.40971 3.49285,1.40971 3.49285,1.65411 3.29752,1.65411 3.29752,1.40971 3.05311,1.40971 3.05311,1.21437 3.29752,1.21437 "/>
  </g>
  <rect class="fil13" x="0.0364567" y="-0.00520866" width="6.82666" height="6.82666"/>
 </g>
</svg>
