<?xml version="1.0" encoding="UTF-8"?>
<!DOCTYPE svg PUBLIC "-//W3C//DTD SVG 1.1//EN" "http://www.w3.org/Graphics/SVG/1.1/DTD/svg11.dtd">
<!-- Creator: CorelDRAW -->
<svg xmlns="http://www.w3.org/2000/svg" xml:space="preserve" width="6.82666in" height="6.82666in" style="shape-rendering:geometricPrecision; text-rendering:geometricPrecision; image-rendering:optimizeQuality; fill-rule:evenodd; clip-rule:evenodd"
viewBox="0 0 6.82666 6.82666"
 xmlns:xlink="http://www.w3.org/1999/xlink">
 <defs>
  <style type="text/css">
   <![CDATA[
    .fil16 {fill:none}
    .fil7 {fill:#009688}
    .fil12 {fill:#2962FF}
    .fil0 {fill:#424242}
    .fil11 {fill:#4CAF50}
    .fil4 {fill:#A31F3F}
    .fil9 {fill:#B0BEC5}
    .fil8 {fill:#C8E6C9}
    .fil6 {fill:#C96981}
    .fil3 {fill:#E67E98}
    .fil2 {fill:#F6C4AA}
    .fil5 {fill:#FCE4EC}
    .fil13 {fill:#FF1744}
    .fil10 {fill:#FFC400}
    .fil1 {fill:#FFDDCC}
    .fil15 {fill:#263238;fill-rule:nonzero}
    .fil14 {fill:#795548;fill-rule:nonzero}
   ]]>
  </style>
 </defs>
 <g id="Layer_x0020_1">
  <metadata id="CorelCorpID_0Corel-Layer"/>
  <g id="_47479536">
   <path id="_489894368" class="fil0" d="M4.04067 1.94756c-0.528201,-0.135496 -0.628547,-0.383449 -0.959992,-0.4865 -0.359646,-0.111854 -0.693008,0.105531 -0.844193,0.265122 0.136291,0.14989 1.10913,0.698358 1.80419,0.221378z"/>
   <path id="_489894200" class="fil0" d="M4.24531 2.66862c-0.209268,-0.171547 -0.168185,-0.34163 -0.287559,-0.471685 -0.541594,-0.590079 -1.48575,-0.64385 -1.72127,-0.470756 0.107484,0.171744 1.24003,1.28834 2.00883,0.942441z"/>
   <path id="_489894272" class="fil0" d="M4.1672 3.16548c-0.142071,-1.01526 -1.61462,-1.60463 -1.93072,-1.4393 0.0802362,0.186031 1.11846,1.66486 1.93072,1.4393z"/>
   <path id="_489894896" class="fil0" d="M1.52527 2.1699c0.303524,0.0155118 0.799768,-0.161256 0.711213,-0.443717 -0.30211,-0.0321142 -0.384433,-0.0118268 -0.536587,0.264437 -0.0352795,0.0640276 -0.0875394,0.116807 -0.174626,0.17928z"/>
   <path id="_489894392" class="fil0" d="M1.41147 2.77869c0.41165,-0.124925 0.815587,-0.697268 0.825008,-1.05251 -0.148205,0.069126 -0.638953,0.198091 -0.657815,0.677465 -0.00422835,0.107307 -0.100681,0.308929 -0.167193,0.375043z"/>
   <path id="_489894824" class="fil0" d="M1.48 3.2109c0.593701,-0.17165 0.814937,-1.13419 0.756476,-1.48472 -0.124362,0.0903386 -0.504657,0.492512 -0.673969,0.989173 -0.0538465,0.157945 -0.00583465,0.337854 -0.0825079,0.495547z"/>
   <path id="_489893528" class="fil0" d="M3.93719 3.75628c0.287295,-1.16451 -1.36438,-2.14902 -1.7007,-2.0301 0.0530984,0.195496 0.864677,2.13845 1.7007,2.0301z"/>
   <path id="_489893696" class="fil0" d="M1.7641 3.81698c0.746138,-0.632343 0.748343,-1.86482 0.472378,-2.0908 -0.139677,0.146736 -0.998307,1.43196 -0.472378,2.0908z"/>
   <path id="_489894104" class="fil0" d="M2.14553 4.24889c0.631441,-0.746976 0.40052,-2.34545 0.0909488,-2.52271 -0.11352,0.167795 -0.718504,1.95987 -0.0909488,2.52271z"/>
   <path id="_489893936" class="fil0" d="M3.65256 4.2149c0.118508,-0.999677 -1.06342,-2.54231 -1.41608,-2.48872 0.0154016,0.202004 0.574579,2.43795 1.41608,2.48872z"/>
   <path id="_489893912" class="fil0" d="M2.52373 4.23414c0.512634,-0.832992 0.0453071,-2.37898 -0.287252,-2.50796 -0.0871417,0.182886 -0.417417,2.04523 0.287252,2.50796z"/>
   <path id="_489893600" class="fil0" d="M3.28843 4.38935c0.257941,-0.97311 -0.695256,-2.66659 -1.05194,-2.66317 -0.0131496,0.20215 0.225992,2.49455 1.05194,2.66317z"/>
   <path id="_489893864" class="fil1" d="M3.21488 4.12366c-0.00775591,0.0121575 -0.768492,0.0242795 -0.776886,0.036248 -0.238945,0.340882 -0.755185,0.490209 -1.16565,0.581996 -0.408528,0.0913346 -0.424346,0.610236 -0.424953,0.955823l3.98235 0c-0.000653543,-0.345587 -0.00820866,-0.862626 -0.424953,-0.955823 -0.416768,-0.093189 -0.963228,-0.261866 -1.1899,-0.618244z"/>
   <path id="_489893432" class="fil1" d="M3.23754 3.39572l0 0.977524c-0.219449,0.288433 -0.578496,0.278469 -0.797945,0l0 -0.977524c0,-0.527795 0.797945,-0.527795 0.797945,0z"/>
   <path id="_489893816" class="fil2" d="M3.23754 3.39572l0 0.654472c-0.150972,0.118122 -0.296496,0.184291 -0.398992,0.184291 -0.102469,0 -0.247988,-0.0661693 -0.398953,-0.184256l0 -0.654508c0,-0.527795 0.797945,-0.527795 0.797945,0z"/>
   <path id="_489893720" class="fil1" d="M2.83854 4.07189c-0.25974,0 -0.808547,-0.408417 -0.978177,-0.993335 -0.171295,-0.590661 0.151303,-1.43782 0.978177,-1.43782 0.826902,0 1.14954,0.847161 0.978209,1.43782 -0.169661,0.584917 -0.718394,0.993335 -0.978209,0.993335z"/>
   <path id="_489893672" class="fil3" d="M2.42446 3.47287c0.175169,-0.128157 0.358024,-0.0523228 0.41913,-0.0523228 0.0611496,0 0.23389,-0.0758346 0.409098,0.0523228 -0.087185,0.352319 -0.696307,0.36122 -0.828228,0z"/>
   <path id="_47474256" class="fil4" d="M2.4297 3.47101c0.162634,-0.0573543 0.30637,0.0549528 0.408681,0.0549528 0.102311,0 0.246433,-0.150807 0.409067,-0.0492126 -0.190567,0.194248 -0.62589,0.183713 -0.817748,-0.00574016z"/>
   <path id="_47485584" class="fil5" d="M2.42442 3.47101c0.175213,-0.072248 0.30413,-0.019878 0.406441,-0.019878 0.102311,0 0.246622,-0.0523701 0.421831,0.019878 -0.190598,0.108776 -0.636413,0.105157 -0.828272,0z"/>
   <path id="_47480184" class="fil6" d="M2.42526 3.46977c0.174417,-0.163161 0.324154,-0.0499528 0.42628,-0.0499528 0.102165,0 0.225118,-0.113807 0.400283,0.0515157 -0.000606299,0.00230709 -0.00133465,0.00457087 -0.00197638,0.00683071 -0.223362,-0.00514961 -0.588909,-0.00809843 -0.824587,-0.0083937z"/>
   <path id="_47479680" class="fil1" d="M1.67665 2.9393c0.0835787,-0.035874 0.201622,0.0521378 0.263689,0.196646 0.0620669,0.144543 0.0446575,0.290748 -0.0389213,0.326657 -0.0835787,0.035878 -0.201622,-0.0521378 -0.263689,-0.196677 -0.0620669,-0.144496 -0.0446142,-0.290717 0.0389213,-0.326626z"/>
   <path id="_47479320" class="fil1" d="M3.98246 2.9393c-0.0835433,-0.035874 -0.201587,0.0521811 -0.263654,0.196646 -0.0620669,0.144543 -0.0446575,0.290748 0.0389213,0.326626 0.0835669,0.0359094 0.201622,-0.0521496 0.263689,-0.196646 0.062063,-0.144496 0.0446102,-0.290717 -0.0389567,-0.326626z"/>
   <path id="_47479848" class="fil0" d="M1.83377 3.04477c-0.225264,-1.03412 0.499815,-1.48628 1.01652,-1.48628 0.581906,0 1.12776,0.636228 1.02958,1.42831 -0.300972,-0.142445 -0.469512,-0.180217 -0.749051,-0.509843 0.024063,0.102189 0.0432362,0.274827 0.259827,0.396567 -0.352008,0.0572323 -0.835862,-0.342488 -1.18533,-0.799677 -0.0834567,0.324992 -0.218189,0.761728 -0.371547,0.970917z"/>
   <path id="_47479824" class="fil7" d="M4.80446 5.26704c-0.0317402,-0.197594 -0.103835,-0.381882 -0.268862,-0.475457 -1.13091,0.372496 -2.26183,0.348291 -3.39274,0 -0.162181,0.0933071 -0.235114,0.277752 -0.268142,0.475535 0.310626,0.00847244 0.576024,0.182996 0.695335,0.43061l2.53703 0c0.119567,-0.248173 0.385878,-0.422933 0.697378,-0.430689z"/>
  </g>
  <g id="_47479200">
   <path id="_47479272" class="fil1" d="M1.9077 4.88495c-0.0555906,0.0281732 -0.0778228,0.0960827 -0.0496496,0.151673 0.0281732,0.0555945 0.0960827,0.0778228 0.151677,0.0496535 0.0555906,-0.0281732 0.0778189,-0.0960827 0.0496496,-0.151677 -0.0281732,-0.0555906 -0.0960827,-0.0778228 -0.151677,-0.0496496z"/>
   <path id="_47479176" class="fil8" d="M2.07022 5.00299c-0.0742126,-0.010874 -0.148425,-0.0232126 -0.222638,-0.0370276 -0.00412992,0.023248 -0.00102756,0.0479764 0.0104685,0.0706575 0.0281732,0.0555945 0.0960827,0.0778228 0.151677,0.0496535 0.0336457,-0.0170512 0.0550669,-0.0486614 0.0604921,-0.0832835z"/>
  </g>
  <g id="_47477880">
   <path id="_47479728" class="fil9" d="M5.71542 4.50353c0.130421,-0.0121339 0.218886,0.039689 0.235039,0.213256 0.0285236,0.30652 -0.0760827,0.596051 -0.268264,0.81635 -0.191031,0.218984 -0.468591,0.369268 -0.787394,0.398933 -0.3295,0.0306654 -0.634185,-0.0435 -0.863858,-0.224673 -0.212783,-0.167846 -0.358657,-0.425248 -0.397398,-0.77348 -0.0353858,-0.318075 0.109402,-0.588953 0.343039,-0.79852 0.228213,-0.204697 0.637933,-0.377012 0.948122,-0.448354 0.0982992,0.239894 0.197343,0.457433 0.295295,0.697394 -0.0201614,0.0109685 -0.124811,0.0674409 -0.142138,0.0791378 -0.051311,0.0346378 -0.0898031,0.0719685 -0.108547,0.110335 -0.0137402,0.0281299 -0.0151496,0.0590079 0.000208661,0.0920276 0.00374409,0.00805118 0.00812205,0.0159528 0.0131535,0.0236693 0.0456732,0.0612598 0.142587,0.0440433 0.251516,0.00241732 0.108157,-0.0419567 0.368787,-0.178028 0.481224,-0.188492zm-0.0295079 -0.757492c0.0917953,0.0419921 0.167272,0.100189 0.220343,0.175736 0.103063,0.146732 0.0750906,0.241394 -0.0167008,0.30587 -0.0769921,0.0540748 -0.200732,0.0631417 -0.307051,0.070937 -0.0137362,0.00100787 -0.126193,0.00373622 -0.138878,0.00479134 -0.0345433,-0.249272 -0.0883937,-0.619917 -0.0873071,-0.630051 0.0766614,0.0135551 0.266366,0.0437913 0.329594,0.0727165zm-1.38665 0.741358c0.0502638,-0.00467717 0.0976772,0.0114685 0.133697,0.0413504l3.54331e-005 0.000377953c0.0360157,0.0298937 0.060622,0.0733898 0.0652756,0.12339 0.00467717,0.0502638 -0.0114685,0.0976772 -0.0413543,0.133697 -0.0298819,0.0360157 -0.0735039,0.0606339 -0.123768,0.065311 -0.0500039,0.00465354 -0.0972913,-0.0115079 -0.133315,-0.0413898l-0.000377953 3.54331e-005c-0.0360157,-0.0298819 -0.0606339,-0.0735039 -0.065311,-0.123768 -0.00465354,-0.0500039 0.0115039,-0.0972913 0.0413858,-0.133315l0.00034252 -0.000413386c0.0298937,-0.0360157 0.0733898,-0.060622 0.12339,-0.0652756zm0.25078 0.599114c0.0593031,-0.00551575 0.116087,0.00637402 0.159941,0.0300591l0.000374016 -3.54331e-005c0.0561181,0.030311 0.093685,0.0796575 0.099378,0.140843 0.00569291,0.061189 -0.022122,0.116614 -0.0716811,0.15676l-0.000377953 3.54331e-005c-0.0387283,0.0313701 -0.0923425,0.0535354 -0.151646,0.0590512 -0.0593031,0.00551969 -0.116083,-0.00637008 -0.159937,-0.0300551l-0.000377953 3.54331e-005c-0.0561181,-0.030315 -0.0936811,-0.0796535 -0.099374,-0.140843 -0.00569291,-0.061189 0.0221181,-0.116614 0.0716811,-0.156764l0.000374016 -3.54331e-005c0.0387362,-0.0313661 0.0923465,-0.0535315 0.151646,-0.0590512zm0.617114 -0.0574252c0.0502638,-0.00467717 0.0976772,0.0114685 0.133693,0.0413504l3.54331e-005 0.000377953c0.0360197,0.0298937 0.060626,0.0733898 0.0652756,0.12339 0.0046811,0.0502638 -0.0114685,0.0976772 -0.0413504,0.133697 -0.0298858,0.0360157 -0.0735039,0.0606339 -0.123768,0.065311 -0.0500039,0.00465354 -0.0972913,-0.0115079 -0.133315,-0.0413898l-0.000377953 3.54331e-005c-0.0360157,-0.0298819 -0.0606339,-0.0735039 -0.065315,-0.123768 -0.00464961,-0.0500039 0.0115079,-0.0972913 0.0413898,-0.133315l0.00034252 -0.000413386c0.0298898,-0.0360157 0.0733858,-0.060622 0.12339,-0.0652756z"/>
   <path id="_47478696" class="fil10" d="M4.13415 4.6864c0.00467717,0.0502638 0.0292913,0.0938819 0.065311,0.123768l0.000374016 -3.54331e-005c0.0360276,0.0298819 0.0833189,0.0460433 0.133319,0.0413898 0.0502638,-0.0046811 0.0938858,-0.0292953 0.123768,-0.065311 0.0298858,-0.0360197 0.0460315,-0.0834291 0.0413504,-0.133697 -0.00464961,-0.0500039 -0.0292598,-0.0934961 -0.0652717,-0.12339l-3.93701e-005 -0.000377953c-0.0360157,-0.0298819 -0.0834291,-0.0460276 -0.133689,-0.0413504 -0.0500039,0.00465354 -0.0935,0.0292598 -0.123394,0.0652756l-0.00034252 0.000409449c-0.0298819,0.0360276 -0.0460394,0.0833189 -0.0413858,0.133319z"/>
   <path id="_47478480" class="fil11" d="M4.32634 5.30236c0.00569685,0.061185 0.0432598,0.110531 0.099378,0.140846l0.000374016 -3.54331e-005c0.0438543,0.0236811 0.100638,0.0355709 0.159937,0.0300512 0.0592992,-0.00551575 0.112917,-0.0276811 0.15165,-0.0590512l0.000374016 -3.54331e-005c0.0495591,-0.0401457 0.077374,-0.0955709 0.0716811,-0.15676 -0.00569291,-0.061185 -0.0432638,-0.110531 -0.099378,-0.140843l-0.000374016 3.54331e-005c-0.0438543,-0.0236811 -0.100638,-0.0355787 -0.159941,-0.0300591 -0.0593031,0.00551969 -0.112909,0.027685 -0.151646,0.0590551l-0.000374016 3.14961e-005c-0.049563,0.0401496 -0.077374,0.0955787 -0.0716811,0.156764z"/>
   <path id="_47479008" class="fil12" d="M5.00204 5.22809c0.00467717,0.0502638 0.0292992,0.0938819 0.065315,0.123768l0.000377953 -3.54331e-005c0.0360236,0.0298819 0.083311,0.0460433 0.133315,0.0413937 0.0502598,-0.0046811 0.0938819,-0.0292992 0.123768,-0.065315 0.0298819,-0.0360157 0.0460315,-0.0834331 0.0413543,-0.133697 -0.00465354,-0.0500039 -0.0292598,-0.0934961 -0.0652795,-0.123394l-3.93701e-005 -0.000370079c-0.0360079,-0.0298858 -0.0834252,-0.0460315 -0.133689,-0.0413543 -0.0500039,0.00464961 -0.0934961,0.0292598 -0.12339,0.0652756l-0.00034252 0.000413386c-0.0298858,0.0360236 -0.0460433,0.083311 -0.0413898,0.133315z"/>
   <path id="_47478936" class="fil13" d="M4.60698 4.35385c0.00447244,0.0351811 0.0280157,0.0657087 0.0624646,0.086626l0.000358268 -2.3622e-005c0.0344567,0.0209134 0.079685,0.0322283 0.127504,0.0289685 0.0480709,-0.00327559 0.0897913,-0.0205039 0.11837,-0.0457126 0.0285827,-0.0252126 0.0440236,-0.0583937 0.0395472,-0.0935787 -0.00444882,-0.035 -0.0279843,-0.0654409 -0.0624252,-0.0863622l-3.93701e-005 -0.000267717c-0.0344449,-0.0209134 -0.0797913,-0.0322126 -0.127858,-0.0289409 -0.0478228,0.00325591 -0.0894213,0.0204803 -0.118012,0.045689l-0.000326772 0.000287402c-0.0285787,0.0252165 -0.0440315,0.058315 -0.0395827,0.093315z"/>
   <g>
    <path id="_47478528" class="fil14" d="M5.31993 4.65508c-0.186882,-0.494618 -0.492323,-1.11571 -0.612075,-1.5986 -0.237307,-0.956764 0.307831,-1.08816 0.544303,-0.134756l0.243437 1.65404 -0.175665 0.079311z"/>
    <path id="_47478984" class="fil15" d="M4.9695 2.22352c-0.0394134,0.075437 -0.108996,0.116402 -0.179154,0.133799 -0.0695748,0.017252 -0.150854,0.015248 -0.221839,-0.0318858 -0.149516,-0.0992835 -0.145642,-0.215906 -0.10402,-0.339539 0.0962874,-0.286012 -0.0900591,-0.497484 -0.0558346,-0.542173 0.0174882,-0.0228346 0.0767913,-0.0298465 0.142634,0.00374803 0.26113,0.155642 0.592587,0.442327 0.418213,0.776051z"/>
    <path id="_47478552" class="fil9" d="M4.69911 2.36699c-0.0615669,0.121717 -0.0741614,0.355232 0.00874409,0.689492 0.00403937,0.0162795 0.0082874,0.0327205 0.0127323,0.0493031 0.208787,0.0150945 0.38689,-0.0392913 0.534787,-0.162213l-0.00321654 -0.0218465c-0.0883701,-0.356287 -0.219846,-0.561083 -0.337488,-0.627917 -0.0363071,0.0322992 -0.0802047,0.052563 -0.124331,0.0635039 -0.0289134,0.00717323 -0.0598504,0.0110157 -0.0912283,0.00967717z"/>
   </g>
  </g>
  <circle class="fil8" cx="1.51598" cy="5.2547" r="0.0763858"/>
  <circle class="fil8" cx="2.94001" cy="5.55103" r="0.0763858"/>
  <circle class="fil8" cx="3.10837" cy="5.31835" r="0.0763858"/>
  <circle class="fil8" transform="matrix(-0.892001 0.452033 0.452033 0.892001 1.15875 4.89301)" r="0.0763858"/>
  <circle class="fil8" cx="1.71778" cy="5.38608" r="0.11285"/>
  <circle class="fil8" transform="matrix(1.02043 -0.517113 -0.517113 -1.02043 3.4334 5.4115)" r="0.0763858"/>
  <circle class="fil8" cx="2.8289" cy="5.32186" r="0.11285"/>
  <circle class="fil8" cx="3.21949" cy="5.54752" r="0.11285"/>
  <circle class="fil8" cx="2.06848" cy="5.43817" r="0.149315"/>
  <circle class="fil8" transform="matrix(1.74364 -0.883609 -0.883609 -1.74364 1.21226 5.14054)" r="0.0763858"/>
  <circle class="fil8" cx="2.4782" cy="5.26977" r="0.116295"/>
  <circle class="fil8" cx="3.68648" cy="5.59961" r="0.0624921"/>
  <circle class="fil8" transform="matrix(-1.35805 0.688207 0.688207 1.35805 1.65385 5.10554)" r="0.0763858"/>
  <circle class="fil8" cx="2.41918" cy="5.49026" r="0.0329764"/>
  <circle class="fil8" cx="3.18997" cy="5.12739" r="0.0329764"/>
  <circle class="fil8" cx="2.34623" cy="5.5996" r="0.0486102"/>
  <circle class="fil8" cx="3.67086" cy="5.36349" r="0.0486102"/>
  <circle class="fil8" transform="matrix(0.385084 -0.195146 -0.195146 -0.385084 1.50154 4.93555)" r="0.0763858"/>
  <circle class="fil8" cx="2.1275" cy="5.21769" r="0.0329764"/>
  <circle class="fil8" transform="matrix(-0.385084 0.195146 0.195146 0.385084 1.36457 5.31053)" r="0.0763858"/>
  <circle class="fil8" cx="1.80457" cy="5.64821" r="0.0495118"/>
  <circle class="fil8" cx="2.62922" cy="5.5996" r="0.0329764"/>
  <circle class="fil8" cx="3.3775" cy="5.13089" r="0.0329764"/>
  <circle class="fil8" cx="2.48114" cy="5.62823" r="0.0182559"/>
  <circle class="fil8" cx="3.56725" cy="5.24115" r="0.0182559"/>
  <rect class="fil16" x="0.0364567" y="-0.00520866" width="6.82666" height="6.82666"/>
 </g>
</svg>
