<?xml version="1.0" encoding="UTF-8"?>
<!DOCTYPE svg PUBLIC "-//W3C//DTD SVG 1.1//EN" "http://www.w3.org/Graphics/SVG/1.1/DTD/svg11.dtd">
<!-- Creator: CorelDRAW -->
<svg xmlns="http://www.w3.org/2000/svg" xml:space="preserve" width="6.82666in" height="6.82666in" style="shape-rendering:geometricPrecision; text-rendering:geometricPrecision; image-rendering:optimizeQuality; fill-rule:evenodd; clip-rule:evenodd"
viewBox="0 0 6.82666 6.82666"
 xmlns:xlink="http://www.w3.org/1999/xlink">
 <defs>
  <style type="text/css">
   <![CDATA[
    .fil14 {fill:none}
    .fil1 {fill:#0097A7}
    .fil13 {fill:#212121}
    .fil5 {fill:#2962FF}
    .fil0 {fill:#29B6F6}
    .fil4 {fill:#4CAF50}
    .fil2 {fill:#B0BEC5}
    .fil12 {fill:#C62828}
    .fil11 {fill:#E53935}
    .fil10 {fill:#F6C4AA}
    .fil6 {fill:#FF1744}
    .fil3 {fill:#FFC400}
    .fil9 {fill:#FFDDCC}
    .fil8 {fill:#263238;fill-rule:nonzero}
    .fil7 {fill:#795548;fill-rule:nonzero}
   ]]>
  </style>
 </defs>
 <g id="Layer_x0020_1">
  <metadata id="CorelCorpID_0Corel-Layer"/>
  <g id="_489895208">
   <path id="_489896480" class="fil0" d="M2.41394 3.85946c-0.861768,0.377799 -1.12025,0.579217 -1.22246,0.669634 -0.157476,0.139346 -0.244571,0.658764 -0.337449,1.09978l1.94969 0 1.9497 0c-0.0929055,-0.441016 -0.180012,-0.960453 -0.337476,-1.09978 -0.102185,-0.0904173 -0.351228,-0.286657 -1.21297,-0.664457l-0.789031 -0.00517717z"/>
   <path id="_489896912" class="fil1" d="M1.64858 5.62887l0.0668031 0c-0.00298425,-0.296925 -0.00302362,-0.510917 -0.00302362,-0.510917 0,0 -0.0295748,0.222386 -0.0637795,0.510917z"/>
   <path id="_489897080" class="fil1" d="M3.95887 5.62887l-0.0668031 0c0.00298425,-0.296925 0.00298425,-0.510917 0.00298425,-0.510917 0,0 0.0295748,0.222386 0.0638189,0.510917z"/>
   <g>
    <path id="_489897176" class="fil2" d="M5.71612 4.34152c0.130421,-0.0121339 0.218886,0.039689 0.235039,0.213256 0.0285236,0.30652 -0.0760827,0.596051 -0.268264,0.81635 -0.191031,0.218984 -0.468591,0.369268 -0.787394,0.398933 -0.3295,0.0306654 -0.634185,-0.0435 -0.863858,-0.224673 -0.212783,-0.167846 -0.358657,-0.425248 -0.397398,-0.77348 -0.0353858,-0.318075 0.109402,-0.588953 0.343039,-0.79852 0.228213,-0.204697 0.637933,-0.377012 0.948122,-0.448354 0.0982992,0.239894 0.197343,0.457433 0.295295,0.697394 -0.0201614,0.0109685 -0.124811,0.0674409 -0.142138,0.0791378 -0.051311,0.0346378 -0.0898031,0.0719685 -0.108547,0.110335 -0.0137402,0.0281299 -0.0151496,0.0590079 0.000208661,0.0920276 0.00374409,0.00805118 0.00812205,0.0159528 0.0131535,0.0236693 0.0456732,0.0612598 0.142587,0.0440433 0.251516,0.00241732 0.108157,-0.0419567 0.368787,-0.178028 0.481224,-0.188492zm-0.0295079 -0.757492c0.0917953,0.0419921 0.167272,0.100189 0.220343,0.175736 0.103063,0.146732 0.0750906,0.241394 -0.0167008,0.30587 -0.0769921,0.0540748 -0.200732,0.0631417 -0.307051,0.070937 -0.0137362,0.00100787 -0.126193,0.00373622 -0.138878,0.00479134 -0.0345433,-0.249272 -0.0883937,-0.619917 -0.0873071,-0.630051 0.0766614,0.0135551 0.266366,0.0437913 0.329594,0.0727165zm-1.38665 0.741358c0.0502638,-0.00467717 0.0976772,0.0114685 0.133697,0.0413504l3.54331e-005 0.000377953c0.0360157,0.0298937 0.060622,0.0733898 0.0652756,0.12339 0.00467717,0.0502638 -0.0114685,0.0976772 -0.0413543,0.133697 -0.0298819,0.0360157 -0.0735039,0.0606339 -0.123768,0.065311 -0.0500039,0.00465354 -0.0972913,-0.0115079 -0.133315,-0.0413898l-0.000377953 3.54331e-005c-0.0360157,-0.0298819 -0.0606339,-0.0735039 -0.065311,-0.123768 -0.00465354,-0.0500039 0.0115039,-0.0972913 0.0413858,-0.133315l0.00034252 -0.000413386c0.0298937,-0.0360157 0.0733898,-0.060622 0.12339,-0.0652756zm0.25078 0.599114c0.0593031,-0.00551575 0.116087,0.00637402 0.159941,0.0300591l0.000374016 -3.54331e-005c0.0561181,0.030311 0.093685,0.0796575 0.099378,0.140843 0.00569291,0.061189 -0.022122,0.116614 -0.0716811,0.15676l-0.000377953 3.54331e-005c-0.0387283,0.0313701 -0.0923425,0.0535354 -0.151646,0.0590512 -0.0593031,0.00551969 -0.116083,-0.00637008 -0.159937,-0.0300551l-0.000377953 3.54331e-005c-0.0561181,-0.030315 -0.0936811,-0.0796535 -0.099374,-0.140843 -0.00569291,-0.061189 0.0221181,-0.116614 0.0716811,-0.156764l0.000374016 -3.54331e-005c0.0387362,-0.0313661 0.0923465,-0.0535315 0.151646,-0.0590512zm0.617114 -0.0574252c0.0502638,-0.00467717 0.0976772,0.0114685 0.133693,0.0413504l3.54331e-005 0.000377953c0.0360197,0.0298937 0.060626,0.0733898 0.0652756,0.12339 0.0046811,0.0502638 -0.0114685,0.0976772 -0.0413504,0.133697 -0.0298858,0.0360157 -0.0735039,0.0606339 -0.123768,0.065311 -0.0500039,0.00465354 -0.0972913,-0.0115079 -0.133315,-0.0413898l-0.000377953 3.54331e-005c-0.0360157,-0.0298819 -0.0606339,-0.0735039 -0.065315,-0.123768 -0.00464961,-0.0500039 0.0115079,-0.0972913 0.0413898,-0.133315l0.00034252 -0.000413386c0.0298898,-0.0360157 0.0733858,-0.060622 0.12339,-0.0652756z"/>
    <path id="_489896552" class="fil3" d="M4.13485 4.52439c0.00467717,0.0502638 0.0292913,0.0938819 0.065311,0.123768l0.000374016 -3.54331e-005c0.0360276,0.0298819 0.0833189,0.0460433 0.133319,0.0413898 0.0502638,-0.0046811 0.0938858,-0.0292953 0.123768,-0.065311 0.0298858,-0.0360197 0.0460315,-0.0834291 0.0413504,-0.133697 -0.00464961,-0.0500039 -0.0292598,-0.0934961 -0.0652717,-0.12339l-3.93701e-005 -0.000377953c-0.0360157,-0.0298819 -0.0834291,-0.0460276 -0.133689,-0.0413504 -0.0500039,0.00465354 -0.0935,0.0292598 -0.123394,0.0652756l-0.00034252 0.000409449c-0.0298819,0.0360276 -0.0460394,0.0833189 -0.0413858,0.133319z"/>
    <path id="_489897056" class="fil4" d="M4.32705 5.14035c0.00569685,0.061185 0.0432598,0.110531 0.099378,0.140846l0.000374016 -3.54331e-005c0.0438543,0.0236811 0.100638,0.0355709 0.159937,0.0300512 0.0592992,-0.00551575 0.112917,-0.0276811 0.15165,-0.0590512l0.000374016 -3.54331e-005c0.0495591,-0.0401457 0.077374,-0.0955709 0.0716811,-0.15676 -0.00569291,-0.061185 -0.0432638,-0.110531 -0.099378,-0.140843l-0.000374016 3.54331e-005c-0.0438543,-0.0236811 -0.100638,-0.0355787 -0.159941,-0.0300591 -0.0593031,0.00551969 -0.112909,0.027685 -0.151646,0.0590551l-0.000374016 3.14961e-005c-0.049563,0.0401496 -0.077374,0.0955787 -0.0716811,0.156764z"/>
    <path id="_489897032" class="fil5" d="M5.00274 5.06607c0.00467717,0.0502638 0.0292992,0.0938819 0.065315,0.123768l0.000377953 -3.54331e-005c0.0360236,0.0298819 0.083311,0.0460433 0.133315,0.0413937 0.0502598,-0.0046811 0.0938819,-0.0292992 0.123768,-0.065315 0.0298819,-0.0360157 0.0460315,-0.0834331 0.0413543,-0.133697 -0.00465354,-0.0500039 -0.0292598,-0.0934961 -0.0652795,-0.123394l-3.93701e-005 -0.000370079c-0.0360079,-0.0298858 -0.0834252,-0.0460315 -0.133689,-0.0413543 -0.0500039,0.00464961 -0.0934961,0.0292598 -0.12339,0.0652756l-0.00034252 0.000413386c-0.0298858,0.0360236 -0.0460433,0.083311 -0.0413898,0.133315z"/>
    <path id="_489896024" class="fil6" d="M4.60769 4.19183c0.00447244,0.0351811 0.0280157,0.0657087 0.0624646,0.086626l0.000358268 -2.3622e-005c0.0344567,0.0209134 0.079685,0.0322283 0.127504,0.0289685 0.0480709,-0.00327559 0.0897913,-0.0205039 0.11837,-0.0457126 0.0285827,-0.0252126 0.0440236,-0.0583937 0.0395472,-0.0935787 -0.00444882,-0.035 -0.0279843,-0.0654409 -0.0624252,-0.0863622l-3.93701e-005 -0.000267717c-0.0344449,-0.0209134 -0.0797913,-0.0322126 -0.127858,-0.0289409 -0.0478228,0.00325591 -0.0894213,0.0204803 -0.118012,0.045689l-0.000326772 0.000287402c-0.0285787,0.0252165 -0.0440315,0.058315 -0.0395827,0.093315z"/>
    <g>
     <path id="_489896000" class="fil7" d="M5.32064 4.49307c-0.186882,-0.494618 -0.492323,-1.11571 -0.612075,-1.5986 -0.237307,-0.956764 0.307831,-1.08816 0.544303,-0.134756l0.243437 1.65404 -0.175665 0.079311z"/>
     <path id="_489895880" class="fil8" d="M4.9702 2.0615c-0.0394134,0.075437 -0.108996,0.116402 -0.179154,0.133799 -0.0695748,0.017252 -0.150854,0.015248 -0.221839,-0.0318858 -0.149516,-0.0992835 -0.145642,-0.215906 -0.10402,-0.339539 0.0962874,-0.286012 -0.0900591,-0.497484 -0.0558346,-0.542173 0.0174882,-0.0228346 0.0767913,-0.0298465 0.142634,0.00374803 0.26113,0.155642 0.592587,0.442327 0.418213,0.776051z"/>
     <path id="_489896168" class="fil2" d="M4.69982 2.20498c-0.0615669,0.121717 -0.0741614,0.355232 0.00874409,0.689492 0.00403937,0.0162795 0.0082874,0.0327205 0.0127323,0.0493031 0.208787,0.0150945 0.38689,-0.0392913 0.534787,-0.162213l-0.00321654 -0.0218465c-0.0883701,-0.356287 -0.219846,-0.561083 -0.337488,-0.627917 -0.0363071,0.0322992 -0.0802047,0.052563 -0.124331,0.0635039 -0.0289134,0.00717323 -0.0598504,0.0110157 -0.0912283,0.00967717z"/>
    </g>
   </g>
   <path id="_489896336" class="fil9" d="M2.41394 3.85946c-0.125287,0.0549252 -0.237736,0.106098 -0.338894,0.153768 0.102346,0.233665 0.389909,0.401976 0.728673,0.401976 0.338496,0 0.625878,-0.168043 0.728437,-0.401417 -0.0984252,-0.046252 -0.207713,-0.0958937 -0.329185,-0.14915l-0.789031 -0.00517717z"/>
   <path id="_489895952" class="fil9" d="M3.22214 3.10639l0 0.955236c-0.230142,0.281854 -0.606689,0.272102 -0.836831,0l0 -0.955236c0,-0.51578 0.836831,-0.51578 0.836831,0z"/>
   <path id="_489895088" class="fil10" d="M3.22214 3.09321l0 0.639551c-0.158343,0.115402 -0.310949,0.180083 -0.418417,0.180083 -0.107465,0 -0.260102,-0.0646811 -0.418413,-0.180075l0 -0.639559c0,-0.51578 0.836831,-0.51578 0.836831,0z"/>
   <path id="_489895664" class="fil11" d="M3.907 2.07982l-0.363244 0.0423661c0.0277323,0.281366 -0.207307,0.474508 -0.32339,0.474508l-0.839697 0c-0.116063,0 -0.351102,-0.193142 -0.323398,-0.474508l-0.343504 0.0283701c-0.254016,-0.198496 0.0808268,-1.14962 0.788988,-1.0987 0.965492,0.0694213 1.62131,0.50528 1.40424,1.02797z"/>
   <path id="_489895616" class="fil12" d="M2.7998 2.69452c0.612173,0 1.11148,-0.304382 1.11148,-0.677587 0,-0.373197 -0.499311,-0.677587 -1.11148,-0.677587 -0.612169,0 -1.11148,0.30439 -1.11148,0.677587 0,0.373205 0.499307,0.677587 1.11148,0.677587z"/>
   <path id="_489895568" class="fil9" d="M2.80372 1.53721c-1.40435,0 -0.899323,1.5511 -0.807587,1.68616 0.0935906,0.137823 0.362854,0.489146 0.702457,0.510476 0.0373228,0.00234252 0.15963,-0.00425591 0.197677,-0.000649606 0.401343,0.0380276 0.617846,-0.366705 0.715039,-0.509827 0.0917402,-0.135083 0.596744,-1.68616 -0.807587,-1.68616z"/>
   <path id="_489895040" class="fil10" d="M2.35661 3.14284c0.299008,0.0768661 0.646075,0.0644016 0.90052,0 -0.0830276,0.274787 -0.741744,0.281461 -0.90052,0z"/>
   <path id="_489895472" class="fil13" d="M3.69517 2.23483c-0.00376378,-0.169154 -0.18302,-0.485102 -0.300539,-0.536563 -0.117516,-0.0514685 -0.711925,0.0128031 -1.01882,0.183803 -0.331902,0.184886 -0.470469,0.390866 -0.463626,0.557657 0.00483071,0.117079 -0.0449055,0.0451535 -0.0770787,0.0348937 -0.00674016,-0.174154 0.00194882,-0.529457 0.048937,-0.687283 0.0503307,-0.169059 0.486055,-0.270024 0.95613,-0.263697 0.47011,0.00631496 0.649433,0.0742402 0.812996,0.172339 0.116193,0.0696811 0.174984,0.791961 0.0717087,0.75398 -0.0390827,-0.0143622 -0.0275039,-0.117224 -0.0297087,-0.21513z"/>
   <path id="_489895280" class="fil9" d="M1.73445 2.41202c0.0736772,-0.0242598 0.167457,0.059374 0.209417,0.186831 0.0419606,0.127441 0.016248,0.250429 -0.0574646,0.274713 -0.0736732,0.0242756 -0.167453,-0.0593543 -0.209417,-0.186815 -0.0419606,-0.127457 -0.0162441,-0.250445 0.0574646,-0.274728z"/>
   <path id="_489895376" class="fil9" d="M3.88909 2.41203c-0.0737126,-0.0242756 -0.167465,0.0593583 -0.209453,0.186815 -0.0419646,0.127441 -0.016248,0.250437 0.0574528,0.274713 0.0737126,0.0242756 0.167492,-0.059374 0.209453,-0.186815 0.0419646,-0.127457 0.016248,-0.250453 -0.0574528,-0.274713z"/>
  </g>
  <rect class="fil14" x="0.0364567" y="-0.00520866" width="6.82666" height="6.82666"/>
 </g>
</svg>
