<?xml version="1.0" encoding="UTF-8"?>
<!DOCTYPE svg PUBLIC "-//W3C//DTD SVG 1.1//EN" "http://www.w3.org/Graphics/SVG/1.1/DTD/svg11.dtd">
<!-- Creator: CorelDRAW -->
<svg xmlns="http://www.w3.org/2000/svg" xml:space="preserve" width="6.82666in" height="6.82666in" style="shape-rendering:geometricPrecision; text-rendering:geometricPrecision; image-rendering:optimizeQuality; fill-rule:evenodd; clip-rule:evenodd"
viewBox="0 0 6.82666 6.82666"
 xmlns:xlink="http://www.w3.org/1999/xlink">
 <defs>
  <style type="text/css">
   <![CDATA[
    .fil17 {fill:none}
    .fil12 {fill:#122129}
    .fil16 {fill:#1F2A30}
    .fil8 {fill:#212121}
    .fil10 {fill:#263238}
    .fil11 {fill:#37474F}
    .fil7 {fill:#5E35B1}
    .fil9 {fill:#7E57C2}
    .fil13 {fill:#90A4AE}
    .fil6 {fill:#9575CD}
    .fil3 {fill:#992C0B}
    .fil2 {fill:#BF360C}
    .fil14 {fill:#ECEFF1}
    .fil1 {fill:#F4511E}
    .fil5 {fill:#F6C4AA}
    .fil0 {fill:#FF7043}
    .fil15 {fill:#FF9800}
    .fil4 {fill:#FFDDCC}
   ]]>
  </style>
 </defs>
 <g id="Layer_x0020_1">
  <metadata id="CorelCorpID_0Corel-Layer"/>
  <g id="_489897368">
   <g>
    <path id="_489883976" class="fil0" d="M3.65118 3.66746c-0.861768,0.377799 -1.12025,0.579217 -1.22246,0.669634 -0.157476,0.139346 -0.244571,0.658764 -0.337449,1.09978l1.94969 0 1.9497 0c-0.0929055,-0.441016 -0.180012,-0.960453 -0.337476,-1.09978 -0.102185,-0.0904173 -0.351228,-0.286657 -1.21297,-0.664457l-0.789031 -0.00517717z"/>
    <path id="_489883904" class="fil1" d="M3.04835 3.9504l0 1.48647 -0.127386 0 0 -1.41984c0.0394016,-0.0211693 0.0817874,-0.0433622 0.127386,-0.0666299zm0.602831 -0.282941l0 0 -0.0260079 0.011437 0 1.75798 0.127374 0 0 -1.76874 -0.101366 -0.000669291zm-0.250728 0.112654l0 0c-0.0444291,0.0205118 -0.0868543,0.0403819 -0.127386,0.0596654l0 1.59709 0.127386 0 0 -1.65676zm-0.704209 0.365291l0 0c-0.0501969,0.0307874 -0.0920945,0.0582835 -0.127374,0.0828031l0 1.20867 0.127374 0 0 -1.29147zm-0.352102 0.313075l0 0c-0.0486457,0.0987874 -0.0898268,0.236488 -0.127374,0.39065l0 0.587744 0.127374 0 0 -0.978394zm1.63313 0.978394l0 0 0.063685 0 0.063689 0 0 -1.76645 -0.127374 -0.000826772 0 1.76728zm0.352102 0l0 0 0.127346 0 0 -1.75696 -0.0165118 -0.00727559 -0.110835 -0.000732283 0 1.76497zm0.352102 0l0 0 0.127374 0 0 -1.59645c-0.0405394,-0.0192126 -0.0829528,-0.0390433 -0.127374,-0.0594882l0 1.65594zm0.352094 0l0 0 0.127346 0 0 -1.41978c-0.0393661,-0.0210748 -0.081685,-0.0432047 -0.127346,-0.0664449l0 1.48622zm0.352102 0l0 0 0.127346 0 0 -1.20896c-0.035185,-0.0244843 -0.0770827,-0.0519961 -0.127346,-0.0827953l0 1.29175zm0.352106 0l0 0 0.127343 0 0 -0.587689c-0.0375197,-0.154217 -0.0787008,-0.291906 -0.127343,-0.390705l0 0.978394z"/>
    <path id="_489883544" class="fil1" d="M2.33181 4.48467l3.41826 0c0.017122,0.0379921 0.0333031,0.0807795 0.0487402,0.127346l-3.5157 0c0.015437,-0.0465669 0.0315906,-0.0893543 0.0487087,-0.127346z"/>
    <path id="_489883688" class="fil1" d="M2.21981 4.83676l3.64226 0c0.010185,0.0413661 0.0200748,0.0839606 0.0297717,0.127362l-3.7018 0c0.00969291,-0.0434016 0.0195866,-0.0859961 0.0297717,-0.127362z"/>
    <path id="_489883520" class="fil1" d="M2.14231 5.18886l3.79727 0c0.00872441,0.0425276 0.0174134,0.0851102 0.0260748,0.127362l-3.84942 0c0.00868898,-0.042252 0.0173465,-0.0848346 0.0260748,-0.127362z"/>
    <path id="_489882872" class="fil2" d="M2.33181 4.48467l0.0123228 0 0 0.127346 -0.0610315 0 0.00509055 -0.0151457 0.000106299 -0.000224409 0.00200394 -0.00593307 6.69291e-005 -0.000244094 0.00369685 -0.0105591 0.000318898 -0.000893701 0.000425197 -0.00121654 0.00298425 -0.00830315 0.000744094 -0.00200394 0 -6.69291e-005 0.00207874 -0.00562598 0.000161417 -0.00053937 0.00190945 -0.00509843 0.000358268 -0.000988189 0.000744094 -0.00203543 0.000779528 -0.00200394 0.000200787 -0.000574803 0.0012874 -0.00343701 0.000783465 -0.00200394 3.54331e-005 -0.000114173 0.000704724 -0.0018622 0.000783465 -0.00199606 0.000610236 -0.0016378 0.000133858 -0.000346457 0.000779528 -0.00196063 0.000744094 -0.00195669 0.000488189 -0.00118504 0.000291339 -0.000783465 0.000744094 -0.00195669 0.000783465 -0.00194882 0.000291339 -0.000732283 0.000488189 -0.00121654 0.000771654 -0.00192913 0.000783465 -0.00192913 9.44882e-005 -0.000251969 0.000685039 -0.00165748 0.000771654 -0.00191339 0.000716535 -0.00174803 6.69291e-005 -0.000161417 0.000779528 -0.00188189 0.000771654 -0.00190945 0.000519685 -0.00129921 0.00026378 -0.000586614 0.000779528 -0.00188189 0.000771654 -0.0018622 0.000358268 -0.000858268 0.000425197 -0.00100787 0.000807087 -0.0018622 0.000783465 -0.0018622 0.00015748 -0.000425197 0.000614173 -0.00141339 0.000818898 -0.00184252 0.000771654 -0.00183465 0.000779528 -0.0018189 0.000811024 -0.00183465 0.000622047 -0.00141339 0.00015748 -0.000401575 0.000811024 -0.00179921 0.000807087 -0.00179921 0.000425197 -0.000976378 0.000358268 -0.000811024 0.000807087 -0.00177953zm0.237051 0l0 0 0.127374 0 0 0.127346 -0.127374 0 0 -0.127346zm0.352094 0l0 0 0.127386 0 0 0.127346 -0.127386 0 0 -0.127346zm0.352102 0l0 0 0.127386 0 0 0.127346 -0.127386 0 0 -0.127346zm0.352106 0l0 0 0.127374 0 0 0.127346 -0.127374 0 0 -0.127346zm0.352102 0l0 0 0.127374 0 0 0.127346 -0.127374 0 0 -0.127346zm0.352102 0l0 0 0.127346 0 0 0.127346 -0.127346 0 0 -0.127346zm0.352102 0l0 0 0.127374 0 0 0.127346 -0.127374 0 0 -0.127346zm0.352094 0l0 0 0.127346 0 0 0.127346 -0.127346 0 0 -0.127346zm0.352102 0l0 0 0.127346 0 0 0.127346 -0.127346 0 0 -0.127346zm0.352106 0l0 0 0.0122913 0 0.000811024 0.00177953 0.000385827 0.000811024 0.00042126 0.000976378 0.000783465 0.00179921 0.000807087 0.00179921 0.000200787 0.00042126 0.000582677 0.0013937 0.000807087 0.00183465 0.000811024 0.0018189 0.000771654 0.00183465 0.000779528 0.00184252 0.000622047 0.00142126 0.000161417 0.000417323 0.000811024 0.0018622 0.000779528 0.0018622 0.000425197 0.00100787 0.000346457 0.000858268 0.000811024 0.0018622 0.000779528 0.00188189 0.000224409 0.000594488 0.000559055 0.00129134 0.000771654 0.00190945 0.000779528 0.00188189 6.69291e-005 0.000169291 0.000712598 0.00174016 0.000775591 0.00191339 0.00065748 0.00165748 0.000122047 0.000251969 0.000779528 0.00192913 0.000744094 0.00192913 0.000492126 0.00125197 0.000291339 0.00069685 0.000779528 0.00194882 0.000744094 0.00195669 0.000318898 0.00080315 0.00046063 0.00116535 0.000775591 0.00195669 0.000751969 0.00196063 0.00015748 0.000358268 0.000614173 0.00162598 0.000751969 0.00199606 0.000704724 0.00187402 6.69291e-005 0.000102362 0.000744094 0.00200394 0.00129921 0.00343701 0.000224409 0.000574803 0.000744094 0.00200394 0.000751969 0.00203543 0.000385827 0.000996063 0.000389764 0.00102756 0.00149606 0.00406299 0.00019685 0.000555118 0.000547244 0.00148819 0.000740157 0.00208268 0.000744094 0.00203937 3.93701e-005 8.66142e-005 0.000716535 0.00198425 6.29921e-005 0.000169291 0.00129134 0.00357874 0.000129921 0.000393701 0.00149606 0.00416142 0.000417323 0.00121654 0.000326772 0.000893701 0.000744094 0.0021063 0.000716535 0.00209843 0.000251969 0.000744094 0.00198819 0.00561024 9.44882e-005 0.000275591 0.00201181 0.00590157 5.90551e-005 0.000224409 0.00149606 0.00429134 0.000452756 0.00144882 0.000968504 0.00288189 0.000751969 0.00215354 0.000291339 0.00096063 0.000425197 0.00123622 0.000716535 0.00217323 -0.0610039 0 0 -0.127346z"/>
    <path id="_489882656" class="fil2" d="M2.21981 4.83676l0.124323 0 0 0.127362 -0.127374 0 0 -0.114976 0 -1.9685e-005 0.000188976 -0.000704724 0.000488189 -0.00194882 0.000492126 -0.00194882 0.000448819 -0.00194882 0.000161417 -0.000637795 0.000330709 -0.00129921 0.000448819 -0.00194882 0.000492126 -0.00192913zm0.349051 0l0 0 0.127374 0 0 0.127362 -0.127374 0 0 -0.127362zm0.352094 0l0 0 0.127386 0 0 0.127362 -0.127386 0 0 -0.127362zm0.352102 0l0 0 0.127386 0 0 0.127362 -0.127386 0 0 -0.127362zm0.352106 0l0 0 0.127374 0 0 0.127362 -0.127374 0 0 -0.127362zm0.352102 0l0 0 0.127374 0 0 0.127362 -0.127374 0 0 -0.127362zm0.352102 0l0 0 0.127346 0 0 0.127362 -0.127346 0 0 -0.127362zm0.352102 0l0 0 0.127374 0 0 0.127362 -0.127374 0 0 -0.127362zm0.352094 0l0 0 0.127346 0 0 0.127362 -0.127346 0 0 -0.127362zm0.352102 0l0 0 0.127346 0 0 0.127362 -0.127346 0 0 -0.127362zm0.352106 0l0 0 0.124295 0 0.000488189 0.00192913 0.000452756 0.00194882 0.000358268 0.00130709 0.000129921 0.000629921 0.000480315 0.00194882 0.000488189 0.00194882 0.000452756 0.00194882 0.00019685 0.000759843 0 0.114941 -0.127343 0 0 -0.127362z"/>
    <path id="_489883064" class="fil2" d="M2.21676 5.18886l0.127374 0 0 0.127362 -0.127374 0 0 -0.127362zm0.352102 0l0 0 0.127374 0 0 0.127362 -0.127374 0 0 -0.127362zm0.352094 0l0 0 0.127386 0 0 0.127362 -0.127386 0 0 -0.127362zm0.352102 0l0 0 0.127386 0 0 0.127362 -0.127386 0 0 -0.127362zm0.352106 0l0 0 0.127374 0 0 0.127362 -0.127374 0 0 -0.127362zm0.352102 0l0 0 0.127374 0 0 0.127362 -0.127374 0 0 -0.127362zm0.352102 0l0 0 0.127346 0 0 0.127362 -0.127346 0 0 -0.127362zm0.352102 0l0 0 0.127374 0 0 0.127362 -0.127374 0 0 -0.127362zm0.352094 0l0 0 0.127346 0 0 0.127362 -0.127346 0 0 -0.127362zm0.352102 0l0 0 0.127346 0 0 0.127362 -0.127346 0 0 -0.127362zm0.352106 0l0 0 0.127343 0 0 0.127362 -0.127343 0 0 -0.127362z"/>
    <path id="_489883088" class="fil3" d="M2.88581 5.43687l0.0668031 0c-0.00298425,-0.296925 -0.00302362,-0.510917 -0.00302362,-0.510917 0,0 -0.0295748,0.222386 -0.0637795,0.510917z"/>
    <path id="_489883208" class="fil3" d="M5.1961 5.43687l-0.0668031 0c0.00298425,-0.296925 0.00298425,-0.510917 0.00298425,-0.510917 0,0 0.0295748,0.222386 0.0638189,0.510917z"/>
    <path id="_489882776" class="fil4" d="M4.45937 2.91439l0 0.955236c-0.230142,0.281854 -0.606689,0.272102 -0.836831,0l0 -0.955236c0,-0.51578 0.836831,-0.51578 0.836831,0z"/>
    <path id="_489883304" class="fil5" d="M4.45937 3.00885l0 0.639551c-0.158343,0.115402 -0.310949,0.180083 -0.418417,0.180083 -0.107465,0 -0.260102,-0.0646811 -0.418413,-0.180075l0 -0.639559c0,-0.51578 0.836831,-0.51578 0.836831,0z"/>
    <path id="_489883160" class="fil6" d="M5.14424 1.88781l-0.363244 0.0423661c0.0277323,0.281366 -0.207307,0.474508 -0.32339,0.474508l-0.839697 0c-0.116063,0 -0.351102,-0.193142 -0.323398,-0.474508l-0.343504 0.0283701c-0.254016,-0.198496 0.0879488,-1.24567 0.788988,-1.0987 0.827992,0.173591 1.75465,0.217783 1.40424,1.02797z"/>
    <path id="_489882704" class="fil7" d="M4.03704 2.50252c0.612173,0 1.11148,-0.304382 1.11148,-0.677587 0.0645866,-0.46278 -0.378469,-0.617157 -1.01565,-0.587996 -0.204846,0 -0.509409,-0.0692323 -0.703823,-0.0149213 -0.362016,0.10115 -0.503492,0.354598 -0.503492,0.602917 0,0.373205 0.499307,0.677587 1.11148,0.677587z"/>
    <path id="_489883112" class="fil4" d="M4.04096 1.34521c-1.40435,0 -0.899323,1.5511 -0.807587,1.68616 0.0935906,0.137823 0.362854,0.489146 0.702457,0.510476 0.0373228,0.00234252 0.15963,-0.00425591 0.197677,-0.000649606 0.401343,0.0380276 0.617846,-0.366705 0.715039,-0.509827 0.0917402,-0.135083 0.596744,-1.68616 -0.807587,-1.68616z"/>
    <path id="_489882728" class="fil5" d="M3.59384 2.95083c0.299008,0.0768661 0.646075,0.0644016 0.90052,0 -0.0830276,0.274787 -0.741744,0.281461 -0.90052,0z"/>
    <path id="_489882344" class="fil8" d="M3.15344 2.04282c0.00376378,-0.169154 0.18302,-0.485102 0.300539,-0.536563 0.117516,-0.0514685 0.711925,0.0128031 1.01882,0.183803 0.331902,0.184886 0.470469,0.390866 0.463626,0.557657 -0.00483071,0.117079 0.0449055,0.0451535 0.0770787,0.0348937 0.00674016,-0.174154 -0.00194882,-0.529457 -0.048937,-0.687283 -0.0503307,-0.169059 -0.486055,-0.270024 -0.95613,-0.263697 -0.47011,0.00631496 -0.649433,0.0742402 -0.812996,0.172339 -0.116193,0.0696811 -0.174984,0.791961 -0.0717087,0.75398 0.0390827,-0.0143622 0.0275039,-0.117224 0.0297087,-0.21513z"/>
    <path id="_489882320" class="fil4" d="M2.97169 2.22001c0.0736772,-0.0242598 0.167457,0.059374 0.209417,0.186831 0.0419606,0.127441 0.016248,0.250429 -0.0574646,0.274713 -0.0736732,0.0242756 -0.167453,-0.0593543 -0.209417,-0.186815 -0.0419606,-0.127457 -0.0162441,-0.250445 0.0574646,-0.274728z"/>
    <path id="_489882296" class="fil4" d="M5.12633 2.22003c-0.0737126,-0.0242756 -0.167465,0.0593583 -0.209453,0.186815 -0.0419646,0.127441 -0.016248,0.250437 0.0574528,0.274713 0.0737126,0.0242756 0.167492,-0.059374 0.209453,-0.186815 0.0419646,-0.127457 0.016248,-0.250453 -0.0574528,-0.274713z"/>
    <path id="_489882008" class="fil9" d="M3.16995 3.87373c-0.40461,0 -0.488882,0.044626 -0.505748,0.282496 -0.0168307,0.237878 0.0293583,0.543823 0.282205,0.856035 0.252835,0.312228 0.118008,-0.0445984 0.151724,-0.297339 0.0337323,-0.252744 0.0842795,0.356827 0.202287,0.0743386 0.117972,-0.282484 -0.0125,-0.216736 -0.130469,-0.915531z"/>
    <path id="_489881888" class="fil9" d="M5.1831 3.98243c0.184154,0 0.411638,0.0932598 0.249146,0.296736 -0.162465,0.203449 -0.249146,0.669697 -0.25998,0.864665 -0.0108346,0.194996 -0.129972,0.330642 -0.129972,0.169571 0,-0.161071 -0.151665,-0.534091 -0.194984,-0.37302 -0.0433268,0.161083 -0.205819,0.322134 -0.184161,0.0169646 0.0216693,-0.305181 0.108315,-1.14444 0.519953,-0.974917z"/>
    <path id="_489882176" class="fil6" d="M5.15687 4.05154c-0.350551,0.379748 -1.42018,0.889657 -2.12124,-0.0158898 -0.0773071,-0.235394 -0.0555787,-0.36124 0.148882,-0.302827 -0.0145984,-0.219063 0.182957,-0.300736 0.372823,-0.198504 0.277488,0.292106 0.895236,0.141803 1.01207,-0.048063 0.18063,-0.0491614 0.29328,0.0236457 0.29328,0.271945 0.365142,-0.175276 0.440236,0.103476 0.294189,0.293339z"/>
    <path id="_489882584" class="fil7" d="M5.03108 4.41802l0 -0.126736c0.0620394,-0.0827362 0.131787,-0.141031 0.186917,-0.158858 -0.0395354,0.0329252 -0.115673,0.143846 -0.186917,0.285594zm0 -0.179335l0 0c0.0699173,-0.0528504 0.131004,-0.129969 0.154358,-0.224315 -0.0292165,0.0548031 -0.0887913,0.109583 -0.154358,0.158492l0 0.0658228zm0 -0.0658228l0 0 0 0.0658228c-0.0688465,0.0520551 -0.146248,0.0805551 -0.204618,0.0787559l0 -0.0132598c0.0544449,-0.0317205 0.133118,-0.0780236 0.204618,-0.131319zm0 0.118421l0 0c-0.100756,0.134323 -0.181205,0.333071 -0.145929,0.52798 0.0277992,-0.136654 0.085063,-0.280197 0.145929,-0.401244l0 -0.126736zm-0.204618 -0.505283l0 0 0 -0.00465354c0.00674016,-0.00517323 0.0132913,-0.0103504 0.0196181,-0.0154528 -0.00632677,0.00669291 -0.0129055,0.0134016 -0.0196181,0.0201063zm-1.73788 1.07534l0 0c-0.0129016,-0.0226535 -0.0251299,-0.0478543 -0.0367087,-0.0749134l0 0.0384409c0.0116811,0.0129409 0.0238701,0.0251693 0.0367087,0.0364724zm1.73788 -1.07999l0 0 0 0.00465354c-0.29539,0.295398 -0.971441,0.592984 -1.5628,-0.000669291 0.603189,0.489209 1.27581,0.217134 1.5628,-0.00398425zm0 0.522835l0 0 -0.0195866 0.0114252c0.00622047,0.00103543 0.012811,0.0016378 0.0195866,0.00183465l0 -0.0132598zm-1.77459 -0.166323l0 0 0 -0.0794724c0.0530236,0.0714803 0.131496,0.145425 0.179654,0.183953 -0.0649213,-0.0039252 -0.137268,-0.0420079 -0.179654,-0.10448zm0 0.648567l0 0c-0.109055,-0.254909 -0.15837,-0.677315 -0.121567,-0.743551 -0.11363,0.0869921 -0.0849961,0.553169 0.121567,0.781992l0 -0.0384409zm0 -0.728039l0 0 0 0.0794724c-0.0252913,-0.0372677 -0.0399488,-0.0831614 -0.0360866,-0.135697 0.0094685,0.0180748 0.0218543,0.0370787 0.0360866,0.0562244z"/>
   </g>
   <g>
    <g>
     <path id="_489882536" class="fil10" d="M1.78724 3.83287l0.81085 0c0.0749055,0 0.142965,0.0306063 0.192268,0.0799094 0.0493071,0.0493031 0.0799094,0.117362 0.0799094,0.192268l0 0.149732 -1.3552 0 0 -0.149732c0,-0.0749055 0.0306063,-0.142965 0.0799094,-0.192268 0.0493031,-0.0493031 0.117362,-0.0799094 0.192268,-0.0799094z"/>
     <path id="_489881960" class="fil11" d="M2.87027 4.22856l0.269776 0 0.264425 0c0.0398898,0 0.0761181,0.0162795 0.102343,0.0425039 0.0262283,0.0262244 0.0425079,0.0624528 0.0425079,0.102346l0 1.46264c0,0.0398898 -0.0162795,0.0761181 -0.0425079,0.102343 -0.0262244,0.0262283 -0.0624528,0.0425079 -0.102343,0.0425079l-2.42361 0c-0.0398898,0 -0.0761181,-0.0162795 -0.102343,-0.0425079 -0.0262283,-0.0262244 -0.0425079,-0.0624528 -0.0425079,-0.102343l0 -1.46264c0,-0.0398937 0.0162795,-0.076122 0.0425079,-0.102346 0.0262244,-0.0262244 0.0624528,-0.0425039 0.102343,-0.0425039l0.456984 0 0.0772165 0 1.3552 0z"/>
     <polygon id="_489882464" class="fil12" points="3.54932,4.6527 3.54932,5.44409 0.836012,5.44409 0.836012,4.6527 "/>
     <path id="_489898064" class="fil10" d="M2.19267 4.34159c0.202921,0 0.386642,0.0822559 0.519622,0.21524 0.132988,0.132984 0.215244,0.316705 0.215244,0.519622 0,0.202921 -0.0822598,0.386638 -0.215244,0.519622 -0.13298,0.132984 -0.316701,0.21524 -0.519622,0.21524 -0.202917,0 -0.386638,-0.0822559 -0.519618,-0.21524 -0.132984,-0.132984 -0.215244,-0.316701 -0.215244,-0.519622 0,-0.202917 0.0822559,-0.386638 0.215244,-0.519622 0.13298,-0.132984 0.316701,-0.21524 0.519618,-0.21524z"/>
     <path id="_489897464" class="fil13" d="M2.63235 4.63677c-0.112516,-0.112516 -0.267972,-0.182118 -0.439689,-0.182118 -0.171713,0 -0.327169,0.0696024 -0.439685,0.182118 -0.11252,0.11252 -0.182118,0.267976 -0.182118,0.439689 0,0.171713 0.0695984,0.327169 0.182118,0.439689 0.112516,0.112516 0.267972,0.182118 0.439685,0.182118 0.171717,0 0.327173,-0.0696024 0.439689,-0.182118 0.11252,-0.11252 0.182118,-0.267976 0.182118,-0.439689 0,-0.171713 -0.0695984,-0.327169 -0.182118,-0.439689z"/>
     <path id="_489897440" class="fil14" d="M2.38633 4.75126c0.0522165,0.0625433 -0.197472,0.0153937 -0.350362,0.143035 -0.152886,0.127642 -0.151071,0.381744 -0.203287,0.319197 -0.0522165,-0.0625433 -0.0651575,-0.329969 0.0877283,-0.45761 0.15289,-0.127642 0.413705,-0.0671693 0.465921,-0.00462205z"/>
     <path id="_489897848" class="fil8" d="M1.11547 4.17552l0.270917 0c0.0152165,0 0.0276654,0.0124528 0.0276654,0.0276693l0 0.0276654 -0.326248 0 0 -0.0276654c0,-0.0152165 0.0124488,-0.0276693 0.0276654,-0.0276693z"/>
     <path id="_489897776" class="fil15" d="M3.29494 4.35853c0.0374882,0 0.067878,0.0303858 0.067878,0.067874 0,0.0374882 -0.0303898,0.067878 -0.067878,0.067878 -0.0374882,0 -0.067874,-0.0303898 -0.067874,-0.067878 0,-0.0374882 0.0303858,-0.067874 0.067874,-0.067874z"/>
    </g>
    <path id="_489897632" class="fil16" d="M1.78724 3.83287l0.81085 0c0.0749055,0 0.142965,0.0306063 0.192268,0.0799094 0.0094252,0.00942126 0.0181654,0.0195354 0.0261417,0.030248l-1.24767 0c0.00797244,-0.0107126 0.0167126,-0.0208268 0.0261378,-0.030248 0.0493031,-0.0493031 0.117362,-0.0799094 0.192268,-0.0799094z"/>
   </g>
  </g>
  <rect class="fil17" x="0.0364567" y="-0.00520866" width="6.82666" height="6.82666"/>
 </g>
</svg>
