<?xml version="1.0" encoding="UTF-8"?>
<!DOCTYPE svg PUBLIC "-//W3C//DTD SVG 1.1//EN" "http://www.w3.org/Graphics/SVG/1.1/DTD/svg11.dtd">
<!-- Creator: CorelDRAW -->
<svg xmlns="http://www.w3.org/2000/svg" xml:space="preserve" width="6.82666in" height="6.82666in" style="shape-rendering:geometricPrecision; text-rendering:geometricPrecision; image-rendering:optimizeQuality; fill-rule:evenodd; clip-rule:evenodd"
viewBox="0 0 6.82666 6.82666"
 xmlns:xlink="http://www.w3.org/1999/xlink">
 <defs>
  <style type="text/css">
   <![CDATA[
    .fil11 {fill:none}
    .fil7 {fill:#0277BD}
    .fil8 {fill:#29B6F6}
    .fil4 {fill:#161313;fill-rule:nonzero}
    .fil10 {fill:#29B6F6;fill-rule:nonzero}
    .fil3 {fill:#424242;fill-rule:nonzero}
    .fil6 {fill:#81D4FA;fill-rule:nonzero}
    .fil5 {fill:#B3E5FC;fill-rule:nonzero}
    .fil0 {fill:#F2CFBD;fill-rule:nonzero}
    .fil2 {fill:#FFDDCC;fill-rule:nonzero}
    .fil1 {fill:black;fill-rule:nonzero;fill-opacity:0.050980}
    .fil9 {fill:black;fill-rule:nonzero;fill-opacity:0.101961}
   ]]>
  </style>
 </defs>
 <g id="Layer_x0020_1">
  <metadata id="CorelCorpID_0Corel-Layer"/>
  <path class="fil0" d="M2.67641 2.92352c0.0379409,0.182291 -0.00740157,0.345913 -0.101224,0.365449 -0.0938465,0.0195315 -0.200673,-0.112449 -0.238583,-0.294756 -0.0379094,-0.182307 0.0073622,-0.345937 0.101256,-0.365445 0.093815,-0.0195276 0.200594,0.112445 0.238551,0.294752z"/>
  <path class="fil0" d="M4.18913 2.92352c-0.0379291,0.182291 0.00741339,0.345913 0.101228,0.365449 0.0938425,0.0195315 0.200673,-0.112449 0.238559,-0.294756 0.0380039,-0.182307 -0.00733858,-0.345937 -0.101232,-0.365445 -0.093815,-0.0195276 -0.200594,0.112445 -0.238555,0.294752z"/>
  <path class="fil0" d="M4.21314 4.34296c-0.152469,-0.0207874 -0.272988,-0.157673 -0.292315,-0.331921l-0.067937 -0.614051 -0.840209 0 -0.0679685 0.614051c-0.0192717,0.174248 -0.139795,0.311134 -0.292264,0.331921 -0.196071,0.026748 0.294295,0.398768 0.780331,0.398909 0.491449,0.000149606 0.978594,-0.37187 0.780362,-0.398909z"/>
  <path class="fil1" d="M3.02121 4.09514c0.14587,0.127 0.219287,0.197083 0.412697,0.197083 0.191992,0 0.26311,-0.0691181 0.408047,-0.19498 0.0257283,-0.0223386 0.0527244,-0.0483504 0.0802677,-0.0769961 -0.000417323,-0.00309449 -0.00102756,-0.00609055 -0.00139764,-0.00920079l-0.067937 -0.614051 -0.840209 0 -0.0679685 0.614051c-0.000338583,0.00314567 -0.000948819,0.00617717 -0.00138976,0.00930709 0.0267047,0.0277205 0.0528937,0.053 0.0778898,0.0747874z"/>
  <path class="fil2" d="M4.3325 2.32256c-0.00751181,-0.491264 -0.407756,-0.88587 -0.899075,-0.88587l-0.000271654 0c-0.492106,0 -0.892618,0.394744 -0.900122,0.886772 -0.0053622,0.352516 -0.0103031,0.675874 -0.0103031,0.675917 0,0.344319 0.289406,0.751602 0.498469,0.933654 0.145858,0.12702 0.21928,0.197102 0.412669,0.197102 0.191988,0 0.263087,-0.0691299 0.408067,-0.194972 0.209504,-0.181913 0.500909,-0.590118 0.500909,-0.935783 0,-4.33071e-005 -0.00493307,-0.323957 -0.0103425,-0.676819z"/>
  <path class="fil3" d="M3.44445 1.87407c0.203165,0.0181102 0.541681,-0.086815 0.749886,0.330642 0.0826614,0.165839 0.103343,0.434563 0.118795,0.46902 0.075315,-0.0723189 0.133492,-0.0510827 0.184744,0.00772441 -0.0478425,-0.708283 -0.0600669,-1.26851 -1.06507,-1.30638 -0.743016,-0.0280039 -1.00564,0.426035 -1.04276,0.974626l-0.0269409 0.33911c0.0814213,-0.0752795 0.144071,-0.0541378 0.187996,0.0153701 0.11861,-0.382594 -0.067748,-0.915693 0.89335,-0.83011z"/>
  <path class="fil4" d="M3.84841 1.87651c0,0.0895984 -0.185067,0.162217 -0.413327,0.162217 -0.22826,0 -0.413307,-0.0726181 -0.413307,-0.162217 0,-0.0895709 0.185047,-0.162201 0.413307,-0.162201 0.22826,0 0.413327,0.0726299 0.413327,0.162201z"/>
  <path class="fil4" d="M2.44048 2.03872c0,0 0.135587,-0.729823 0.443528,-0.664886 0,0 0.280752,-0.396709 0.991307,0.0691378 0,0 0.183768,-0.0285039 0.402614,0.10115 0.218795,0.129681 0.182378,0.703386 0.182378,0.703386 0,0 -0.454488,-0.598028 -1.02755,-0.598028 -0.573035,0 -0.99228,0.38924 -0.99228,0.38924z"/>
  <path class="fil3" d="M2.48694 2.62685c0,0 0.106827,0.062685 0.135075,0.332024l0.0823583 0.0193307c-0.00405906,-0.126571 -0.0985945,-0.524012 -0.0751142,-0.667516l-0.142319 0.316161z"/>
  <path class="fil3" d="M4.34159 2.64164c0,0 -0.100425,0.0724843 -0.103236,0.34326l-0.0802323 0.0136142c-0.00777559,-0.126394 0.102248,-0.583764 0.065311,-0.724417l0.118157 0.367543z"/>
  <path class="fil5" d="M4.21314 4.34296c-0.124752,-0.0170118 -0.227969,-0.111732 -0.272039,-0.241024l-0.508291 0.384236 -0.508343 -0.384236c-0.0440315,0.129291 -0.147287,0.224012 -0.27202,0.241024 -0.231122,0.0315118 -1.03418,0.128252 -1.14912,0.263406 -0.185394,0.217988 -0.250031,0.535961 -0.291646,0.841488 -0.00214173,0.0157441 -0.018315,0.452008 -0.0226339,0.535764l4.44856 0c-0.0108976,-0.0980354 -0.0568976,-0.522327 -0.0591181,-0.538591 -0.0407244,-0.298051 -0.10365,-0.607646 -0.279433,-0.824413 -0.115622,-0.142591 -0.84678,-0.245047 -1.08592,-0.277654z"/>
  <polygon class="fil6" points="3.28744,5.67737 3.3281,4.4953 3.53742,4.4953 3.57813,5.67737 3.43427,5.98362 "/>
  <path class="fil6" d="M4.65981 1.91499c0.0462244,0.0388071 0.0712323,0.0800079 0.0712323,0.121386 0,0.107126 -0.19735,0.25063 -0.507437,0.340091 -0.21724,0.0626732 -0.495567,0.109492 -0.797445,0.109492 -0.301878,0 -0.580205,-0.0468189 -0.797445,-0.109492 -0.310091,-0.0894606 -0.507441,-0.232965 -0.507441,-0.340091 0,-0.041378 0.0250118,-0.0825787 0.0712323,-0.121386l2.4673 0z"/>
  <rect class="fil7" x="2.19241" y="1.75618" width="2.4675" height="0.159686"/>
  <path class="fil8" d="M3.4183 0.843039c0.759008,0 1.2351,0.476909 1.37431,0.754567 0.0682126,0.136043 -0.0226063,0.173594 -0.134177,0.173594l-2.46942 0c-0.113248,0 -0.17576,-0.0562087 -0.14502,-0.173594 0.0694409,-0.265079 0.615299,-0.754567 1.37431,-0.754567z"/>
  <polygon class="fil9" points="3.64804,4.96803 3.43276,4.48618 3.9411,4.20323 4.21309,4.34296 "/>
  <polygon class="fil9" points="3.21754,4.96803 3.43276,4.48618 2.92447,4.20323 2.65245,4.34296 "/>
  <polygon class="fil10" points="3.64804,4.86675 3.43276,4.48618 3.9411,4.10194 4.21309,4.34296 "/>
  <polygon class="fil10" points="3.21748,4.86675 3.43276,4.48618 2.92447,4.10194 2.65245,4.34296 "/>
  <rect class="fil8" x="4.02287" y="5.4093" width="0.920835" height="0.145835"/>
  <rect class="fil11" x="0.0364567" y="-0.00520866" width="6.82666" height="6.82666"/>
 </g>
</svg>
