<?xml version="1.0" encoding="UTF-8"?>
<!DOCTYPE svg PUBLIC "-//W3C//DTD SVG 1.1//EN" "http://www.w3.org/Graphics/SVG/1.1/DTD/svg11.dtd">
<!-- Creator: CorelDRAW -->
<svg xmlns="http://www.w3.org/2000/svg" xml:space="preserve" width="6.82666in" height="6.82666in" style="shape-rendering:geometricPrecision; text-rendering:geometricPrecision; image-rendering:optimizeQuality; fill-rule:evenodd; clip-rule:evenodd"
viewBox="0 0 6.82666 6.82666"
 xmlns:xlink="http://www.w3.org/1999/xlink">
 <defs>
  <style type="text/css">
   <![CDATA[
    .fil14 {fill:none}
    .fil5 {fill:#003A66}
    .fil1 {fill:#01579B}
    .fil11 {fill:#0C324F}
    .fil6 {fill:#181818}
    .fil0 {fill:#424242}
    .fil7 {fill:#A31F3F}
    .fil4 {fill:#F06292}
    .fil3 {fill:#F6C4AA}
    .fil12 {fill:#FBE9E7}
    .fil13 {fill:#FFCC00}
    .fil2 {fill:#FFDDCC}
    .fil8 {fill:white}
    .fil10 {fill:#01579B;fill-rule:nonzero}
    .fil9 {fill:#161313;fill-rule:nonzero}
   ]]>
  </style>
 </defs>
 <g id="Layer_x0020_1">
  <metadata id="CorelCorpID_0Corel-Layer"/>
  <path class="fil0" d="M3.89215 1.39153c-0.120035,-0.193122 -1.06765,-0.488087 -1.44255,0.298598 -0.390315,0.686402 -0.193724,0.926843 -0.409059,1.1691 -0.215299,0.242252 -0.187122,0.840142 -0.0375118,0.888858 0.14961,0.0487559 0.0895472,0.241008 0.0165866,0.32363 -0.311425,0.352665 0.31348,0.905209 1.5158,0.899142 2.08973,-0.0106063 1.09159,-0.933709 1.32688,-1.17159 0.117713,-0.119 0.238681,-0.628701 -0.0170236,-0.992098 -0.255752,-0.363362 -0.0902323,-1.68922 -0.953126,-1.41563z"/>
  <path class="fil1" d="M3.83898 4.19281c-0.00872441,0.013752 -0.86928,0.0274646 -0.878776,0.0410039 -0.270244,0.385587 -0.854232,0.554504 -1.31854,0.658327 -0.462067,0.103311 -0.479949,0.690272 -0.480638,1.08119l4.5046 0c-0.000685039,-0.390913 -0.00928346,-0.975764 -0.480689,-1.08119 -0.471441,-0.105409 -1.08956,-0.296213 -1.34596,-0.699331z"/>
  <path class="fil2" d="M3.86465 3.3694l0 1.10573c-0.270543,0.474661 -0.676508,0.46263 -0.902638,0l0 -1.10573c0,-0.597016 0.902638,-0.597016 0.902638,0z"/>
  <path class="fil3" d="M3.86465 3.3694l0 0.740311c-0.170799,0.133614 -0.335421,0.208461 -0.451323,0.208461 -0.115906,0 -0.280516,-0.0748465 -0.451315,-0.208421l0 -0.74035c0,-0.597016 0.902638,-0.597016 0.902638,0z"/>
  <path class="fil2" d="M3.16361 4.09239c-0.377276,-0.127709 -0.716165,-0.408622 -0.856791,-1.08175 -0.19376,-0.668134 0.17115,-1.6264 1.10651,-1.6264 0.935319,0 1.30031,0.958268 1.1065,1.6264 -0.148039,0.634539 -0.545004,0.974228 -0.908142,1.09072 -0.150382,0.0482323 -0.298858,0.0415433 -0.448079,-0.00897244z"/>
  <path class="fil4" d="M3.04122 3.54664c0.157417,-0.114165 0.280177,-0.0285472 0.372102,-0.0285472 0.0919291,0 0.214701,-0.0856181 0.372118,0.0285472 -0.0845669,0.301071 -0.632035,0.310319 -0.74422,0z"/>
  <path class="fil2" d="M4.66063 2.85313c-0.0945394,-0.0405827 -0.228067,0.0590236 -0.298272,0.222437 -0.0702047,0.163496 -0.0505157,0.328882 0.0440118,0.369461 0.0945394,0.040622 0.228079,-0.0589882 0.298283,-0.222437 0.0701929,-0.163449 0.0505157,-0.328843 -0.0440236,-0.369461z"/>
  <path class="fil2" d="M2.16509 2.85313c0.0945394,-0.0405827 0.228063,0.0589764 0.298268,0.222437 0.0702087,0.163496 0.0505157,0.328882 -0.0440236,0.3695 -0.0945394,0.0405827 -0.228063,-0.0589764 -0.298272,-0.222476 -0.0702047,-0.163449 -0.0504646,-0.328843 0.0440276,-0.369461z"/>
  <path class="fil0" d="M3.41507 1.93756c0.012815,0.513008 0.452949,0.695827 0.749024,0.574669 0.296087,-0.121146 0.31911,0.392272 0.265287,0.634528 0.262244,-0.327213 0.231421,-0.637949 0.149858,-0.953941 -0.089374,-0.346201 -0.54026,-0.872961 -0.963083,-0.863252 -0.229787,-0.0237717 -0.577587,0.00430315 -0.947524,0.266339 -0.64602,0.457587 -0.430248,1.48576 -0.256217,1.60703 -0.148276,-0.837594 0.138929,-0.801181 0.421626,-1.10346 0.104898,-0.112157 0.376835,-0.366004 0.581028,-0.161913z"/>
  <polygon class="fil5" points="2.96205,4.23297 2.63992,4.52741 3.00816,5.31756 3.40309,4.8277 "/>
  <polygon class="fil5" points="3.86465,4.23077 4.18674,4.53769 3.79846,5.34117 3.40309,4.8277 "/>
  <polygon class="fil5" points="3.30603,5.97333 3.52058,5.97333 3.52058,4.83139 3.30603,4.83139 "/>
  <path class="fil5" d="M1.96698 5.97333c0.00274409,-0.088563 0.0108307,-0.195181 0.0321929,-0.325189 -0.0398937,0.126787 -0.068185,0.232846 -0.0880866,0.325189l0.0558937 0z"/>
  <path class="fil6" d="M3.49841 2.11948c0.00274803,0.088563 0.00212205,0.212654 0.0933071,0.429937 -0.0835354,-0.116303 -0.129295,-0.337594 -0.149201,-0.429937l0.0558937 0z"/>
  <path class="fil5" d="M4.85963 5.97333c-0.00270866,-0.088563 -0.0108307,-0.195181 -0.0321969,-0.325189 0.0399331,0.126787 0.068185,0.232846 0.088126,0.325189l-0.0559291 0z"/>
  <path class="fil6" d="M3.48631 1.92575c-0.036437,0.0590039 -0.0763937,0.320618 -0.0296102,0.531913 -0.0766535,-0.164516 -0.0479094,-0.460445 -0.024748,-0.544925l0.0543583 0.0130118z"/>
  <path class="fil6" d="M3.50245 1.81798c-0.0467441,0.0512244 -0.134508,0.300898 -0.127709,0.517201 -0.0448228,-0.175874 0.0382835,-0.461343 0.0767047,-0.540067l0.0510039 0.0228661z"/>
  <path class="fil7" d="M3.1367 3.6108c0.110024,-0.0308268 0.20728,0.0295354 0.2765,0.0295354 0.0692205,0 0.166728,-0.0810669 0.276756,-0.0264528 -0.128933,0.10439 -0.423453,0.0987402 -0.553256,-0.00308268z"/>
  <path class="fil8" d="M3.08954 3.5622c0.0435039,-0.00833465 0.177059,0.0237913 0.314394,0.0230157 0.134299,-0.000755906 0.272252,-0.0346417 0.333189,-0.0266024 -0.10178,0.140362 -0.561441,0.132236 -0.647583,0.00358661z"/>
  <g id="_489889616">
   <path id="_489891512" class="fil9" d="M3.85728 1.84317c0,0.0895984 -0.185067,0.162217 -0.413327,0.162217 -0.22826,0 -0.413307,-0.0726181 -0.413307,-0.162217 0,-0.0895709 0.185047,-0.162201 0.413307,-0.162201 0.22826,0 0.413327,0.0726299 0.413327,0.162201z"/>
   <path id="_489890528" class="fil9" d="M2.44935 2.00539c0,0 0.135587,-0.729823 0.443528,-0.664886 0,0 0.280752,-0.396709 0.991307,0.0691378 0,0 0.183768,-0.0285039 0.402614,0.10115 0.218795,0.129681 0.182378,0.703386 0.182378,0.703386 0,0 -0.454488,-0.598028 -1.02755,-0.598028 -0.573035,0 -0.99228,0.38924 -0.99228,0.38924z"/>
   <path id="_489890888" class="fil10" d="M4.66869 1.88165c0.0462244,0.0388071 0.0712323,0.0800079 0.0712323,0.121386 0,0.107126 -0.19735,0.25063 -0.507437,0.340091 -0.21724,0.0626732 -0.495567,0.109492 -0.797445,0.109492 -0.301878,0 -0.580205,-0.0468189 -0.797445,-0.109492 -0.310091,-0.0894606 -0.507441,-0.232965 -0.507441,-0.340091 0,-0.041378 0.0250118,-0.0825787 0.0712323,-0.121386l2.4673 0z"/>
   <rect id="_489891080" class="fil11" x="2.20129" y="1.72284" width="2.4675" height="0.159686"/>
   <rect id="_489890336" class="fil5" x="2.20129" y="1.8102" width="2.4675" height="0.0723298"/>
   <path id="_489890840" class="fil5" d="M3.42717 0.809705l1.01773 0.343957 0.356579 0.41061c0.0682126,0.136043 -0.0226063,0.173594 -0.134177,0.173594l-2.46942 0c-0.113248,0 -0.17576,-0.0562087 -0.14502,-0.173594l0.412012 -0.465819 0.962295 -0.288748z"/>
   <ellipse id="_489890384" class="fil12" cx="3.43504" cy="1.35896" rx="0.219388" ry="0.21216"/>
   <path id="_489889832" class="fil13" d="M3.56978 1.36591c0.0104055,-0.0292441 0.0074685,-0.0584921 -0.00434646,-0.0877402 -0.0313189,-0.00195669 -0.0600354,-0.0126929 -0.0847047,-0.0371142 -0.0123504,0.00925984 -0.0282913,0.0148346 -0.0457008,0.0148346 -0.0174055,0 -0.0333465,-0.0055748 -0.0456969,-0.0148346 -0.0246693,0.0244213 -0.0533858,0.0351575 -0.0847047,0.0371142 -0.0177362,0.029248 -0.0144055,0.0584961 -0.00434646,0.0877402 0.0100551,0.0292441 0.0347717,0.0584921 0.0724449,0.0867953 0.0376732,0.0282992 0.0623031,0.0413701 0.0623031,0.0533425 0,-0.0119724 0.0246339,-0.0250433 0.0623071,-0.0533425 0.0376732,-0.0283031 0.0620394,-0.0575512 0.0724449,-0.0867953z"/>
  </g>
  <rect class="fil14" x="0.0364567" y="-0.00520866" width="6.82666" height="6.82666"/>
 </g>
</svg>
