<?xml version="1.0" encoding="UTF-8"?>
<!DOCTYPE svg PUBLIC "-//W3C//DTD SVG 1.1//EN" "http://www.w3.org/Graphics/SVG/1.1/DTD/svg11.dtd">
<!-- Creator: CorelDRAW -->
<svg xmlns="http://www.w3.org/2000/svg" xml:space="preserve" width="6.82666in" height="6.82666in" style="shape-rendering:geometricPrecision; text-rendering:geometricPrecision; image-rendering:optimizeQuality; fill-rule:evenodd; clip-rule:evenodd"
viewBox="0 0 6.82666 6.82666"
 xmlns:xlink="http://www.w3.org/1999/xlink">
 <defs>
  <style type="text/css">
   <![CDATA[
    .fil14 {fill:none}
    .fil7 {fill:none;fill-rule:nonzero}
    .fil3 {fill:#424242}
    .fil9 {fill:#616161}
    .fil10 {fill:#FAFAFA}
    .fil11 {fill:#FFD180}
    .fil2 {fill:#212121;fill-rule:nonzero}
    .fil1 {fill:#424242;fill-rule:nonzero}
    .fil5 {fill:#757575;fill-rule:nonzero}
    .fil6 {fill:#777070;fill-rule:nonzero}
    .fil8 {fill:#E3BA7D;fill-rule:nonzero}
    .fil0 {fill:#F9CC89;fill-rule:nonzero}
    .fil12 {fill:#FFA726;fill-rule:nonzero}
    .fil13 {fill:#FFD180;fill-rule:nonzero}
    .fil4 {fill:black;fill-rule:nonzero;fill-opacity:0.050980}
   ]]>
  </style>
 </defs>
 <g id="Layer_x0020_1">
  <metadata id="CorelCorpID_0Corel-Layer"/>
  <g id="_489893288">
   <path id="_299003808" class="fil0" d="M4.3922 4.47274c-0.18913,-0.0258228 -0.338634,-0.195594 -0.362571,-0.411752l-0.084248 -0.761697 -1.0423 0 -0.0842677 0.761756c-0.0239055,0.216098 -0.173394,0.38587 -0.362551,0.411693 -0.489157,0.0667165 2.42511,0.0667165 1.93593,0z"/>
   <path id="_299003976" class="fil0" d="M4.3922 4.47274c-0.0027874,-0.000377953 -0.00557087,-0.000795276 -0.00833858,-0.00124016 0.00277165,0.000444882 0.00555118,0.000858268 0.00833858,0.00124016zm-0.00935433 -0.00140551c-0.00209055,-0.000338583 -0.00417323,-0.000712598 -0.00625197,-0.00108661 0.00207874,0.00038189 0.00416142,0.000744094 0.00625197,0.00108661zm-0.134949 -0.0499803c-0.117102,-0.070626 -0.20087,-0.203228 -0.218264,-0.360366l-0.084252 -0.761697 -1.0423 0 -0.0842677 0.761756c-0.017378,0.157098 -0.101138,0.289693 -0.218248,0.360319l0.823657 0.936673 0.823669 -0.936685zm-1.77602 0.0488937c-0.00208268,0.000374016 -0.00416535,0.000740157 -0.00625197,0.00108661 0.00209055,-0.00034252 0.00416929,-0.000704724 0.00625197,-0.00108661zm-0.00726772 0.00125197c-0.00276772,0.000448819 -0.00555118,0.000862205 -0.00834252,0.00124016 0.00279134,-0.00038189 0.0055748,-0.000791339 0.00834252,-0.00124016z"/>
   <path id="_299003736" class="fil1" d="M5.82353 5.53c-0.0721772,-0.557433 -0.94215,-0.990543 -1.43132,-1.05726 -0.0516024,-0.00707087 -0.100118,-0.0251535 -0.144079,-0.0516417 -0.057874,-0.0379291 -0.112429,-0.081122 -0.162181,-0.173764 -0.346992,0.244744 -0.872882,0.286016 -1.32419,0.0017874 -0.0429567,0.0696654 -0.0869134,0.131398 -0.161417,0.171976 -0.0439606,0.0264882 -0.0924567,0.0445709 -0.144071,0.0516417 -0.489157,0.0667126 -1.38094,0.499823 -1.45314,1.05726l-0.0574134 0.443331 4.93522 0 -0.0574055 -0.443331z"/>
   <path id="_299003592" class="fil2" d="M1.01041 5.53l-0.0574094 0.443335 1.80396 0 -0.309831 -1.4991c-0.484823,0.0707756 -1.365,0.501819 -1.43672,1.05576z"/>
   <path id="_299003856" class="fil2" d="M5.88094 5.97333l-0.0574094 -0.443335c-0.0717559,-0.553945 -0.937358,-0.984988 -1.42219,-1.05576l-0.309819 1.4991 1.78942 0z"/>
   <path id="_299003952" class="fil3" d="M2.7654 4.04395c0.433087,-0.036811 0.873524,-0.0388543 1.32118,0.00462992l0 0.213071c-0.430469,0.339303 -0.894953,0.343906 -1.32663,-0.00462992l0.00545669 -0.213071z"/>
   <path id="_299003304" class="fil4" d="M2.91371 4.16533c0.180913,0.157543 0.271996,0.244461 0.511886,0.244461 0.238157,0 0.326378,-0.0857008 0.506193,-0.241854 0.0319488,-0.0277047 0.065437,-0.0599803 0.0995709,-0.0955039 -0.000519685,-0.00383071 -0.00127953,-0.00759055 -0.00172835,-0.011437l-0.084248 -0.761697 -1.0423 0 -0.0842677 0.761756c-0.000437008,0.00385039 -0.0012126,0.00761811 -0.00171654,0.0115276 0.0331024,0.0344055 0.0655709,0.0657126 0.0966063,0.092748z"/>
   <path id="_299002992" class="fil0" d="M4.54031 1.96639c-0.00931496,-0.60937 -0.505854,-1.09873 -1.1153,-1.09873l-0.000334646 0c-0.610394,0 -1.10724,0.489661 -1.11656,1.09999 -0.00667717,0.437291 -0.0127874,0.838406 -0.0127874,0.838457 0,0.42713 0.359039,0.932307 0.618374,1.1582 0.180933,0.157516 0.272004,0.244441 0.511886,0.244441 0.238181,0 0.32635,-0.0857362 0.506193,-0.241827 0.259878,-0.225591 0.621354,-0.732043 0.621354,-1.16081 0,-5.11811e-005 -0.00612598,-0.401941 -0.0128307,-0.839717z"/>
   <path id="_299003064" class="fil0" d="M2.486 2.71198c0.0470945,0.226142 -0.00914961,0.429118 -0.125606,0.453335 -0.116374,0.024189 -0.248862,-0.139484 -0.295921,-0.365626 -0.0470354,-0.226169 0.00916535,-0.429091 0.125583,-0.453327 0.116402,-0.0242441 0.248894,0.13948 0.295945,0.365618z"/>
   <path id="_299002920" class="fil0" d="M4.36248 2.71198c-0.0470276,0.226142 0.00915748,0.429118 0.125567,0.453335 0.116409,0.024189 0.248898,-0.139484 0.295913,-0.365626 0.047122,-0.226169 -0.00912205,-0.429091 -0.125567,-0.453327 -0.116374,-0.0242441 -0.248862,0.13948 -0.295913,0.365618z"/>
   <path id="_299003232" class="fil5" d="M2.50286 1.86801l-7.08661e-005 9.05512e-005c0.00989764,-0.0579291 0.16072,-0.462433 0.0984094,-0.565264 -0.0323465,-0.0533661 -0.0855512,-0.0644173 -0.136795,-0.0251142 -0.169854,0.130287 -0.239854,0.366689 -0.258244,0.638697l-0.0296654 0.438988 0.000377953 0c0.157075,0 0.289469,0.115382 0.311406,0.270933 0.000122047,0.000925197 0.000255906,0.00184252 0.000377953,0.00276378 0.00096063,0.00699213 0.00605906,0.0127283 0.0128937,0.0144882 0.00684252,0.00175984 0.0140787,-0.000791339 0.0182992,-0.00646457l0.0179094 -0.0240669c0.0277756,-0.0373189 0.0394094,-0.0842205 0.0323268,-0.130201 -0.0243898,-0.158063 -0.0941181,-0.381228 -0.0672244,-0.61485z"/>
   <path id="_299003208" class="fil5" d="M4.3456 1.86801l3.54331e-005 9.05512e-005c-0.0098622,-0.0579291 -0.160705,-0.462433 -0.0983937,-0.565264 0.0323465,-0.0533661 0.0855906,-0.0644331 0.136858,-0.0251142 0.169803,0.130287 0.239854,0.366681 0.258209,0.638697l0.0296772 0.438972 -0.000397638 0c-0.157094,0 -0.289461,0.115406 -0.311398,0.270949 0,0 -8.66142e-005,0.000767717 -0.000271654,0.00211417 -0.000940945,0.00712598 -0.00609449,0.0129724 -0.0130433,0.0147756 -0.00694488,0.00181496 -0.0142913,-0.000775591 -0.0185984,-0.00654331l-0.0175945 -0.0236417c-0.0277559,-0.037315 0.256024,-0.0842047 0.263094,-0.130165 0.0243937,-0.158083 -0.201291,-0.381232 -0.228177,-0.61487z"/>
   <path id="_299002968" class="fil6" d="M3.90449 3.49789c0.107118,-0.0145315 0.101807,-0.103386 0.101807,-0.103386 0,0 -0.0688386,0.0672874 -0.13537,0.0202795 -0.11728,-0.082937 -0.105972,-0.203969 -0.258717,-0.304929 -0.0615039,-0.0406614 -0.144327,-0.023752 -0.185035,0.0377598 -0.040626,0.0615197 -0.0237008,0.144343 0.0377677,0.185008 0.0763937,0.0504685 0.318339,0.181717 0.439547,0.165268z"/>
   <path id="_299002848" class="fil6" d="M2.94402 3.49789c-0.10711,-0.0145315 -0.101846,-0.103386 -0.101846,-0.103386 0,0 0.0688386,0.0672874 0.135362,0.0202795 0.117272,-0.082937 0.106,-0.203969 0.258752,-0.304929 0.0615118,-0.0406614 0.144327,-0.023752 0.185,0.0377598 0.0406339,0.0615197 0.0237323,0.144343 -0.0377953,0.185008 -0.0763425,0.0504685 -0.318276,0.181717 -0.439472,0.165268z"/>
   <path id="_299002776" class="fil7" d="M3.31244 2.55981c0,0.199874 -0.16202,0.361894 -0.361902,0.361894 -0.199866,0 -0.36189,-0.16202 -0.36189,-0.361894 0,-0.199866 0.162024,-0.361882 0.36189,-0.361882 0.199882,0 0.361902,0.162016 0.361902,0.361882"/>
   <path id="_299003160" class="fil7" d="M4.25984 2.55981c0,0.199874 -0.162035,0.361894 -0.361874,0.361894 -0.199902,0 -0.361937,-0.16202 -0.361937,-0.361894 0,-0.199866 0.162035,-0.361882 0.361937,-0.361882 0.199839,0 0.361874,0.162016 0.361874,0.361882"/>
   <polygon id="_299003040" class="fil5" points="3.55584,2.5192 3.29381,2.5192 3.27367,2.36409 3.57598,2.36409 "/>
   <path id="_299002584" class="fil8" d="M2.91371 4.16533c0.180913,0.157543 0.271996,0.244461 0.511886,0.244461 0.238157,0 0.326378,-0.0857008 0.506193,-0.241854 0.0319488,-0.0277047 0.065437,-0.0599803 0.0995709,-0.0955039 -0.000519685,-0.00383071 -0.00127953,-0.00759055 -0.00172835,-0.011437l-0.084248 -0.761697 -1.0423 0 -0.0842677 0.761756c-0.000437008,0.00385039 -0.0012126,0.00761811 -0.00171654,0.0115276 0.0331024,0.0344055 0.0655709,0.0657126 0.0966063,0.092748z"/>
   <path id="_299002056" class="fil0" d="M4.54031 1.96639c-0.00931496,-0.60937 -0.505854,-1.09873 -1.1153,-1.09873l-0.000334646 0c-0.610394,0 -1.10724,0.489661 -1.11656,1.09999 -0.00667717,0.437291 -0.0127874,0.838406 -0.0127874,0.838457 0,0.42713 0.359039,0.932307 0.618374,1.1582 0.180933,0.157516 0.272004,0.244441 0.511886,0.244441 0.238181,0 0.32635,-0.0857362 0.506193,-0.241827 0.259878,-0.225591 0.621354,-0.732043 0.621354,-1.16081 0,-5.11811e-005 -0.00612598,-0.401941 -0.0128307,-0.839717z"/>
   <path id="_299002464" class="fil0" d="M2.486 2.71198c0.0470945,0.226142 -0.00914961,0.429118 -0.125606,0.453335 -0.116374,0.024189 -0.248862,-0.139484 -0.295921,-0.365626 -0.0470354,-0.226169 0.00916535,-0.429091 0.125583,-0.453327 0.116402,-0.0242441 0.248894,0.13948 0.295945,0.365618z"/>
   <path id="_299001864" class="fil0" d="M4.36248 2.71198c-0.0470276,0.226142 0.00915748,0.429118 0.125567,0.453335 0.116409,0.024189 0.248898,-0.139484 0.295913,-0.365626 0.047122,-0.226169 -0.00912205,-0.429091 -0.125567,-0.453327 -0.116374,-0.0242441 -0.248862,0.13948 -0.295913,0.365618z"/>
   <path id="_299001840" class="fil1" d="M4.14453 1.69235c-0.141728,0.0149094 -0.321189,-0.00804724 -0.557055,-0.0768031l-0.0173307 -0.0068622c-0.00237795,-0.00119291 -0.00666142,-0.00273622 -0.0127087,-0.00457874 -0.0485551,-0.014752 -0.137177,-0.0235315 -0.227567,-0.00746457 -0.0821417,0.0146024 -0.163075,0.0507047 -0.205028,0.124311 -0.00668898,0.0117402 -0.0125906,0.024752 -0.0175512,0.0391102l-0.0234685 0.0679331 -0.0755197 -0.00398425c-0.495118,-0.0260945 -0.608374,-0.443567 -0.438213,0.658846 0.00708268,0.0459764 -0.00455512,0.0928819 -0.0323307,0.130201l-0.0179094 0.0240669c-0.00421654,0.00566929 -0.0114606,0.00822441 -0.0182992,0.0064685 -0.00683858,-0.00176378 -0.0119331,-0.0075 -0.0128937,-0.0144921 -0.000125984,-0.00092126 -0.000255906,-0.00183858 -0.000377953,-0.00276378 -0.021937,-0.155555 -0.154327,-0.270929 -0.311406,-0.270929l-0.000377953 0 0.0296654 -0.438992c0.011689,-0.172925 0.044252,-0.331437 0.110051,-0.457465 0.135909,-0.39985 0.55411,-0.570882 0.97363,-0.60074 0.512287,-0.0364291 0.966969,0.129346 1.21409,0.55176 0.0850236,0.132677 0.125126,0.310299 0.13839,0.506445l0.0296693 0.438992 -0.00038189 0c-0.157075,0 -0.289472,0.115374 -0.311406,0.270929 -0.000122047,0.000925197 -0.000255906,0.00184252 -0.000377953,0.00276378 -0.00096063,0.00699213 -0.00605906,0.0127283 -0.0128898,0.0144921 -0.00684252,0.00175591 -0.0140866,-0.000799213 -0.0183031,-0.0064685l-0.0179094 -0.0240669c-0.0277756,-0.0373189 -0.0394094,-0.0842244 -0.0323307,-0.130201 0.0342402,-0.221819 0.222232,-0.827953 -0.133862,-0.790508z"/>
   <path id="_299002320" class="fil1" d="M3.90449 3.49789c0.107118,-0.0145315 0.101807,-0.103386 0.101807,-0.103386 0,0 -0.0688386,0.0672874 -0.13537,0.0202795 -0.11728,-0.082937 -0.105972,-0.203969 -0.258717,-0.304929 -0.0615039,-0.0406614 -0.144327,-0.023752 -0.185035,0.0377598 -0.040626,0.0615197 -0.0237008,0.144343 0.0377677,0.185008 0.0763937,0.0504685 0.318339,0.181717 0.439547,0.165268z"/>
   <path id="_299002344" class="fil1" d="M2.94402 3.49789c-0.10711,-0.0145315 -0.101846,-0.103386 -0.101846,-0.103386 0,0 0.0688386,0.0672874 0.135362,0.0202795 0.117272,-0.082937 0.106,-0.203969 0.258752,-0.304929 0.0615118,-0.0406614 0.144327,-0.023752 0.185,0.0377598 0.0406339,0.0615197 0.0237323,0.144343 -0.0377953,0.185008 -0.0763425,0.0504685 -0.318276,0.181717 -0.439472,0.165268z"/>
   <path id="_299002152" class="fil9" d="M2.7654 4.04395c0.210898,0.136709 0.419524,0.20698 0.626016,0.214677l0 0.257992c-0.213122,-0.00787008 -0.426012,-0.0937087 -0.631472,-0.259598l0.00545669 -0.213071zm0.669693 0.215362c0.21952,-0.00118504 0.436634,-0.0729646 0.651484,-0.210724l0 0.213067c-0.211587,0.16678 -0.431394,0.25263 -0.651484,0.255488l0 -0.257831z"/>
   <rect id="_489882920" class="fil10" x="3.36321" y="4.25089" width="0.0318465" height="0.255684" rx="0.0127362" ry="0.0127362"/>
   <rect id="_489892832" class="fil10" x="3.42781" y="4.25089" width="0.0318465" height="0.255684" rx="0.0127362" ry="0.0127362"/>
   <polygon id="_489892808" class="fil11" points="3.19119,5.19258 3.35766,5.19258 3.35766,5.02612 3.49084,5.02612 3.49084,5.19258 3.65731,5.19258 3.65731,5.32576 3.49084,5.32576 3.49084,5.78226 3.35766,5.78226 3.35766,5.32576 3.19119,5.32576 "/>
   <path id="_489892784" class="fil12" d="M2.53879 4.44113c0.169736,0.115209 0.30261,0.211768 0.410917,0.290476 0.23789,0.172878 0.356878,0.259346 0.47387,0.259579 0.117122,0.000240157 0.236445,-0.0858228 0.47513,-0.257992 0.108972,-0.0786063 0.24261,-0.175004 0.411008,-0.288465l0.00975591 0.0144685c-0.169429,0.114154 -0.302276,0.209984 -0.410598,0.288118 -0.241728,0.174362 -0.362567,0.26152 -0.485295,0.261268 -0.122736,-0.000244094 -0.243217,-0.0877992 -0.484102,-0.262854 -0.108803,-0.0790709 -0.24228,-0.176067 -0.410441,-0.290205l0.00975591 -0.0143937z"/>
   <path id="_489892640" class="fil13" d="M3.42086 4.99267c0.0049685,0 0.00948425,0.00202362 0.0127598,0.00529528l2.3622e-005 2.75591e-005c0.00327165,0.00327559 0.00529921,0.0077874 0.00529921,0.0127598 0,0.00498819 -0.00202756,0.00951181 -0.00529921,0.0127835l-2.3622e-005 0c-0.00327559,0.00327165 -0.00779134,0.00529921 -0.0127598,0.00529921 -0.00498819,0 -0.00951181,-0.00202756 -0.0127835,-0.00529921 -0.00327165,-0.00327165 -0.00529921,-0.00779528 -0.00529921,-0.0127835 0,-0.00497244 0.00202756,-0.00948425 0.00529921,-0.0127598l0 -2.75591e-005c0.00327165,-0.00327165 0.00779528,-0.00529528 0.0127835,-0.00529528zm0.00379528 0.014311l-2.3622e-005 -2.3622e-005c-0.000956693,-0.000944882 -0.00229134,-0.00153543 -0.00377165,-0.00153543 -0.00147244,0 -0.00281496,0.000598425 -0.00377165,0.00155906l-1.1811e-005 -1.1811e-005c-0.000952756,0.00096063 -0.00154724,0.00229921 -0.00154724,0.00378346 0,0.00147244 0.000602362,0.00281102 0.00155906,0.00377165 0.000956693,0.000956693 0.00229921,0.00155512 0.00377165,0.00155512 0.00148425,0 0.00282283,-0.000590551 0.00378346,-0.00154331l-1.1811e-005 -1.1811e-005c0.000956693,-0.00096063 0.00155512,-0.00229921 0.00155512,-0.00377165 0,-0.00148031 -0.000586614,-0.00281496 -0.0015315,-0.00377165z"/>
  </g>
  <rect class="fil14" x="0.0364567" y="-0.00520866" width="6.82666" height="6.82666"/>
 </g>
</svg>
