<?xml version="1.0" encoding="UTF-8"?>
<!DOCTYPE svg PUBLIC "-//W3C//DTD SVG 1.1//EN" "http://www.w3.org/Graphics/SVG/1.1/DTD/svg11.dtd">
<!-- Creator: CorelDRAW -->
<svg xmlns="http://www.w3.org/2000/svg" xml:space="preserve" width="6.82666in" height="6.82666in" style="shape-rendering:geometricPrecision; text-rendering:geometricPrecision; image-rendering:optimizeQuality; fill-rule:evenodd; clip-rule:evenodd"
viewBox="0 0 6.82666 6.82666"
 xmlns:xlink="http://www.w3.org/1999/xlink">
 <defs>
  <style type="text/css">
   <![CDATA[
    .fil13 {fill:none}
    .fil8 {fill:#293439}
    .fil5 {fill:#5C6BC0}
    .fil7 {fill:#79ACC4}
    .fil11 {fill:#7CB342}
    .fil3 {fill:#B3E5FC}
    .fil0 {fill:#DBC0B2}
    .fil2 {fill:#DFC4B6}
    .fil6 {fill:#E1F5FE}
    .fil9 {fill:#E4B7A0}
    .fil1 {fill:#ECCEBE}
    .fil4 {fill:#EDD0C2}
    .fil10 {fill:#01579B;fill-rule:nonzero}
    .fil12 {fill:#023963;fill-rule:nonzero}
   ]]>
  </style>
 </defs>
 <g id="Layer_x0020_1">
  <metadata id="CorelCorpID_0Corel-Layer"/>
  <path class="fil0" d="M2.51342 2.3278c0.0796299,-0.0342205 0.180996,0.0835748 0.22635,0.263126 0.0453543,0.179496 0.0175591,0.352736 -0.0621142,0.386953 -0.0796299,0.0341654 -0.180992,-0.0836299 -0.226346,-0.263181 -0.0453976,-0.179496 -0.0175591,-0.352748 0.0621102,-0.386898z"/>
  <path class="fil0" d="M4.84229 2.3278c-0.0796732,-0.0342205 -0.181035,0.0836299 -0.22639,0.263126 -0.0453543,0.179496 -0.0175591,0.352736 0.0621024,0.386898 0.0796693,0.0342205 0.181031,-0.0835748 0.22639,-0.263126 0.0453543,-0.179496 0.0175591,-0.352748 -0.0621024,-0.386898z"/>
  <path class="fil1" d="M4.16607 3.02438l0 1.10967c-0.267354,0.327437 -0.704827,0.316098 -0.972134,0l0 -1.10967c0,-0.599197 0.972134,-0.599197 0.972134,0z"/>
  <path class="fil2" d="M4.16607 3.02438l0 0.742945c-0.183945,0.134079 -0.361228,0.209189 -0.486067,0.209189 -0.124843,0 -0.302157,-0.0751102 -0.486067,-0.209189l0 -0.742945c0,-0.599197 0.972134,-0.599197 0.972134,0z"/>
  <path class="fil3" d="M3.22165 3.89039c-1.01328,0.44422 -1.31726,0.681087 -1.43741,0.787398 -0.185169,0.163843 -0.287583,0.774579 -0.396791,1.29317l2.29257 0 2.29253 0c-0.109197,-0.518587 -0.211622,-1.12932 -0.396783,-1.29317 -0.12011,-0.106311 -0.412961,-0.337079 -1.42628,-0.781299l-0.927843 -0.00609843z"/>
  <path class="fil4" d="M3.08522 3.81481l-0.0509803 2.15615 1.28946 0 -0.0510157 -2.15615c-0.395795,0 -0.791634,0 -1.18746,0z"/>
  <path class="fil5" d="M2.90683 4.42448c0.255024,0.189622 0.961291,0.313858 1.59563,0.0457559 -0.438354,0.579283 -0.287736,1.50072 -0.287736,1.50072l-0.895921 0c0,0 -0.0915118,-0.807531 -0.411969,-1.54647z"/>
  <path class="fil6" d="M3.18802 3.55522l0 0.572874 0.213713 1.84287 -0.367496 0 -0.404307 -0.820811 0.385925 -0.257256 -0.471634 -0.220524c0,0 0.0989803,-0.773516 0.643799,-1.11715z"/>
  <path class="fil6" d="M4.17202 3.55522l3.14961e-005 0.572874 -0.21585 1.84287 0.367496 0 0.404272 -0.820811 -0.38589 -0.257256 0.471634 -0.220524c0,0 -0.175894,-0.813051 -0.641693,-1.11715z"/>
  <path class="fil7" d="M2.32173 5.97096l0.0785039 0c-0.00350787,-0.349134 -0.00350787,-0.600756 -0.00350787,-0.600756 0,0 -0.0347756,0.261508 -0.0749961,0.600756z"/>
  <path class="fil7" d="M5.03831 5.97096l-0.0785472 0c0.00350787,-0.349134 0.00350787,-0.600756 0.00350787,-0.600756 0,0 0.0347756,0.261508 0.0750394,0.600756z"/>
  <path class="fil2" d="M4.16607 3.02438l0 0.742945c-0.183945,0.134079 -0.361228,0.209189 -0.486067,0.209189 -0.124843,0 -0.302157,-0.0751102 -0.486067,-0.209189l0 -0.742945c0,-0.599197 0.972134,-0.599197 0.972134,0z"/>
  <path class="fil1" d="M3.68 1.03212c-1.63142,0 -1.04473,1.97124 -0.938161,2.12815 0.117504,0.173051 0.674579,0.631705 0.938161,0.631705 0.263579,0 0.820622,-0.458654 0.938114,-0.631705 0.106614,-0.156902 0.693299,-2.12815 -0.938114,-2.12815z"/>
  <path class="fil8" d="M2.9343 1.69181c-0.094626,0.517 -0.331614,0.468744 -0.312819,1.07543 -0.076126,-0.472846 -0.189823,-1.1021 0.131665,-1.51659 0.256878,-0.331197 1.10768,-0.568106 1.65861,-0.17072 0.6085,0.13 0.418217,1.36889 0.336622,1.60305 -0.0569567,-0.37928 -0.184543,-0.537276 -0.345622,-0.983209 -0.218528,0.156701 -1.18833,0.191661 -1.46846,-0.00796063z"/>
  <path class="fil9" d="M3.1859 3.09563c0.328118,0.117425 0.708972,0.0983858 0.988189,0 -0.0911102,0.419787 -0.813957,0.429984 -0.988189,0z"/>
  <g id="_299004048">
   <path id="_299005392" class="fil10" d="M1.34837 4.5253l0 -1.15585 0 -0.106669 0.106669 0 0.749917 0 0.106669 0 0 0.106669 0 1.15585 0.490343 1.08358 0.000834646 0.0025c0.011878,0.0280118 0.0173346,0.0556772 0.0173346,0.0825551 0,0.058122 -0.0241142,0.111374 -0.0624449,0.155264 -0.0324724,0.037185 -0.0763543,0.0678465 -0.123409,0.087811 -0.0402992,0.0170945 -0.0834921,0.026878 -0.124685,0.026878l-1.3592 0c-0.0412008,0 -0.0843937,-0.0097874 -0.124697,-0.0268819 -0.0470551,-0.0199646 -0.0909291,-0.0506181 -0.123402,-0.0878031 -0.0383228,-0.0438898 -0.0624409,-0.0971378 -0.0624409,-0.15526 0,-0.0271417 0.00544882,-0.0549685 0.0173346,-0.0829764l0.000834646 -0.00208661 0.490343 -1.08358zm0.213339 -1.04918l0 1.07174 -0.00958661 0.043752 -0.498917 1.10254c0.000141732,0.00337402 0.00362598,0.0087874 0.00909449,0.0150512 0.0114409,0.0131024 0.0277953,0.0242835 0.0459055,0.0319685 0.0140591,0.00596063 0.0287008,0.00937795 0.0421929,0.00937795l1.3592 0c0.0134882,0 0.028126,-0.00341339 0.0421811,-0.00937402 0.0181142,-0.00768504 0.0344685,-0.0188701 0.0459134,-0.0319764 0.0054685,-0.00626378 0.00895276,-0.0116732 0.00909843,-0.0150472l-0.498917 -1.10254 -0.00958661 -0.043752 0 -1.07174 -0.536579 0z"/>
   <polygon id="_299004456" class="fil10" points="1.20507,3.26279 2.45491,3.26279 2.45491,3.47613 1.20507,3.47613 "/>
   <path id="_299004264" class="fil11" d="M1.55212 4.59161l-0.498917 1.10254c0.000141732,0.00337402 0.00362598,0.0087874 0.00909449,0.0150512 0.0114409,0.0131024 0.0277953,0.0242835 0.0459055,0.0319685 0.0140591,0.00596063 0.0287008,0.00937795 0.0421929,0.00937795l1.3592 0c0.0134882,0 0.028126,-0.00341339 0.0421811,-0.00937402 0.0181142,-0.00768504 0.0344685,-0.0188701 0.0459134,-0.0319764 0.0054685,-0.00626378 0.00895276,-0.0116732 0.00909843,-0.0150472l-0.498917 -1.10254 -0.00958661 -0.043752 0 -0.288413 -0.536579 0 0 0.288413 -0.00958661 0.043752z"/>
  </g>
  <g id="_299004144">
   <path id="_299004336" class="fil12" d="M2.86652 2.12794l0.648732 0c0.0314173,0 0.0643307,0.00720472 0.0930236,0.0193976 0.0245157,0.0104055 0.0467047,0.0249252 0.0633976,0.0423031 0.0218858,0.0228071 0.0350787,0.0503583 0.0350787,0.0813189 0,0.0138268 -0.0028189,0.0279764 -0.00888189,0.0422441l-0.139996 0.329476c-0.0137717,0.0324134 -0.0325472,0.0641496 -0.0606142,0.0893228 -0.0309567,0.0277677 -0.0704291,0.0457362 -0.122004,0.0457362l-0.508736 0c-0.0484528,0 -0.0932874,-0.0159921 -0.126472,-0.0417283 -0.0378937,-0.0294016 -0.0614173,-0.071248 -0.0614173,-0.118433l0 -0.329476c0,-0.0471969 0.0235276,-0.0890433 0.0614173,-0.118433 0.033185,-0.0257441 0.0780197,-0.0417283 0.126472,-0.0417283zm0.648732 0.12852l-0.648732 0c-0.0195394,0 -0.0365354,0.00560236 -0.0481575,0.0146142 -0.00691732,0.0053622 -0.0112126,0.0114764 -0.0112126,0.0170276l0 0.329476c0,0.00554724 0.00429528,0.0116614 0.0112126,0.0170276 0.011622,0.00901181 0.0286181,0.0146142 0.0481575,0.0146142l0.508736 0c0.0164213,0 0.0281378,-0.00495276 0.0366614,-0.0125984 0.0114291,-0.010252 0.0204882,-0.0264882 0.0279882,-0.0441457l0.135035 -0.317803c-0.00439764,-0.00333858 -0.0101772,-0.00652756 -0.0168701,-0.00936614 -0.0130866,-0.00555906 -0.0282323,-0.00884646 -0.0428189,-0.00884646z"/>
   <path id="_299004192" class="fil12" d="M4.49347 2.25646l-0.648732 0c-0.0145866,0 -0.0297283,0.0032874 -0.042815,0.00884646 -0.00669291,0.00283858 -0.0124724,0.00602756 -0.0168701,0.00936614l0.135039 0.317803c0.00749606,0.0176575 0.0165591,0.0338937 0.0279843,0.0441457 0.00852362,0.00764567 0.0202402,0.0125984 0.0366575,0.0125984l0.508736 0c0.0195394,0 0.0365354,-0.00560236 0.0481614,-0.0146142 0.00691732,-0.00536614 0.0112126,-0.0114803 0.0112126,-0.0170276l0 -0.329476c0,-0.00555118 -0.00429528,-0.0116654 -0.0112126,-0.0170276 -0.011622,-0.00901181 -0.0286181,-0.0146142 -0.0481614,-0.0146142zm-0.648732 -0.12852l0.648732 0c0.0484567,0 0.0932913,0.0159882 0.126476,0.0417283 0.0378898,0.0293937 0.0614173,0.0712402 0.0614173,0.118433l0 0.329476c0,0.047185 -0.0235236,0.0890315 -0.0614173,0.118433 -0.0331969,0.0257362 -0.0780315,0.0417283 -0.126476,0.0417283l-0.508736 0c-0.0515709,0 -0.0910394,-0.0179685 -0.122,-0.0457362 -0.0280669,-0.0251732 -0.0468425,-0.0569016 -0.0606142,-0.0893228l-0.139996 -0.329476c-0.00605906,-0.014248 -0.00888583,-0.0284016 -0.00888583,-0.0422441 0,-0.0309646 0.0132008,-0.0585157 0.0350827,-0.0813189 0.0166929,-0.017378 0.0388819,-0.0318976 0.0633976,-0.0423031 0.0286929,-0.0121929 0.0616024,-0.0193976 0.0930197,-0.0193976z"/>
  </g>
  <rect class="fil13" x="0.0364567" y="-0.00520866" width="6.82666" height="6.82666"/>
 </g>
</svg>
