<?xml version="1.0" encoding="UTF-8"?>
<!DOCTYPE svg PUBLIC "-//W3C//DTD SVG 1.1//EN" "http://www.w3.org/Graphics/SVG/1.1/DTD/svg11.dtd">
<!-- Creator: CorelDRAW -->
<svg xmlns="http://www.w3.org/2000/svg" xml:space="preserve" width="6.82666in" height="6.82666in" style="shape-rendering:geometricPrecision; text-rendering:geometricPrecision; image-rendering:optimizeQuality; fill-rule:evenodd; clip-rule:evenodd"
viewBox="0 0 6.82666 6.82666"
 xmlns:xlink="http://www.w3.org/1999/xlink">
 <defs>
  <style type="text/css">
   <![CDATA[
    .fil19 {fill:none}
    .fil2 {fill:#212121}
    .fil8 {fill:#224F10}
    .fil9 {fill:#33691E}
    .fil6 {fill:#424242}
    .fil14 {fill:#616161}
    .fil10 {fill:#757575}
    .fil13 {fill:#C4C4C4}
    .fil5 {fill:#C7B7B7}
    .fil0 {fill:#DBC0B2}
    .fil4 {fill:#DFC4B6}
    .fil11 {fill:#E4B7A0}
    .fil18 {fill:#E65100}
    .fil3 {fill:#ECCEBE}
    .fil1 {fill:#FFDDCC}
    .fil7 {fill:white}
    .fil12 {fill:#424242;fill-rule:nonzero}
    .fil17 {fill:#FF6D00;fill-rule:nonzero}
    .fil15 {fill:#FF9100;fill-rule:nonzero}
    .fil16 {fill:#FFAB40;fill-rule:nonzero}
   ]]>
  </style>
 </defs>
 <g id="Layer_x0020_1">
  <metadata id="CorelCorpID_0Corel-Layer"/>
  <g id="_299006424">
   <g>
    <path id="_298976688" class="fil0" d="M2.6348 2.43806c0.081748,-0.0269528 0.185799,0.0658425 0.232358,0.207283 0.0465591,0.141402 0.0180276,0.277874 -0.0637598,0.304831 -0.0817441,0.0269134 -0.185799,-0.0658819 -0.232358,-0.207327 -0.0466024,-0.141402 -0.0180276,-0.277882 0.0637598,-0.304787z"/>
    <path id="_298976568" class="fil0" d="M5.0255 2.43806c-0.0817874,-0.0269528 -0.185843,0.0658819 -0.232402,0.207283 -0.0465591,0.141402 -0.0180276,0.277874 0.063752,0.304787 0.0817874,0.0269567 0.185839,-0.0658386 0.232398,-0.207283 0.0465591,-0.141402 0.0180276,-0.277882 -0.063748,-0.304787z"/>
    <path id="_298976400" class="fil1" d="M3.39971 3.93996c-0.956189,0.419169 -1.24302,0.642642 -1.35639,0.742996 -0.174728,0.154614 -0.271366,0.730913 -0.374417,1.22024l2.1633 0 2.1633 0c-0.103051,-0.489331 -0.199732,-1.06563 -0.374417,-1.22024 -0.11337,-0.100354 -0.389697,-0.318063 -1.34589,-0.737283l-0.87548 -0.0057126z"/>
    <path id="_298976352" class="fil2" d="M3.39967 3.93996c-0.956146,0.419169 -1.24298,0.642642 -1.35635,0.742996 -0.174728,0.154614 -0.271366,0.730913 -0.374417,1.22024l2.1633 0 2.16326 0c-0.103039,-0.489331 -0.199689,-1.06563 -0.374406,-1.22024 -0.113339,-0.100354 -0.389665,-0.318063 -1.34585,-0.737283l-0.875524 -0.0057126z"/>
    <path id="_298976256" class="fil3" d="M4.29645 3.10438l0 1.05988c-0.255358,0.312744 -0.673201,0.301913 -0.928516,0l0 -1.05988c0,-0.572311 0.928516,-0.572311 0.928516,0z"/>
    <path id="_298975968" class="fil4" d="M4.29645 3.10438l0 0.709606c-0.175689,0.128063 -0.34502,0.199803 -0.46426,0.199803 -0.119236,0 -0.288598,-0.0717402 -0.464256,-0.199803l0 -0.709606c0,-0.572311 0.928516,-0.572311 0.928516,0z"/>
    <path id="_298976328" class="fil3" d="M3.83219 1.20151c-1.55821,0 -0.99785,1.88279 -0.896063,2.03265 0.112232,0.165287 0.644311,0.603358 0.896063,0.603358 0.251756,0 0.783803,-0.438071 0.896024,-0.603358 0.101831,-0.149862 0.662193,-2.03265 -0.896024,-2.03265z"/>
    <path id="_298975920" class="fil5" d="M3.83461 4.39476c0,0 -0.647902,0.154673 -0.647902,0.19389 0,0.0392205 0.246539,1.31456 0.246539,1.31456l0.879614 0 0.100815 -1.30893 -0.579067 -0.199512z"/>
    <polygon id="_298975728" class="fil6" points="3.36794,3.95393 3.36794,4.16426 3.56961,5.9032 3.22283,5.9032 2.84132,5.12869 3.20548,4.88593 2.76044,4.67785 3.16968,4.04282 "/>
    <polygon id="_298975800" class="fil6" points="4.29645,3.95503 4.29648,4.16426 4.0928,5.9032 4.43959,5.9032 4.82104,5.12869 4.45693,4.88593 4.90196,4.67785 4.53824,4.06239 "/>
    <polygon id="_298975680" class="fil7" points="3.36794,3.81398 3.32735,3.97183 3.44094,4.79399 3.83461,4.39479 "/>
    <path id="_298976016" class="fil8" d="M3.63254 4.60981l0.112441 0.174185c0.0581102,0 0.116295,0 0.174406,0l0.112472 -0.174185 -0.197248 -0.215051 -0.202071 0.215051z"/>
    <polygon id="_298976160" class="fil9" points="3.74498,4.78399 3.5849,5.9032 4.07949,5.9032 3.91941,4.78399 "/>
    <polygon id="_298974864" class="fil7" points="4.29645,3.81398 4.32847,3.96928 4.22176,4.8022 3.83461,4.39479 "/>
    <path id="_298975128" class="fil10" d="M2.5505 5.9032l0.0740787 0c-0.00331102,-0.329433 -0.00331102,-0.566866 -0.00331102,-0.566866 0,0 -0.032815,0.246748 -0.0707677,0.566866z"/>
    <path id="_298975536" class="fil10" d="M5.11389 5.9032l-0.074122 0c0.00331102,-0.329433 0.00331102,-0.566866 0.00331102,-0.566866 0,0 0.032815,0.246748 0.070811,0.566866z"/>
    <path id="_298974912" class="fil11" d="M3.36027 3.17243c0.31339,0.112157 0.677157,0.0939724 0.943846,0 -0.0870236,0.400953 -0.777433,0.410689 -0.943846,0z"/>
    <g>
     <path id="_298975272" class="fil12" d="M2.93127 2.02393c-0.00707874,-0.00468898 -0.0175669,-0.011248 -0.0283543,-0.0179921 -0.132067,-0.082563 -0.302945,-0.189382 -0.307606,-0.849035 -0.000244094,-0.0628189 0.0504764,-0.113945 0.113295,-0.114189 0.0337205,-0.000133858 0.064063,0.0144252 0.0849843,0.0376496l0.000208661 -0.000185039c0.0571732,0.0633898 0.114728,0.0951024 0.169409,0.103146 0.0612756,0.00900394 0.123839,-0.0109252 0.180917,-0.0486654 0.197394,-0.1305 0.469134,-0.248142 0.758346,-0.27776 0.232697,-0.0238307 0.476724,0.00877953 0.703965,0.135638 0.00258268,0.00143701 0.00509055,0.00296063 0.00751969,0.00456299l6.69291e-005 -0.000102362c0.207134,0.137437 0.349776,0.26465 0.415142,0.415898 0.0702756,0.162638 0.0497717,0.336244 -0.0776929,0.552988 -0.0179055,0.0305354 -0.0478622,0.0496417 -0.0802953,0.0548031l7.87402e-006 5.51181e-005c-0.0336929,0.00543307 -0.0657835,0.00940945 -0.0960906,0.0118268 -0.0326732,0.00261024 -0.0650433,0.00394882 -0.0969882,0.00394882 -0.232366,0 -0.447146,-0.0656654 -0.618559,-0.175839 -0.102657,-0.0659803 -0.189937,-0.148071 -0.256598,-0.241909 -0.0578189,0.0859134 -0.132669,0.162469 -0.220717,0.226504 -0.155374,0.113012 -0.352571,0.187303 -0.56926,0.204539 -0.0307835,0.00241732 -0.0596614,-0.00762992 -0.0817008,-0.0258819z"/>
     <path id="_298975152" class="fil12" d="M3.84874 1.64248c0.240795,0.0193858 0.642012,-0.0929331 0.888783,0.353953 0.0979724,0.177528 0.122484,0.465193 0.140803,0.502083 0.0892638,-0.0774173 0.158217,-0.054685 0.218961,0.00826772 -0.0567047,-0.758213 -0.0711929,-1.35793 -1.26235,-1.39847 -0.880642,-0.0299803 -1.19191,0.456071 -1.23591,1.04333l-0.0319331 0.36302c0.0965039,-0.0805866 0.170756,-0.0579528 0.222815,0.0164528 0.140583,-0.409567 -0.0802953,-0.980244 1.05883,-0.88863z"/>
    </g>
   </g>
   <polygon id="_298974936" class="fil13" points="0.88,3.57118 2.63789,3.57118 2.68672,3.57118 2.68672,3.62001 2.68672,5.8662 2.68672,5.91504 2.63789,5.91504 0.88,5.91504 0.831169,5.91504 0.831169,5.8662 0.831169,3.62001 0.831169,3.57118 "/>
   <polygon id="_298975032" class="fil14" points="1.17299,5.37788 2.34491,5.37788 2.34491,5.47555 1.17299,5.47555 "/>
   <polygon id="_298975464" class="fil14" points="1.17299,5.08489 2.34491,5.08489 2.34491,5.18256 1.17299,5.18256 "/>
   <polygon id="_298974264" class="fil14" points="1.17299,4.79191 2.34491,4.79191 2.34491,4.88957 1.17299,4.88957 "/>
   <polygon id="_298974096" class="fil14" points="1.17299,4.49891 2.34491,4.49891 2.34491,4.59658 1.17299,4.59658 "/>
   <polygon id="_298974648" class="fil14" points="1.17299,4.20593 2.34491,4.20593 2.34491,4.30359 1.17299,4.30359 "/>
   <polygon id="_298974288" class="fil14" points="1.17299,3.91294 2.34491,3.91294 2.34491,4.0106 1.17299,4.0106 "/>
   <g>
    <g>
     <polygon id="_298974384" class="fil15" points="2.78082,4.67558 2.58553,5.63571 2.29842,5.57731 2.49372,4.61718 "/>
     <polygon id="_298974432" class="fil16" points="2.58624,5.6322 2.58613,5.63277 2.57817,5.65081 2.43529,5.85576 2.3721,5.95002 2.34755,5.83732 2.29903,5.59345 2.29902,5.57437 2.29913,5.57381 "/>
     <polygon id="_298974120" class="fil16" points="2.6194,4.24429 2.8108,4.28322 2.85865,4.29296 2.84892,4.34081 2.78082,4.67558 2.49372,4.61718 2.56181,4.28241 2.57155,4.23456 "/>
    </g>
    <g>
     <polygon id="_298974792" class="fil17" points="2.78082,4.67558 2.58553,5.63571 2.44197,5.60651 2.63727,4.64638 "/>
     <polygon id="_298974744" class="fil17" points="2.58624,5.6322 2.58613,5.63277 2.57817,5.65081 2.43529,5.85576 2.3721,5.95002 2.3721,5.95001 2.44268,5.60301 "/>
     <polygon id="_298974552" class="fil17" points="2.71509,4.26376 2.8108,4.28322 2.85865,4.29296 2.84892,4.34081 2.78082,4.67558 2.63727,4.64638 "/>
    </g>
    <path id="_299006376" class="fil2" d="M2.36371 5.91098l0.0313622 0.00637795 -0.00952362 0.046815c-0.00175197,0.00862205 -0.0102441,0.0142441 -0.0188701,0.0124882l0 0c-0.00862205,-0.00175197 -0.0142441,-0.0102441 -0.0124921,-0.0188661l0.00952362 -0.046815z"/>
    <rect id="_299006544" class="fil18" transform="matrix(0.979934 0.199324 -0.199324 0.979934 2.57947 4.83414)" width="0.0384213" height="0.585965"/>
   </g>
  </g>
  <rect class="fil19" x="0.0364567" y="-0.00520866" width="6.82666" height="6.82666"/>
 </g>
</svg>
