<?xml version="1.0" encoding="UTF-8"?>
<!DOCTYPE svg PUBLIC "-//W3C//DTD SVG 1.1//EN" "http://www.w3.org/Graphics/SVG/1.1/DTD/svg11.dtd">
<!-- Creator: CorelDRAW -->
<svg xmlns="http://www.w3.org/2000/svg" xml:space="preserve" width="6.82666in" height="6.82666in" style="shape-rendering:geometricPrecision; text-rendering:geometricPrecision; image-rendering:optimizeQuality; fill-rule:evenodd; clip-rule:evenodd"
viewBox="0 0 6.82666 6.82666"
 xmlns:xlink="http://www.w3.org/1999/xlink">
 <defs>
  <style type="text/css">
   <![CDATA[
    .fil18 {fill:none}
    .fil8 {fill:#4F240E}
    .fil10 {fill:#616161}
    .fil7 {fill:#9F9F9F}
    .fil11 {fill:#BDBDBD}
    .fil12 {fill:#E4B7A0}
    .fil14 {fill:#FF6F00}
    .fil9 {fill:#161313;fill-rule:nonzero}
    .fil13 {fill:#261411;fill-rule:nonzero}
    .fil17 {fill:#32201D;fill-rule:nonzero}
    .fil15 {fill:#3E2723;fill-rule:nonzero}
    .fil16 {fill:#442C27;fill-rule:nonzero}
    .fil6 {fill:#616161;fill-rule:nonzero}
    .fil4 {fill:#757575;fill-rule:nonzero}
    .fil3 {fill:#CDCDCD;fill-rule:nonzero}
    .fil0 {fill:#F2CFBD;fill-rule:nonzero}
    .fil2 {fill:#FFDDCC;fill-rule:nonzero}
    .fil1 {fill:black;fill-rule:nonzero;fill-opacity:0.050980}
    .fil5 {fill:black;fill-rule:nonzero;fill-opacity:0.101961}
   ]]>
  </style>
 </defs>
 <g id="Layer_x0020_1">
  <metadata id="CorelCorpID_0Corel-Layer"/>
  <g id="_298976376">
   <g>
    <path id="_298980888" class="fil0" d="M3.19059 2.81966c0.0357677,0.171858 -0.00698031,0.326114 -0.0954331,0.344535 -0.0884724,0.0184094 -0.189189,-0.106016 -0.224929,-0.27789 -0.0357402,-0.17187 0.00694094,-0.326134 0.0954606,-0.344528 0.0884488,-0.0184094 0.189114,0.106008 0.224902,0.277882z"/>
    <path id="_298980480" class="fil0" d="M4.61672 2.81966c-0.0357638,0.171858 0.00698425,0.326114 0.0954331,0.344535 0.0884724,0.0184094 0.189185,-0.106016 0.224906,-0.27789 0.0358268,-0.17187 -0.00692126,-0.326134 -0.0954409,-0.344528 -0.0884449,-0.0184094 -0.189114,0.106008 -0.224898,0.277882z"/>
    <path id="_298980864" class="fil0" d="M4.63937 4.15787c-0.143744,-0.0195984 -0.25737,-0.14865 -0.275587,-0.312925l-0.0640512 -0.578906 -0.792118 0 -0.0640787 0.578906c-0.0181693,0.164276 -0.131795,0.293327 -0.275535,0.312925 -0.18485,0.0252205 0.277453,0.375945 0.735669,0.376079 0.463319,0.000137795 0.922583,-0.350587 0.735701,-0.376079z"/>
    <path id="_298980240" class="fil1" d="M3.51565 3.92422c0.13752,0.119728 0.206736,0.185803 0.389079,0.185803 0.181,0 0.248047,-0.0651654 0.384689,-0.183823 0.0242559,-0.0210591 0.0497087,-0.0455827 0.0756772,-0.0725906 -0.000393701,-0.00291732 -0.000972441,-0.00574016 -0.0013189,-0.00867323l-0.0640512 -0.578906 -0.792118 0 -0.0640787 0.578906c-0.000318898,0.00296457 -0.000893701,0.00582283 -0.00131102,0.00877559 0.0251772,0.0261339 0.0498701,0.0499685 0.0734331,0.0705079z"/>
    <path id="_298979952" class="fil2" d="M4.75189 2.2531c-0.00708268,-0.463146 -0.384417,-0.835169 -0.847618,-0.835169l-0.000251969 0c-0.463945,0 -0.841535,0.37215 -0.848606,0.83602 -0.00505512,0.332339 -0.0097126,0.637193 -0.0097126,0.637232 0,0.160606 0.0157283,0.386819 0.107079,0.543579 0.0932913,0.160075 0.263276,0.249925 0.362858,0.336638 0.137512,0.119748 0.206728,0.185819 0.389051,0.185819 0.181,0 0.248028,-0.0651732 0.384709,-0.183811 0.100811,-0.0875354 0.270854,-0.181543 0.365091,-0.34402 0.0903976,-0.15585 0.107154,-0.378654 0.107154,-0.538205 0,-3.93701e-005 -0.00465354,-0.305417 -0.00975197,-0.638083z"/>
    <path id="_298979832" class="fil3" d="M4.63936 4.15787c-0.11761,-0.0160394 -0.214921,-0.105339 -0.256469,-0.227228l-0.479201 0.362244 -0.479248 -0.362244c-0.0415118,0.12189 -0.138854,0.211189 -0.256449,0.227228 -0.217894,0.0297087 -0.974988,0.120913 -1.08335,0.248331 -0.174783,0.205512 -0.23572,0.505283 -0.274953,0.793327 -0.00201969,0.0148425 -0.0172677,0.426138 -0.0213386,0.505098l4.19395 0c-0.0102756,-0.0924252 -0.0536417,-0.492433 -0.0557362,-0.507764 -0.0383937,-0.280992 -0.0977165,-0.57287 -0.263437,-0.777228 -0.109004,-0.134429 -0.798315,-0.231024 -1.02377,-0.261764z"/>
    <polygon id="_298980168" class="fil4" points="3.76664,5.70069 3.80498,4.30148 4.00231,4.30148 4.04069,5.70069 "/>
    <polygon id="_298979880" class="fil5" points="4.1066,4.74716 3.90365,4.29288 4.38289,4.02613 4.63932,4.15787 "/>
    <polygon id="_298980096" class="fil5" points="3.70074,4.74716 3.90365,4.29288 3.42444,4.02613 3.168,4.15787 "/>
    <polygon id="_298980048" class="fil4" points="4.1066,4.65167 3.90365,4.29288 4.38289,3.93064 4.63932,4.15787 "/>
    <polygon id="_298979736" class="fil6" points="3.70069,4.65167 3.90365,4.29288 3.42444,3.93064 3.168,4.15787 "/>
    <rect id="_298979040" class="fil7" x="4.45998" y="5.16317" width="0.868131" height="0.137488"/>
    <path id="_298978992" class="fil8" d="M3.96806 3.62407c0.0652441,0.0403071 0.0214882,0.132744 0.132528,0.0801339 0.138571,-0.0656378 0.386575,-0.0970669 0.488689,-0.228339 0.102134,-0.131319 0.0852913,-0.189669 0.121764,-0.525185 0.0365,-0.335567 0.0241654,-0.739693 -0.194705,-0.725106 -0.218803,0.0145866 -0.357398,0.0510512 -0.612705,0.0510512 -0.255291,0 -0.393902,-0.0364646 -0.612728,-0.0510512 -0.218835,-0.0145866 -0.231169,0.389539 -0.194673,0.725106 0.0364409,0.335516 0.0195984,0.393866 0.121732,0.525185 0.102138,0.131272 0.350118,0.162701 0.488724,0.228339 0.110272,0.0522244 0.0583543,-0.040248 0.117024,-0.0802244 0.0348858,-0.0237717 0.108323,-0.0221654 0.14435,9.05512e-005zm-0.0644291 -1.92142c0.931496,0 0.922228,0.498961 0.921366,0.963528 -0.000669291,0.369961 -0.116386,0.75548 -0.154972,0.812323 -0.0960157,0.141343 -0.551098,0.525862 -0.766394,0.525862 -0.215319,0 -0.670402,-0.38452 -0.766382,-0.525862 -0.0411181,-0.060563 -0.169748,-0.489079 -0.153598,-0.885079 0.0180354,-0.442374 -0.0312598,-0.890772 0.91998,-0.890772z"/>
    <path id="_298979088" class="fil9" d="M4.28501 1.82731c0,0.0822402 -0.169874,0.148898 -0.379394,0.148898 -0.209524,0 -0.379378,-0.0666575 -0.379378,-0.148898 0,-0.0822205 0.169854,-0.148886 0.379378,-0.148886 0.20952,0 0.379394,0.0666654 0.379394,0.148886z"/>
    <path id="_298979280" class="fil9" d="M2.99266 1.9762c0,0 0.124457,-0.669909 0.407118,-0.610303 0,0 0.257705,-0.364142 0.909929,0.0634606 0,0 0.168681,-0.0261614 0.369563,0.0928465 0.200835,0.119035 0.167406,0.645642 0.167406,0.645642 0,0 -0.417181,-0.548933 -0.943197,-0.548933 -0.525992,0 -0.910819,0.357287 -0.910819,0.357287z"/>
    <rect id="_298979160" class="fil10" x="2.76496" y="1.71685" width="2.26494" height="0.157371"/>
    <path id="_298978920" class="fil11" d="M3.8902 0.878677c0.696697,0 1.13371,0.437756 1.26149,0.692622 0.0626102,0.124878 -0.020752,0.159346 -0.123161,0.159346l-2.2667 0c-0.103957,0 -0.161335,-0.0515945 -0.133118,-0.159346 0.0637402,-0.243319 0.564791,-0.692622 1.26149,-0.692622z"/>
    <path id="_298979328" class="fil4" d="M5.02981 1.86263c0.0424252,0.035622 0.0653858,0.0734409 0.0653858,0.111421 0,0.0983307 -0.18115,0.230055 -0.465783,0.312173 -0.199409,0.0575276 -0.454886,0.100504 -0.73198,0.100504 -0.277098,0 -0.532575,-0.0429764 -0.731984,-0.100504 -0.28463,-0.0821181 -0.46578,-0.213843 -0.46578,-0.312173 0,-0.0379803 0.0229567,-0.0757992 0.0653819,-0.111421l2.26476 0z"/>
    <path id="_298978416" class="fil12" d="M3.49665 3.47595c0.270291,0.0444646 0.584028,0.0372559 0.814035,0 -0.0750551,0.158949 -0.670508,0.162807 -0.814035,0z"/>
   </g>
   <g>
    <polygon id="_298978392" class="fil13" points="2.16929,3.77107 2.16929,4.31369 2.01342,4.31369 2.01342,3.77107 "/>
    <polygon id="_298978368" class="fil13" points="1.18206,4.60243 1.72468,4.60243 1.72468,4.75831 1.18206,4.75831 "/>
    <polygon id="_298978104" class="fil13" points="1.50349,3.9823 1.88718,4.36598 1.77697,4.47619 1.39328,4.09251 "/>
    <polygon id="_298977936" class="fil13" points="2.78943,4.09251 2.40574,4.47619 2.29553,4.36598 2.67922,3.9823 "/>
    <polygon id="_298978200" class="fil13" points="2.16929,5.04704 2.16929,5.58966 2.01342,5.58966 2.01342,5.04704 "/>
    <polygon id="_298978536" class="fil13" points="2.45803,4.60243 3.00065,4.60243 3.00065,4.75831 2.45803,4.75831 "/>
    <polygon id="_298978152" class="fil13" points="2.40574,4.88454 2.78943,5.26823 2.67922,5.37844 2.29553,4.99475 "/>
    <polygon id="_298978032" class="fil13" points="1.88718,4.99475 1.50349,5.37844 1.39328,5.26823 1.77697,4.88454 "/>
    <path id="_298978248" class="fil14" d="M3.33835 4.701c0,-0.0544567 -0.0363071,-0.0986024 -0.0810984,-0.0986024 -0.0266654,0 -0.0503228,0.0156496 -0.0651024,0.0398031 -0.0119724,-0.00869685 -0.0267008,-0.0138268 -0.0426299,-0.0138268 -0.0401102,0 -0.072626,0.0325157 -0.072626,0.072626 0,0.0401102 0.0325157,0.072626 0.072626,0.072626 0.0159291,0 0.0306575,-0.00512992 0.0426299,-0.0138268 0.0147795,0.0241535 0.038437,0.0398031 0.0651024,0.0398031 0.0447913,0 0.0810984,-0.0441457 0.0810984,-0.0986024z"/>
    <path id="_298977648" class="fil14" d="M0.844358 4.701c0,-0.0544567 0.0363071,-0.0986024 0.0810984,-0.0986024 0.0266654,0 0.0503228,0.0156496 0.0651024,0.0398031 0.0119724,-0.00869685 0.0267008,-0.0138268 0.0426299,-0.0138268 0.0401102,0 0.072626,0.0325157 0.072626,0.072626 0,0.0401102 -0.0325157,0.072626 -0.072626,0.072626 -0.0159291,0 -0.0306575,-0.00512992 -0.0426299,-0.0138268 -0.0147795,0.0241535 -0.038437,0.0398031 -0.0651024,0.0398031 -0.0447913,0 -0.0810984,-0.0441457 -0.0810984,-0.0986024z"/>
    <path id="_298977432" class="fil14" d="M2.09135 5.94799c0.0544567,0 0.0986024,-0.0363071 0.0986024,-0.0810984 0,-0.0266654 -0.0156496,-0.0503228 -0.0398031,-0.0651024 0.00869685,-0.0119724 0.0138268,-0.0267008 0.0138268,-0.0426299 0,-0.0401102 -0.0325157,-0.072626 -0.072626,-0.072626 -0.0401102,0 -0.072626,0.0325157 -0.072626,0.072626 0,0.0159291 0.00512992,0.0306575 0.0138268,0.0426299 -0.0241535,0.0147795 -0.0398031,0.038437 -0.0398031,0.0651024 0,0.0447913 0.0441457,0.0810984 0.0986024,0.0810984z"/>
    <path id="_298977624" class="fil14" d="M2.09135 3.454c0.0544567,0 0.0986024,0.0363071 0.0986024,0.0810984 0,0.0266654 -0.0156496,0.0503228 -0.0398031,0.0651024 0.00869685,0.0119724 0.0138268,0.0267008 0.0138268,0.0426299 0,0.0401102 -0.0325157,0.072626 -0.072626,0.072626 -0.0401102,0 -0.072626,-0.0325157 -0.072626,-0.072626 0,-0.0159291 0.00512992,-0.0306575 0.0138268,-0.0426299 -0.0241535,-0.0147795 -0.0398031,-0.038437 -0.0398031,-0.0651024 0,-0.0447913 0.0441457,-0.0810984 0.0986024,-0.0810984z"/>
    <path id="_298977744" class="fil14" d="M2.97311 5.58276c0.0385039,-0.0385079 0.0440472,-0.0953976 0.012378,-0.127067 -0.0188583,-0.0188543 -0.0466496,-0.0245197 -0.0741811,-0.0178898 -0.0023189,-0.0146142 -0.00910236,-0.0286575 -0.0203661,-0.0399213 -0.0283622,-0.0283622 -0.0743465,-0.0283622 -0.102709,0 -0.0283622,0.0283622 -0.0283622,0.0743465 0,0.102709 0.0112638,0.0112638 0.0253071,0.0180472 0.0399213,0.0203661 -0.00662992,0.0275315 -0.000964567,0.0553228 0.0178898,0.0741811 0.0316693,0.0316693 0.0885591,0.026126 0.127067,-0.012378z"/>
    <path id="_298977528" class="fil14" d="M1.20959 3.81924c0.0385079,-0.0385039 0.0953976,-0.0440472 0.127067,-0.012378 0.0188543,0.0188583 0.0245197,0.0466496 0.0178898,0.0741811 0.0146142,0.0023189 0.0286575,0.00910236 0.0399213,0.0203661 0.0283622,0.0283622 0.0283622,0.0743465 0,0.102709 -0.0283622,0.0283622 -0.0743465,0.0283622 -0.102709,0 -0.0112638,-0.0112638 -0.0180472,-0.0253071 -0.0203661,-0.0399213 -0.0275315,0.00662992 -0.0553228,0.000964567 -0.0741811,-0.0178898 -0.0316693,-0.0316693 -0.026126,-0.0885591 0.012378,-0.127067z"/>
    <path id="_298977336" class="fil14" d="M1.20959 5.58276c-0.0385039,-0.0385079 -0.0440472,-0.0953976 -0.012378,-0.127067 0.0188583,-0.0188543 0.0466496,-0.0245197 0.0741811,-0.0178898 0.0023189,-0.0146142 0.00910236,-0.0286575 0.0203661,-0.0399213 0.0283622,-0.0283622 0.0743465,-0.0283622 0.102709,0 0.0283622,0.0283622 0.0283622,0.0743465 0,0.102709 -0.0112638,0.0112638 -0.0253071,0.0180472 -0.0399213,0.0203661 0.00662992,0.0275315 0.000964567,0.0553228 -0.0178898,0.0741811 -0.0316693,0.0316693 -0.0885591,0.026126 -0.127067,-0.012378z"/>
    <path id="_298977576" class="fil14" d="M2.97311 3.81924c-0.0385079,-0.0385039 -0.0953976,-0.0440472 -0.127067,-0.012378 -0.0188543,0.0188583 -0.0245197,0.0466496 -0.0178898,0.0741811 -0.0146142,0.0023189 -0.0286575,0.00910236 -0.0399213,0.0203661 -0.0283622,0.0283622 -0.0283622,0.0743465 0,0.102709 0.0283622,0.0283622 0.0743465,0.0283622 0.102709,0 0.0112638,-0.0112638 0.0180472,-0.0253071 0.0203661,-0.0399213 0.0275315,0.00662992 0.0553228,0.000964567 0.0741811,-0.0178898 0.0316693,-0.0316693 0.026126,-0.0885591 -0.012378,-0.127067z"/>
    <path id="_298977696" class="fil15" d="M2.09135 5.09606c-0.109087,0 -0.207854,-0.0442244 -0.279346,-0.115717 -0.0714921,-0.0714921 -0.115717,-0.17026 -0.115717,-0.279346 0,-0.109087 0.0442244,-0.207854 0.115717,-0.279346 0.0714921,-0.0714921 0.17026,-0.115717 0.279346,-0.115717 0.109087,0 0.207854,0.0442244 0.279346,0.115717 0.0714921,0.0714921 0.115717,0.17026 0.115717,0.279346 0,0.109087 -0.0442244,0.207854 -0.115717,0.279346 -0.0714921,0.0714921 -0.17026,0.115717 -0.279346,0.115717zm-0.169138 -0.225925c0.0432795,0.0432795 0.103083,0.0700512 0.169138,0.0700512 0.0660551,0 0.125858,-0.0267717 0.169138,-0.0700512 0.0432795,-0.0432795 0.0700512,-0.103083 0.0700512,-0.169138 0,-0.0660551 -0.0267717,-0.125858 -0.0700512,-0.169138 -0.0432795,-0.0432795 -0.103083,-0.0700512 -0.169138,-0.0700512 -0.0660551,0 -0.125858,0.0267717 -0.169138,0.0700512 -0.0432795,0.0432795 -0.0700512,0.103083 -0.0700512,0.169138 0,0.0660551 0.0267717,0.125858 0.0700512,0.169138z"/>
    <path id="_298977888" class="fil13" d="M2.09135 4.96875c-0.0739331,0 -0.140874,-0.0299724 -0.189331,-0.0784252 -0.0484528,-0.0484567 -0.0784252,-0.115398 -0.0784252,-0.189331 0,-0.0739331 0.0299724,-0.140874 0.0784252,-0.189331 0.0484567,-0.0484528 0.115398,-0.0784252 0.189331,-0.0784252 0.0739331,0 0.140874,0.0299724 0.189331,0.0784252 0.0484528,0.0484567 0.0784252,0.115398 0.0784252,0.189331 0,0.0739331 -0.0299724,0.140874 -0.0784252,0.189331 -0.0484567,0.0484528 -0.115398,0.0784252 -0.189331,0.0784252zm-0.114634 -0.153122c0.0293307,0.0293346 0.0698622,0.0474803 0.114634,0.0474803 0.0447717,0 0.0853031,-0.0181457 0.114634,-0.0474803 0.0293346,-0.0293307 0.0474803,-0.0698622 0.0474803,-0.114634 0,-0.0447717 -0.0181457,-0.0853031 -0.0474803,-0.114634 -0.0293307,-0.0293346 -0.0698622,-0.0474803 -0.114634,-0.0474803 -0.0447717,0 -0.0853031,0.0181457 -0.114634,0.0474803 -0.0293346,0.0293307 -0.0474803,0.0698622 -0.0474803,0.114634 0,0.0447717 0.0181457,0.0853031 0.0474803,0.114634z"/>
    <path id="_298977792" class="fil16" d="M2.09135 5.70885c-0.278303,0 -0.530272,-0.112815 -0.712657,-0.295201 -0.182386,-0.182386 -0.295201,-0.434354 -0.295201,-0.712657 0,-0.278303 0.112815,-0.530272 0.295201,-0.712657 0.182386,-0.182386 0.434354,-0.295201 0.712657,-0.295201 0.278303,0 0.530272,0.112815 0.712657,0.295201 0.182386,0.182386 0.295201,0.434354 0.295201,0.712657 0,0.278303 -0.112815,0.530272 -0.295201,0.712657 -0.182386,0.182386 -0.434354,0.295201 -0.712657,0.295201zm-0.602449 -0.405409c0.154173,0.154173 0.367173,0.249535 0.602449,0.249535 0.235276,0 0.448276,-0.0953622 0.602449,-0.249535 0.154173,-0.154173 0.249535,-0.367173 0.249535,-0.602449 0,-0.235276 -0.0953622,-0.448276 -0.249535,-0.602449 -0.154173,-0.154173 -0.367173,-0.249535 -0.602449,-0.249535 -0.235276,0 -0.448276,0.0953622 -0.602449,0.249535 -0.154173,0.154173 -0.249535,0.367173 -0.249535,0.602449 0,0.235276 0.0953622,0.448276 0.249535,0.602449z"/>
    <path id="_298977480" class="fil17" d="M2.09135 5.70885c-0.278303,0 -0.530272,-0.112815 -0.712657,-0.295201 -0.182386,-0.182386 -0.295201,-0.434354 -0.295201,-0.712657 0,-0.278303 0.112815,-0.530272 0.295201,-0.712657 0.182386,-0.182386 0.434354,-0.295201 0.712657,-0.295201 0.278303,0 0.530272,0.112815 0.712657,0.295201 0.182386,0.182386 0.295201,0.434354 0.295201,0.712657 0,0.278303 -0.112815,0.530272 -0.295201,0.712657 -0.182386,0.182386 -0.434354,0.295201 -0.712657,0.295201zm-0.659921 -0.347937c0.168882,0.168882 0.402201,0.273343 0.659921,0.273343 0.25772,0 0.491039,-0.104461 0.659921,-0.273343 0.168882,-0.168882 0.273343,-0.402201 0.273343,-0.659921 0,-0.25772 -0.104461,-0.491039 -0.273343,-0.659921 -0.168882,-0.168882 -0.402201,-0.273343 -0.659921,-0.273343 -0.25772,0 -0.491039,0.104461 -0.659921,0.273343 -0.168882,0.168882 -0.273343,0.402201 -0.273343,0.659921 0,0.25772 0.104461,0.491039 0.273343,0.659921z"/>
   </g>
   <path id="_298976424" class="fil10" d="M4.11231 1.4023c-0.0150591,0.111949 -0.11098,0.198232 -0.227,0.198232 -0.117268,0 -0.215051,-0.0881693 -0.228472,-0.201941l-0.0005 -0.00708661 -0.045874 0 0.000318898 -0.000366142 0.0683307 -0.0785984 0.0696496 0.0789094 4.72441e-005 5.51181e-005 -0.0452559 0c0.00149213,0.0832165 0.0784252,0.150571 0.15885,0.161614l0 -0.299051 -0.091626 0 0 -0.045815 0.091626 0 0 -0.0262323c-0.0127165,-0.00378346 -0.0243307,-0.0107008 -0.0337835,-0.0201575 -0.0150787,-0.0150748 -0.0234843,-0.0353622 -0.0234843,-0.056689 0,-0.0213268 0.00840551,-0.0416142 0.0234843,-0.056689 0.0150748,-0.0150748 0.0353622,-0.0234843 0.056689,-0.0234843 0.0213268,0 0.0416142,0.00840945 0.056689,0.0234843 0.0150787,0.0150748 0.0234843,0.0353622 0.0234843,0.056689 0,0.0213268 -0.00840551,0.0416142 -0.0234843,0.056689 -0.00945669,0.00945669 -0.0210669,0.0163701 -0.0337835,0.0201575l0 0.0262323 0.091626 0 0 0.045815 -0.091626 0 0 0.29922c0.0783346,-0.00977165 0.14139,-0.069 0.156748,-0.145567 0.00109055,-0.00543307 0.00117717,-0.010689 0.00151575,-0.0162165l-0.0446378 0 0.000318898 -0.000366142 0.0683268 -0.0785984 0.0696496 0.0789094 5.11811e-005 5.51181e-005 -0.0452559 0 -0.00151969 0c-0.000318898,0.00362992 -0.000614173,0.00718504 -0.00110236,0.0107953zm-0.227 -0.330839c-0.00900394,0 -0.0174724,0.00351181 -0.0238386,0.00987402 -0.00636614,0.00636614 -0.00987402,0.0148386 -0.00987402,0.0238386 0,0.00900394 0.00350787,0.0174724 0.00987402,0.0238386 0.00636614,0.00636614 0.0148346,0.00987795 0.0238386,0.00987795 0.009,0 0.0174724,-0.00351181 0.0238386,-0.00987795 0.00636614,-0.00636614 0.00987402,-0.0148346 0.00987402,-0.0238386 0,-0.009 -0.00350787,-0.0174724 -0.00987402,-0.0238386 -0.00636614,-0.0063622 -0.0148386,-0.00987402 -0.0238386,-0.00987402z"/>
  </g>
  <rect class="fil18" x="0.0364567" y="-0.00520866" width="6.82666" height="6.82666"/>
 </g>
</svg>
