<?xml version="1.0" encoding="UTF-8"?>
<!DOCTYPE svg PUBLIC "-//W3C//DTD SVG 1.1//EN" "http://www.w3.org/Graphics/SVG/1.1/DTD/svg11.dtd">
<!-- Creator: CorelDRAW -->
<svg xmlns="http://www.w3.org/2000/svg" xml:space="preserve" width="6.82666in" height="6.82666in" style="shape-rendering:geometricPrecision; text-rendering:geometricPrecision; image-rendering:optimizeQuality; fill-rule:evenodd; clip-rule:evenodd"
viewBox="0 0 6.82666 6.82666"
 xmlns:xlink="http://www.w3.org/1999/xlink">
 <defs>
  <style type="text/css">
   <![CDATA[
    .fil11 {fill:none}
    .fil3 {fill:#85BCEB}
    .fil4 {fill:#B6DBFB}
    .fil2 {fill:#CC7C54}
    .fil1 {fill:#F6C4AA}
    .fil0 {fill:#FFDDCC}
    .fil5 {fill:white}
    .fil7 {fill:#424242;fill-rule:nonzero}
    .fil10 {fill:#555555;fill-rule:nonzero}
    .fil8 {fill:#595959;fill-rule:nonzero}
    .fil9 {fill:#616161;fill-rule:nonzero}
    .fil6 {fill:#BDBDBD;fill-rule:nonzero}
   ]]>
  </style>
 </defs>
 <g id="Layer_x0020_1">
  <metadata id="CorelCorpID_0Corel-Layer"/>
  <g id="_298981272">
   <path id="_298982064" class="fil0" d="M2.45852 2.06464c0.0869055,-0.0285906 0.197453,0.0700157 0.246976,0.220307 0.0495118,0.15028 0.0191575,0.295311 -0.0677598,0.323925 -0.0869173,0.028622 -0.197453,-0.0699921 -0.246976,-0.220283 -0.0494803,-0.150272 -0.0191102,-0.295299 0.0677598,-0.323949z"/>
   <g>
    <path id="_298981944" class="fil0" d="M4.99919 2.06467c-0.0869055,-0.0286142 -0.197496,0.0699921 -0.246976,0.220283 -0.0494803,0.15028 -0.0191575,0.295311 0.0677598,0.323925 0.0869173,0.028622 0.197453,-0.0700039 0.246976,-0.220283 0.0494764,-0.150272 0.0191575,-0.295299 -0.0677598,-0.323925z"/>
    <path id="_298982472" class="fil0" d="M3.26326 3.88422c-1.01612,0.445496 -1.32094,0.682957 -1.44142,0.78961 -0.185685,0.164299 -0.288386,0.77674 -0.397902,1.2968l2.29898 0 2.29898 0c-0.109516,-0.520059 -0.212256,-1.13252 -0.397902,-1.2968 -0.12048,-0.106654 -0.41415,-0.338024 -1.4303,-0.783504l-0.930429 -0.0061063z"/>
    <path id="_298981872" class="fil0" d="M4.26561 2.99626l0 1.12635c-0.298476,0.332339 -0.786921,0.32085 -1.08544,0l0 -1.12635c0,-0.608228 1.08544,-0.608228 1.08544,0z"/>
    <path id="_298982136" class="fil1" d="M4.26561 2.99626l0 0.754091c-0.205378,0.136083 -0.403331,0.212335 -0.542701,0.212335 -0.139382,0 -0.337366,-0.076252 -0.54274,-0.212315l0 -0.75411c0,-0.608228 1.08544,-0.608228 1.08544,0z"/>
    <path id="_298982376" class="fil0" d="M3.72287 0.969059c-1.6559,0 -1.06039,2.00088 -0.95222,2.16014 0.11926,0.175642 0.684724,0.641213 0.95222,0.641213 0.267551,0 0.833004,-0.465559 0.952264,-0.641213 0.108217,-0.159283 0.703677,-2.16014 -0.952264,-2.16014z"/>
    <path id="_298982448" class="fil2" d="M5.58678 2.7043c-0.264303,-0.0963071 -0.642236,-0.626043 -0.754579,-1.0915 -0.223492,-0.925961 -1.80644,-0.946071 -2.0483,-0.356071 -0.536724,0.474217 -0.141854,1.73141 -0.141854,1.41199 0,-0.319433 0.100177,-0.594055 0.24128,-0.832752 0.175354,0.364594 0.568815,0.694421 0.982575,0.658406 -0.283524,-0.237953 -0.440831,-0.340638 -0.506713,-0.723866 0.203154,0.577858 1.28033,1.15805 2.22759,0.933795z"/>
    <path id="_298981008" class="fil1" d="M3.21193 2.97945c0.138567,0.0988386 0.920681,0.0933858 1.0592,0 -0.120346,0.519976 -0.899516,0.53598 -1.0592,0z"/>
    <path id="_298981704" class="fil3" d="M2.88088 4.05744c-0.714531,0.335492 -0.955236,0.52452 -1.05905,0.616386 -0.185685,0.164299 -0.288386,0.77674 -0.397902,1.2968l2.29898 0 2.29898 0c-0.109516,-0.520059 -0.212256,-1.13252 -0.397902,-1.2968 -0.100335,-0.0887953 -0.32085,-0.264114 -0.978409,-0.577461 -0.00466535,0.00485039 -0.00944882,0.00961024 -0.0140433,0.0145512l-0.900598 0.42598 -0.827787 -0.448622 -0.0222638 -0.0308346z"/>
    <polygon id="_298981632" class="fil4" points="2.88157,4.05744 2.74667,4.1216 3.72624,4.65054 4.75138,4.14531 4.6497,4.09637 4.63563,4.11092 3.73532,4.4954 2.90387,4.08828 "/>
    <path id="_298981536" class="fil5" d="M3.3765 3.06941c0.0955,0.0439291 0.634598,0.0414921 0.730087,0 -0.0829764,0.231008 -0.620024,0.238102 -0.730087,0z"/>
   </g>
  </g>
  <g id="_298981392">
   <polygon id="_298981224" class="fil6" points="1.98235,4.21591 1.97194,5.96989 1.79287,5.96989 1.80329,4.21591 "/>
   <path id="_298981152" class="fil7" d="M1.98442 3.98805l0.0732244 0.168193 0.0236732 0.0543701 -0.052185 0.0281339 -0.201902 0.108846 -0.0545551 0.0294094 -0.0314803 -0.0536339 -0.096622 -0.164618c0.00171654,-0.00100787 0.329567,-0.16622 0.339846,-0.170701z"/>
   <path id="_298981104" class="fil8" d="M2.11256 3.08047c0.126575,-0.0682795 0.268815,-0.0788031 0.396437,-0.040622 0.12774,0.0382165 0.240933,0.125213 0.309287,0.251929 0.0682795,0.126579 0.0788071,0.268815 0.040626,0.396437 -0.0382165,0.127744 -0.125217,0.240937 -0.251933,0.309291 -0.126575,0.0682795 -0.268815,0.0788031 -0.396437,0.040622 -0.12774,-0.0382165 -0.240933,-0.125213 -0.309287,-0.251929 -0.0682795,-0.126575 -0.0788071,-0.268815 -0.040626,-0.396437 0.0382165,-0.12774 0.125217,-0.240933 0.251933,-0.309291z"/>
   <path id="_298981512" class="fil9" d="M0.96426 4.05089l0.699028 -0.377079c0.0800551,-0.038248 0.140776,-0.134504 0.193039,-0.256114 0.0451457,0.284705 0.212268,0.473563 0.413169,0.63589 -0.199835,-0.040811 -0.239035,-0.0803622 -0.395547,0.0147953l-0.697535 0.376276c-0.0934803,0.0504252 -0.182087,0.0307165 -0.245083,-0.021689 -0.0234646,-0.0195276 -0.0428268,-0.0434213 -0.0569606,-0.0696181 -0.0142402,-0.0263976 -0.023622,-0.0557047 -0.0270236,-0.0858307 -0.0091811,-0.0812559 0.0231496,-0.166047 0.116913,-0.21663z"/>
  </g>
  <path class="fil10" d="M1.09365 4.47217c-0.0618819,0.00801969 -0.118339,-0.012622 -0.162315,-0.0492047 -0.0234646,-0.0195276 -0.0428268,-0.0434213 -0.0569606,-0.0696181 -0.0142402,-0.0263976 -0.023622,-0.0557047 -0.0270236,-0.0858307 -0.00519291,-0.0459567 0.00289764,-0.0930433 0.0278701,-0.134433 0.0199173,-0.0234252 0.0465906,-0.037189 0.0777913,-0.037189 0.0805394,0 0.160697,0.0916654 0.179028,0.204744 0.0116417,0.0718189 -0.00446063,0.134988 -0.0383898,0.171531z"/>
  <rect class="fil11" x="0.0364567" y="-0.00520866" width="6.82666" height="6.82666"/>
 </g>
</svg>
