<?xml version="1.0" encoding="UTF-8"?>
<!DOCTYPE svg PUBLIC "-//W3C//DTD SVG 1.1//EN" "http://www.w3.org/Graphics/SVG/1.1/DTD/svg11.dtd">
<!-- Creator: CorelDRAW -->
<svg xmlns="http://www.w3.org/2000/svg" xml:space="preserve" width="6.82666in" height="6.82666in" style="shape-rendering:geometricPrecision; text-rendering:geometricPrecision; image-rendering:optimizeQuality; fill-rule:evenodd; clip-rule:evenodd"
viewBox="0 0 6.82666 6.82666"
 xmlns:xlink="http://www.w3.org/1999/xlink">
 <defs>
  <style type="text/css">
   <![CDATA[
    .fil11 {fill:none}
    .fil2 {fill:#424242}
    .fil6 {fill:#616161}
    .fil3 {fill:#66BB6A}
    .fil5 {fill:#795548}
    .fil8 {fill:#A8A8A8}
    .fil7 {fill:#B0B0B0}
    .fil9 {fill:#BDBDBD}
    .fil1 {fill:#F6C4AA}
    .fil4 {fill:#FFA726}
    .fil0 {fill:#FFDDCC}
    .fil10 {fill:#212121;fill-rule:nonzero}
   ]]>
  </style>
 </defs>
 <g id="Layer_x0020_1">
  <metadata id="CorelCorpID_0Corel-Layer"/>
  <g id="_298985952">
   <path id="_298986720" class="fil0" d="M3.05779 3.31931c-0.786705,0.344902 -1.02271,0.52878 -1.116,0.611327 -0.143756,0.127213 -0.223276,0.601402 -0.308067,1.00402l1.77991 0 1.77993 0c-0.0847874,-0.402614 -0.164303,-0.876803 -0.308067,-1.00402 -0.093252,-0.0825472 -0.32061,-0.261697 -1.10735,-0.60661l-0.720354 -0.00471654z"/>
   <path id="_298986624" class="fil0" d="M3.79565 2.63181l0 0.872059c-0.210102,0.257315 -0.553898,0.248413 -0.763976,0l0 -0.872059c0,-0.470874 0.763976,-0.470874 0.763976,0z"/>
   <path id="_298986984" class="fil1" d="M3.79565 2.63181l0 0.583843c-0.144563,0.10537 -0.283882,0.164398 -0.381992,0.164398 -0.0981063,0 -0.237453,-0.0590276 -0.381984,-0.164378l0 -0.583862c0,-0.470874 0.763976,-0.470874 0.763976,0z"/>
   <path id="_298986576" class="fil0" d="M2.43749 1.91441c0.0672598,-0.0221378 0.15287,0.0542047 0.191181,0.170563 0.0383425,0.116354 0.0148307,0.228638 -0.0524291,0.250791 -0.0672913,0.0221614 -0.152906,-0.054189 -0.191213,-0.170547 -0.0383346,-0.116343 -0.0148346,-0.22863 0.0524606,-0.250807z"/>
   <path id="_298986960" class="fil0" d="M4.40452 1.91442c-0.0672913,-0.0221535 -0.152906,0.054189 -0.191217,0.170547 -0.0383071,0.116354 -0.0148307,0.228638 0.0524646,0.250791 0.0672835,0.0221614 0.152898,-0.0541969 0.191205,-0.170547 0.0383425,-0.116343 0.0148425,-0.22863 -0.0524528,-0.250791z"/>
   <path id="_298986792" class="fil0" d="M3.41363 1.06617c-1.28204,0 -0.820984,1.54913 -0.737236,1.67244 0.0923346,0.135984 0.530122,0.496445 0.737236,0.496445 0.207173,0 0.644898,-0.360449 0.737268,-0.496445 0.0837756,-0.123323 0.544807,-1.67244 -0.737268,-1.67244z"/>
   <path id="_298986552" class="fil2" d="M3.12345 1.41575c-0.215161,-0.142425 -0.491012,0.39439 -0.565028,0.830724 -0.157433,-0.598504 -0.059,-1.11936 0.389374,-1.32751 0.222031,-0.103075 0.651972,-0.10913 0.938461,-0.0500787 0.375642,0.0774331 0.474937,0.472118 0.387768,1.31135 -0.0791339,-0.354835 -0.358567,-0.912319 -0.570181,-0.764488 -0.176291,0.123157 -0.40389,0.116815 -0.580394,0z"/>
   <path id="_298985856" class="fil1" d="M3.0026 2.60306c0.280654,0.108551 0.597657,0.0979449 0.82211,0 -0.0897205,0.232291 -0.694217,0.234173 -0.82211,0z"/>
   <path id="_298985760" class="fil3" d="M2.76175 3.45728c-0.553213,0.259744 -0.739575,0.406094 -0.819953,0.47722 -0.143756,0.127205 -0.223276,0.601374 -0.308091,1.00402l1.77993 0 1.77995 0c-0.084811,-0.402642 -0.164327,-0.876827 -0.308091,-1.00402 -0.0776457,-0.0687441 -0.248374,-0.204484 -0.757488,-0.447087 -0.00363386,0.00375591 -0.00863386,0.00641339 -0.0108622,0.0112677 -0.138665,0.303622 -0.383252,0.476713 -0.637138,0.562957 -0.351933,-0.0690118 -0.654138,-0.341811 -0.701031,-0.580488 -0.00571654,-0.00812205 -0.0114882,-0.0158976 -0.0172283,-0.0238701z"/>
   <path id="_298986288" class="fil4" d="M1.85153 4.07322c-0.0905276,0.203949 -0.152642,0.555744 -0.217827,0.865295l0.722583 0c-0.0161654,-0.50502 -0.0170512,-0.773626 -0.504756,-0.865295z"/>
   <path id="_298985640" class="fil4" d="M4.97576 4.07322c0.090563,0.203949 0.152642,0.555744 0.217827,0.865295l-0.722583 0c0.0161378,-0.50502 0.0170591,-0.773626 0.504756,-0.865295z"/>
   <path id="_298986096" class="fil4" d="M2.76175 3.45728c-0.0523425,0.0245669 -0.101394,0.048122 -0.147374,0.0706929 0.133787,0.278697 0.378315,0.559445 0.865634,0.669917 0.42328,-0.127465 0.645433,-0.386626 0.773205,-0.649646 -0.039315,-0.0194882 -0.0809409,-0.039752 -0.125205,-0.0608307 -0.00363386,0.00375591 -0.00863386,0.00641339 -0.0108622,0.0112677 -0.138665,0.303622 -0.383252,0.476713 -0.637138,0.562957 -0.351933,-0.0690118 -0.654138,-0.341811 -0.701031,-0.580488 -0.00571654,-0.00812205 -0.0114882,-0.0158976 -0.0172283,-0.0238701z"/>
  </g>
  <rect class="fil5" x="0.848992" y="5.81626" width="5.12931" height="0.15935"/>
  <g id="_298983192">
   <rect id="_298986168" class="fil6" x="1.64247" y="5.62753" width="3.52086" height="0.188345" rx="0.0258071" ry="0.0258071"/>
   <path id="_298984968" class="fil7" d="M5.10804 5.61787c0.115358,0 0.184087,-0.0972598 0.209736,-0.20972l0.253441 -1.11134c0.0256496,-0.112461 -0.0943858,-0.20972 -0.209736,-0.20972 -1.17448,0 -2.7212,0 -3.89567,0 -0.115346,0 -0.235382,0.0972598 -0.209736,0.20972l0.253445 1.11134c0.0256457,0.112461 0.094378,0.20972 0.209736,0.20972 1.00551,0 2.38327,0 3.38879,0z"/>
   <path id="_298985352" class="fil8" d="M5.57146 4.29566c0.0245748,-0.111976 -0.0950197,-0.208571 -0.209976,-0.208571 -1.17448,0 -2.7212,0 -3.89567,0 -0.114953,0 -0.234547,0.0965945 -0.209972,0.208571l4.31562 0z"/>
   <g>
    <rect id="_298985232" class="fil2" x="2.29741" y="5.61468" width="0.32373" height="0.018809"/>
    <rect id="_298985472" class="fil2" x="4.20614" y="5.61468" width="0.32373" height="0.018809"/>
   </g>
   <rect id="_298985136" class="fil2" x="1.81298" y="5.66824" width="0.37714" height="0.106922"/>
   <rect id="_298984872" class="fil9" x="1.83956" y="5.68495" width="0.0412098" height="0.0734968"/>
   <rect id="_298984680" class="fil9" x="1.9054" y="5.68495" width="0.0412098" height="0.0734968"/>
   <rect id="_298984656" class="fil9" x="1.97123" y="5.68495" width="0.0412098" height="0.0734968"/>
   <rect id="_298984776" class="fil9" x="2.03706" y="5.68495" width="0.0412098" height="0.0734968"/>
   <rect id="_298984632" class="fil9" x="2.1029" y="5.68495" width="0.0412098" height="0.0734968"/>
   <rect id="_298984728" class="fil2" x="4.61568" y="5.68026" width="0.37714" height="0.0828834"/>
   <rect id="_298984608" class="fil9" x="4.6666" y="5.69412" width="0.275304" height="0.0551607"/>
   <circle id="_298984128" class="fil9" cx="4.6395" cy="5.7217" r="0.00829318"/>
   <circle id="_298983624" class="fil9" cx="4.96769" cy="5.7217" r="0.00829318"/>
   <path id="_298983936" class="fil10" d="M4.6395 5.7115c0.00281102,0 0.00536614,0.00114567 0.00720472,0.00298819 0.00184252,0.00184252 0.00299213,0.00439764 0.00299213,0.00720866 0,0.00280709 -0.00114961,0.0053622 -0.00299213,0.00720472 -0.00183858,0.00184252 -0.0043937,0.00299213 -0.00720472,0.00299213 -0.00281102,0 -0.00536614,-0.00114961 -0.00720866,-0.00299213 -0.00183858,-0.00184252 -0.00298819,-0.00439764 -0.00298819,-0.00720472 0,-0.00281102 0.00114961,-0.00536614 0.00298819,-0.00720866 0.00184252,-0.00184252 0.00439764,-0.00298819 0.00720866,-0.00298819zm0.00451969 0.00567323c-0.00114961,-0.00114961 -0.00275197,-0.00186614 -0.00451969,-0.00186614 -0.00177165,0 -0.00337402,0.000716535 -0.00452362,0.00186614 -0.00114961,0.00114961 -0.00186614,0.00275197 -0.00186614,0.00452362 0,0.00176772 0.000716535,0.00337008 0.00186614,0.00451969 0.00114961,0.00114961 0.00275197,0.00186614 0.00452362,0.00186614 0.00176772,0 0.00337008,-0.000716535 0.00451969,-0.00186614 0.00114961,-0.00114961 0.00187008,-0.00275197 0.00187008,-0.00451969 0,-0.00177165 -0.000720472,-0.00337402 -0.00187008,-0.00452362z"/>
   <path id="_298984008" class="fil10" d="M4.96769 5.7115c0.00281102,0 0.00536614,0.00114567 0.00720472,0.00298819 0.00184252,0.00184252 0.00299213,0.00439764 0.00299213,0.00720866 0,0.00280709 -0.00114961,0.0053622 -0.00299213,0.00720472 -0.00183858,0.00184252 -0.0043937,0.00299213 -0.00720472,0.00299213 -0.00281102,0 -0.00536614,-0.00114961 -0.00720866,-0.00299213 -0.00183858,-0.00184252 -0.00298819,-0.00439764 -0.00298819,-0.00720472 0,-0.00281102 0.00114961,-0.00536614 0.00298819,-0.00720866 0.00184252,-0.00184252 0.00439764,-0.00298819 0.00720866,-0.00298819zm0.00451969 0.00567323c-0.00114961,-0.00114961 -0.00275197,-0.00186614 -0.00451969,-0.00186614 -0.00177165,0 -0.00337402,0.000716535 -0.00452362,0.00186614 -0.00114961,0.00114961 -0.00186614,0.00275197 -0.00186614,0.00452362 0,0.00176772 0.000716535,0.00337008 0.00186614,0.00451969 0.00114961,0.00114961 0.00275197,0.00186614 0.00452362,0.00186614 0.00176772,0 0.00337008,-0.000716535 0.00451969,-0.00186614 0.00114961,-0.00114961 0.00187008,-0.00275197 0.00187008,-0.00451969 0,-0.00177165 -0.000720472,-0.00337402 -0.00187008,-0.00452362z"/>
   <g>
    <rect id="_298983816" class="fil9" x="2.34826" y="5.69052" width="0.551016" height="0.0128683"/>
    <rect id="_298983408" class="fil9" x="2.34826" y="5.71526" width="0.551016" height="0.0128683"/>
    <rect id="_298983552" class="fil9" x="2.34826" y="5.74001" width="0.551016" height="0.0128683"/>
    <rect id="_298982736" class="fil9" x="3.90653" y="5.69052" width="0.551016" height="0.0128683"/>
    <rect id="_298982712" class="fil9" x="3.90653" y="5.71526" width="0.551016" height="0.0128683"/>
    <rect id="_298982616" class="fil9" x="3.90653" y="5.74001" width="0.551016" height="0.0128683"/>
   </g>
   <path id="_298983216" class="fil9" d="M3.41364 4.67186c0.161843,0 0.293035,0.100169 0.293035,0.223736 0,0.123567 -0.131193,0.259374 -0.293035,0.259374 -0.161839,0 -0.293035,-0.135807 -0.293035,-0.259374 0,-0.123567 0.131197,-0.223736 0.293035,-0.223736z"/>
  </g>
  <rect class="fil11" x="0.0364567" y="-0.00520866" width="6.82666" height="6.82666"/>
 </g>
</svg>
