<?xml version="1.0" encoding="UTF-8"?>
<!DOCTYPE svg PUBLIC "-//W3C//DTD SVG 1.1//EN" "http://www.w3.org/Graphics/SVG/1.1/DTD/svg11.dtd">
<!-- Creator: CorelDRAW -->
<svg xmlns="http://www.w3.org/2000/svg" xml:space="preserve" width="6.82666in" height="6.82666in" style="shape-rendering:geometricPrecision; text-rendering:geometricPrecision; image-rendering:optimizeQuality; fill-rule:evenodd; clip-rule:evenodd"
viewBox="0 0 6.82666 6.82666"
 xmlns:xlink="http://www.w3.org/1999/xlink">
 <defs>
  <style type="text/css">
   <![CDATA[
    .fil6 {fill:none}
    .fil4 {fill:#2E7D32}
    .fil3 {fill:#424242}
    .fil10 {fill:#43A047}
    .fil9 {fill:#66BB6A}
    .fil0 {fill:#F5D2C1}
    .fil2 {fill:#F6C4AA}
    .fil1 {fill:#FFDDCC}
    .fil5 {fill:white}
    .fil7 {fill:yellow;fill-rule:nonzero}
    .fil8 {fill:#F5D907;fill-rule:nonzero}
   ]]>
  </style>
 </defs>
 <g id="Layer_x0020_1">
  <metadata id="CorelCorpID_0Corel-Layer"/>
  <path class="fil0" d="M2.27174 2.27478c0.0786969,-0.0322362 0.178874,0.0789134 0.223697,0.24828 0.0448661,0.169406 0.0173543,0.332846 -0.0613425,0.365122 -0.0787402,0.0322362 -0.178913,-0.0789134 -0.22374,-0.248291 -0.0448543,-0.169358 -0.0173543,-0.332835 0.0613858,-0.36511z"/>
  <path class="fil0" d="M4.57334 2.27478c-0.0787362,-0.0322362 -0.178913,0.0789134 -0.223736,0.24828 -0.0448228,0.169406 -0.0173543,0.332846 0.0613819,0.365122 0.0787323,0.0322362 0.178906,-0.0789134 0.223732,-0.248291 0.0448622,-0.169358 0.0173622,-0.332835 -0.061378,-0.36511z"/>
  <path class="fil1" d="M2.96703 3.94752c-0.986622,0.432531 -1.28259,0.663165 -1.39959,0.766677 -0.180283,0.159528 -0.280016,0.754193 -0.38635,1.25913l2.23224 0 2.23224 0c-0.106366,-0.504941 -0.206083,-1.09961 -0.386382,-1.25913 -0.116949,-0.103512 -0.402083,-0.328209 -1.38875,-0.760736l-0.903409 -0.00594094z"/>
  <path class="fil1" d="M3.89239 3.08531l0 1.09366c-0.263492,0.322713 -0.694654,0.311535 -0.958114,0l0 -1.09366c0,-0.590547 0.958114,-0.590547 0.958114,0z"/>
  <path class="fil2" d="M3.89239 3.08531l0 0.732224c-0.181299,0.132134 -0.356055,0.178398 -0.479063,0.178398 -0.123039,0 -0.297795,-0.0462638 -0.479051,-0.178398l0 -0.732224c0,-0.590547 0.958114,-0.590547 0.958114,0z"/>
  <path class="fil1" d="M3.41333 1.1218c-1.60786,0 -1.02964,1.9428 -0.92461,2.09746 0.0814331,0.119906 0.268925,0.379043 0.539413,0.522291 0.114173,0.0604567 0.249465,0.0767638 0.391504,0.0767638 0.133902,0 0.247846,-0.00898031 0.35435,-0.0598346 0.290709,-0.138807 0.479173,-0.414425 0.563933,-0.53922 0.105063,-0.154669 0.683283,-2.09746 -0.924591,-2.09746z"/>
  <path class="fil2" d="M3.837 3.18833c-0.302063,0.0951693 -0.627531,0.036752 -0.847339,-0.117327 0.065063,0.302236 0.68789,0.390819 0.847339,0.117327z"/>
  <path class="fil3" d="M3.92187 1.77106c0.371791,-0.00388976 0.520382,0.351531 0.578736,0.90478 0.251846,-1.52387 -0.285209,-1.82714 -1.03213,-1.82245 -0.774854,0.00488189 -1.37415,0.176598 -1.11939,1.73939 0.00892126,-0.639457 0.259949,-1.037 0.645587,-0.951835 0.139063,0.0307165 0.278539,0.0647598 0.419909,0.0860118 0.101346,0.0152402 0.0230276,0.047126 -0.0622283,0.0570315 0.202016,0.0614921 0.393874,-0.0111102 0.569516,-0.0129331z"/>
  <path class="fil4" d="M5.25923 4.7142c-0.0974213,-0.0862165 -0.311535,-0.256437 -0.95002,-0.560697 -0.00452756,0.00472047 -0.00916142,0.00931102 -0.013622,0.0141378 -0.599346,0.648323 -1.44848,0.329654 -1.67822,-0.0219724 -0.00716929,-0.0102165 -0.0144094,-0.0199724 -0.0216102,-0.0299606 -0.693756,0.325752 -0.927508,0.509272 -1.02831,0.598492 -0.0416496,0.0368661 -0.0789724,0.0971535 -0.113091,0.174012 0.611531,0.11498 0.612642,0.451843 0.632913,1.08512l1.32607 0 1.32604 0c0.0202362,-0.63328 0.0213898,-0.970142 0.632945,-1.08517 -0.0341102,-0.076815 -0.0714291,-0.137102 -0.113083,-0.173969z"/>
  <polygon class="fil5" points="2.34292,5.79697 2.64283,5.79697 2.64283,5.49706 2.34292,5.49706 "/>
  <polygon class="fil5" points="2.80314,5.79697 3.10306,5.79697 3.10306,5.49706 2.80314,5.49706 "/>
  <polygon class="fil5" points="3.26338,5.79697 3.56329,5.79697 3.56329,5.49706 3.26338,5.49706 "/>
  <polygon class="fil5" points="3.72361,5.79697 4.02352,5.79697 4.02352,5.49706 3.72361,5.49706 "/>
  <polygon class="fil5" points="4.18384,5.79697 4.48375,5.79697 4.48375,5.49706 4.18384,5.49706 "/>
  <path class="fil6" d="M1.45452 4.88826c0.489461,0.088 0.637949,0.296154 0.632594,1.0855"/>
  <path class="fil7" d="M1.45891 4.86375c0.252055,0.045315 0.416799,0.122354 0.518846,0.291366 0.100213,0.165984 0.136965,0.41928 0.134256,0.818748l-0.0498031 -0.00019685c0.00264173,-0.38987 -0.0321772,-0.635346 -0.127224,-0.792772 -0.0932205,-0.15439 -0.247469,-0.225441 -0.484862,-0.268122l0.0087874 -0.0490236z"/>
  <path class="fil7" d="M5.37011 4.86375c-0.252055,0.045315 -0.416799,0.122354 -0.518846,0.291366 -0.100213,0.165984 -0.136965,0.41928 -0.134256,0.818748l0.0498031 -0.00019685c-0.00264173,-0.38987 0.0321772,-0.635346 0.127224,-0.792772 0.0932205,-0.15439 0.247469,-0.225441 0.484862,-0.268122l-0.0087874 -0.0490236z"/>
  <path class="fil8" d="M4.33067 4.17098c-0.0740866,0.12211 -0.1975,0.222669 -0.35013,0.292469 -0.151476,0.0692717 -0.331925,0.108472 -0.521382,0.108472 -0.198067,0 -0.385724,-0.0427559 -0.540772,-0.117547 -0.156386,-0.0754409 -0.279878,-0.183736 -0.348063,-0.314059l0.0441417 -0.0230472c0.0630354,0.12048 0.178591,0.221268 0.325598,0.292185 0.14835,0.0715591 0.328465,0.112469 0.519094,0.112469 0.182488,0 0.355748,-0.0375079 0.500681,-0.103787 0.143772,-0.065748 0.259504,-0.159618 0.328256,-0.272933l0.0425748 0.0257795z"/>
  <path class="fil9" d="M2.33805 1.50108c0.0335984,-0.00832677 0.0304843,-0.00913386 0.0643071,-0.0154685 0.737122,-0.138024 1.44803,-0.146535 2.10141,0.0147008 0.0205512,0.0697008 0.0315197,0.139398 0.0428858,0.209102 -0.751984,-0.123161 -1.49863,-0.132402 -2.24506,0 0.00656299,-0.0680512 0.0187874,-0.13752 0.0364606,-0.208335z"/>
  <path class="fil10" d="M2.39194 1.48762c0.00305118,-0.000606299 0.00648425,-0.00127165 0.0104213,-0.00200787 0.0159843,-0.00299213 0.0319528,-0.00590157 0.0479134,-0.00877165l0 0.208087c-0.0194449,0.00296457 -0.0388898,0.00602756 -0.0583346,0.00917717l0 -0.206484zm0.124398 -0.0223268c0.0194646,-0.00330709 0.0389134,-0.0065315 0.0583346,-0.00964961l0 0.211618c-0.0194449,0.00255906 -0.0388898,0.00520472 -0.0583346,0.00795669l0 -0.209925zm0.124398 -0.0198858c0.0194685,-0.00291732 0.0389094,-0.00572441 0.0583346,-0.00844882l0 0.215213c-0.0194449,0.00216142 -0.0388898,0.00441732 -0.0583346,0.00676378l0 -0.213528zm0.124398 -0.0173583c0.0194685,-0.00251969 0.0389134,-0.00494488 0.0583346,-0.00726772l0 0.218807c-0.0194449,0.00176772 -0.0388898,0.0036378 -0.0583346,0.00559055l0 -0.21713zm0.124402 -0.0148031c0.0194685,-0.00211024 0.0389134,-0.0041378 0.0583346,-0.00604724l0 0.222346c-0.0194449,0.00137795 -0.0388898,0.00283858 -0.0583346,0.00439764l0 -0.220697zm0.124398 -0.0121535c0.0194685,-0.00168898 0.0389134,-0.00325984 0.0583346,-0.00474016l0 0.225579c-0.0194449,0.000996063 -0.0388898,0.00209449 -0.0583346,0.00327165l0 -0.22411zm0.124398 -0.00938583c0.0194764,-0.00125197 0.0389173,-0.00240157 0.0583346,-0.00344094l0 0.228539c-0.0194449,0.000614173 -0.0388898,0.00130709 -0.0583346,0.00209843l0 -0.227197zm0.124398 -0.0065748c0.0194724,-0.00080315 0.0389213,-0.00151181 0.0583346,-0.00209449l0 0.23102c-0.0194449,0.000240157 -0.0388898,0.000582677 -0.0583346,0.001l0 -0.229925zm0.124402 -0.00365354c0.0194764,-0.000334646 0.0389213,-0.000543307 0.0583346,-0.000653543l0 0.23289c-0.0194449,-0.000129921 -0.0388898,-0.000192913 -0.0583346,-0.000149606l0 -0.232087zm0.124398 -0.000586614c0.0194803,0.000149606 0.0389213,0.00042126 0.0583346,0.00080315l0 0.234012c-0.0194449,-0.000492126 -0.0388898,-0.000893701 -0.0583346,-0.00122047l0 -0.233594zm0.124398 0.00255906c0.0194803,0.000653543 0.0389252,0.0014252 0.0583346,0.0023189l0 0.234252c-0.0194488,-0.000854331 -0.0388937,-0.00162992 -0.0583346,-0.00231496l0 -0.234256zm0.124398 0.00582283c0.0194843,0.00117323 0.0389291,0.0024685 0.0583346,0.00388976l0 0.233469c-0.0194449,-0.00120866 -0.0388898,-0.00233858 -0.0583346,-0.00338189l0 -0.233976zm0.124402 0.00922441c0.0194843,0.00171654 0.0389291,0.00355512 0.0583346,0.00552756l0 0.231457c-0.0194488,-0.00155512 -0.0388898,-0.00303543 -0.0583346,-0.00442913l0 -0.232555zm0.124398 0.0127677c0.0194843,0.0022874 0.0389331,0.00468504 0.0583346,0.00723622l0 0.228071c-0.0194488,-0.00190157 -0.0388937,-0.00373228 -0.0583346,-0.00547638l0 -0.229831zm0.124398 0.0164606c0.0194882,0.00287795 0.038937,0.00588976 0.0583346,0.00903937l0 0.223063c-0.0194488,-0.00224409 -0.0388937,-0.00439764 -0.0583346,-0.00648031l0 -0.225622zm0.124398 0.0203307c0.0194921,0.00349606 0.0389331,0.0071378 0.0583346,0.0109173l0 0.216299c-0.0194488,-0.00257874 -0.0388937,-0.00508661 -0.0583346,-0.00750787l0 -0.219709zm0.124402 0.024378c0.0194961,0.00414567 0.0389409,0.00844094 0.0583346,0.012878l0 0.207492c-0.0194488,-0.00290551 -0.0388937,-0.00572441 -0.0583346,-0.00847638l0 -0.211894z"/>
  <rect class="fil6" x="0.0364567" y="-0.00520866" width="6.82666" height="6.82666"/>
 </g>
</svg>
