<?xml version="1.0" encoding="UTF-8"?>
<!DOCTYPE svg PUBLIC "-//W3C//DTD SVG 1.1//EN" "http://www.w3.org/Graphics/SVG/1.1/DTD/svg11.dtd">
<!-- Creator: CorelDRAW -->
<svg xmlns="http://www.w3.org/2000/svg" xml:space="preserve" width="6.82666in" height="6.82666in" style="shape-rendering:geometricPrecision; text-rendering:geometricPrecision; image-rendering:optimizeQuality; fill-rule:evenodd; clip-rule:evenodd"
viewBox="0 0 6.82666 6.82666"
 xmlns:xlink="http://www.w3.org/1999/xlink">
 <defs>
  <style type="text/css">
   <![CDATA[
    .fil15 {fill:none}
    .fil3 {fill:#00BCD4}
    .fil4 {fill:#212121}
    .fil11 {fill:#272727}
    .fil8 {fill:#43A047}
    .fil5 {fill:#757575}
    .fil13 {fill:#A31F3F}
    .fil1 {fill:#CC7C54}
    .fil2 {fill:#CC9567}
    .fil9 {fill:#D4855D}
    .fil14 {fill:#E0E0E0}
    .fil12 {fill:#E33963}
    .fil6 {fill:#EEEEEE}
    .fil0 {fill:#EFB88A}
    .fil10 {fill:#272727;fill-rule:nonzero}
    .fil7 {fill:#3B210F;fill-rule:nonzero}
   ]]>
  </style>
 </defs>
 <g id="Layer_x0020_1">
  <metadata id="CorelCorpID_0Corel-Layer"/>
  <g id="_298990104">
   <path id="_298993152" class="fil0" d="M3.76925 3.62803c-0.00620079,0.00970079 -0.629886,0.0193898 -0.636594,0.0289921 -0.00700394,0.0453268 -0.0629961,0.108189 -0.0969134,0.123437 -0.273799,0.123091 -0.350508,0.507374 -0.649898,0.570902 -0.326579,0.0730197 -0.524102,0.258598 -0.524587,0.53485l2.81336 0c-0.000492126,-0.276252 -0.0065315,-0.689512 -0.339669,-0.764024 -0.371346,-0.0745039 -0.513661,-0.209307 -0.565697,-0.494157z"/>
   <path id="_298992624" class="fil1" d="M2.57938 1.78187c0.113197,-0.239831 0.33424,-0.389941 0.642465,-0.333189 0.246579,-0.301835 0.90098,-0.0288898 1.0347,0.235953 0.515839,1.02157 -0.395386,1.59521 -0.825972,1.59521 -0.386425,0 -1.24728,-0.658606 -0.851197,-1.49797z"/>
   <path id="_298992792" class="fil0" d="M3.77173 3.04618l0 0.78135c-0.175409,0.230539 -0.462429,0.222567 -0.637811,0l0 -0.78135c0,-0.421909 0.637811,-0.421909 0.637811,0z"/>
   <path id="_298992168" class="fil2" d="M3.77173 3.04618l0 0.523114c-0.120665,0.0944134 -0.236984,0.147303 -0.318886,0.147303 -0.0819016,0 -0.198256,-0.0528898 -0.318925,-0.147295l0 -0.523122c0,-0.421909 0.637811,-0.421909 0.637811,0z"/>
   <path id="_298992000" class="fil3" d="M4.2863 2.49096c-0.101772,0.0709921 -0.161496,0.161122 -0.133453,0.201331 0.0280394,0.0402047 0.133276,0.015248 0.235043,-0.0557283 0.101736,-0.0709961 0.161496,-0.161134 0.133417,-0.201335 -0.0280315,-0.0402087 -0.133268,-0.0152559 -0.235008,0.0557323z"/>
   <path id="_298992456" class="fil3" d="M2.63227 2.49096c0.101744,0.0709921 0.161492,0.161122 0.133425,0.201331 -0.0280394,0.0402047 -0.133268,0.015248 -0.235008,-0.0557283 -0.101744,-0.0709961 -0.161496,-0.161134 -0.133429,-0.201335 0.0280433,-0.0402087 0.133276,-0.0152559 0.235012,0.0557323z"/>
   <path id="_298992312" class="fil0" d="M3.04004 3.7761c-0.825276,0.36178 -1.07284,0.554657 -1.17069,0.641272 -0.150803,0.133445 -0.234213,0.630843 -0.323154,1.05318l1.86712 0 1.86712 0c-0.0889449,-0.422339 -0.172386,-0.919736 -0.323157,-1.05318 -0.0978465,-0.0866142 -0.336343,-0.274516 -1.16162,-0.636343l-0.755618 -0.00492913z"/>
   <path id="_298991784" class="fil4" d="M3.04001 3.7761c-0.82524,0.36178 -1.0728,0.554657 -1.17065,0.641272 -0.150803,0.133445 -0.234213,0.630843 -0.323154,1.05318l1.86712 0 1.86708 0c-0.0889331,-0.422339 -0.17235,-0.919736 -0.32315,-1.05318 -0.0978189,-0.0866142 -0.336315,-0.274516 -1.16159,-0.636343l0.00903937 0.0520591 -0.398142 0.320461 -0.412858 -0.34224 0.0463071 -0.0352087z"/>
   <path id="_298991880" class="fil5" d="M2.3071 5.47056l0.063937 0c-0.00285827,-0.284331 -0.00285827,-0.48926 -0.00285827,-0.48926 0,0 -0.0283228,0.212969 -0.0610787,0.48926z"/>
   <path id="_298991760" class="fil5" d="M4.51954 5.47056l-0.0639764 0c0.00285827,-0.284331 0.00285827,-0.48926 0.00285827,-0.48926 0,0 0.0283228,0.212969 0.0611181,0.48926z"/>
   <path id="_298992096" class="fil6" d="M3.01262 3.96969l0.174063 1.50087 0.226634 0 0.224929 0 0.175764 -1.50083 2.75591e-005 -3.14961e-005 -2.3622e-005 -0.0542756 0 -0.121732c-0.313106,0.228205 -0.498287,0.220969 -0.801394,0l0 0.120776 0 0.0552323z"/>
   <path id="_298991112" class="fil4" d="M3.46639 4.14026l0.124988 1.33029 1.68903 0c-0.0889331,-0.422339 -0.17235,-0.919736 -0.32315,-1.05318 -0.0970827,-0.0859646 -0.332846,-0.271724 -1.1432,-0.628248l-0.347665 0.351138z"/>
   <path id="_298990968" class="fil4" d="M3.01147 3.78866c-0.802374,0.353681 -1.04541,0.54311 -1.14211,0.628717 -0.150803,0.133445 -0.234213,0.630843 -0.323154,1.05318l1.7134 0 0.0629173 -1.32638 -0.309898 -0.344307c-0.00103543,-0.00370472 -0.00140945,-0.00749213 -0.00115354,-0.0112087z"/>
   <path id="_298991688" class="fil7" d="M2.28935 5.12587c0.000354331,0.00606693 0.00108268,0.0120354 0.00155512,0.0180827l0.119677 -0.0180827 -0.121232 0z"/>
   <path id="_298991712" class="fil7" d="M5.64124 5.46741l-0.180035 -0.0135118 0.000114173 0.000787402 -1.59697 -0.114091c-0.00340157,0.000795276 -0.00675197,0.00171654 -0.0100472,0.00276378 -0.0441102,0.172598 -0.230429,0.302197 -0.453622,0.302197 -0.220031,0 -0.404252,-0.125953 -0.451685,-0.294894l-1.54506 0.0983307 -0.00170079 0.00219685 -0.216941 0.0162205c-0.0733819,0.00542913 -0.128476,0.0694764 -0.122988,0.142878 0.00547638,0.0733543 0.0695472,0.12822 0.142898,0.122878l1.63889 -0.122665c0.0744646,0.131748 0.243213,0.280787 0.560012,0.280787 0.00319291,0 0.00614961,-0.000590551 0.00927559,-0.000877953 0.00311811,0.000287402 0.00611417,0.000877953 0.00930709,0.000877953 0.316835,0 0.485535,-0.149039 0.560004,-0.280787l1.6388 0.122665c0.0737913,0.00548425 0.137449,-0.0495236 0.142894,-0.122878 0.00525591,-0.0734016 -0.0497362,-0.137449 -0.123138,-0.142878z"/>
   <path id="_298991664" class="fil8" d="M2.949 5.35066c0.0121417,0.043248 0.033248,0.0836772 0.061622,0.119898 0.0824724,0.105276 0.226358,0.174996 0.390063,0.174996 0.163709,0 0.307575,-0.0697244 0.390043,-0.174996 0.0299646,-0.038252 0.0518228,-0.0812008 0.0635787,-0.127201 0.00329528,-0.00104724 0.00664567,-0.0019685 0.0100472,-0.00276378 -0.0390118,-0.00279134 1.10022,0.0786024 1.59697,0.114091l-0.000114173 -0.000787402 -0.0170709 -0.00128346c-0.0355236,-0.0449409 -0.0752598,-0.120492 -0.0999528,-0.247362l-0.0106063 -0.0543307 -0.0549291 -0.00673622c-0.00596457,-0.000751969 -0.605512,-0.075063 -1.07937,-0.175244 -0.397059,-0.0841142 -0.629114,0.0692244 -0.710429,0.139146 -0.0253583,0.0217165 -0.0473425,0.0448465 -0.0663031,0.0685984 -0.0189606,-0.023752 -0.0410079,-0.0467087 -0.0662992,-0.0684213 -0.0813504,-0.0699331 -0.313437,-0.223122 -0.710496,-0.13926 -0.473764,0.100272 -1.07337,0.174579 -1.07936,0.17524l-0.054937 0.00685433 -0.0104488 0.0541535c-0.0242008,0.123528 -0.062315,0.198362 -0.0970748,0.24374l1.54506 -0.0983307z"/>
   <path id="_298991232" class="fil1" d="M2.55936 2.52919c-0.497118,0.120429 -0.456476,0.835567 -0.165047,1.09281 0.456476,0.402996 -0.0537992,0.752685 0.104591,0.720102 0.376339,-0.0773898 0.63463,-0.628087 0.248811,-1.05549 -0.385843,-0.427406 0.097185,-0.826598 -0.188354,-0.757429z"/>
   <path id="_298991352" class="fil1" d="M4.3592 2.52919c0.49713,0.120429 0.456453,0.835567 0.165059,1.09281 -0.456512,0.402996 0.0537992,0.752685 -0.104602,0.720102 -0.376335,-0.0773898 -0.634618,-0.628087 -0.248799,-1.05549 0.385815,-0.427406 -0.097185,-0.826598 0.188343,-0.757429z"/>
   <path id="_298990752" class="fil9" d="M4.39449 2.52846c0.450972,0.109248 0.414071,0.757984 0.149732,0.99135 -0.414126,0.365575 0.0488031,0.682799 -0.0948898,0.65324 -0.341394,-0.0702008 -0.575697,-0.569768 -0.225701,-0.957488 0.349996,-0.38772 -0.0881614,-0.74985 0.170858,-0.687102z"/>
   <path id="_298990632" class="fil9" d="M2.47852 2.52846c-0.450972,0.109248 -0.414071,0.757984 -0.149732,0.99135 0.414126,0.365575 -0.0488031,0.682799 0.0948898,0.65324 0.341394,-0.0702008 0.575697,-0.569768 0.225701,-0.957488 -0.349996,-0.38772 0.0881614,-0.74985 -0.170858,-0.687102z"/>
   <path id="_298990416" class="fil0" d="M3.45285 3.58665c-0.207642,0 -0.646287,-0.326445 -0.781898,-0.793996 -0.136921,-0.472114 0.120937,-1.14926 0.781898,-1.14926 0.660957,0 0.918815,0.67713 0.781898,1.14926 -0.135638,0.467559 -0.57426,0.793996 -0.781898,0.793996z"/>
   <path id="_298990488" class="fil0" d="M2.50043 2.50777c0.0667677,-0.0286772 0.161122,0.0417008 0.210768,0.157197 0.0495748,0.1155 0.0356614,0.232402 -0.0311339,0.261094 -0.0668071,0.0286772 -0.161134,-0.0417008 -0.210744,-0.157197 -0.0496378,-0.1155 -0.0356969,-0.232402 0.0311102,-0.261094z"/>
   <path id="_298990296" class="fil0" d="M4.3435 2.50778c-0.0667953,-0.0286929 -0.161157,0.041685 -0.210768,0.157181 -0.0496102,0.1155 -0.0356614,0.232402 0.0311378,0.261079 0.0667756,0.0286929 0.16113,-0.041685 0.21074,-0.157181 0.0496102,-0.1155 0.0356969,-0.232402 -0.0311102,-0.261079z"/>
   <path id="_298990944" class="fil1" d="M4.27241 2.5158c0.389583,-1.09717 -0.411626,-1.01855 -0.853591,-1.01855 -0.49776,0 -1.10312,0.129535 -0.781587,1.05516 0.616524,0.0971654 1.05233,-0.230319 1.33501,-0.719193 -0.00672835,0.318791 0.122146,0.638894 0.300165,0.682579z"/>
   <g>
    <g>
     <path id="_298990224" class="fil10" d="M2.41073 1.25965c-0.162323,0.063126 -0.15061,0.199331 -0.135965,0.369154l7.87402e-006 0c0.00453937,0.0526142 0.00934252,0.10828 0.00970866,0.168453l-0.053126 0.000204724c-0.000338583,-0.0554646 -0.00515748,-0.111295 -0.00970866,-0.164075l0 -0.000102362c-0.0165354,-0.191756 -0.0297992,-0.345547 0.169917,-0.423217l0.0191654 0.0495827z"/>
     <polygon id="_298990872" class="fil11" points="2.22848,1.7115 2.28171,1.7115 2.37643,1.94995 2.35217,1.94995 2.30831,1.87662 2.2959,1.94995 2.27555,1.94995 2.25751,1.8772 2.23551,1.94995 2.21173,1.94995 2.20496,1.8772 2.15815,1.94995 2.142,1.94995 "/>
    </g>
    <path id="_298989648" class="fil4" d="M2.6563 1.23783c0.530409,0.20128 1.06081,0.180673 1.59123,0l0 0.420217c-0.563689,0.191189 -1.09698,0.204638 -1.59123,0l0 -0.420217z"/>
    <rect id="_298990056" class="fil11" transform="matrix(1.69271 -0.371178 1.69271 0.371178 2.15238 1.21563)" width="0.755024" height="0.755024"/>
   </g>
   <path id="_298990176" class="fil12" d="M3.12183 3.02949c0.14002,-0.102421 0.286169,-0.041815 0.335024,-0.041815 0.048878,0 0.186953,-0.0606063 0.327,0.041815 -0.069689,0.281638 -0.556579,0.288748 -0.662024,0z"/>
   <path id="_298990128" class="fil13" d="M3.12603 3.02802c0.129984,-0.0458465 0.244886,0.0439213 0.326665,0.0439213 0.0817795,0 0.196976,-0.120559 0.326965,-0.0393386 -0.152323,0.155252 -0.500276,0.14685 -0.65363,-0.00458268z"/>
   <path id="_298989456" class="fil14" d="M3.12181 3.028c0.140047,-0.0577323 0.243087,-0.0158543 0.324874,-0.0158543 0.0817795,0 0.19713,-0.041878 0.337177,0.0158543 -0.152323,0.0869724 -0.508669,0.0840709 -0.662051,0z"/>
   <path id="_298989504" class="fil12" d="M3.1225 3.02854c0.139378,-0.101118 0.259075,-0.0309685 0.340705,-0.0309685 0.0816535,0 0.179929,-0.0705079 0.31998,0.0319291 -0.000484252,0.00142126 -0.00109449,0.00282283 -0.00161417,0.00421654 -0.178531,-0.00318504 -0.470717,-0.00500787 -0.659071,-0.00517717z"/>
  </g>
  <rect class="fil15" x="0.0364567" y="-0.00520866" width="6.82666" height="6.82666"/>
 </g>
</svg>
