<?xml version="1.0" encoding="UTF-8"?>
<!DOCTYPE svg PUBLIC "-//W3C//DTD SVG 1.1//EN" "http://www.w3.org/Graphics/SVG/1.1/DTD/svg11.dtd">
<!-- Creator: CorelDRAW -->
<svg xmlns="http://www.w3.org/2000/svg" xml:space="preserve" width="6.82666in" height="6.82666in" style="shape-rendering:geometricPrecision; text-rendering:geometricPrecision; image-rendering:optimizeQuality; fill-rule:evenodd; clip-rule:evenodd"
viewBox="0 0 6.82666 6.82666"
 xmlns:xlink="http://www.w3.org/1999/xlink">
 <defs>
  <style type="text/css">
   <![CDATA[
    .fil13 {fill:none}
    .fil2 {fill:#212121}
    .fil10 {fill:#272727}
    .fil5 {fill:#293439}
    .fil12 {fill:#43A047}
    .fil6 {fill:#757575}
    .fil0 {fill:#DBC0B2}
    .fil4 {fill:#DFC4B6}
    .fil7 {fill:#E4B7A0}
    .fil3 {fill:#ECCEBE}
    .fil8 {fill:#EEEEEE}
    .fil1 {fill:#FFDDCC}
    .fil11 {fill:#272727;fill-rule:nonzero}
    .fil9 {fill:#3B210F;fill-rule:nonzero}
   ]]>
  </style>
 </defs>
 <g id="Layer_x0020_1">
  <metadata id="CorelCorpID_0Corel-Layer"/>
  <path class="fil0" d="M2.37986 2.51239c0.0705551,-0.0232677 0.160362,0.0568228 0.200547,0.178902 0.040185,0.122043 0.0155591,0.239831 -0.0550315,0.263094 -0.0705512,0.0232283 -0.160358,-0.0568622 -0.200543,-0.178937 -0.0402244,-0.122043 -0.0155591,-0.239839 0.0550276,-0.263059z"/>
  <path class="fil0" d="M4.44324 2.51239c-0.0705866,-0.0232677 -0.160394,0.0568583 -0.200579,0.178902 -0.040185,0.122043 -0.0155591,0.239831 0.0550197,0.263059 0.0705906,0.0232638 0.160398,-0.0568268 0.200583,-0.178902 0.040185,-0.122043 0.0155591,-0.239839 -0.0550236,-0.263059z"/>
  <path class="fil1" d="M3.04004 3.80866c-0.825276,0.36178 -1.07284,0.554657 -1.17069,0.641272 -0.150803,0.133445 -0.234213,0.630843 -0.323154,1.05318l1.86712 0 1.86712 0c-0.0889449,-0.422339 -0.172386,-0.919736 -0.323157,-1.05318 -0.0978465,-0.0866142 -0.336343,-0.274516 -1.16162,-0.636343l-0.755618 -0.00492913z"/>
  <path class="fil2" d="M3.04001 3.80866c-0.82524,0.36178 -1.0728,0.554657 -1.17065,0.641272 -0.150803,0.133445 -0.234213,0.630843 -0.323154,1.05318l1.86712 0 1.86708 0c-0.0889331,-0.422339 -0.17235,-0.919736 -0.32315,-1.05318 -0.0978189,-0.0866142 -0.336315,-0.274516 -1.16159,-0.636343l-0.755654 -0.00492913z"/>
  <path class="fil3" d="M3.81401 3.08748l0 0.914768c-0.220394,0.269929 -0.581031,0.260579 -0.80139,0l0 -0.914768c0,-0.493957 0.80139,-0.493957 0.80139,0z"/>
  <path class="fil4" d="M3.81401 3.08748l0 0.612453c-0.151634,0.110531 -0.29778,0.172449 -0.400693,0.172449 -0.102913,0 -0.249087,-0.0619173 -0.400697,-0.172449l0 -0.612453c0,-0.493957 0.80139,-0.493957 0.80139,0z"/>
  <path class="fil3" d="M3.41332 1.44513c-1.34488,0 -0.861236,1.62502 -0.773386,1.75436 0.0968661,0.142657 0.556098,0.520756 0.773386,0.520756 0.217283,0 0.676488,-0.378098 0.773346,-0.520756 0.0878858,-0.129343 0.571528,-1.75436 -0.773346,-1.75436z"/>
  <path class="fil5" d="M2.79859 1.98895c-0.0780079,0.426197 -0.27337,0.386417 -0.257874,0.886547 -0.0627559,-0.389795 -0.156484,-0.908531 0.108539,-1.25022 0.21176,-0.273028 0.91313,-0.468327 1.3673,-0.140736 0.501626,0.107169 0.34476,1.12846 0.2775,1.32149 -0.0469567,-0.312661 -0.152134,-0.442906 -0.284917,-0.81052 -0.18015,0.129181 -0.979618,0.158 -1.21054,-0.00656299z"/>
  <path class="fil6" d="M2.3071 5.50311l0.063937 0c-0.00285827,-0.284331 -0.00285827,-0.48926 -0.00285827,-0.48926 0,0 -0.0283228,0.212969 -0.0610787,0.48926z"/>
  <path class="fil6" d="M4.51954 5.50311l-0.0639764 0c0.00285827,-0.284331 0.00285827,-0.48926 0.00285827,-0.48926 0,0 0.0283228,0.212969 0.0611181,0.48926z"/>
  <path class="fil7" d="M3.006 3.14621c0.270488,0.0967992 0.584449,0.0811024 0.814626,0 -0.0751102,0.346055 -0.670996,0.354457 -0.814626,0z"/>
  <path class="fil8" d="M3.01262 4.00224l0.174063 1.50087 0.226634 0 0.224929 0 0.175764 -1.50083 2.75591e-005 -3.14961e-005 -2.3622e-005 -0.0542756 0 -0.121732c-0.0636969,0.0464252 -0.126421,0.0842756 -0.185382,0.112563 -0.0814055,0.0390551 -0.15563,0.0598819 -0.215315,0.0598819 -0.061122,0 -0.137496,-0.0218386 -0.221209,-0.0627283 -0.0572441,-0.0279606 -0.117917,-0.0648307 -0.179488,-0.109717l0 0.120776 0 0.0552323z"/>
  <path class="fil2" d="M3.46639 4.17282l0.124988 1.33029 1.68903 0c-0.0889331,-0.422339 -0.17235,-0.919736 -0.32315,-1.05318 -0.0970827,-0.0859646 -0.332846,-0.271724 -1.1432,-0.628248l-0.347665 0.351138z"/>
  <path class="fil2" d="M3.01147 3.82121c-0.802374,0.353681 -1.04541,0.54311 -1.14211,0.628717 -0.150803,0.133445 -0.234213,0.630843 -0.323154,1.05318l1.7134 0 0.0629173 -1.32638 -0.309898 -0.344307c-0.00103543,-0.00370472 -0.00140945,-0.00749213 -0.00115354,-0.0112087z"/>
  <path class="fil2" d="M2.64746 1.20528c0.530409,0.20128 1.06081,0.180673 1.59123,0l0 0.420217c-0.563689,0.191189 -1.09698,0.204638 -1.59123,0l0 -0.420217z"/>
  <path class="fil9" d="M2.28935 5.15843c0.000354331,0.00606693 0.00108268,0.0120354 0.00155512,0.0180827l0.119677 -0.0180827 -0.121232 0z"/>
  <rect class="fil10" transform="matrix(1.69271 -0.371178 1.69271 0.371178 2.14354 1.18307)" width="0.755024" height="0.755024"/>
  <path class="fil11" d="M2.40189 1.2271c-0.162323,0.063126 -0.15061,0.199331 -0.135965,0.369154l7.87402e-006 0c0.00453937,0.0526142 0.00934252,0.10828 0.00970866,0.168453l-0.053126 0.000204724c-0.000338583,-0.0554646 -0.00515748,-0.111295 -0.00970866,-0.164075l0 -0.000102362c-0.0165354,-0.191756 -0.0297992,-0.345547 0.169917,-0.423217l0.0191654 0.0495827z"/>
  <polygon class="fil10" points="2.21964,1.67895 2.27287,1.67895 2.36759,1.9174 2.34333,1.9174 2.29947,1.84407 2.28706,1.9174 2.26671,1.9174 2.24867,1.84465 2.22667,1.9174 2.20289,1.9174 2.19613,1.84465 2.14931,1.9174 2.13316,1.9174 "/>
  <path class="fil9" d="M5.64124 5.49996l-0.180035 -0.0135118 0.000114173 0.000787402 -1.59697 -0.114091c-0.00340157,0.000795276 -0.00675197,0.00171654 -0.0100472,0.00276378 -0.0441102,0.172598 -0.230429,0.302197 -0.453622,0.302197 -0.220031,0 -0.404252,-0.125953 -0.451685,-0.294894l-1.54506 0.0983307 -0.00170079 0.00219685 -0.216941 0.0162205c-0.0733819,0.00542913 -0.128476,0.0694764 -0.122988,0.142878 0.00547638,0.0733543 0.0695472,0.12822 0.142898,0.122878l1.63889 -0.122665c0.0744646,0.131748 0.243213,0.280787 0.560012,0.280787 0.00319291,0 0.00614961,-0.000590551 0.00927559,-0.000877953 0.00311811,0.000287402 0.00611417,0.000877953 0.00930709,0.000877953 0.316835,0 0.485535,-0.149039 0.560004,-0.280787l1.6388 0.122665c0.0737913,0.00548425 0.137449,-0.0495236 0.142894,-0.122878 0.00525591,-0.0734016 -0.0497362,-0.137449 -0.123138,-0.142878z"/>
  <path class="fil12" d="M2.949 5.38321c0.0121417,0.043248 0.033248,0.0836772 0.061622,0.119898 0.0824724,0.105276 0.226358,0.174996 0.390063,0.174996 0.163709,0 0.307575,-0.0697244 0.390043,-0.174996 0.0299646,-0.038252 0.0518228,-0.0812008 0.0635787,-0.127201 0.00329528,-0.00104724 0.00664567,-0.0019685 0.0100472,-0.00276378 -0.0390118,-0.00279134 1.10022,0.0786024 1.59697,0.114091l-0.000114173 -0.000787402 -0.0170709 -0.00128346c-0.0355236,-0.0449409 -0.0752598,-0.120492 -0.0999528,-0.247362l-0.0106063 -0.0543307 -0.0549291 -0.00673622c-0.00596457,-0.000751969 -0.605512,-0.075063 -1.07937,-0.175244 -0.397059,-0.0841142 -0.629114,0.0692244 -0.710429,0.139146 -0.0253583,0.0217165 -0.0473425,0.0448465 -0.0663031,0.0685984 -0.0189606,-0.023752 -0.0410079,-0.0467087 -0.0662992,-0.0684213 -0.0813504,-0.0699331 -0.313437,-0.223122 -0.710496,-0.13926 -0.473764,0.100272 -1.07337,0.174579 -1.07936,0.17524l-0.054937 0.00685433 -0.0104488 0.0541535c-0.0242008,0.123528 -0.062315,0.198362 -0.0970748,0.24374l1.54506 -0.0983307z"/>
  <rect class="fil13" x="0.0364567" y="-0.00520866" width="6.82666" height="6.82666"/>
 </g>
</svg>
