<?xml version="1.0" encoding="UTF-8"?>
<!DOCTYPE svg PUBLIC "-//W3C//DTD SVG 1.1//EN" "http://www.w3.org/Graphics/SVG/1.1/DTD/svg11.dtd">
<!-- Creator: CorelDRAW -->
<svg xmlns="http://www.w3.org/2000/svg" xml:space="preserve" width="6.82666in" height="6.82666in" style="shape-rendering:geometricPrecision; text-rendering:geometricPrecision; image-rendering:optimizeQuality; fill-rule:evenodd; clip-rule:evenodd"
viewBox="0 0 6.82666 6.82666"
 xmlns:xlink="http://www.w3.org/1999/xlink">
 <defs>
  <style type="text/css">
   <![CDATA[
    .fil13 {fill:none}
    .fil10 {fill:none;fill-rule:nonzero}
    .fil3 {fill:#00796B}
    .fil6 {fill:#37474F}
    .fil0 {fill:#4DB6AC}
    .fil2 {fill:#A9B9C0}
    .fil1 {fill:#D7DEE2}
    .fil12 {fill:#00211C;fill-rule:nonzero}
    .fil8 {fill:#004D40;fill-rule:nonzero}
    .fil11 {fill:#00796B;fill-rule:nonzero}
    .fil5 {fill:#212121;fill-rule:nonzero}
    .fil7 {fill:#37474F;fill-rule:nonzero}
    .fil9 {fill:#424242;fill-rule:nonzero}
    .fil15 {fill:#B4B4B4;fill-rule:nonzero}
    .fil14 {fill:#BDBDBD;fill-rule:nonzero}
    .fil4 {fill:#FFCC80;fill-rule:nonzero}
   ]]>
  </style>
 </defs>
 <g id="Layer_x0020_1">
  <metadata id="CorelCorpID_0Corel-Layer"/>
  <g id="_298995600">
   <g>
    <polygon id="_298999128" class="fil0" points="3.39529,3.1873 2.89227,3.17329 2.68286,3.57777 3.44434,4.32106 4.13896,3.55468 3.89831,3.17329 "/>
    <path id="_298999080" class="fil0" d="M3.41091 5.90705l-0.000889764 3.93701e-006 0 0.000429134c-0.309669,0 -0.606472,-0.0598583 -0.881327,-0.171909 -0.281079,-0.114587 -0.539157,-0.28387 -0.764555,-0.499638l-0.0345315 -0.0330591 0 -0.0507598c0,-0.350236 4.72441e-005,-0.651878 0.0632717,-0.941461 0.0644567,-0.295209 0.192551,-0.568098 0.448008,-0.8475l0.00731496 -0.00800787c0.0855039,-0.0935866 0.129413,-0.141626 0.195449,-0.161047 0.00927165,-0.00898425 0.0605591,-0.0288622 0.114185,-0.0268425 0.0152205,0.000574803 0.0306417,0.00137008 0.0453307,0.00224016 0.0481969,0.0028622 0.0886811,0.00663386 0.0893898,0.00671654l0.0248268 0.00279134c0.150657,0.421421 0.418587,0.600969 0.681591,0.596213 0.00397638,0.000401575 0.00795669,0.000751969 0.011937,0.00103543 0.00397638,-0.000283465 0.00795669,-0.000633858 0.0119331,-0.00103543 0.263004,0.00475591 0.530933,-0.174791 0.681591,-0.596213l0.0248268 -0.00279134c0.000708661,-8.26772e-005 0.0411929,-0.00385433 0.0893898,-0.00671654 0.014689,-0.000870079 0.0301102,-0.00166535 0.0453307,-0.00224016 0.053626,-0.00201969 0.104913,0.0178583 0.114189,0.0268425 0.0660315,0.0194213 0.109941,0.0674606 0.195445,0.161047l0.00731496 0.00800787c0.255457,0.279402 0.383551,0.552291 0.448008,0.8475 0.0632244,0.289583 0.0632717,0.591224 0.0632717,0.941461l0 0.0507598 -0.0345315 0.0330591c-0.225398,0.215768 -0.483472,0.385051 -0.764555,0.499638 -0.274854,0.112051 -0.571657,0.171909 -0.881327,0.171909l0 -0.000429134 -0.000885827 -3.93701e-006z"/>
    <path id="_298998792" class="fil1" d="M2.02591 3.25968l0.573295 -0.090811 0.188134 -0.0138307 0.604193 2.75551 -2.25459 0.00831102 0.0657992 -1.56324c0.036315,-0.862894 0.506362,-1.00254 0.823169,-1.09594z"/>
    <path id="_298999032" class="fil1" d="M4.80076 3.25968l-0.573295 -0.090811 -0.188134 -0.0138307 -0.604193 2.75551 2.25459 0.00831102 -0.0657992 -1.56324c-0.036315,-0.862894 -0.506362,-1.00254 -0.823169,-1.09594z"/>
    <g>
     <polygon id="_298997928" class="fil2" points="2.73803,3.1721 2.49592,4.03582 2.82153,4.01657 2.75951,4.42286 2.97244,4.52557 3.39465,5.9049 3.39609,5.90959 3.41028,5.91055 3.40918,5.90554 2.92145,3.68121 2.8862,3.52043 2.83798,3.30054 2.81129,3.1788 2.80608,3.15504 2.74148,3.15979 "/>
     <polygon id="_298998576" class="fil2" points="4.08379,3.1721 4.3259,4.03582 4.0003,4.01657 4.06231,4.42286 3.84938,4.52557 3.42717,5.9049 3.42574,5.90959 3.41155,5.91055 3.41265,5.90554 3.90037,3.68121 3.93562,3.52043 3.98384,3.30054 4.01053,3.1788 4.01574,3.15504 4.08034,3.15979 "/>
    </g>
    <path id="_298998504" class="fil3" d="M3.41213 3.39261c0.0318425,-0.00592913 -0.416413,0.633559 -0.4185,0.695531 -0.00209055,0.0619724 -0.239063,-0.569728 -0.282713,-0.788224 -0.0436496,-0.218496 0.107587,-0.305386 0.107587,-0.305386l0.593626 0.398079z"/>
    <path id="_298998288" class="fil3" d="M3.41213 3.39261c-0.0318425,-0.00592913 0.413965,0.633559 0.416055,0.695531 0.00208661,0.0619724 0.239059,-0.569728 0.282709,-0.788224 0.0436535,-0.218496 -0.107587,-0.305386 -0.107587,-0.305386l-0.591177 0.398079z"/>
    <path id="_298998552" class="fil4" d="M4.36814 2.27018c-0.0175984,0.301783 -0.139346,0.609358 -0.309669,0.839543 -0.173287,0.234185 -0.399535,0.39202 -0.624516,0.39202 -0.228783,0 -0.472354,-0.164567 -0.65935,-0.406516 -0.180339,-0.233335 -0.311354,-0.542173 -0.325945,-0.844366l0.0864803 -0.021378 -0.0276378 -0.0559803 0.00673622 -0.00404331c0.0562717,-0.0337717 0.0668228,-0.0401063 0.0781181,-0.13252 0.00257087,-0.0210276 0.00487402,-0.0482913 0.00696063,-0.0774331 0.00255118,-0.0356969 0.00392126,-0.0598661 0.00512598,-0.0816024 0.00169685,-0.0305945 0.0116929,-0.0559409 0.0269331,-0.0760945l0 -0.000429134c0.0179882,-0.0237598 0.0413583,-0.0374803 0.066748,-0.0426102 0.0201142,-0.00405906 0.0408307,-0.00214173 0.0596654,0.00487008 0.0246614,0.00916142 0.0480669,0.027815 0.0635984,0.0534291 0.0087874,0.0144724 0.031752,0.0249921 0.0623622,0.0321772 0.0517362,0.0121339 0.116988,0.0105276 0.181567,0.000153543 0.0337638,-0.00543701 0.0853031,-0.0345236 0.143051,-0.0671063 0.183067,-0.103307 0.413969,-0.233594 0.676587,-0.0307913 0.0604685,0.0466929 0.118071,0.0961811 0.171886,0.147244 0.0561339,0.0532559 0.109142,0.108882 0.157969,0.165488 0.00534252,0.00618504 0.0142126,0.0172323 0.0237717,0.0291417 0.0219331,0.0273307 0.0501811,0.0625236 0.0593976,0.0656102l0.0751772 0.0251969 -0.00501575 0.0859961z"/>
    <path id="_298998192" class="fil5" d="M3.7636 0.974854c0.132665,0.0452953 0.204783,0.0299685 0.283748,0.0865394 0.563681,0.403819 0.484957,0.669909 0.363138,1.02883 -0.0140906,0.0415157 -0.0278031,0.0819094 -0.0401457,0.12274l-0.0270827 0.0895669 -0.0837835 -0.016437c-0.0718661,-0.0140945 -0.126894,-0.0826772 -0.16898,-0.135142 -0.00601969,-0.00750394 -0.0116102,-0.0144685 -0.0190984,-0.0231339 -0.0443898,-0.0514567 -0.0924724,-0.101913 -0.143252,-0.150098 -0.0506378,-0.0480433 -0.103094,-0.0932559 -0.156382,-0.134409 -0.165343,-0.127677 -0.337193,-0.0307087 -0.473449,0.0461772 -0.073811,0.0416457 -0.139689,0.078815 -0.205091,0.0893425 -0.0852953,0.0137205 -0.17474,0.0150787 -0.250559,-0.0027126 -0.0180197,-0.00422835 -0.0353898,-0.00955512 -0.0519606,-0.0160472 -0.000688976,0.00627165 -0.0014252,0.0125984 -0.00220472,0.0189882 -0.024689,0.20202 -0.0491614,0.216705 -0.179673,0.295035l-0.00672835 0.00403937 -0.114039 0.0684213 -0.0297756 -0.139417c-0.00388583,-0.0181929 -0.0280669,-0.0619646 -0.0567913,-0.113976 -0.0439685,-0.0795984 -0.0965984,-0.17487 -0.128535,-0.278646 -0.068811,-0.22361 -0.0476181,-0.45937 0.29678,-0.606909 0.0225748,-0.0677008 0.0500866,-0.12815 0.0817441,-0.181949 0.139449,-0.0370079 0.308567,0.0150551 0.516209,-0.118516 0.201445,-0.0303465 0.415921,0.00625984 0.595913,0.0677165z"/>
    <path id="_298998456" class="fil6" d="M2.35996 3.97593l0.039122 0.0217717c0.038937,-0.0877598 0.0707165,-0.179811 0.0869921,-0.276087 0.00633858,-0.0374803 0.0102047,-0.075122 0.0121181,-0.113177 0.00170472,-0.0339055 0.00184252,-0.0677717 0.00190157,-0.101717 0.000102362,-0.0567323 0.000582677,-0.111575 0.0102323,-0.167528l0.000389764 -0.00243701c0.018626,-0.105319 0.0917441,-0.188378 0.190138,-0.181618 0.00314961,-0.00517717 0.014748,-0.0233701 0.0209764,-0.0332402 -0.00311811,-0.00300787 -0.0126811,-0.0127598 -0.0156811,-0.0153228 -0.120098,-0.00944488 -0.21515,0.089252 -0.23852,0.221083 -0.0161417,0.0913071 -0.00840551,0.182823 -0.0130315,0.274831 -0.00185827,0.0368504 -0.00562598,0.0732992 -0.0117677,0.109587 -0.0155787,0.0920394 -0.0457244,0.179933 -0.0828701,0.263854z"/>
    <path id="_298998312" class="fil7" d="M2.92807 4.62945l0.000637795 0.00101181c0.00355906,0.00567717 0.00709449,0.0113858 0.010374,0.0170906l0.00503937 0.00880315c0.0148189,0.0258898 0.029626,0.0517992 0.0428622,0.0787323 0.0244646,0.0497559 0.0474843,0.108795 0.0457638,0.166484 -0.00243307,0.081622 -0.0556339,0.137618 -0.115205,0.177063l-0.0209528 -0.0426535c0.0468976,-0.0325079 0.0845433,-0.0782638 0.0872165,-0.143165 0.00195276,-0.0474055 -0.015185,-0.0938071 -0.0353031,-0.134732 -0.0127677,-0.0259724 -0.0270512,-0.0509764 -0.0413465,-0.0759528l-0.00503543 -0.00879921c-0.00315354,-0.00550787 -0.00655118,-0.0110197 -0.00997638,-0.0165039l-0.000240157 -0.000377953 0.0361654 -0.027z"/>
    <path id="_298998024" class="fil7" d="M2.16698 4.82181l-0.00015748 0.000826772c-0.00123622,0.00655512 -0.00241339,0.0131535 -0.00322441,0.0194409l-0.00115354 0.00896063 9.44882e-005 0.000153543c-0.00875984,0.0686929 -0.0170591,0.151831 0.000523622,0.217744 0.0198661,0.0744843 0.0726142,0.10515 0.13724,0.109335l0.000822835 0.0484882c-0.088626,-0.00372441 -0.15313,-0.0437047 -0.179894,-0.144059 -0.0192165,-0.0720276 -0.0123307,-0.156248 -0.00305906,-0.230866l0.0022126 -0.0164764c0.000838583,-0.00622835 0.00194882,-0.0126535 0.00311811,-0.0190591l5.90551e-005 -0.000326772 0.0434173 0.00583858z"/>
    <path id="_298998336" class="fil8" d="M2.10252 4.81315c0.00899213,-0.0513701 0.0354173,-0.197142 0.0621969,-0.344882 0.020126,-0.111016 0.0404488,-0.223102 0.0534213,-0.295209l-9.84252e-005 -0.000153543c0.0119449,-0.0663189 0.035185,-0.120433 0.0654764,-0.159728 0.0278268,-0.0361063 0.0616181,-0.0597795 0.0984921,-0.0693858 0.037748,-0.00983071 0.0776772,-0.00490157 0.116776,0.0164882 0.0370984,0.0202913 0.073315,0.0556772 0.105594,0.107661 0.0374803,0.0603661 0.0998937,0.160563 0.161839,0.260016 0.0754961,0.121217 0.150299,0.241311 0.178882,0.287539l-0.017563 0.0131063 0.00053937 0.000854331 -0.0361654 0.027 -0.00053937 -0.000854331 -0.017685 0.0132008c-0.027185,-0.0439803 -0.102583,-0.165028 -0.178693,-0.287228 -0.0619409,-0.0994528 -0.124358,-0.19965 -0.161839,-0.26002 -0.0234094,-0.0376969 -0.0482441,-0.0625669 -0.0726693,-0.075937 -0.020315,-0.0111142 -0.040252,-0.0138937 -0.0583976,-0.00916535 -0.0190276,0.00495669 -0.0371772,0.0181024 -0.0529173,0.0385197 -0.0208307,0.0270236 -0.0372008,0.0663819 -0.0462323,0.116539l-0.00011811 -2.75591e-005c-0.0134016,0.0744961 -0.0335394,0.185594 -0.0534843,0.295598 -0.0260315,0.143594 -0.0517323,0.285354 -0.0610354,0.33748l-0.0212953 -0.00283465 -1.9685e-005 9.05512e-005 -0.0434173 -0.00583858 3.93701e-006 -2.75591e-005 -0.0170157 -0.00225984 -0.00403543 -0.000543307z"/>
    <polygon id="_298997592" class="fil9" points="2.10252,4.81315 2.10252,4.81315 2.10655,4.81369 "/>
    <path id="_298997568" class="fil8" d="M2.88182 5.15538c-0.0194567,0.0145236 -0.0424134,0.0189685 -0.0637913,0.0144173 -0.0213819,-0.00454724 -0.041189,-0.0180984 -0.0543543,-0.039563 -0.0131614,-0.0214646 -0.0171969,-0.0467913 -0.0130709,-0.0703819 0.00412205,-0.0235866 0.0164055,-0.0454449 0.0358583,-0.0599685 0.0194567,-0.0145236 0.0424094,-0.0189724 0.0637953,-0.0144213 0.0213819,0.00455512 0.0411929,0.0180984 0.0543504,0.039563 0.0131693,0.0214685 0.0171969,0.0467953 0.0130748,0.0703819 -0.00412598,0.0235906 -0.0164055,0.0454488 -0.0358622,0.0599724z"/>
    <path id="_298997472" class="fil8" d="M2.41573 5.2697c-0.0194567,0.0145236 -0.0424134,0.0189724 -0.0637913,0.0144213 -0.0213858,-0.00454724 -0.0411929,-0.0180984 -0.0543543,-0.039563 -0.0131654,-0.0214646 -0.0171969,-0.0467913 -0.0130709,-0.0703819 0.00412205,-0.0235866 0.0164016,-0.0454449 0.0358583,-0.0599685 0.0194567,-0.0145236 0.0424094,-0.0189685 0.0637913,-0.0144173 0.0213858,0.00455118 0.0411929,0.0180984 0.0543543,0.0395591 0.0131654,0.0214685 0.0171929,0.0467953 0.0130669,0.0703819 -0.00412205,0.0235906 -0.0164016,0.0454488 -0.0358543,0.0599685z"/>
    <path id="_298997784" class="fil6" d="M4.51139 3.97189l-0.039126 0.0217756c-0.0389331,-0.0877638 -0.0707126,-0.179811 -0.0869882,-0.276087 -0.00633858,-0.0374803 -0.0102047,-0.075122 -0.0121181,-0.113181 -0.00170472,-0.0339016 -0.00184252,-0.0677677 -0.00190551,-0.101713 -0.000102362,-0.0567323 -0.000582677,-0.111575 -0.0102283,-0.167531l-0.000393701 -0.00243701c-0.0200236,-0.11328 -0.102661,-0.201063 -0.21248,-0.178764l-0.00224409 0.000437008c-0.0111181,0.00460236 -0.0258701,0.00288583 -0.0353819,0.00399606 0.00188189,-0.0384449 -0.00709843,-0.0439567 0.0258307,-0.051248 0.0482165,-0.0106732 0.0971299,-0.00514961 0.142476,0.0210354 0.0674882,0.0389646 0.110512,0.114358 0.12489,0.195449 0.0105118,0.0594606 0.0111063,0.118835 0.0112205,0.179154 5.90551e-005,0.0319331 0.000204724,0.0637795 0.00181102,0.0956772 0.00185433,0.0368465 0.00562598,0.0732953 0.0117677,0.109587 0.0155787,0.0920394 0.0457244,0.179929 0.0828701,0.26385z"/>
    <line id="_298997448" class="fil10" x1="4.54941" y1="3.97725" x2="4.54941" y2= "3.97725" />
    <line id="_298997136" class="fil10" x1="4.58154" y1="3.88884" x2="4.58154" y2= "3.88884" />
    <line id="_298997520" class="fil10" x1="4.59713" y1="4.10176" x2="4.59713" y2= "4.10176" />
    <line id="_298997208" class="fil10" x1="4.67727" y1="4.1372" x2="4.67727" y2= "4.13721" />
    <path id="_298997640" class="fil8" d="M4.45216 4.24283l-3.93701e-006 -3.93701e-006c-0.0443661,-0.0197756 -0.0772441,-0.0574606 -0.0945276,-0.102386 -0.0173031,-0.0449764 -0.0190748,-0.0971929 -0.00120866,-0.14598l0 -3.93701e-006c0.0179252,-0.0489488 0.0520827,-0.0852205 0.0927992,-0.104287 0.0407638,-0.0190906 0.0880945,-0.0210433 0.132311,-0.00133465l1.1811e-005 3.93701e-006c0.0443622,0.0197756 0.0772362,0.0574567 0.0945197,0.102382 0.0173031,0.0449764 0.0190709,0.0971929 0.00120866,0.14598l-3.93701e-006 7.87402e-006c-0.0179213,0.0489449 -0.0520787,0.0852165 -0.0927953,0.104283 -0.0407638,0.0190945 -0.0880945,0.0210433 -0.132311,0.00133858z"/>
    <path id="_298997736" class="fil11" d="M4.48229 4.16039l0 -3.93701e-006c-0.0237047,-0.010563 -0.0412677,-0.0306929 -0.0505039,-0.0546929 -0.00924016,-0.0240276 -0.010185,-0.0519252 -0.000637795,-0.0779843l0 -3.93701e-006c0.00957087,-0.0261496 0.0278189,-0.0455236 0.0495709,-0.0557126 0.0217756,-0.0101969 0.0470591,-0.0112402 0.0706811,-0.000708661l3.93701e-006 3.93701e-006c0.0237008,0.010563 0.0412638,0.030689 0.0505,0.054689 0.00924016,0.0240276 0.010189,0.0519213 0.000641732,0.0779803l-3.93701e-006 7.87402e-006c-0.0095748,0.0261496 -0.027815,0.0455236 -0.0495669,0.0557087 -0.0217795,0.0102008 -0.047063,0.0112441 -0.070685,0.000716535z"/>
    <path id="_298996368" class="fil12" d="M4.48722 4.1468l3.93701e-006 3.93701e-006c0.00997244,0.00444488 0.020252,0.00649606 0.030311,0.0063937 0.0104252,-0.000106299 0.0207087,-0.00252756 0.0302402,-0.00699606 0.00950787,-0.00445276 0.0182323,-0.0109449 0.0255787,-0.0191969 0.00705906,-0.00793307 0.0128622,-0.0175118 0.016878,-0.0284882l3.93701e-006 -7.87402e-006c0.0040315,-0.0110039 0.00588583,-0.0223465 0.00579528,-0.0334409 -9.05512e-005,-0.0115079 -0.00229134,-0.0228504 -0.00633465,-0.0333701 -0.00403543,-0.0104882 -0.00992126,-0.0201142 -0.0174016,-0.0282165 -0.00719291,-0.00779134 -0.015878,-0.0141929 -0.0258268,-0.018626l-7.87402e-006 -3.93701e-006c-0.00997244,-0.00444488 -0.020248,-0.00649213 -0.0303071,-0.0063937 -0.0104291,0.000102362 -0.0207126,0.0025315 -0.0302441,0.00699213 -0.00950787,0.00445669 -0.0182323,0.0109488 -0.0255748,0.0192008 -0.00705906,0.00793307 -0.0128622,0.0175118 -0.0168858,0.0284882l0 7.87402e-006c-0.00402756,0.0110039 -0.00588583,0.0223465 -0.00579528,0.0334409 9.44882e-005,0.0115039 0.00229134,0.0228504 0.00633465,0.0333661 0.00403937,0.0104961 0.00992126,0.020122 0.0174055,0.0282205 0.00718898,0.00779134 0.015878,0.0141929 0.0258268,0.018626zm-0.00987402 0.0271575c-0.0132953,-0.00592913 -0.0249134,-0.0144961 -0.0345433,-0.0249291 -0.00999606,-0.0108268 -0.0178504,-0.0236535 -0.0232165,-0.0376142 -0.00537402,-0.0139606 -0.00829134,-0.0291181 -0.00841339,-0.0445945 -0.000122047,-0.0148898 0.00233465,-0.03 0.00766142,-0.0445551l3.93701e-006 -7.87402e-006c0.00537402,-0.0146732 0.0131378,-0.0274921 0.0225945,-0.0381181 0.00980709,-0.0110236 0.021437,-0.019689 0.0340906,-0.0256142 0.0126496,-0.00592913 0.0263898,-0.00914567 0.0404213,-0.00928346 0.0134882,-0.000137795 0.0271929,0.00257087 0.0403898,0.00845669l3.93701e-006 3.93701e-006c0.0132953,0.00592913 0.0249134,0.0144882 0.0345472,0.0249252 0.00999213,0.0108228 0.0178465,0.0236535 0.0232126,0.0376102 0.00537008,0.0139646 0.00829134,0.029122 0.00841732,0.0446024 0.000125984,0.0148819 -0.00233071,0.0299961 -0.00766535,0.0445551l-3.93701e-006 7.87402e-006c-0.00537402,0.0146693 -0.0131378,0.0274882 -0.0225906,0.0381142 -0.00981496,0.0110276 -0.0214409,0.0196929 -0.0340945,0.0256142 -0.0126535,0.0059252 -0.0263898,0.00914567 -0.0404213,0.00928346 -0.0134882,0.000137795 -0.027189,-0.0025748 -0.0403858,-0.00845276l-7.87402e-006 -3.93701e-006zm0.0691181 -0.189106l-3.93701e-006 0m0.00987402 -0.0271496l3.93701e-006 0m0.0338976 0.140807l0 0m0.0246102 0.0108937l0 0"/>
    <path id="_298996392" class="fil0" d="M3.04024 2.63014c0.366531,0.0566102 0.376524,0.053378 0.743776,0 0.0375945,-0.00546063 0.0694055,0.0256732 0.0694055,0.0570315l0 0.406224c0,0.0313622 -0.0318465,0.0514843 -0.0694055,0.0570315 -0.367244,0.054248 -0.376862,0.0557047 -0.743776,0 -0.0375315,-0.00569685 -0.0694055,-0.0256614 -0.0694055,-0.0570315l0 -0.406224c0,-0.0313701 0.0318858,-0.0628189 0.0694055,-0.0570315z"/>
    <path id="_298996416" class="fil11" d="M3.04342 2.60478c0.357693,0.0552441 0.372992,0.0530236 0.720311,0.00251575l0.0172874 -0.00251575c0.00430315,-0.000625984 0.0081811,-0.000925197 0.0116339,-0.000925197 0.021315,0 0.0407598,0.0085748 0.0554606,0.0217362 0.015252,0.0136654 0.0255669,0.032622 0.0279606,0.0526417 0.000397638,0.00336614 0.000606299,0.00636614 0.000606299,0.00894094l0 0.406224c0,0.0237559 -0.0107638,0.0429409 -0.0280984,0.057185 -0.0159606,0.0131181 -0.0379606,0.0217087 -0.0614764,0.0251969l0 1.1811e-005 -0.000377953 5.51181e-005 -9.05512e-005 0c-0.369874,0.0546299 -0.379697,0.0560827 -0.749484,-5.51181e-005 -0.0235,-0.00356299 -0.0455354,-0.0121732 -0.0615276,-0.0253071 -0.0173031,-0.0142165 -0.0280433,-0.0333425 -0.0280433,-0.0570866l0 -0.406224c0,-0.00292126 0.000224409,-0.00609055 0.000649606,-0.00949606 0.00251181,-0.0198031 0.0128071,-0.038622 0.0279606,-0.0522205 0.0146063,-0.0131102 0.0339055,-0.0216654 0.0550591,-0.0216654 0.00375984,0 0.00781496,0.000318898 0.0121693,0.000988189zm0.726311 0.0532362c-0.353417,0.0513937 -0.368984,0.0536575 -0.732669,-0.00251181 -0.00172047,-0.00026378 -0.00367323,-0.000393701 -0.00581102,-0.000393701 -0.01,0 -0.0190354,0.00396457 -0.0257992,0.0100394 -0.00622441,0.00557874 -0.010374,0.0126417 -0.0112441,0.0195433 -7.08661e-005,0.000570866 -0.000110236,0.00140157 -0.000110236,0.00248031l0 0.406224c0,0.00590945 0.00350394,0.0113543 0.00914567,0.0159882 0.00961024,0.00789764 0.0240236,0.013248 0.0400866,0.015685 0.363756,0.0552205 0.373449,0.0537992 0.73722,6.69291e-005l0 -1.1811e-005 0.00038189 -5.51181e-005 8.66142e-005 0c0.0159961,-0.0023622 0.0303465,-0.00769291 0.0399449,-0.0155827 0.00567323,-0.00466142 0.00920079,-0.0101496 0.00920079,-0.0160906l0 -0.406224c0,-0.0011811 -2.3622e-005,-0.00195669 -6.69291e-005,-0.00232283 -0.000818898,-0.00688583 -0.00497638,-0.0139567 -0.0112441,-0.0195709 -0.00683071,-0.00611811 -0.0160079,-0.0101063 -0.0262008,-0.0101063 -0.00221654,0 -0.00411417,0.000110236 -0.00563386,0.000330709l-0.0172874 0.00251181z"/>
    <line id="_298996344" class="fil13" x1="2.59297" y1="2.79872" x2="2.97084" y2= "2.87826" />
    <polygon id="_298997040" class="fil11" points="2.57946,2.7696 2.97511,2.85311 2.96657,2.90342 2.60776,2.82901 "/>
    <line id="_298996584" class="fil13" x1="4.22937" y1="2.81978" x2="3.8515" y2= "2.89932" />
    <polygon id="_298997016" class="fil11" points="4.21294,2.85184 3.85577,2.92448 3.84723,2.87416 4.23914,2.79446 "/>
    <path id="_298996968" class="fil0" d="M3.32722 0.853335c0.627209,0 1.19585,0.190661 1.19585,0.464441 0,0.27378 0.0441339,0.32398 -0.0137992,0.419118 -0.274429,-0.0724764 -0.734622,-0.0960157 -1.13845,-0.0960157 -0.403827,0 -0.875051,0.0370118 -1.14948,0.109488 -0.0579331,-0.0951378 0.0138228,-0.0285748 0.0138228,-0.302354 0,-0.27378 0.464846,-0.594677 1.09205,-0.594677z"/>
   </g>
   <g>
    <g>
     <polygon id="_298996440" class="fil14" points="1.564,2.5334 1.564,2.97133 1.34503,2.97133 1.34503,2.5334 "/>
     <path id="_298996752" class="fil14" d="M1.48039 1.12377c0.0987362,0 0.205587,0.180602 0.279339,0.402087 0.0656181,0.197067 0.119358,0.433921 0.119358,0.575898 0,0.205193 -0.0980197,0.288205 -0.195642,0.370878 -0.0420472,0.0356102 -0.0839961,0.0711417 -0.102126,0.115472 -0.0186693,0.0456535 -0.0438031,0.0762165 -0.073752,0.0938425 -0.0642559,0.0378504 -0.121457,0.0236496 -0.171122,-0.0312047 -0.0211811,-0.0233819 -0.0395512,-0.0562008 -0.0548268,-0.0953307 -0.0442835,-0.113406 -0.0787559,-0.317244 -0.0787559,-0.475035 0,-0.151839 0.0251378,-0.414461 0.0644606,-0.612693 0.038878,-0.19602 0.107685,-0.343913 0.213067,-0.343913z"/>
     <path id="_298995984" class="fil14" d="M1.45451 2.79832c0.052563,0 0.100295,0.0286969 0.134846,0.0749252 0.0345472,0.0462283 0.0559921,0.110094 0.0559921,0.180433l0 2.6643c0,0.0703425 -0.0214449,0.134205 -0.0559921,0.180433 -0.0345512,0.0462283 -0.0822835,0.0749252 -0.134846,0.0749252 -0.0525669,0 -0.100291,-0.0286969 -0.134843,-0.0749252 -0.0345472,-0.0462283 -0.0559921,-0.110091 -0.0559921,-0.180433l0 -2.6643c0,-0.0703386 0.0214449,-0.134205 0.0559921,-0.180433 0.0345512,-0.0462283 0.0822756,-0.0749252 0.134843,-0.0749252z"/>
    </g>
    <g>
     <polygon id="_298995960" class="fil15" points="1.45291,2.97133 1.34503,2.97133 1.34503,2.65168 1.45291,2.65168 "/>
     <path id="_298995744" class="fil15" d="M1.45291 2.70209c-0.0421299,0.00583071 -0.0807165,-0.0122795 -0.115602,-0.0504134l0.115602 0 0 0.0504134z"/>
     <path id="_298996176" class="fil15" d="M1.45291 5.97332c-0.0519331,-0.000574803 -0.0990394,-0.0291575 -0.133236,-0.0749134 -0.0345433,-0.0462283 -0.0559921,-0.110091 -0.0559921,-0.180433l0 -2.6643c0,-0.0703386 0.0214488,-0.134205 0.0559921,-0.180433 0.0341969,-0.0457559 0.0813031,-0.0743386 0.133236,-0.0749134l0 3.17499z"/>
    </g>
   </g>
  </g>
  <rect class="fil13" x="0.0364567" y="-0.00520866" width="6.82666" height="6.82666"/>
 </g>
</svg>
