<?xml version="1.0" encoding="UTF-8"?>
<!DOCTYPE svg PUBLIC "-//W3C//DTD SVG 1.1//EN" "http://www.w3.org/Graphics/SVG/1.1/DTD/svg11.dtd">
<!-- Creator: CorelDRAW -->
<svg xmlns="http://www.w3.org/2000/svg" xml:space="preserve" width="6.82666in" height="6.82666in" style="shape-rendering:geometricPrecision; text-rendering:geometricPrecision; image-rendering:optimizeQuality; fill-rule:evenodd; clip-rule:evenodd"
viewBox="0 0 6.82666 6.82666"
 xmlns:xlink="http://www.w3.org/1999/xlink">
 <defs>
  <style type="text/css">
   <![CDATA[
    .fil20 {fill:none}
    .fil13 {fill:none;fill-rule:nonzero}
    .fil8 {fill:#004D40}
    .fil5 {fill:#00796B}
    .fil0 {fill:#01579B}
    .fil19 {fill:#039BE5}
    .fil7 {fill:#26A69A}
    .fil14 {fill:#424242}
    .fil2 {fill:#A13F0F}
    .fil10 {fill:#A14A4A}
    .fil18 {fill:#D50000}
    .fil3 {fill:#DEC3B6}
    .fil9 {fill:#E35252}
    .fil4 {fill:#EDD0C2}
    .fil6 {fill:#FFA726}
    .fil15 {fill:#FFDDCC}
    .fil1 {fill:#FFE0B2}
    .fil11 {fill:white}
    .fil12 {fill:#004D40;fill-rule:nonzero}
    .fil17 {fill:#3B210F;fill-rule:nonzero}
    .fil16 {fill:#EDDDBC;fill-rule:nonzero}
   ]]>
  </style>
 </defs>
 <g id="Layer_x0020_1">
  <metadata id="CorelCorpID_0Corel-Layer"/>
  <rect class="fil0" x="0.851988" y="2.01974" width="2.80556" height="2.83335"/>
  <rect class="fil1" x="0.968654" y="2.1753" width="2.57223" height="2.52224"/>
  <g id="_298999632">
   <path id="_298995576" class="fil2" d="M4.29419 1.34628c0.378866,0.00645669 0.654547,0.0901575 0.893524,0.500075 0.123811,0.277587 0.305496,0.850693 0.0955669,1.6468 0.00224803,-0.155173 -0.0935945,-0.218264 -0.213201,-0.293957 0.0315787,0.0949055 0.145161,0.285736 0.155902,0.476091 0.00858268,0.152236 -0.067,0.296831 -0.166846,0.446228 -0.220665,0.330138 -1.13565,0.327303 -1.48531,-0.156547 -0.122213,-0.169067 -0.14498,-0.448157 -0.00439764,-0.657992 -0.17728,0.0786929 -0.166732,0.399209 -0.199169,0.330728 -0.049815,-0.069437 -0.145512,-0.299504 -0.157323,-0.639799 -0.0100984,-0.291161 0.0412008,-0.657925 0.235177,-1.08403 0.158882,-0.344807 0.455764,-0.574232 0.846083,-0.567602z"/>
   <path id="_298990776" class="fil3" d="M3.39062 2.31438c0.0637677,-0.0209843 0.144878,0.0513701 0.181217,0.16163 0.0363268,0.110283 0.0140551,0.216681 -0.0497205,0.237689 -0.0637717,0.0209882 -0.144874,-0.0513701 -0.181213,-0.161634 -0.0363071,-0.110252 -0.0140236,-0.216673 0.0497165,-0.237685z"/>
   <path id="_298982760" class="fil3" d="M5.2548 2.31438c-0.0637677,-0.0209843 -0.144913,0.0513701 -0.181217,0.16163 -0.0363031,0.110283 -0.0140551,0.216681 0.0497165,0.237689 0.0637756,0.0209882 0.144878,-0.0513701 0.181217,-0.161634 0.0363031,-0.110252 0.0140551,-0.216673 -0.0497165,-0.237685z"/>
   <path id="_298977960" class="fil4" d="M4.68038 2.92746l0 0.826441c-0.199106,0.243866 -0.524953,0.235417 -0.724035,0l0 -0.826441c0,-0.446264 0.724035,-0.446264 0.724035,0z"/>
   <path id="_299002728" class="fil5" d="M3.98108 3.579c-0.745559,0.326846 -0.969217,0.501134 -1.05762,0.579354 -0.136244,0.120551 -0.211598,0.569921 -0.291953,0.951488l1.68684 0 1.6868 0c-0.0803465,-0.381567 -0.155709,-0.830937 -0.291945,-0.951488 -0.088378,-0.0782205 -0.30385,-0.24802 -1.04943,-0.57487l-0.682693 -0.00448425z"/>
   <path id="_299001168" class="fil4" d="M3.8807 3.52339l-0.0375118 1.58646 0.948764 0 -0.0375354 -1.58646c-0.29122,0 -0.582472,0 -0.873717,0z"/>
   <path id="_299000976" class="fil6" d="M3.74945 3.97198c0.187638,0.139516 0.707299,0.230929 1.17403,0.0336654 -0.322531,0.426224 -0.211713,1.1042 -0.211713,1.1042l-0.659201 0c0,0 -0.0673346,-0.594165 -0.303118,-1.13787z"/>
   <path id="_299001696" class="fil7" d="M3.95634 3.33239l0 0.421512 0.157248 1.35595 -0.270398 0 -0.29748 -0.603941 0.283957 -0.189283 -0.347024 -0.162256c0,0 0.0728307,-0.569142 0.473697,-0.82198z"/>
   <path id="_299001000" class="fil3" d="M4.68035 2.92746l0 0.553315c-0.136969,0.0998504 -0.269028,0.155799 -0.362004,0.155799 -0.0929803,0 -0.225035,-0.0559488 -0.362008,-0.155799l0 -0.553315c0,-0.446264 0.724012,-0.446264 0.724012,0z"/>
   <path id="_299001552" class="fil7" d="M4.68035 3.33239l2.3622e-005 0.421512 -0.158819 1.35595 0.270398 0 0.297457 -0.603941 -0.283929 -0.189283 0.34702 -0.162256c0,0 -0.129421,-0.598232 -0.47215,-0.82198z"/>
   <path id="_299001408" class="fil4" d="M4.31835 1.44369c-1.21502,0 -0.778079,1.46811 -0.698709,1.58499 0.0875039,0.128858 0.502402,0.470472 0.698709,0.470472 0.196303,0 0.611169,-0.341614 0.698673,-0.470472 0.0794016,-0.116878 0.516346,-1.58499 -0.698673,-1.58499z"/>
   <path id="_299001120" class="fil2" d="M5.11003 2.69709c0,0 -0.0792795,-0.432815 -0.262067,-0.681031 -0.132425,0.29128 -0.263197,0.433917 -0.892236,0.582106 0.190417,-0.159744 0.279012,-0.399374 0.288075,-0.529106 -0.40726,0.112256 -0.658811,0.429736 -0.721681,0.644642 -0.190807,-0.332012 -0.0162126,-0.832531 0.115343,-1.02174 0.253906,-0.365157 0.875874,-0.453843 1.24733,-0.121791 0.257748,0.230429 0.363917,0.179197 0.225232,1.12693z"/>
   <path id="_299001096" class="fil8" d="M3.31894 5.10985l0.0577638 0c-0.00258268,-0.256886 -0.00258268,-0.442028 -0.00258268,-0.442028 0,0 -0.0255866,0.192413 -0.0551811,0.442028z"/>
   <path id="_299001480" class="fil8" d="M5.31776 5.10985l-0.0577953 0c0.00258268,-0.256886 0.00258268,-0.442028 0.00258268,-0.442028 0,0 0.0255866,0.192413 0.0552126,0.442028z"/>
   <path id="_299001384" class="fil9" d="M4.07003 3.0608c0.105035,-0.0768386 0.214669,-0.0313819 0.251315,-0.0313819 0.0366654,0 0.14024,-0.0454567 0.245295,0.0313819 -0.0522756,0.211276 -0.417512,0.216606 -0.49661,0z"/>
   <path id="_299000640" class="fil10" d="M4.07317 3.05968c0.0975118,-0.0343898 0.183701,0.0329488 0.245047,0.0329488 0.0613465,0 0.14776,-0.0904252 0.245268,-0.0295157 -0.114264,0.116476 -0.375276,0.110165 -0.490315,-0.00343307z"/>
   <path id="_299000472" class="fil11" d="M4.07002 3.05968c0.105055,-0.0433268 0.18235,-0.0119173 0.243701,-0.0119173 0.0613465,0 0.147874,-0.0314094 0.252929,0.0119173 -0.114264,0.0652441 -0.381575,0.0630551 -0.49663,0z"/>
   <path id="_299000376" class="fil9" d="M4.07053 3.06007c0.104555,-0.0758386 0.194343,-0.0232205 0.255579,-0.0232205 0.061252,0 0.134972,-0.0528898 0.240031,0.0239488 -0.000366142,0.00107087 -0.000822835,0.00211417 -0.0012126,0.00316535 -0.133921,-0.0023937 -0.353106,-0.00375591 -0.494398,-0.0038937z"/>
   <polygon id="_299000712" class="fil12" points="3.10209,4.53504 3.10209,4.53504 3.10493,4.53598 "/>
   <line id="_299000808" class="fil13" x1="5.26647" y1="4.29162" x2="5.26647" y2= "4.29162" />
   <line id="_299000568" class="fil13" x1="5.26552" y1="4.22807" x2="5.26553" y2= "4.22807" />
   <line id="_299000304" class="fil13" x1="5.33095" y1="4.3547" x2="5.33095" y2= "4.3547" />
   <line id="_299000760" class="fil13" x1="5.3945" y1="4.35375" x2="5.3945" y2= "4.35375" />
   <g>
    <path id="_299000520" class="fil14" d="M4.70781 2.45958c0.219059,-0.0148701 0.339024,0.0255669 0.361469,0.0339528 0.0270472,0.0101417 0.0208307,0.0833071 -0.0020748,0.0978819 -0.0229016,0.0145866 -0.0416181,0.0728819 -0.0957795,0.14576 -0.034815,0.0468583 -0.156717,0.0666929 -0.263614,0.0719921l0 -0.0204646c0.0873858,-0.00403937 0.178917,-0.0196732 0.218736,-0.0470748 0.0808071,-0.0556417 0.0885039,-0.174059 0.0291457,-0.229177 -0.031126,-0.0289449 -0.139626,-0.0370079 -0.247882,-0.0318504l0 -0.0210197zm-0.778933 0l0 0 0.00917717 0.00065748c0.224886,0.0166496 0.272791,0.0603819 0.295693,0.0583071 0.0267913,-0.00243307 0.0557362,-0.00609449 0.0830827,-0.00609449 0.0273425,0 0.0583031,0.00355512 0.0861339,0.00609449 0.0229016,0.0020748 0.0707795,-0.0416575 0.295665,-0.0583071l0.0091811 -0.00065748 0 0.0210197 -0.00111811 6.69291e-005c-0.10865,0.00527165 -0.250358,0.0304685 -0.278189,0.0927283 -0.0278031,0.062248 0.0251654,0.173524 0.102,0.201323 0.0348701,0.0126378 0.104654,0.0173071 0.177307,0.0139843l0 0.0204646c-0.0594252,0.00293307 -0.114169,0.00138583 -0.146811,-0.00252756 -0.0916024,-0.0109646 -0.160134,-0.121512 -0.17261,-0.154846 -0.0280945,-0.0748465 -0.111996,-0.0748465 -0.140067,0 -0.0125,0.0333346 -0.0810354,0.143882 -0.172634,0.154846 -0.0326457,0.00391339 -0.0873898,0.00546063 -0.146811,0.00252756l0 -0.0204646c0.0726772,0.00332283 0.142465,-0.00134646 0.177343,-0.0139843 0.0767953,-0.0277992 0.129803,-0.139075 0.101961,-0.201323 -0.0277992,-0.0622598 -0.169539,-0.0874567 -0.278157,-0.0927283l-0.00114567 -6.69291e-005 0 -0.0210197zm-0.361472 0.0339528l0 0c0.0224724,-0.00838583 0.142437,-0.0488228 0.361472,-0.0339528l0 0.0210197c-0.10822,-0.00519291 -0.216732,0.00293307 -0.247886,0.0318504 -0.0593307,0.0551181 -0.0516614,0.173535 0.0291457,0.229177 0.0398189,0.0274016 0.13135,0.0430354 0.21874,0.0470748l0 0.0204646c-0.106902,-0.00529921 -0.228803,-0.0251339 -0.263587,-0.0719921 -0.0541535,-0.072878 -0.0728819,-0.131173 -0.0957835,-0.14576 -0.0229291,-0.0145748 -0.0291496,-0.0877402 -0.00210236,-0.0978819z"/>
    <path id="_299000688" class="fil15" d="M3.68099 2.51245c0.0312598,-0.0290118 0.140421,-0.0370748 0.249031,-0.0317835 0.108618,0.00527165 0.250358,0.0304685 0.278157,0.0927283 0.0278425,0.062248 -0.0251654,0.173524 -0.101961,0.201323 -0.0768622,0.0278425 -0.323173,0.0171181 -0.396083,-0.0330906 -0.0808071,-0.0556417 -0.0884764,-0.174059 -0.0291457,-0.229177z"/>
    <path id="_299000880" class="fil15" d="M4.95569 2.51245c-0.0312205,-0.0290118 -0.140394,-0.0370748 -0.249,-0.0317835 -0.10865,0.00527165 -0.250358,0.0304685 -0.278189,0.0927283 -0.0278031,0.062248 0.0251654,0.173524 0.102,0.201323 0.0768228,0.0278425 0.323134,0.0171181 0.396043,-0.0330906 0.0808071,-0.0556417 0.0885039,-0.174059 0.0291457,-0.229177z"/>
   </g>
  </g>
  <g id="_299000160">
   <polygon id="_298999464" class="fil16" points="5.82677,5.12717 5.95376,5.32754 5.79062,5.4722 5.70519,5.50329 5.82677,5.72524 5.70519,5.93224 4.12382,5.91911 4.12461,5.53135 4.22017,5.5318 4.21383,5.15648 "/>
   <path id="_298999680" class="fil17" d="M4.11433 5.97114l0 -0.00150787 -0.0514606 0 -0.0771929 0 0 -0.102921 0.0771929 0 0 -0.257268 -0.0771929 0 0 -0.102921 0.0815354 0 0.00210236 -0.0857244 0.0975157 -0.00414567 0.00281102 -0.236075 -0.106772 0 0 -0.101063 0.335795 -0.447791 1.18649 0c0.0687913,0.108402 0.257409,0.415106 0.321079,0.496937 0.0365591,0.0469803 0.0690984,0.0993465 0.0690984,0.163472 0,0.126894 -0.10265,0.230035 -0.229283,0.231327 0.0852126,0.0342008 0.145681,0.117327 0.145681,0.214634 0,0.141382 -0.111717,0.233047 -0.248917,0.233047l-1.52848 0zm1.75812 -0.679008l0 0c0,-0.0479843 -0.0267126,-0.0894449 -0.065748,-0.111535l-1.5337 0 0 0.240201 1.47079 0c0.0709252,0 0.128657,-0.0577559 0.128657,-0.128665zm-0.21228 0.317311l0 0 -0.0514488 0 -1.44294 0 0 0.257268 1.44294 0 0.0514488 0c0.0709331,0 0.128654,-0.0577126 0.128654,-0.128618 0,-0.0709803 -0.0577205,-0.12865 -0.128654,-0.12865z"/>
  </g>
  <path class="fil8" d="M2.0702 3.37693l0 0.13376 0.0934449 0c0.0364685,0 0.0595394,-0.000929134 0.0693268,-0.0030315 0.0150315,-0.00267717 0.0272638,-0.00943701 0.0367008,-0.0199252 0.00944094,-0.0106024 0.0142165,-0.024815 0.0142165,-0.0425276 0,-0.0150315 -0.00372835,-0.0277283 -0.0109567,-0.0382165 -0.00733858,-0.0104843 -0.0178228,-0.0181732 -0.0315748,-0.0229488 -0.0137441,-0.00477953 -0.0436929,-0.00711024 -0.0895984,-0.00711024l-0.0815591 0zm0 -0.199012l0 0.115701 0.0661772 0c0.0393858,0 0.0638543,-0.000582677 0.0734055,-0.00174803 0.017248,-0.00197638 0.030878,-0.00792126 0.0407795,-0.0178228 0.00990551,-0.00990551 0.0147992,-0.0229567 0.0147992,-0.0391535 0,-0.0154961 -0.00419291,-0.0280787 -0.0126969,-0.037748 -0.00862598,-0.00967323 -0.0213228,-0.0154961 -0.0381063,-0.0174764 -0.0100197,-0.00116929 -0.0387953,-0.00175197 -0.0863346,-0.00175197l-0.0580236 0zm-0.101142 -0.0833071l0.200063 0c0.0396142,0 0.0692087,0.00163386 0.0886693,0.00500787 0.0194567,0.00326378 0.0368189,0.0101378 0.0522008,0.020626 0.015374,0.0104843 0.0280787,0.0243504 0.0383307,0.0418268 0.010252,0.0173622 0.0153819,0.036937 0.0153819,0.0584921 0,0.0234213 -0.00629134,0.0449764 -0.018878,0.0645512 -0.0127008,0.0195709 -0.0298268,0.0342559 -0.0513858,0.0440433 0.0304134,0.00885433 0.0539488,0.0240039 0.0702638,0.0453268 0.0164252,0.021437 0.0245827,0.0466063 0.0245827,0.0755 0,0.0227244 -0.00524409,0.0448583 -0.0158465,0.0664134 -0.0106063,0.0214409 -0.0250512,0.038685 -0.0433425,0.0515039 -0.0182913,0.012815 -0.0409016,0.0207362 -0.067815,0.0237638 -0.0167756,0.00175197 -0.0574409,0.00291732 -0.121874,0.00338189l-0.17035 0 0 -0.500437z"/>
  <path class="fil18" d="M1.71971 2.79667l-0.0689764 -0.185724 -0.0675787 0.185724 0.136555 0zm0.186071 0.197957l-0.109988 0 -0.0436929 -0.113717 -0.200055 0 -0.0412441 0.113717 -0.107197 0 0.194933 -0.500429 0.106843 0 0.200402 0.500429z"/>
  <path class="fil19" d="M2.68895 4.01948l0.097878 0.0309921c-0.0150315,0.0546496 -0.0399685,0.0951969 -0.0749252,0.12176 -0.0348346,0.0264528 -0.0792283,0.0397323 -0.132941,0.0397323 -0.0664173,0 -0.121059,-0.0227205 -0.163823,-0.0680472 -0.0427598,-0.045437 -0.0642008,-0.107539 -0.0642008,-0.186189 0,-0.083311 0.0215591,-0.147976 0.0645512,-0.194114 0.0429921,-0.0460276 0.0995039,-0.0690984 0.169646,-0.0690984 0.0611732,0 0.110921,0.018063 0.149142,0.0542992 0.0228386,0.0213228 0.0398465,0.0520827 0.0512638,0.0921614l-0.100087 0.0238858c-0.00582283,-0.0259803 -0.0181732,-0.0464882 -0.0370512,-0.0615197 -0.0187559,-0.0150315 -0.0415945,-0.0224882 -0.0683937,-0.0224882 -0.0370512,0 -0.0672323,0.0132835 -0.0902992,0.0399685 -0.0230709,0.026563 -0.0346063,0.0696732 -0.0346063,0.129331 0,0.0632677 0.0113031,0.108358 0.0341417,0.135157 0.0227165,0.0269134 0.052315,0.040315 0.0886693,0.040315 0.0269134,0 0.0499803,-0.00850394 0.0693228,-0.0256339 0.0193425,-0.0170079 0.0332087,-0.0439252 0.0417126,-0.0805118z"/>
  <rect class="fil20" x="0.0364567" y="-0.00520866" width="6.82666" height="6.82666"/>
 </g>
</svg>
