<?xml version="1.0" encoding="UTF-8"?>
<!DOCTYPE svg PUBLIC "-//W3C//DTD SVG 1.1//EN" "http://www.w3.org/Graphics/SVG/1.1/DTD/svg11.dtd">
<!-- Creator: CorelDRAW -->
<svg xmlns="http://www.w3.org/2000/svg" xml:space="preserve" width="6.82666in" height="6.82666in" style="shape-rendering:geometricPrecision; text-rendering:geometricPrecision; image-rendering:optimizeQuality; fill-rule:evenodd; clip-rule:evenodd"
viewBox="0 0 6.82666 6.82666"
 xmlns:xlink="http://www.w3.org/1999/xlink">
 <defs>
  <style type="text/css">
   <![CDATA[
    .fil17 {fill:none}
    .fil11 {fill:#004D40}
    .fil8 {fill:#00796B}
    .fil16 {fill:#00897B}
    .fil0 {fill:#01579B}
    .fil6 {fill:#212121}
    .fil4 {fill:#4DB6AC}
    .fil7 {fill:#B5755C}
    .fil15 {fill:#D50000}
    .fil9 {fill:#E7F7FF}
    .fil5 {fill:#EBCFC1}
    .fil2 {fill:#EDCAB9}
    .fil12 {fill:#FAFAFA}
    .fil3 {fill:#FFDDCC}
    .fil1 {fill:#FFE0B2}
    .fil10 {fill:white}
    .fil14 {fill:#3B210F;fill-rule:nonzero}
    .fil13 {fill:#EDDDBC;fill-rule:nonzero}
   ]]>
  </style>
 </defs>
 <g id="Layer_x0020_1">
  <metadata id="CorelCorpID_0Corel-Layer"/>
  <g id="_300317688">
   <rect id="_300320952" class="fil0" x="0.851988" y="2.01974" width="2.80556" height="2.83335"/>
   <rect id="_300320928" class="fil1" x="0.968654" y="2.1753" width="2.57223" height="2.52224"/>
   <path id="_300321168" class="fil2" d="M3.15044 2.60284c0.063252,-0.0208543 0.14376,0.0509449 0.179783,0.160382 0.0360591,0.109409 0.0139803,0.215004 -0.0493228,0.235858 -0.0632598,0.0208268 -0.143768,-0.0509724 -0.179795,-0.160413 -0.0360236,-0.109406 -0.0139449,-0.215008 0.0493346,-0.235827z"/>
   <path id="_300320760" class="fil2" d="M5.00021 2.60284c-0.0632835,-0.0208543 -0.14376,0.0509764 -0.179819,0.160382 -0.0360236,0.109409 -0.0139449,0.215004 0.0493346,0.235827 0.0632756,0.0208583 0.143791,-0.0509409 0.179815,-0.160382 0.0360276,-0.109406 0.0139409,-0.215008 -0.0493307,-0.235827z"/>
   <path id="_300321192" class="fil3" d="M3.73148 3.76492c-0.739799,0.324327 -0.961744,0.497232 -1.04946,0.574882 -0.135193,0.11963 -0.209969,0.565535 -0.289701,0.94415l1.67382 0 1.6738 0c-0.0797323,-0.378614 -0.154516,-0.82452 -0.289701,-0.94415 -0.0877244,-0.0776496 -0.301531,-0.246094 -1.04134,-0.570465l-0.677421 -0.00441732z"/>
   <path id="_300320112" class="fil4" d="M3.73148 3.76492c-0.739831,0.324327 -0.961744,0.497232 -1.04946,0.574882 -0.135193,0.11963 -0.209969,0.565535 -0.289724,0.94415l1.67385 0 1.6738 0c-0.0797323,-0.378614 -0.154516,-0.82452 -0.289701,-0.94415 -0.0877244,-0.0776496 -0.301531,-0.246094 -1.04134,-0.570465l-0.677421 -0.00441732z"/>
   <path id="_300319896" class="fil3" d="M4.42533 3.11839l0 0.820067c-0.197579,0.241984 -0.520854,0.233602 -0.718433,0l0 -0.820067c0,-0.442819 0.718433,-0.442819 0.718433,0z"/>
   <path id="_300319872" class="fil5" d="M4.42533 3.11839l0 0.549051c-0.135913,0.0990866 -0.266929,0.154594 -0.359189,0.154594 -0.0922598,0 -0.223299,-0.0555079 -0.359244,-0.154594l0 -0.549051c0,-0.442819 0.718433,-0.442819 0.718433,0z"/>
   <path id="_300319800" class="fil3" d="M4.06614 1.64607c-1.20565,0 -0.772075,1.45679 -0.693319,1.57274 0.0868386,0.12789 0.498496,0.466843 0.693319,0.466843 0.194768,0 0.606457,-0.338953 0.693287,-0.466843 0.0787559,-0.115953 0.512327,-1.57274 -0.693287,-1.57274z"/>
   <path id="_300320352" class="fil6" d="M4.08431 2.09887c-0.373126,0.00186614 -0.737827,-0.0540276 -0.809012,0.763406 -0.181035,-0.639339 0.0664252,-1.32539 0.779315,-1.31952 0.737854,0.00606693 1.00412,0.685189 0.800327,1.32026 -0.166031,-0.876827 -0.433244,-0.765819 -0.77063,-0.764146z"/>
   <path id="_300320016" class="fil7" d="M3.72436 3.19029c0.230339,0.115469 0.490539,0.104224 0.674783,0 -0.0387362,0.159374 -0.189287,0.222866 -0.340094,0.221705 -0.119417,0.00987402 -0.284602,-0.0687953 -0.334689,-0.221705z"/>
   <polygon id="_300319968" class="fil8" points="3.67282,3.75614 3.41803,3.89401 3.78747,4.40611 4.06776,4.14022 "/>
   <polygon id="_300320256" class="fil8" points="4.46269,3.75614 4.71748,3.89401 4.34804,4.40611 4.06776,4.14022 "/>
   <path id="_300320232" class="fil9" d="M3.91166 4.2832l0.0869961 0.134776c0.0449646,0 0.0899488,0 0.134969,0l0.0869764 -0.134776 -0.152843 -0.146717 -0.156098 0.146717z"/>
   <polygon id="_300320208" class="fil10" points="3.99865,4.41798 3.87477,5.28395 4.25748,5.28395 4.13362,4.41798 "/>
   <path id="_300319536" class="fil11" d="M3.07441 5.28395l0.0573504 0c-0.00256299,-0.254894 -0.00256299,-0.438606 -0.00256299,-0.438606 0,0 -0.0253819,0.190917 -0.0547874,0.438606z"/>
   <path id="_300319296" class="fil12" d="M5.05781 5.28395l-0.0573504 0c0.00256299,-0.254894 0.00258661,-0.438606 0.00258661,-0.438606 0,0 0.0253898,0.190917 0.0547638,0.438606z"/>
   <g>
    <polygon id="_300319320" class="fil13" points="5.82677,5.12717 5.95376,5.32754 5.79062,5.4722 5.70519,5.50329 5.82677,5.72524 5.70519,5.93224 4.12382,5.91911 4.12461,5.53135 4.22017,5.5318 4.21383,5.15648 "/>
    <path id="_300319008" class="fil14" d="M4.11433 5.97114l0 -0.00150787 -0.0514606 0 -0.0771929 0 0 -0.102921 0.0771929 0 0 -0.257268 -0.0771929 0 0 -0.102921 0.0815354 0 0.00210236 -0.0857244 0.0975157 -0.00414567 0.00281102 -0.236075 -0.106772 0 0 -0.101063 0.335795 -0.447791 1.18649 0c0.0687913,0.108402 0.257409,0.415106 0.321079,0.496937 0.0365591,0.0469803 0.0690984,0.0993465 0.0690984,0.163472 0,0.126894 -0.10265,0.230035 -0.229283,0.231327 0.0852126,0.0342008 0.145681,0.117327 0.145681,0.214634 0,0.141382 -0.111717,0.233047 -0.248917,0.233047l-1.52848 0zm1.75812 -0.679008l0 0c0,-0.0479843 -0.0267126,-0.0894449 -0.065748,-0.111535l-1.5337 0 0 0.240201 1.47079 0c0.0709252,0 0.128657,-0.0577559 0.128657,-0.128665zm-0.21228 0.317311l0 0 -0.0514488 0 -1.44294 0 0 0.257268 1.44294 0 0.0514488 0c0.0709331,0 0.128654,-0.0577126 0.128654,-0.128618 0,-0.0709803 -0.0577205,-0.12865 -0.128654,-0.12865z"/>
   </g>
   <path id="_300319704" class="fil15" d="M1.94593 2.96959l-0.0928189 0 0 -0.349957c-0.0339488,0.0318031 -0.0738701,0.0552638 -0.119886,0.070374l0 -0.084248c0.0241339,-0.0078937 0.0505236,-0.0228937 0.0789449,-0.0449961 0.0284213,-0.0222205 0.0479331,-0.0480472 0.0584213,-0.0775945l0.0753386 0 0 0.486421z"/>
   <path id="_300319632" class="fil15" d="M1.94593 3.52436l0 0.0862756 -0.325484 0c0.00361024,-0.0325945 0.0140984,-0.0634961 0.0318031,-0.0927047 0.0175945,-0.0292126 0.0524449,-0.0678937 0.104323,-0.116165 0.0419567,-0.0389094 0.0675551,-0.0654094 0.0770315,-0.0792835 0.0127441,-0.0191732 0.0191693,-0.0381181 0.0191693,-0.0568425 0,-0.0206378 -0.00552362,-0.0365394 -0.016689,-0.0477047 -0.0111654,-0.0111654 -0.0265039,-0.0166929 -0.0461299,-0.0166929 -0.0193976,0 -0.0347362,0.00586614 -0.0462362,0.0174843 -0.0113937,0.0117283 -0.0180472,0.031126 -0.0198504,0.0581929l-0.0924803 -0.00924803c0.00552756,-0.0510906 0.0227795,-0.0877441 0.051878,-0.110075 0.0290984,-0.0222165 0.0654134,-0.0333819 0.109059,-0.0333819 0.0478189,0 0.085374,0.0129685 0.112669,0.038685 0.0272913,0.0258268 0.040937,0.0578543 0.040937,0.0962008 0,0.0217677 -0.00394882,0.0425197 -0.0117283,0.0622559 -0.00778346,0.0197362 -0.020189,0.040374 -0.0371063,0.0619134 -0.0112756,0.0143228 -0.0315787,0.0349646 -0.0607874,0.0618031 -0.0293228,0.0268425 -0.0479331,0.0447756 -0.0557126,0.0535709 -0.00778346,0.00879921 -0.0142126,0.0173701 -0.0190591,0.0257165l0.184394 0z"/>
   <path id="_300318216" class="fil15" d="M1.62417 4.23803l0.0897717 -0.0108268c0.00293307,0.0228976 0.0106024,0.040378 0.0232323,0.0524449 0.0125197,0.0121811 0.0277441,0.0182677 0.0455669,0.0182677 0.0191693,0 0.0352992,-0.00733071 0.0483819,-0.021878 0.0130827,-0.0145472 0.019622,-0.0340591 0.019622,-0.0587598 0,-0.0233425 -0.00620079,-0.0418386 -0.0188346,-0.0554843 -0.0125157,-0.0137598 -0.0278543,-0.0205276 -0.0459016,-0.0205276 -0.0118425,0 -0.0260512,0.00225591 -0.0426299,0.00687795l0.0102638 -0.075563c0.0251496,0.000566929 0.0443228,-0.00484646 0.0575157,-0.0163504 0.0131969,-0.0116181 0.0198504,-0.0269567 0.0198504,-0.0461299 0,-0.0163504 -0.00485039,-0.0293228 -0.0145472,-0.0390197 -0.00970079,-0.00970079 -0.0226693,-0.0145472 -0.038685,-0.0145472 -0.0159016,0 -0.029437,0.00552362 -0.0406024,0.0165787 -0.0112756,0.010937 -0.0181575,0.0270669 -0.0205236,0.0481535l-0.0856024 -0.0144331c0.00598031,-0.0293228 0.0148898,-0.0527835 0.0269567,-0.0702638 0.0119528,-0.0174803 0.0287598,-0.0312402 0.050185,-0.0412756 0.0215433,-0.0100394 0.045563,-0.0151142 0.0721811,-0.0151142 0.0456772,0 0.0822165,0.0145472 0.109736,0.0436457 0.0226693,0.0237953 0.0340591,0.0506378 0.0340591,0.0806378 0,0.0425197 -0.0232323,0.0764646 -0.0696969,0.101728 0.0277402,0.00597638 0.0498465,0.0192835 0.0665394,0.0400354 0.0165787,0.0206417 0.0249252,0.0456772 0.0249252,0.075 0,0.0425197 -0.0155669,0.0787205 -0.0465787,0.10872 -0.0310157,0.0298858 -0.0697008,0.0448858 -0.115941,0.0448858 -0.0438701,0 -0.080185,-0.0126299 -0.109055,-0.0377795 -0.028874,-0.0252638 -0.045563,-0.0581969 -0.050189,-0.0990236z"/>
   <polygon id="_300318840" class="fil16" points="2.05599,4.24367 2.05599,4.15807 2.39467,4.15807 2.39467,4.24367 "/>
   <polygon id="_300318744" class="fil16" points="2.05599,4.09694 2.05599,4.0118 2.39467,4.0118 2.39467,4.09694 "/>
   <polygon id="_300318936" class="fil16" points="1.41,3.70983 2.58334,3.70983 2.58334,3.76317 2.58334,3.8165 1.41,3.8165 1.41,3.76317 1.41,3.75923 "/>
   <polygon id="_300318624" class="fil16" points="2.18287,3.5495 2.18287,3.42364 2.05599,3.42364 2.05599,3.33669 2.18287,3.33669 2.18287,3.21082 2.26745,3.21082 2.26745,3.33669 2.39467,3.33669 2.39467,3.42364 2.26745,3.42364 2.26745,3.5495 "/>
   <g>
    <path id="_300318336" class="fil11" d="M4.45558 2.60194c0.219059,-0.0148701 0.339024,0.0255669 0.361469,0.0339528 0.0270472,0.0101417 0.0208307,0.0833071 -0.0020748,0.0978819 -0.0229016,0.0145866 -0.0416181,0.0728819 -0.0957795,0.14576 -0.034815,0.0468583 -0.156717,0.0666929 -0.263614,0.0719921l0 -0.0204646c0.0873858,-0.00403937 0.178917,-0.0196732 0.218736,-0.0470748 0.0808071,-0.0556417 0.0885039,-0.174059 0.0291457,-0.229177 -0.031126,-0.0289449 -0.139626,-0.0370079 -0.247882,-0.0318504l0 -0.0210197zm-0.778933 0l0 0 0.00917717 0.00065748c0.224886,0.0166496 0.272791,0.0603819 0.295693,0.0583071 0.0267913,-0.00243307 0.0557362,-0.00609449 0.0830827,-0.00609449 0.0273425,0 0.0583031,0.00355512 0.0861339,0.00609449 0.0229016,0.0020748 0.0707795,-0.0416575 0.295665,-0.0583071l0.0091811 -0.00065748 0 0.0210197 -0.00111811 6.69291e-005c-0.10865,0.00527165 -0.250358,0.0304685 -0.278189,0.0927283 -0.0278031,0.062248 0.0251654,0.173524 0.102,0.201323 0.0348701,0.0126378 0.104654,0.0173071 0.177307,0.0139843l0 0.0204646c-0.0594252,0.00293307 -0.114169,0.00138583 -0.146811,-0.00252756 -0.0916024,-0.0109646 -0.160134,-0.121512 -0.17261,-0.154846 -0.0280945,-0.0748465 -0.111996,-0.0748465 -0.140067,0 -0.0125,0.0333346 -0.0810354,0.143882 -0.172634,0.154846 -0.0326457,0.00391339 -0.0873898,0.00546063 -0.146811,0.00252756l0 -0.0204646c0.0726772,0.00332283 0.142465,-0.00134646 0.177343,-0.0139843 0.0767953,-0.0277992 0.129803,-0.139075 0.101961,-0.201323 -0.0277992,-0.0622598 -0.169539,-0.0874567 -0.278157,-0.0927283l-0.00114567 -6.69291e-005 0 -0.0210197zm-0.361472 0.0339528l0 0c0.0224724,-0.00838583 0.142437,-0.0488228 0.361472,-0.0339528l0 0.0210197c-0.10822,-0.00519291 -0.216732,0.00293307 -0.247886,0.0318504 -0.0593307,0.0551181 -0.0516614,0.173535 0.0291457,0.229177 0.0398189,0.0274016 0.13135,0.0430354 0.21874,0.0470748l0 0.0204646c-0.106902,-0.00529921 -0.228803,-0.0251339 -0.263587,-0.0719921 -0.0541535,-0.072878 -0.0728819,-0.131173 -0.0957835,-0.14576 -0.0229291,-0.0145748 -0.0291496,-0.0877402 -0.00210236,-0.0978819z"/>
    <path id="_300318000" class="fil3" d="M3.42876 2.65481c0.0312598,-0.0290118 0.140421,-0.0370748 0.249031,-0.0317835 0.108618,0.00527165 0.250358,0.0304685 0.278157,0.0927283 0.0278425,0.062248 -0.0251654,0.173524 -0.101961,0.201323 -0.0768622,0.0278425 -0.323173,0.0171181 -0.396083,-0.0330906 -0.0808071,-0.0556417 -0.0884764,-0.174059 -0.0291457,-0.229177z"/>
    <path id="_300317784" class="fil3" d="M4.70346 2.65481c-0.0312205,-0.0290118 -0.140394,-0.0370748 -0.249,-0.0317835 -0.10865,0.00527165 -0.250358,0.0304685 -0.278189,0.0927283 -0.0278031,0.062248 0.0251654,0.173524 0.102,0.201323 0.0768228,0.0278425 0.323134,0.0171181 0.396043,-0.0330906 0.0808071,-0.0556417 0.0885039,-0.174059 0.0291457,-0.229177z"/>
   </g>
  </g>
  <rect class="fil17" x="0.0364567" y="-0.00520866" width="6.82666" height="6.82666"/>
 </g>
</svg>
