<?xml version="1.0" encoding="UTF-8"?>
<!DOCTYPE svg PUBLIC "-//W3C//DTD SVG 1.1//EN" "http://www.w3.org/Graphics/SVG/1.1/DTD/svg11.dtd">
<!-- Creator: CorelDRAW -->
<svg xmlns="http://www.w3.org/2000/svg" xml:space="preserve" width="6.82666in" height="6.82666in" style="shape-rendering:geometricPrecision; text-rendering:geometricPrecision; image-rendering:optimizeQuality; fill-rule:evenodd; clip-rule:evenodd"
viewBox="0 0 6.82666 6.82666"
 xmlns:xlink="http://www.w3.org/1999/xlink">
 <defs>
  <style type="text/css">
   <![CDATA[
    .fil20 {fill:none}
    .fil14 {fill:#003A66}
    .fil9 {fill:#0288D1}
    .fil15 {fill:#212121}
    .fil11 {fill:#29B6F6}
    .fil10 {fill:#B2FF59}
    .fil19 {fill:#D4B2A1}
    .fil17 {fill:#D50000}
    .fil13 {fill:#003A66;fill-rule:nonzero}
    .fil5 {fill:#0091EA;fill-rule:nonzero}
    .fil16 {fill:#01579B;fill-rule:nonzero}
    .fil4 {fill:#161313;fill-rule:nonzero}
    .fil8 {fill:#29B6F6;fill-rule:nonzero}
    .fil7 {fill:#40C4FF;fill-rule:nonzero}
    .fil3 {fill:#424242;fill-rule:nonzero}
    .fil6 {fill:#B2FF59;fill-rule:nonzero}
    .fil0 {fill:#E6C7B8;fill-rule:nonzero}
    .fil1 {fill:#FFDDCC;fill-rule:nonzero}
    .fil18 {fill:#FFEBEE;fill-rule:nonzero}
    .fil2 {fill:black;fill-rule:nonzero;fill-opacity:0.050980}
    .fil12 {fill:black;fill-rule:nonzero;fill-opacity:0.101961}
   ]]>
  </style>
 </defs>
 <g id="Layer_x0020_1">
  <metadata id="CorelCorpID_0Corel-Layer"/>
  <g id="_300321912">
   <g>
    <g>
     <path id="_300325248" class="fil0" d="M3.00975 2.92352c0.0379409,0.182291 -0.00740157,0.345913 -0.101224,0.365449 -0.0938465,0.0195315 -0.200673,-0.112449 -0.238583,-0.294756 -0.0379094,-0.182307 0.0073622,-0.345937 0.101256,-0.365445 0.093815,-0.0195276 0.200594,0.112445 0.238551,0.294752z"/>
     <path id="_300325704" class="fil0" d="M4.52246 2.92352c-0.0379291,0.182291 0.00741339,0.345913 0.101228,0.365449 0.0938425,0.0195315 0.200673,-0.112449 0.238559,-0.294756 0.0380039,-0.182307 -0.00733858,-0.345937 -0.101232,-0.365445 -0.093815,-0.0195276 -0.200594,0.112445 -0.238555,0.294752z"/>
     <path id="_300325584" class="fil1" d="M4.54648 4.34296c-0.152469,-0.0207874 -0.272988,-0.157673 -0.292315,-0.331921l-0.067937 -0.614051 -0.840209 0 -0.0679685 0.614051c-0.0192717,0.174248 -0.139795,0.311134 -0.292264,0.331921 -0.196071,0.026748 0.294295,0.398768 0.780331,0.398909 0.491449,0.000149606 0.978594,-0.37187 0.780362,-0.398909z"/>
     <path id="_300325728" class="fil2" d="M3.35455 4.09514c0.14587,0.127 0.219287,0.197083 0.412697,0.197083 0.191992,0 0.26311,-0.0691181 0.408047,-0.19498 0.0257283,-0.0223386 0.0527244,-0.0483504 0.0802677,-0.0769961 -0.000417323,-0.00309449 -0.00102756,-0.00609055 -0.00139764,-0.00920079l-0.067937 -0.614051 -0.840209 0 -0.0679685 0.614051c-0.000338583,0.00314567 -0.000948819,0.00617717 -0.00138976,0.00930709 0.0267047,0.0277205 0.0528937,0.053 0.0778898,0.0747874z"/>
     <path id="_300324504" class="fil1" d="M4.66583 2.32256c-0.00751181,-0.491264 -0.407756,-0.88587 -0.899075,-0.88587l-0.000271654 0c-0.492106,0 -0.892618,0.394744 -0.900122,0.886772 -0.0053622,0.352516 -0.0103031,0.675874 -0.0103031,0.675917 0,0.344319 0.289406,0.751602 0.498469,0.933654 0.145858,0.12702 0.21928,0.197102 0.412669,0.197102 0.191988,0 0.263087,-0.0691299 0.408067,-0.194972 0.209504,-0.181913 0.500909,-0.590118 0.500909,-0.935783 0,-4.33071e-005 -0.00493307,-0.323957 -0.0103425,-0.676819z"/>
     <path id="_300324792" class="fil3" d="M3.77779 1.87407c0.203165,0.0181102 0.541681,-0.086815 0.749886,0.330642 0.0826614,0.165839 0.103343,0.434563 0.118795,0.46902 0.075315,-0.0723189 0.133492,-0.0510827 0.184744,0.00772441 -0.0478425,-0.708283 -0.0600669,-1.26851 -1.06507,-1.30638 -0.743016,-0.0280039 -1.00564,0.426035 -1.04276,0.974626l-0.0269409 0.33911c0.0814213,-0.0752795 0.144071,-0.0541378 0.187996,0.0153701 0.11861,-0.382594 -0.067748,-0.915693 0.89335,-0.83011z"/>
     <path id="_300324816" class="fil4" d="M4.18175 1.87651c0,0.0895984 -0.185067,0.162217 -0.413327,0.162217 -0.22826,0 -0.413307,-0.0726181 -0.413307,-0.162217 0,-0.0895709 0.185047,-0.162201 0.413307,-0.162201 0.22826,0 0.413327,0.0726299 0.413327,0.162201z"/>
     <path id="_300324936" class="fil4" d="M2.77382 2.03872c0,0 0.135587,-0.729823 0.443528,-0.664886 0,0 0.280752,-0.396709 0.991307,0.0691378 0,0 0.183768,-0.0285039 0.402614,0.10115 0.218795,0.129681 0.182378,0.703386 0.182378,0.703386 0,0 -0.454488,-0.598028 -1.02755,-0.598028 -0.573035,0 -0.99228,0.38924 -0.99228,0.38924z"/>
     <path id="_300325056" class="fil3" d="M2.82028 2.62685c0,0 0.119323,0.171028 0.147571,0.440362l0.0698622 -0.0890079c-0.00405906,-0.126571 -0.0985945,-0.524012 -0.0751142,-0.667516l-0.142319 0.316161z"/>
     <path id="_300324912" class="fil3" d="M4.67493 2.64164c0,0 -0.100425,0.0724843 -0.103236,0.34326l-0.0802323 0.0136142c-0.00777559,-0.126394 0.102248,-0.583764 0.065311,-0.724417l0.118157 0.367543z"/>
     <path id="_300324960" class="fil5" d="M4.54648 4.34296c-0.124752,-0.0170118 -0.227969,-0.111732 -0.272039,-0.241024l-0.508291 0.384236 -0.508343 -0.384236c-0.0440315,0.129291 -0.147287,0.224012 -0.27202,0.241024 -0.231122,0.0315118 -1.03418,0.128252 -1.14912,0.263406 -0.185394,0.217988 -0.250031,0.535961 -0.291646,0.841488 -0.00214173,0.0157441 -0.018315,0.452008 -0.0226339,0.535764l4.44856 0c-0.0108976,-0.0980354 -0.0568976,-0.522327 -0.0591181,-0.538591 -0.0407244,-0.298051 -0.10365,-0.607646 -0.279433,-0.824413 -0.115622,-0.142591 -0.84678,-0.245047 -1.08592,-0.277654z"/>
     <path id="_300324984" class="fil6" d="M2.98565 4.34298c-0.231295,0.0315276 -1.03406,0.12826 -1.14898,0.263386 -0.185394,0.217988 -0.250031,0.535961 -0.291646,0.841488 -0.00214173,0.0157441 -0.018315,0.452008 -0.0226339,0.535764l1.60446 0c0.034126,-0.700913 0.0735157,-1.23529 -0.141197,-1.64064z"/>
     <path id="_300324240" class="fil6" d="M4.50769 4.34298c0.231295,0.0315276 1.03406,0.12826 1.14898,0.263386 0.185394,0.217988 0.250031,0.535961 0.291646,0.841488 0.00214173,0.0157441 0.018315,0.452008 0.0226339,0.535764l-1.60446 0c-0.034126,-0.700913 -0.0735157,-1.23529 0.141197,-1.64064z"/>
     <polygon id="_300324168" class="fil7" points="3.60132,5.98362 3.64199,4.4953 3.8513,4.4953 3.89201,5.98362 "/>
     <path id="_300323616" class="fil8" d="M4.99315 1.91499c0.0462244,0.0388071 0.0712323,0.0800079 0.0712323,0.121386 0,0.107126 -0.19735,0.25063 -0.507437,0.340091 -0.21724,0.0626732 -0.495567,0.109492 -0.797445,0.109492 -0.301878,0 -0.580205,-0.0468189 -0.797445,-0.109492 -0.310091,-0.0894606 -0.507441,-0.232965 -0.507441,-0.340091 0,-0.041378 0.0250118,-0.0825787 0.0712323,-0.121386l2.4673 0z"/>
     <rect id="_300324072" class="fil9" x="2.52575" y="1.75618" width="2.4675" height="0.159686"/>
     <rect id="_300324312" class="fil10" x="2.52575" y="1.84353" width="2.4675" height="0.0723298"/>
     <path id="_300323232" class="fil11" d="M3.75163 0.843039l1.01773 0.343957 0.356579 0.41061c0.0682126,0.136043 -0.0226063,0.173594 -0.134177,0.173594l-2.46942 0c-0.113248,0 -0.17576,-0.0562087 -0.14502,-0.173594l0.412012 -0.465819 0.962295 -0.288748z"/>
     <polygon id="_300323112" class="fil12" points="3.98137,4.96803 3.7661,4.48618 4.27444,4.20323 4.54643,4.34296 "/>
     <polygon id="_300322848" class="fil12" points="3.55087,4.96803 3.7661,4.48618 3.25781,4.20323 2.98579,4.34296 "/>
     <polygon id="_300323376" class="fil13" points="3.98137,4.86675 3.7661,4.48618 4.27444,4.10194 4.54643,4.34296 "/>
     <polygon id="_300322944" class="fil13" points="3.55082,4.86675 3.7661,4.48618 3.25781,4.10194 2.98579,4.34296 "/>
     <g>
      <circle id="_300322824" class="fil14" cx="3.74667" cy="4.82488" r="0.0645827"/>
      <circle id="_300322920" class="fil14" cx="3.74667" cy="5.23946" r="0.0645827"/>
      <circle id="_300322896" class="fil14" cx="3.74667" cy="5.65404" r="0.0645827"/>
     </g>
     <g>
      <rect id="_300322800" class="fil10" x="4.01349" y="1.26763" width="0.168648" height="0.168648"/>
      <rect id="_300322728" class="fil10" x="3.67518" y="1.26763" width="0.168648" height="0.168648"/>
      <rect id="_300322536" class="fil10" x="3.33688" y="1.26763" width="0.168648" height="0.168648"/>
      <rect id="_300322200" class="fil10" x="3.84434" y="1.44092" width="0.168648" height="0.168648"/>
      <rect id="_300322632" class="fil10" x="3.50603" y="1.44092" width="0.168648" height="0.168648"/>
     </g>
     <g>
      <path id="_300322128" class="fil15" d="M2.13813 5.98362l0.0573504 0c-0.00256299,-0.254894 -0.00256299,-0.438606 -0.00256299,-0.438606 0,0 -0.0253819,0.190917 -0.0547874,0.438606z"/>
      <path id="_300322656" class="fil15" d="M5.3552 5.98362l-0.0573504 0c0.00256299,-0.254894 0.00256299,-0.438606 0.00256299,-0.438606 0,0 0.0253819,0.190917 0.0547874,0.438606z"/>
     </g>
    </g>
    <g>
     <path id="_300321576" class="fil16" d="M2.00783 5.05188l0 0.682567c0,0.0728268 -0.0297323,0.138969 -0.0776181,0.186854 -0.0478937,0.0478937 -0.114035,0.0776181 -0.186858,0.0776181l-0.0131378 0c-0.0692165,0 -0.132067,-0.028248 -0.177575,-0.0737598 -0.0455118,-0.0455039 -0.0737598,-0.108358 -0.0737598,-0.177571l0 -0.695709c-0.141075,-0.050748 -0.266949,-0.141063 -0.36815,-0.259862 -0.157854,-0.185311 -0.2555,-0.440173 -0.2555,-0.720642 0,-0.280469 0.0976457,-0.535331 0.2555,-0.720642 0.161091,-0.189106 0.384693,-0.306071 0.632622,-0.306071 0.247929,0 0.471539,0.116965 0.632626,0.306071 0.157854,0.185311 0.2555,0.440173 0.2555,0.720642 0,0.280469 -0.0976457,0.535331 -0.2555,0.720642 -0.101201,0.118799 -0.227075,0.209118 -0.36815,0.259862z"/>
     <ellipse id="_300321984" class="fil17" cx="1.74335" cy="4.06834" rx="0.786369" ry="0.911754"/>
     <path id="_300321456" class="fil18" d="M2.20055 3.87527c0.00934646,-0.000133858 0.0172323,0.0014685 0.0236417,0.00480709 0.00654331,0.00320472 0.0113504,0.00881496 0.0146929,0.016563 0.00333858,0.00774803 0.00494094,0.0182953 0.00494094,0.0315197l0 0.0841457c0,0.0132244 -0.00160236,0.0237756 -0.00494094,0.0315236 -0.00334252,0.00774803 -0.00814961,0.0132244 -0.0146929,0.016563 -0.00640945,0.00333858 -0.0142953,0.00494094 -0.0236417,0.00480709l-0.0416732 0 0 -0.189929 0.0416732 0zm0 -0.0801378l-0.129827 0 0 0.560972 0.0881535 0 0 -0.210768 0.0416732 0c0.0440748,-0.000133858 0.0769331,-0.0120197 0.0988346,-0.0356614 0.0217756,-0.0236417 0.0325945,-0.0579685 0.0325945,-0.102976l0 -0.0729291c0,-0.0450118 -0.0108189,-0.0793386 -0.0325945,-0.102976 -0.0219016,-0.0236417 -0.0547598,-0.0355315 -0.0988346,-0.0356614zm-0.454386 0.426339c0,0.0300512 0.00520472,0.0554291 0.0154921,0.0763976 0.0102835,0.0209724 0.0252402,0.0369961 0.0451417,0.0480866 0.0199016,0.0109488 0.0443465,0.0164252 0.0731969,0.0165591 0.0288465,-0.000133858 0.0532913,-0.00561024 0.0731929,-0.0165591 0.0199016,-0.0110906 0.0348583,-0.0271142 0.0451417,-0.0480866 0.0102874,-0.0209685 0.0154961,-0.0463465 0.0154961,-0.0763976l0 -0.291709c0,-0.0300472 -0.00520866,-0.0555591 -0.0154961,-0.0765315 -0.0102835,-0.0209685 -0.0252402,-0.0368622 -0.0451417,-0.0479488 -0.0199016,-0.0109528 -0.0443465,-0.0164291 -0.0731929,-0.016563 -0.0288504,0.000133858 -0.0532953,0.00561024 -0.0731969,0.016563 -0.0199016,0.0110866 -0.0348583,0.0269803 -0.0451417,0.0479488 -0.0102874,0.0209724 -0.0154921,0.0464843 -0.0154921,0.0765315l0 0.291709zm0.0881496 -0.297319c0.000133858,-0.0198976 0.00427559,-0.0340551 0.0122874,-0.0427362 0.00814961,-0.00855118 0.0192362,-0.0128228 0.0333937,-0.0125591 0.0141535,-0.00026378 0.0252441,0.00400787 0.0333898,0.0125591 0.00801575,0.0086811 0.0121575,0.0228386 0.0122874,0.0427362l0 0.302925c-0.000129921,0.0199016 -0.00427165,0.034063 -0.0122874,0.0427441 -0.00814567,0.00854724 -0.0192362,0.0128228 -0.0333898,0.0125551 -0.0141575,0.000267717 -0.0252441,-0.00400787 -0.0333937,-0.0125551 -0.00801181,-0.0086811 -0.0121535,-0.0228425 -0.0122874,-0.0427441l0 -0.302925zm-0.391882 -0.0488819l0.0921614 0 0 0.480835 0.0881535 0 0 -0.480835 0.0921614 0 0 -0.0801378 -0.272476 0 0 0.0801378zm-0.285291 0.0544921c0.000129921,0.0228425 0.00333858,0.0431457 0.00948031,0.0609094 0.00627953,0.0177598 0.0144252,0.0337913 0.0247126,0.0479488 0.0101496,0.0141575 0.0213701,0.027248 0.0336575,0.0391339 0.0121535,0.0118858 0.0244409,0.023374 0.0365945,0.0343268 0.0122874,0.0109528 0.0235079,0.0221732 0.0336575,0.0336575 0.0102835,0.0113504 0.0184331,0.0237756 0.0247126,0.037 0.00614567,0.0132205 0.00935039,0.0279134 0.00948031,0.0443386 0,0.0132244 -0.00187008,0.0239094 -0.00561024,0.0319252 -0.00373622,0.00801181 -0.00894488,0.0137598 -0.0157598,0.0173622 -0.00681102,0.00347638 -0.0149567,0.00534252 -0.0243071,0.00520866 -0.00935039,0.000133858 -0.0174961,-0.00160236 -0.024311,-0.00520866 -0.00681102,-0.00360236 -0.0120157,-0.00935039 -0.0157598,-0.0173622 -0.00374016,-0.00801575 -0.00561024,-0.0185669 -0.00561024,-0.0319252l0 -0.0400669 -0.0833425 0 0 0.0344606c0,0.0300512 0.00494094,0.0554291 0.0148228,0.0763976 0.00988976,0.0209724 0.0245787,0.0369961 0.0440787,0.0480866 0.0195039,0.0109488 0.0436772,0.0164252 0.0725236,0.0165591 0.0288543,-0.000133858 0.0530276,-0.00561024 0.0725276,-0.0165591 0.0195039,-0.0110906 0.0341929,-0.0271142 0.0440787,-0.0480866 0.00988189,-0.0209685 0.0148268,-0.0463465 0.0148268,-0.0763976 -0.000137795,-0.0228386 -0.00334252,-0.0431417 -0.00948425,-0.0609055 -0.00627953,-0.0177677 -0.0144252,-0.0337913 -0.0247087,-0.0479528 -0.0101535,-0.0141535 -0.021374,-0.0272441 -0.0336614,-0.0391299 -0.0121535,-0.0118898 -0.0244409,-0.023378 -0.0365984,-0.0343268 -0.0122874,-0.0109567 -0.0235079,-0.0221732 -0.0336575,-0.0336575 -0.0102835,-0.0113583 -0.0184331,-0.0237795 -0.0247087,-0.037 -0.00614173,-0.0132244 -0.00934646,-0.0280512 -0.00948425,-0.0443465 0.000137795,-0.0198976 0.00387402,-0.0340551 0.0114882,-0.0427362 0.00761417,-0.00855118 0.0184331,-0.0128228 0.0325906,-0.0125591 0.0141575,-0.00026378 0.0249764,0.00400787 0.0325906,0.0125591 0.00761024,0.0086811 0.0113543,0.0228386 0.0114843,0.0427362l0 0.0232441 0.0833465 0 0 -0.0176339c0,-0.0300472 -0.00494488,-0.0555591 -0.0145591,-0.0765315 -0.00975197,-0.0209685 -0.024311,-0.0368622 -0.0435433,-0.0479488 -0.0192323,-0.0109528 -0.0431417,-0.0164291 -0.0717244,-0.016563 -0.0285827,0.000133858 -0.0524921,0.00561024 -0.0717205,0.016563 -0.0192362,0.0110866 -0.0337953,0.0269803 -0.0435472,0.0479488 -0.00961417,0.0209724 -0.0145551,0.0464843 -0.0145551,0.0765315l0 0z"/>
    </g>
   </g>
   <path id="_300321816" class="fil19" d="M3.47766 3.61333c0.209126,0.0313386 0.445374,0.028685 0.612642,0 -0.0351693,0.0905551 -0.171854,0.12663 -0.308776,0.125969 -0.108417,0.00561024 -0.25839,-0.0390866 -0.303866,-0.125969z"/>
  </g>
  <rect class="fil20" x="0.0364567" y="-0.00520866" width="6.82666" height="6.82666"/>
 </g>
</svg>
