<?xml version="1.0" encoding="UTF-8"?>
<!DOCTYPE svg PUBLIC "-//W3C//DTD SVG 1.1//EN" "http://www.w3.org/Graphics/SVG/1.1/DTD/svg11.dtd">
<!-- Creator: CorelDRAW -->
<svg xmlns="http://www.w3.org/2000/svg" xml:space="preserve" width="6.82666in" height="6.82666in" style="shape-rendering:geometricPrecision; text-rendering:geometricPrecision; image-rendering:optimizeQuality; fill-rule:evenodd; clip-rule:evenodd"
viewBox="0 0 6.82666 6.82666"
 xmlns:xlink="http://www.w3.org/1999/xlink">
 <defs>
  <style type="text/css">
   <![CDATA[
    .fil31 {fill:none}
    .fil4 {fill:#004D40}
    .fil6 {fill:#293439}
    .fil23 {fill:#2F101B}
    .fil17 {fill:#320C19}
    .fil22 {fill:#3C3C3C}
    .fil16 {fill:#424242}
    .fil5 {fill:#7B1FA2}
    .fil26 {fill:#820D23}
    .fil20 {fill:#990923}
    .fil14 {fill:#A1DEFA}
    .fil25 {fill:#AC122F}
    .fil11 {fill:#B3E5FC}
    .fil27 {fill:#C85E06}
    .fil15 {fill:#CC0E32}
    .fil12 {fill:#CC2241}
    .fil0 {fill:#CE93D8}
    .fil24 {fill:#D5CBBC}
    .fil1 {fill:#DBC0B2}
    .fil3 {fill:#DFC4B6}
    .fil7 {fill:#E4B7A0}
    .fil2 {fill:#ECCEBE}
    .fil21 {fill:#EF6C00}
    .fil18 {fill:#FFF3E0}
    .fil30 {fill:#3D2B20;fill-rule:nonzero}
    .fil13 {fill:#A1DEFA;fill-rule:nonzero}
    .fil10 {fill:#B3E5FC;fill-rule:nonzero}
    .fil9 {fill:#C988D3;fill-rule:nonzero}
    .fil19 {fill:#CC0E32;fill-rule:nonzero}
    .fil8 {fill:#CE93D8;fill-rule:nonzero}
    .fil29 {fill:#F57C00;fill-rule:nonzero}
    .fil28 {fill:#FFA726;fill-rule:nonzero}
   ]]>
  </style>
 </defs>
 <g id="Layer_x0020_1">
  <metadata id="CorelCorpID_0Corel-Layer"/>
  <g id="_300325848">
   <path id="_300329016" class="fil0" d="M3.80449 4.35294c-0.791291,0.346898 -1.02867,0.53187 -1.1225,0.61489 -0.144602,0.127949 -0.224579,0.604886 -0.309862,1.00986l1.79031 0 1.79028 0c-0.0852756,-0.404972 -0.16526,-0.881909 -0.309854,-1.00986 -0.0937953,-0.0830197 -0.322488,-0.263232 -1.11381,-0.61013l-0.724567 -0.00475984z"/>
   <path id="_300329544" class="fil1" d="M3.25143 3.13268c0.062189,-0.0267244 0.141343,0.0652638 0.17676,0.20548 0.0354213,0.140169 0.0137165,0.275457 -0.0485039,0.302177 -0.062185,0.0266811 -0.141339,-0.0653071 -0.17676,-0.20552 -0.0354488,-0.140173 -0.0137126,-0.275469 0.0485039,-0.302138z"/>
   <path id="_300328416" class="fil1" d="M5.07008 3.13268c-0.0622165,-0.0267244 -0.14137,0.0653071 -0.176791,0.20548 -0.0354173,0.140169 -0.0137126,0.275457 0.0484961,0.302134 0.0622205,0.0267244 0.141374,-0.0652638 0.176791,-0.205476 0.0354213,-0.140173 0.0137165,-0.275469 -0.0484961,-0.302138z"/>
   <path id="_300328248" class="fil2" d="M4.54201 3.67665l0 0.866563c-0.20878,0.255701 -0.550413,0.246846 -0.759157,0l0 -0.866563c0,-0.467921 0.759157,-0.467921 0.759157,0z"/>
   <path id="_300328200" class="fil3" d="M4.54201 3.67665l0 0.580177c-0.143646,0.104709 -0.282091,0.163362 -0.379579,0.163362 -0.0974921,0 -0.235961,-0.0586535 -0.379579,-0.163362l0 -0.580177c0,-0.467921 0.759157,-0.467921 0.759157,0z"/>
   <path id="_300328392" class="fil4" d="M3.10173 5.97769l0.0613071 0c-0.00274016,-0.272646 -0.00274016,-0.469142 -0.00274016,-0.469142 0,0 -0.0271575,0.204217 -0.0585669,0.469142z"/>
   <path id="_300328344" class="fil5" d="M5.22316 5.97769l-0.0613425 0c0.00274016,-0.272646 0.00274016,-0.469142 0.00274016,-0.469142 0,0 0.0271575,0.204217 0.0586024,0.469142z"/>
   <path id="_300328800" class="fil3" d="M4.54201 3.67665l0 0.580177c-0.143646,0.104709 -0.282091,0.163362 -0.379579,0.163362 -0.0974921,0 -0.235961,-0.0586535 -0.379579,-0.163362l0 -0.580177c0,-0.467921 0.759157,-0.467921 0.759157,0z"/>
   <path id="_300328224" class="fil2" d="M4.16243 2.12086c-1.274,0 -0.81585,1.53938 -0.732626,1.66191 0.0917598,0.135142 0.526791,0.493311 0.732626,0.493311 0.205835,0 0.640839,-0.358169 0.732591,-0.493311 0.0832559,-0.122524 0.541409,-1.66191 -0.732591,-1.66191z"/>
   <path id="_300328872" class="fil6" d="M3.5801 2.63602c-0.0738976,0.403736 -0.258965,0.366055 -0.244287,0.839827 -0.0594488,-0.369256 -0.148236,-0.860654 0.102819,-1.18433 0.200602,-0.258638 0.865008,-0.443646 1.29524,-0.133319 0.475189,0.10152 0.326594,1.06899 0.262874,1.25185 -0.0444764,-0.296185 -0.14411,-0.419567 -0.269902,-0.767807 -0.170654,0.122374 -0.927992,0.149673 -1.14674,-0.00621654z"/>
   <path id="_300328536" class="fil7" d="M3.77658 3.73229c0.256232,0.0916969 0.55365,0.0768307 0.771697,0 -0.0711535,0.327819 -0.635634,0.33578 -0.771697,0z"/>
   <path id="_300328632" class="fil8" d="M3.58215 1.05228c0.237047,-0.135335 0.409665,-0.202858 0.592008,-0.203295 0.180764,-0.000429134 0.363862,0.0658622 0.622862,0.198154l0.0435551 0.022248 0.00750787 0.063 0.133169 1.11723 0.0187008 0.156925 -0.113311 -0.0312047c-0.23202,-0.063878 -0.464268,-0.0983701 -0.696744,-0.099626 -0.232898,-0.00126772 -0.467626,0.0305354 -0.704386,0.0991929l-0.115898 0.0336181 0.0206614 -0.160201 0.14363 -1.11338 0.0076811 -0.0595 0.040563 -0.0231654z"/>
   <path id="_300327576" class="fil9" d="M4.16141 0.849134c0.00424803,-8.66142e-005 0.00849213,-0.000141732 0.012748,-0.000153543 0.180764,-0.000433071 0.363862,0.0658622 0.622862,0.198154l0.0435512 0.022248 0.00751181 0.063 0.133169 1.11723 0.0187008 0.156925 -0.113311 -0.0312047c-0.23202,-0.063878 -0.464268,-0.0983701 -0.696748,-0.099626 -0.00949213,-5.11811e-005 -0.0189843,-4.33071e-005 -0.0284843,1.5748e-005l0 -1.42659z"/>
   <g>
    <g>
     <path id="_300328032" class="fil10" d="M1.34292 5.23329c-0.0572441,-0.00898425 -0.107654,-0.0285157 -0.149299,-0.0559961 -0.0439016,-0.0289606 -0.0781063,-0.0667244 -0.100469,-0.110339 -0.0335591,-0.0654567 -0.0323268,-0.145591 -0.0130236,-0.225787 0.0250984,-0.104264 0.0812323,-0.209965 0.128941,-0.28037l0.00960236 -0.0141693 0.0171181 5.90551e-005 0.411413 0.00148031 0.0169961 5.90551e-005 0.00940945 0.0140984c0.0471535,0.0706693 0.102492,0.17678 0.126898,0.281461 0.0187283,0.0803386 0.0194094,0.160433 -0.0145433,0.225504 -0.0227402,0.0435827 -0.0572047,0.0811417 -0.101224,0.109728 -0.0418661,0.027189 -0.0924882,0.046378 -0.149941,0.0549685 -0.0281063,0.00420472 -0.0620512,0.00623228 -0.0959646,0.00611417 -0.0338701,-0.000125984 -0.0677953,-0.00240157 -0.0959134,-0.00681102z"/>
     <path id="_300327648" class="fil11" d="M1.44491 5.7024c0.120327,-0.0005 0.217937,0.0150039 0.218016,0.0346181 8.26772e-005,0.0196142 -0.0973976,0.0359173 -0.21772,0.0364134 -0.120327,0.000496063 -0.217933,-0.0150079 -0.218016,-0.034622 -7.87402e-005,-0.0196142 0.0973976,-0.0359173 0.21772,-0.0364094z"/>
     <path id="_300328152" class="fil10" d="M1.47101 5.20628l-0.00185039 0.514429c-0.0116378,0.0140394 -0.0481378,0.0155669 -0.063937,-0.000405512l0.00184646 -0.514429 0.0639409 0.000405512z"/>
     <path id="_300327552" class="fil12" d="M1.74576 4.86842l-0.615949 -0.00308268c-0.000625984,0.00303543 -0.00122047,0.00606299 -0.00178346,0.00908661 -3.93701e-006,7.87402e-006 -3.93701e-006,1.9685e-005 -7.87402e-006,3.14961e-005 -0.00155512,0.00842126 -0.00286614,0.0168071 -0.00390945,0.0251299l-0.000622047 0.00496063 0 3.93701e-006c-0.00551575,0.0487441 -0.0012874,0.0945433 0.0179528,0.132079 0.0179449,0.0349921 0.0457205,0.0655157 0.0816024,0.089185 0.0355591,0.0234567 0.0790315,0.0402047 0.128831,0.0480157 0.0260591,0.00409055 0.0576654,0.00620079 0.0893386,0.00631496 0.0316339,0.000114173 0.063248,-0.00177559 0.0893858,-0.0056811 0.0497008,-0.00743307 0.0932126,-0.0238504 0.128917,-0.0470354 0.0881339,-0.0572402 0.113362,-0.159957 0.0862441,-0.259008z"/>
     <path id="_300327984" class="fil13" d="M1.34292 5.23329c-0.0572441,-0.00898425 -0.107654,-0.0285157 -0.149303,-0.0559921 -0.0439016,-0.0289646 -0.0781024,-0.0667283 -0.100465,-0.110343 -0.0335591,-0.0654567 -0.0323268,-0.145591 -0.0130236,-0.225787 0.0250984,-0.104264 0.0812323,-0.209965 0.128941,-0.28037l0.00960236 -0.0141693 0.0171181 5.90551e-005 0.197319 0.000708661 0.000846457 0.323571 -0.0409685 0.125677 0.041374 0.183854 0.000114173 0.0595748c-0.0324094,-0.000295276 -0.0646417,-0.00256299 -0.0915551,-0.00678346z"/>
     <path id="_300327432" class="fil14" d="M1.43552 5.77344c-0.115835,-0.000350394 -0.208264,-0.0155394 -0.208339,-0.034626 -7.87402e-005,-0.0190945 0.0922992,-0.0350472 0.208201,-0.0363386l0.000137795 0.0709646z"/>
     <path id="_300327864" class="fil13" d="M1.43544 5.7317c-0.0115,-0.000476378 -0.0230157,-0.00412205 -0.0302205,-0.0114055l0.00184646 -0.514429 0.0273346 0.000173228 0.00103937 0.525661z"/>
     <path id="_300328056" class="fil15" d="M1.43394 4.86881l-0.304138 -0.0034685c-0.000625984,0.00303543 -0.00122047,0.00606299 -0.00178346,0.00908661 -3.93701e-006,7.87402e-006 -3.93701e-006,1.9685e-005 -7.87402e-006,3.14961e-005 -0.00155512,0.00842126 -0.00286614,0.0168071 -0.00390945,0.0251299l-0.000622047 0.00496063 0 3.93701e-006c-0.00551575,0.0487441 -0.0012874,0.0945433 0.0179528,0.132079 0.0179449,0.0349921 0.0457205,0.0655157 0.0816024,0.089185 0.0355591,0.0234567 0.0790315,0.0402047 0.128831,0.0480157 0.0241772,0.00379528 0.0531299,0.00588583 0.0824843,0.00625984l-0.000409449 -0.311283z"/>
    </g>
    <g>
     <polygon id="_300327912" class="fil16" points="2.09928,4.05963 2.25492,4.05963 2.25492,4.13753 2.09928,4.13753 "/>
     <path id="_300326688" class="fil17" d="M2.29515 3.98335l0 0.404173c0,0.0232874 0.0280787,0.0585236 0.0586339,0.0968622 0.045811,0.0574843 0.0960512,0.120524 0.0960512,0.1965l0 0.975362c0,0.0239843 -0.00937795,0.0572008 -0.0294094,0.0813425l-0.000153543 0c-0.0173386,0.0208937 -0.0418543,0.0358504 -0.074315,0.0358504l-0.337835 0c-0.0324961,0 -0.0569803,-0.0149646 -0.074252,-0.0358661 -0.0199606,-0.0241614 -0.0293425,-0.0573622 -0.0293425,-0.0813268l0 -0.975362c0,-0.0759567 0.0501535,-0.139008 0.0958898,-0.1965 0.0304843,-0.0383268 0.0585079,-0.0735551 0.0585079,-0.0968622l0 -0.404173 0 -0.0389528 0.0389488 0 0.158323 0 0.0389528 0 0 0.0389528z"/>
     <path id="_300327288" class="fil15" d="M2.05543 4.53931c-0.00922047,0.0134882 -0.0186299,0.0267835 -0.0281654,0.0400472 -0.0122165,0.0169882 -0.0288819,0.0383701 -0.036311,0.0579843 -0.00462205,0.0122008 -0.00625591,0.0251299 -0.00716142,0.038063 -0.00166535,0.0237362 -0.00133071,0.048315 -0.00133071,0.0721142l0 0.817063c0,0.0107598 0.0087126,0.0194764 0.0194764,0.0194764 0.0107598,0 0.0194764,-0.0087126 0.0194764,-0.0194764l0 -0.817063c0,-0.0199882 -0.00026378,-0.0405787 0.00113386,-0.0605118 0.000956693,-0.0136063 0.0028937,-0.0266496 0.00795276,-0.0394016 0.00648425,-0.0163543 0.0179094,-0.0314291 0.0281299,-0.0456457 0.00972835,-0.0135276 0.0194528,-0.0270591 0.0288543,-0.040815 0.00603937,-0.00882677 0.00373622,-0.0209094 -0.00509449,-0.0269331 -0.00884646,-0.00603937 -0.0209173,-0.00373622 -0.0269606,0.00509843z"/>
     <polygon id="_300326784" class="fil18" points="1.93754,4.8597 2.41681,4.8597 2.41681,5.4328 1.93754,5.4328 "/>
     <path id="_300326976" class="fil15" d="M1.95702 4.87918l0.440323 0 0 0.53415 -0.440323 0 0 -0.53415zm0.0121693 0.0121732l0.415984 0 0 0.509807 -0.415984 0 0 -0.509807z"/>
     <path id="_300326952" class="fil19" d="M2.09782 5.20797l0.0257441 0 0.0137559 -0.123437 -0.0169291 0 -0.0100512 0.0980433 -0.00970079 -0.0980433 -0.018689 0 -0.00934646 0.0973386 -0.0104055 -0.0973386 -0.0188661 0 0.013752 0.123437 0.0266299 0 0.00705118 -0.0657756 0.00705512 0.0657756zm0.0492008 0l0.0193976 0 0 -0.123437 -0.0193976 0 0 0.123437zm0.0749409 0l0.0199291 0 0 -0.123437 -0.0172835 0 0 0.0738858 -0.0199252 -0.0738858 -0.0243346 0 0 0.123437 0.0174567 0 0 -0.0894055 0.0241575 0.0894055zm0.0532559 -0.105803l0.0335039 0 0 -0.0176339 -0.0529016 0 0 0.123437 0.0529016 0 0 -0.0176339 -0.0335039 0 0 -0.0361496 0.0266299 0 0 -0.0176339 -0.0266299 0 0 -0.0343858z"/>
     <path id="_300327144" class="fil20" d="M2.07546 3.90432l0.208354 0c0.0115276,0 0.0209567,0.00970079 0.0209567,0.0215512l0 0.367701 -0.255197 0 0 -0.36263c0,-0.0146417 0.0116496,-0.026622 0.0258858,-0.026622z"/>
     <polygon id="_300326904" class="fil21" points="2.30478,4.26251 2.30478,4.29357 2.04958,4.29357 2.04958,4.26251 "/>
     <polygon id="_300327216" class="fil21" points="2.30478,4.24793 2.30478,4.23144 2.04958,4.23144 2.04958,4.24793 "/>
     <polygon id="_300326760" class="fil22" points="2.17718,4.05963 2.25492,4.05963 2.25492,4.13753 2.17718,4.13753 "/>
     <path id="_300327000" class="fil23" d="M2.29515 3.98335l0 0.404173c0,0.0232874 0.0280787,0.0585236 0.0586339,0.0968622 0.045811,0.0574843 0.0960512,0.120524 0.0960512,0.1965l0 0.975362c0,0.0239843 -0.00937795,0.0572008 -0.0294094,0.0813425l-0.000153543 0c-0.0173386,0.0208937 -0.0418543,0.0358504 -0.074315,0.0358504l-0.170295 0 0.00161811 -0.340839 0.0318583 -0.124768 -0.0318583 -0.447697 -9.44882e-005 -0.91574 0.0790118 0 0.0389528 0 0 0.0389528z"/>
     <polygon id="_300326328" class="fil24" points="2.17718,4.8597 2.41681,4.8597 2.41681,5.4328 2.17718,5.4328 "/>
     <polygon id="_300326208" class="fil25" points="2.17718,4.87918 2.39734,4.87918 2.39734,5.41333 2.17718,5.41333 2.17718,5.40116 2.38517,5.40116 2.38517,4.89135 2.17718,4.89135 "/>
     <path id="_300326136" class="fil25" d="M2.22196 5.20797l0.0199291 0 0 -0.123437 -0.0172835 0 0 0.0738858 -0.0199252 -0.0738858 -0.0243346 0 0 0.123437 0.0174567 0 0 -0.0894055 0.0241575 0.0894055zm0.0532559 -0.105803l0.0335039 0 0 -0.0176339 -0.0529016 0 0 0.123437 0.0529016 0 0 -0.0176339 -0.0335039 0 0 -0.0361496 0.0266299 0 0 -0.0176339 -0.0266299 0 0 -0.0343858z"/>
     <path id="_300325968" class="fil26" d="M2.17718 3.90432l0.106638 0c0.0115276,0 0.0209567,0.00970079 0.0209567,0.0215512l0 0.367701 -0.127594 0 0 -0.389252z"/>
     <polygon id="_300325896" class="fil27" points="2.30478,4.26251 2.30478,4.29357 2.17718,4.29357 2.17718,4.26251 "/>
     <polygon id="_300326112" class="fil27" points="2.30478,4.24793 2.30478,4.23144 2.17718,4.23144 2.17718,4.24793 "/>
    </g>
   </g>
   <path id="_300326256" class="fil28" d="M2.41215 5.75945l0.935118 0 0.935122 0 0.124689 0 0 -0.124685c0,-0.246 -0.122724,-0.467177 -0.321138,-0.625906 -0.174858,-0.139886 -0.409134,-0.230827 -0.667937,-0.244937 0.00223622,-0.00706693 0.00344488,-0.0145945 0.00344488,-0.0224016 0,-0.0409685 -0.0332126,-0.0741811 -0.0741811,-0.0741811 -0.0409685,0 -0.0741811,0.0332126 -0.0741811,0.0741811 0,0.00780709 0.00120866,0.0153346 0.00344488,0.0224016 -0.258803,0.0141102 -0.493075,0.105051 -0.667933,0.244937 -0.198413,0.158728 -0.321134,0.379906 -0.321134,0.625906l0 0.124685 0.124685 0z"/>
   <polygon id="_300326040" class="fil29" points="2.15539,5.65285 4.53915,5.65285 4.53915,5.75945 2.15539,5.75945 "/>
   <path id="_300326592" class="fil30" d="M4.86824 5.5941c-0.0527953,0 -0.208496,0.16337 -0.261287,0.16337 -1.15724,0 -2.31448,0 -3.47172,0 -0.0527913,0 -0.208492,-0.16337 -0.261287,-0.16337 0,0.0721732 0,0.144343 0,0.216516 0.0533268,0 0.209551,0.16337 0.262882,0.16337 1.15618,0 2.31235,0 3.46854,0 0.0533268,0 0.209555,-0.16337 0.262882,-0.16337 0,-0.0721732 0,-0.144343 0,-0.216516z"/>
  </g>
  <rect class="fil31" x="0.0364567" y="-0.00520866" width="6.82666" height="6.82666"/>
 </g>
</svg>
