<svg xmlns="http://www.w3.org/2000/svg" xmlns:xlink="http://www.w3.org/1999/xlink" viewBox="0 0 4680 3120"><defs><style>.cls-1{fill:none;}.cls-2,.cls-9{fill:#fff;}.cls-2{opacity:0;}.cls-3{fill:#ceeaff;}.cls-4{fill:#a0d3f2;}.cls-5{fill:#bf301d;}.cls-6{fill:#d8564c;}.cls-7{fill:#007cff;}.cls-8{opacity:0.5;}.cls-10{opacity:0.4;}.cls-11{fill:#ffc6aa;}.cls-12{fill:#263349;}.cls-13{fill:#fcc000;}.cls-14{fill:#e89470;}.cls-15{clip-path:url(#clip-path);}.cls-16{fill:#061530;}.cls-17{fill:#8e1313;}.cls-18{fill:#6d0909;}.cls-19{fill:#fedc00;}.cls-20{clip-path:url(#clip-path-2);}.cls-21{fill:#fcae00;}.cls-22{fill:#f12000;}.cls-23{clip-path:url(#clip-path-3);}.cls-24{fill:#c12110;}.cls-25{clip-path:url(#clip-path-4);}.cls-26{fill:#8ab9fe;}.cls-27{fill:#0052fe;}.cls-28{fill:#00318f;}.cls-29{fill:#002e7f;}.cls-30{fill:#fc8f00;}.cls-31{fill:#0b1421;}.cls-32{fill:#cc6744;}.cls-33{fill:#4b2429;}.cls-34{clip-path:url(#clip-path-5);}.cls-35{fill:#2b0b11;}.cls-36{fill:#ef9478;}.cls-37{clip-path:url(#clip-path-6);}.cls-38{fill:#1e0c02;}.cls-39{fill:#10b255;}.cls-40{fill:#12d86f;}.cls-41{clip-path:url(#clip-path-7);}.cls-42{opacity:0.6;}.cls-43{fill:#11994c;}.cls-44{fill:#f98e00;}</style><clipPath id="clip-path"><path class="cls-1" d="M1428.18,1158.7c21.35-21.64,113.38-43.28,113.38-43.28a384.07,384.07,0,0,1,7.41,52.77c.16,2.62.26,5.25.33,7.86,5.54,14.32,13.46,33.84,17,38s-6.28,10.26-14.27,14.34c1.37,22.78-.06,47.14-17.24,70.25-28.43,38.28-101.65,2.61-120.83-40.15S1406.82,1180.33,1428.18,1158.7Z"/></clipPath><clipPath id="clip-path-2"><path class="cls-1" d="M1110.37,1862.65s321.12-31.29,353.81,9.66,301,99.84,345.3,140.08c32.87,29.85,23.42,72.86,16.35,93.08h0s-153.37,446.63-170.69,501.63c0,0-54.25,4.81-90.67-27.79,0,0,55.71-392.34,71-445.31,2.15-7.47,7.49-13.4,15.06-18.08-136.29-.59-319-1.09-410-.09C1084.33,2117.55,1110.37,1937.26,1110.37,1862.65Z"/></clipPath><clipPath id="clip-path-3"><path class="cls-1" d="M1468,1361.17c31,1.49,82.25,43,82.25,106.21,0,83.53-15.31,200.17-53,259.26S1531.15,1856.52,1468,1882s-355.83,29-367-13.74,50.28-333.65,67.75-391.19c17.32-57,48.39-98.82,71.82-109S1411.16,1358.43,1468,1361.17Z"/></clipPath><clipPath id="clip-path-4"><path class="cls-1" d="M1449.5,1545.07c5.32-83.27-.07-151.9,34.29-164.76,31.67-11.84,83.63,39.27,103.94,107.43,14.82,49.77,22.86,186.17,27.58,276.92,89.94-18.38,240-47.41,240-47.41,31.54,31.47,28.37,90.51,28.37,90.51-122.08,34.58-221.66,67.13-293.39,81-28.84,17.4-72.12,13.94-96.73-43.56C1453.63,1751.86,1444.18,1628.34,1449.5,1545.07Z"/></clipPath><clipPath id="clip-path-5"><path class="cls-1" d="M3015.19,1033.2c9.7-3.67,8.72-9.26,22.3-19.11,7.67-5.57,42.85-31.09,63.12-4.08,10.93,14.57,8.53,32.43,21.94,45.83,10.25,10.24,15.66,3.82,23.11,10.1,25.63,21.59-6.78,135.06-10.37,143.41-8.13,18.9-26.76,35.27-41.33,9.74-22.11-38.73-14.23-94.43-42.46-79.13-41.11,22.28-61.82,79.51-74,64.81-9.22-11.1-2.51-49.9-12.83-58.36-7.51-6.15-13.73,14.84-25.25,11.73-18.37-5-37.18-43.15-35.18-77.13,2.42-41.11,34.91-69.57,59.39-66.34C2984,1017.35,2993.86,1041.29,3015.19,1033.2Z"/></clipPath><clipPath id="clip-path-6"><path class="cls-1" d="M3121.69,1149.28S3074,1133,3062,1077.8c-4.35,18.66-56.83,44.13-56.83,44.13l19-36.77s-38.91,35.64-55.6,37.06c-4.27,28.94,2.1,102.77,10.54,114.26s44.12,55.55,57.57,50.94,71-39.74,74.09-54.54a228.9,228.9,0,0,1,9.39-30.91s43-11.26,30.45-49.7S3121.69,1149.28,3121.69,1149.28Z"/></clipPath><clipPath id="clip-path-7"><path class="cls-1" d="M3174.59,1297.62l82.28,31.62,92,231.9s-21,103.9-14.52,129.5S3373,1859.3,3373,1859.3s-114.55,36.14-151.66,39.15-209.74-21.08-209.74-21.08-9.68-253-19.36-277.08-35.5-204.79-35.5-204.79,2.49-29.53,66.15-58.73c15-6.88,22.59,97.88,66.15,43.67C3100.36,1366.4,3157.58,1293.44,3174.59,1297.62Z"/></clipPath></defs><title>08</title><g id="_08" data-name="08"><rect id="_08-2" data-name="08" class="cls-2" width="4680" height="3120"/><ellipse class="cls-3" cx="1461.76" cy="2694.98" rx="549.14" ry="46.19"/><ellipse class="cls-3" cx="3305.83" cy="2659.55" rx="549.14" ry="46.19"/><path class="cls-3" d="M3142.62,2482s480.57-657.89,182.87-1163.52-889.22-158.62-1001.81-630.5S1800,138.68,1410.23,728.79,1113.66,2139.49,1320.09,2482Z"/><path class="cls-4" d="M1760.1,912.59h-162V843.75h162Zm-155.78-6.25h149.53V850H1604.32Z"/><path class="cls-4" d="M1993.67,787.61h-162V718.77h162Zm-155.79-6.25h149.54V725H1837.88Z"/><rect class="cls-4" x="2389.37" y="517.72" width="21.48" height="6.25"/><rect class="cls-4" x="2163" y="517.72" width="201.98" height="6.25"/><path class="cls-4" d="M2465.7,1978.74h-162V1909.9h162Zm-155.79-6.25h149.54v-56.34H2309.91Z"/><path class="cls-4" d="M2543.59,1896.13h-162V1827.3h162Zm-155.79-6.25h149.54v-56.33H2387.8Z"/><g id="Group"><polygon class="cls-5" points="1198.49 1757.42 1198.49 2655.35 1217.22 2655.35 1240.78 1757.42 1198.49 1757.42"/><polygon class="cls-5" points="1419.59 1786.78 1419.59 2618.65 1438.32 2618.65 1461.88 1786.78 1419.59 1786.78"/><polygon class="cls-5" points="3321.74 1757.42 3321.74 2655.35 3303.07 2655.35 3279.46 1757.42 3321.74 1757.42"/><polygon class="cls-5" points="3100.7 1786.78 3100.7 2618.65 3081.98 2618.65 3058.42 1786.78 3100.7 1786.78"/><polygon class="cls-5" points="3364.45 1808.35 1154.32 1808.35 1105.44 1768.06 3413.33 1768.06 3364.45 1808.35"/><rect class="cls-6" x="1055.49" y="1730.41" width="2400.73" height="37.65"/></g><rect class="cls-7" x="2562.71" y="1542.13" width="90.95" height="184.76" transform="translate(5216.37 3269.03) rotate(-180)"/><g class="cls-8"><rect class="cls-9" x="2562.71" y="1542.13" width="90.95" height="184.76" transform="translate(5216.37 3269.03) rotate(-180)"/></g><polygon class="cls-7" points="2521.65 1730.21 2693.95 1730.21 2651.93 1693.21 2563.68 1693.21 2521.65 1730.21"/><g class="cls-8"><polygon class="cls-9" points="2521.65 1730.21 2693.95 1730.21 2651.93 1693.21 2563.68 1693.21 2521.65 1730.21"/></g><polygon class="cls-7" points="1969.15 1668.41 2399.89 1668.41 2322.06 1728.46 1891.39 1728.46 1969.15 1668.41"/><g class="cls-10"><polygon class="cls-9" points="1969.15 1668.41 2399.89 1668.41 2322.06 1728.46 1891.39 1728.46 1969.15 1668.41"/></g><polygon class="cls-7" points="2389.94 1728.46 2399.89 1668.41 2322.06 1728.46 2389.94 1728.46"/><g class="cls-8"><polygon points="2389.94 1728.46 2399.89 1668.41 2322.06 1728.46 2389.94 1728.46"/></g><rect class="cls-7" x="2203.52" y="1104.85" width="813.76" height="510.52" rx="14.87"/><g class="cls-8"><rect x="2233.9" y="1136.74" width="753.81" height="444.9"/></g><g class="cls-10"><rect x="2257.85" y="1228.26" width="380.38" height="261.87" transform="translate(4896.08 2718.38) rotate(-180)"/></g><rect class="cls-7" x="2257.85" y="1228.26" width="380.38" height="23.99" transform="translate(4896.08 2480.5) rotate(-180)"/><path class="cls-9" d="M2506.34,1338.62c-3.11-1.75-5.19-3.31-6.22-4.68a8.5,8.5,0,0,1-1.55-5.25,9.46,9.46,0,0,1,2.91-6.93,9.35,9.35,0,0,1,6.83-2.9c1.63,0,4.12.9,7.49,2.72l80.23,44.61a7.89,7.89,0,0,1,0,13.79l-80.23,44.62c-3.37,1.87-5.89,2.81-7.58,2.81a9.19,9.19,0,0,1-6.74-3,9.61,9.61,0,0,1-2.91-7,8.49,8.49,0,0,1,1.55-5.24c1-1.38,3.11-2.94,6.22-4.69l62.19-34.46Z"/><path class="cls-9" d="M2406.27,1301.44a8.64,8.64,0,0,1,2.81-6.32,9.7,9.7,0,0,1,12.65-.8c1.18,1,2.56,3.15,4.12,6.46l61.72,132.53q2.25,4.86,2.25,7.4a8.72,8.72,0,0,1-2.86,6.36,9.35,9.35,0,0,1-6.79,2.82,9.09,9.09,0,0,1-5.9-2q-1.87-1.5-4.22-6.46l-61.53-132.62Q2406.27,1304,2406.27,1301.44Z"/><path class="cls-9" d="M2393.34,1407.55q4.68,2.63,6.22,4.69a8.46,8.46,0,0,1,1.55,5.23,9.83,9.83,0,0,1-2.84,7,9.36,9.36,0,0,1-6.9,3c-1.63,0-4.12-.94-7.49-2.81L2303.65,1380a7.89,7.89,0,0,1,0-13.79l80.23-44.61c3.37-1.82,5.86-2.72,7.49-2.72a9.35,9.35,0,0,1,6.83,2.9,9.46,9.46,0,0,1,2.91,6.93,8.5,8.5,0,0,1-1.55,5.25q-1.54,2.05-6.22,4.68l-62.19,34.47Z"/><rect class="cls-9" x="2931.06" y="1177.82" width="25.75" height="25.75"/><rect class="cls-9" x="2931.06" y="1244.48" width="25.75" height="25.75"/><rect class="cls-9" x="2931.06" y="1311.14" width="25.75" height="25.75"/><rect class="cls-9" x="2931.06" y="1377.81" width="25.75" height="25.75"/><rect class="cls-9" x="2931.06" y="1444.47" width="25.75" height="25.75"/><rect class="cls-9" x="2931.06" y="1511.14" width="25.75" height="25.75"/><rect class="cls-9" x="2803.93" y="1183.62" width="102.65" height="7.71"/><rect class="cls-9" x="2846.1" y="1250.46" width="36.57" height="7.71"/><rect class="cls-9" x="2686.95" y="1325.43" width="36.57" height="7.71"/><rect class="cls-9" x="2846.1" y="1384.94" width="36.57" height="7.71"/><rect class="cls-9" x="2793.36" y="1384.94" width="36.57" height="7.71"/><rect class="cls-9" x="2736.5" y="1325.43" width="93.43" height="7.71"/><rect class="cls-9" x="2713.99" y="1384.94" width="61.52" height="7.71"/><rect class="cls-9" x="2739.15" y="1527.87" width="36.57" height="7.71"/><rect class="cls-9" x="2686.42" y="1527.87" width="36.57" height="7.71"/><rect class="cls-9" x="2648.12" y="1527.87" width="20.43" height="7.71"/><rect class="cls-9" x="2713.99" y="1250.46" width="113.78" height="7.71"/><rect class="cls-9" x="2793.36" y="1454.57" width="36.57" height="7.71"/><rect class="cls-9" x="2760.01" y="1454.57" width="21.14" height="7.71"/><rect class="cls-9" x="2684.13" y="1454.57" width="59.71" height="7.71"/><rect class="cls-7" x="1669.08" y="1543.41" width="90.95" height="184.76" transform="translate(3429.1 3271.59) rotate(-180)"/><g class="cls-8"><rect class="cls-9" x="1669.08" y="1543.41" width="90.95" height="184.76" transform="translate(3429.1 3271.59) rotate(-180)"/></g><polygon class="cls-7" points="1628.02 1731.49 1800.32 1731.49 1758.3 1694.49 1670.04 1694.49 1628.02 1731.49"/><g class="cls-8"><polygon class="cls-9" points="1628.02 1731.49 1800.32 1731.49 1758.3 1694.49 1670.04 1694.49 1628.02 1731.49"/></g><polygon class="cls-7" points="1281.01 1669.43 1711.76 1669.43 1633.92 1729.48 1203.25 1729.48 1281.01 1669.43"/><g class="cls-10"><polygon class="cls-9" points="1281.01 1669.43 1711.76 1669.43 1633.92 1729.48 1203.25 1729.48 1281.01 1669.43"/></g><polygon class="cls-7" points="1701.81 1729.48 1711.76 1669.43 1633.92 1729.48 1701.81 1729.48"/><g class="cls-8"><polygon points="1701.81 1729.48 1711.76 1669.43 1633.92 1729.48 1701.81 1729.48"/></g><rect class="cls-7" x="1309.88" y="1106.13" width="813.76" height="510.52" rx="14.87"/><g class="cls-8"><rect x="1340.27" y="1138.02" width="753.81" height="444.9"/></g><g class="cls-10"><rect x="1364.21" y="1229.54" width="380.38" height="261.87" transform="translate(3108.81 2720.94) rotate(-180)"/></g><rect class="cls-7" x="1364.21" y="1229.54" width="380.38" height="23.99" transform="translate(3108.81 2483.06) rotate(-180)"/><path class="cls-9" d="M1612.71,1339.9q-4.68-2.62-6.23-4.68a8.5,8.5,0,0,1-1.54-5.25,9.49,9.49,0,0,1,2.9-6.93,9.37,9.37,0,0,1,6.84-2.9c1.62,0,4.12.9,7.49,2.72l80.23,44.61a7.89,7.89,0,0,1,0,13.79l-80.23,44.62q-5.06,2.8-7.58,2.81a9.23,9.23,0,0,1-6.75-3,9.64,9.64,0,0,1-2.9-7,8.49,8.49,0,0,1,1.54-5.24q1.55-2.07,6.23-4.69l62.19-34.46Z"/><path class="cls-9" d="M1512.64,1302.72a8.6,8.6,0,0,1,2.81-6.32,9.69,9.69,0,0,1,12.64-.8c1.19,1,2.56,3.15,4.12,6.47l61.72,132.52c1.5,3.25,2.25,5.71,2.25,7.4a8.68,8.68,0,0,1-2.86,6.36,9.33,9.33,0,0,1-6.79,2.82,9.11,9.11,0,0,1-5.9-2c-1.24-1-2.65-3.15-4.21-6.46l-61.53-132.62C1513.39,1306.87,1512.64,1304.41,1512.64,1302.72Z"/><path class="cls-9" d="M1499.7,1408.83q4.68,2.63,6.23,4.69a8.48,8.48,0,0,1,1.54,5.23,9.81,9.81,0,0,1-2.83,7,9.34,9.34,0,0,1-6.9,3q-2.45,0-7.5-2.81L1410,1381.26a7.89,7.89,0,0,1,0-13.79l80.23-44.61c3.37-1.82,5.87-2.72,7.5-2.72a9.35,9.35,0,0,1,6.83,2.9,9.45,9.45,0,0,1,2.9,6.93,8.5,8.5,0,0,1-1.54,5.25q-1.54,2.05-6.23,4.68l-62.19,34.47Z"/><rect class="cls-9" x="2037.42" y="1179.1" width="25.75" height="25.75"/><rect class="cls-9" x="2037.42" y="1245.76" width="25.75" height="25.75"/><rect class="cls-9" x="2037.42" y="1312.43" width="25.75" height="25.75"/><rect class="cls-9" x="2037.42" y="1379.09" width="25.75" height="25.75"/><rect class="cls-9" x="2037.42" y="1445.75" width="25.75" height="25.75"/><rect class="cls-9" x="2037.42" y="1512.42" width="25.75" height="25.75"/><rect class="cls-9" x="1910.3" y="1184.9" width="102.65" height="7.71"/><rect class="cls-9" x="1952.46" y="1251.74" width="36.57" height="7.71"/><rect class="cls-9" x="1793.32" y="1326.71" width="36.57" height="7.71"/><rect class="cls-9" x="1952.46" y="1386.22" width="36.57" height="7.71"/><rect class="cls-9" x="1899.73" y="1386.22" width="36.57" height="7.71"/><rect class="cls-9" x="1842.86" y="1326.71" width="93.43" height="7.71"/><rect class="cls-9" x="1820.35" y="1386.22" width="61.52" height="7.71"/><rect class="cls-9" x="1845.51" y="1529.15" width="36.57" height="7.71"/><rect class="cls-9" x="1792.79" y="1529.15" width="36.57" height="7.71"/><rect class="cls-9" x="1754.49" y="1529.15" width="20.43" height="7.71"/><rect class="cls-9" x="1820.35" y="1251.74" width="113.78" height="7.71"/><rect class="cls-9" x="1899.73" y="1455.85" width="36.57" height="7.71"/><rect class="cls-9" x="1866.37" y="1455.85" width="21.14" height="7.71"/><rect class="cls-9" x="1790.5" y="1455.85" width="59.71" height="7.71"/><path class="cls-11" d="M1977.19,1742.85c-41.36,10.38-49.38,52.8-87.58,46.36s-54-1.63-59.55-30.71,18.15-32.59,65-44.36C1940.86,1702.65,2038.6,1727.44,1977.19,1742.85Z"/><path class="cls-11" d="M1695.21,2661.57c-87.1,0-28.07-105-8.81-160.19l-82.85-19.49c-22.18,55.27-4.81,110.53-49.4,183.67-31.71,52,5.51,60.35,5.51,60.35H1768.2S1768.2,2661.57,1695.21,2661.57Z"/><path class="cls-12" d="M1695.21,2661.57c-24.74,0-37.67-8.49-43.09-21.88-16.12-3.21-15.46,6.44-26.56,14.62-32.86,24.19-66.54,3.26-71.41,11.25-31.71,52,5.51,60.35,5.51,60.35H1768.2S1768.2,2661.57,1695.21,2661.57Z"/><path class="cls-11" d="M2050.77,2653.8c-70-21.94-118.83-128.71-143.22-185.92l-81.72,33.24c18.59,27.08,64.52,70.74,73.62,164.44,6.48,66.61,24.43,60.35,24.43,60.35h226.49S2120.78,2675.75,2050.77,2653.8Z"/><path class="cls-12" d="M2050.77,2653.8c-21.13-6.62-40.32-21-57.5-39.39-5.17-5.67-10.75,18.69-16.72,26.66-12,16-63.15,22.66-78.6,11.71.77,4.62,1.08,8.44,1.5,12.78,6.48,66.61,24.43,60.35,24.43,60.35h226.49S2120.78,2675.75,2050.77,2653.8Z"/><path class="cls-13" d="M1754.56,2035.79s185.38,477.49,210.69,529.31c0,0-36,40.83-84.9,42.25,0,0-272.23-435.76-297.61-484.7S1754.56,2035.79,1754.56,2035.79Z"/><path class="cls-14" d="M1484.3,1295.69s-24.7,3.91-27.1,25.5,7.34,42.94,7.34,42.94-71.94,11.75-128.76-5.92c0,0,35.37-48.44,32-107.43S1484.3,1295.69,1484.3,1295.69Z"/><path class="cls-11" d="M1428.18,1158.7c21.35-21.64,113.38-43.28,113.38-43.28a384.07,384.07,0,0,1,7.41,52.77c.16,2.62.26,5.25.33,7.86,5.54,14.32,13.46,33.84,17,38s-6.28,10.26-14.27,14.34c1.37,22.78-.06,47.14-17.24,70.25-28.43,38.28-101.65,2.61-120.83-40.15S1406.82,1180.33,1428.18,1158.7Z"/><g class="cls-15"><path class="cls-14" d="M1421.66,1205c.47,19,6.86,47.11,18.51,62.19,12.59,16.29,22.11,20,37,31.83,14.11,11.23,40,25.18,29.94,31.87-3.88,2.58,2.43,9.57-.06,13.52-1.8,2.86-5.14,4.45-8.48,5-8,1.41-16.07-2.18-23.34-5.91a381.61,381.61,0,0,1-82.84-57.47Z"/></g><path class="cls-16" d="M1545.76,1266.89a18.25,18.25,0,0,1-8.27,3.21,22.57,22.57,0,0,1-17.14-4.59,21.06,21.06,0,0,1-3.22-3.11,23,23,0,0,1-2.42-3.72c1.37.66,2.5,1.5,3.74,2.16s2.39,1.39,3.66,1.9a40.84,40.84,0,0,0,15.25,4.1A65.1,65.1,0,0,0,1545.76,1266.89Z"/><ellipse cx="1525.55" cy="1187.79" rx="4.39" ry="10.55"/><path class="cls-16" d="M1512.36,1162.34a2.08,2.08,0,0,1-1.4-3.62c7.9-7.25,20.4-2.37,20.93-2.16a2.08,2.08,0,1,1-1.55,3.87c-.16-.06-10.62-4.09-16.57,1.36A2.06,2.06,0,0,1,1512.36,1162.34Z"/><path class="cls-17" d="M1326,1168.23a.15.15,0,0,0-.07,0,374,374,0,0,0,19.64,48c11,22,25.79,44.26,41.94,48.27,33.74,8.36,48-20.6,42.26-33s-7.56-35.48,7.62-48.27c3.81-3.23,7.13-5.1,10-5.91,4.84-1.32,8.56.33,11.72,3.65,6.39,6.69,10.43,20.21,16.37,30.13,10.69,17.85,14.76,2.32,18.31-25.9s15.14-41,15.14-41v0c51.11-4.77,64.83-36.51,59.31-67.7-3.39-19.12-16.85-30.61-29.19-37.23a87.58,87.58,0,0,0-12.52-5.49l-.29-.09a71,71,0,0,0-9.75-2.72c-7.72-53.66-132.22.2-168.64,34.52C1312.27,1099.07,1309.43,1137.52,1326,1168.23Z"/><path class="cls-18" d="M1460.89,1181.27a13.54,13.54,0,0,1-1.71-.26c6.39,6.69,10.43,20.21,16.37,30.13,10.69,17.85,14.76,2.32,18.31-25.9s15.14-41,15.14-41v0c51.11-4.77,64.83-36.51,59.31-67.7-3.39-19.12-16.85-30.61-29.19-37.23-4.68-2.16-9-4.07-12.52-5.49l-.29-.09c-5.11-2-8.66-3.1-9.75-2.72,0,0,47.26,25.19,42.81,65.16s-54.79,34.06-60.7,43.68S1486.82,1184.24,1460.89,1181.27Z"/><path class="cls-18" d="M1345.6,1216.24c11,22,25.79,44.26,41.94,48.27,33.74,8.36,48-20.6,42.26-33s-7.56-35.48,7.62-48.27c3.81-3.23,7.13-5.1,10-5.91-16.76-7.91-25.18-24.11-28.77-20.53-4.42,4.45,13.34,22.21.75,57C1408.56,1243.87,1367.94,1233.09,1345.6,1216.24Z"/><path class="cls-19" d="M1110.37,1862.65s321.12-31.29,353.81,9.66,301,99.84,345.3,140.08c32.87,29.85,23.42,72.86,16.35,93.08h0s-153.37,446.63-170.69,501.63c0,0-54.25,4.81-90.67-27.79,0,0,55.71-392.34,71-445.31,2.15-7.47,7.49-13.4,15.06-18.08-136.29-.59-319-1.09-410-.09C1084.33,2117.55,1110.37,1937.26,1110.37,1862.65Z"/><g class="cls-20"><path class="cls-21" d="M1474,2116.81s249-22,255-22-32.57,26.65-54.78,28.13,37,23.6,19.25,19.25c-66.63-16.29-74,196.93-119.94,226.54S1474,2116.81,1474,2116.81Z"/></g><path class="cls-22" d="M1240.52,1368s-107.22,20.12-124.8,185.34-24.61,265.41,24.61,270.68,91.39-172.25,91.39-172.25Z"/><path class="cls-22" d="M1468,1361.17c31,1.49,82.25,43,82.25,106.21,0,83.53-15.31,200.17-53,259.26S1531.15,1856.52,1468,1882s-355.83,29-367-13.74,50.28-333.65,67.75-391.19c17.32-57,48.39-98.82,71.82-109S1411.16,1358.43,1468,1361.17Z"/><g class="cls-23"><path class="cls-24" d="M1517.66,1453.71s-76.71-1.57-89.33,45.17c-34.8,128.81-23.2,235.18-37,252.94s-6.91,33.57-48.37,33.57,55.28,13.82,46.4,36.52-23.7,63.18-99.7,71.07-69.1,38.5-69.1,38.5l245.79,26.65,71.07-116.48,7.9-140.17Z"/></g><path class="cls-9" d="M1468,1361.17c-18.88-9.81-35.37-2.67-52.76-19.49-31.13-30.11-79.93-23.51-79.93-23.51l-24.24,41.28S1402.33,1405.86,1468,1361.17Z"/><path class="cls-22" d="M1449.5,1545.07c5.32-83.27-.07-151.9,34.29-164.76,31.67-11.84,83.63,39.27,103.94,107.43,14.82,49.77,22.86,186.17,27.58,276.92,89.94-18.38,240-47.41,240-47.41,31.54,31.47,28.37,90.51,28.37,90.51-122.08,34.58-221.66,67.13-293.39,81-28.84,17.4-72.12,13.94-96.73-43.56C1453.63,1751.86,1444.18,1628.34,1449.5,1545.07Z"/><g class="cls-25"><path class="cls-24" d="M1608.87,1614s6.68,120.34-1.54,138-41.71,50.64-41.71,50.64l41.81-18.92s1.39,24.66-3.84,32.11,27.42-34.39,34.8-40.06,131.67-43.47,131.67-43.47Z"/></g><path class="cls-26" d="M1085.32,2041.88h599.26a0,0,0,0,1,0,0v105.56a4.36,4.36,0,0,1-4.36,4.36H1089.68a4.36,4.36,0,0,1-4.36-4.36V2041.88a0,0,0,0,1,0,0Z" transform="translate(2769.9 4193.68) rotate(-180)"/><path class="cls-27" d="M1367,2189.56h81a1.74,1.74,0,0,1,1.74,1.74v234.84a0,0,0,0,1,0,0h-84.49a0,0,0,0,1,0,0V2191.3A1.74,1.74,0,0,1,1367,2189.56Z" transform="translate(2815.07 4615.69) rotate(-180)"/><rect class="cls-27" x="1381.49" y="2399.85" width="52.09" height="227.02" transform="translate(2815.07 5026.71) rotate(-180)"/><path class="cls-28" d="M1126.51,2729.62c75.6-121.23,253.79-124.54,281-124.32,27.23-.22,205.43,3.09,281,124.32h-39.64s-91.62-74.07-241.38-75.27c-149.76,1.2-241.37,75.27-241.37,75.27Z"/><circle class="cls-26" cx="1670.56" cy="2746.25" r="31.92"/><path class="cls-26" d="M1112.59,2746.25a31.92,31.92,0,1,1,31.92,31.91A31.92,31.92,0,0,1,1112.59,2746.25Z"/><polygon class="cls-27" points="1391.06 2730.34 1424.01 2730.34 1433.58 2605.29 1381.49 2605.29 1391.06 2730.34"/><rect class="cls-26" x="1389.25" y="2714.33" width="36.57" height="63.83" rx="1.02" transform="translate(2815.07 5492.49) rotate(-180)"/><path class="cls-29" d="M887.16,1484.39h310.73a30.56,30.56,0,0,1,30.53,27.78c8.62,94.87,46.13,411.82,175.85,622.72H1690v83.31H1086.26a5.25,5.25,0,0,1-5.25-5.26V2156.1s-164.91-76.59-224.35-637.64A30.75,30.75,0,0,1,887.16,1484.39Z"/><path class="cls-27" d="M855.7,1484.39h310.74a30.58,30.58,0,0,1,30.53,27.78c8.61,94.87,46.12,411.82,175.85,622.72h324.52a5.26,5.26,0,0,1,5.26,5.26v72.79a5.25,5.25,0,0,1-5.25,5.26H1054.81a5.25,5.25,0,0,1-5.26-5.26V2156.1s-164.91-76.59-224.35-637.64A30.75,30.75,0,0,1,855.7,1484.39Z"/><path class="cls-29" d="M3715.14,1424.71H3388.61a32.12,32.12,0,0,0-32.08,29.19c-9.05,99.69-48.47,432.75-184.78,654.36H2871.56v87.54h634.35a5.53,5.53,0,0,0,5.53-5.52v-59.73s173.29-80.48,235.74-670A32.31,32.31,0,0,0,3715.14,1424.71Z"/><path class="cls-27" d="M3748.2,1424.71H3421.67a32.1,32.1,0,0,0-32.08,29.19c-9.05,99.69-48.47,432.75-184.79,654.36h-341a5.52,5.52,0,0,0-5.52,5.53v76.49a5.52,5.52,0,0,0,5.52,5.52H3539a5.52,5.52,0,0,0,5.52-5.52v-59.73s173.29-80.48,235.75-670A32.31,32.31,0,0,0,3748.2,1424.71Z"/><path class="cls-26" d="M2914.83,2010.52h554.44a37.63,37.63,0,0,1,37.63,37.63V2126a0,0,0,0,1,0,0H2877.2a0,0,0,0,1,0,0v-77.88A37.63,37.63,0,0,1,2914.83,2010.52Z"/><path class="cls-27" d="M3123.93,2165.7h88.79a0,0,0,0,1,0,0v246.86a1.74,1.74,0,0,1-1.74,1.74h-85.31a1.74,1.74,0,0,1-1.74-1.74V2165.7A0,0,0,0,1,3123.93,2165.7Z"/><rect class="cls-27" x="3140.95" y="2386.68" width="54.73" height="238.55"/><path class="cls-28" d="M3463.62,2733.21c-79.44-127.39-266.68-130.86-295.3-130.64-28.61-.22-215.86,3.25-295.3,130.64h41.66s96.27-77.83,253.64-79.09c157.37,1.26,253.64,79.09,253.64,79.09Z"/><circle class="cls-26" cx="2891.93" cy="2750.68" r="33.54"/><path class="cls-26" d="M3478.25,2750.68a33.54,33.54,0,1,0-33.54,33.54A33.54,33.54,0,0,0,3478.25,2750.68Z"/><polygon class="cls-27" points="3185.63 2733.97 3151 2733.97 3140.95 2602.57 3195.68 2602.57 3185.63 2733.97"/><rect class="cls-26" x="3149.1" y="2717.14" width="38.43" height="67.07" rx="1.02"/><polygon class="cls-11" points="2539.22 2593.65 2520.09 2639.39 2441.17 2617.81 2460.3 2572.06 2539.22 2593.65"/><path class="cls-19" d="M2218.29,2691l287.35,78.58c3.19-3.31,5.84-8.51,8.1-15,8.37-23.88,11.11-64.89,13.94-90.44.31-3,.63-5.78,1-8.28a85.23,85.23,0,0,1,1.85-10.24c5.4-20-13.2-21.42-13.2-21.42-36.79,20.64-58.15-31.23-81.17-22.43,0,0-9.88,3.68-38.25,18s-70.83,17.31-107.59,22.13c-47.47,6.21-64.37,20.75-70.05,32.4C2215.75,2683.63,2218.29,2691,2218.29,2691Z"/><path class="cls-9" d="M2218.29,2691l287.35,78.58c3.19-3.31,5.84-8.51,8.1-15l-293.49-80.26C2215.75,2683.63,2218.29,2691,2218.29,2691Z"/><path class="cls-30" d="M2476.32,2761.6l8.54,2.34c-5.89-12.09-9.82-29.24-3-50.35,9.07-28.09,31.28-42.61,45.82-49.37.31-3,.63-5.78,1-8.28-15.4,6.29-42.67,21.81-53.55,55.44C2468.6,2731.54,2471.18,2748.62,2476.32,2761.6Z"/><path class="cls-30" d="M2398.18,2638.2a4.92,4.92,0,0,0,3.66-9l-16.75-9.37a4.89,4.89,0,0,0-6.67,1.89,4.94,4.94,0,0,0,1.91,6.7l16.74,9.37A5.32,5.32,0,0,0,2398.18,2638.2Z"/><path class="cls-30" d="M2419,2629.12a4.91,4.91,0,0,0,3.66-9l-16.74-9.38a4.91,4.91,0,1,0-4.77,8.59l16.74,9.38A4.79,4.79,0,0,0,2419,2629.12Z"/><path class="cls-30" d="M2377.4,2643.75a4.92,4.92,0,0,0,3.66-9.05l-16.74-9.37a4.89,4.89,0,0,0-6.67,1.89,4.94,4.94,0,0,0,1.9,6.7l16.75,9.37A4.76,4.76,0,0,0,2377.4,2643.75Z"/><path class="cls-30" d="M2356.74,2648.89a4.89,4.89,0,0,0,5.57-2.34,4.94,4.94,0,0,0-1.91-6.7l-16.74-9.37a4.91,4.91,0,1,0-4.77,8.58l16.74,9.38A4.79,4.79,0,0,0,2356.74,2648.89Z"/><path class="cls-30" d="M2334.66,2652.84a4.91,4.91,0,0,0,3.66-9l-16.74-9.38a4.91,4.91,0,0,0-4.77,8.59l16.74,9.38A4.79,4.79,0,0,0,2334.66,2652.84Z"/><path class="cls-30" d="M2311.29,2655a4.92,4.92,0,0,0,3.66-9l-16.74-9.37a4.89,4.89,0,0,0-6.67,1.89,4.94,4.94,0,0,0,1.9,6.7l16.75,9.37A4.76,4.76,0,0,0,2311.29,2655Z"/><path class="cls-31" d="M3008.53,1883.14s-354,89.55-401.47,129.82-153.23,531.34-153.95,559.1c-.07,2.57,92.33,28.77,92.33,28.77s181.61-380.12,191.61-435.11c0,0,208-25,302.74-80s180-222.78,180-222.78Z"/><path class="cls-9" d="M2463.14,2538.56a479.5,479.5,0,0,1,91.43,30.4c2.91,1.3,5.46-3,2.52-4.32a485.75,485.75,0,0,0-92.62-30.9c-3.13-.71-4.47,4.11-1.33,4.82Z"/><path class="cls-11" d="M3035.1,1407.66c28,7.13,90.16-4.12,157.08-93.9-18.86-7.55-46.9-26.6-48.75-31.21a260.62,260.62,0,0,1-16.6-65.7c-2.84-24-1.34-39.84-1.34-39.84L3044,1216.94s.35,5,1,12.28c1,11.64,2.72,29,4.7,40.77.07.28.1.57.16.86,1.06,6.14,2.11,12.53,2.94,18.51,1.67,11.7,2.43,21.78.77,25.13-2.46,4.93-17.23,18.26-20.81,23.31C2998.49,1385.89,3010.51,1401.39,3035.1,1407.66Z"/><path class="cls-32" d="M3044,1216.94s.35,5,1,12.28c1,11.64,2.72,29,4.7,40.77.07.28.1.57.16.86,1.06,6.14,3,22.07,3.86,28.05,33.22-15,63.54-49.86,73.1-82.05-2.84-24-1.34-39.84-1.34-39.84Z"/><path class="cls-33" d="M3015.19,1033.2c9.7-3.67,8.72-9.26,22.3-19.11,7.67-5.57,42.85-31.09,63.12-4.08,10.93,14.57,8.53,32.43,21.94,45.83,10.25,10.24,15.66,3.82,23.11,10.1,25.63,21.59-6.78,135.06-10.37,143.41-8.13,18.9-6.87,15.37-21.44-10.16-22.11-38.73-34.12-74.53-62.35-59.23-41.11,22.28-61.82,79.51-74,64.81-9.22-11.1-2.51-49.9-12.83-58.36-7.51-6.15-13.73,14.84-25.25,11.73-18.37-5-37.18-43.15-35.18-77.13,2.42-41.11,34.91-69.57,59.39-66.34C2984,1017.35,2993.86,1041.29,3015.19,1033.2Z"/><g class="cls-34"><path class="cls-35" d="M3101.63,1075.35c3-9.53-.44-20.36-7.23-27.69s-16.47-11.49-26.29-13.33a79.34,79.34,0,0,1,6.14,31.38,21.25,21.25,0,0,0-15-14.64c-2.42-.61-5.12-.75-7.3.47-3.62,2-4.45,6.7-6,10.53a22.6,22.6,0,0,1-21.33,13.57c-12.92-.58-22.52-11.93-34.43-17-13.16-5.58-28.53-3.05-41.57,2.79a90,90,0,0,0-49.71,59.25c-2.83,11.24-3.28,23.69,2.22,33.88,8,14.81,26.63,21.69,34,36.83,5.19,10.69,3.72,23.47,7.69,34.66,6.17,17.37,24.48,27.81,42.61,31.1s36.74.95,55.17.95c14.23,0,28.57,1.41,42.63-.78s26.78-45.33,34.31-57.41c6.54-10.52,16.5,4,16.32-8.39-.57-40.57,5.14-69.24-10.88-103.48-9.53-20.38-19.54-18.42-23.38-22.73s-10.13-7-15.54-4.94Z"/></g><path class="cls-11" d="M3121.69,1149.28S3074,1133,3062,1077.8c-4.35,18.66-56.83,44.13-56.83,44.13l19-36.77s-38.91,35.64-55.6,37.06c-4.27,28.94,2.1,102.77,10.54,114.26s44.12,55.55,57.57,50.94,71-39.74,74.09-54.54a228.9,228.9,0,0,1,9.39-30.91s43-11.26,30.45-49.7S3121.69,1149.28,3121.69,1149.28Z"/><ellipse class="cls-36" cx="3078.45" cy="1188.67" rx="25.76" ry="9.81" transform="matrix(0.99, -0.16, 0.16, 0.99, -152.57, 517.64)"/><path class="cls-14" d="M3124.32,1181.37a24.82,24.82,0,0,1-3-12.18,14.48,14.48,0,0,1,5.46-11,9,9,0,0,1,6.42-1.85,7.12,7.12,0,0,1,3.34,12.7c-.39.3-.85.63-.89,1.12s.34.84.65,1.19a6.37,6.37,0,0,1,.6,7.29c-1.12,1.83-3.1,2.93-5,3.85a8.41,8.41,0,0,1-4.51,1.08c-1.55-.21-3.07-1.54-2.91-3.1Z"/><g class="cls-37"><path class="cls-14" d="M3018.37,1133.74a108.43,108.43,0,0,0,3.4-21.78c-3.08,1-5.17,3.78-7.31,6.22-14.85,17-41.24,22.63-61.74,13.21a3.34,3.34,0,0,1-1.7-1.31c-.51-1,0-2.17.57-3.15a221,221,0,0,1,47.32-58.47c15-13.17,33.17-24.7,53.15-24.81l15.46,27C3067.51,1099.37,3046.2,1126.71,3018.37,1133.74Z"/><path class="cls-14" d="M3124.22,1165.52s0,.09,0,.13v0Z"/></g><path class="cls-38" d="M3051.46,1122.85a13.3,13.3,0,0,1,3.14-5,19.38,19.38,0,0,1,4.86-3.64,24.24,24.24,0,0,1,11.81-2.56,33.83,33.83,0,0,1,6,.6c1,.17,1.92.47,2.87.73s1.9.51,2.82.85c1.81.76,3.62,1.47,5.34,2.38s3.36,2,4.93,3.11c-2-.29-3.8-.75-5.64-1.19s-3.7-.71-5.5-1.14c-1.83-.28-3.64-.59-5.44-.83a51.86,51.86,0,0,0-5.39-.35,30.78,30.78,0,0,0-10.47,1.4A23.54,23.54,0,0,0,3051.46,1122.85Z"/><path class="cls-38" d="M2976.33,1127.3a13.37,13.37,0,0,1,3.15-5,18.84,18.84,0,0,1,4.86-3.65,24.29,24.29,0,0,1,11.8-2.56,34.81,34.81,0,0,1,6,.61c1,.16,1.92.47,2.87.72s1.91.51,2.82.86c1.81.76,3.63,1.47,5.34,2.38s3.36,2,4.93,3.11c-1.95-.3-3.8-.75-5.63-1.19s-3.7-.72-5.5-1.14-3.64-.59-5.45-.84a51.48,51.48,0,0,0-5.39-.34,30.72,30.72,0,0,0-10.46,1.39A23.6,23.6,0,0,0,2976.33,1127.3Z"/><path class="cls-38" d="M3019.55,1150.08a60.31,60.31,0,0,1,2,17.32,47.37,47.37,0,0,1-1,8.83,30.86,30.86,0,0,1-3.1,8.6,21.61,21.61,0,0,1-2.8,3.87,15.75,15.75,0,0,1-1.81,1.64l-.94.72-.78.56a10.22,10.22,0,0,0-2.43,2.56,7.45,7.45,0,0,0-.36.68,6.22,6.22,0,0,0-.19.71,3.63,3.63,0,0,0,0,1.47,7.49,7.49,0,0,0,1.67,3.11,17.5,17.5,0,0,0,2.91,2.78,31.21,31.21,0,0,0,3.46,2.39,23.58,23.58,0,0,0,3.82,1.93,16.35,16.35,0,0,1-4.3-.87,29.13,29.13,0,0,1-4.09-1.73,19.57,19.57,0,0,1-3.77-2.61,9.74,9.74,0,0,1-2.83-4.12,7.09,7.09,0,0,1,.44-5.46,12.83,12.83,0,0,1,3.18-3.9l1.67-1.35a11.67,11.67,0,0,0,1.33-1.3,18,18,0,0,0,2.2-3.12c2.53-4.59,3.69-10.12,4.48-15.65S3019.36,1155.87,3019.55,1150.08Z"/><ellipse class="cls-33" cx="3060.47" cy="1160.14" rx="5.83" ry="11.04" transform="translate(-38.78 107.97) rotate(-2.01)"/><ellipse class="cls-33" cx="2997.97" cy="1166.22" rx="5.83" ry="11.04" transform="translate(-39.03 105.79) rotate(-2.01)"/><path class="cls-9" d="M2979,1214.68a32.11,32.11,0,1,1,35.31-28.56A32.15,32.15,0,0,1,2979,1214.68Zm6.34-59.88a28.11,28.11,0,1,0,25,30.9A28.13,28.13,0,0,0,2985.37,1154.8Z"/><path class="cls-9" d="M3048.55,1204.74a32.11,32.11,0,1,1,35.31-28.56A32.16,32.16,0,0,1,3048.55,1204.74Zm6.33-59.89a28.11,28.11,0,1,0,25,30.91A28.13,28.13,0,0,0,3054.88,1144.85Z"/><path class="cls-9" d="M3011.88,1179.74a2,2,0,0,1-.21-4l9.25-2a2,2,0,1,1,.85,3.92l-9.25,2A2,2,0,0,1,3011.88,1179.74Z"/><path class="cls-9" d="M3082.59,1169.14a2,2,0,0,1-1.43-.84,2,2,0,0,1,.49-2.79l45.13-31.91a2,2,0,0,1,2.3,3.27L3084,1168.78A2,2,0,0,1,3082.59,1169.14Z"/><path class="cls-38" d="M3051.84,1219.58a24.21,24.21,0,0,1-4.66,8.66,27.83,27.83,0,0,1-7.59,6.51,23.49,23.49,0,0,1-9.62,3.14,19.4,19.4,0,0,1-9.77-1.53,51.44,51.44,0,0,0,9.17-1.69,37.44,37.44,0,0,0,8.13-3.52,52.17,52.17,0,0,0,7.35-5.2C3047.21,1224,3049.49,1221.87,3051.84,1219.58Z"/><path class="cls-14" d="M2902.12,1886l-43-41.63c6.93-17.05,46.8-115,56.57-134.31,10.71-21.15,10.13-175.59,10.13-175.59l139.19,15s-40.58,138.69-52.52,183.59-96.2,151.7-96.2,151.7Z"/><path class="cls-39" d="M3027.78,1664.5s0-10.62-.42-27.72c-1.69-72.9-10.61-263.78-57.67-254.63,0,0-17.75,6.45-27.44,27.43-8.63,18.73-31.43,112-53.42,153.63a86.6,86.6,0,0,1-7.87,12.53C2856.76,1606.4,3027.78,1664.5,3027.78,1664.5Z"/><path class="cls-9" d="M3027.78,1664.5s0-10.62-.42-27.72c-29.06-10-114.55-41.41-138.53-73.57a86.6,86.6,0,0,1-7.87,12.53C2856.76,1606.4,3027.78,1664.5,3027.78,1664.5Z"/><path class="cls-40" d="M3174.59,1297.62l82.28,31.62,92,231.9s-21,103.9-14.52,129.5S3373,1859.3,3373,1859.3s-114.55,36.14-151.66,39.15-209.74-21.08-209.74-21.08-9.68-253-19.36-277.08-35.5-204.79-35.5-204.79,2.49-29.53,66.15-58.73c15-6.88,22.59,97.88,66.15,43.67C3100.36,1366.4,3157.58,1293.44,3174.59,1297.62Z"/><g class="cls-41"><path class="cls-9" d="M3113.85,1388.34c-27.86,41.05-54.25,35.19-68.91,16.13s-44-98.24-44-98.24,190.61-41.06,211.14-14.66C3216.94,1297.8,3141.71,1347.28,3113.85,1388.34Z"/><path class="cls-9" d="M3141.71,1589.22c54.73-1.22,219.94-52.79,234.6-52.79l2.93,36.66s-206.74,52.78-241.93,52.78-187.68,4.4-187.68,4.4l-5.87-32.26S3075.73,1590.68,3141.71,1589.22Z"/><path class="cls-9" d="M3371.91,1624.41l-10.26,36.65s-117.3,16.13-165.69,32.26-217,13.2-217,13.2l-2.93-29.33s115.84-4.4,181.82-5.86S3361.65,1624.41,3371.91,1624.41Z"/><g class="cls-42"><path class="cls-43" d="M3270.74,1341.42c3.55,67.91-93.84-39.59-77.71,110,3.09,28.7,42.14,89.49,52.57,116.41a375.81,375.81,0,0,1,19.53,69.82c2.31,13,3.83,26.91-1.45,39-9.2,21.07-34.76,28.75-57.38,32.86a698.56,698.56,0,0,1-105.62,11,385.07,385.07,0,0,0,144.74,8.51c10.35-1.37,22-2.83,30.21,3.6,7.22,5.65,9.28,15.55,10.64,24.62q4.11,27.39,5.69,55.08c.42,7.48.57,15.51-3.5,21.8-3.09,4.77-8.16,7.82-13.11,10.61A458.12,458.12,0,0,1,3020,1902.11c29.18,17.61,64.62,20.19,98.48,24.1A978.19,978.19,0,0,1,3224,1944.27c48.51,11,99.16,25.82,147,12.25,26.39-7.49,49.77-23.18,70.55-41.1,34.95-30.15,65.36-71.74,63.13-117.85-2.16-44.62-33.64-81.37-56.61-119.69a346.33,346.33,0,0,1-46.8-214.17c6.39-58,27.52-116.36,15-173.37-.93-4.2-2.06-8.44-4.37-12.08Z"/></g></g><polygon class="cls-11" points="2964.64 2631.18 2958.29 2680.35 2876.48 2680.41 2882.82 2631.24 2964.64 2631.18"/><path class="cls-19" d="M2680.9,2810l297.9-.23c2.2-4,3.39-9.76,3.85-16.58,1.76-25.23-6.44-65.51-10.48-90.9-.49-3-.91-5.74-1.24-8.24a87,87,0,0,1-.93-10.37c-.08-20.73-18.39-17.16-18.39-17.16-30,29.63-64.34-14.74-84.21-.17,0,0-8.56,6.17-32.12,27.5s-63.73,35.43-97.91,49.81c-44.13,18.54-56.59,37-59,49.77C2676.5,2803.52,2680.9,2810,2680.9,2810Z"/><path class="cls-9" d="M2680.9,2810l297.9-.23c2.2-4,3.39-9.76,3.85-16.58l-304.26.24C2676.5,2803.52,2680.9,2810,2680.9,2810Z"/><path class="cls-30" d="M2948.41,2809.79h8.85c-8.87-10.1-17.2-25.59-16.21-47.76,1.31-29.48,18.89-49.37,31.12-59.73-.49-3-.91-5.74-1.24-8.24-13.19,10.13-35.38,32.31-37,67.62C2933,2782.84,2940,2798.62,2948.41,2809.79Z"/><path class="cls-30" d="M2840.4,2711.45a4.91,4.91,0,0,0,1.14-9.69l-18.63-4.61a4.91,4.91,0,1,0-2.32,9.54l18.62,4.61A4.91,4.91,0,0,0,2840.4,2711.45Z"/><path class="cls-30" d="M2858,2697.21a4.91,4.91,0,0,0,1.14-9.69l-18.62-4.62a4.92,4.92,0,1,0-2.33,9.55l18.63,4.61A5.3,5.3,0,0,0,2858,2697.21Z"/><path class="cls-30" d="M2821.84,2722.3a4.92,4.92,0,0,0,1.14-9.69l-18.63-4.61a4.87,4.87,0,0,0-5.93,3.59,4.93,4.93,0,0,0,3.6,5.95l18.63,4.61A4.91,4.91,0,0,0,2821.84,2722.3Z"/><path class="cls-30" d="M2803.27,2732.73a4.91,4.91,0,0,0,1.14-9.69l-18.63-4.61a4.88,4.88,0,0,0-5.93,3.59,4.93,4.93,0,0,0,3.61,5.95l18.63,4.61A4.77,4.77,0,0,0,2803.27,2732.73Z"/><path class="cls-30" d="M2783,2742.38a4.91,4.91,0,0,0,1.14-9.69l-18.63-4.62a4.91,4.91,0,0,0-2.32,9.55l18.62,4.61A4.91,4.91,0,0,0,2783,2742.38Z"/><path class="cls-30" d="M2761.05,2750.61a4.91,4.91,0,0,0,1.14-9.69l-18.63-4.61a4.88,4.88,0,0,0-5.93,3.59,4.93,4.93,0,0,0,3.61,5.95l18.62,4.61A4.91,4.91,0,0,0,2761.05,2750.61Z"/><path class="cls-12" d="M2862.93,2643.91c45.27,5.28,101.8,3,108.58,2.72l.67,0c19.54-177,62.83-397.9,53.43-475.5,0,0,223.26-28.68,297.47-83.83,8-5.95,14.32-12.21,18.38-18.8,37.12-60,13.62-203.92,13.62-203.92l-199.86,21s-215,116.22-282.83,185.09C2803.56,2140.47,2862.93,2643.91,2862.93,2643.91Z"/><path class="cls-31" d="M2971.51,2646.63l.67,0c19.54-177,62.83-397.9,53.43-475.5,0,0,223.26-28.68,297.47-83.83-35.84,13.91-222.43,89.43-289.86,69.38-66.49-59.13-20.53,16.15-20.53,16.15s9.66,38.14,3.9,68.41C3010.72,2272,2977.87,2571.37,2971.51,2646.63Z"/><path class="cls-9" d="M2864.68,2619.08q53.73-2,107.49-2c3.22,0,3.22-5,0-5q-53.76,0-107.49,2c-3.21.12-3.22,5.12,0,5Z"/><path class="cls-13" d="M3187.25,1934.41l-368,59.65a1.29,1.29,0,0,1-1.49-1.07l-7.41-45.74a1.28,1.28,0,0,1,1.07-1.48l368-59.65a1.28,1.28,0,0,1,1.48,1.07l7.42,45.73A1.3,1.3,0,0,1,3187.25,1934.41Z"/><path class="cls-13" d="M2779.24,2000.54a31.2,31.2,0,0,1-33.45-18l-111.38-248.32a25.31,25.31,0,0,1,19-35.34l165.94-26.9a25.31,25.31,0,0,1,27,14.33l131,282.15Z"/><path class="cls-44" d="M2846.41,1686.29l129.86,279.82,19-3.07-129.86-279.83a25.35,25.35,0,0,0-27-14.34l-19,3.07A25.36,25.36,0,0,1,2846.41,1686.29Z"/><path class="cls-44" d="M2822.69,1836.78c6.41,15.69-1.6,30.55-17.9,33.19s-34.72-7.94-41.13-23.63,1.6-30.55,17.9-33.19S2816.28,1821.09,2822.69,1836.78Z"/><path class="cls-11" d="M3091.31,1958.8a10.27,10.27,0,0,0,5.82-1.69.53.53,0,0,1,.13-.1c8.53-5.14,17.13-20.17,30.59-26,6.37-2.72,11.83-4.7,16.21-6.1a1.58,1.58,0,0,1,1.67.32,1.76,1.76,0,0,1-.13,2.84c-8.31,5.79-16.95,13.69-26.79,31.08-12.47,22-7.61,36-1.47,35.07h0a4.54,4.54,0,0,0,1.76-.7c6.81-4.29,12.53-9.31,21.9-26.86,7.06-13.3,21-22.51,27.37-26.18l.06,0c1.76-1,2.91-1.63,3.17-1.75-9.63,7.38-35.11,40.5-34.15,56.2.77,12,8.41,13.18,14.87,7.23a24.85,24.85,0,0,0,5.49-7.58c3.36-6.84,12.6-16.66,20.72-24.52a2.38,2.38,0,0,1,3.71,2.91l0,0a3.67,3.67,0,0,0-.26.42c-2.68,4.44-5.43,9.3-7.57,13.78-1,2.07-6.53,19.53,8.85,12.27,10.39-4.92,25.93-26.53,42.46-40.92,6.88-6,17.24-10.84,27-14.39a40.17,40.17,0,0,0,10.71-6,37.77,37.77,0,0,0,15.85-8.31l7.45-6.59,7.23-6.49c4.76-4.35,9.46-8.73,14.2-13.14,9.36-8.83,18.57-17.84,27.75-27s18.1-18.44,27-27.94,17.64-19.25,26.28-29.19c4.31-5,8.63-10,12.85-15.19s8.41-10.42,12.56-15.79c8.29-10.74,16.41-21.9,24.27-34,3.9-6.11,7.71-12.47,11.42-19.28a206.53,206.53,0,0,0,10.64-22.44,130.93,130.93,0,0,0,8.38-30.09,94.16,94.16,0,0,0,.64-21.9c-.06-1-.22-2.18-.35-3.26s-.29-2.21-.51-3.39l-.32-1.73-.26-1.25-.32-1.5c-.41-2-.83-4.06-1.31-6a312.3,312.3,0,0,0-13.94-43.9c-5.44-13.65-11.35-26.63-17.78-39.07-6.52-12.66-13.33-24.87-20.46-36.74-6.84-11.51-14-22.66-21.36-33.6-6.14-9.17-12.47-18.19-18.89-27-9.15-12.63-18.55-24.94-28.17-37-8.25-10.27-16.56-20.43-25.16-30.41-4.32-5-8.64-9.94-13.08-14.9l-6.75-7.38-6.14-6.59c-23-24.56-62.63-26.76-86.93-3.55a60.38,60.38,0,0,0-3.23,84l1.15,1.28,5.5,6.14,5.82,6.62q5.85,6.66,11.67,13.43c7.74,9.08,15.48,18.16,23,27.43q9.78,11.89,19.25,24,12.46,15.91,24.2,32.1c13.62,19,26.6,38.14,37.66,57.39q2.36,4.13,4.61,8.18c3.77,6.85,7.32,13.66,10.48,20.37a206.18,206.18,0,0,1,10.68,27.14c.29.9.51,1.73.74,2.56-.13.61-.29,1.22-.45,1.86a102.41,102.41,0,0,1-4.35,12c-1.88,4.44-4.09,9.08-6.52,13.81-4.8,9.53-10.42,19.38-16.47,29.19q-4.55,7.39-9.4,14.77t-9.81,14.84c-6.68,9.91-13.65,19.73-20.75,29.54s-14.29,19.66-21.68,29.38-14.83,19.51-22.35,29.23l-11.35,14.48-5.66,7.19-5.56,7-.64.76a39.17,39.17,0,0,0-2.3,3.36c-11.61-2.88-33-7.48-41.92-5.21-9.88,2.52-24.75,2-30.05,5.72a4.08,4.08,0,0,0-1.92,4.32c.67,3.87,6.2,6.33,12.08,7.86-.54.16-1.15.36-1.72.52a.15.15,0,0,0-.07,0c-4.73,1.37-9.59,2.84-14.51,4.38-19.6,6.2-27.69,14.74-40,25S3080.28,1958.26,3091.31,1958.8Zm268.86-289.25c.22,0,.13,1.6-.32,3.77l0-.64C3359.72,1670.41,3360,1669.61,3360.17,1669.55Z"/><path class="cls-32" d="M3271.06,1526.06q12.46,15.93,24.2,32.11c13.62,19,26.6,38.14,37.66,57.39,1.57,2.75,3.11,5.46,4.61,8.18,44.44-27.78,66.47-70.79,76.89-100-6.84-11.51-14-22.67-21.36-33.6-6.13-9.18-12.46-18.19-18.89-27.05Z"/><path class="cls-32" d="M3152.09,2002a25,25,0,0,0,5.5-7.58c3.35-6.84,12.59-16.66,20.71-24.52a2.38,2.38,0,0,1,3.71,2.91c.77-.87,14.55-16.79,10.27-20.11s-13.21,10.74-18.58,15.63C3168.55,1973,3155.35,1983.5,3152.09,2002Z"/><path class="cls-32" d="M3117.11,1994.08a4.7,4.7,0,0,0,1.76-.7c6.81-4.29,12.53-9.31,21.9-26.86,7.06-13.3,21-22.51,27.37-26.19l.06,0,1.12-.83s5.37-7.32-3.93-3.42-19.06,13.2-22.48,20.53C3140,1962.91,3127.88,1986,3117.11,1994.08Z"/><path class="cls-32" d="M3097,1956.83c8.53-5.15,17.14-20.17,30.6-26,6.36-2.72,11.83-4.7,16.21-6.11a1.61,1.61,0,0,1,1.66.32c1.82-3.39,1.15-8-7.93-6.14-9.27,2-16.12,9.28-21.52,14.17C3112.15,1936.63,3105.28,1949.73,3097,1956.83Z"/><path class="cls-32" d="M3148.25,1886.08c.67,3.87,6.2,6.33,12.09,7.86l-1.73.51c12.44-.89,36.67-2.78,41-3.87,5.88-1.47-15.64-2.43-29.8.52-10.49,2.14-17-5.31-19.63-9.34A4.1,4.1,0,0,0,3148.25,1886.08Z"/><path class="cls-40" d="M3192.34,1445.07c6.24,35,46.65,90.35,77.31,131.73,1.25,1.66,9.21,11,11.42,13.74.19.26.35.45.44.58,14.9,19.89,19,28.3,19,28.3,52.78-33,78.94-53.49,102.12-91,1.15-1.85,2.27-3.74,3.32-5.63a134.58,134.58,0,0,0,15.44-40.41c-5.14-8.34-10.45-16.31-15.85-23.88a442.21,442.21,0,0,0-91-94.8c-1.85-1.44-3.68-2.78-5.47-4.13-27.94-20.71-47.64-29.83-47.64-29.83a139.33,139.33,0,0,0-47.28,24.75c-1.67,1.34-3.3,2.75-4.86,4.19C3181.66,1383.52,3185.92,1409.13,3192.34,1445.07Z"/><path class="cls-9" d="M3281.07,1590.54c.19.26.35.45.44.58,14.9,19.89,19,28.3,19,28.3,52.78-33,78.94-53.49,102.12-91,1.15-1.85,2.27-3.74,3.32-5.63a134.58,134.58,0,0,0,15.44-40.41c-5.14-8.34-10.45-16.31-15.85-23.88-7.74,19.31-22.67,54.48-33.13,64.26C3361.25,1533.15,3306.65,1572.35,3281.07,1590.54Z"/></g></svg>