<svg width="1500" height="1000" viewBox="0 0 1500 1000" fill="none" xmlns="http://www.w3.org/2000/svg">
<g clip-path="url(#clip0)">
<rect width="1500" height="1000" fill="#182328"/>
<path d="M438.875 6.84801C458.864 49.196 458.864 49.196 540.525 65.3728C622.187 81.5497 622.187 81.5497 676.664 23.0248C731.142 -35.5 731.142 -35.5 575.014 -35.5C418.887 -35.5 418.887 -35.5 438.875 6.84801Z" fill="#E67E17"/>
<path d="M13.8462 1023.22C26.0734 1010.93 26.0734 1010.93 150.495 762.059C274.916 513.185 274.916 513.185 299.619 238.843C324.322 -35.5 324.322 -35.5 135.536 -35.5C-53.25 -35.5 -53.25 -35.5 -53.25 500C-53.25 1035.5 -53.25 1035.5 -25.8155 1035.5C1.61893 1035.5 1.61893 1035.5 13.8462 1023.22Z" fill="#3D5866"/>
<path d="M360.704 383.758C438.14 267.111 438.14 267.111 445.447 160.085C452.754 53.0602 452.754 53.0602 431.853 8.78008C410.953 -35.5 410.953 -35.5 371.238 -35.5C331.523 -35.5 331.523 -35.5 307.395 232.453C283.268 500.405 283.268 500.405 360.704 383.758Z" fill="#E67E17"/>
<path d="M525.782 222.145C605.907 182.008 605.907 182.008 612.659 135.167C619.411 88.3257 619.411 88.3257 539.553 72.506C459.694 56.6863 459.694 56.6862 452.676 159.484C445.657 262.282 445.657 262.282 525.782 222.145Z" fill="#3D5866"/>
<path d="M649.593 204.059C686.101 225.608 686.101 225.608 774.89 95.0542C863.678 -35.5 863.678 -35.5 802.316 -35.5C740.954 -35.5 740.954 -35.5 683.897 25.7957C626.84 87.0914 626.84 87.0914 619.963 134.801C613.085 182.511 613.085 182.511 649.593 204.059Z" fill="#25353D"/>
<path d="M698.421 242.764C705.44 254.956 705.44 254.956 786.236 256.335C867.032 257.713 867.032 257.713 874.433 111.107C881.835 -35.5 881.835 -35.5 877.094 -35.5C872.353 -35.5 872.353 -35.5 781.877 97.5356C691.401 230.571 691.401 230.571 698.421 242.764Z" fill="#E67E17"/>
<path d="M900.378 308.336C926.684 356.145 926.684 356.145 935.37 359.548C944.057 362.951 944.057 362.951 1101.94 348.338C1259.82 333.725 1259.82 333.725 1379.29 278.284C1498.76 222.842 1498.76 222.842 1526.01 203.226C1553.25 183.609 1553.25 183.609 1553.25 74.0547C1553.25 -35.5 1553.25 -35.5 1221.13 -35.5C889.017 -35.5 889.017 -35.5 881.545 112.513C874.072 260.526 874.072 260.526 900.378 308.336Z" fill="#E67E17"/>
<path d="M189.584 904.267C341.027 805.695 341.027 805.695 348.822 799.405C356.618 793.115 356.618 793.115 483.768 659.387C610.917 525.66 610.917 525.66 655.177 392.287C699.437 258.913 699.437 258.913 691.986 245.971C684.535 233.029 684.535 233.029 646.791 210.75C609.047 188.472 609.047 188.472 526.578 229.783C444.108 271.095 444.108 271.095 362.82 393.544C281.533 515.994 281.533 515.994 159.837 759.416C38.1404 1002.84 38.1404 1002.84 189.584 904.267Z" fill="#E67E17"/>
<path d="M769.809 438.826C919.285 357.587 919.285 357.587 893.793 311.257C868.301 264.926 868.301 264.926 787.111 263.541C705.921 262.156 705.921 262.156 663.127 391.111C620.334 520.065 620.334 520.065 769.809 438.826Z" fill="#3D5866"/>
<path d="M652.556 674.974C932.166 563.585 932.166 563.585 936.012 466.304C939.857 369.023 939.857 369.023 932.136 365.999C924.415 362.974 924.415 362.974 770.345 446.71C616.275 530.446 616.275 530.446 494.611 658.405C372.946 786.363 372.946 786.363 652.556 674.974Z" fill="#3D5866"/>
<path d="M951.664 572.852C964.012 581.467 964.012 581.467 1014.21 564.957C1064.41 548.447 1064.41 548.447 1152.49 454.526C1240.57 360.606 1240.57 360.606 1247.05 351.066C1253.52 341.526 1253.52 341.526 1100.26 355.711C946.998 369.897 946.998 369.897 943.157 467.067C939.315 564.237 939.315 564.237 951.664 572.852Z" fill="#3D5866"/>
<path d="M1076.57 616.81C1083.02 680.777 1083.02 680.777 1098.28 681.86C1113.54 682.943 1113.54 682.943 1173.36 530.965C1233.18 378.987 1233.18 378.987 1151.65 465.915C1070.13 552.844 1070.13 552.844 1076.57 616.81Z" fill="#3D5866"/>
<path d="M988.407 643.664C1008.74 699.627 1008.74 699.627 1010.1 700.491C1011.47 701.355 1011.47 701.355 1043.68 691.466C1075.89 681.578 1075.89 681.578 1069.59 618.982C1063.28 556.387 1063.28 556.387 1015.68 572.044C968.071 587.7 968.071 587.701 988.407 643.664Z" fill="#25353D"/>
<path d="M1127.19 690.3C1134.11 695.192 1134.11 695.192 1198.82 689.689C1263.52 684.186 1263.52 684.186 1378.1 458.888C1492.67 233.589 1492.67 233.589 1377.92 286.84C1263.17 340.091 1263.17 340.091 1254.87 352.322C1246.57 364.553 1246.57 364.553 1183.42 524.98C1120.28 685.408 1120.28 685.408 1127.19 690.3Z" fill="#25353D"/>
<path d="M678.42 751.03C1000.93 699.147 1000.93 699.147 980.691 643.444C960.449 587.74 960.449 587.74 947.818 578.928C935.186 570.115 935.186 570.115 648.032 684.51C360.877 798.905 360.877 798.905 358.393 800.909C355.908 802.914 355.908 802.914 678.42 751.03Z" fill="#25353D"/>
<path d="M1276.12 725.779C1282.69 763.397 1282.69 763.397 1417.97 776.914C1553.25 790.431 1553.25 790.431 1553.25 491.445C1553.25 192.46 1553.25 192.46 1528.31 210.414C1503.38 228.369 1503.38 228.369 1386.47 458.265C1269.55 688.16 1269.55 688.16 1276.12 725.779Z" fill="#3D5866"/>
<path d="M1141.72 735.064C1146.27 767.985 1146.27 767.985 1197.48 796.855C1248.68 825.724 1248.68 825.724 1262.29 795.972C1275.9 766.219 1275.9 766.219 1269.37 728.837C1262.85 691.455 1262.85 691.455 1200.01 696.799C1137.18 702.143 1137.18 702.143 1141.72 735.064Z" fill="#3D5866"/>
<path d="M1019.31 805.915C1023.96 903.939 1023.96 903.939 1081.57 836.537C1139.19 769.135 1139.19 769.135 1134.48 735.028C1129.77 700.921 1129.77 700.921 1122.22 695.575C1114.66 690.229 1114.66 690.229 1097.41 689.005C1080.17 687.781 1080.17 687.781 1047.41 697.836C1014.65 707.892 1014.65 707.892 1019.31 805.915Z" fill="#E67E17"/>
<path d="M1003.76 974.172C1017.2 912.845 1017.2 912.845 1012.32 810.077C1007.44 707.309 1007.44 707.309 1006.23 706.539C1005.02 705.769 1005.02 705.769 674.734 758.903C344.451 812.037 344.451 812.037 187.871 913.952C31.2906 1015.87 31.2906 1015.87 21.5198 1025.68C11.749 1035.5 11.7489 1035.5 501.04 1035.5C990.331 1035.5 990.331 1035.5 1003.76 974.172Z" fill="#3D5866"/>
<path d="M1245.89 934.182C1246.71 832.864 1246.71 832.864 1195.24 803.844C1143.77 774.824 1143.77 774.824 1083.94 844.814C1024.11 914.804 1024.11 914.804 1010.89 975.152C997.674 1035.5 997.674 1035.5 1121.37 1035.5C1245.06 1035.5 1245.06 1035.5 1245.89 934.182Z" fill="#25353D"/>
<path d="M1417.53 784.093C1281.81 770.533 1281.81 770.533 1267.85 801.051C1253.9 831.57 1253.9 831.57 1253.06 933.534C1252.23 1035.5 1252.23 1035.5 1402.74 1035.5C1553.25 1035.5 1553.25 1035.5 1553.25 916.576C1553.25 797.654 1553.25 797.654 1417.53 784.093Z" fill="#3D5866"/>
</g>
<defs>
<clipPath id="clip0">
<rect width="1500" height="1000" fill="white"/>
</clipPath>
</defs>
</svg>
