<svg width="1500" height="1000" viewBox="0 0 1500 1000" fill="none" xmlns="http://www.w3.org/2000/svg">
<g clip-path="url(#clip0)">
<rect width="1500" height="1000" fill="#182328"/>
<path d="M183.657 150.732C420.564 58.8647 420.564 58.8647 453.667 16.7814C486.77 -25.3019 486.77 -25.3019 488.507 -30.4011C490.245 -35.5002 490.245 -35.5002 218.497 -35.5002C-53.25 -35.5002 -53.25 -35.5002 -53.25 103.549C-53.25 242.599 -53.25 242.599 183.657 150.732Z" fill="#E67E17"/>
<path d="M723.017 55.1591C781.868 145.818 781.868 145.818 889.471 177.393C997.073 208.968 997.073 208.968 1137.06 156.783C1277.05 104.598 1277.05 104.598 1374.89 34.549C1472.73 -35.5002 1472.73 -35.5002 1068.45 -35.5002C664.166 -35.5002 664.166 -35.5002 723.017 55.1591Z" fill="#25353D"/>
<path d="M631.296 67.5699C662.641 170.64 662.641 170.64 718.195 158.563C773.748 146.486 773.748 146.486 714.68 55.4929C655.612 -35.5002 655.612 -35.5002 627.781 -35.5002C599.951 -35.5002 599.951 -35.5002 631.296 67.5699Z" fill="#3D5866"/>
<path d="M530.766 144.649C567.847 312.65 567.847 312.65 612.055 243.482C656.262 174.314 656.262 174.314 624.358 69.4067C592.454 -35.5002 592.454 -35.5002 545.139 -35.5002C497.825 -35.5002 497.825 -35.5002 495.755 -29.4258C493.685 -23.3514 493.685 -23.3514 530.766 144.649Z" fill="#E67E17"/>
<path d="M153.233 640.938C359.716 533.2 359.716 533.2 389.089 300.294C418.462 67.3878 418.462 67.3878 182.606 158.847C-53.25 250.307 -53.25 250.307 -53.25 499.492C-53.25 748.677 -53.25 748.677 153.233 640.938Z" fill="#E67E17"/>
<path d="M388.933 522.786C410.55 515.331 410.55 515.331 474.803 470.214C539.056 425.096 539.056 425.096 550.795 373.479C562.533 321.862 562.533 321.862 525.315 153.241C488.096 -15.3804 488.096 -15.3804 457.15 23.9612C426.204 63.3027 426.204 63.3027 396.76 296.772C367.316 530.241 367.316 530.241 388.933 522.786Z" fill="#3D5866"/>
<path d="M597.223 417.663C647.585 412.195 647.585 412.195 789.006 337.179C930.428 262.164 930.428 262.164 960.025 238.218C989.623 214.273 989.623 214.273 884.54 183.437C779.457 152.602 779.457 152.602 720.923 165.327C662.389 178.052 662.389 178.052 615.978 250.669C569.566 323.286 569.566 323.286 558.213 373.208C546.86 423.131 546.86 423.131 597.223 417.663Z" fill="#25353D"/>
<path d="M749.394 481.108C843.238 546.116 843.238 546.116 857.798 540C872.357 533.884 872.357 533.884 899.842 402.911C927.327 271.939 927.327 271.939 791.438 344.019C655.55 416.1 655.55 416.1 749.394 481.108Z" fill="#25353D"/>
<path d="M949.963 543.871C1020.15 554.27 1020.15 554.27 1034.88 541.205C1049.6 528.141 1049.6 528.141 1160.35 321.313C1271.1 114.486 1271.1 114.486 1135.05 165.201C999.008 215.916 999.008 215.916 967.334 241.542C935.659 267.168 935.659 267.168 907.717 400.32C879.775 533.472 879.775 533.472 949.963 543.871Z" fill="#25353D"/>
<path d="M596.5 609.244C773.876 700.401 773.876 700.401 796.575 700.324C819.275 700.247 819.275 700.247 829.123 626.073C838.971 551.898 838.971 551.898 743.342 485.654C647.713 419.409 647.713 419.409 595.631 425.064C543.549 430.719 543.549 430.719 481.337 474.403C419.125 518.088 419.125 518.088 596.5 609.244Z" fill="#25353D"/>
<path d="M1115.24 610.926C1173.8 691.733 1173.8 691.733 1188.7 695.232C1203.6 698.73 1203.6 698.73 1339.38 335.162C1475.16 -28.4059 1475.16 -28.4059 1378.34 40.9151C1281.52 110.236 1281.52 110.236 1169.1 320.177C1056.68 530.118 1056.68 530.118 1115.24 610.926Z" fill="#25353D"/>
<path d="M838.298 710.441C850.334 718.761 850.334 718.761 897.117 699.282C943.9 679.803 943.9 679.803 970.021 655.833C996.142 631.863 996.142 631.863 1006.41 596.443C1016.69 561.023 1016.69 561.023 946.315 550.597C875.944 540.171 875.944 540.171 861.021 546.44C846.098 552.709 846.098 552.709 836.18 627.415C826.261 702.121 826.261 702.121 838.298 710.441Z" fill="#E67E17"/>
<path d="M1242.8 753.536C1275.76 804.555 1275.76 804.555 1287.96 793.087C1300.16 781.62 1300.16 781.62 1426.7 375.895C1553.25 -29.8286 1553.25 -29.8285 1553.25 -32.6644C1553.25 -35.5002 1553.25 -35.5002 1519.36 -35.5002C1485.46 -35.5002 1485.46 -35.5002 1347.65 333.508C1209.84 702.517 1209.84 702.517 1242.8 753.536Z" fill="#3D5866"/>
<path d="M1043.29 676.094C1083.26 719.306 1083.26 719.306 1124.56 706.159C1165.86 693.011 1165.85 693.011 1108.87 614.366C1051.88 535.721 1051.88 535.721 1038.15 547.897C1024.43 560.072 1024.43 560.072 1013.87 596.477C1003.32 632.882 1003.32 632.882 1043.29 676.094Z" fill="#3D5866"/>
<path d="M1431.2 719.129C1553.25 661.409 1553.25 661.409 1553.25 327.837C1553.25 -5.73643 1553.25 -5.7364 1431.2 385.556C1309.16 776.849 1309.16 776.849 1431.2 719.129Z" fill="#3D5866"/>
<path d="M998.266 740.361C1045.73 797.506 1045.73 797.506 1061.84 760.821C1077.95 724.136 1077.95 724.136 1038.52 681.517C999.101 638.897 999.101 638.897 974.953 661.057C950.805 683.217 950.805 683.217 998.266 740.361Z" fill="#3D5866"/>
<path d="M897.483 880.215C940.751 1035.5 940.751 1035.5 983.814 1035.5C1026.88 1035.5 1026.88 1035.5 1034.94 920.477C1043 805.455 1043 805.455 993.896 746.336C944.795 687.217 944.795 687.217 899.505 706.073C854.216 724.93 854.216 724.93 897.483 880.215Z" fill="#3D5866"/>
<path d="M665.102 870.455C767.908 705.41 767.908 705.41 589.914 613.936C411.919 522.461 411.919 522.461 388.188 530.645C364.457 538.828 364.457 538.828 155.603 647.804C-53.25 756.779 -53.25 756.779 -53.25 896.139C-53.25 1035.5 -53.25 1035.5 254.522 1035.5C562.295 1035.5 562.295 1035.5 665.102 870.455Z" fill="#3D5866"/>
<path d="M1263.79 923.283C1271.42 811.067 1271.42 811.067 1237.52 758.594C1203.62 706.12 1203.62 706.12 1187.72 702.387C1171.82 698.653 1171.82 698.653 1128.31 712.504C1084.81 726.355 1084.81 726.355 1067.51 765.748C1050.21 805.14 1050.21 805.14 1042.13 920.319C1034.06 1035.5 1034.06 1035.5 1145.11 1035.5C1256.16 1035.5 1256.16 1035.5 1263.79 923.283Z" fill="#25353D"/>
<path d="M1429.3 727.98C1305.34 786.603 1305.34 786.603 1291.96 799.188C1278.57 811.773 1278.57 811.773 1270.96 923.636C1263.35 1035.5 1263.35 1035.5 1408.3 1035.5C1553.25 1035.5 1553.25 1035.5 1553.25 852.428C1553.25 669.357 1553.25 669.357 1429.3 727.98Z" fill="#3D5866"/>
<path d="M890.054 880.276C846.803 725.052 846.803 725.052 834.055 716.24C821.307 707.428 821.307 707.428 798.159 707.507C775.01 707.585 775.01 707.585 672.88 871.542C570.75 1035.5 570.75 1035.5 752.027 1035.5C933.304 1035.5 933.304 1035.5 890.054 880.276Z" fill="#3D5866"/>
</g>
<defs>
<clipPath id="clip0">
<rect width="1500" height="1000" fill="white"/>
</clipPath>
</defs>
</svg>
