<svg width="1500" height="1000" viewBox="0 0 1500 1000" fill="none" xmlns="http://www.w3.org/2000/svg">
<g clip-path="url(#clip0)">
<rect width="1500" height="1000" fill="#182328"/>
<path d="M817.128 51.2882C844.569 138.076 844.569 138.076 916.791 183.916C989.012 229.755 989.012 229.755 1008.28 238.071C1027.55 246.387 1027.55 246.387 1086.73 242.229C1145.91 238.07 1145.91 238.07 1349.58 133.623C1553.25 29.1767 1553.25 29.1767 1553.25 -3.16163C1553.25 -35.5 1553.25 -35.5 1171.47 -35.5C789.687 -35.5 789.687 -35.5 817.128 51.2882Z" fill="#25353D"/>
<path d="M686.811 35.4224C691.779 106.345 691.78 106.345 764.034 121.011C836.289 135.677 836.289 135.677 809.227 50.0886C782.166 -35.5 782.166 -35.5 732.004 -35.5C681.842 -35.5 681.842 -35.5 686.811 35.4224Z" fill="#E67E17"/>
<path d="M565.239 75.117C585.788 185.734 585.788 185.734 635.236 146.706C684.683 107.678 684.683 107.678 679.667 36.0891C674.652 -35.5 674.652 -35.5 609.67 -35.5C544.689 -35.5 544.689 -35.5 565.239 75.117Z" fill="#E67E17"/>
<path d="M483.456 109.197C539.341 253.893 539.341 253.893 541.468 251.726C543.595 249.558 543.595 249.558 561.582 220.54C579.569 191.522 579.569 191.522 558.482 78.011C537.394 -35.5 537.394 -35.5 482.483 -35.5C427.571 -35.5 427.571 -35.5 483.456 109.197Z" fill="#E67E17"/>
<path d="M217.474 427.994C488.198 334.6 488.198 334.6 511.106 297.309C534.015 260.018 534.015 260.018 476.948 112.259C419.88 -35.5 419.88 -35.5 183.315 -35.5C-53.25 -35.5 -53.25 -35.5 -53.25 242.944C-53.25 521.389 -53.25 521.389 217.474 427.994Z" fill="#E67E17"/>
<path d="M764.401 238.877C975.745 229.841 975.745 229.841 907.966 186.822C840.187 143.802 840.187 143.802 764.747 128.489C689.308 113.177 689.308 113.177 637.685 153.922C586.062 194.667 586.062 194.667 569.56 221.289C553.057 247.912 553.057 247.912 764.401 238.877Z" fill="#25353D"/>
<path d="M587.505 383.285C679.345 430.417 679.345 430.417 753.412 405.635C827.48 380.854 827.48 380.854 923.487 315.795C1019.49 250.737 1019.49 250.737 1003.08 243.653C986.668 236.57 986.668 236.57 767.332 245.947C547.996 255.324 547.996 255.324 544.419 258.969C540.843 262.614 540.843 262.614 518.254 299.384C495.666 336.153 495.666 336.153 587.505 383.285Z" fill="#E67E17"/>
<path d="M844.163 468.916C855.391 551.998 855.391 551.998 936.469 559.491C1017.55 566.985 1017.55 566.985 1079.53 406.285C1141.51 245.585 1141.51 245.585 1084.83 249.568C1028.15 253.551 1028.15 253.551 930.54 319.693C832.934 385.834 832.934 385.834 844.163 468.916Z" fill="#25353D"/>
<path d="M684.615 444.56C686.078 452.398 686.078 452.398 739.87 520.919C793.662 589.44 793.661 589.44 799.044 589.474C804.426 589.507 804.426 589.507 826.411 571.651C848.396 553.794 848.396 553.794 837.253 471.342C826.11 388.889 826.11 388.889 754.631 412.805C683.152 436.721 683.152 436.721 684.615 444.56Z" fill="#25353D"/>
<path d="M469.33 922.281C596.999 809.062 596.999 809.062 638.025 631.456C679.051 453.849 679.052 453.849 677.451 445.274C675.85 436.699 675.85 436.699 583.076 389.087C490.302 341.476 490.302 341.476 218.526 435.234C-53.25 528.991 -53.25 528.991 -53.25 782.246C-53.25 1035.5 -53.25 1035.5 144.205 1035.5C341.66 1035.5 341.66 1035.5 469.33 922.281Z" fill="#E67E17"/>
<path d="M613.337 800.655C621.257 796.82 621.257 796.82 634.102 785.619C646.948 774.418 646.948 774.418 717.154 683.728C787.36 593.039 787.36 593.039 735.941 527.54C684.521 462.041 684.521 462.041 644.969 633.266C605.417 804.491 605.417 804.491 613.337 800.655Z" fill="#25353D"/>
<path d="M845.913 632.304C880.938 671.095 880.938 671.095 921.437 682.33C961.937 693.565 961.937 693.565 978.991 682.704C996.044 671.844 996.044 671.844 1005.48 634.399C1014.92 596.954 1014.92 596.954 1015.53 585.514C1016.15 574.074 1016.15 574.074 934.748 566.55C853.346 559.027 853.346 559.027 832.117 576.27C810.888 593.512 810.888 593.512 845.913 632.304Z" fill="#E67E17"/>
<path d="M1106.38 625.223C1190.56 655.431 1190.56 655.43 1306.23 542.908C1421.89 430.385 1421.89 430.385 1487.57 309.794C1553.25 189.203 1553.25 189.203 1553.25 113.227C1553.25 37.2515 1553.25 37.2515 1351.5 140.715C1149.74 244.179 1149.74 244.179 1086.6 407.878C1023.46 571.577 1023.46 571.577 1022.83 583.296C1022.2 595.015 1022.2 595.015 1106.38 625.223Z" fill="#3D5866"/>
<path d="M767.082 720.395C872.997 673.018 872.997 673.018 838.54 634.856C804.084 596.693 804.084 596.693 798.87 596.661C793.656 596.628 793.656 596.628 727.412 682.2C661.167 767.772 661.167 767.772 767.082 720.395Z" fill="#3D5866"/>
<path d="M1072.35 735.426C1141.52 797.96 1141.52 797.959 1149.2 792.718C1156.88 787.477 1156.88 787.477 1172.05 724.67C1187.21 661.864 1187.21 661.864 1104.1 632.039C1020.99 602.214 1020.99 602.214 1012.08 637.553C1003.18 672.892 1003.18 672.892 1072.35 735.426Z" fill="#E67E17"/>
<path d="M1235.71 770.4C1306.57 755.794 1306.57 755.794 1361.42 600.832C1416.27 445.87 1416.27 445.87 1305.48 553.647C1194.7 661.425 1194.7 661.425 1179.78 723.216C1164.86 785.007 1164.86 785.007 1235.71 770.4Z" fill="#E67E17"/>
<path d="M774.225 791.465C915.25 786.995 915.25 786.995 936.331 743.382C957.412 699.769 957.412 699.769 918.337 688.929C879.262 678.09 879.262 678.09 765.39 729.026C651.518 779.962 651.518 779.962 642.358 787.949C633.199 795.936 633.199 795.936 774.225 791.465Z" fill="#3D5866"/>
<path d="M1400.68 896.979C1488.12 1035.5 1488.12 1035.5 1520.69 1035.5C1553.25 1035.5 1553.25 1035.5 1553.25 619.852C1553.25 204.204 1553.25 204.204 1490.66 319.129C1428.06 434.055 1428.06 434.055 1370.65 596.257C1313.24 758.459 1313.24 758.459 1400.68 896.979Z" fill="#25353D"/>
<path d="M947.957 913.232C974.617 1035.5 974.617 1035.5 1040.18 1035.5C1105.73 1035.5 1105.73 1035.5 1121.57 919.706C1137.4 803.913 1137.4 803.913 1068.09 741.261C998.79 678.608 998.791 678.608 982.043 689.274C965.295 699.94 965.295 699.94 943.296 745.452C921.297 790.964 921.297 790.964 947.957 913.232Z" fill="#25353D"/>
<path d="M1393.6 899.211C1307.57 762.924 1307.57 762.924 1234.52 777.983C1161.47 793.042 1161.47 793.042 1153.01 798.815C1144.54 804.588 1144.54 804.588 1128.76 920.043C1112.97 1035.5 1112.97 1035.5 1296.3 1035.5C1479.64 1035.5 1479.64 1035.5 1393.6 899.211Z" fill="#E67E17"/>
<path d="M940.971 914.853C914.664 794.204 914.664 794.204 769.394 798.81C624.124 803.415 624.124 803.415 613.182 808.714C602.24 814.013 602.24 814.013 477.362 924.757C352.483 1035.5 352.483 1035.5 659.88 1035.5C967.277 1035.5 967.277 1035.5 940.971 914.853Z" fill="#E67E17"/>
</g>
<defs>
<clipPath id="clip0">
<rect width="1500" height="1000" fill="white"/>
</clipPath>
</defs>
</svg>
