<svg width="1500" height="1000" viewBox="0 0 1500 1000" fill="none" xmlns="http://www.w3.org/2000/svg">
<g clip-path="url(#clip0)">
<rect width="1500" height="1000" fill="#182328"/>
<path d="M674.086 -32.7286C674.253 -29.957 674.253 -29.957 742.234 78.8819C810.214 187.721 810.214 187.721 920.41 203.254C1030.61 218.786 1030.61 218.786 1033.5 91.6431C1036.4 -35.5002 1036.4 -35.5002 855.161 -35.5002C673.919 -35.5002 673.919 -35.5002 674.086 -32.7286Z" fill="#3D5866"/>
<path d="M1041.85 232.044C1045.99 241.869 1045.99 241.869 1084.75 281.119C1123.51 320.369 1123.51 320.369 1178.3 349.601C1233.08 378.833 1233.08 378.833 1393.16 361.081C1553.25 343.33 1553.25 343.33 1553.25 153.915C1553.25 -35.5002 1553.25 -35.5002 1298.41 -35.5002C1043.58 -35.5002 1043.58 -35.5002 1040.64 93.3595C1037.7 222.219 1037.7 222.219 1041.85 232.044Z" fill="#3D5866"/>
<path d="M430.275 53.3596C436.826 142.219 436.826 142.219 484.292 156.894C531.758 171.569 531.758 171.569 571.407 163.692C611.056 155.815 611.056 155.815 639.083 63.281C667.11 -29.2532 667.11 -29.2532 666.921 -32.3767C666.733 -35.5002 666.733 -35.5002 545.229 -35.5002C423.724 -35.5002 423.724 -35.5002 430.275 53.3596Z" fill="#3D5866"/>
<path d="M27.3326 723.588C107.915 652.758 107.915 652.758 268.842 398.384C429.768 144.01 429.768 144.01 423.151 54.2548C416.534 -35.5002 416.534 -35.5002 181.642 -35.5002C-53.25 -35.5002 -53.25 -35.5002 -53.25 379.459C-53.25 794.418 -53.25 794.418 27.3326 723.588Z" fill="#E67E17"/>
<path d="M645.089 221.811C672.498 284.922 672.498 284.922 737.871 237.513C803.243 190.105 803.243 190.105 737.557 84.94C671.871 -20.2246 671.871 -20.2246 644.775 69.2375C617.679 158.7 617.679 158.7 645.089 221.811Z" fill="#E67E17"/>
<path d="M307.178 528.706C492.278 413.617 492.278 413.617 509.921 295.705C527.564 177.794 527.564 177.794 481.279 163.484C434.993 149.174 434.993 149.174 278.536 396.485C122.078 643.795 122.078 643.795 307.178 528.706Z" fill="#3D5866"/>
<path d="M577.566 377.777C655.066 345.519 655.066 345.519 661.151 318.166C667.235 290.813 667.235 290.813 639.482 226.912C611.729 163.01 611.729 163.01 573.235 170.657C534.74 178.304 534.74 178.304 517.403 294.169C500.066 410.034 500.066 410.034 577.566 377.777Z" fill="#25353D"/>
<path d="M715.637 381.344C769.075 416.216 769.075 416.216 903.775 329.368C1038.48 242.521 1038.48 242.521 1035.03 234.353C1031.59 226.185 1031.59 226.185 920.289 210.497C808.991 194.809 808.991 194.809 741.591 243.688C674.192 292.567 674.192 292.567 668.196 319.52C662.2 346.473 662.2 346.473 715.637 381.344Z" fill="#E67E17"/>
<path d="M796.231 518.671C819.318 615.206 819.318 615.206 827.73 614.943C836.142 614.679 836.142 614.679 976.237 468.998C1116.33 323.317 1116.33 323.317 1079.39 285.91C1042.45 248.503 1042.45 248.503 907.797 335.32C773.143 422.137 773.144 422.137 796.231 518.671Z" fill="#3D5866"/>
<path d="M572.434 826.552C812.518 617.606 812.518 617.606 789.214 520.165C765.91 422.724 765.91 422.724 711.85 387.446C657.789 352.168 657.789 352.168 577.505 385.584C497.221 419.001 497.221 419.001 305.015 538.508C112.809 658.016 112.809 658.016 29.7796 730.997C-53.25 803.978 -53.25 803.978 -53.25 919.738C-53.25 1035.5 -53.25 1035.5 139.55 1035.5C332.35 1035.5 332.35 1035.5 572.434 826.552Z" fill="#25353D"/>
<path d="M852.228 620.318C860.498 623.724 860.498 623.724 963.757 626.865C1067.02 630.006 1067.02 630.006 1131.27 554.201C1195.53 478.395 1195.53 478.395 1211.76 431.325C1227.98 384.255 1227.98 384.255 1175.02 355.993C1122.05 327.731 1122.05 327.731 983.005 472.321C843.957 616.911 843.957 616.911 852.228 620.318Z" fill="#3D5866"/>
<path d="M1222.79 589.189C1243.19 697.897 1243.19 697.897 1248.23 699.502C1253.28 701.108 1253.28 701.108 1336.46 693.703C1419.65 686.298 1419.65 686.298 1486.45 622.76C1553.25 559.223 1553.25 559.223 1553.25 454.892C1553.25 350.562 1553.25 350.562 1394.14 368.206C1235.02 385.85 1235.02 385.85 1218.71 433.166C1202.4 480.482 1202.4 480.482 1222.79 589.189Z" fill="#25353D"/>
<path d="M1076.05 651.364C1079.6 668.097 1079.6 668.097 1111.93 712.601C1144.27 757.106 1144.27 757.106 1160.96 759.981C1177.66 762.856 1177.66 762.856 1206.93 731.206C1236.2 699.556 1236.2 699.556 1216.38 593.916C1196.56 488.277 1196.56 488.277 1134.53 561.454C1072.5 634.631 1072.5 634.631 1076.05 651.364Z" fill="#3D5866"/>
<path d="M928.749 709.102C990.179 787.081 990.178 787.081 1031.3 727.949C1072.42 668.817 1072.42 668.817 1069.06 652.987C1065.71 637.158 1065.71 637.158 966.512 634.141C867.319 631.124 867.319 631.124 928.749 709.102Z" fill="#25353D"/>
<path d="M1287.2 750.698C1315.23 793.595 1315.23 793.595 1343.09 794.63C1370.95 795.666 1370.95 795.666 1393.22 744.775C1415.49 693.884 1415.49 693.884 1337.33 700.843C1259.16 707.801 1259.16 707.801 1287.2 750.698Z" fill="#25353D"/>
<path d="M1002.09 829.74C1009.98 865.608 1009.98 865.608 1073.67 812.698C1137.35 759.788 1137.35 759.788 1106.83 717.787C1076.32 675.787 1076.32 675.787 1035.26 734.829C994.202 793.871 994.202 793.871 1002.09 829.74Z" fill="#25353D"/>
<path d="M1203.22 808.727C1223.18 850.081 1223.18 850.081 1265.72 823.058C1308.25 796.035 1308.25 796.035 1279.41 751.913C1250.57 707.791 1250.57 707.791 1245.86 706.289C1241.14 704.788 1241.14 704.788 1212.2 736.081C1183.26 767.373 1183.26 767.373 1203.22 808.727Z" fill="#E67E17"/>
<path d="M983.826 953.793C1004.06 872.086 1004.06 872.086 995.551 833.387C987.037 794.688 987.037 794.688 922.272 712.476C857.507 630.264 857.507 630.264 847.284 626.053C837.061 621.842 837.061 621.842 827.482 622.142C817.903 622.443 817.903 622.443 580.596 828.971C343.29 1035.5 343.29 1035.5 653.439 1035.5C963.587 1035.5 963.587 1035.5 983.826 953.793Z" fill="#E67E17"/>
<path d="M1410.95 917.549C1444.85 1035.5 1444.85 1035.5 1499.05 1035.5C1553.25 1035.5 1553.25 1035.5 1553.25 802.314C1553.25 569.131 1553.25 569.131 1488.73 630.502C1424.2 691.873 1424.2 691.873 1400.63 745.736C1377.06 799.599 1377.06 799.599 1410.95 917.549Z" fill="#E67E17"/>
<path d="M1215.41 945.772C1218.1 856.045 1218.1 856.045 1197.32 813.001C1176.55 769.957 1176.55 769.957 1159.9 767.09C1143.25 764.223 1143.25 764.223 1077.1 819.185C1010.94 874.147 1010.94 874.147 990.959 954.823C970.976 1035.5 970.976 1035.5 1091.85 1035.5C1212.72 1035.5 1212.72 1035.5 1215.41 945.772Z" fill="#25353D"/>
<path d="M1403.95 919.173C1370.52 802.844 1370.52 802.844 1342.38 801.798C1314.23 800.752 1314.23 800.752 1269.73 829.021C1225.23 857.29 1225.23 857.29 1222.56 946.396C1219.9 1035.5 1219.9 1035.5 1328.64 1035.5C1437.38 1035.5 1437.38 1035.5 1403.95 919.173Z" fill="#E67E17"/>
</g>
<defs>
<clipPath id="clip0">
<rect width="1500" height="1000" fill="white"/>
</clipPath>
</defs>
</svg>
