<svg width="1500" height="1000" viewBox="0 0 1500 1000" fill="none" xmlns="http://www.w3.org/2000/svg">
<g clip-path="url(#clip0)">
<rect width="1500" height="1000" fill="#182328"/>
<path d="M285.484 20.3079C316.545 76.1158 316.545 76.1158 400.513 20.3079C484.481 -35.5 484.481 -35.5 369.452 -35.5C254.423 -35.5 254.423 -35.5 285.484 20.3079Z" fill="#3D5866"/>
<path d="M884.937 28.4698C897.045 92.4397 897.045 92.4397 921.371 109.915C945.696 127.39 945.696 127.39 1249.47 129.355C1553.25 131.319 1553.25 131.319 1553.25 47.9096C1553.25 -35.5 1553.25 -35.5 1213.04 -35.5C872.829 -35.5 872.829 -35.5 884.937 28.4698Z" fill="#E67E17"/>
<path d="M322.616 124.198C326.175 165.324 326.175 165.324 460.269 111.772C594.363 58.22 594.363 58.22 601.238 45.6038C608.113 32.9876 608.113 32.9876 611.181 -1.25621C614.249 -35.5 614.248 -35.5 555.853 -35.5C497.458 -35.5 497.458 -35.5 408.257 23.7858C319.057 83.0715 319.057 83.0715 322.616 124.198Z" fill="#E67E17"/>
<path d="M83.2941 525.466C219.838 461.096 219.838 461.096 221.672 459.614C223.506 458.133 223.506 458.133 271.444 314.077C319.382 170.022 319.382 170.022 315.588 126.178C311.793 82.3339 311.793 82.3339 279.001 23.4169C246.21 -35.5 246.21 -35.5 96.4798 -35.5C-53.25 -35.5 -53.25 -35.5 -53.25 277.168C-53.25 589.837 -53.25 589.837 83.2941 525.466Z" fill="#25353D"/>
<path d="M701.186 111.71C787.024 190.811 787.024 190.811 838.463 142.037C889.901 93.2623 889.901 93.2623 877.715 28.8811C865.529 -35.5 865.529 -35.5 743.489 -35.5C621.45 -35.5 621.45 -35.5 618.399 -1.44563C615.348 32.6087 615.348 32.6087 701.186 111.71Z" fill="#E67E17"/>
<path d="M325.277 427.831C418.416 400.755 418.416 400.755 499.386 281.365C580.355 161.975 580.355 161.975 586.456 114.325C592.557 66.6757 592.557 66.6758 459.225 119.923C325.892 173.171 325.892 173.171 279.015 314.039C232.138 454.908 232.138 454.908 325.277 427.831Z" fill="#E67E17"/>
<path d="M650.152 230.837C712.733 299.58 712.733 299.58 747.852 279.319C782.971 259.057 782.971 259.057 783.215 228.174C783.458 197.291 783.458 197.291 698.011 118.55C612.565 39.8099 612.565 39.8099 606.462 51.0087C600.36 62.2074 600.36 62.2074 593.965 112.15C587.57 162.094 587.57 162.094 650.152 230.837Z" fill="#E67E17"/>
<path d="M860.745 300.187C931.343 341.287 931.343 341.287 936.104 237.024C940.865 132.762 940.865 132.762 917.486 115.967C894.107 99.1715 894.107 99.1715 842.371 148.228C790.635 197.284 790.635 197.284 790.392 228.186C790.148 259.087 790.148 259.087 860.745 300.187Z" fill="#E67E17"/>
<path d="M939.481 347.613C940.665 349.064 940.665 349.064 1057.11 371.185C1173.55 393.306 1173.55 393.306 1363.4 283.14C1553.25 172.973 1553.25 172.973 1553.25 155.74C1553.25 138.507 1553.25 138.507 1250.6 136.55C947.958 134.593 947.957 134.593 943.127 240.377C938.296 346.161 938.296 346.161 939.481 347.613Z" fill="#E67E17"/>
<path d="M531.936 409.161C636.787 417.563 636.787 417.563 672.163 361.052C707.538 304.541 707.538 304.541 645.876 236.807C584.213 169.073 584.213 169.073 505.65 284.916C427.086 400.759 427.086 400.759 531.936 409.161Z" fill="#25353D"/>
<path d="M704.781 485.371C766.366 549.885 766.366 549.885 850.207 451.096C934.048 352.307 934.048 352.307 933.169 351.23C932.29 350.152 932.29 350.152 859.413 307.725C786.537 265.298 786.537 265.298 750.565 286.052C714.592 306.805 714.592 306.805 678.894 363.832C643.196 420.858 643.196 420.858 704.781 485.371Z" fill="#E67E17"/>
<path d="M777.297 595.968C784.251 635.647 784.251 635.647 966.646 539.796C1149.04 443.945 1149.04 443.945 1159.04 421.856C1169.04 399.766 1169.04 399.766 1054.57 378.019C940.095 356.273 940.095 356.273 855.219 456.281C770.344 556.289 770.344 556.289 777.297 595.968Z" fill="#E67E17"/>
<path d="M436.395 581.372C644.67 699.107 644.67 699.107 709 686.269C773.331 673.431 773.331 673.431 774.915 671.102C776.499 668.773 776.499 668.773 777.232 655.052C777.965 641.332 777.965 641.332 770.57 599.138C763.176 556.943 763.176 556.943 700.1 490.868C637.024 424.792 637.024 424.792 529.024 416.138C421.025 407.484 421.024 407.484 324.645 435.502C228.265 463.521 228.265 463.521 228.192 463.579C228.12 463.638 228.12 463.638 436.395 581.372Z" fill="#3D5866"/>
<path d="M889.817 684.311C995.855 701.683 995.854 701.683 1051.87 666.141C1107.88 630.598 1107.88 630.598 1127.26 541.958C1146.65 453.318 1146.65 453.318 965.842 548.332C785.039 643.346 785.039 643.346 784.409 655.143C783.779 666.94 783.779 666.94 889.817 684.311Z" fill="#E67E17"/>
<path d="M1156.7 684.452C1198.47 736.974 1198.47 736.974 1262.1 750.557C1325.74 764.14 1325.74 764.14 1439.49 658.24C1553.25 552.34 1553.25 552.34 1553.25 366.809C1553.25 181.277 1553.25 181.278 1365.12 290.448C1176.99 399.618 1176.99 399.618 1166.1 423.655C1155.22 447.692 1155.22 447.692 1135.08 539.811C1114.94 631.929 1114.94 631.929 1156.7 684.452Z" fill="#3D5866"/>
<path d="M497.807 869.688C638.519 703.879 638.519 703.879 430.062 586.042C221.605 468.205 221.605 468.205 84.1774 532.992C-53.25 597.778 -53.25 597.778 -53.25 816.638C-53.25 1035.5 -53.25 1035.5 151.923 1035.5C357.095 1035.5 357.095 1035.5 497.807 869.688Z" fill="#3D5866"/>
<path d="M1031.27 818.848C1061.76 930.631 1061.76 930.631 1126.89 835.507C1192.01 740.382 1192.01 740.382 1151.14 688.988C1110.27 637.593 1110.27 637.593 1055.52 672.329C1000.78 707.066 1000.78 707.066 1031.27 818.848Z" fill="#3D5866"/>
<path d="M801.687 856.533C824.18 1035.5 824.18 1035.5 934.029 1035.5C1043.88 1035.5 1043.88 1035.5 1050.29 987.4C1056.69 939.302 1056.69 939.302 1025.23 823.963C993.769 708.625 993.769 708.624 887.736 691.253C781.702 673.882 781.702 673.882 780.449 675.725C779.195 677.568 779.195 677.568 801.687 856.533Z" fill="#E67E17"/>
<path d="M1317.39 903.213C1323.1 770.927 1323.1 770.927 1260.58 757.583C1198.06 744.238 1198.06 744.238 1130.92 842.31C1063.79 940.382 1063.79 940.382 1057.45 987.94C1051.11 1035.5 1051.11 1035.5 1181.4 1035.5C1311.68 1035.5 1311.68 1035.5 1317.39 903.213Z" fill="#25353D"/>
<path d="M794.671 858.224C772.391 680.948 772.391 680.948 709.19 693.56C645.989 706.173 645.989 706.173 506.249 870.836C366.509 1035.5 366.509 1035.5 591.73 1035.5C816.951 1035.5 816.951 1035.5 794.671 858.224Z" fill="#3D5866"/>
<path d="M1441.79 665.914C1330.33 769.676 1330.33 769.676 1324.6 902.588C1318.86 1035.5 1318.86 1035.5 1436.06 1035.5C1553.25 1035.5 1553.25 1035.5 1553.25 798.826C1553.25 562.152 1553.25 562.153 1441.79 665.914Z" fill="#25353D"/>
</g>
<defs>
<clipPath id="clip0">
<rect width="1500" height="1000" fill="white"/>
</clipPath>
</defs>
</svg>
