<svg width="1500" height="1000" viewBox="0 0 1500 1000" fill="none" xmlns="http://www.w3.org/2000/svg">
<g clip-path="url(#clip0)">
<rect width="1500" height="1000" fill="#182328"/>
<path d="M-44.0088 852.42C-34.7677 844.757 -34.7677 844.757 27.7065 741.426C90.1806 638.096 90.1806 638.096 209.604 358.474C329.027 78.8523 329.027 78.8523 331.105 21.6761C333.184 -35.5001 333.184 -35.5001 139.967 -35.5001C-53.25 -35.5001 -53.25 -35.5001 -53.25 412.292C-53.25 860.084 -53.25 860.084 -44.0088 852.42Z" fill="#E67E17"/>
<path d="M412.556 89.422C488.829 102.216 488.829 102.216 494.095 33.358C499.361 -35.5001 499.361 -35.5001 419.86 -35.5001C340.36 -35.5001 340.36 -35.5001 338.322 20.5639C336.283 76.628 336.283 76.628 412.556 89.422Z" fill="#3D5866"/>
<path d="M509.654 124.585C523.524 143.799 523.524 143.799 601.777 77.0998C680.03 10.4003 680.03 10.4003 680.564 -12.5499C681.098 -35.5001 681.098 -35.5001 593.827 -35.5001C506.557 -35.5001 506.557 -35.5001 501.17 34.9351C495.784 105.37 495.784 105.37 509.654 124.585Z" fill="#25353D"/>
<path d="M735.674 149.881C784.173 288.239 784.173 288.239 800.779 311.867C817.385 335.495 817.385 335.495 850.808 332.275C884.232 329.055 884.232 329.055 1046.61 258.243C1208.98 187.432 1208.98 187.432 1358.41 103.689C1507.84 19.946 1507.84 19.946 1530.55 2.20851C1553.25 -15.529 1553.25 -15.529 1553.25 -25.5145C1553.25 -35.5001 1553.25 -35.5001 1120.76 -35.5001C688.27 -35.5001 688.27 -35.5001 687.723 -11.9889C687.176 11.5224 687.176 11.5224 735.674 149.881Z" fill="#E67E17"/>
<path d="M311.94 395.274C518.915 168.807 518.915 168.807 519.097 159.497C519.279 150.186 519.279 150.186 504.67 129.947C490.061 109.709 490.061 109.709 412.416 96.6847C334.771 83.6606 334.771 83.6605 219.868 352.7C104.964 621.74 104.964 621.74 311.94 395.274Z" fill="#3D5866"/>
<path d="M650.436 225.518C774.762 283.076 774.762 283.075 728.343 150.649C681.924 18.2225 681.924 18.2225 604.185 84.484C526.446 150.746 526.446 150.746 526.277 159.353C526.109 167.96 526.109 167.96 650.436 225.518Z" fill="#25353D"/>
<path d="M279.854 692.169C582.384 545.713 582.384 545.713 696.638 442.226C810.891 338.74 810.891 338.74 794.733 315.749C778.576 292.758 778.576 292.758 650.963 233.679C523.349 174.6 523.349 174.6 309.805 408.254C96.2604 641.908 96.2604 641.908 36.7921 740.267C-22.6762 838.625 -22.6762 838.625 279.854 692.169Z" fill="#3D5866"/>
<path d="M930.281 481.356C971.127 628.085 971.127 628.085 998.705 635.399C1026.28 642.714 1026.28 642.714 1036.47 637.687C1046.66 632.66 1046.66 632.66 1125.51 414.974C1204.36 197.288 1204.36 197.288 1046.9 265.957C889.435 334.626 889.435 334.626 930.281 481.356Z" fill="#25353D"/>
<path d="M1119.54 637.397C1184.57 642.747 1184.57 642.747 1196.37 629.319C1208.16 615.891 1208.16 615.891 1354.77 323.85C1501.37 31.8087 1501.37 31.8087 1357.43 112.474C1213.49 193.14 1213.49 193.14 1134 412.593C1054.51 632.047 1054.51 632.047 1119.54 637.397Z" fill="#25353D"/>
<path d="M740.075 623.895C889.468 699.904 889.468 699.904 926.827 664.9C964.185 629.895 964.185 629.895 923.34 483.169C882.495 336.443 882.495 336.443 849.836 339.589C817.177 342.736 817.177 342.736 703.93 445.311C590.683 547.886 590.683 547.886 740.075 623.895Z" fill="#25353D"/>
<path d="M1269.36 682.503C1323.31 747.574 1323.31 747.574 1326.54 747.795C1329.78 748.017 1329.78 748.017 1441.52 662.6C1553.25 577.183 1553.25 577.183 1553.25 285.384C1553.25 -6.41428 1553.25 -6.41428 1532.96 9.43676C1512.67 25.2878 1512.67 25.2878 1364.04 321.361C1215.42 617.433 1215.42 617.433 1269.36 682.503Z" fill="#3D5866"/>
<path d="M1042 685.707C1053.04 722.998 1053.04 722.998 1103.7 734.862C1154.37 746.726 1154.37 746.726 1163.81 732.884C1173.26 719.043 1173.26 719.043 1177.65 684.397C1182.04 649.751 1182.04 649.751 1116.14 644.329C1050.23 638.907 1050.23 638.907 1040.6 643.662C1030.96 648.416 1030.96 648.416 1042 685.707Z" fill="#E67E17"/>
<path d="M1230.73 738.883C1280.86 759.679 1280.86 759.679 1298.09 754.433C1315.32 749.187 1315.32 749.187 1263.2 686.317C1211.08 623.447 1211.08 623.447 1200.29 635.736C1189.49 648.024 1189.49 648.024 1185.05 683.055C1180.61 718.086 1180.61 718.086 1230.73 738.883Z" fill="#E67E17"/>
<path d="M898.115 740.677C902.369 775.725 902.369 775.726 903.711 777.408C905.053 779.09 905.053 779.09 961.386 778.984C1017.72 778.878 1017.72 778.878 1032.03 752.252C1046.34 725.625 1046.34 725.625 1035.07 687.558C1023.8 649.49 1023.8 649.49 996.51 642.253C969.222 635.015 969.222 635.015 931.542 670.322C893.861 705.628 893.861 705.628 898.115 740.677Z" fill="#3D5866"/>
<path d="M468.328 905.056C895.011 774.613 895.011 774.613 890.882 740.599C886.753 706.585 886.753 706.585 735.561 629.66C584.369 552.735 584.368 552.735 277.152 701.46C-30.0637 850.184 -30.0637 850.184 -41.6568 859.799C-53.25 869.413 -53.25 869.413 -53.25 952.456C-53.25 1035.5 -53.25 1035.5 -5.80275 1035.5C41.6445 1035.5 41.6445 1035.5 468.328 905.056Z" fill="#E67E17"/>
<path d="M1085.39 876.571C1146.75 970.85 1146.75 970.85 1149.52 862.235C1152.28 753.62 1152.28 753.62 1102.16 741.884C1052.05 730.149 1052.05 730.149 1038.04 756.221C1024.03 782.292 1024.03 782.292 1085.39 876.571Z" fill="#25353D"/>
<path d="M1214.81 861.817C1275.38 765.184 1275.38 765.184 1226.7 744.988C1178.02 724.791 1178.02 724.791 1168.76 738.364C1159.5 751.937 1159.5 751.937 1156.87 855.194C1154.25 958.45 1154.25 958.45 1214.81 861.817Z" fill="#25353D"/>
<path d="M1355.18 894.386C1375.64 1035.5 1375.64 1035.5 1464.44 1035.5C1553.25 1035.5 1553.25 1035.5 1553.25 810.863C1553.25 586.224 1553.25 586.224 1443.99 669.748C1334.73 753.271 1334.73 753.271 1355.18 894.386Z" fill="#E67E17"/>
<path d="M1153.94 1007.98C1155.7 1035.5 1155.7 1035.5 1262.05 1035.5C1368.39 1035.5 1368.39 1035.5 1348.07 895.289C1327.75 755.08 1327.75 755.08 1324.85 754.881C1321.94 754.682 1321.94 754.682 1302.47 760.61C1283 766.539 1283 766.539 1218.35 869.674C1153.71 972.809 1153.71 972.809 1152.95 976.639C1152.19 980.469 1152.19 980.468 1153.94 1007.98Z" fill="#3D5866"/>
<path d="M920.964 910.885C934.595 1035.5 934.595 1035.5 1041.56 1035.5C1148.52 1035.5 1148.52 1035.5 1146.79 1008.45C1145.06 981.4 1145.06 981.4 1081.49 883.732C1017.93 786.063 1017.93 786.063 962.63 786.167C907.333 786.271 907.333 786.271 920.964 910.885Z" fill="#E67E17"/>
<path d="M913.629 909.807C899.88 784.115 899.88 784.115 898.765 782.718C897.651 781.321 897.651 781.321 481.938 908.41C66.2246 1035.5 66.2246 1035.5 496.801 1035.5C927.377 1035.5 927.377 1035.5 913.629 909.807Z" fill="#25353D"/>
</g>
<defs>
<clipPath id="clip0">
<rect width="1500" height="1000" fill="white"/>
</clipPath>
</defs>
</svg>
