<svg width="1500" height="1000" viewBox="0 0 1500 1000" fill="none" xmlns="http://www.w3.org/2000/svg">
<g clip-path="url(#clip0)">
<rect width="1500" height="1000" fill="#182328"/>
<path d="M358.62 -35.4328C358.637 -35.3653 358.637 -35.3653 437.922 36.5989C517.207 108.563 517.207 108.563 525.484 106.569C533.762 104.575 533.762 104.575 601.7 34.5373C669.639 -35.5002 669.639 -35.5002 514.12 -35.5002C358.602 -35.5002 358.602 -35.5002 358.62 -35.4328Z" fill="#25353D"/>
<path d="M136.825 95.5735C326.901 78.7923 326.901 78.7923 339.325 22.719C351.749 -33.3542 351.749 -33.3542 351.47 -34.4272C351.191 -35.5002 351.191 -35.5002 148.97 -35.5002C-53.25 -35.5002 -53.25 -35.5002 -53.25 38.4272C-53.25 112.355 -53.25 112.355 136.825 95.5735Z" fill="#E67E17"/>
<path d="M363.477 141.4C393.344 201.126 393.344 201.126 451.966 156.689C510.587 112.252 510.587 112.252 434.094 42.8217C357.601 -26.6087 357.601 -26.6087 345.605 27.5322C333.609 81.6731 333.609 81.6731 363.477 141.4Z" fill="#25353D"/>
<path d="M54.8109 760.313C162.872 690.965 162.872 690.965 275.479 448.81C388.087 206.655 388.087 206.655 357.903 146.295C327.719 85.9352 327.719 85.9352 137.234 102.753C-53.25 119.57 -53.25 119.57 -53.25 474.616C-53.25 829.662 -53.25 829.662 54.8109 760.313Z" fill="#E67E17"/>
<path d="M720.768 70.9487C745.667 177.398 745.667 177.398 756.239 181.298C766.812 185.198 766.812 185.198 816.471 172.8C866.131 160.402 866.131 160.402 907.364 62.4508C948.597 -35.5002 948.597 -35.5002 822.233 -35.5002C695.87 -35.5002 695.87 -35.5002 720.768 70.9487Z" fill="#3D5866"/>
<path d="M916.894 266.027C961.149 368.617 961.149 368.617 1166.34 274.535C1371.53 180.452 1371.53 180.452 1462.39 120.056C1553.25 59.6602 1553.25 59.6602 1553.25 12.08C1553.25 -35.5002 1553.25 -35.5002 1254.82 -35.5002C956.383 -35.5002 956.383 -35.5002 914.511 63.9686C872.639 163.437 872.639 163.437 916.894 266.027Z" fill="#E67E17"/>
<path d="M559.318 147.266C578.68 186.031 578.68 186.031 621.209 209.989C663.738 233.947 663.738 233.947 690.04 222.39C716.341 210.833 716.341 210.833 727.549 195.086C738.757 179.339 738.757 179.339 713.631 71.9193C688.505 -35.5002 688.505 -35.5002 684.074 -35.5002C679.642 -35.5002 679.642 -35.5002 609.799 36.5002C539.957 108.501 539.957 108.501 559.318 147.266Z" fill="#25353D"/>
<path d="M856.892 286.925C940.61 382.834 940.61 382.834 947.749 377.528C954.888 372.222 954.888 372.222 910.77 269.95C866.652 167.678 866.652 167.678 819.913 179.348C773.173 191.017 773.173 191.017 856.892 286.925Z" fill="#25353D"/>
<path d="M331.522 631.28C490.514 575.348 490.514 575.348 531.355 382.229C572.196 189.109 572.196 189.109 552.937 150.549C533.677 111.988 533.677 111.988 525.723 113.904C517.769 115.821 517.769 115.821 456.356 162.374C394.943 208.927 394.943 208.927 283.736 448.069C172.529 687.212 172.529 687.212 331.522 631.28Z" fill="#E67E17"/>
<path d="M524.379 567.69C550.493 562.003 550.493 562.003 604.843 400.817C659.194 239.631 659.194 239.631 618.829 216.892C578.465 194.154 578.465 194.154 538.365 383.766C498.266 573.378 498.266 573.378 524.379 567.69Z" fill="#3D5866"/>
<path d="M761.392 347.651C800.17 480.909 800.17 480.909 835.802 471.336C871.433 461.763 871.433 461.763 903.385 424.736C935.337 387.71 935.337 387.71 849.924 289.859C764.511 192.009 764.511 192.009 754.228 188.215C743.946 184.422 743.946 184.422 733.28 199.408C722.613 214.394 722.613 214.394 761.392 347.651Z" fill="#25353D"/>
<path d="M599.315 559.079C640.305 556.941 640.305 556.941 716.862 520.155C793.419 483.369 793.419 483.369 754.904 351.015C716.388 218.661 716.388 218.661 691.41 229.636C666.431 240.612 666.431 240.612 612.378 400.915C558.326 561.218 558.326 561.218 599.315 559.079Z" fill="#3D5866"/>
<path d="M943.877 549.784C1009.69 634.502 1009.69 634.502 1076.75 597.977C1143.82 561.453 1143.82 561.453 1254.06 376.565C1364.29 191.677 1364.29 191.677 1162.72 284.099C961.148 376.522 961.148 376.522 951.848 383.434C942.549 390.346 942.549 390.346 910.308 427.706C878.068 465.067 878.068 465.067 943.877 549.784Z" fill="#25353D"/>
<path d="M1171.48 612.48C1192.53 660.566 1192.53 660.566 1217.07 673.698C1241.61 686.829 1241.61 686.829 1397.43 395.18C1553.25 103.53 1553.25 103.53 1553.25 85.9071C1553.25 68.2839 1553.25 68.284 1464.6 127.215C1375.94 186.146 1375.94 186.146 1263.18 375.27C1150.42 564.394 1150.42 564.394 1171.48 612.48Z" fill="#E67E17"/>
<path d="M1014.06 647.554C1015.36 654.098 1015.36 654.098 1025.8 669.845C1036.23 685.592 1036.23 685.592 1110.43 672.985C1184.62 660.378 1184.62 660.378 1164.65 614.772C1144.68 569.167 1144.68 569.167 1078.72 605.088C1012.76 641.01 1012.76 641.01 1014.06 647.554Z" fill="#3D5866"/>
<path d="M1251.53 721.157C1256.24 750 1256.24 750 1404.74 762.222C1553.25 774.445 1553.25 774.445 1553.25 446.602C1553.25 118.758 1553.25 118.758 1400.03 405.536C1246.81 692.314 1246.81 692.314 1251.53 721.157Z" fill="#25353D"/>
<path d="M740.152 670.411C833.327 779.116 833.327 779.116 920.672 716.52C1008.02 653.923 1008.02 653.923 1006.7 647.288C1005.37 640.653 1005.37 640.653 938.717 554.845C872.061 469.036 872.061 469.036 835.513 478.856C798.964 488.675 798.964 488.675 722.971 525.191C646.977 561.706 646.977 561.706 740.152 670.411Z" fill="#3D5866"/>
<path d="M1072.38 814.115C1105.73 935.825 1105.73 935.825 1177.54 844.1C1249.36 752.376 1249.36 752.376 1244.59 723.201C1239.82 694.026 1239.82 694.026 1214.48 680.463C1189.14 666.9 1189.14 666.9 1114.09 679.653C1039.04 692.406 1039.04 692.406 1072.38 814.115Z" fill="#E67E17"/>
<path d="M871.143 910.46C905.426 1035.5 905.426 1035.5 993.415 1035.5C1081.4 1035.5 1081.4 1035.5 1090.93 989.637C1100.47 943.773 1100.47 943.772 1065.85 817.404C1031.23 691.036 1031.23 691.036 1021.14 675.81C1011.05 660.585 1011.05 660.585 923.955 723.002C836.86 785.419 836.86 785.419 871.143 910.46Z" fill="#E67E17"/>
<path d="M863.744 910.591C829.498 785.682 829.498 785.682 734.566 674.928C639.634 564.173 639.634 564.173 596.674 566.414C553.713 568.656 553.713 568.656 524.148 575.095C494.583 581.534 494.583 581.534 330.924 639.108C167.264 696.681 167.264 696.681 57.007 767.439C-53.25 838.197 -53.25 838.197 -53.25 936.848C-53.25 1035.5 -53.25 1035.5 422.37 1035.5C897.991 1035.5 897.991 1035.5 863.744 910.591Z" fill="#E67E17"/>
<path d="M1404.02 769.375C1254.78 757.093 1254.78 757.093 1181.14 851.153C1107.5 945.212 1107.5 945.212 1098.12 990.356C1088.73 1035.5 1088.73 1035.5 1320.99 1035.5C1553.25 1035.5 1553.25 1035.5 1553.25 908.579C1553.25 781.658 1553.25 781.658 1404.02 769.375Z" fill="#3D5866"/>
</g>
<defs>
<clipPath id="clip0">
<rect width="1500" height="1000" fill="white"/>
</clipPath>
</defs>
</svg>
