<svg width="1500" height="1000" viewBox="0 0 1500 1000" fill="none" xmlns="http://www.w3.org/2000/svg">
<g clip-path="url(#clip0)">
<rect width="1500" height="1000" fill="#182328"/>
<path d="M448.976 59.4751C482.459 154.45 482.459 154.45 519.607 123.224C556.754 91.997 556.754 91.997 572.914 28.2484C589.074 -35.5002 589.074 -35.5002 502.284 -35.5002C415.494 -35.5002 415.494 -35.5002 448.976 59.4751Z" fill="#3D5866"/>
<path d="M126.142 292.764C305.533 64.1158 305.533 64.1158 310.349 14.3078C315.164 -35.5002 315.164 -35.5002 130.957 -35.5002C-53.25 -35.5002 -53.25 -35.5002 -53.25 242.956C-53.25 521.413 -53.25 521.413 126.142 292.764Z" fill="#25353D"/>
<path d="M394.267 110.255C475.739 156.966 475.739 156.966 441.813 60.733C407.887 -35.5002 407.887 -35.5002 365.129 -35.5002C322.37 -35.5002 322.37 -35.5002 317.583 14.0219C312.795 63.5441 312.795 63.544 394.267 110.255Z" fill="#25353D"/>
<path d="M622.805 130.651C681.557 168.908 681.557 168.908 742.513 66.7038C803.469 -35.5002 803.469 -35.5002 699.972 -35.5002C596.475 -35.5002 596.475 -35.5002 580.264 28.4473C564.054 92.3948 564.054 92.3948 622.805 130.651Z" fill="#E67E17"/>
<path d="M692.412 198.558C698.27 222.584 698.27 222.584 740.491 238.182C782.712 253.781 782.712 253.781 849.655 246.255C916.598 238.729 916.598 238.729 922.381 101.615C928.164 -35.5002 928.164 -35.5002 869.993 -35.5002C811.822 -35.5002 811.822 -35.5002 749.189 69.5164C686.555 174.533 686.555 174.533 692.412 198.558Z" fill="#E67E17"/>
<path d="M193.471 597.085C440.192 414.361 440.192 414.361 440.453 413.832C440.715 413.304 440.715 413.304 457.941 289.113C475.168 164.922 475.168 164.922 392.537 117.546C309.907 70.1714 309.907 70.1714 128.329 301.607C-53.25 533.044 -53.25 533.043 -53.25 656.426C-53.25 779.808 -53.25 779.808 193.471 597.085Z" fill="#25353D"/>
<path d="M966.782 303.174C1009.88 365.445 1009.88 365.445 1186.71 356.822C1363.54 348.198 1363.54 348.198 1458.4 308.031C1553.25 267.864 1553.25 267.863 1553.25 116.182C1553.25 -35.5002 1553.25 -35.5002 1244.3 -35.5002C935.344 -35.5002 935.344 -35.5002 929.516 102.701C923.687 240.902 923.687 240.902 966.782 303.174Z" fill="#3D5866"/>
<path d="M570.059 315.078C691.194 223.845 691.194 223.845 685.385 200.018C679.576 176.192 679.576 176.192 619.895 137.33C560.214 98.4683 560.214 98.4683 521.836 130.729C483.458 162.991 483.458 162.991 482.971 163.68C482.484 164.369 482.484 164.369 465.704 285.34C448.924 406.311 448.924 406.311 570.059 315.078Z" fill="#25353D"/>
<path d="M498.284 421.187C546.159 428.192 546.159 428.192 628.656 424.675C711.154 421.159 711.154 421.159 744.345 340.343C777.535 259.527 777.535 259.527 736.683 244.434C695.832 229.341 695.832 229.341 573.121 321.761C450.41 414.181 450.41 414.181 498.284 421.187Z" fill="#25353D"/>
<path d="M757.317 443.581C796.477 464.17 796.477 464.17 899.35 415.586C1002.22 367.001 1002.22 367.001 960.274 306.384C918.325 245.768 918.325 245.768 851.551 253.275C784.777 260.782 784.777 260.782 751.467 341.887C718.158 422.993 718.158 422.993 757.317 443.581Z" fill="#E67E17"/>
<path d="M666.442 526.791C777.414 618.59 777.414 618.59 784.996 544.413C792.578 470.236 792.578 470.236 752.683 449.26C712.788 428.285 712.788 428.285 634.128 431.638C555.469 434.991 555.469 434.991 666.442 526.791Z" fill="#E67E17"/>
<path d="M786.172 638.229C788.428 650.955 788.428 650.955 862.141 667.405C935.853 683.856 935.853 683.856 952.161 674.506C968.47 665.155 968.47 665.155 986.511 519.501C1004.55 373.847 1004.55 373.847 902.152 422.208C799.752 470.568 799.752 470.568 791.834 548.035C783.916 625.502 783.916 625.502 786.172 638.229Z" fill="#3D5866"/>
<path d="M1025.43 678.266C1075.12 691.8 1075.12 691.8 1126.89 674.603C1178.66 657.407 1178.66 657.407 1268.26 506.539C1357.86 355.671 1357.86 355.671 1184.9 364.105C1011.94 372.54 1011.94 372.54 993.845 518.636C975.749 664.732 975.749 664.732 1025.43 678.266Z" fill="#25353D"/>
<path d="M500.327 843.891C781.378 652.281 781.379 652.281 779.188 639.925C776.997 627.568 776.997 627.568 660.731 531.39C544.465 435.211 544.465 435.211 494.214 427.858C443.963 420.504 443.963 420.504 195.356 604.624C-53.25 788.745 -53.25 788.745 -53.25 912.122C-53.25 1035.5 -53.25 1035.5 83.0123 1035.5C219.275 1035.5 219.275 1035.5 500.327 843.891Z" fill="#25353D"/>
<path d="M1217.63 703.258C1249.9 746.35 1249.9 746.35 1264.54 748.195C1279.19 750.04 1279.19 750.04 1416.22 602.887C1553.25 455.735 1553.25 455.735 1553.25 365.7C1553.25 275.666 1553.25 275.666 1460.04 315.137C1366.83 354.608 1366.83 354.608 1276.1 507.387C1185.37 660.166 1185.37 660.166 1217.63 703.258Z" fill="#E67E17"/>
<path d="M1307.09 766.692C1328.07 780.241 1328.07 780.241 1440.66 759.942C1553.25 739.643 1553.25 739.643 1553.25 602.956C1553.25 466.269 1553.25 466.269 1419.68 609.706C1286.11 753.143 1286.11 753.143 1307.09 766.692Z" fill="#E67E17"/>
<path d="M1117.45 846.795C1155.37 995.68 1155.37 995.68 1199.64 873.004C1243.91 750.328 1243.91 750.328 1211.82 707.474C1179.74 664.621 1179.74 664.621 1129.63 681.265C1079.52 697.909 1079.52 697.909 1117.45 846.795Z" fill="#3D5866"/>
<path d="M913.431 862.987C932.509 690.474 932.509 690.474 859.278 674.132C786.048 657.789 786.048 657.789 509.036 846.644C232.024 1035.5 232.024 1035.5 563.189 1035.5C894.354 1035.5 894.354 1035.5 913.431 862.987Z" fill="#E67E17"/>
<path d="M1150.94 1021.9C1151.19 1008.31 1151.19 1008.31 1111.73 853.391C1072.26 698.473 1072.26 698.473 1022.28 684.858C972.299 671.243 972.299 671.243 956.045 680.562C939.791 689.881 939.791 689.881 920.681 862.691C901.571 1035.5 901.571 1035.5 1026.13 1035.5C1150.69 1035.5 1150.69 1035.5 1150.94 1021.9Z" fill="#E67E17"/>
<path d="M1314.93 910.7C1323.59 785.9 1323.59 785.9 1301.45 771.6C1279.31 757.299 1279.31 757.299 1264.82 755.475C1250.34 753.65 1250.34 753.65 1204.35 881.1C1158.36 1008.55 1158.36 1008.55 1158.11 1022.03C1157.86 1035.5 1157.86 1035.5 1232.07 1035.5C1306.28 1035.5 1306.28 1035.5 1314.93 910.7Z" fill="#3D5866"/>
<path d="M1441.97 767.008C1330.69 787.07 1330.69 787.07 1322.08 911.284C1313.46 1035.5 1313.46 1035.5 1433.36 1035.5C1553.25 1035.5 1553.25 1035.5 1553.25 891.222C1553.25 746.946 1553.25 746.946 1441.97 767.008Z" fill="#E67E17"/>
</g>
<defs>
<clipPath id="clip0">
<rect width="1500" height="1000" fill="white"/>
</clipPath>
</defs>
</svg>
