<svg width="1500" height="1000" viewBox="0 0 1500 1000" fill="none" xmlns="http://www.w3.org/2000/svg">
<g clip-path="url(#clip0)">
<rect width="1500" height="1000" fill="#182328"/>
<path d="M409.536 19.0533C428.002 73.6065 428.002 73.6065 495.177 104.94C562.352 136.274 562.352 136.274 569.208 133.853C576.065 131.432 576.064 131.432 608.059 47.9662C640.053 -35.5 640.053 -35.5 515.562 -35.5C391.071 -35.5 391.071 -35.5 409.536 19.0533Z" fill="#3D5866"/>
<path d="M164.461 276.511C382.173 -35.5 382.173 -35.5 164.461 -35.5C-53.25 -35.5 -53.25 -35.5 -53.25 276.511C-53.25 588.522 -53.25 588.522 164.461 276.511Z" fill="#E67E17"/>
<path d="M632.56 159.037C681.823 185.475 681.823 185.475 725.256 74.9875C768.689 -35.5 768.689 -35.5 708.212 -35.5C647.734 -35.5 647.734 -35.5 615.516 48.5497C583.298 132.599 583.298 132.599 632.56 159.037Z" fill="#25353D"/>
<path d="M85.4941 906.576C224.238 795.245 224.238 795.245 274.524 744.791C324.809 694.337 324.809 694.337 373.113 385.435C421.418 76.5337 421.418 76.5337 403.67 24.1011C385.922 -28.3315 385.922 -28.3315 166.336 286.366C-53.25 601.064 -53.25 601.064 -53.25 809.486C-53.25 1017.91 -53.25 1017.91 85.4941 906.576Z" fill="#25353D"/>
<path d="M693.894 214.602C700.333 238.445 700.333 238.445 926.409 101.472C1152.48 -35.5 1152.48 -35.5 964.442 -35.5C776.4 -35.5 776.4 -35.5 731.928 77.6298C687.455 190.76 687.455 190.76 693.894 214.602Z" fill="#3D5866"/>
<path d="M365.104 664.942C397.163 641.785 397.163 641.785 477.472 391.927C557.781 142.068 557.781 142.068 492.843 111.778C427.904 81.4877 427.904 81.4877 380.475 384.793C333.046 688.098 333.046 688.098 365.104 664.942Z" fill="#25353D"/>
<path d="M426.466 624.783C446.467 613.289 446.467 613.289 565.317 488.358C684.167 363.427 684.167 363.427 689.326 303.87C694.485 244.314 694.485 244.314 687.554 218.651C680.624 192.988 680.624 192.988 629.57 165.588C578.516 138.189 578.516 138.189 571.773 140.569C565.03 142.95 565.03 142.95 485.748 389.613C406.466 636.277 406.466 636.277 426.466 624.783Z" fill="#25353D"/>
<path d="M879 323.527C1066.38 286.512 1066.38 286.512 1260.31 125.506C1454.24 -35.5 1454.24 -35.5 1310.29 -35.5C1166.34 -35.5 1166.34 -35.5 933.936 105.309C701.527 246.119 701.527 246.119 696.571 303.331C691.615 360.543 691.615 360.543 879 323.527Z" fill="#E67E17"/>
<path d="M659.879 591.622C861.791 571.627 861.791 571.626 912.652 540.008C963.512 508.39 963.513 508.39 1012.64 401.57C1061.78 294.749 1061.78 294.749 875.609 331.524C689.441 368.299 689.441 368.299 573.704 489.958C457.966 611.617 457.966 611.617 659.879 591.622Z" fill="#3D5866"/>
<path d="M997.05 549.018C1023.67 587.522 1023.67 587.522 1046.09 602.219C1068.51 616.917 1068.51 616.917 1182.76 509.291C1297 401.665 1297 401.665 1410.96 183.083C1524.92 -35.5 1524.92 -35.5 1495.2 -35.5C1465.48 -35.5 1465.48 -35.5 1268.18 128.304C1070.89 292.109 1070.89 292.109 1020.66 401.312C970.431 510.515 970.431 510.515 997.05 549.018Z" fill="#25353D"/>
<path d="M1097.59 674.878C1121.93 727.442 1121.93 727.442 1173.05 663.901C1224.16 600.36 1224.16 600.36 1257.74 508.624C1291.32 416.889 1291.32 416.889 1182.29 519.601C1073.26 622.314 1073.26 622.314 1097.59 674.878Z" fill="#E67E17"/>
<path d="M913.48 647.447C958.999 718.642 958.999 718.642 988.01 654.579C1017.02 590.516 1017.02 590.516 991.168 553.123C965.316 515.729 965.316 515.729 916.638 545.99C867.96 576.252 867.96 576.252 913.48 647.447Z" fill="#3D5866"/>
<path d="M965.871 736.248C968.413 746.023 968.413 746.023 1042.23 744.694C1116.06 743.365 1116.06 743.365 1116.73 739.043C1117.4 734.72 1117.4 734.72 1091.74 679.319C1066.09 623.918 1066.09 623.918 1044.38 609.683C1022.66 595.447 1022.66 595.448 992.995 660.96C963.328 726.473 963.328 726.473 965.871 736.248Z" fill="#E67E17"/>
<path d="M1264.53 667.384C1297.83 732.85 1297.83 732.85 1379.97 702.968C1462.12 673.086 1462.12 673.086 1507.69 629.841C1553.25 586.596 1553.25 586.596 1553.25 275.548C1553.25 -35.5 1553.25 -35.5 1543.13 -35.5C1533.01 -35.5 1533.01 -35.5 1418.1 184.913C1303.19 405.325 1303.19 405.325 1267.21 503.622C1231.23 601.919 1231.23 601.919 1264.53 667.384Z" fill="#25353D"/>
<path d="M1154.79 796.781C1186.71 847.436 1186.71 847.436 1239.21 792.058C1291.72 736.68 1291.72 736.68 1259.18 672.704C1226.64 608.728 1226.64 608.728 1175.57 672.214C1124.5 735.701 1124.5 735.701 1123.69 740.913C1122.88 746.126 1122.88 746.126 1154.79 796.781Z" fill="#3D5866"/>
<path d="M590.786 779.658C945.922 765.35 945.922 765.35 953.802 756.998C961.681 748.646 961.681 748.646 958.945 738.126C956.21 727.606 956.21 727.606 908.675 653.26C861.141 578.914 861.141 578.914 655.481 599.28C449.822 619.646 449.822 619.646 425.99 633.342C402.159 647.037 402.159 647.037 366.331 672.916C330.503 698.795 330.503 698.795 283.077 746.38C235.65 793.966 235.65 793.966 590.786 779.658Z" fill="#25353D"/>
<path d="M1198.6 915.813C1207.28 977.152 1207.28 977.152 1322.68 851.407C1438.07 725.663 1438.07 725.663 1447.7 704.071C1457.32 682.479 1457.32 682.479 1377.7 711.44C1298.09 740.402 1298.09 740.402 1244.01 797.438C1189.93 854.474 1189.93 854.474 1198.6 915.813Z" fill="#3D5866"/>
<path d="M1208.46 1011.03C1208.54 1035.5 1208.54 1035.5 1300.64 1035.5C1392.75 1035.5 1392.75 1035.5 1414.32 887.08C1435.89 738.662 1435.89 738.662 1322.14 862.614C1208.38 986.566 1208.38 986.566 1208.46 1011.03Z" fill="#E67E17"/>
<path d="M959.716 902.856C968.23 1035.5 968.23 1035.5 1084.8 1035.5C1201.37 1035.5 1201.37 1035.5 1201.29 1010.46C1201.21 985.429 1201.21 985.429 1191.95 919.976C1182.69 854.524 1182.69 854.524 1149.93 802.529C1117.18 750.534 1117.18 750.534 1042.2 751.883C967.221 753.233 967.221 753.233 959.211 761.723C951.202 770.213 951.202 770.213 959.716 902.856Z" fill="#E67E17"/>
<path d="M952.608 904.056C944.171 772.614 944.171 772.614 586.063 787.041C227.956 801.469 227.956 801.469 87.353 914.292C-53.25 1027.11 -53.25 1027.11 -53.25 1031.31C-53.25 1035.5 -53.25 1035.5 453.898 1035.5C961.045 1035.5 961.045 1035.5 952.608 904.056Z" fill="#E67E17"/>
<path d="M1510.14 637.412C1467.03 678.328 1467.03 678.328 1455.81 703.501C1444.59 728.675 1444.59 728.675 1422.29 882.087C1400 1035.5 1400 1035.5 1476.62 1035.5C1553.25 1035.5 1553.25 1035.5 1553.25 815.998C1553.25 596.495 1553.25 596.495 1510.14 637.412Z" fill="#3D5866"/>
</g>
<defs>
<clipPath id="clip0">
<rect width="1500" height="1000" fill="white"/>
</clipPath>
</defs>
</svg>
