<svg xmlns="http://www.w3.org/2000/svg" viewBox="0 0 32 32"><g id="barn"><path d="M29.68,10.27l-5.42-5a.92.92,0,0,0-.31-.2l-7.58-3a1,1,0,0,0-.74,0l-7.58,3a.92.92,0,0,0-.31.2l-5.42,5A1,1,0,0,0,2,11V29a1,1,0,0,0,1,1H29a1,1,0,0,0,1-1V11A1,1,0,0,0,29.68,10.27ZM21,26.52l-3.64-4,3.64-4ZM19.64,28H12.36L16,24ZM16,21.07,12.27,17h7.46Zm-1.36,1.48-3.64,4V18.57ZM23,28V16a1.89,1.89,0,0,0-.05-.23.83.83,0,0,0,0-.15.6.6,0,0,0-.09-.13.91.91,0,0,0-.13-.19s0,0,0,0l-.13-.07a1.22,1.22,0,0,0-.19-.12l-.21,0L22,15H10a.7.7,0,0,0-.14,0,.85.85,0,0,0-.22,0,1.22,1.22,0,0,0-.19.12l-.13.07s0,0,0,0a.91.91,0,0,0-.13.19.6.6,0,0,0-.09.13.83.83,0,0,0,0,.15A1.89,1.89,0,0,0,9,16V28H7V13.18l3.74-3.8L16,7.09l5.26,2.29L25,13.18V28Zm5,0H27V12.77a1,1,0,0,0-.29-.7L22.55,7.84a1,1,0,0,0-.32-.22L16.4,5.08a1,1,0,0,0-.8,0L9.77,7.62a1,1,0,0,0-.32.22L5.29,12.07a1,1,0,0,0-.29.7V28H4V11.44L9,6.86l7-2.78,7,2.78,5,4.58Z"/></g></svg>