<svg xmlns="http://www.w3.org/2000/svg" viewBox="0 0 32 32"><g id="bird_house" data-name="bird house"><path d="M29.43,15,16.71,2.29a1,1,0,0,0-1.42,0l-13,13a1,1,0,0,0,0,1.42l2.83,2.83a1,1,0,0,0,.71.29h0a.75.75,0,0,0,.16,0v7.9A2.32,2.32,0,0,0,8.31,30H23.69A2.32,2.32,0,0,0,26,27.69V19.53a1,1,0,0,0,.61-.27l2.82-2.82A1,1,0,0,0,29.43,15ZM24,27.69a.31.31,0,0,1-.31.31H8.31A.31.31,0,0,1,8,27.69V18l8-8.52L24,18h0Zm1.92-10.57-9.19-9.8a1,1,0,0,0-1.46,0L5.81,17.39,4.41,16,16,4.41,27.31,15.73Z"/><path d="M16,15a6,6,0,1,0,6,6A6,6,0,0,0,16,15Zm0,10a4,4,0,1,1,4-4A4,4,0,0,1,16,25Z"/></g></svg>