<svg xmlns="http://www.w3.org/2000/svg" viewBox="0 0 32 32"><g id="cutter"><path d="M21.38,15.37s0,0,0-.08l1.13-3.74A7.57,7.57,0,0,0,20,3.44L18.49,2.22a1,1,0,0,0-1-.14,1,1,0,0,0-.61.83L16,13h0L15,2.91a1,1,0,0,0-.61-.83,1,1,0,0,0-1,.14L11.85,3.44a7.57,7.57,0,0,0-2.53,8.11l1.15,3.84-.07.08a5.3,5.3,0,0,0-.8,2.44l-.59,9a2.92,2.92,0,0,0,.78,2.2,2.94,2.94,0,0,0,5.08-2V21.3l1.06-1.6L17,21.3v5.77A2.94,2.94,0,0,0,19.93,30a2.93,2.93,0,0,0,2.93-3.13l-.6-9A5.09,5.09,0,0,0,21.38,15.37ZM18.69,4.94l.08.06a5.56,5.56,0,0,1,1.86,6l-.85,2.83A5.29,5.29,0,0,0,18,13.09ZM13.46,19.81l-1.93-.64.07-1.12a3.11,3.11,0,0,1,.08-.44,3.17,3.17,0,0,0,1.23.65l1.36.34ZM11.93,28a.9.9,0,0,1-.68-.3A1,1,0,0,1,11,27l.39-5.77,1.48.49v5.35A.94.94,0,0,1,11.93,28Zm3.53-11.17-2.06-.51a1.08,1.08,0,0,1-.78-.75L11.24,11A5.56,5.56,0,0,1,13.1,5l.07-.06L14,14.09A1,1,0,0,0,15,15h2a3.28,3.28,0,0,1,3.26,3.05l.07,1.12-1.93.64-1.13-1.69A3.11,3.11,0,0,0,15.46,16.83ZM20.61,27.7a.88.88,0,0,1-.68.3.93.93,0,0,1-.93-.93V21.72l1.48-.49L20.86,27A.91.91,0,0,1,20.61,27.7Z"/></g></svg>