<svg xmlns="http://www.w3.org/2000/svg" viewBox="0 0 32 32"><g id="dig"><path d="M11.37,19.52s0,0,0,.06,0,.05,0,.08l1.07,3a1,1,0,0,0,.67.62.84.84,0,0,0,.27,0,1,1,0,0,0,.62-.21l7.63-6h0a2.31,2.31,0,0,0,.86-1.53,2.26,2.26,0,0,0-.48-1.68L21,12.51h0l-.81-1A.69.69,0,0,1,20,11a.77.77,0,0,1,.26-.46l.65-.51a2.28,2.28,0,0,0,.63.09,2.49,2.49,0,0,0,1.55-.53l3.93-3.1A2.5,2.5,0,0,0,25.79,2,2.46,2.46,0,0,0,24,2.54L20,5.63a2.52,2.52,0,0,0-.68,3.09l-.29.22a2.67,2.67,0,0,0-1,1.8,2.64,2.64,0,0,0,.39,1.71L16.57,12a4.62,4.62,0,0,0-4,.82,4.57,4.57,0,0,0-1.65,4.53Zm9.06-4-6.54,5.15-.36-1L20,14.53l.44.56a.29.29,0,0,1-.05.41Zm.83-8.3,3.93-3.09A.49.49,0,0,1,25.5,4h.06a.5.5,0,0,1,.25.89L21.88,8a.5.5,0,0,1-.7-.08A.52.52,0,0,1,21.26,7.2ZM13.8,14.36a2.58,2.58,0,0,1,2.26-.47l1.17.31L13,17.53l-.13-.63A2.55,2.55,0,0,1,13.8,14.36Z"/><path d="M29,22H19.61a4,4,0,0,0-3.33,1.78,2.74,2.74,0,0,1-4.56,0A4,4,0,0,0,8.39,22H3a1,1,0,0,0-1,1v6a1,1,0,0,0,1,1H29a1,1,0,0,0,1-1V23A1,1,0,0,0,29,22Zm-1,6H4V24H8.39a2,2,0,0,1,1.67.89,4.73,4.73,0,0,0,7.88,0A2,2,0,0,1,19.61,24H28Z"/></g></svg>