<svg xmlns="http://www.w3.org/2000/svg" viewBox="0 0 32 32"><g id="eggs"><path d="M29,17.5a2.51,2.51,0,0,0-1-2c0-.16,0-.32,0-.48,0-3.36-2-6-4.5-6a4.49,4.49,0,0,0-4,3.22A4.49,4.49,0,0,0,15.5,9a4.49,4.49,0,0,0-4,3.22A4.49,4.49,0,0,0,7.5,9C5,9,3,11.64,3,15c0,.16,0,.32,0,.48A2.49,2.49,0,0,0,4.21,20l.58,2.3A2.27,2.27,0,0,0,7,24H24a2.27,2.27,0,0,0,2.21-1.73l.58-2.3A2.49,2.49,0,0,0,29,17.5ZM23.5,11c1.35,0,2.5,1.83,2.5,4H21C21,12.83,22.15,11,23.5,11Zm-8,0c1.35,0,2.5,1.83,2.5,4H13C13,12.83,14.15,11,15.5,11Zm-8,0c1.35,0,2.5,1.83,2.5,4H5C5,12.83,6.15,11,7.5,11ZM24,22H7a.28.28,0,0,1-.27-.21L6.28,20H24.72l-.45,1.79A.28.28,0,0,1,24,22Zm2.5-4H4.5a.5.5,0,0,1,0-1h22a.5.5,0,0,1,0,1Z"/></g></svg>