<svg xmlns="http://www.w3.org/2000/svg" viewBox="0 0 32 32"><g id="farmer"><path d="M21,17a5.16,5.16,0,0,0,1-3V12.39c2.65-.62,4-1.58,4-2.89,0-1.58-2-2.44-4.07-2.91l-.7-2.78A2.38,2.38,0,0,0,18.91,2H13.09a2.38,2.38,0,0,0-2.32,1.81l-.7,2.8C7.82,7.12,6,8,6,9.5c0,1.06.9,1.91,2.67,2.52.4.13.85.25,1.33.36v1.44a5.17,5.17,0,0,0,3,4.7v.56a5.94,5.94,0,0,0-5,5.86V29a1,1,0,0,0,1,1H23a1,1,0,0,0,1-1V24.94a5.94,5.94,0,0,0-5-5.86v-.55A5,5,0,0,0,21,17ZM12.71,4.3a.39.39,0,0,1,.38-.3h5.82a.39.39,0,0,1,.38.3l.49,1.92c-.65-.08-1.25-.13-1.72-.16C17.4,6,16.71,6,16,6a32.63,32.63,0,0,0-3.78.23ZM9.32,10.13A3.68,3.68,0,0,1,8.07,9.5C8.62,9,11.27,8,16,8c.67,0,1.31,0,1.94.06,3.53.22,5.52,1,6,1.44a5.09,5.09,0,0,1-1.93.83V10a1,1,0,0,0-1-1H11a1,1,0,0,0-1,1v.32C9.76,10.26,9.53,10.2,9.32,10.13ZM12,13.82V11h8v3a3.06,3.06,0,0,1-.61,1.78,3.12,3.12,0,0,1-1.65,1.11,1,1,0,0,0-.72,1S17,18,17,18v1.62A1.61,1.61,0,0,1,16,20a1.54,1.54,0,0,1-1-.39V18s0-.07,0-.11a1,1,0,0,0-.7-1A3.2,3.2,0,0,1,12,13.82ZM10,28V24.94a3.92,3.92,0,0,1,2-3.41V28Zm4,0V21.35A3.38,3.38,0,0,0,16,22a3.72,3.72,0,0,0,2-.63V28Zm8-3.06V28H20V21.53A3.92,3.92,0,0,1,22,24.94Z"/></g></svg>