<svg xmlns="http://www.w3.org/2000/svg" viewBox="0 0 32 32"><g id="fence"><path d="M29,15a1,1,0,0,0,1-1V10a1,1,0,0,0-1-1H27V8a1,1,0,0,0-.18-.57C26,6.18,23.87,3.19,23.23,2.56a1.65,1.65,0,0,0-2.56.12L17.19,7.41A1,1,0,0,0,17,8V9H15V8a1,1,0,0,0-.18-.57c-.87-1.25-3-4.24-3.59-4.87a1.65,1.65,0,0,0-2.56.12L5.19,7.41A1,1,0,0,0,5,8V9H3a1,1,0,0,0-1,1v4a1,1,0,0,0,1,1H5v4H3a1,1,0,0,0-1,1v4a1,1,0,0,0,1,1H5v3.29A1.69,1.69,0,0,0,6.67,30h6.66A1.69,1.69,0,0,0,15,28.29V25h2v3.29A1.69,1.69,0,0,0,18.67,30h6.66A1.69,1.69,0,0,0,27,28.29V25h2a1,1,0,0,0,1-1V20a1,1,0,0,0-1-1H27V15Zm-1-4v2H27V11ZM15,15h2v4H15Zm2-4v2H15V11ZM4,13V11H5v2ZM4,23V21H5v2Zm9,5H7V8.33l3-4.12c.46.56,1.48,1.94,3,4.1Zm2-5V21h2v2Zm10,5H19V8.33l3-4.12c.46.56,1.48,1.94,3,4.1Zm3-7v2H27V21Z"/></g></svg>