<svg xmlns="http://www.w3.org/2000/svg" viewBox="0 0 32 32"><g id="honey"><path d="M29.81,11.32l-2-3.78h0a2.45,2.45,0,0,0,.18-.9A3.64,3.64,0,0,0,24.37,3H7.63A3.64,3.64,0,0,0,4,6.63a2.45,2.45,0,0,0,.18.9h0l-2,3.78a1.62,1.62,0,0,0,.14,1.74A2,2,0,0,0,3,13.6v9.89A5.51,5.51,0,0,0,8.51,29h15A5.51,5.51,0,0,0,29,23.49V13.6a2,2,0,0,0,.67-.54A1.62,1.62,0,0,0,29.81,11.32ZM7.63,5H24.37A1.63,1.63,0,0,1,26,6.63a.38.38,0,0,1-.37.37H6.37A.38.38,0,0,1,6,6.63,1.63,1.63,0,0,1,7.63,5Zm-2,4H26.33l1.5,2.84-2-.38a7.85,7.85,0,0,0-3.31.1l-1.06.27a5.61,5.61,0,0,1-2.76,0l-.85-.22a7.64,7.64,0,0,0-3.74,0l-.85.22a5.61,5.61,0,0,1-2.76,0l-1.06-.27a7.79,7.79,0,0,0-1.87-.23,8.76,8.76,0,0,0-1.44.13l-2,.38ZM23.49,27h-15A3.52,3.52,0,0,1,5,23.49V13.72l1.53-.29A5.73,5.73,0,0,1,9,13.5l1,.27A8,8,0,0,0,11.9,14a7.85,7.85,0,0,0,1.87-.23l.85-.22a5.85,5.85,0,0,1,2.76,0l.85.22a7.68,7.68,0,0,0,3.75,0L23,13.5a5.73,5.73,0,0,1,2.44-.07l1.53.29v9.77A3.52,3.52,0,0,1,23.49,27Z"/><path d="M21.1,16H10.9A1.9,1.9,0,0,0,9,17.9v4.2A1.9,1.9,0,0,0,10.9,24H21.1A1.9,1.9,0,0,0,23,22.1V17.9A1.9,1.9,0,0,0,21.1,16ZM21,22H11V18H21Z"/></g></svg>