<svg xmlns="http://www.w3.org/2000/svg" viewBox="0 0 32 32"><g id="leaf"><path d="M29.8,23.63a23.21,23.21,0,0,0-.93-3.92,6.23,6.23,0,0,0-4.47-4.07,4.89,4.89,0,0,0-3.82.56A4,4,0,0,0,18.89,16a4,4,0,0,0-1.89.76v-.89a5,5,0,0,0,3.08-2.3,6.24,6.24,0,0,0,.27-6,22.84,22.84,0,0,0-2.11-3.43,21.78,21.78,0,0,0-1.51-1.8,1,1,0,0,0-1.46,0,21.78,21.78,0,0,0-1.51,1.8,22.84,22.84,0,0,0-2.11,3.43,6.24,6.24,0,0,0,.27,6A5,5,0,0,0,15,15.88v.89A4,4,0,0,0,13.11,16a3.8,3.8,0,0,0-1.69.19,4.94,4.94,0,0,0-3.82-.56,6.23,6.23,0,0,0-4.47,4.07,23.21,23.21,0,0,0-.93,3.92A20.52,20.52,0,0,0,2,26a1,1,0,0,0,.29.74A1.05,1.05,0,0,0,3,27H3a20.72,20.72,0,0,0,2.34-.2,23,23,0,0,0,3.92-.93,6.23,6.23,0,0,0,4.07-4.47A5,5,0,0,0,13.05,18,2.79,2.79,0,0,1,15,20.15V28a1,1,0,0,0,2,0V20.15A2.79,2.79,0,0,1,19,18a5,5,0,0,0-.31,3.37,6.23,6.23,0,0,0,4.07,4.47,23,23,0,0,0,3.92.93A20.72,20.72,0,0,0,29,27h0a1.05,1.05,0,0,0,.71-.29A1,1,0,0,0,30,26,20.52,20.52,0,0,0,29.8,23.63ZM11.42,20.94a4.24,4.24,0,0,1-2.76,3,20.79,20.79,0,0,1-3.57.85c-.34.05-.68.09-1,.12,0-.35.07-.69.12-1A21.24,21.24,0,0,1,5,20.34a4.24,4.24,0,0,1,3-2.76,4,4,0,0,1,.83-.1,2.94,2.94,0,0,1,1,.19L7.24,20.34a1,1,0,0,0,0,1.42,1,1,0,0,0,1.42,0l2.65-2.66A3.15,3.15,0,0,1,11.42,20.94Zm2.21-8.41a4.23,4.23,0,0,1-.2-4.09,20.51,20.51,0,0,1,1.93-3.13c.2-.27.42-.54.64-.81.22.27.44.54.64.81a20.51,20.51,0,0,1,1.93,3.13,4.23,4.23,0,0,1-.2,4.09A3.15,3.15,0,0,1,17,13.76V10a1,1,0,0,0-2,0v3.76A3.15,3.15,0,0,1,13.63,12.53ZM26.91,24.82A20.79,20.79,0,0,1,23.34,24a4.24,4.24,0,0,1-2.76-3,3.15,3.15,0,0,1,.11-1.84l2.65,2.66a1,1,0,0,0,1.42,0,1,1,0,0,0,0-1.42l-2.68-2.67a2.94,2.94,0,0,1,1-.19,4,4,0,0,1,.83.1,4.24,4.24,0,0,1,3,2.76,21.24,21.24,0,0,1,.85,3.57c.05.34.09.68.12,1C27.59,24.91,27.25,24.87,26.91,24.82Z"/></g></svg>