<svg xmlns="http://www.w3.org/2000/svg" viewBox="0 0 32 32"><g id="milk"><path d="M26.71,7.29a1,1,0,0,0-1.42,0L22.62,10l-.14-.11a1.19,1.19,0,0,1-.48-1V7A2.5,2.5,0,0,0,21.5,2h-11A2.5,2.5,0,0,0,10,7v2a1.19,1.19,0,0,1-.48,1L9.38,10,6.71,7.29A1,1,0,1,0,5.29,8.71l2.47,2.47-.16.12A4,4,0,0,0,6,14.5V26a4,4,0,0,0,4,4H22a4,4,0,0,0,4-4V14.5a4,4,0,0,0-1.6-3.2l-.16-.12,2.47-2.47A1,1,0,0,0,26.71,7.29ZM10.5,4h11a.5.5,0,0,1,0,1h-11a.5.5,0,0,1,0-1Zm.22,7.46A3.22,3.22,0,0,0,12,8.9V7h8V8.9a3.22,3.22,0,0,0,1.28,2.56L23.2,12.9a2,2,0,0,1,.8,1.6V24H8V14.5a2,2,0,0,1,.8-1.6ZM22,28H10a2,2,0,0,1-2-2H24A2,2,0,0,1,22,28Z"/></g></svg>