<svg xmlns="http://www.w3.org/2000/svg" viewBox="0 0 32 32"><g id="mower"><path d="M29.86,16.49,27.22,12.1A2.25,2.25,0,0,0,25.29,11H19.41l-2-2,.3-.29a1,1,0,1,0-1.42-1.42l-2,2a1,1,0,0,0,0,1.42,1,1,0,0,0,1.42,0l.29-.3,2,2v3.33a.26.26,0,0,1-.26.26H13.41l-3.33-3.34A2.29,2.29,0,0,0,8.48,12H7V6.71A1.72,1.72,0,0,0,5.29,5H3.71A1.72,1.72,0,0,0,2,6.71v15A2.26,2.26,0,0,0,4.26,24H6a4,4,0,0,0,8,0h4a4,4,0,0,0,8,0h1.74A2.26,2.26,0,0,0,30,21.74V17A1,1,0,0,0,29.86,16.49ZM4,7H5v5H4Zm6,19a2,2,0,1,1,2-2A2,2,0,0,1,10,26Zm12,0a2,2,0,1,1,2-2A2,2,0,0,1,22,26Zm6-4.26a.26.26,0,0,1-.26.26h-2.3a4,4,0,0,0-6.88,0H13.44a4,4,0,0,0-6.88,0H4.26A.26.26,0,0,1,4,21.74V14H8.48a.25.25,0,0,1,.18.08L10.59,16H8a1,1,0,0,0,0,2h9.74A2.26,2.26,0,0,0,20,15.74V13h5.29a.26.26,0,0,1,.22.13L27.23,16H25a1,1,0,0,0,0,2h3Z"/></g></svg>