<svg xmlns="http://www.w3.org/2000/svg" viewBox="0 0 32 32"><g id="pesticide"><path d="M28,18.05V12.24a2.61,2.61,0,0,1,1.45-2.35,1,1,0,1,0-.9-1.78A4.59,4.59,0,0,0,26,12.24v6.27a2.51,2.51,0,0,0-1,2v4a1.47,1.47,0,0,0,1,1.38V27a1,1,0,0,1-2,0V7.18A5.18,5.18,0,0,0,18.82,2H11.18A5.18,5.18,0,0,0,6,7.18V10H4.93A1.94,1.94,0,0,0,3,11.93V17a1,1,0,0,0,0,2v5a1,1,0,0,0-1,1v4a1,1,0,0,0,1,1H19a1,1,0,0,0,1-1V25a1,1,0,0,0-1-1V19a1,1,0,0,0,0-2V11.93A1.94,1.94,0,0,0,17.07,10H17V9.35A2.36,2.36,0,0,0,14.65,7h-2.3A2.36,2.36,0,0,0,10,9.35V10H8V7.18A3.19,3.19,0,0,1,11.18,4h7.64A3.19,3.19,0,0,1,22,7.18V27a3,3,0,0,0,6,0V26h.54A1.47,1.47,0,0,0,30,24.54v-4A2.5,2.5,0,0,0,28,18.05ZM18,28H4V26H18Zm-1-4H5l0-5H17ZM5,17l0-5H17v5Zm7-7.65A.35.35,0,0,1,12.35,9h2.3a.35.35,0,0,1,.35.35V10H12ZM28,24H27V20.5a.5.5,0,0,1,1,0Z"/></g></svg>