<svg xmlns="http://www.w3.org/2000/svg" viewBox="0 0 32 32"><g id="plant"><path d="M29,26H25.94A9,9,0,0,0,17,18V11.05a8.19,8.19,0,0,0,3.77.94,7.32,7.32,0,0,0,3.4-.82,7.88,7.88,0,0,0,3.8-5A1,1,0,0,0,27.43,5a9.93,9.93,0,0,0-8.6,0A8.54,8.54,0,0,0,17,6.31V5a1,1,0,0,0-2,0v5.31A8.54,8.54,0,0,0,13.17,9a10,10,0,0,0-8.6,0A1,1,0,0,0,4,10.13a7.88,7.88,0,0,0,3.8,5,7.32,7.32,0,0,0,3.4.82A8.19,8.19,0,0,0,15,15.05V18a9,9,0,0,0-8.94,8H3a1,1,0,0,0,0,2H29a1,1,0,0,0,0-2ZM19.77,6.78a7.62,7.62,0,0,1,6-.31A5.61,5.61,0,0,1,23.23,9.4a5.83,5.83,0,0,1-5.9-.46A7,7,0,0,1,19.77,6.78Zm-11,6.62a5.61,5.61,0,0,1-2.54-2.93,7.62,7.62,0,0,1,6,.31,7,7,0,0,1,2.44,2.16A5.83,5.83,0,0,1,8.77,13.4ZM8.07,26A7,7,0,0,1,15,20h2a7,7,0,0,1,6.93,6Z"/></g></svg>