<svg xmlns="http://www.w3.org/2000/svg" viewBox="0 0 32 32"><g id="plant_2" data-name="plant 2"><path d="M14,22V13.16c.21,0,.43,0,.67,0a5.88,5.88,0,0,0,3.38-1A6.16,6.16,0,0,0,20.49,6a1,1,0,0,0-.71-.78A6.19,6.19,0,0,0,14,6.46V6a1,1,0,0,0-2,0v6.62a6.2,6.2,0,0,0-5.78-1.21,1,1,0,0,0-.71.79A6.15,6.15,0,0,0,8,18.31a5.81,5.81,0,0,0,3.39,1c.23,0,.46,0,.66,0V22c-5.1.32-9.22,3.07-10,6.77A1,1,0,0,0,3,30H23a1,1,0,0,0,1-1.2C23.22,25.1,19.1,22.35,14,22Zm.94-13.7A4.09,4.09,0,0,1,18.58,7a4.08,4.08,0,0,1-1.68,3.48,4.1,4.1,0,0,1-2.9.63A4.12,4.12,0,0,1,14.94,8.33ZM9.09,16.67A4.07,4.07,0,0,1,7.42,13.2a4.08,4.08,0,0,1,3.64,1.28A4.09,4.09,0,0,1,12,17.3,4.07,4.07,0,0,1,9.09,16.67ZM4.42,28c1.27-2.35,4.69-4,8.58-4s7.31,1.65,8.58,4Z"/><path d="M28.35,6h-3.7A1.65,1.65,0,0,0,23,7.65v14.7A1.65,1.65,0,0,0,24.65,24h3.7A1.65,1.65,0,0,0,30,22.35V7.65A1.65,1.65,0,0,0,28.35,6ZM25,22V8h3v2H27a1,1,0,0,0,0,2h1v2H27a1,1,0,0,0,0,2h1v2H27a1,1,0,0,0,0,2h1v2Z"/></g></svg>