<svg xmlns="http://www.w3.org/2000/svg" viewBox="0 0 32 32"><g id="pruners"><path d="M25.06,25.53l-1.8-4.15a3.27,3.27,0,0,0-3.41-1.92L18.47,16.7h0A8.42,8.42,0,0,0,24,11.29a8.42,8.42,0,0,0-3.38-9.11A1,1,0,0,0,19.72,2a1,1,0,0,0-.65.59L16,10.31,12.93,2.63a1,1,0,0,0-1.51-.45A8.42,8.42,0,0,0,8,11.29a8.38,8.38,0,0,0,5.49,5.4h0l-1.38,2.76a3.27,3.27,0,0,0-3.41,1.92l-1.8,4.15a3.26,3.26,0,0,0,6,2.6L14.73,24A3.25,3.25,0,0,0,14,20.31l1.22-2.44a2.65,2.65,0,0,0,1.64,0L18,20.31a3.12,3.12,0,0,0-.81,1.17,3.24,3.24,0,0,0,0,2.5l1.81,4.15a3.25,3.25,0,0,0,3,2,3.26,3.26,0,0,0,3-4.56ZM20.41,4.66A6.26,6.26,0,0,1,22,10.71a6.28,6.28,0,0,1-3.12,3.64,3,3,0,0,0-1.58-2ZM10,10.71a6.26,6.26,0,0,1,1.63-6.05l3.07,7.67a3,3,0,0,0-1.58,2A6.28,6.28,0,0,1,10,10.71ZM12.9,23.18l-1.81,4.15a1.27,1.27,0,1,1-2.32-1l1.81-4.15a1.28,1.28,0,0,1,1.16-.76,1.25,1.25,0,0,1,.5.11A1.27,1.27,0,0,1,12.9,23.18ZM15,15a1,1,0,1,1,1,1A1,1,0,0,1,15,15Zm8.24,12.29a1.26,1.26,0,0,1-2.33,0l-1.8-4.15a1.21,1.21,0,0,1,0-1,1.23,1.23,0,0,1,.67-.69,1.25,1.25,0,0,1,.5-.11,1.28,1.28,0,0,1,1.16.76l1.81,4.15A1.26,1.26,0,0,1,23.24,27.29Z"/></g></svg>