<svg xmlns="http://www.w3.org/2000/svg" viewBox="0 0 32 32"><g id="sawing"><path d="M24.5,19l-.4,0L24,19H18.77l3.74-6.25a.09.09,0,0,0,0-.05,5.44,5.44,0,0,0,4.15-2.85l.59-1.11a2.22,2.22,0,0,0-.91-3L21.69,3.26a2.22,2.22,0,0,0-3,.92L16,9.23,10.8,19H7.69A5.64,5.64,0,0,0,2,24,5.49,5.49,0,0,0,7.5,30H24l.1,0,.4,0a5.5,5.5,0,0,0,0-11ZM14.08,21.61a4.64,4.64,0,0,0-.37,1.95l-.36.6L11,22.88l6.3-11.83,2,1.06a6,6,0,0,0,1,.41l-4,6.71A4.88,4.88,0,0,0,14.08,21.61ZM20.45,5.12a.22.22,0,0,1,.3-.09L25.41,7.5a.24.24,0,0,1,.09.3l-.59,1.11a3.47,3.47,0,0,1-2.05,1.69,3.42,3.42,0,0,1-2.64-.26l-2-1.05ZM5.07,27H6a1,1,0,0,0,0-2H4a4,4,0,0,1,0-.85.8.8,0,0,1,0-.15H7a1,1,0,0,0,0-2H5.12a3.83,3.83,0,0,1,2.57-1H9.74l-.5.94a2,2,0,0,0-.15,1.54,2,2,0,0,0,1,1.2l2.59,1.38a1.64,1.64,0,0,0,.8.2,1.7,1.7,0,0,0,1.45-.83l.66-1.09a1,1,0,0,0,.05-.16.49.49,0,0,0,0-.11,1.15,1.15,0,0,0,0-.26s0,0,0-.08a2.77,2.77,0,0,1,.21-1.34A2.86,2.86,0,0,1,17.23,21h3a5.49,5.49,0,0,0,0,7H7.5A3.5,3.5,0,0,1,5.07,27ZM24.5,28A3.5,3.5,0,1,1,28,24.5,3.5,3.5,0,0,1,24.5,28Z"/><path d="M24.5,22A2.5,2.5,0,1,0,27,24.5,2.5,2.5,0,0,0,24.5,22Zm0,3a.5.5,0,1,1,.5-.5A.5.5,0,0,1,24.5,25Z"/><path d="M21.1,8.17l1.45.72A.93.93,0,0,0,23,9a1,1,0,0,0,.89-.55,1,1,0,0,0-.44-1.34L22,6.38a1,1,0,1,0-.89,1.79Z"/></g></svg>