<svg xmlns="http://www.w3.org/2000/svg" viewBox="0 0 32 32"><g id="seeding"><path d="M29.78,11.4,26.17,4.17a2.29,2.29,0,0,0-3.1-.9L17.35,6.13a4.9,4.9,0,0,0-2.3,2.35,3.25,3.25,0,0,0-2.67.13,1.75,1.75,0,0,0-.83.89,1.57,1.57,0,0,0,0,1.29l4.15,8.3a1.58,1.58,0,0,0,1.44.86,1.81,1.81,0,0,0,.78-.18,3.23,3.23,0,0,0,1.71-2.06,4.86,4.86,0,0,0,3.26-.43l5.72-2.86A2.29,2.29,0,0,0,29.78,11.4ZM17.33,17.81l-3.75-7.52a1.09,1.09,0,0,1,.86.11l.47.32,2.88,5.76,0,.56A1.15,1.15,0,0,1,17.33,17.81Zm10.42-5.17L22,15.49a2.72,2.72,0,0,1-2.48,0L16.72,9.88a2.78,2.78,0,0,1,1.52-2L24,5.06c.2-.1.39,0,.42,0L28,12.29C28,12.36,28,12.54,27.75,12.64Z"/><path d="M22,26H20.48l-2.93-3.66a2.52,2.52,0,0,0-2.94-.75,5.44,5.44,0,0,1-2.53.41,5.29,5.29,0,0,1-1.7-.41,2.52,2.52,0,0,0-2.93.75L4.52,26H3a1,1,0,0,0,0,2H22a1,1,0,0,0,0-2ZM9,23.59a.51.51,0,0,1,.6-.15,7.42,7.42,0,0,0,5.76,0,.53.53,0,0,1,.62.15L17.92,26H7.08Z"/><path d="M12.29,20.71a1,1,0,0,0,1.42,0l1-1a1,1,0,0,0-1.42-1.42l-1,1A1,1,0,0,0,12.29,20.71Z"/><path d="M11,18a1,1,0,0,0,1-1V16a1,1,0,0,0-2,0v1A1,1,0,0,0,11,18Z"/></g></svg>