<svg xmlns="http://www.w3.org/2000/svg" viewBox="0 0 32 32"><g id="seeds"><path d="M26,16a41.2,41.2,0,0,0-.93-8.72A3.63,3.63,0,0,0,24.75,3a3,3,0,0,0-4-.43,19.5,19.5,0,0,0-9.48,0,3.05,3.05,0,0,0-4,.43,3.8,3.8,0,0,0-.31,4.17A42.06,42.06,0,0,0,6,16a41.2,41.2,0,0,0,.93,8.72A3.63,3.63,0,0,0,7.25,29a3,3,0,0,0,4,.43,19.34,19.34,0,0,0,9.48,0,3.05,3.05,0,0,0,4-.43,3.8,3.8,0,0,0,.31-4.17A42.06,42.06,0,0,0,26,16Zm-2.86,9.46a1.93,1.93,0,0,1,.11,2.18,1,1,0,0,1-1.5,0,1,1,0,0,0-1-.29,17.67,17.67,0,0,1-9.46,0,.84.84,0,0,0-.27,0,1,1,0,0,0-.75.33A1,1,0,0,1,9.5,28a1,1,0,0,1-.75-.36,1.57,1.57,0,0,1,0-2A1,1,0,0,0,9,24.73,39.37,39.37,0,0,1,9,7.27a1,1,0,0,0-.12-.73,1.93,1.93,0,0,1-.11-2.18,1,1,0,0,1,1.5,0,1,1,0,0,0,1,.29,17.67,17.67,0,0,1,9.46,0,1,1,0,0,0,1-.29A1,1,0,0,1,22.5,4a1,1,0,0,1,.75.36,1.57,1.57,0,0,1,0,2,1,1,0,0,0-.23.89A39.47,39.47,0,0,1,24,16a39.47,39.47,0,0,1-1,8.73A1,1,0,0,0,23.14,25.46Z"/><path d="M20.07,7H11.93A1.94,1.94,0,0,0,10,8.93V23.07A1.94,1.94,0,0,0,11.93,25h8.14A1.94,1.94,0,0,0,22,23.07V8.93A1.94,1.94,0,0,0,20.07,7ZM12,23.07,11.93,9H20l.07,14Z"/></g></svg>