<svg xmlns="http://www.w3.org/2000/svg" viewBox="0 0 32 32"><g id="shovel"><path d="M27.5,25H25.63a4.1,4.1,0,0,0-4.85-2,6.53,6.53,0,0,0-2.49-1.61A5.4,5.4,0,0,0,18.12,20l-1.2-4.28A1,1,0,0,0,15.69,15l-1.61.44-2.51-9a2.48,2.48,0,0,0,1.07-2.77A2.48,2.48,0,0,0,9.57,2l-4,1.1A2.5,2.5,0,0,0,6.22,8l2.51,9-1.6.45a1,1,0,0,0-.6.47,1,1,0,0,0-.09.76l1.18,4.23a5.3,5.3,0,0,0,.16.63A4.46,4.46,0,0,0,6.37,25H4.5a2.5,2.5,0,0,0,0,5h23a2.5,2.5,0,0,0,0-5ZM10.82,17,8.29,7.91l.55,0a.94.94,0,0,0,.46-.13l.48-.27,2.54,9.07-.11.19a.87.87,0,0,1-.53.41.83.83,0,0,1-.67-.08ZM5.8,5.6A.49.49,0,0,1,6.14,5l4-1.11.14,0a.53.53,0,0,1,.48.37h0a.49.49,0,0,1-.24.56l-2,1.11L6.29,6A.44.44,0,0,1,5.8,5.6Zm4,13.12.18.1a2.88,2.88,0,0,0,1.42.38,3,3,0,0,0,.78-.11A2.83,2.83,0,0,0,14,17.72l.11-.18,1.2-.34.93,3.32a2.75,2.75,0,0,1,.09.5L16,21a6.63,6.63,0,0,0-4.78,2,4.51,4.51,0,0,0-1.54-.17c0-.16-.08-.3-.1-.39s0-.07,0-.1l-.93-3.32ZM27.5,28H4.5a.5.5,0,0,1,0-1H7a1,1,0,0,0,.94-.66A2.47,2.47,0,0,1,9.25,25a.94.94,0,0,0,.22-.07,1.78,1.78,0,0,1,.55-.06,1,1,0,0,0,.51,1,1,1,0,0,0,1.35-.41,4.67,4.67,0,0,1,8.24,0A1,1,0,0,0,22,24.85a1.8,1.8,0,0,1,.7.1,2.38,2.38,0,0,1,1.38,1.39A1,1,0,0,0,25,27h2.5a.5.5,0,0,1,0,1Z"/></g></svg>