<svg xmlns="http://www.w3.org/2000/svg" viewBox="0 0 32 32"><g id="silo"><path d="M30,13a1,1,0,0,0-1-1V8.19c0-.06,0-.13,0-.19h0a1,1,0,0,0,0-2h-.38a5.85,5.85,0,0,0-2.35-3,6.21,6.21,0,0,0-6.54,0A5.85,5.85,0,0,0,17.38,6H17a1,1,0,0,0,0,2h0c0,.06,0,.13,0,.19v2.94L13.11,8.54a2,2,0,0,0-2.22,0l-8,5.33A2,2,0,0,0,2,15.54V28a2,2,0,0,0,2,2H28a1,1,0,0,0,1-1V26a1,1,0,0,0,0-2V20a1,1,0,0,0,0-2V14A1,1,0,0,0,30,13ZM20.8,4.64a4.16,4.16,0,0,1,4.4,0A3.72,3.72,0,0,1,26.45,6h-6.9A3.72,3.72,0,0,1,20.8,4.64ZM27,8c0,.06,0,.13,0,.19V12H19V8.19c0-.06,0-.13,0-.19ZM4,28H4V15.53l8-5.33,8,5.34V28H18V23.77A2.77,2.77,0,0,0,15.23,21H8.77A2.77,2.77,0,0,0,6,23.77V28Zm12,0H8V23.77A.78.78,0,0,1,8.77,23h6.46a.78.78,0,0,1,.77.77Zm11,0H22V26h5Zm0-4H22V20h5Zm0-6H22V15.54A2,2,0,0,0,21.26,14H27Z"/><path d="M12,19a3,3,0,1,0-3-3A3,3,0,0,0,12,19Zm0-4a1,1,0,1,1-1,1A1,1,0,0,1,12,15Z"/></g></svg>