<svg xmlns="http://www.w3.org/2000/svg" viewBox="0 0 32 32"><g id="tomato"><path d="M25.44,12.08a5.34,5.34,0,0,0,1.44-1.6,1,1,0,0,0,0-1A1,1,0,0,0,26,9a11.54,11.54,0,0,1-4.59-.92,11.14,11.14,0,0,1-1.49-.78l-.52-3.12a2.55,2.55,0,0,0-1.53-2,2.58,2.58,0,0,0-2.48.22A2.62,2.62,0,0,0,14.3,5.23l.52,2.07A12.41,12.41,0,0,1,11.89,8,12.92,12.92,0,0,1,9.11,8a1,1,0,0,0-1,.5A1,1,0,0,0,8.2,9.6a7.08,7.08,0,0,0,.92,1A10.74,10.74,0,0,0,5,19,11.27,11.27,0,0,0,16.5,30,11.27,11.27,0,0,0,28,19,10.63,10.63,0,0,0,25.44,12.08ZM12.11,10a14,14,0,0,0,4.3-1.18A1,1,0,0,0,17,7.65l-.73-2.9a.61.61,0,0,1,.25-.65.62.62,0,0,1,.58,0,.59.59,0,0,1,.35.45L18,8.06a1,1,0,0,0,.43.66,13,13,0,0,0,2.16,1.2,13.54,13.54,0,0,0,3.07.9,2.57,2.57,0,0,1-.76.18,2.87,2.87,0,0,1-2.2-.81,1,1,0,0,0-1.12-.2A1,1,0,0,0,19,11a7.51,7.51,0,0,0,1.12,3.52,6.55,6.55,0,0,1-.58-.32,5.74,5.74,0,0,1-1.7-1.7A1,1,0,0,0,17,12H17a1,1,0,0,0-.85.56,3.29,3.29,0,0,1-1.51,1.53,3.18,3.18,0,0,1-1.86.21,7.61,7.61,0,0,0,.82-.46,7.39,7.39,0,0,0,2.31-2.44,1,1,0,0,0-.08-1.13A1,1,0,0,0,14.69,10a4.38,4.38,0,0,1-2.44.08l-.14,0ZM16.5,28A9.27,9.27,0,0,1,7,19a8.78,8.78,0,0,1,3.6-7,1,1,0,0,0,.26-.29,5.82,5.82,0,0,0,.89.31c.27.07.53.11.78.15l-.07,0A5.26,5.26,0,0,1,9.93,13a1,1,0,0,0-.88.67,1,1,0,0,0,.28,1.07,5.66,5.66,0,0,0,6.08,1.17,5,5,0,0,0,1.65-1.22,7.33,7.33,0,0,0,1.4,1.15A7.65,7.65,0,0,0,22.58,17h.48a1,1,0,0,0,.48-1.84,5.63,5.63,0,0,1-1.7-1.7c-.12-.2-.23-.4-.32-.59a4.64,4.64,0,0,0,1.57.13l.4-.08A8.68,8.68,0,0,1,26,19,9.27,9.27,0,0,1,16.5,28Z"/></g></svg>