<svg xmlns="http://www.w3.org/2000/svg" viewBox="0 0 32 32"><g id="wheelbarrow"><path d="M26.5,20a3.52,3.52,0,0,0-1.65.43l-.58-.57L28.57,13,29,13H29a1,1,0,0,0,.05-2l-1.66-.08L24.78,7.85C22,4.61,18,4.07,14.77,6.51L10.4,9.84a.85.85,0,0,0-.16.17h-.18a1.43,1.43,0,0,0-.22,0l-.79,0A1,1,0,1,0,9,12h.27l1.5,6H9.66L7.24,12.35a2.23,2.23,0,0,0-2-1.35H3a1,1,0,0,0,0,2H5.19a.23.23,0,0,1,.21.14l2.68,6.25A1,1,0,0,0,9,20v3a3,3,0,0,0,3,3,3,3,0,0,0,2.36-1.14l3.39-4.23s0-.07,0-.1l4.72.43.88.89A3.49,3.49,0,1,0,26.5,20ZM16,8.1c2.35-1.78,5.21-1.37,7.27,1.05l1.39,1.63-5.71-.28-5.68-.32Zm3.08,4.4,7.19.4-3.77,6-9.68-.88-1.49-6ZM12.83,23.61A1,1,0,0,1,11,23V20H12l3.51.32ZM26.5,25A1.5,1.5,0,1,1,28,23.5,1.5,1.5,0,0,1,26.5,25Z"/></g></svg>