<svg xmlns="http://www.w3.org/2000/svg" viewBox="0 0 32 32"><g id="wood_axe" data-name="wood axe"><path d="M28,18.93a2,2,0,0,0-2,0,1.92,1.92,0,0,1-.32.14,2,2,0,0,1-.67.11h0V19a1,1,0,0,0-1-1H21.52a16.57,16.57,0,0,0,1.62-1.52,1,1,0,0,0,0-1.31L18.76,9.8l0-.05,6-3.45a2.3,2.3,0,0,0,1.1-1.42A2.39,2.39,0,0,0,25.52,3a2.45,2.45,0,0,0-1.38-1,2.48,2.48,0,0,0-1.69.19c-1.08.49-8.28,4.68-14.11,8.11a2.35,2.35,0,0,0-.86,3.21A2.32,2.32,0,0,0,8.9,14.6a2.21,2.21,0,0,0,.62.09,2.34,2.34,0,0,0,1.17-.32l.72-.42,0,.06,1.49,4H10.84A1.85,1.85,0,0,0,9,19.84v3.47a1.94,1.94,0,0,1-.2.86l-.38.76A3.87,3.87,0,0,0,8,26.69v1.78A1.54,1.54,0,0,0,9.53,30H24.47A1.54,1.54,0,0,0,26,28.47V26.69a3.9,3.9,0,0,0-.42-1.76l-.52-1A6,6,0,0,0,27.6,22.8a6.27,6.27,0,0,0,.89-.82A2,2,0,0,0,29,20.64,2,2,0,0,0,28,18.93ZM16.3,18a13.77,13.77,0,0,0,1.5-.72,13.31,13.31,0,0,0,2.77-2.12l.49.59a14,14,0,0,1-2.89,2.12A.65.65,0,0,0,18,18Zm7-14h0a.76.76,0,0,1,.29-.09h.05a.49.49,0,0,1,.21.16.35.35,0,0,1,0,.27.4.4,0,0,1-.16.21L17.57,8.1l-.13-.21-.26-.44C20.82,5.34,22.86,4.2,23.27,4ZM12.19,10.92,12,10.53l3.52-2,.23.39.13.21-3.54,2C12.26,11.07,12.23,11,12.19,10.92Zm-2.5,1.72a.34.34,0,0,1-.27,0,.34.34,0,0,1-.21-.16A.36.36,0,0,1,9.35,12l.87-.51.23.4.12.21ZM17,10.75c.08.1.15.21.23.32l2.08,2.53a11.14,11.14,0,0,1-2.48,1.94,11.4,11.4,0,0,1-2.3,1l-1.2-3.22c0-.12-.1-.24-.15-.36ZM26.4,21.2A4.21,4.21,0,0,1,24,22a1,1,0,0,0-1,1v1a1,1,0,0,0,.11.45l.68,1.38a1.82,1.82,0,0,1,.21.86V28H22V24a1,1,0,0,0-2,0v4H14V23a1,1,0,0,0-2,0v5H10V26.69a1.94,1.94,0,0,1,.2-.86l.38-.76A3.87,3.87,0,0,0,11,23.31V20h5v5a1,1,0,0,0,2,0V20h5a1,1,0,0,0,.69.95,4.24,4.24,0,0,0,2.63,0,3.69,3.69,0,0,0,.67-.3A3.08,3.08,0,0,1,26.4,21.2Z"/></g></svg>