<svg xmlns="http://www.w3.org/2000/svg" viewBox="0 0 4680 3120"><defs><style>.cls-1,.cls-9{fill:#fff;}.cls-1{opacity:0;}.cls-2{fill:#caebff;}.cls-3{fill:#b0e0ff;}.cls-4{fill:#06378e;}.cls-5{fill:#5b2519;}.cls-6{fill:#993e2b;}.cls-7{fill:#ffff8e;}.cls-10,.cls-7,.cls-8{fill-rule:evenodd;}.cls-40,.cls-8{fill:#ffd900;}.cls-10,.cls-46{fill:#ff8500;}.cls-11{fill:#221f32;}.cls-12{fill:#e92411;}.cls-13{fill:#5b5fa0;}.cls-14{fill:#edd9c6;}.cls-15{fill:#6c74ae;}.cls-16{fill:#fcbe21;}.cls-17{fill:#f0952e;}.cls-18{fill:#5b1e13;}.cls-19{fill:#742619;}.cls-20{fill:#fbc5a9;}.cls-21{fill:#f7a18a;}.cls-22{opacity:0.5;}.cls-23{fill:#f3888a;}.cls-24{fill:#121a63;}.cls-25{fill:#1f00bd;}.cls-26{fill:#005aff;}.cls-27{fill:#fcd86a;}.cls-28{fill:#00a272;}.cls-29{fill:#006e5b;}.cls-30{fill:#2cd670;}.cls-31{fill:#00c796;}.cls-32{fill:#008c5d;}.cls-33{fill:#6f85a8;}.cls-34{fill:#5b6d93;}.cls-35{fill:#003f8d;}.cls-36{fill:#016ebd;}.cls-37{fill:#0054ad;}.cls-38{fill:#0197d4;}.cls-39{fill:#4298f5;}.cls-41{fill:#0045ad;}.cls-42{fill:#fbffff;}.cls-43{fill:#c12b96;}.cls-44{fill:#554edd;}.cls-45{fill:#fd4c5e;}</style></defs><title>10</title><g id="_10" data-name="10"><rect id="_10-2" data-name="10" class="cls-1" width="4680" height="3120"/><path class="cls-2" d="M3664,971c2.95-309.2-290.74-518.21-523.81-584.29-205.56-58.28-433.7-16-636.15,76.14-148.73,67.72-294.5,163.64-453.58,169.1-109.08,3.75-211.4-39.28-316.78-61.27-251.92-52.57-545.46-13-744.22,152.43C855.68,834.49,778,1009.39,752.54,1182.1c-18.63,126.51-12.79,267.77,24.1,387.21,41.45,134.21,162.37,258.16,106.5,396.12-15.21,37.56-28.89,83.56-39.08,133.73-51.16,251.74,91.28,499.17,318,553.19h0l2253.7,22.92,47.2-19.79c89.15-127.5,219.93-311.68,242.17-572,22.32-261.34-215-509.87-242.15-624.31C3436.25,1346.29,3661.72,1210.15,3664,971Z"/><path class="cls-3" d="M3346.64,1307.67c2.72-235.4-211.91-394-382.42-443.87-150.38-44-317.48-11.42-465.86,59.12-109,51.83-215.9,125.11-332.38,129.56-79.86,3-154.69-29.52-231.79-46.07-184.34-39.57-399.31-8.93-545.12,117.39-98.15,85-155.36,218.31-174.29,349.85-13.86,96.34-9.85,203.87,16.94,294.73,30.11,102.1,118.41,196.25,77.26,301.38-11.21,28.63-21.3,63.67-28.86,101.88-37.91,191.74,65.92,379.86,231.81,420.57h0l1649.89,13.36,34.59-15.15c65.49-97.23,161.57-237.68,178.33-435.94,16.81-199-156.5-387.77-176.15-474.85C3179.23,1593.78,3344.54,1489.72,3346.64,1307.67Z"/><ellipse class="cls-4" cx="2453.97" cy="2651.03" rx="1452.46" ry="108.97"/><path class="cls-5" d="M3065.07,1142.79a33.21,33.21,0,0,0-39.82,24.84L2844.51,1948a33.19,33.19,0,1,0,64.67,15l180.74-780.33A33.18,33.18,0,0,0,3065.07,1142.79Z"/><polygon class="cls-6" points="2882.52 1923.96 3294.16 1923.96 3459.88 1142.49 3065.07 1142.79 2882.52 1923.96"/><path class="cls-5" d="M2436.38,1963.27c0,26.77,19.65,48.47,43.89,48.47h776.42c35.65,0,64.55-31.92,64.55-71.28v-25.65h-841C2456,1914.81,2436.38,1936.51,2436.38,1963.27Z"/><path class="cls-5" d="M3473.35,1142.79a33.21,33.21,0,0,0-39.82,24.84L3252.79,1948a33.19,33.19,0,1,0,64.66,15l180.74-780.33A33.17,33.17,0,0,0,3473.35,1142.79Z"/><polygon class="cls-5" points="3179.93 2011.73 3313.93 2677.01 3343.58 2677.01 3256.69 2011.73 3179.93 2011.73"/><polygon class="cls-5" points="2812.44 2677.01 2842.1 2677.01 2976.1 2011.73 2899.34 2011.73 2812.44 2677.01"/><polygon class="cls-5" points="2927.84 2125.13 2904.44 2185.84 3246.15 2185.84 3234.02 2125.13 2927.84 2125.13"/><polygon class="cls-5" points="2396.7 2677.01 2426.36 2677.01 2560.36 2011.73 2483.6 2011.73 2396.7 2677.01"/><path class="cls-7" d="M2654.49,2548.18s-30.4,7.09-55.56,8.17-35.64-3.2-35.64-3.2-9.8.42-11.41,3.76,4.17,34.41,4.17,34.41l26.17,54.23,80.25-35,1.41-21.45s2.13-29.64.34-35.26S2654.49,2548.18,2654.49,2548.18Z"/><path class="cls-8" d="M2676.22,2651.78c-3.42-23.75-12.34-62.63-12.34-62.63-63.9,28.28-107.83,2.17-107.83,2.17s-30.86,49.47-78.7,66.46q-1,.36-2,.69c-.67.23-1.35.45-2,.65-1.36.43-2.74.83-4.13,1.19l-2.1.58c-.62.18-1.24.35-1.85.54l-.11,0-1.86.58c-1.4.45-2.74.91-4,1.39-.46.16-.91.32-1.35.5q-2.57,1-4.88,2l-1.11.5-.7.34-1.36.67-1.22.64c-.37.18-.72.38-1.07.58-1.9,1.05-3.65,2.14-5.26,3.25l-.89.63c-.67.48-1.3,1-1.92,1.45l-.79.64q-.78.64-1.5,1.29l-.71.65-.76.73c-.2.19-.39.38-.58.58s-.43.43-.64.65a39.22,39.22,0,0,0-3.79,4.67,7.25,7.25,0,0,0-.46.67c-.3.44-.59.89-.86,1.33a.05.05,0,0,1,0,.05c-.25.43-.49.86-.73,1.29a35.54,35.54,0,0,0-3.05,7.44c-.1.34-.19.67-.28,1s-.1.42-.14.63c-.3,1.24-.51,2.44-.67,3.59l0,.3,0,.3v.13l0,.17,0,.29,0,.29,0,.29,0,.29,0,.28v.28l0,.28h0l0,.54v.28c0,.17,0,.34,0,.51h0v.54h0v2l0,.47v.23l0,.45v.38l.05.68,0,.35,0,.44,0,.19,0,.27a2.08,2.08,0,0,1,0,.23v.05l0,.08v.09l0,.17v0l0,.28,0,.16,0,.16v.14l0,.15,0,.15v.14l0,.12a.88.88,0,0,1,0,.16s0,.11,0,.16l0,.28v.1l0,.21,0,.1v.08a8.44,8.44,0,0,0,2,4.15l0,0h0c.76.88,12.25,13.49,51.24,14.76l1.92,0h3.18c.19,0,.38,0,.57,0,1.2,0,2.45-.06,3.77-.11h.49l1,0h.1q2.83-.14,6-.34h.18l.55,0,.56,0,1.69-.13.56,0,1.65-.13,1.26-.1,1.18-.1h.1l1.1-.09.2,0c53.73-4.53,151.43-20.47,168.81-23.34h0l.67-.11.4-.06,1.56-.26a.6.6,0,0,0,.12-.11,1.74,1.74,0,0,0,.25-.33c1.25-2,2.19-8.53,2.47-17.59.07-2.38.09-4.93.07-7.63A227.41,227.41,0,0,0,2676.22,2651.78Z"/><path class="cls-9" d="M2528.86,2618.56a3.56,3.56,0,0,0,1.17,7c.2,0,20.87-3.17,34.12,19.24a3.56,3.56,0,0,0,6.13-3.62C2554.58,2614.64,2529.91,2618.39,2528.86,2618.56Z"/><path class="cls-9" d="M2507.4,2635a3.56,3.56,0,1,0,1.41,7c.18,0,17.87-3.43,25.62,11.23a3.56,3.56,0,1,0,6.29-3.33C2532.56,2634.45,2515.35,2633.41,2507.4,2635Z"/><path class="cls-10" d="M2510.43,2711.07a82.76,82.76,0,0,0-6.3-23,68.27,68.27,0,0,0-26.78-30.32l-2,.69c-.68.23-1.35.44-2,.65-1.36.43-2.74.83-4.13,1.19l-2.1.58c-.62.18-1.24.35-1.85.54l-.11,0-1.86.58c-1.4.45-2.74.91-4,1.39-.46.16-.91.32-1.35.5q-2.57,1-4.88,2l-1.11.5-.7.34-1.36.67-1.22.64c-.37.18-.72.38-1.07.58-1.9,1.05-3.65,2.14-5.26,3.25l-.89.63c-.67.48-1.3,1-1.92,1.45l-.79.64q-.78.64-1.5,1.29l-.71.65-.76.73c-.2.19-.39.38-.58.58s-.43.43-.64.65a39.22,39.22,0,0,0-3.79,4.67,7.25,7.25,0,0,0-.46.67c-.3.44-.59.89-.86,1.33a.05.05,0,0,1,0,.05c-.25.43-.49.86-.73,1.29a35.54,35.54,0,0,0-3.05,7.44c-.1.34-.19.67-.28,1s-.1.42-.14.63c-.3,1.24-.51,2.44-.67,3.59l0,.3,0,.3v.13l0,.17,0,.29,0,.29,0,.29,0,.29,0,.28v.28l0,.28h0l0,.54v.79h0v.53h0v2l0,.47v.23l0,.45v.38l.06.89,0,.14,0,.44,0,.19,0,.27,0,.1v.18l0,.08v.09l0,.17v.24l0,.08,0,.16,0,.16v.14l0,.15,0,.15v.14l0,.12v.32l0,.28v.1l0,.21,0,.1v.08a8.44,8.44,0,0,0,2,4.15l0,0h0c.76.88,12.25,13.49,51.24,14.76l1.92,0h1.34l1.84,0c.19,0,.38,0,.57,0h1l.92,0h.47l.47,0,.47,0,.48,0h.49l.49,0,.5,0h.23l.27,0h.12l.89,0,.51,0,.52,0h.29l.23,0,.52,0,.54,0,.53,0,.53,0,.55,0,.54,0,.55,0,.56,0,1.69-.13.56,0,1.65-.13h.08l1.18-.09.58-.06.7,0,.45,0,.85-.07,1-.09.62-.06,1.23-.11.62-.06.62-.06.63-.06.63-.06h.07l.56-.06.64-.06.64-.07c50.78-5.1,144.54-19.94,161.54-22.65h0l.67-.11.4-.06,1.56-.26a.6.6,0,0,0,.12-.11,1.74,1.74,0,0,0,.25-.33c1.25-2,2.19-8.53,2.47-17.59.07-2.38.09-4.93.07-7.63C2639.05,2696.85,2551.27,2706.83,2510.43,2711.07Z"/><path class="cls-7" d="M2887,2547.11c-2.19,1,2.88,33.45,2.88,33.45s5.9,27.86,10.46,31.92,69.09-4.57,69.09-4.57l15.83-30.06s2.36-26.18-.17-30.4S2889.17,2546.1,2887,2547.11Z"/><path class="cls-8" d="M2976.75,2593.1c-1.68.67-68.29,3.69-73,2.34s-13.86-14.88-13.86-14.88-23.3,62.49-26.34,84.45-3.38,60.13,12.16,68.91,93.9,9.8,108.43,6.08,28.55-19.09,28.38-44.42c-.17-24.73-16.93-91.12-27.25-117.73C2985.24,2577.85,2978.44,2592.42,2976.75,2593.1Z"/><path class="cls-10" d="M2993,2716.51c2.71-92.79-124.19-70-116.55-3.29a22.81,22.81,0,0,1-2.4-.65c-5.07-1.72-9-6.83-11.8-12.27,1.13,15,4.87,28.78,13.43,33.62,15.54,8.78,93.9,9.8,108.43,6.08,12.49-3.19,24.61-15,27.65-34.37A35.43,35.43,0,0,1,2993,2716.51Z"/><path class="cls-9" d="M2971.81,2642.14c-1.48-.73-36.66-17.62-74.23.71a3.56,3.56,0,0,0,1.56,6.76,3.6,3.6,0,0,0,1.56-.36c34.3-16.73,67.53-.93,68-.72a3.56,3.56,0,0,0,3.14-6.39Z"/><path class="cls-9" d="M2966,2623.86c-1.21-.78-29.93-18.88-65.34.77a3.56,3.56,0,0,0,1.73,6.67,3.59,3.59,0,0,0,1.73-.44c31.55-17.51,56.93-1.71,58-1a3.56,3.56,0,0,0,3.86-6Z"/><path class="cls-11" d="M2846.36,1653.24H2554.07s-314.54-5.33-286.74,105.15,240,820.8,240,820.8l192.3-11.12s-52.33-327.9-52.33-439.09c0-128.78-66.78-209.38-66.78-209.38h275.16Z"/><path class="cls-12" d="M3178,1527.48l-80.6-464.86-230.16-60.22-.87.2-144,33.7-179.62,77.75,11.28,539.19s16.68,44.47,138.8,105.61c26.9,13.47,58.39,17.9,91.17,16.63,91.84-3.56,193.68-51.93,232.19-72,10.15-5.29,15.9-8.6,15.9-8.6L3206,1803.8l-.21-33.83C3207.22,1715.77,3178,1527.48,3178,1527.48Z"/><path class="cls-13" d="M3181.08,1547.62H2827.83c27.57,41.05,204.29,147.31,204.29,147.31L3206,1803.8l-.21-33.83C3206.94,1726.63,3188.51,1597.6,3181.08,1547.62Z"/><path class="cls-14" d="M2905.63,1011a1.38,1.38,0,0,0-1.69,1,227.66,227.66,0,0,1-29.07,62c-12.17,18-26.22,32.5-41.76,43a119.37,119.37,0,0,1-64.68,20.71,70.36,70.36,0,0,1-33.94-10.83c-22.27-14.18-34-40.5-34-76.13a1.39,1.39,0,1,0-2.78,0c0,46.27,19.21,68.21,35.32,78.48a72,72,0,0,0,35.47,11.26h0c54.61-1.46,89.29-36.16,108.76-65a230.56,230.56,0,0,0,29.4-62.74A1.39,1.39,0,0,0,2905.63,1011Z"/><path class="cls-11" d="M2961.26,1246.06a1.39,1.39,0,0,0-1.39,1.39v227a1.39,1.39,0,1,0,2.78,0v-227A1.39,1.39,0,0,0,2961.26,1246.06Z"/><path class="cls-11" d="M3112.36,1738.42l-80.24-43.49s-143.14-90.33-209.84-7-9.27,891.21-9.27,891.21h215.8l38.05-698.5H3154c63-3.71,51.88-110.72,51.88-110.72C3189.15,1802.63,3112.36,1738.42,3112.36,1738.42Z"/><path class="cls-15" d="M3066.62,1781.81a1.39,1.39,0,0,0-1.13,1.61c6.83,38.94.06,96.52,0,97.1a1.4,1.4,0,0,0,1.22,1.55h.16a1.38,1.38,0,0,0,1.38-1.22c.07-.58,6.89-58.56,0-97.91A1.39,1.39,0,0,0,3066.62,1781.81Z"/><path class="cls-15" d="M2539,1849.39a1.39,1.39,0,0,0-2.37,1.45l42.62,69.48a1.37,1.37,0,0,0,1.18.67,1.4,1.4,0,0,0,.73-.21,1.38,1.38,0,0,0,.45-1.91Z"/><path class="cls-15" d="M2620.49,1715.47a1.38,1.38,0,0,0-2,0,1.4,1.4,0,0,0,0,2c.6.56,60.18,57.1,83.89,100.86a1.4,1.4,0,0,0,1.22.73,1.44,1.44,0,0,0,.66-.17,1.39,1.39,0,0,0,.56-1.89C2681,1772.87,2621.09,1716,2620.49,1715.47Z"/><path class="cls-16" d="M2866.4,1002.6a1488.33,1488.33,0,0,0-47.13,162.25,1705,1705,0,0,0-32.7,191.16l-2.26,21q-3.37,32.6-5.56,65.3c-3.26,47.94-4.66,96-4.4,143.86q.14,31.88,1.29,63.58c1.55,42.18,4.37,84.16,8.39,125.71,0,.3.06.6.09.89,75.33,2.54,158.43-8.13,233.25-36.17q-.67-18.23-1.15-36.67-.9-34.23-1-69-.32-34.77.35-69.94c.64-44.43,2.25-89.13,4.85-133.83q2.26-40.37,5.71-80.56c7-83.68-3.86-221.39,71.34-287.56l-230.16-60.22Z"/><path class="cls-17" d="M2786.57,1356l-2.26,21q-3.37,32.6-5.56,65.3c104.89-2.15,200.31-8.52,241.63-11.59q2.26-40.37,5.71-80.56-107.13,5.5-214.33,5.82C2803.35,1356.06,2794.93,1356.06,2786.57,1356Z"/><path class="cls-17" d="M2774.34,1586.2q.15,31.86,1.31,63.57a1924.89,1924.89,0,0,0,239.52-15.26q-.3-34.79.35-69.94A1270.69,1270.69,0,0,1,2774.34,1586.2Z"/><path class="cls-17" d="M2928.87,1035.44c-45,33.32-80.84,79.26-109.59,129.41A1702.91,1702.91,0,0,0,2786.57,1356l-2.26,21a149.55,149.55,0,0,1,13.63,12.08q6.75-16.58,13.82-33.11,30.06-71,64-140.08c19.43-39.64,40.07-79.05,67.77-112.54,15.22-18.39,32.8-34.94,52.29-47.77a435.07,435.07,0,0,0-54.45-28.85C2937.09,1029.51,2932.93,1032.42,2928.87,1035.44Z"/><path class="cls-16" d="M2594.34,1089.58c-4.46,3.07-8.78,6.23-12.93,9.53q-7.54,116.61-10.4,233.52-1,37.57-1.34,75.11-.61,53.84-.22,107.77.3,32.31.88,64.58,1,52.52,3,105.1a222.13,222.13,0,0,0,119.47,16.11q-6-56.19-8.58-112.43c-.92-19.36-1.49-38.69-1.85-58q-1-59.34,1.21-118.68.87-25.31,2.35-50.58c.47-8.84,1-17.73,1.6-26.57q3.76-58.34,10-116.6c6.24-60.4,14.15-120.7,23-180.88a430.76,430.76,0,0,0-75,24.38A313.83,313.83,0,0,0,2594.34,1089.58Z"/><path class="cls-17" d="M2571,1332.63q-1,37.57-1.34,75.11c34.19,3.23,73.3,4.46,113.95,4.42q.87-25.31,2.35-50.58c.47-8.84,1-17.73,1.6-26.57q-14.27-.06-28.54-.27Q2615,1334.23,2571,1332.63Z"/><path class="cls-17" d="M2569.45,1515.51q.3,32.31.89,64.58,56.8,6.39,113.92,8.78c-.92-19.36-1.49-38.69-1.85-58A1089,1089,0,0,1,2569.45,1515.51Z"/><path class="cls-17" d="M2594.34,1089.58A1114.43,1114.43,0,0,1,2659,1334.74c1.84,12.49,3.42,25,4.83,37.49a189.44,189.44,0,0,0,22.11-10.65c.47-8.84,1-17.73,1.6-26.57q3.76-58.34,10-116.6a830,830,0,0,0-52-156.5A313.83,313.83,0,0,0,2594.34,1089.58Z"/><path class="cls-18" d="M2856.28,699.42s-12.52-55.29-60.71-52.12c-45.76,3-53.61,26.35-112.93,5a35.57,35.57,0,0,0-30.41,2.61c-12.52,7.54-23,23.91-5.52,59.41,0,0-12.52-2.39-24.72,1.82-17.86,6.15-4.36,34.24-4.19,34.53,11,18.69,28,22.09,28,22.09s-9.5,57.34,36.84,90.61L2856.1,921s57.33-34,63.17-105S2907,681.4,2856.28,699.42Z"/><path class="cls-19" d="M2683.49,673.77s7.31,21.93,42.94,29.69c0,0-24.21,12.34-44.77,5,0,0,21.3,24.43,89.83-1.16l-15.55-9.19s31.82-10.33,39.59-18.56C2795.53,679.58,2727.34,697.07,2683.49,673.77Z"/><path class="cls-20" d="M2845.91,864.76c-10,0-19,5.18-24.73,13.27a36.18,36.18,0,0,0-6.27,15.44c0,.19-.07.39-.1.58,0,0-.08-.06-.11-.1a63.42,63.42,0,0,1-22.57-61.54c.31-1.59.7-3.18,1.15-4.75l.11-.38c.42-1.44.91-2.88,1.44-4.31.19-.51.41-1,.62-1.51s.44-1.08.67-1.61h0c.22-.54.46-1.07.72-1.6a54.41,54.41,0,0,1,2.57-4.81c.34-.58.68-1.11,1-1.59l24.46-35.51c-88.74,5.22-138.45-35.43-138.45-35.43s-2.75,4.69-7.08,12.78c-11.48,21.37-35.56,66.49-47.74,111.5-9.62,35.52-11.23,71,2.68,94.6,17.66,30,48.14,32.23,75.81,26l.73,3.22,18,79.92.15.66a36,36,0,0,0,38.5,27.89c22.67-2.13,52.49-10.6,72-37.84,35.17-49.11,24-71,24-71L2843,934.15c.94.09,1.91.16,2.88.16,17.41,0,31.53-15.57,31.53-34.77S2863.32,864.76,2845.91,864.76Z"/><path class="cls-21" d="M2715.61,1010.09c34.61-3.05,49.66-52.74,49.66-52.74-20,20-55.15,28.42-55.15,28.42Z"/><path class="cls-21" d="M2852.55,885.71l-34.88,20.71h33.09a2.43,2.43,0,1,0,0-4.85h-15.42L2855,889.88a2.43,2.43,0,1,0-2.48-4.17Z"/><path class="cls-21" d="M2681.39,825.22c15.34-13.25,13.06-31.72,13-32.5a2.46,2.46,0,0,0-4.87.64c.09.68,2,16.67-11.29,28.14-11.83,10.21-24.21,22-21.38,32.41,2,7.35,11.09,12.42,27.82,15.52a2.28,2.28,0,0,0,.45,0,2.46,2.46,0,0,0,.44-4.87c-14.27-2.64-22.56-6.78-24-12C2659.55,845.3,2670.46,834.66,2681.39,825.22Z"/><path class="cls-18" d="M2676.2,800.08c-2.74-1.25-6.28.63-7.89,4.18s-.7,7.45,2.05,8.7,6.27-.63,7.89-4.19S2679,801.32,2676.2,800.08Z"/><path class="cls-18" d="M2718.81,815.1c-2.75-1.25-6.28.63-7.89,4.19s-.7,7.45,2,8.69,6.28-.63,7.89-4.19S2721.55,816.34,2718.81,815.1Z"/><path class="cls-18" d="M2712.29,788.29a4.91,4.91,0,0,0,2.48,9.51c.68-.18,16.77-4.16,22.84,11.93a4.91,4.91,0,0,0,4.6,3.18,4.81,4.81,0,0,0,1.73-.32,4.9,4.9,0,0,0,2.86-6.33C2739.48,786.85,2721,786,2712.29,788.29Z"/><path class="cls-18" d="M2669.35,768.36a4.92,4.92,0,0,0-.16,9.83c9.9.17,12.37,5.63,12.62,6.26l0-.1,9.28-3.23C2690.88,780.61,2686.53,768.66,2669.35,768.36Z"/><g class="cls-22"><path class="cls-23" d="M2747.36,850.23c-13-2.16-24.4,1-25.4,7s8.74,12.72,21.77,14.88,24.4-1,25.4-7.06S2760.39,852.38,2747.36,850.23Z"/></g><path class="cls-18" d="M2800.62,876c-5.92,16.5-16.9,35.67-34.22,41.06-22.1,6.88-31.16-1.87-34.81-4.8-12.86-10.32-20.13-21.75-45.21-34.66-13.06-6.72-27.09-5.79-45.4-8.61-2.69-.41-6.22-.79-7.83-3.84a7.52,7.52,0,0,1-.81-3,98.22,98.22,0,0,0-9,14.08c-31.62,58.88,20.94,127.67,86.14,113l1.35-.31a139.82,139.82,0,0,0,28.08-10c41.51-19.79,63.57-57.34,75.77-85.08C2808.76,889.21,2804.43,882.4,2800.62,876Z"/><path class="cls-9" d="M2671.86,928.49c17.84,4.65,22.56-17.81,22.56-17.81L2655.59,904S2654,923.84,2671.86,928.49Z"/><path class="cls-20" d="M3126.08,1454.09l-3.57,0c-86.19,1.23-300.42,0-300.42,0l-20.31-47.37s-8.62-24-30.17-27.71-44.94-42.47-44.94-42.47-17.23,8.62-8,27.08,16.62,36.94,16.62,36.94-72.64,7.39-83.11,2.46-54.17-30.16-62.79-30.16c0,0,1.85,32.63,22.17,42.17,0,0,28.93,69.25,48.63,78.49s148.36,35.09,148.36,35.09,322.64,108.36,399,82.51l9.78-28.11C3238.86,1507.62,3204.49,1454.09,3126.08,1454.09Z"/><path class="cls-21" d="M2704.72,1432.61h-20.15a121.84,121.84,0,0,1-47.14-9.43l-24.94-10.39a2.43,2.43,0,0,0-1.87,4.48l25,10.39a126.77,126.77,0,0,0,49,9.8h20.15a2.43,2.43,0,0,0,0-4.85Z"/><path class="cls-21" d="M2704.86,1459.06c-.53,0-52.51-3.13-77.6-14.8a2.43,2.43,0,0,0-2.05,4.4c25.92,12,77.2,15.12,79.37,15.24h.14a2.42,2.42,0,0,0,.14-4.84Z"/><path class="cls-21" d="M2705,1482.81c-.38,0-39-5-64.7-15a2.42,2.42,0,0,0-1.75,4.52c26.24,10.19,64.24,15.1,65.84,15.31l.31,0a2.43,2.43,0,0,0,.3-4.84Z"/><path class="cls-20" d="M3223,1356.76l-164,18.12s-.53,28.61,2.27,65c4.43,57.43,17.15,134.28,53.36,149.15,59.17,24.3,98.48,29.55,105.87,19,5.52-7.88,24.81-51.49,18.91-141.89C3237.44,1435.3,3232.48,1399,3223,1356.76Z"/><path class="cls-21" d="M3059.05,1374.88s-.53,28.61,2.27,65c28.22,1,123.22,5.84,178.14,26.24-2-30.87-7-67.19-16.43-109.41Z"/><path class="cls-12" d="M3097.43,1062.62s-71.94,27.2-79.26,209.16l-4.24,139.49,245.8-6.68S3242.58,1119.08,3097.43,1062.62Z"/><polygon class="cls-20" points="2286.54 1182.87 2289.93 1193.06 2298.83 1219.83 2307 1244.39 2408.94 1244.39 2345.74 1127.54 2286.54 1182.87"/><path class="cls-21" d="M2290.21,1192.84l-.28.22,8.9,26.77c37.73-14.94,38.09-58.13,38.09-58.13C2317.57,1188.21,2290.21,1192.84,2290.21,1192.84Z"/><path class="cls-20" d="M2270.29,1057.19c-17.43-9.51-95.32-17.72-100-14.18s-4.36,13.5,2.26,15.78,61.27,18.43,61.27,18.43-21.34,8.53-22,16.76,9.3,11.25,9.3,11.25-12.16,15.76-1,30.44c0,0-4.74,14.6-1.37,23.83s18.11,29.39,24.84,20.59c0,0,6-5.48,2.5-12.48a80.26,80.26,0,0,0,16.71,18.38c8.41,6.5,19.2,11.06,30.53,5.9,0,0,19.12-15.61,27.78-25.78,13.21-15.49,25-37.79,25-37.79s-17.55-19-23.58-25.08C2308.36,1088.94,2282.54,1063.88,2270.29,1057.19Z"/><path class="cls-21" d="M2250.92,1069.75c-32.13-8.36-77.17-8.9-80.59-26.74-4.63,3.53-4.36,13.5,2.26,15.78s61.27,18.43,61.27,18.43c24.63-.94,59.92,16.46,59.92,16.46S2283,1078.11,2250.92,1069.75Z"/><path class="cls-21" d="M2253.3,1128.86c-16.06-22.49-32.13-23.63-32.13-23.63s11.17,20.36,20.38,26.73,8.84,21.76,2.73,21.67-12.25-.7-24.09-18c0,0,8.35,23.46,27.52,29.32,11,3.38,6.07-18.76,14.62-16.53,18.58,4.84,37.93-5.44,37.93-5.44S2269.36,1151.36,2253.3,1128.86Z"/><path class="cls-12" d="M2487.59,1208.73c-21.36,77.51-26.1,170.83-26.1,170.83l95.69,11.86,4-250.7-18.36-26.67S2508.94,1131.23,2487.59,1208.73Z"/><path class="cls-24" d="M2849.64,1579.33H2607.93l1.71,8.09a23.85,23.85,0,0,1-23.34,28.79h263.34a8,8,0,0,0,8-8v-21A8,8,0,0,0,2849.64,1579.33Z"/><path class="cls-25" d="M2543.66,1275.58a39.75,39.75,0,0,0-38.89-31.53H2066.9a23.85,23.85,0,0,0-23.34,28.79L2078,1435.4l20.66,97.61,7.66,36.19h0l3.27,15.48a39.75,39.75,0,0,0,38.89,31.53H2586.3a23.86,23.86,0,0,0,23.34-28.8Z"/><path class="cls-26" d="M2043.56,1272.84,2078,1435.4l116.66-191.35H2066.9A23.85,23.85,0,0,0,2043.56,1272.84Z"/><path class="cls-26" d="M2098.61,1533l7.66,36.19h0l3.27,15.48a39.75,39.75,0,0,0,38.89,31.53h75.19c43.25-96.44,163-293.1,199.81-372.17h-149.5Z"/><path class="cls-24" d="M2543.66,1275.57a39.74,39.74,0,0,0-38.89-31.52h-15.9a39.75,39.75,0,0,1,38.89,31.52l66,311.85a23.86,23.86,0,0,1-23.34,28.79h15.9a23.85,23.85,0,0,0,23.34-28.79Z"/><ellipse class="cls-24" cx="2318.65" cy="1430.13" rx="37.17" ry="45.92" transform="translate(-295.38 2197.12) rotate(-48.02)"/><path class="cls-16" d="M2901.88,626.33c-82.83-60.63-160.84,34.83-163,38L2917,818.9a10.86,10.86,0,0,0,16.32-2.46C2980.33,741.51,2969.36,675.72,2901.88,626.33Z"/><path class="cls-17" d="M2920.2,693.31c-22.48-5.31-75-9.36-114.52,25.2,13.3-4.07,56.79-18.1,106.67-7,20.28,4.5,40.64,20.18,48.39,40.18,6.27-5.15,10.09-15.69,2.85-28.07C2954.39,708,2940.06,698,2920.2,693.31Z"/><path class="cls-17" d="M2899.42,612.07c-16.73-9.18-48.62-13-64.93-7.27-31.35,11-59.6,37.47-70.92,66.36,18.9-21.43,42-40.24,70.91-47.31s71.73,6.92,97.06,28.48C2934.53,640.44,2920.74,623.81,2899.42,612.07Z"/><path class="cls-17" d="M2760.67,627.46c-11.55,11.92-20.46,27.07-13.83,42.82,5.44-27.9,35.06-45,57.78-55.81C2786.84,608.31,2769.11,618.71,2760.67,627.46Z"/><path class="cls-27" d="M2779.38,650.8c-20.21-16.93-70-16.5-82-8.55s146.18,110.26,146.18,110.26S2805.86,673,2779.38,650.8Z"/><path class="cls-28" d="M1184.22,1975.52c-55.27-93.25-150.61-170.07-247.32-155s-53.44,123.83,30.57,201.19c50.14,46.16,102,170.74,135.55,271.35,17.87,53.48,30.59,100.21,35.17,124.76H1197l.51.74c0-.24,0-.49.08-.74,6-55,31.69-312.47-3-418.44A120.27,120.27,0,0,0,1184.22,1975.52Z"/><path class="cls-29" d="M1143.73,2112c-5-9.18-9.69-17.84-14.65-34.51-3-10-4-20.63-5-31.91-2.74-28.81-5.84-61.45-44.92-89.38-25.62-18.31-43.44-36.42-57.76-51C1006,1889.69,994,1877.4,979,1871.08a167.39,167.39,0,0,1-44.18-27.26,5.46,5.46,0,0,0-6.42-.41,3.06,3.06,0,0,0-.53,5c.74.69,18.48,17,46.82,28.93,13.25,5.6,24.82,17.36,39.47,32.25s32.63,33.17,58.84,51.89c36.4,26,39.23,55.81,42,84.63,1.1,11.56,2.14,22.49,5.27,33,5.13,17.26,10,26.21,15.13,35.68,5.73,10.56,11.66,21.47,18.44,45.68,12.5,44.57.21,111.73.08,112.4-.36,2,1.36,3.77,3.85,4.06q.33,0,.66,0c2.23,0,4.17-1.27,4.5-3.05.53-2.8,12.66-69.12-.19-115C1155.72,2134.12,1149.62,2122.89,1143.73,2112Z"/><path class="cls-30" d="M1103,2293.07c-40.92-49.19-86.06-95.62-117.89-106.36-73.44-24.75-160.94-21.93-206.32,31.34s28.79,92,110.4,94.78c57.87,1.94,168.64,62.78,234.16,105H1197c-2.73-4-6.36-9.17-10.73-15.38C1168.14,2376.7,1137,2333.94,1103,2293.07Z"/><path class="cls-28" d="M1105.34,2334.31c-16.29-12.56-25.54-16.83-34.48-21a124.31,124.31,0,0,1-25.79-15.06c-6.65-5-12.38-11.29-18.43-18-15.48-17.1-33-36.48-71.28-35.7-25.08.51-45.1-2.57-61.18-5.05-17.2-2.65-30.78-4.74-43.35-1.65a133.12,133.12,0,0,1-41.21,3.64,4.35,4.35,0,0,0-4.3,2.79,2.45,2.45,0,0,0,2.06,3.47,138.52,138.52,0,0,0,43.69-3.82c11.13-2.74,24.13-.74,40.58,1.79s36.65,5.65,62.31,5.13c35.65-.73,51.65,17,67.13,34.06,6.21,6.87,12.08,13.35,19.09,18.58a128.87,128.87,0,0,0,26.66,15.58c8.69,4,17.68,8.17,33.55,20.4,29.21,22.52,53.36,71.28,53.6,71.77.7,1.42,2.66,1.76,4.39.76a4.27,4.27,0,0,0,.44-.3,3.47,3.47,0,0,0,1.42-4.09C1159.24,2405.63,1135.4,2357.48,1105.34,2334.31Z"/><path class="cls-31" d="M1255.23,1848.71c-29.53,37.51-48.63,91-60.6,150.68-28.73,143.35-16.3,322.63-8.33,403.06q.84,8.46,1.6,15.38H1197l.51.74c0-.24,0-.49.08-.74h79.49c1.53-8.31,3.77-20.38,6.57-35.06,3.31-17.37,7.43-38.38,12.07-61.16,18.54-90.78,45.7-209.57,65.75-236.7,33.46-45.27,104.31-27.55,129.9-125.95s192.85-181.14,143.65-251S1379.22,1691.25,1255.23,1848.71Z"/><path class="cls-28" d="M1574.09,1725.19c-1.29.5-129.56,51.19-199.46,131.58-24.94,28.68-45.45,44.25-61.92,56.76-29.93,22.73-48,36.45-55.5,98.76-5.86,48.66-18.41,102.73-29.48,150.45-10.25,44.19-19.11,82.36-19.54,103.66-.86,43.26,18.87,128.57,19.71,132.18a4.55,4.55,0,0,0,8.87-2.07c-.21-.87-20.31-87.81-19.47-129.93.41-20.35,9.16-58.09,19.3-101.78,11.13-47.94,23.73-102.28,29.65-151.43,7-58.47,23-70.59,52-92.59,16.82-12.76,37.74-28.65,63.29-58,68.45-78.72,194.63-128.59,195.9-129.08a4.55,4.55,0,1,0-3.31-8.48Z"/><path class="cls-32" d="M1372.66,2186.85c-27.05,22.48-55.17,80.81-76.91,134.76-16.08,39.93-28.66,77.44-34.72,96.22h33.51a22.23,22.23,0,0,0,1.46-4c4.54-17.57,12.62-44.33,22-55.5,14.58-17.31,38.25-26.41,51-40.08s38.25-24.58,53.73-41.27.91-35.22,21.86-41.6,52.82-14.57,52.82-14.57,63.74-34.6,51.9-73.95S1428.22,2140.7,1372.66,2186.85Z"/><path class="cls-33" d="M1057.72,2423.08l.89,7.6,2.56,21.77.89,7.61,2.62,22.35.89,7.58,7.11,60.73,12.19,103.94c64.76,8.76,133.56,9.34,207.28,0l7.68-65.49,11.62-99.18.89-7.58,2.62-22.35.89-7.61,2.55-21.77.89-7.6,5.37-45.8H1052.35Z"/><polygon class="cls-9" points="1058.61 2430.68 1318.4 2430.68 1319.29 2423.08 1057.72 2423.08 1058.61 2430.68"/><polygon class="cls-9" points="1062.05 2460.05 1314.96 2460.05 1315.85 2452.45 1061.17 2452.45 1062.05 2460.05"/><polygon class="cls-9" points="1065.56 2489.99 1311.45 2489.99 1312.34 2482.4 1064.68 2482.4 1065.56 2489.99"/><path class="cls-34" d="M1072.68,2550.72l12.19,103.94c64.76,8.76,133.56,9.34,207.28,0l7.68-65.49C1208,2599.66,1121,2571.18,1072.68,2550.72Z"/><path class="cls-28" d="M3600.65,2134c-58-97.77-157.92-178.33-259.32-162.52s-56,129.85,32.05,211c52.58,48.4,106.91,179,142.13,284.51,18.74,56.08,32.07,105.07,36.87,130.82h61.7l.53.76c0-.25,0-.5.09-.76,6.31-57.65,33.22-327.63-3.14-438.74A126.44,126.44,0,0,0,3600.65,2134Z"/><path class="cls-29" d="M3558.19,2277.13c-5.22-9.62-10.16-18.71-15.35-36.18-3.12-10.46-4.18-21.63-5.3-33.46-2.87-30.2-6.13-64.43-47.1-93.71-26.86-19.19-45.54-38.19-60.56-53.45-16.05-16.32-28.73-29.21-44.42-35.83a175.66,175.66,0,0,1-46.33-28.58,5.72,5.72,0,0,0-6.73-.43,3.21,3.21,0,0,0-.55,5.27c.77.73,19.37,17.79,49.08,30.33,13.9,5.87,26,18.2,41.39,33.82s34.21,34.77,61.69,54.41c38.16,27.27,41.13,58.51,44,88.73,1.15,12.12,2.24,23.58,5.52,34.61,5.38,18.1,10.47,27.48,15.86,37.41,6,11.07,12.23,22.51,19.34,47.9,13.1,46.73.22,117.14.09,117.85-.39,2,1.42,3.95,4,4.25.23,0,.47,0,.7,0,2.33,0,4.37-1.34,4.71-3.21.55-2.93,13.28-72.46-.2-120.54C3570.76,2300.29,3564.37,2288.52,3558.19,2277.13Z"/><path class="cls-30" d="M3515.51,2467c-42.91-51.57-90.24-100.26-123.61-111.51-77-26-168.74-23-216.32,32.86s30.18,96.49,115.75,99.37c60.68,2,176.82,65.83,245.51,110.1h77.24c-2.86-4.16-6.67-9.63-11.25-16.13C3583.79,2554.64,3551.18,2509.81,3515.51,2467Z"/><path class="cls-28" d="M3517.94,2510.2c-17.08-13.17-26.78-17.65-36.15-22a130.53,130.53,0,0,1-27-15.8c-7-5.2-13-11.83-19.33-18.85-16.22-17.92-34.61-38.24-74.73-37.43-26.3.54-47.29-2.69-64.15-5.29-18-2.78-32.27-5-45.45-1.73a140,140,0,0,1-43.21,3.82,4.54,4.54,0,0,0-4.5,2.92,2.56,2.56,0,0,0,2.16,3.64c.83.09,20.85,2.13,45.8-4,11.68-2.87,25.3-.77,42.55,1.88s38.42,5.92,65.33,5.37c37.37-.75,54.15,17.79,70.38,35.72,6.52,7.2,12.67,14,20,19.48a134.55,134.55,0,0,0,28,16.34c9.11,4.21,18.53,8.56,35.17,21.39,30.63,23.61,55.95,74.73,56.2,75.24.73,1.49,2.79,1.85,4.6.8a5.27,5.27,0,0,0,.46-.31c1.49-1.11,2.16-2.94,1.49-4.29C3574.45,2585,3549.46,2534.49,3517.94,2510.2Z"/><path class="cls-31" d="M3675.1,2001.05c-31,39.33-51,95.4-63.54,158-30.12,150.31-17.09,338.28-8.73,422.61q.89,8.87,1.67,16.13h9.58l.53.76c0-.25,0-.5.09-.76H3698c1.6-8.72,3.95-21.38,6.89-36.77,3.47-18.21,7.79-40.24,12.65-64.12,19.44-95.19,47.92-219.74,69-248.18,35.07-47.47,109.36-28.89,136.19-132.06s202.2-189.92,150.62-263.13S3805.1,1836,3675.1,2001.05Z"/><path class="cls-28" d="M4009.42,1871.53c-1.35.53-135.84,53.68-209.13,138-26.15,30.06-47.65,46.39-64.93,59.51-31.38,23.83-50.32,38.22-58.19,103.54-6.14,51-19.29,107.72-30.9,157.75-10.76,46.34-20,86.35-20.49,108.69-.91,45.36,19.78,134.8,20.66,138.59a4.78,4.78,0,0,0,4.65,3.69,5,5,0,0,0,1.08-.12,4.78,4.78,0,0,0,3.57-5.74c-.21-.91-21.29-92.07-20.41-136.23.43-21.34,9.61-60.91,20.24-106.72,11.66-50.26,24.88-107.23,31.08-158.76,7.38-61.32,24.11-74,54.49-97.08,17.62-13.39,39.56-30,66.35-60.86,71.77-82.53,204.07-134.81,205.4-135.33a4.78,4.78,0,0,0-3.47-8.9Z"/><path class="cls-32" d="M3798.23,2355.58c-28.37,23.57-57.86,84.73-80.65,141.3-16.86,41.86-30,81.19-36.4,100.89h35.14a24,24,0,0,0,1.52-4.18c4.77-18.42,13.24-46.48,23.1-58.19,15.28-18.15,40.1-27.69,53.47-42s40.1-25.77,56.33-43.28,1-36.93,22.92-43.61,55.38-15.28,55.38-15.28,66.83-36.28,54.42-77.54S3856.47,2307.19,3798.23,2355.58Z"/><polygon class="cls-35" points="1777.91 2685.62 1805.4 2685.62 1947.29 1702.57 1870.8 1702.57 1777.91 2685.62"/><polygon class="cls-35" points="3586.03 1702.57 3727.92 2685.62 3755.41 2685.62 3662.52 1702.57 3586.03 1702.57"/><rect class="cls-36" x="1727.04" y="1636.87" width="2046.18" height="82.7"/><rect class="cls-37" x="1727.05" y="1636.86" width="2046.17" height="32.36"/><rect class="cls-38" x="1700.76" y="1613.02" width="2098.74" height="40.9"/><path class="cls-39" d="M597.22,1727.61a56.18,56.18,0,0,0,56.18,56.18h860.26a56.18,56.18,0,0,0,56.18-56.18V1212H597.22Z"/><path class="cls-25" d="M1513.66,1135.06H653.4a56.18,56.18,0,0,0-56.18,56.18V1212h972.62v-20.77A56.18,56.18,0,0,0,1513.66,1135.06Z"/><path class="cls-12" d="M682.43,1149.67a25.09,25.09,0,1,0,25.08,25.08A25.08,25.08,0,0,0,682.43,1149.67Z"/><path class="cls-40" d="M750.51,1149.67a25.09,25.09,0,1,0,25.09,25.08A25.08,25.08,0,0,0,750.51,1149.67Z"/><path class="cls-30" d="M818.6,1149.67a25.09,25.09,0,1,0,25.08,25.08A25.08,25.08,0,0,0,818.6,1149.67Z"/><rect class="cls-41" x="653.12" y="1555.89" width="312.27" height="160.86"/><rect class="cls-42" x="1015.94" y="1268.8" width="507.59" height="36.39"/><rect class="cls-42" x="1015.94" y="1337.4" width="507.59" height="36.39"/><rect class="cls-42" x="1015.94" y="1405.99" width="507.59" height="36.39"/><rect class="cls-42" x="1015.94" y="1474.59" width="507.59" height="36.39"/><rect class="cls-42" x="1015.94" y="1543.18" width="507.59" height="36.39"/><rect class="cls-42" x="1015.94" y="1611.77" width="507.59" height="36.39"/><rect class="cls-42" x="1015.94" y="1680.37" width="507.59" height="36.39"/><path class="cls-9" d="M731.62,1314.81a49.23,49.23,0,0,0-21.68-4.57H674.75v74.4h35.19a49.23,49.23,0,0,0,21.68-4.57,34.35,34.35,0,0,0,14.67-13,39.7,39.7,0,0,0,0-39.32A34.35,34.35,0,0,0,731.62,1314.81Zm-7.17,47.62q-5.81,5.41-15.36,5.42H695.8V1327h13.29q9.55,0,15.36,5.42t5.79,15Q730.24,1357,724.45,1362.43Z"/><path class="cls-9" d="M805.28,1329.64a36.22,36.22,0,0,0-31.89.26,29,29,0,0,0,.64,51.87,39.21,39.21,0,0,0,17.75,3.83q16.15,0,24.56-9.35l-10.63-11.06a21.28,21.28,0,0,1-6.11,3.83,19.94,19.94,0,0,1-7.18,1.17,16.52,16.52,0,0,1-9.19-2.39,11.72,11.72,0,0,1-5-6.86h41.88c.22-3.19.32-4.85.32-5a30.23,30.23,0,0,0-4.09-16A27.06,27.06,0,0,0,805.28,1329.64ZM778,1350.31a12,12,0,0,1,4-7.23,12.81,12.81,0,0,1,15.63,0,12,12,0,0,1,4,7.23Z"/><polygon class="cls-9" points="855.67 1362.21 841.85 1327.03 821.12 1327.03 844.83 1384.64 865.66 1384.64 889.47 1327.03 870.23 1327.03 855.67 1362.21"/><path class="cls-9" d="M733.48,1415.77a47.47,47.47,0,0,0-42.41,0,38,38,0,0,0,0,67.39,47.47,47.47,0,0,0,42.41,0,38,38,0,0,0,0-67.39Zm-3.77,44.8a19.12,19.12,0,0,1-7.23,7.5,21,21,0,0,1-20.41,0,19.12,19.12,0,0,1-7.23-7.5,24.59,24.59,0,0,1,0-22.21,19.06,19.06,0,0,1,7.23-7.5,20.91,20.91,0,0,1,20.41,0,19.06,19.06,0,0,1,7.23,7.5,24.51,24.51,0,0,1,0,22.21Z"/><path class="cls-9" d="M814.27,1431.77a28.33,28.33,0,0,0-14.3-3.67q-11.37,0-17,6.69v-5.74H763.72v78.24h20.2v-25.73q6,6.06,16.05,6.06a28.42,28.42,0,0,0,14.3-3.66,26.83,26.83,0,0,0,10.2-10.42,34.49,34.49,0,0,0,0-31.36A26.74,26.74,0,0,0,814.27,1431.77Zm-9.84,36.14a12.21,12.21,0,0,1-17.43,0q-3.4-3.67-3.4-10.05t3.4-10a12.18,12.18,0,0,1,17.43,0q3.41,3.66,3.4,10T804.43,1467.91Z"/><path class="cls-9" d="M875.44,1453.4a89.42,89.42,0,0,0-11.8-2.45,53.82,53.82,0,0,1-8.08-1.65c-1.63-.53-2.44-1.47-2.44-2.81s.74-2.18,2.23-2.93,3.82-1.11,7-1.11A33.67,33.67,0,0,1,879,1446.7l6-13.71a35.66,35.66,0,0,0-10.31-3.62,61.19,61.19,0,0,0-12.43-1.27,41.12,41.12,0,0,0-15.15,2.5,21.8,21.8,0,0,0-9.62,6.8,15.73,15.73,0,0,0-3.3,9.83q0,6.7,3.51,10.42a18.11,18.11,0,0,0,8.35,5.1,77.49,77.49,0,0,0,11.74,2.23,52.14,52.14,0,0,1,7.92,1.54c1.67.54,2.5,1.44,2.5,2.71a3.17,3.17,0,0,1-2.07,2.93c-1.38.67-3.71,1-7,1a41.64,41.64,0,0,1-10.73-1.44,34.08,34.08,0,0,1-9.36-3.88L833,1481.67a37.68,37.68,0,0,0,11.26,4.31,62.62,62.62,0,0,0,14.25,1.64,43.58,43.58,0,0,0,15.46-2.44,21.48,21.48,0,0,0,9.73-6.75,15.63,15.63,0,0,0,3.29-9.73q0-6.59-3.45-10.25A18,18,0,0,0,875.44,1453.4Z"/><polygon class="cls-39" points="1546.3 1413.09 1771.99 1391.25 1546.3 1279.14 1546.3 1413.09"/><path class="cls-43" d="M1311.81,488.68c-212.42,9.77-316.28,143.45-316.28,287.87a291.2,291.2,0,0,0,7.15,64.34c27.25,16.23,67.67,38.71,98.19,48.91,12.28-24.89,31.32-69,36.71-79.43-3.78-13-9.49-194.85,180-206.72-11.57-9.64-66.32-49.36-66.32-49.36S1297.58,504.87,1311.81,488.68Z"/><path class="cls-26" d="M1343.3,945.4c-125.36,0-183.58-70.21-203.19-127-3.87,7.86-36.22,78.57-36.22,78.57s-71.27-31.62-99.34-48.13c33,128.29,155.4,222.22,343.3,222.22,74.51,0,134.94-14.19,183-34,6.7-22.47,13.59-46,19.83-82.79-22.51-10.69-58.82-27.6-77.32-36.19C1422.5,945.27,1374.37,945.4,1343.3,945.4Z"/><path class="cls-26" d="M2015.16,461.46c-106.66,0-180.53,22.6-232.38,52.85l77.72,29.5L1854,618.66c41.52-30.82,93.77-32.89,170.27-32.89,122.77,0,183.15,71.66,205.75,133l76.84,32,58.62-67C2327.79,549.3,2202.75,461.46,2015.16,461.46Z"/><path class="cls-43" d="M2308.49,757.8l-75.91-31.62c5.78,17.79,8.36,34.41,8.36,47.72,0,58.17-34.73,166.74-167.37,193l-49.75,72.69,66.42,53.7C2292.29,1070,2377.5,940.42,2377.5,773.9a336.43,336.43,0,0,0-10.15-83.34Z"/><path class="cls-12" d="M1319.9,488.38c-12.65,14.44-39.54,44.8-59.72,65.26,6.84,5.07,53.19,38.46,65.78,49.46,66.43,0,199.28,2.85,287,122.84,30-55.22,54-90.92,54-90.92C1633.94,589.82,1550.65,482.63,1319.9,488.38Z"/><path class="cls-40" d="M1616.89,731.3c-11,21.82-55.49,112.7-87.13,144.34a242.35,242.35,0,0,1-50.1,38.84c20,9.31,77.51,36.33,77.51,36.33s-12.9,61.5-19.35,83.25c80.34-35,154.12-108,195.2-198.87,33.86-74.88,62.2-162.16,114.63-211.55l6.61-75.91-77.84-29.55C1713.46,557,1627.88,709.49,1616.89,731.3Z"/><path class="cls-12" d="M2065.51,968.23a331.41,331.41,0,0,1-54.9,4.43c-65.43,0-205.69-26.46-273.49-131-5.9,20.23-31.53,61.41-56.72,89,140.75,195.13,382.66,165.27,401.5,163.4l-66-53.35Z"/><path class="cls-39" d="M2091.67,753.32l15.18-26.94-24.39-24.08-27.29,15a97.11,97.11,0,0,0-22.11-9l-8.52-29.62H1990l-8.51,29.62a96.93,96.93,0,0,0-22.11,9l-27.29-15-24.39,24.08,15.18,26.94a94.16,94.16,0,0,0-9.12,21.83l-30,8.4v34.13l30,8.4a94.16,94.16,0,0,0,9.12,21.83l-15.18,26.94,24.39,24.08,27.29-15a96.93,96.93,0,0,0,22.11,9l8.51,29.62h34.57l8.52-29.62a97.11,97.11,0,0,0,22.11-9l27.29,15,24.39-24.08-15.18-26.94a95,95,0,0,0,9.12-21.83l30-8.4V783.55l-30-8.4A95,95,0,0,0,2091.67,753.32Zm-84.41,100.89c-29.9,0-54.29-24.08-54.29-53.59s24.39-53.6,54.29-53.6,54.29,24.08,54.29,53.6S2037.15,854.21,2007.26,854.21Z"/><path class="cls-39" d="M1415.58,744.9l12.22-21.69-19.64-19.38-22,12.06a78.44,78.44,0,0,0-17.8-7.25l-6.85-23.85h-27.83l-6.85,23.85a78.44,78.44,0,0,0-17.8,7.25l-22-12.06-19.63,19.38,12.22,21.69a76.26,76.26,0,0,0-7.35,17.57l-24.15,6.76V796.7l24.15,6.77a76.44,76.44,0,0,0,7.35,17.57l-12.22,21.68,19.63,19.38,22-12.06a78.44,78.44,0,0,0,17.8,7.25l6.85,23.85h27.83l6.85-23.85a78.44,78.44,0,0,0,17.8-7.25l22,12.06,19.64-19.38L1415.58,821a76.41,76.41,0,0,0,7.34-17.57l24.16-6.77V769.23l-24.16-6.76A76.23,76.23,0,0,0,1415.58,744.9Zm-67.95,81.21c-24.06,0-43.7-19.39-43.7-43.14s19.64-43.14,43.7-43.14,43.7,19.38,43.7,43.14S1371.7,826.11,1347.63,826.11Z"/><polygon class="cls-44" points="3380.93 908.47 3794.14 908.47 3794.14 1079.31 3808.14 1079.31 3808.14 894.47 3380.93 894.47 3380.93 908.47"/><path class="cls-45" d="M3978.68,1054.23H3620a44.17,44.17,0,0,0-44.17,44.16v306.48a44.18,44.18,0,0,0,44.17,44.18H3975.8a44.17,44.17,0,0,0,44.16-44.18V1095.51A41.28,41.28,0,0,0,3978.68,1054.23Z"/><polygon class="cls-9" points="3716.49 1178.58 3637.74 1253.3 3637.7 1253.3 3637.73 1253.33 3637.7 1253.35 3637.74 1253.35 3716.49 1328.08 3747.32 1328.08 3668.56 1253.33 3747.32 1178.58 3716.49 1178.58"/><polygon class="cls-9" points="3957.6 1253.3 3878.86 1178.58 3848.02 1178.58 3926.79 1253.33 3848.02 1328.08 3878.86 1328.08 3957.6 1253.35 3957.64 1253.35 3957.62 1253.33 3957.64 1253.3 3957.6 1253.3"/><polygon class="cls-9" points="3753.01 1362.6 3780.87 1362.6 3842.34 1144.05 3814.48 1144.05 3753.01 1362.6"/><rect class="cls-44" x="3292.47" y="655.59" width="14" height="182.04"/><path class="cls-31" d="M3538.9,393.61H3265.1a132.07,132.07,0,1,0,0,264.14h273.8a132.07,132.07,0,0,0,0-264.14Z"/><rect class="cls-26" x="3113.7" y="837.64" width="297.15" height="145.9" rx="72.95"/><rect class="cls-42" x="3177.29" y="876.19" width="172.49" height="19.77"/><rect class="cls-42" x="3177.29" y="917.52" width="172.49" height="19.76"/><rect class="cls-9" x="3249.54" y="486.91" width="217.54" height="74.1"/><rect class="cls-9" x="3480.46" y="486.91" width="22.73" height="74.1"/><rect class="cls-9" x="3514.58" y="486.91" width="22.73" height="74.1"/><rect class="cls-9" x="3548.7" y="486.91" width="22.73" height="74.1"/><rect class="cls-9" x="3582.82" y="486.91" width="22.73" height="74.1"/><polygon class="cls-9" points="3283.66 615.12 3283.66 432.8 3192.5 523.96 3283.66 615.12"/><rect class="cls-46" x="1565.66" y="2133.54" width="626.4" height="227.55" rx="54.55"/><polygon class="cls-46" points="2192.05 2187.66 2192.05 2045.34 2120.57 2139.66 2192.05 2187.66"/><path class="cls-9" d="M1757.55,2220.75a31.35,31.35,0,0,1,15.61-3.84q14.92,0,25.38,12.61l19.37-17.53a51.27,51.27,0,0,0-19.68-15.07,65.13,65.13,0,0,0-26.6-5.23,63.7,63.7,0,0,0-30.38,7.15,53.5,53.5,0,0,0-21.14,19.91,58.21,58.21,0,0,0,0,57.83,53.43,53.43,0,0,0,21.14,19.91,63.7,63.7,0,0,0,30.38,7.15,65.13,65.13,0,0,0,26.6-5.23,51.07,51.07,0,0,0,19.68-15.07l-19.37-17.53q-10.47,12.61-25.38,12.61a31.35,31.35,0,0,1-15.61-3.84,26.69,26.69,0,0,1-10.61-10.84,36.22,36.22,0,0,1,0-32.14A26.71,26.71,0,0,1,1757.55,2220.75Z"/><polygon class="cls-9" points="1878.19 2211.07 1854.51 2211.07 1854.51 2236.44 1828.37 2236.44 1828.37 2258.89 1854.51 2258.89 1854.51 2284.26 1878.19 2284.26 1878.19 2258.89 1904.18 2258.89 1904.18 2236.44 1878.19 2236.44 1878.19 2211.07"/><polygon class="cls-9" points="1973.08 2211.07 1949.39 2211.07 1949.39 2236.44 1923.25 2236.44 1923.25 2258.89 1949.39 2258.89 1949.39 2284.26 1973.08 2284.26 1973.08 2258.89 1999.06 2258.89 1999.06 2236.44 1973.08 2236.44 1973.08 2211.07"/></g></svg>