<?xml version="1.0" encoding="iso-8859-1"?>
<!-- Generator: Adobe Illustrator 25.2.0, SVG Export Plug-In . SVG Version: 6.00 Build 0)  -->
<svg version="1.1" id="Layer_1" xmlns="http://www.w3.org/2000/svg" xmlns:xlink="http://www.w3.org/1999/xlink" x="0px" y="0px"
	 viewBox="0 0 2048 2048" style="enable-background:new 0 0 2048 2048;" xml:space="preserve">
<g>
	<path style="fill:#D8D8FF;" d="M1024,702.059c-13.682,0-24.774-11.092-24.774-24.774V552.609c0-13.682,11.092-24.774,24.774-24.774
		c13.682,0,24.774,11.092,24.774,24.774v124.676C1048.774,690.968,1037.682,702.059,1024,702.059z"/>
	<path style="fill:#D8D8FF;" d="M1502.513,1051.148h-129.424c-13.682,0-24.774-11.092-24.774-24.774
		c0-13.682,11.092-24.774,24.774-24.774h129.424c13.682,0,24.774,11.092,24.774,24.774
		C1527.287,1040.056,1516.196,1051.148,1502.513,1051.148z"/>
	<path style="fill:#D8D8FF;" d="M1024,1529.662c-13.682,0-24.774-11.092-24.774-24.774v-129.424
		c0-13.682,11.092-24.774,24.774-24.774c13.682,0,24.774,11.092,24.774,24.774v129.424
		C1048.774,1518.571,1037.682,1529.662,1024,1529.662z"/>
	<path style="fill:#D8D8FF;" d="M674.911,1051.148H545.486c-13.682,0-24.774-11.092-24.774-24.774
		c0-13.682,11.092-24.774,24.774-24.774h129.424c13.682,0,24.774,11.092,24.774,24.774
		C699.685,1040.056,688.593,1051.148,674.911,1051.148z"/>
	<path style="fill:#D8D8FF;" d="M777.156,804.304c-6.34,0-12.68-2.419-17.518-7.256L600.454,637.864
		c-9.675-9.675-9.675-25.361,0-35.036c9.675-9.674,25.361-9.674,35.036,0l159.184,159.184c9.675,9.675,9.675,25.361,0,35.036
		C789.837,801.886,783.496,804.304,777.156,804.304z"/>
	<path style="fill:#D8D8FF;" d="M1270.844,804.304c-6.341,0-12.68-2.419-17.518-7.256c-9.674-9.675-9.674-25.361,0-35.036
		l159.185-159.184c9.675-9.674,25.361-9.674,35.036,0c9.674,9.675,9.674,25.361,0,35.036l-159.184,159.185
		C1283.524,801.886,1277.184,804.304,1270.844,804.304z"/>
	<path style="fill:#D8D8FF;" d="M1430.028,1457.182c-7.037,0-13.39-2.935-17.9-7.644l-158.802-158.802
		c-9.674-9.675-9.674-25.361,0-35.036c9.675-9.675,25.361-9.675,35.036,0l159.184,159.184c4.646,4.646,7.256,10.948,7.256,17.518
		C1454.802,1446.085,1443.711,1457.182,1430.028,1457.182z"/>
	<path style="fill:#D8D8FF;" d="M621.946,1453.203c-6.34,0-12.68-2.418-17.518-7.256c-9.675-9.675-9.675-25.361,0-35.036
		L759.638,1255.7c9.675-9.675,25.361-9.675,35.036,0c9.675,9.675,9.675,25.361,0,35.036l-155.211,155.211
		C634.626,1450.784,628.286,1453.203,621.946,1453.203z"/>
	<path style="fill:#91DE97;" d="M554.271,1400.403c52.862,0,95.711,42.849,95.711,95.701c0,52.852-42.849,95.701-95.711,95.701
		c-52.852,0-95.701-42.849-95.701-95.701C458.57,1443.252,501.419,1400.403,554.271,1400.403z"/>
	<path style="fill:#91DE97;" d="M1497.703,456.96c52.862,0,95.701,42.849,95.701,95.711c0,52.852-42.839,95.701-95.701,95.701
		c-26.426,0-50.354-10.715-67.675-28.026c-17.311-17.321-28.026-41.249-28.026-67.675
		C1402.003,499.809,1444.852,456.96,1497.703,456.96z"/>
	<path style="fill:#FDC424;" d="M1497.703,1404.377c52.862,0,95.701,42.849,95.701,95.701c0,52.862-42.839,95.711-95.701,95.711
		c-52.852,0-95.701-42.849-95.701-95.711c0-26.415,10.715-50.343,28.026-67.664v-0.01
		C1447.35,1415.092,1471.277,1404.377,1497.703,1404.377z"/>
	<path style="fill:#FDC424;" d="M550.297,456.97c52.852,0,95.701,42.849,95.701,95.701c0,26.426-10.715,50.354-28.026,67.675
		c-17.321,17.321-41.249,28.026-67.675,28.026c-52.862,0-95.711-42.839-95.711-95.701
		C454.586,499.819,497.435,456.97,550.297,456.97z"/>
	<circle style="fill:#69BEF9;" cx="1646.07" cy="1026.374" r="143.556"/>
	<circle style="fill:#69BEF9;" cx="401.93" cy="1026.374" r="143.556"/>
	<circle style="fill:#F06561;" cx="1024" cy="1648.444" r="143.556"/>
	<circle style="fill:#F06561;" cx="1024" cy="404.305" r="148.305"/>
	<g>
		<path style="fill:#4B5A99;" d="M1276.957,1146.464c0-122.766-99.526-222.292-222.292-222.292h-61.33
			c-122.766,0-222.292,99.526-222.292,222.292v132.846c-64.725-64.736-104.762-154.171-104.762-252.935
			c0-98.775,40.037-188.21,104.773-252.946S925.225,668.655,1024,668.655s188.21,40.037,252.946,104.773
			c64.736,64.736,104.773,154.171,104.773,252.946c0,98.765-40.037,188.2-104.762,252.935V1146.464z"/>
		<path style="fill:#C9C9F2;" d="M1251.57,1149.627c-14.021,0-25.387-11.366-25.387-25.387V924.172
			c0-14.021,11.366-25.387,25.387-25.387c14.021,0,25.387,11.366,25.387,25.387v200.068
			C1276.956,1138.261,1265.59,1149.627,1251.57,1149.627z"/>
		<path style="fill:#C9C9F2;" d="M796.43,1149.627c-14.021,0-25.387-11.366-25.387-25.387V924.172
			c0-14.021,11.366-25.387,25.387-25.387s25.387,11.366,25.387,25.387v200.068C821.817,1138.261,810.451,1149.627,796.43,1149.627z"
			/>
		<path style="fill:#E8E8FF;" d="M1276.957,1146.464v132.846l-0.01,0.011c-64.736,64.736-154.171,104.773-252.946,104.773
			s-188.21-40.037-252.946-104.773l-0.011-0.011v-132.846c0-122.766,99.526-222.292,222.292-222.292h61.33
			C1177.43,924.172,1276.957,1023.698,1276.957,1146.464z"/>
		<ellipse style="fill:#D8D8FF;" cx="1024" cy="1154.132" rx="160.972" ry="137.976"/>
		<path style="fill:#C9C9F2;" d="M955.012,1156.523c-14.021,0-25.387-11.366-25.387-25.387v-22.996
			c0-14.021,11.366-25.387,25.387-25.387s25.387,11.366,25.387,25.387v22.996C980.398,1145.157,969.032,1156.523,955.012,1156.523z"
			/>
		<path style="fill:#C9C9F2;" d="M1092.988,1156.523c-14.021,0-25.387-11.366-25.387-25.387v-22.996
			c0-14.021,11.366-25.387,25.387-25.387c14.021,0,25.387,11.366,25.387,25.387v22.996
			C1118.375,1145.157,1107.009,1156.523,1092.988,1156.523z"/>
		<path style="fill:#C9C9F2;" d="M1024,1225.474c-18.283,0-36.559-6.957-50.477-20.875c-9.915-9.914-9.915-25.988-0.001-35.902
			c9.914-9.912,25.988-9.915,35.902,0c8.037,8.038,21.115,8.036,29.152,0c9.914-9.913,25.988-9.915,35.901,0.001
			c9.915,9.914,9.914,25.988-0.001,35.901C1060.562,1218.514,1042.278,1225.474,1024,1225.474z"/>
	</g>
	<path style="fill:#3CB6F6;" d="M1646.07,978.529c26.426,0,47.845,21.419,47.845,47.845c0,26.426-21.419,47.856-47.845,47.856
		s-47.855-21.43-47.855-47.856C1598.214,999.948,1619.644,978.529,1646.07,978.529z"/>
	<path style="fill:#3CB6F6;" d="M401.93,978.529c26.426,0,47.855,21.419,47.855,47.845c0,26.426-21.43,47.856-47.855,47.856
		s-47.845-21.43-47.845-47.856C354.085,999.948,375.505,978.529,401.93,978.529z"/>
	<path style="fill:#ED4A46;" d="M1024,1600.599c26.426,0,47.855,21.419,47.855,47.845s-21.43,47.855-47.855,47.855
		s-47.855-21.43-47.855-47.855S997.574,1600.599,1024,1600.599z"/>
	<path style="fill:#ED4A46;" d="M1024,356.459c26.426,0,47.855,21.419,47.855,47.845c0,26.426-21.43,47.855-47.855,47.855
		s-47.855-21.43-47.855-47.855C976.145,377.879,997.574,356.459,1024,356.459z"/>
</g>
</svg>
