<?xml version="1.0" encoding="iso-8859-1"?>
<!-- Generator: Adobe Illustrator 25.2.0, SVG Export Plug-In . SVG Version: 6.00 Build 0)  -->
<svg version="1.1" id="Layer_1" xmlns="http://www.w3.org/2000/svg" xmlns:xlink="http://www.w3.org/1999/xlink" x="0px" y="0px"
	 viewBox="0 0 2048 2048" style="enable-background:new 0 0 2048 2048;" xml:space="preserve">
<g>
	<path style="fill:#E8E8FF;" d="M1153.517,357.296l-91.964-91.964c-5.977-5.977-14.08-9.332-22.524-9.332H580.728v693.677h654.008
		V613.326L1153.517,357.296z"/>
	<path style="fill:#F2C3B6;" d="M503.742,1048.774v198.194c-27.365,0-52.139-11.086-70.07-29.027
		c-17.941-17.93-29.027-42.705-29.027-70.07s11.086-52.139,29.027-70.07C451.603,1059.861,476.377,1048.774,503.742,1048.774z"/>
	<path style="fill:#F2C3B6;" d="M1366.586,1077.801c17.941,17.93,29.027,42.705,29.027,70.07s-11.086,52.139-29.027,70.07
		c-17.93,17.941-42.704,29.027-70.07,29.027v-198.194C1323.881,1048.774,1348.656,1059.861,1366.586,1077.801z"/>
	<path style="fill:#FFD3C5;" d="M1234.735,949.677H580.728h-67.293h-9.693v99.097v198.194v148.645
		c0,218.921,177.466,396.387,396.387,396.387c62.194,0,121.032-14.317,173.419-39.855l203.21-232.661
		c12.831-38.968,19.757-80.609,19.757-123.871v-148.645v-198.194v-99.097H1234.735z"/>
	<path style="fill:#91DE97;" d="M1153.517,357.295C1185.135,297.074,1248.279,256,1321.012,256
		c104.413,0,189.058,84.645,189.058,189.058s-84.645,189.058-189.058,189.058c-31.081,0-60.408-7.505-86.276-20.79
		c-61.027-31.36-102.782-94.937-102.782-168.268C1131.953,413.378,1139.747,383.525,1153.517,357.295z"/>
	<path style="fill:#F2C3B6;" d="M702.472,1263.269c-25.956,0-50.331-8.961-68.635-25.232c-14.612-12.989-32.031-36.62-32.031-75.437
		c0-13.682,11.092-24.774,24.774-24.774c13.682,0,24.774,11.092,24.774,24.774c0,40.354,32.132,51.12,51.117,51.12
		s51.117-10.766,51.117-51.12c0-13.682,11.092-24.774,24.774-24.774c13.682,0,24.774,11.092,24.774,24.774
		c0,38.817-17.418,62.448-32.031,75.437C752.803,1254.308,728.428,1263.269,702.472,1263.269z"/>
	<path style="fill:#F2C3B6;" d="M1112.996,1263.269c-25.957,0-50.333-8.961-68.637-25.231
		c-14.614-12.989-32.033-36.621-32.033-75.438c0-13.682,11.092-24.774,24.774-24.774c13.682,0,24.774,11.092,24.774,24.774
		c0,40.354,32.135,51.12,51.122,51.12c18.988,0,51.123-10.766,51.123-51.12c0-13.682,11.092-24.774,24.774-24.774
		c13.682,0,24.774,11.092,24.774,24.774c0,38.817-17.419,62.449-32.033,75.438
		C1163.33,1254.308,1138.954,1263.269,1112.996,1263.269z"/>
	<path style="fill:#71C877;" d="M1301.213,530.509c-6.341,0-12.68-2.418-17.518-7.256l-81.755-81.755
		c-9.674-9.675-9.674-25.361,0-35.036c9.675-9.674,25.361-9.674,35.036,0l64.237,64.237l103.835-103.835
		c9.675-9.674,25.361-9.674,35.036,0c9.674,9.675,9.674,25.361,0,35.036l-121.353,121.352
		C1313.894,528.089,1307.552,530.509,1301.213,530.509z"/>
	<path style="fill:#D8D8FF;" d="M1024,379.871H677.161c-13.682,0-24.774-11.092-24.774-24.774s11.092-24.774,24.774-24.774H1024
		c13.682,0,24.774,11.092,24.774,24.774S1037.682,379.871,1024,379.871z"/>
	<path style="fill:#D8D8FF;" d="M1024,478.968H677.161c-13.682,0-24.774-11.092-24.774-24.774s11.092-24.774,24.774-24.774H1024
		c13.682,0,24.774,11.092,24.774,24.774S1037.682,478.968,1024,478.968z"/>
	<path style="fill:#D8D8FF;" d="M1024,578.065H677.161c-13.682,0-24.774-11.092-24.774-24.774c0-13.682,11.092-24.774,24.774-24.774
		H1024c13.682,0,24.774,11.092,24.774,24.774C1048.774,566.973,1037.682,578.065,1024,578.065z"/>
	<path style="fill:#D8D8FF;" d="M1123.097,677.161H677.161c-13.682,0-24.774-11.092-24.774-24.774
		c0-13.682,11.092-24.774,24.774-24.774h445.935c13.682,0,24.774,11.092,24.774,24.774
		C1147.871,666.07,1136.779,677.161,1123.097,677.161z"/>
	<path style="fill:#D8D8FF;" d="M1123.097,776.258H677.161c-13.682,0-24.774-11.092-24.774-24.774
		c0-13.682,11.092-24.774,24.774-24.774h445.935c13.682,0,24.774,11.092,24.774,24.774
		C1147.871,765.166,1136.779,776.258,1123.097,776.258z"/>
	<path style="fill:#D8D8FF;" d="M1123.097,875.355H677.161c-13.682,0-24.774-11.092-24.774-24.774
		c0-13.682,11.092-24.774,24.774-24.774h445.935c13.682,0,24.774,11.092,24.774,24.774
		C1147.871,864.263,1136.779,875.355,1123.097,875.355z"/>
	<path style="fill:#F2C3B6;" d="M924.903,1668.129c-45.489,0-88.45-14.925-120.966-42.028
		c-33.823-28.177-52.453-66.042-52.453-106.617c0-13.682,11.092-24.774,24.774-24.774c13.682,0,24.774,11.092,24.774,24.774
		c0,25.606,12.296,49.952,34.624,68.552c23.634,19.699,55.327,30.544,89.247,30.544c68.302,0,123.871-44.455,123.871-99.097
		c0-13.682,11.092-24.774,24.774-24.774c13.682,0,24.774,11.092,24.774,24.774c0,40.568-18.627,78.433-52.451,106.62
		C1013.352,1653.205,970.392,1668.129,924.903,1668.129z"/>
	<polygon style="fill:#FDC424;" points="1643.355,1494.71 1643.355,1767.226 1048.774,1767.226 1048.774,1727.37 1048.774,1494.71 
		1098.323,1494.71 1098.323,1370.839 1222.194,1494.71 1251.984,1494.71 	"/>
	<path style="fill:#F9AC00;" d="M1544.258,1618.581h-396.387c-13.682,0-24.774-11.092-24.774-24.774
		c0-13.682,11.092-24.774,24.774-24.774h396.387c13.682,0,24.774,11.092,24.774,24.774
		C1569.032,1607.489,1557.941,1618.581,1544.258,1618.581z"/>
	<path style="fill:#F9AC00;" d="M1544.258,1692.903h-396.387c-13.682,0-24.774-11.092-24.774-24.774s11.092-24.774,24.774-24.774
		h396.387c13.682,0,24.774,11.092,24.774,24.774S1557.941,1692.903,1544.258,1692.903z"/>
</g>
</svg>
