<?xml version="1.0" encoding="iso-8859-1"?>
<!-- Generator: Adobe Illustrator 25.2.0, SVG Export Plug-In . SVG Version: 6.00 Build 0)  -->
<svg version="1.1" id="Layer_1" xmlns="http://www.w3.org/2000/svg" xmlns:xlink="http://www.w3.org/1999/xlink" x="0px" y="0px"
	 viewBox="0 0 2048 2048" style="enable-background:new 0 0 2048 2048;" xml:space="preserve">
<g>
	<rect x="256" y="622.028" style="fill:#D8D8FF;" width="137.647" height="206.465"/>
	<rect x="1263.35" y="622.028" style="fill:#D8D8FF;" width="137.647" height="206.465"/>
	<path style="fill:#E8E8FF;" d="M1233.004,518.795H423.992c-23.664,0-42.833,19.179-42.833,42.833v60.399v206.465v335.693
		c0,23.654,19.169,42.833,42.833,42.833h335.683h473.329c23.654,0,42.833-19.179,42.833-42.833V966.14V828.493V622.028v-60.399
		C1275.837,537.975,1256.658,518.795,1233.004,518.795z"/>
	<path style="fill:#E8E8FF;" d="M828.493,543.771c-13.794,0-24.976-11.182-24.976-24.976V381.159
		c0-13.794,11.182-24.976,24.976-24.976s24.976,11.182,24.976,24.976v137.636C853.469,532.589,842.287,543.771,828.493,543.771z"/>
	<path style="fill:#91DE97;" d="M1792,966.14v688.213h-688.213L966.14,1792v-137.647H759.675v-447.334h473.329
		c23.654,0,42.833-19.179,42.833-42.833V966.14H1792z"/>
	<rect x="587.624" y="966.14" style="fill:#4B5A99;" width="481.748" height="137.647"/>
	<polygon style="fill:#4B5A99;" points="1138.191,518.795 1138.191,862.907 518.795,862.907 518.795,518.795 828.493,518.795 	"/>
	<path style="fill:#FDC424;" d="M828.493,256c38.015,0,68.829,30.814,68.829,68.818c0,38.015-30.814,68.829-68.829,68.829
		c-38.005,0-68.818-30.814-68.818-68.829C759.675,286.814,790.488,256,828.493,256z"/>
	<path style="fill:#71C877;" d="M1654.354,1404.046H897.322c-13.794,0-24.976-11.182-24.976-24.976s11.182-24.976,24.976-24.976
		h757.032c13.794,0,24.976,11.182,24.976,24.976S1668.147,1404.046,1654.354,1404.046z"/>
	<path style="fill:#71C877;" d="M1654.354,1541.692H897.322c-13.794,0-24.976-11.182-24.976-24.976s11.182-24.976,24.976-24.976
		h757.032c13.794,0,24.976,11.182,24.976,24.976S1668.147,1541.692,1654.354,1541.692z"/>
	<path style="fill:#71C877;" d="M1654.354,1128.762h-240.87c-13.794,0-24.976-11.182-24.976-24.976s11.182-24.976,24.976-24.976
		h240.87c13.794,0,24.976,11.182,24.976,24.976S1668.147,1128.762,1654.354,1128.762z"/>
	<path style="fill:#71C877;" d="M1654.354,1266.398h-240.87c-13.794,0-24.976-11.182-24.976-24.976s11.182-24.976,24.976-24.976
		h240.87c13.794,0,24.976,11.182,24.976,24.976S1668.147,1266.398,1654.354,1266.398z"/>
	<path style="fill:#F06561;" d="M1725.882,649.847c-11.479-7.654-26.984-4.552-34.636,6.925l-7.65,11.474V483.705
		c0-13.794-11.182-24.976-24.976-24.976h-213.625c-13.794,0-24.976,11.182-24.976,24.976s11.182,24.976,24.976,24.976h188.649
		v159.565l-7.65-11.474c-7.652-11.477-23.159-14.58-34.636-6.925c-11.477,7.652-14.576,23.159-6.925,34.635
		c57.947,86.776,54.772,83.61,61.09,87.51c11.368,7.016,26.395,3.813,33.877-7.411l53.406-80.099
		C1740.458,673.005,1737.359,657.498,1725.882,649.847z"/>
	<path style="fill:#F06561;" d="M664.426,1537.552c-3.98-5.729-2.337-3.65-86.758-59.932c-11.477-7.652-26.984-4.552-34.635,6.927
		c-7.651,11.477-4.55,26.983,6.927,34.634l11.475,7.65H401.868v-188.639c0-13.794-11.182-24.976-24.976-24.976
		s-24.976,11.182-24.976,24.976v213.615c0,13.794,11.182,24.976,24.976,24.976h184.541l-11.473,7.648
		c-11.477,7.651-14.579,23.159-6.927,34.635c4.813,7.22,12.733,11.125,20.804,11.125c4.76-0.001,9.573-1.359,13.831-4.197
		c84.018-56.012,81.2-53.846,83.806-56.422C670.105,1561.049,671.361,1547.505,664.426,1537.552z"/>
	<path style="fill:#3A4875;" d="M966.14,622.028c38.005,0,68.818,30.814,68.818,68.829c0,38.005-30.814,68.818-68.818,68.818
		c-38.005,0-68.818-30.814-68.818-68.818C897.322,652.842,928.135,622.028,966.14,622.028z"/>
	<path style="fill:#3A4875;" d="M690.857,622.028c38.005,0,68.818,30.814,68.818,68.829c0,38.005-30.814,68.818-68.818,68.818
		c-38.015,0-68.829-30.814-68.829-68.818C622.028,652.842,652.842,622.028,690.857,622.028z"/>
</g>
</svg>
