<?xml version="1.0" encoding="iso-8859-1"?>
<!-- Generator: Adobe Illustrator 25.2.0, SVG Export Plug-In . SVG Version: 6.00 Build 0)  -->
<svg version="1.1" id="Layer_1" xmlns="http://www.w3.org/2000/svg" xmlns:xlink="http://www.w3.org/1999/xlink" x="0px" y="0px"
	 viewBox="0 0 2048 2048" style="enable-background:new 0 0 2048 2048;" xml:space="preserve">
<g>
	<rect x="426.667" y="1009.737" style="fill:#D8D8FF;" width="1024" height="745.691"/>
	<polygon style="fill:#E8E8FF;" points="1353.143,1657.905 1353.143,1389.714 1353.143,292.571 329.143,292.571 329.143,1657.905 	
		"/>
	<rect x="451.048" y="414.476" style="fill:#D8D8FF;" width="658.286" height="97.524"/>
	<path style="fill:#69BEF9;" d="M583.558,1362.489c10.179,10.179,12.282,25.915,5.14,38.41l-108.577,237.43l-51.718-51.718
		l-68.033,68.023l-35.413,35.413L256,1621.089l103.436-103.436l-51.718-51.718l45.806-20.947l191.624-87.639
		C557.653,1350.207,573.379,1352.31,583.558,1362.489z"/>
	<path style="fill:#D8D8FF;" d="M963.048,633.905h-512c-13.465,0-24.381-10.916-24.381-24.381s10.916-24.381,24.381-24.381h512
		c13.465,0,24.381,10.916,24.381,24.381S976.513,633.905,963.048,633.905z"/>
	<path style="fill:#D8D8FF;" d="M743.619,731.429H451.048c-13.465,0-24.381-10.916-24.381-24.381s10.916-24.381,24.381-24.381
		h292.571c13.465,0,24.381,10.916,24.381,24.381S757.084,731.429,743.619,731.429z"/>
	<path style="fill:#D8D8FF;" d="M743.619,828.952H451.048c-13.465,0-24.381-10.916-24.381-24.381s10.916-24.381,24.381-24.381
		h292.571c13.465,0,24.381,10.916,24.381,24.381S757.084,828.952,743.619,828.952z"/>
	<path style="fill:#D8D8FF;" d="M743.619,926.476H451.048c-13.465,0-24.381-10.916-24.381-24.381s10.916-24.381,24.381-24.381
		h292.571c13.465,0,24.381,10.916,24.381,24.381S757.084,926.476,743.619,926.476z"/>
	<path style="fill:#D8D8FF;" d="M743.619,1024H451.048c-13.465,0-24.381-10.916-24.381-24.381c0-13.465,10.916-24.381,24.381-24.381
		h292.571c13.465,0,24.381,10.916,24.381,24.381C768,1013.084,757.084,1024,743.619,1024z"/>
	<path style="fill:#D8D8FF;" d="M963.048,1121.524h-512c-13.465,0-24.381-10.916-24.381-24.381
		c0-13.465,10.916-24.381,24.381-24.381h512c13.465,0,24.381,10.916,24.381,24.381
		C987.429,1110.608,976.513,1121.524,963.048,1121.524z"/>
	<path style="fill:#D8D8FF;" d="M1084.952,1219.048H451.048c-13.465,0-24.381-10.916-24.381-24.381
		c0-13.465,10.916-24.381,24.381-24.381h633.905c13.465,0,24.381,10.916,24.381,24.381
		C1109.333,1208.132,1098.418,1219.048,1084.952,1219.048z"/>
	<path style="fill:#D8D8FF;" d="M1130.667,1316.571h-435.81c-13.465,0-24.381-10.916-24.381-24.381
		c0-13.465,10.916-24.381,24.381-24.381h435.81c13.465,0,24.381,10.916,24.381,24.381
		C1155.048,1305.656,1144.132,1316.571,1130.667,1316.571z"/>
	<path style="fill:#D8D8FF;" d="M1231.238,1414.095H694.857c-13.465,0-24.381-10.916-24.381-24.381
		c0-13.465,10.916-24.381,24.381-24.381h536.381c13.465,0,24.381,10.916,24.381,24.381
		C1255.619,1403.18,1244.703,1414.095,1231.238,1414.095z"/>
	<path style="fill:#D8D8FF;" d="M1231.238,1511.619H694.857c-13.465,0-24.381-10.916-24.381-24.381
		c0-13.465,10.916-24.381,24.381-24.381h536.381c13.465,0,24.381,10.916,24.381,24.381
		C1255.619,1500.703,1244.703,1511.619,1231.238,1511.619z"/>
	<path style="fill:#3A4875;" d="M1206.857,1316.571c-13.465,0-24.381-10.916-24.381-24.381v-195.048
		c0-13.465,10.916-24.381,24.381-24.381c13.465,0,24.381,10.916,24.381,24.381v195.048
		C1231.238,1305.656,1220.322,1316.571,1206.857,1316.571z"/>
	<path style="fill:#3A4875;" d="M1328.762,1316.571c-13.465,0-24.381-10.916-24.381-24.381v-195.048
		c0-13.465,10.916-24.381,24.381-24.381c13.465,0,24.381,10.916,24.381,24.381v195.048
		C1353.143,1305.656,1342.227,1316.571,1328.762,1316.571z"/>
	<path style="fill:#3A4875;" d="M1450.667,1316.571c-13.465,0-24.381-10.916-24.381-24.381v-195.048
		c0-13.465,10.916-24.381,24.381-24.381c13.465,0,24.381,10.916,24.381,24.381v195.048
		C1475.048,1305.656,1464.132,1316.571,1450.667,1316.571z"/>
	<path style="fill:#3A4875;" d="M1206.857,633.905c-13.465,0-24.381-10.916-24.381-24.381V414.476
		c0-13.465,10.916-24.381,24.381-24.381c13.465,0,24.381,10.916,24.381,24.381v195.048
		C1231.238,622.989,1220.322,633.905,1206.857,633.905z"/>
	<path style="fill:#3A4875;" d="M1328.762,633.905c-13.465,0-24.381-10.916-24.381-24.381V414.476
		c0-13.465,10.916-24.381,24.381-24.381c13.465,0,24.381,10.916,24.381,24.381v195.048
		C1353.143,622.989,1342.227,633.905,1328.762,633.905z"/>
	<path style="fill:#3A4875;" d="M1450.667,633.905c-13.465,0-24.381-10.916-24.381-24.381V414.476
		c0-13.465,10.916-24.381,24.381-24.381c13.465,0,24.381,10.916,24.381,24.381v195.048
		C1475.048,622.989,1464.132,633.905,1450.667,633.905z"/>
	<path style="fill:#3A4875;" d="M1084.952,755.81H889.905c-13.465,0-24.381-10.916-24.381-24.381s10.916-24.381,24.381-24.381
		h195.048c13.465,0,24.381,10.916,24.381,24.381S1098.418,755.81,1084.952,755.81z"/>
	<path style="fill:#3A4875;" d="M1084.952,877.714H889.905c-13.465,0-24.381-10.916-24.381-24.381s10.916-24.381,24.381-24.381
		h195.048c13.465,0,24.381,10.916,24.381,24.381S1098.418,877.714,1084.952,877.714z"/>
	<path style="fill:#3A4875;" d="M1084.952,999.619H889.905c-13.465,0-24.381-10.916-24.381-24.381s10.916-24.381,24.381-24.381
		h195.048c13.465,0,24.381,10.916,24.381,24.381S1098.418,999.619,1084.952,999.619z"/>
	<path style="fill:#3A4875;" d="M1767.619,755.81h-195.048c-13.465,0-24.381-10.916-24.381-24.381s10.916-24.381,24.381-24.381
		h195.048c13.465,0,24.381,10.916,24.381,24.381S1781.084,755.81,1767.619,755.81z"/>
	<path style="fill:#3A4875;" d="M1767.619,877.714h-195.048c-13.465,0-24.381-10.916-24.381-24.381s10.916-24.381,24.381-24.381
		h195.048c13.465,0,24.381,10.916,24.381,24.381S1781.084,877.714,1767.619,877.714z"/>
	<path style="fill:#3A4875;" d="M1767.619,999.619h-195.048c-13.465,0-24.381-10.916-24.381-24.381s10.916-24.381,24.381-24.381
		h195.048c13.465,0,24.381,10.916,24.381,24.381S1781.084,999.619,1767.619,999.619z"/>
	<polygon style="fill:#4B5A99;" points="1592.93,985.417 1592.93,1117.501 1460.846,1117.501 1328.762,1117.501 1196.678,1117.501 
		1064.594,1117.501 1064.594,985.417 1064.594,853.333 1064.594,721.25 1064.594,589.166 1196.678,589.166 1328.762,589.166 
		1460.846,589.166 1592.93,589.166 1592.93,721.25 1592.93,853.333 	"/>
	<g>
		<path style="fill:#3A4875;" d="M1473.311,967.111h-15.096V739.556h15.096c13.465,0,24.381-10.916,24.381-24.381
			s-10.916-24.381-24.381-24.381h-78.953c-13.465,0-24.381,10.916-24.381,24.381s10.916,24.381,24.381,24.381h15.095v227.556
			h-15.095c-13.465,0-24.381,10.916-24.381,24.381s10.916,24.381,24.381,24.381h78.953c13.465,0,24.381-10.916,24.381-24.381
			S1486.776,967.111,1473.311,967.111z"/>
		<path style="fill:#3A4875;" d="M1326.917,870.813c-0.062-0.679-0.155-1.349-0.272-2.01c-0.009-0.051-0.018-0.101-0.027-0.152
			c-0.127-0.694-0.283-1.378-0.468-2.05c-0.002-0.007-0.004-0.013-0.005-0.02c-0.209-0.757-0.452-1.499-0.73-2.224l-59.157-157.743
			c-3.568-9.516-12.666-15.82-22.828-15.82s-19.26,6.304-22.828,15.82l-59.157,157.743c-0.278,0.726-0.521,1.468-0.73,2.224
			c-0.002,0.007-0.004,0.013-0.005,0.02c-0.185,0.672-0.34,1.356-0.468,2.05c-0.009,0.051-0.018,0.101-0.027,0.152
			c-0.117,0.662-0.21,1.331-0.272,2.01c-0.007,0.071-0.01,0.142-0.016,0.213c-0.056,0.675-0.092,1.357-0.092,2.047v118.42
			c0,13.465,10.916,24.381,24.381,24.381c13.465,0,24.381-10.916,24.381-24.381v-94.039h69.669v94.039
			c0,13.465,10.916,24.381,24.381,24.381c13.465,0,24.381-10.916,24.381-24.381v-118.42c0-0.69-0.036-1.371-0.092-2.047
			C1326.927,870.954,1326.923,870.884,1326.917,870.813z M1243.429,784.608l24.033,64.083h-48.065L1243.429,784.608z"/>
	</g>
</g>
</svg>
