<?xml version="1.0" encoding="iso-8859-1"?>
<!-- Generator: Adobe Illustrator 25.2.0, SVG Export Plug-In . SVG Version: 6.00 Build 0)  -->
<svg version="1.1" id="Layer_1" xmlns="http://www.w3.org/2000/svg" xmlns:xlink="http://www.w3.org/1999/xlink" x="0px" y="0px"
	 viewBox="0 0 2048 2048" style="enable-background:new 0 0 2048 2048;" xml:space="preserve">
<g>
	<rect x="1312.916" y="1405.003" style="fill:#D8D8FF;" width="236.623" height="153.007"/>
	<path style="fill:#91DE97;" d="M1767.961,412.306v246.853c0,33.936-27.785,61.711-61.721,61.711h-178.961l-92.566,92.566
		l-92.576-92.566h-178.961c-33.946,0-61.711-27.775-61.711-61.711V412.306c0-33.936,27.765-61.711,61.711-61.711h543.063
		C1740.186,350.595,1767.961,378.36,1767.961,412.306z"/>
	<path style="fill:#F06561;" d="M928.666,412.306v246.853c0,33.936-27.785,61.711-61.711,61.711H687.984l-92.566,92.566
		l-92.566-92.566H323.882c-33.936,0-61.711-27.775-61.711-61.711V412.306c0-33.936,27.775-61.711,61.711-61.711h543.074
		C900.901,350.595,928.666,378.36,928.666,412.306z"/>
	<path style="fill:#E8E8FF;" d="M1756.628,1595.525v101.88h-633.163v-101.88c0-37.651,30.522-68.173,68.173-68.173h121.277h236.623
		h138.917C1726.106,1527.352,1756.628,1557.875,1756.628,1595.525z"/>
	<path style="fill:#D8D8FF;" d="M1792,1121.134v106.802c0,16.078-13.039,29.128-29.128,29.128h-69.182v-165.047h69.182
		C1778.961,1092.017,1792,1105.056,1792,1121.134z"/>
	<path style="fill:#D8D8FF;" d="M1168.952,1092.017v165.047h-69.37c-16.088,0-29.128-13.05-29.128-29.128v-106.802
		c0-16.078,13.039-29.117,29.128-29.117H1168.952z"/>
	<path style="fill:#E8E8FF;" d="M1589.26,908.883l-0.01,0.062h-316.046v-0.042c-65.748,7.794-116.74,63.74-116.74,131.58v51.533
		v165.047v47.037c0,72.658,58.901,131.559,131.559,131.559h24.892h236.623h25.09c31.105,0,59.692-10.802,82.211-28.857
		c9.793-7.836,17.618-17.847,22.998-29.169l18.284-38.525c5.162-10.875,8.034-22.738,8.055-34.779c0-0.073,0-0.146,0-0.229v-47.037
		v-165.047v-51.533C1706.178,972.581,1655.092,916.605,1589.26,908.883z"/>
	<path style="fill:#69BEF9;" d="M934.837,1697.405H256c0-176.599,151.966-328.554,339.419-328.554
		S934.837,1520.806,934.837,1697.405z"/>
	<path style="fill:#FFD3C5;" d="M780.55,1122.008v61.711c0,50.909-20.823,97.197-54.384,130.747
		c-33.551,33.561-79.839,54.384-130.747,54.384c-101.828,0-185.142-83.304-185.142-185.132v-61.711
		c0-101.828,83.314-185.142,185.142-185.142S780.55,1020.181,780.55,1122.008z"/>
	<path style="fill:#3CB6F6;" d="M416.156,1697.405v-77.268c0-13.799,11.187-24.976,24.976-24.976
		c13.789,0,24.976,11.177,24.976,24.976v77.268H416.156z"/>
	<path style="fill:#3CB6F6;" d="M774.671,1620.137v77.268h-49.951v-77.268c0-13.799,11.187-24.976,24.976-24.976
		C763.494,1595.161,774.671,1606.338,774.671,1620.137z"/>
	<path style="fill:#ED4A46;" d="M641.717,622.423H410.276c-13.794,0-24.976-11.182-24.976-24.976
		c0-13.794,11.182-24.976,24.976-24.976h231.441c13.794,0,24.976,11.182,24.976,24.976
		C666.693,611.241,655.511,622.423,641.717,622.423z"/>
	<path style="fill:#ED4A46;" d="M780.55,498.992H410.276c-13.794,0-24.976-11.182-24.976-24.976s11.182-24.976,24.976-24.976H780.55
		c13.794,0,24.976,11.182,24.976,24.976S794.344,498.992,780.55,498.992z"/>
	<path style="fill:#D8D8FF;" d="M1464.777,1340.098h-67.101c-13.794,0-24.976-11.182-24.976-24.976s11.182-24.976,24.976-24.976
		h67.101c13.794,0,24.976,11.182,24.976,24.976S1478.571,1340.098,1464.777,1340.098z"/>
	<path style="fill:#D8D8FF;" d="M1322.895,1220.35c-36.495,0-66.185-29.69-66.185-66.185c0-13.794,11.182-24.976,24.976-24.976
		c13.794,0,24.976,11.182,24.976,24.976c0,8.951,7.282,16.234,16.234,16.234c8.952,0,16.235-7.282,16.235-16.234
		c0-13.794,11.182-24.976,24.976-24.976s24.976,11.182,24.976,24.976C1389.081,1190.66,1359.39,1220.35,1322.895,1220.35z"/>
	<path style="fill:#D8D8FF;" d="M1539.559,1220.35c-36.495,0-66.185-29.69-66.185-66.185c0-13.794,11.182-24.976,24.976-24.976
		s24.976,11.182,24.976,24.976c0,8.951,7.282,16.234,16.234,16.234c8.951,0,16.234-7.282,16.234-16.234
		c0-13.794,11.182-24.976,24.976-24.976s24.976,11.182,24.976,24.976C1605.744,1190.66,1576.054,1220.35,1539.559,1220.35z"/>
	<path style="fill:#71C877;" d="M1652.678,507.879h-425.074c-13.794,0-24.976-11.182-24.976-24.976s11.182-24.976,24.976-24.976
		h425.074c13.794,0,24.976,11.182,24.976,24.976S1666.472,507.879,1652.678,507.879z"/>
	<path style="fill:#71C877;" d="M1652.678,629.333h-425.074c-13.794,0-24.976-11.182-24.976-24.976s11.182-24.976,24.976-24.976
		h425.074c13.794,0,24.976,11.182,24.976,24.976S1666.472,629.333,1652.678,629.333z"/>
	<path style="fill:#D8D8FF;" d="M1589.26,908.883l-0.01,0.062c-2.123,37.588-33.27,102.546-71.399,102.546h-173.247
		c-38.13,0-69.276-64.957-71.399-102.546v-0.042c5.172-0.614,10.427-0.926,15.766-0.926h135.836h13.029h135.836
		C1578.948,907.978,1584.151,908.29,1589.26,908.883z"/>
</g>
</svg>
