<?xml version="1.0" encoding="iso-8859-1"?>
<!-- Generator: Adobe Illustrator 25.2.0, SVG Export Plug-In . SVG Version: 6.00 Build 0)  -->
<svg version="1.1" id="Layer_1" xmlns="http://www.w3.org/2000/svg" xmlns:xlink="http://www.w3.org/1999/xlink" x="0px" y="0px"
	 viewBox="0 0 2048 2048" style="enable-background:new 0 0 2048 2048;" xml:space="preserve">
<g>
	<path style="fill:#F06561;" d="M936,1578.395v81.714H510.895c-46.41,0-84.387-37.977-84.387-84.387v-409.517
		c7.123,3.52,14.421,6.772,21.853,9.724h0.021c19.881,7.897,40.805,13.729,62.514,17.218v0.01L936,1578.395z"/>
	<path style="fill:#F06561;" d="M1732.067,967.742v607.979c0,46.41-37.977,84.387-84.387,84.387h-558.751h-0.01v-81.714h0.01
		l558.751-695.04C1694.09,883.355,1732.067,921.332,1732.067,967.742z"/>
	<rect x="1219.933" y="1242.168" style="fill:#91DE97;" width="292.088" height="94.194"/>
	<path style="fill:#E8E8FF;" d="M1088.929,791.04H838.297l-327.401,402.106v0.01v366.132c0,10.519,8.671,19.107,19.272,19.107H936
		h152.919h0.01l106.229-446.999L1088.929,791.04z"/>
	<path style="fill:#D8D8FF;" d="M1628.408,791.04h-539.479v787.355h539.479c10.601,0,19.272-8.588,19.272-19.107V883.355v-73.198
		C1647.68,799.639,1639.009,791.04,1628.408,791.04z"/>
	<path style="fill:#FDC424;" d="M936,1660.109v-81.714h152.919v81.714v127.133c0,5.099-2.921,6.286-6.493,2.653l-63.474-64.671
		c-3.572-3.634-9.414-3.634-12.986,0l-63.474,64.671c-3.572,3.634-6.493,2.446-6.493-2.653V1660.109z"/>
	<path style="fill:#D8D8FF;" d="M945.951,1172.759h-51.469c-13.682,0-24.774-11.092-24.774-24.774
		c0-13.682,11.092-24.774,24.774-24.774h51.469c13.682,0,24.774,11.092,24.774,24.774
		C970.725,1161.667,959.634,1172.759,945.951,1172.759z"/>
	<path style="fill:#D8D8FF;" d="M945.951,1266.942H786.106c-13.682,0-24.774-11.092-24.774-24.774
		c0-13.682,11.092-24.774,24.774-24.774h159.845c13.682,0,24.774,11.092,24.774,24.774
		C970.725,1255.85,959.634,1266.942,945.951,1266.942z"/>
	<path style="fill:#D8D8FF;" d="M945.951,1361.135H653.863c-13.682,0-24.774-11.092-24.774-24.774s11.092-24.774,24.774-24.774
		h292.088c13.682,0,24.774,11.092,24.774,24.774S959.634,1361.135,945.951,1361.135z"/>
	<path style="fill:#D8D8FF;" d="M945.951,1455.319H653.863c-13.682,0-24.774-11.092-24.774-24.774
		c0-13.682,11.092-24.774,24.774-24.774h292.088c13.682,0,24.774,11.092,24.774,24.774
		C970.725,1444.227,959.634,1455.319,945.951,1455.319z"/>
	<path style="fill:#C9C9F2;" d="M1512.02,1455.319h-292.088c-13.682,0-24.774-11.092-24.774-24.774
		c0-13.682,11.092-24.774,24.774-24.774h292.088c13.682,0,24.774,11.092,24.774,24.774
		C1536.794,1444.227,1525.703,1455.319,1512.02,1455.319z"/>
	<path style="fill:#69BEF9;" d="M838.297,791.04c12.676,33.166,19.623,69.172,19.623,106.787
		c0,92.243-41.755,174.751-107.396,229.605c-51.933,43.406-118.782,69.533-191.732,69.533c-16.299,0-32.299-1.311-47.897-3.819
		c-21.708-3.489-42.632-9.321-62.514-17.218h-0.021c-7.432-2.952-14.73-6.204-21.853-9.724
		c-98.859-48.816-166.854-150.648-166.854-268.377c0-165.203,133.925-299.128,299.138-299.128
		C686.369,598.699,795.303,678.576,838.297,791.04z"/>
	<g>
		<path style="fill:#3CB6F6;" d="M670.71,994.137h-9.827V801.528h9.827c13.682,0,24.774-11.092,24.774-24.774
			c0-13.682-11.092-24.774-24.774-24.774h-69.192c-13.682,0-24.774,11.092-24.774,24.774c0,13.682,11.092,24.774,24.774,24.774
			h9.817v192.609h-9.817c-13.682,0-24.774,11.092-24.774,24.774s11.092,24.774,24.774,24.774h69.192
			c13.682,0,24.774-11.092,24.774-24.774S684.392,994.137,670.71,994.137z"/>
		<path style="fill:#3CB6F6;" d="M559.033,912.832c-0.063-0.69-0.158-1.37-0.277-2.043c-0.009-0.051-0.018-0.103-0.028-0.154
			c-0.129-0.705-0.287-1.4-0.475-2.083c-0.002-0.007-0.004-0.013-0.006-0.02c-0.212-0.769-0.459-1.523-0.742-2.26l-51.833-138.217
			c-3.626-9.669-12.869-16.075-23.197-16.075s-19.571,6.406-23.197,16.075l-51.833,138.217c-0.282,0.737-0.53,1.491-0.742,2.26
			c-0.002,0.007-0.004,0.013-0.006,0.02c-0.188,0.683-0.346,1.378-0.475,2.083c-0.009,0.051-0.018,0.103-0.028,0.154
			c-0.119,0.672-0.213,1.353-0.277,2.043c-0.007,0.072-0.01,0.144-0.016,0.216c-0.057,0.686-0.093,1.379-0.093,2.08v103.784
			c0,13.682,11.092,24.774,24.774,24.774c13.682,0,24.774-11.092,24.774-24.774v-79.01h54.235v79.01
			c0,13.682,11.092,24.774,24.774,24.774c13.682,0,24.774-11.092,24.774-24.774V915.128c0-0.701-0.036-1.393-0.093-2.08
			C559.044,912.976,559.04,912.904,559.033,912.832z M498.619,890.353h-32.284l16.142-43.044L498.619,890.353z"/>
	</g>
	<path style="fill:#FDC424;" d="M1365.977,418.777c-132.501,0-240.289,104.919-240.289,233.889
		c0,50.581,16.847,98.88,46.627,138.374c20.119,26.705,46.142,49.394,76.872,66.065c2.591,1.404,4.366,3.954,4.769,6.823h224.052
		c0.392-2.87,2.168-5.419,4.769-6.823c30.73-16.671,56.754-39.36,76.872-66.065c29.77-39.494,46.617-87.794,46.617-138.374
		C1606.266,523.695,1498.478,418.777,1365.977,418.777z"/>
	<path style="fill:#FDC424;" d="M1665.158,526.507c-8.581,0-16.921-4.461-21.503-12.435c-6.818-11.863-2.727-27.007,9.136-33.824
		l44.532-25.59c11.865-6.819,27.007-2.726,33.824,9.137c6.818,11.863,2.727,27.007-9.136,33.824l-44.532,25.59
		C1673.589,525.445,1669.344,526.507,1665.158,526.507z"/>
	<path style="fill:#FDC424;" d="M1538.031,401.728c-4.22,0-8.493-1.078-12.405-3.347c-11.837-6.864-15.867-22.024-9.003-33.859
		l25.61-44.16c6.865-11.836,22.024-15.868,33.86-9.003c11.837,6.864,15.867,22.024,9.003,33.859l-25.61,44.16
		C1554.89,397.302,1546.576,401.728,1538.031,401.728z"/>
	<path style="fill:#FDC424;" d="M1191.982,402.843c-8.489,0-16.756-4.366-21.374-12.212l-25.899-44.005
		c-6.941-11.792-3.007-26.977,8.785-33.917c11.789-6.94,26.976-3.009,33.916,8.785l25.899,44.005
		c6.94,11.792,3.007,26.977-8.785,33.917C1200.579,401.738,1196.252,402.843,1191.982,402.843z"/>
	<path style="fill:#FDC424;" d="M1065.669,528.438c-4.135,0-8.327-1.037-12.182-3.22l-44.687-25.3
		c-11.907-6.741-16.094-21.858-9.353-33.765c6.74-11.906,21.856-16.097,33.764-9.352l44.687,25.3
		c11.907,6.741,16.094,21.858,9.353,33.765C1082.694,523.916,1074.304,528.438,1065.669,528.438z"/>
	<path style="fill:#FDC424;" d="M1763.572,698.477h-51.51c-13.682,0-24.774-11.092-24.774-24.774
		c0-13.682,11.092-24.774,24.774-24.774h51.51c13.682,0,24.774,11.092,24.774,24.774
		C1788.346,687.386,1777.254,698.477,1763.572,698.477z"/>
	<path style="fill:#FDC424;" d="M1019.902,698.477h-51.52c-13.682,0-24.774-11.092-24.774-24.774
		c0-13.682,11.092-24.774,24.774-24.774h51.52c13.682,0,24.774,11.092,24.774,24.774
		C1044.676,687.386,1033.585,698.477,1019.902,698.477z"/>
	<path style="fill:#FDC424;" d="M1364.976,356.47c-13.682,0-24.774-11.092-24.774-24.774v-50.921
		c0-13.682,11.092-24.774,24.774-24.774c13.682,0,24.774,11.092,24.774,24.774v50.921
		C1389.75,345.378,1378.658,356.47,1364.976,356.47z"/>
	<path style="fill:#E8E8FF;" d="M1390.751,712.557v151.37h-49.548v-151.37c0-1.28,0.093-2.539,0.289-3.768
		c1.806-11.892,12.088-21.007,24.485-21.007s22.679,9.115,24.485,21.007C1390.658,710.018,1390.751,711.278,1390.751,712.557z"/>
	<path style="fill:#F9AC00;" d="M1365.977,577.724c44.439,0,80.465,35.726,80.465,79.804c0,44.067-36.026,79.804-80.465,79.804
		s-80.454-35.737-80.454-79.804C1285.523,613.45,1321.538,577.724,1365.977,577.724z"/>
	<path style="fill:#E8E8FF;" d="M1412.49,1032.622v80.236c0,4.755-6.958,8.66-15.453,8.66h-62.121
		c-8.506,0-15.453-3.905-15.453-8.66v-80.236c0-4.51,6.245-8.248,14.132-8.622h64.764
		C1406.245,1024.374,1412.49,1028.111,1412.49,1032.622z"/>
	<path style="fill:#3A4875;" d="M1445.419,949.458v84.798c0,5.025-6.957,9.15-15.453,9.15h-31.608
		c-0.433-0.026-0.877-0.04-1.321-0.04h-62.121c-0.444,0-0.888,0.013-1.321,0.04h-31.598c-8.506,0-15.453-4.125-15.453-9.15v-84.798
		c0-4.641,5.905-8.502,13.492-9.071h131.892C1439.505,940.956,1445.419,944.817,1445.419,949.458z"/>
	<path style="fill:#4B5A99;" d="M1478.008,863.928l-12.49,91.076c-0.619,4.573-4.635,7.979-9.373,7.979h-24.217
		c-0.64-0.041-1.301-0.062-1.961-0.062h-127.969c-0.661,0-1.321,0.021-1.961,0.062h-24.227c-4.748,0-8.743-3.406-9.373-7.979
		l-12.48-91.076h112.021H1478.008z"/>
</g>
</svg>
