<?xml version="1.0" encoding="iso-8859-1"?>
<!-- Generator: Adobe Illustrator 25.2.0, SVG Export Plug-In . SVG Version: 6.00 Build 0)  -->
<svg version="1.1" id="Layer_1" xmlns="http://www.w3.org/2000/svg" xmlns:xlink="http://www.w3.org/1999/xlink" x="0px" y="0px"
	 viewBox="0 0 2048 2048" style="enable-background:new 0 0 2048 2048;" xml:space="preserve">
<g>
	<path style="fill:#FDC424;" d="M879.143,627.613H415.546c-33.383,0-60.449,27.066-60.449,60.449v473.683
		c0,33.383,27.066,60.449,60.449,60.449h88.196v173.419l173.419-173.419h173.419L1197.419,1024V900.129L879.143,627.613z"/>
	<path style="fill:#4B5A99;" d="M1197.419,256c-177.868,0-322.064,144.196-322.064,322.065c0,16.846,1.29,33.394,3.788,49.548
		c11.819,76.573,50.622,144.237,106.374,192.991l425.579-1.559c66.488-59.004,108.387-145.094,108.387-240.981
		C1519.484,400.196,1375.288,256,1197.419,256z"/>
	<g>
		<path style="fill:#69BEF9;" d="M1692.903,1084.449v473.683c0,33.383-27.066,60.449-60.449,60.449h-88.196V1792l-173.419-173.419
			H911.03c-33.383,0-60.449-27.066-60.449-60.449v-335.938v-137.745c0-33.383,27.066-60.449,60.449-60.449h286.39h435.035
			C1665.837,1024,1692.903,1051.066,1692.903,1084.449z"/>
	</g>
	<g>
		<path style="fill:#F9AC00;" d="M776.258,751.484H454.194c-13.682,0-24.774-11.092-24.774-24.774
			c0-13.682,11.092-24.774,24.774-24.774h322.065c13.682,0,24.774,11.092,24.774,24.774
			C801.032,740.392,789.941,751.484,776.258,751.484z"/>
	</g>
	<g>
		<path style="fill:#F9AC00;" d="M825.806,850.581H454.194c-13.682,0-24.774-11.092-24.774-24.774
			c0-13.682,11.092-24.774,24.774-24.774h371.613c13.682,0,24.774,11.092,24.774,24.774
			C850.581,839.489,839.489,850.581,825.806,850.581z"/>
	</g>
	<g>
		<path style="fill:#F9AC00;" d="M999.226,949.677H454.194c-13.682,0-24.774-11.092-24.774-24.774
			c0-13.682,11.092-24.774,24.774-24.774h545.032c13.682,0,24.774,11.092,24.774,24.774
			C1024,938.586,1012.908,949.677,999.226,949.677z"/>
	</g>
	<g>
		<path style="fill:#F9AC00;" d="M726.71,1048.774H454.194c-13.682,0-24.774-11.092-24.774-24.774
			c0-13.682,11.092-24.774,24.774-24.774H726.71c13.682,0,24.774,11.092,24.774,24.774
			C751.484,1037.682,740.392,1048.774,726.71,1048.774z"/>
	</g>
	<g>
		<path style="fill:#F9AC00;" d="M726.71,1147.871H454.194c-13.682,0-24.774-11.092-24.774-24.774
			c0-13.682,11.092-24.774,24.774-24.774H726.71c13.682,0,24.774,11.092,24.774,24.774
			C751.484,1136.779,740.392,1147.871,726.71,1147.871z"/>
	</g>
	<g>
		<path style="fill:#3CB6F6;" d="M1593.806,1147.871H949.677c-13.682,0-24.774-11.092-24.774-24.774
			c0-13.682,11.092-24.774,24.774-24.774h644.129c13.682,0,24.774,11.092,24.774,24.774
			C1618.581,1136.779,1607.489,1147.871,1593.806,1147.871z"/>
	</g>
	<g>
		<path style="fill:#3CB6F6;" d="M1593.806,1246.968H949.677c-13.682,0-24.774-11.092-24.774-24.774
			c0-13.682,11.092-24.774,24.774-24.774h644.129c13.682,0,24.774,11.092,24.774,24.774
			C1618.581,1235.876,1607.489,1246.968,1593.806,1246.968z"/>
	</g>
	<g>
		<path style="fill:#3CB6F6;" d="M1593.806,1346.065H949.677c-13.682,0-24.774-11.092-24.774-24.774
			c0-13.682,11.092-24.774,24.774-24.774h644.129c13.682,0,24.774,11.092,24.774,24.774
			C1618.581,1334.973,1607.489,1346.065,1593.806,1346.065z"/>
	</g>
	<g>
		<path style="fill:#3CB6F6;" d="M1593.806,1445.161H949.677c-13.682,0-24.774-11.092-24.774-24.774s11.092-24.774,24.774-24.774
			h644.129c13.682,0,24.774,11.092,24.774,24.774S1607.489,1445.161,1593.806,1445.161z"/>
	</g>
	<g>
		<path style="fill:#3CB6F6;" d="M1593.806,1544.258H949.677c-13.682,0-24.774-11.092-24.774-24.774s11.092-24.774,24.774-24.774
			h644.129c13.682,0,24.774,11.092,24.774,24.774S1607.489,1544.258,1593.806,1544.258z"/>
	</g>
	<g>
		<path style="fill:#D8D8FF;" d="M1386.323,709.368c-13.682,0-24.774-11.092-24.774-24.774V516.294
			c0-13.682,11.092-24.774,24.774-24.774c13.682,0,24.774,11.092,24.774,24.774v168.299
			C1411.097,698.276,1400.005,709.368,1386.323,709.368z"/>
	</g>
	<g>
		<path style="fill:#D8D8FF;" d="M1010.292,709.368c-13.682,0-24.774-11.092-24.774-24.774V516.294
			c0-13.682,11.092-24.774,24.774-24.774c13.682,0,24.774,11.092,24.774,24.774v168.299
			C1035.066,698.276,1023.974,709.368,1010.292,709.368z"/>
	</g>
	<path style="fill:#E8E8FF;" d="M1411.097,703.288v115.757c-56.857,50.446-131.685,81.084-213.677,81.084
		c-81.146,0-155.272-29.997-211.902-79.525V703.288c0-103.277,83.716-186.994,186.994-186.994h51.592
		C1327.381,516.294,1411.097,600.01,1411.097,703.288z"/>
	<g>
		<ellipse style="fill:#D8D8FF;" cx="1198.307" cy="709.739" rx="135.412" ry="116.067"/>
	</g>
	<g>
		<path style="fill:#C9C9F2;" d="M1140.273,715.169c-13.682,0-24.774-11.092-24.774-24.774V671.05
			c0-13.682,11.092-24.774,24.774-24.774s24.774,11.092,24.774,24.774v19.344C1165.047,704.077,1153.956,715.169,1140.273,715.169z"
			/>
	</g>
	<g>
		<path style="fill:#C9C9F2;" d="M1256.341,715.169c-13.682,0-24.774-11.092-24.774-24.774V671.05
			c0-13.682,11.092-24.774,24.774-24.774c13.682,0,24.774,11.092,24.774,24.774v19.344
			C1281.115,704.077,1270.023,715.169,1256.341,715.169z"/>
	</g>
	<g>
		<path style="fill:#C9C9F2;" d="M1198.303,773.203c-16.955,0-32.891-6.604-44.875-18.596c-9.671-9.678-9.666-25.364,0.012-35.036
			c9.679-9.671,25.367-9.664,35.036,0.012c2.624,2.626,6.114,4.072,9.827,4.072c3.716,0,7.211-1.448,9.841-4.078
			c9.676-9.673,25.362-9.675,35.036,0c9.675,9.675,9.674,25.361,0,35.036C1231.192,766.601,1215.254,773.203,1198.303,773.203z"/>
	</g>
</g>
</svg>
