<?xml version="1.0" encoding="iso-8859-1"?>
<!-- Generator: Adobe Illustrator 25.2.0, SVG Export Plug-In . SVG Version: 6.00 Build 0)  -->
<svg version="1.1" id="Layer_1" xmlns="http://www.w3.org/2000/svg" xmlns:xlink="http://www.w3.org/1999/xlink" x="0px" y="0px"
	 viewBox="0 0 2048 2048" style="enable-background:new 0 0 2048 2048;" xml:space="preserve">
<g>
	<rect x="906.034" y="1391.154" style="fill:#D8D8FF;" width="235.933" height="120.227"/>
	<path style="fill:#E8E8FF;" d="M1348.47,1564.965V1792H717.12v-227.035c0-37.543,30.431-67.985,67.984-67.985h120.929h235.933
		h138.529C1318.039,1496.981,1348.47,1527.422,1348.47,1564.965z"/>
	<path style="fill:#D8D8FF;" d="M1181.584,880.279l-0.01,0.062c-2.126,37.481-33.177,102.255-71.195,102.255H937.621
		c-38.018,0-69.079-64.774-71.195-102.255v-0.031c5.161-0.619,10.405-0.929,15.721-0.929h135.443h13.006h135.443
		C1171.293,879.381,1176.485,879.69,1181.584,880.279z"/>
	<path style="fill:#D8D8FF;" d="M1383.804,1091.923v106.498c0,16.031-12.996,29.037-29.037,29.037h-68.986v-164.573h68.986
		C1370.808,1062.885,1383.804,1075.892,1383.804,1091.923z"/>
	<path style="fill:#D8D8FF;" d="M762.405,1062.885v164.573h-69.172c-16.041,0-29.037-13.006-29.037-29.037v-106.498
		c0-16.031,12.996-29.037,29.037-29.037H762.405z"/>
	<path style="fill:#E8E8FF;" d="M1181.584,880.279l-0.01,0.062H866.426v-0.031c-65.559,7.773-116.408,63.535-116.408,131.19v51.386
		v164.573v46.916c0,72.444,58.735,131.179,131.19,131.179h24.826h235.933h25.022c31.019,0,59.53-10.767,81.982-28.779
		c9.755-7.814,17.569-17.796,22.927-29.089l18.24-38.41c5.141-10.849,8.01-22.679,8.031-34.684c0-0.072,0-0.145,0-0.217v-46.916
		v-164.573v-51.375C1298.168,943.794,1247.226,887.979,1181.584,880.279z"/>
	<path style="fill:#F06561;" d="M1788.552,349.615v312.341c0,51.706-41.91,93.615-93.615,93.615h-80.454l-65.879,65.889
		l-65.889-65.889h-80.444c-51.706,0-93.626-41.91-93.626-93.615V349.615c0-51.706,41.92-93.615,93.626-93.615h292.666
		C1746.643,256,1788.552,297.91,1788.552,349.615z"/>
	<path style="fill:#FDC424;" d="M739.355,799.267c0,51.706-41.92,93.615-93.626,93.615h-80.444l-65.879,65.889l-65.889-65.889
		h-80.454c-51.706,0-93.615-41.91-93.615-93.615V486.926c0-51.706,41.91-93.615,93.615-93.615h292.666
		c51.706,0,93.626,41.91,93.626,93.615V799.267z"/>
	<path style="fill:#F9AC00;" d="M568.248,508.376c-17.647-17.646-41.109-27.364-66.065-27.364c-51.518,0-93.43,41.912-93.43,93.43
		v205.956c0,13.682,11.092,24.774,24.774,24.774c13.682,0,24.774-11.092,24.774-24.774V667.871h87.763v112.526
		c0,13.682,11.092,24.774,24.774,24.774c13.682,0,24.774-11.092,24.774-24.774V574.442
		C595.613,549.485,585.895,526.023,568.248,508.376z M458.302,618.323v-43.881c0-24.197,19.685-43.882,43.882-43.882
		c11.721,0,22.741,4.565,31.029,12.852c8.288,8.288,12.852,19.307,12.852,31.029v43.881H458.302z"/>
	<path style="fill:#ED4A46;" d="M1671.086,628.266l-20.43-27.336c-44.881-60.04-71.591-132.967-76.458-207.67h77.043
		c13.682,0,24.774-11.092,24.774-24.774s-11.092-24.774-24.774-24.774h-205.285c-13.682,0-24.774,11.092-24.774,24.774
		s11.092,24.774,24.774,24.774h77.054c-4.867,74.707-31.58,147.633-76.471,207.672l-20.428,27.334
		c-8.19,10.96-5.946,26.485,5.014,34.675c4.45,3.326,9.652,4.931,14.812,4.931c7.546,0,14.999-3.435,19.864-9.945l20.425-27.33
		c26.672-35.674,47.629-74.995,62.377-116.972c14.746,41.975,35.7,81.296,62.365,116.968l20.428,27.334
		c4.866,6.51,12.318,9.945,19.864,9.945c5.158,0,10.362-1.606,14.811-4.931C1677.031,654.75,1679.276,639.226,1671.086,628.266z"/>
	<path style="fill:#D8D8FF;" d="M1057.446,1310.132h-66.901c-13.682,0-24.774-11.092-24.774-24.774
		c0-13.682,11.092-24.774,24.774-24.774h66.901c13.682,0,24.774,11.092,24.774,24.774
		C1082.22,1299.04,1071.128,1310.132,1057.446,1310.132z"/>
	<path style="fill:#D8D8FF;" d="M915.984,1190.72c-36.326,0-65.879-29.548-65.879-65.868c0-13.682,11.092-24.774,24.774-24.774
		c13.682,0,24.774,11.092,24.774,24.774c0,8.999,7.326,16.32,16.33,16.32c8.993,0,16.31-7.321,16.31-16.32
		c0-13.682,11.092-24.774,24.774-24.774c13.682,0,24.774,11.092,24.774,24.774C981.843,1161.171,952.299,1190.72,915.984,1190.72z"
		/>
	<path style="fill:#D8D8FF;" d="M1132.026,1190.72c-36.321,0-65.869-29.548-65.869-65.868c0-13.682,11.092-24.774,24.774-24.774
		c13.682,0,24.774,11.092,24.774,24.774c0,8.999,7.322,16.32,16.321,16.32c8.999,0,16.32-7.321,16.32-16.32
		c0-13.682,11.092-24.774,24.774-24.774c13.682,0,24.774,11.092,24.774,24.774C1197.894,1161.171,1168.346,1190.72,1132.026,1190.72
		z"/>
	<polygon style="fill:#69BEF9;" points="1339.85,505.786 1308.645,536.991 1204.996,640.65 1204.996,574.441 1067.685,574.441 
		980.315,574.441 980.315,437.13 1204.996,437.13 1204.996,370.932 1308.645,474.581 	"/>
	<polygon style="fill:#3CB6F6;" points="1067.685,574.441 1067.685,711.752 843.004,711.752 843.004,777.951 739.355,674.302 
		708.15,643.097 739.355,611.892 843.004,508.232 843.004,574.441 980.315,574.441 	"/>
</g>
</svg>
