<?xml version="1.0" encoding="iso-8859-1"?>
<!-- Generator: Adobe Illustrator 25.2.0, SVG Export Plug-In . SVG Version: 6.00 Build 0)  -->
<svg version="1.1" id="Layer_1" xmlns="http://www.w3.org/2000/svg" xmlns:xlink="http://www.w3.org/1999/xlink" x="0px" y="0px"
	 viewBox="0 0 2048 2048" style="enable-background:new 0 0 2048 2048;" xml:space="preserve">
<g>
	<path style="fill:#91DE97;" d="M879.143,627.613H415.546c-33.383,0-60.449,27.066-60.449,60.449v473.683
		c0,33.383,27.066,60.449,60.449,60.449h88.196v173.419l173.419-173.419h173.419L1197.419,1024V900.129L879.143,627.613z"/>
	<path style="fill:#71C877;" d="M776.258,751.484H454.194c-13.682,0-24.774-11.092-24.774-24.774
		c0-13.682,11.092-24.774,24.774-24.774h322.065c13.682,0,24.774,11.092,24.774,24.774
		C801.032,740.392,789.941,751.484,776.258,751.484z"/>
	<path style="fill:#71C877;" d="M825.806,850.581H454.194c-13.682,0-24.774-11.092-24.774-24.774
		c0-13.682,11.092-24.774,24.774-24.774h371.613c13.682,0,24.774,11.092,24.774,24.774
		C850.581,839.489,839.489,850.581,825.806,850.581z"/>
	<path style="fill:#71C877;" d="M999.226,949.677H454.194c-13.682,0-24.774-11.092-24.774-24.774
		c0-13.682,11.092-24.774,24.774-24.774h545.032c13.682,0,24.774,11.092,24.774,24.774
		C1024,938.586,1012.908,949.677,999.226,949.677z"/>
	<path style="fill:#71C877;" d="M726.71,1048.774H454.194c-13.682,0-24.774-11.092-24.774-24.774
		c0-13.682,11.092-24.774,24.774-24.774H726.71c13.682,0,24.774,11.092,24.774,24.774
		C751.484,1037.682,740.392,1048.774,726.71,1048.774z"/>
	<path style="fill:#71C877;" d="M726.71,1147.871H454.194c-13.682,0-24.774-11.092-24.774-24.774
		c0-13.682,11.092-24.774,24.774-24.774H726.71c13.682,0,24.774,11.092,24.774,24.774
		C751.484,1136.779,740.392,1147.871,726.71,1147.871z"/>
	<path style="fill:#F06561;" d="M1692.903,1084.449v473.683c0,33.383-27.066,60.449-60.449,60.449h-88.196V1792l-173.419-173.419
		H911.03c-33.383,0-60.449-27.066-60.449-60.449v-335.938v-137.745c0-33.383,27.066-60.449,60.449-60.449h286.39h435.035
		C1665.837,1024,1692.903,1051.066,1692.903,1084.449z"/>
	<path style="fill:#E8E8FF;" d="M1197.419,256c177.868,0,322.065,144.196,322.065,322.065s-144.196,322.065-322.065,322.065
		c-161.022,0-294.441-118.173-318.276-272.516c-2.498-16.155-3.788-32.702-3.788-49.548C875.355,400.196,1019.551,256,1197.419,256z
		"/>
	<path style="fill:#D8D8FF;" d="M1271.742,627.613h-148.645c-13.682,0-24.774-11.092-24.774-24.774V478.968
		c0-54.642,44.455-99.097,99.097-99.097c26.467,0,51.352,10.308,70.071,29.026c18.718,18.718,29.026,43.603,29.026,70.071v123.871
		C1296.516,616.521,1285.424,627.613,1271.742,627.613z M1147.871,578.065h99.097v-99.097c0-13.233-5.154-25.675-14.514-35.034
		s-21.801-14.514-35.034-14.514c-27.321,0-49.548,22.227-49.548,49.548V578.065z"/>
	<path style="fill:#ED4A46;" d="M1593.806,1147.871H949.677c-13.682,0-24.774-11.092-24.774-24.774
		c0-13.682,11.092-24.774,24.774-24.774h644.129c13.682,0,24.774,11.092,24.774,24.774
		C1618.581,1136.779,1607.489,1147.871,1593.806,1147.871z"/>
	<path style="fill:#ED4A46;" d="M1593.806,1246.968H949.677c-13.682,0-24.774-11.092-24.774-24.774
		c0-13.682,11.092-24.774,24.774-24.774h644.129c13.682,0,24.774,11.092,24.774,24.774
		C1618.581,1235.876,1607.489,1246.968,1593.806,1246.968z"/>
	<path style="fill:#ED4A46;" d="M1593.806,1346.065H949.677c-13.682,0-24.774-11.092-24.774-24.774
		c0-13.682,11.092-24.774,24.774-24.774h644.129c13.682,0,24.774,11.092,24.774,24.774
		C1618.581,1334.973,1607.489,1346.065,1593.806,1346.065z"/>
	<path style="fill:#ED4A46;" d="M1593.806,1445.161H949.677c-13.682,0-24.774-11.092-24.774-24.774s11.092-24.774,24.774-24.774
		h644.129c13.682,0,24.774,11.092,24.774,24.774S1607.489,1445.161,1593.806,1445.161z"/>
	<path style="fill:#ED4A46;" d="M1593.806,1544.258H949.677c-13.682,0-24.774-11.092-24.774-24.774s11.092-24.774,24.774-24.774
		h644.129c13.682,0,24.774,11.092,24.774,24.774S1607.489,1544.258,1593.806,1544.258z"/>
	<polygon style="fill:#4B5A99;" points="1328.351,578.065 1328.351,776.258 1066.488,776.258 1066.488,578.065 1118.86,578.065 
		1275.978,578.065 	"/>
	<path style="fill:#3A4875;" d="M1222.194,701.935h-49.548c-13.682,0-24.774-11.092-24.774-24.774
		c0-13.682,11.092-24.774,24.774-24.774h49.548c13.682,0,24.774,11.092,24.774,24.774
		C1246.968,690.844,1235.876,701.935,1222.194,701.935z"/>
</g>
</svg>
