<?xml version="1.0" encoding="iso-8859-1"?>
<!-- Generator: Adobe Illustrator 25.2.0, SVG Export Plug-In . SVG Version: 6.00 Build 0)  -->
<svg version="1.1" id="Layer_1" xmlns="http://www.w3.org/2000/svg" xmlns:xlink="http://www.w3.org/1999/xlink" x="0px" y="0px"
	 viewBox="0 0 2048 2048" style="enable-background:new 0 0 2048 2048;" xml:space="preserve">
<g>
	<rect x="1491.861" y="652.387" style="fill:#FDC424;" width="129.569" height="123.871"/>
	<rect x="1284.129" y="379.871" style="fill:#4B5A99;" width="198.194" height="123.871"/>
	<rect x="268.387" y="379.871" style="fill:#4B5A99;" width="198.194" height="123.871"/>
	<path style="fill:#E8E8FF;" d="M441.806,256v123.871v123.871v1001.455c-6.988,52.8,35.809,95.597,88.609,95.597
		c52.8,0,95.608-42.797,95.608-95.597l682.88-627.479V503.742V379.871V256H441.806z"/>
	<path style="fill:#4B5A99;" d="M1692.903,652.387c34.209,0,61.936,27.726,61.936,61.935c0,17.105-6.937,32.588-18.137,43.799
		c-11.21,11.2-26.694,18.137-43.799,18.137h-86.71V652.387H1692.903z"/>
	<polygon style="fill:#FFD3C5;" points="1507.097,652.387 1507.097,776.258 1308.903,776.258 862.968,776.258 763.871,701.935 
		862.968,652.387 1308.903,652.387 	"/>
	<path style="fill:#C9C9F2;" d="M1779.613,1021.12V1792H912.826v-191.205v-95.597v-382.101V1021.12
		c0-79.195-64.206-143.401-143.401-143.401h539.479h327.308C1715.406,877.719,1779.613,941.925,1779.613,1021.12z"/>
	<path style="fill:#D8D8FF;" d="M769.424,877.719c79.195,0,143.401,64.206,143.401,143.401v101.977v382.101v95.597h-382.41
		c52.8,0,95.608-42.797,95.608-95.597V1021.12C626.023,941.925,690.219,877.719,769.424,877.719z"/>
	<rect x="540.903" y="355.097" style="fill:#D8D8FF;" width="668.903" height="99.097"/>
	<path style="fill:#D8D8FF;" d="M1680.516,1222.194h-668.903c-13.682,0-24.774-11.092-24.774-24.774
		c0-13.682,11.092-24.774,24.774-24.774h668.903c13.682,0,24.774,11.092,24.774,24.774
		C1705.29,1211.102,1694.199,1222.194,1680.516,1222.194z"/>
	<path style="fill:#D8D8FF;" d="M1680.516,1321.29h-668.903c-13.682,0-24.774-11.092-24.774-24.774s11.092-24.774,24.774-24.774
		h668.903c13.682,0,24.774,11.092,24.774,24.774S1694.199,1321.29,1680.516,1321.29z"/>
	<path style="fill:#D8D8FF;" d="M1680.516,1420.387h-668.903c-13.682,0-24.774-11.092-24.774-24.774s11.092-24.774,24.774-24.774
		h668.903c13.682,0,24.774,11.092,24.774,24.774S1694.199,1420.387,1680.516,1420.387z"/>
	<path style="fill:#D8D8FF;" d="M1680.516,1519.484h-668.903c-13.682,0-24.774-11.092-24.774-24.774
		c0-13.682,11.092-24.774,24.774-24.774h668.903c13.682,0,24.774,11.092,24.774,24.774
		C1705.29,1508.392,1694.199,1519.484,1680.516,1519.484z"/>
	<path style="fill:#D8D8FF;" d="M1680.516,1618.581h-668.903c-13.682,0-24.774-11.092-24.774-24.774
		c0-13.682,11.092-24.774,24.774-24.774h668.903c13.682,0,24.774,11.092,24.774,24.774
		C1705.29,1607.489,1694.199,1618.581,1680.516,1618.581z"/>
	<path style="fill:#D8D8FF;" d="M1680.516,1717.677h-668.903c-13.682,0-24.774-11.092-24.774-24.774
		c0-13.682,11.092-24.774,24.774-24.774h668.903c13.682,0,24.774,11.092,24.774,24.774
		C1705.29,1706.586,1694.199,1717.677,1680.516,1717.677z"/>
	<path style="fill:#D8D8FF;" d="M1209.806,578.065H540.903c-13.682,0-24.774-11.092-24.774-24.774
		c0-13.682,11.092-24.774,24.774-24.774h668.903c13.682,0,24.774,11.092,24.774,24.774
		C1234.581,566.973,1223.489,578.065,1209.806,578.065z"/>
	<rect x="1011.613" y="999.226" style="fill:#D8D8FF;" width="668.903" height="99.097"/>
</g>
</svg>
