<?xml version="1.0" encoding="iso-8859-1"?>
<!-- Generator: Adobe Illustrator 25.2.0, SVG Export Plug-In . SVG Version: 6.00 Build 0)  -->
<svg version="1.1" id="Layer_1" xmlns="http://www.w3.org/2000/svg" xmlns:xlink="http://www.w3.org/1999/xlink" x="0px" y="0px"
	 viewBox="0 0 2048 2048" style="enable-background:new 0 0 2048 2048;" xml:space="preserve">
<g>
	<polygon style="fill:#D8D8FF;" points="1691.541,1032.196 1691.541,1683.458 886.039,1683.458 886.028,1683.448 1311.639,993.156 	
		"/>
	<polygon style="fill:#4B5A99;" points="886.039,1683.458 886.028,1683.448 752.64,1792 1691.541,1792 1691.541,1683.458 	"/>
	<path style="fill:#E8E8FF;" d="M1472.795,827.045l-121.404-16.031c-1.259,1.579-143.185,102.163-144.361,103.824l-510.266,714.354
		H356.459V1792h301.203h0.01h94.968c35.066,0,67.943-16.929,88.32-45.45l45.068-63.102l465.197-651.252h340.315V869.388
		L1472.795,827.045z"/>
	<path style="fill:#FFD3C5;" d="M698.374,869.388c59.943,0,108.542,48.599,108.542,108.542c0,59.943-48.599,108.542-108.542,108.542
		s-108.552-48.599-108.552-108.542C589.822,917.987,638.431,869.388,698.374,869.388z"/>
	<path style="fill:#69BEF9;" d="M806.916,1288.248l-123.685,257.868l-93.409-25.476v-325.626
		c0-59.943,48.609-108.542,108.552-108.542s108.542,48.599,108.542,108.542V1288.248z"/>
	<polygon style="fill:#F9AC00;" points="1420.181,1249.28 1528.723,1412.098 1474.457,1412.098 1474.457,1574.916 
		1365.915,1574.916 1365.915,1412.098 1311.639,1412.098 	"/>
	<polygon style="fill:#D8D8FF;" points="1691.541,760.836 1691.541,869.388 1464.093,869.388 1529.497,802.302 1488.031,760.836 	
		"/>
	<path style="fill:#D8D8FF;" d="M1210.704,868.841v41.146c-1.259,1.579-2.498,3.19-3.675,4.852l-510.266,714.354H356.459V1520.64
		h233.363h51.107l165.987-232.392l311.783-436.501c2.735-3.83,5.595-7.566,8.568-11.179
		C1152.95,854.173,1181.027,863.855,1210.704,868.841z"/>
	<path style="fill:#4B5A99;" d="M1596.129,548.924v92.501h-65.507c-7.081,42.157-23.649,81.105-47.463,114.539l4.872,4.872
		l41.466,41.466l-65.404,67.086l-46.338-48.01c-33.445,23.804-72.382,40.392-114.55,47.463v65.507h-92.501v-24.361v-41.146
		c-29.677-4.986-57.755-14.668-83.437-28.274c-10.818-5.729-21.192-12.139-31.102-19.19l-46.338,46.328l-65.404-65.404
		l46.338-46.338c-23.814-33.435-40.403-72.382-47.474-114.539h-65.507v-92.501h65.507c7.071-42.168,23.659-81.105,47.474-114.55
		l-46.338-46.328l65.404-65.404l46.338,46.328c33.435-23.814,72.372-40.392,114.539-47.463V256h92.501v65.507
		c42.168,7.071,81.104,23.649,114.55,47.463l46.328-46.328l65.414,65.404l-46.338,46.328c23.814,33.445,40.382,72.382,47.463,114.55
		H1596.129z M1395.303,760.836c47.36-39.577,77.492-99.107,77.492-165.667c0-119.205-96.64-215.835-215.835-215.835
		c-119.205,0-215.845,96.63-215.845,215.835c0,91.076,56.392,168.96,136.165,200.661h0.01c24.65,9.796,51.53,15.185,79.67,15.185
		C1309.595,811.014,1357.832,792.155,1395.303,760.836z"/>
	<path style="fill:#3A4875;" d="M1256.96,835.788c-30.511,0-60.252-5.643-88.408-16.773c-0.14-0.053-0.28-0.107-0.42-0.163
		c-44.274-17.594-82.044-47.677-109.227-86.999c-27.846-40.279-42.563-87.544-42.563-136.684c0-64.27,25.029-124.693,70.478-170.138
		c45.447-45.444,105.871-70.471,170.141-70.471c64.267,0,124.688,25.027,170.133,70.471
		c45.448,45.446,70.476,105.868,70.476,170.138c0,71.492-31.484,138.804-86.379,184.677
		C1368.029,815.92,1313.255,835.788,1256.96,835.788z M1186.066,772.662c0.125,0.047,0.25,0.096,0.374,0.145
		c22.429,8.913,46.155,13.433,70.52,13.433c44.701,0,88.189-15.773,122.456-44.413c43.6-36.434,68.605-89.889,68.605-146.658
		c0-105.351-85.71-191.06-191.06-191.06c-105.357,0-191.071,85.709-191.071,191.06
		C1065.889,673.851,1113.046,743.477,1186.066,772.662z"/>
	<path style="fill:#69BEF9;" d="M1337.714,657.765h-0.186V532.583h0.186c13.682,0,24.774-11.092,24.774-24.774
		c0-13.682-11.092-24.774-24.774-24.774h-49.92c-13.682,0-24.774,11.092-24.774,24.774c0,13.682,11.092,24.774,24.774,24.774h0.187
		v125.182h-0.187c-11.141,0-20.563,7.355-23.679,17.474v-67.59c0-0.701-0.036-1.393-0.094-2.08c-0.006-0.072-0.01-0.144-0.016-0.216
		c-0.063-0.69-0.158-1.37-0.276-2.043c-0.009-0.051-0.018-0.103-0.028-0.154c-0.129-0.705-0.287-1.4-0.475-2.083
		c-0.002-0.007-0.004-0.013-0.006-0.02c-0.212-0.769-0.459-1.523-0.742-2.26l-37.382-99.684
		c-3.626-9.669-12.869-16.075-23.196-16.075c-0.001,0,0,0-0.001,0c-10.326,0-19.57,6.405-23.196,16.073l-37.387,99.672
		c-0.284,0.741-0.534,1.499-0.747,2.272c-0.002,0.007-0.004,0.013-0.006,0.02c-0.188,0.683-0.346,1.378-0.475,2.083
		c-0.01,0.052-0.019,0.104-0.028,0.156c-0.119,0.672-0.213,1.352-0.276,2.041c-0.007,0.072-0.01,0.145-0.016,0.217
		c-0.057,0.686-0.093,1.378-0.093,2.079v74.89c0,13.682,11.092,24.774,24.774,24.774s24.774-11.092,24.774-24.774v-50.116h25.343
		v50.116c0,13.682,11.092,24.774,24.774,24.774c11.904,0,21.843-8.397,24.227-19.591c2.384,11.193,12.323,19.591,24.227,19.591
		h49.92c13.682,0,24.774-11.092,24.774-24.774C1362.488,668.857,1351.396,657.765,1337.714,657.765z M1203.59,582.875h-3.389
		l1.695-4.518L1203.59,582.875z"/>
</g>
</svg>
