<?xml version="1.0" encoding="iso-8859-1"?>
<!-- Generator: Adobe Illustrator 25.2.0, SVG Export Plug-In . SVG Version: 6.00 Build 0)  -->
<svg version="1.1" id="Layer_1" xmlns="http://www.w3.org/2000/svg" xmlns:xlink="http://www.w3.org/1999/xlink" x="0px" y="0px"
	 viewBox="0 0 2048 2048" style="enable-background:new 0 0 2048 2048;" xml:space="preserve">
<g>
	<path style="fill:#E8E8FF;" d="M1792,506.777v1191.185c0,51.933-42.106,94.039-94.039,94.039H350.039
		c-51.933,0-94.039-42.106-94.039-94.039V381.388l754.178-73.486L1792,506.777z"/>
	<path style="fill:#FDC424;" d="M1482.24,1031.536v327.525c0,26.942-22.173,49.115-49.115,49.115h-57.714v-376.64H1482.24z"/>
	<path style="fill:#FDC424;" d="M805.099,816.186v106.828H585.796v-57.714c0-27.014,22.101-49.115,49.115-49.115H805.099z"/>
	<path style="fill:#91DE97;" d="M805.099,923.014H585.796h-57.714c-27.014,0-49.115,22.101-49.115,49.115v493.76
		c0,27.014,22.101,49.115,49.115,49.115h88.609v140.501l257.363-140.501h452.243c26.942,0,49.115-22.163,49.115-49.115v-57.714
		v-376.64L805.099,923.014z"/>
	<path style="fill:#F06561;" d="M1569.032,719.773V964.15c0,37.048-30.338,67.386-67.448,67.386h-19.344h-106.828H872.485
		c-37.048,0-67.386-30.338-67.386-67.386v-41.135V816.186v-96.413c0-37.048,30.338-67.386,67.386-67.386h629.099
		C1538.694,652.387,1569.032,682.725,1569.032,719.773z"/>
	<path style="fill:#4B5A99;" d="M1071.019,506.777l-94.039-125.388H256v-31.35C256,298.106,298.106,256,350.039,256h1347.923
		c51.933,0,94.039,42.106,94.039,94.039v156.738H1071.019z"/>
	<g>
		<path style="fill:#ED4A46;" d="M985.407,907.097c-0.051,0-0.103,0-0.154,0c-13.07,0.08-26.893,0.137-38.126,0.157V751.866
			c0-13.682-11.092-24.774-24.774-24.774c-13.682,0-24.774,11.092-24.774,24.774v180.005c0,11.896,8.455,22.112,20.141,24.337
			c1.95,0.371,3.238,0.617,23.613,0.617c9.702,0,23.734-0.056,44.221-0.18c13.682-0.083,24.706-11.242,24.623-24.924
			C1010.095,918.089,999.019,907.097,985.407,907.097z"/>
		<path style="fill:#ED4A46;" d="M1065.548,727.092c-13.682,0-24.774,11.092-24.774,24.774v180.191
			c0,13.682,11.092,24.774,24.774,24.774c13.682,0,24.774-11.092,24.774-24.774V751.866
			C1090.323,738.183,1079.231,727.092,1065.548,727.092z"/>
		<path style="fill:#ED4A46;" d="M1451.778,907.283h-50.457V867.52h44.933c13.682,0,24.774-11.092,24.774-24.774
			s-11.092-24.774-24.774-24.774h-44.933v-39.691h50.457c13.682,0,24.774-11.092,24.774-24.774
			c0-13.682-11.092-24.774-24.774-24.774h-75.231c-13.682,0-24.774,11.092-24.774,24.774v178.55
			c0,13.682,11.092,24.774,24.774,24.774h75.231c13.682,0,24.774-11.092,24.774-24.774
			C1476.552,918.375,1465.461,907.283,1451.778,907.283z"/>
		<path style="fill:#ED4A46;" d="M1298.507,728.676c-12.986-4.315-27.008,2.713-31.323,15.698l-39.609,119.201l-41.601-119.834
			c-4.487-12.924-18.6-19.767-31.529-15.279c-12.925,4.487-19.766,18.603-15.279,31.529l61.627,177.519
			c4.026,11.546,14.952,19.295,27.198,19.295c0.013,0,0.027,0,0.041,0c12.277-0.017,23.22-7.823,27.228-19.423
			c0.032-0.093,0.063-0.186,0.095-0.279l58.85-177.104C1318.519,747.014,1311.491,732.99,1298.507,728.676z"/>
	</g>
	<path style="fill:#71C877;" d="M1171.241,1160.351c32.279,0,58.591,26.374,58.591,58.653c0,32.289-26.312,58.663-58.591,58.663
		c-32.279,0-58.663-26.374-58.663-58.663C1112.578,1186.725,1138.963,1160.351,1171.241,1160.351z"/>
	<path style="fill:#71C877;" d="M927.185,1160.351c32.289,0,58.663,26.374,58.663,58.653c0,32.289-26.374,58.663-58.663,58.663
		c-32.279,0-58.653-26.374-58.653-58.663C868.532,1186.725,894.906,1160.351,927.185,1160.351z"/>
	<path style="fill:#71C877;" d="M683.138,1160.351c32.279,0,58.663,26.374,58.663,58.653c0,32.289-26.385,58.663-58.663,58.663
		s-58.591-26.374-58.591-58.663C624.547,1186.725,650.859,1160.351,683.138,1160.351z"/>
	<circle style="fill:#91DE97;" cx="1643.355" cy="379.871" r="49.548"/>
	<circle style="fill:#FDC424;" cx="1445.161" cy="379.871" r="49.548"/>
	<circle style="fill:#F06561;" cx="1246.968" cy="379.871" r="49.548"/>
</g>
</svg>
