<?xml version="1.0" encoding="iso-8859-1"?>
<!-- Generator: Adobe Illustrator 25.2.0, SVG Export Plug-In . SVG Version: 6.00 Build 0)  -->
<svg version="1.1" id="Layer_1" xmlns="http://www.w3.org/2000/svg" xmlns:xlink="http://www.w3.org/1999/xlink" x="0px" y="0px"
	 viewBox="0 0 2048 2048" style="enable-background:new 0 0 2048 2048;" xml:space="preserve">
<g>
	<polygon style="fill:#69BEF9;" points="1044.996,627.613 801.032,627.613 751.484,553.29 578.065,553.29 578.065,1692.903 
		1321.29,1692.903 1321.29,946.725 	"/>
	<polygon style="fill:#FDC424;" points="751.484,850.581 751.484,1147.871 578.065,1147.871 478.968,1147.871 379.871,1246.968 
		379.871,1147.871 305.548,1147.871 305.548,850.581 478.968,850.581 578.065,850.581 	"/>
	<path style="fill:#4B5A99;" d="M1420.387,953.146v150.699c-15.938-3.613-32.516-5.523-49.548-5.523
		c-17.032,0-33.61,1.91-49.548,5.523v-157.12c23.257,4.883,47.36,7.453,72.072,7.453
		C1402.457,954.178,1411.468,953.827,1420.387,953.146z"/>
	<path style="fill:#E8E8FF;" d="M1420.387,1103.845c99.293,22.534,173.419,111.339,173.419,217.445
		c0,106.106-74.126,194.911-173.419,217.445c-15.938,3.613-32.516,5.523-49.548,5.523c-17.032,0-33.61-1.91-49.548-5.523
		c-99.293-22.534-173.419-111.339-173.419-217.445c0-106.106,74.126-194.911,173.419-217.445
		c15.938-3.613,32.516-5.523,49.548-5.523C1387.871,1098.323,1404.449,1100.232,1420.387,1103.845z"/>
	<path style="fill:#3A4875;" d="M1393.363,256c-138.746,0-258.591,80.95-314.87,198.194
		c-21.935,45.667-34.219,96.846-34.219,150.896c0,7.566,0.237,15.071,0.723,22.524c5.564,87.412,43.303,166.09,101.512,224.31
		h493.708c63.164-63.174,102.235-150.452,102.235-246.833C1742.452,412.294,1586.157,256,1393.363,256z"/>
	<path style="fill:#4B5A99;" d="M1420.387,1538.735v167.67c0,47.277-38.317,85.595-85.595,85.595h-770.23
		c-47.277,0-85.595-38.317-85.595-85.595v-558.534h99.097v545.032h743.226v-154.168c15.938,3.613,32.516,5.523,49.548,5.523
		C1387.871,1544.258,1404.449,1542.348,1420.387,1538.735z"/>
	<path style="fill:#4B5A99;" d="M564.563,454.194h513.93c-21.936,45.667-34.219,96.846-34.219,150.896
		c0,7.566,0.237,15.071,0.723,22.524H801.032l-49.548-74.323H578.065v297.29h-99.097V539.788
		C478.968,492.511,517.285,454.194,564.563,454.194z"/>
	<path style="fill:#F9AC00;" d="M652.387,974.452H404.645c-13.682,0-24.774-11.092-24.774-24.774
		c0-13.682,11.092-24.774,24.774-24.774h247.742c13.682,0,24.774,11.092,24.774,24.774
		C677.161,963.36,666.07,974.452,652.387,974.452z"/>
	<path style="fill:#F9AC00;" d="M652.387,1073.548H404.645c-13.682,0-24.774-11.092-24.774-24.774S390.963,1024,404.645,1024
		h247.742c13.682,0,24.774,11.092,24.774,24.774S666.07,1073.548,652.387,1073.548z"/>
	<path style="fill:#D8D8FF;" d="M1615.443,725.357c-13.682,0-24.774-11.092-24.774-24.774V505.352
		c0-13.682,11.092-24.774,24.774-24.774c13.682,0,24.774,11.092,24.774,24.774v195.231
		C1640.217,714.266,1629.125,725.357,1615.443,725.357z"/>
	<path style="fill:#D8D8FF;" d="M1171.282,725.357c-13.682,0-24.774-11.092-24.774-24.774V505.352
		c0-13.682,11.092-24.774,24.774-24.774c13.682,0,24.774,11.092,24.774,24.774v195.231
		C1196.056,714.266,1184.965,725.357,1171.282,725.357z"/>
	<g>
		<path style="fill:#D8D8FF;" d="M1370.839,1277.935c-13.682,0-24.774-11.092-24.774-24.774v-49.548
			c0-13.682,11.092-24.774,24.774-24.774c13.682,0,24.774,11.092,24.774,24.774v49.548
			C1395.613,1266.844,1384.521,1277.935,1370.839,1277.935z"/>
		<path style="fill:#ED4A46;" d="M1420.387,1389.419v24.774c0,27.365-22.183,49.548-49.548,49.548
			c-27.365,0-49.548-22.183-49.548-49.548v-24.774H1420.387z"/>
		<path style="fill:#F06561;" d="M1469.935,1352.258v49.548h-49.548h-99.097h-49.548v-49.548c0-54.73,44.366-99.097,99.097-99.097
			c27.365,0,52.139,11.087,70.07,29.027C1458.849,1300.119,1469.935,1324.893,1469.935,1352.258z"/>
	</g>
	<ellipse style="fill:#D8D8FF;" cx="1393.363" cy="729.765" rx="157.089" ry="134.648"/>
	<path style="fill:#E8E8FF;" d="M1640.217,722.281v129.641c-57.218,57.218-134.204,94.668-219.83,101.223
		c-8.919,0.681-17.93,1.032-27.025,1.032c-24.712,0-48.815-2.57-72.072-7.453c-67.489-14.163-127.804-47.814-174.782-94.803V722.281
		c0-119.814,97.125-216.929,216.929-216.929h59.85C1543.102,505.352,1640.217,602.467,1640.217,722.281z M1550.452,729.765
		c0-74.364-70.328-134.648-157.089-134.648c-86.761,0-157.089,60.284-157.089,134.648s70.328,134.648,157.089,134.648
		C1480.124,864.413,1550.452,804.129,1550.452,729.765z"/>
	<path style="fill:#C9C9F2;" d="M1326.038,732.098c-13.682,0-24.774-11.092-24.774-24.774v-22.442
		c0-13.682,11.092-24.774,24.774-24.774s24.774,11.092,24.774,24.774v22.442C1350.812,721.007,1339.721,732.098,1326.038,732.098z"
		/>
	<path style="fill:#C9C9F2;" d="M1460.687,732.098c-13.682,0-24.774-11.092-24.774-24.774v-22.442
		c0-13.682,11.092-24.774,24.774-24.774c13.682,0,24.774,11.092,24.774,24.774v22.442
		C1485.461,721.007,1474.369,732.098,1460.687,732.098z"/>
	<path style="fill:#C9C9F2;" d="M1393.368,799.417c-18.607,0-36.099-7.245-49.255-20.402c-9.675-9.675-9.674-25.361,0-35.036
		c9.676-9.674,25.362-9.674,35.036,0c3.797,3.798,8.848,5.889,14.219,5.889s10.421-2.092,14.219-5.89
		c9.676-9.674,25.362-9.674,35.036,0c9.675,9.675,9.674,25.361,0,35.036C1429.466,792.171,1411.974,799.417,1393.368,799.417z"/>
</g>
</svg>
