<?xml version="1.0" encoding="iso-8859-1"?>
<!-- Generator: Adobe Illustrator 25.2.0, SVG Export Plug-In . SVG Version: 6.00 Build 0)  -->
<svg version="1.1" id="Layer_1" xmlns="http://www.w3.org/2000/svg" xmlns:xlink="http://www.w3.org/1999/xlink" x="0px" y="0px"
	 viewBox="0 0 2048 2048" style="enable-background:new 0 0 2048 2048;" xml:space="preserve">
<g>
	<rect x="904.465" y="1178.963" style="fill:#D8D8FF;" width="239.071" height="160.351"/>
	<path style="fill:#E8E8FF;" d="M1352.764,1385.59l0.01,0.01c-5.068,4.614-10.25,9.125-15.515,13.523
		c-84.841,70.927-194.065,113.61-313.259,113.61c-63.711,0-124.583-12.191-180.387-34.374h-0.021
		c-47.649-18.942-91.623-45.161-130.539-77.275v-0.01v-26.736c0-38.049,30.834-68.883,68.883-68.883h122.529h239.071h140.356
		c38.039,0,68.872,30.834,68.872,68.883V1385.59z"/>
	<path style="fill:#D8D8FF;" d="M1388.738,895.04v107.902c0,16.248-13.172,29.419-29.43,29.419h-69.904V865.61h69.904
		C1375.566,865.61,1388.738,878.782,1388.738,895.04z"/>
	<path style="fill:#D8D8FF;" d="M758.782,865.61v166.751h-70.09c-16.258,0-29.43-13.172-29.43-29.419V895.04
		c0-16.258,13.172-29.43,29.43-29.43H758.782z"/>
	<path style="fill:#E8E8FF;" d="M1183.67,680.588l-0.01,0.062H864.341v-0.041c-66.436,7.876-117.946,64.392-117.946,132.934v52.067
		v166.751v47.536c0,73.414,59.51,132.924,132.914,132.924h25.156h239.071h25.352c31.432,0,60.315-10.911,83.066-29.161
		c9.879-7.928,17.796-18.034,23.226-29.471l18.477-38.927c5.213-10.983,8.124-22.978,8.134-35.138c0-0.072,0-0.155,0-0.227v-47.536
		V865.61v-52.057C1301.791,744.939,1250.188,688.382,1183.67,680.588z"/>
	<path style="fill:#4B5A99;" d="M1792,919.267v209.466h-148.325c-16.031,95.463-53.553,183.639-107.479,259.355l104.919,104.919
		l-148.088,151.907l-104.939-108.717c-75.716,53.915-163.892,91.468-259.355,107.479V1792H919.267v-148.325
		c-67.2-11.283-130.777-33.197-188.945-64.021c-24.475-12.965-47.979-27.489-70.41-43.458l-104.919,104.919l-148.108-148.108
		l104.919-104.919c-53.915-75.716-91.468-163.892-107.479-259.355H256V919.267h148.325c16.01-95.463,53.564-183.639,107.479-259.355
		L406.885,554.994l148.108-148.108l104.919,104.919c75.695-53.915,163.871-91.468,259.355-107.479V256h209.466v148.325
		c95.463,16.01,183.639,53.564,259.355,107.479l104.919-104.919l148.108,148.108l-104.919,104.919
		c53.925,75.716,91.448,163.892,107.479,259.355H1792z M1352.774,1385.6c98.271-89.373,159.959-218.292,159.959-361.6
		c0-269.925-218.828-488.733-488.733-488.733c-269.925,0-488.733,218.808-488.733,488.733c0,151.804,69.203,287.443,177.786,377.074
		v0.01c38.916,32.114,82.89,58.333,130.539,77.275h0.021c55.804,22.183,116.676,34.374,180.387,34.374
		c119.195,0,228.418-42.684,313.259-113.61C1342.524,1394.725,1347.706,1390.214,1352.774,1385.6z"/>
	<path style="fill:#D8D8FF;" d="M1057.889,1115.798h-67.778c-13.682,0-24.774-11.092-24.774-24.774s11.092-24.774,24.774-24.774
		h67.778c13.682,0,24.774,11.092,24.774,24.774S1071.572,1115.798,1057.889,1115.798z"/>
	<path style="fill:#D8D8FF;" d="M914.55,994.818c-36.622,0-66.416-29.794-66.416-66.415c0-13.682,11.092-24.774,24.774-24.774
		s24.774,11.092,24.774,24.774c0,9.3,7.567,16.867,16.867,16.867c9.3,0,16.867-7.567,16.867-16.867
		c0-13.682,11.092-24.774,24.774-24.774c13.682,0,24.774,11.092,24.774,24.774C980.965,965.024,951.171,994.818,914.55,994.818z"/>
	<path style="fill:#D8D8FF;" d="M1133.451,994.818c-36.622,0-66.415-29.794-66.415-66.415c0-13.682,11.092-24.774,24.774-24.774
		c13.682,0,24.774,11.092,24.774,24.774c0,9.3,7.567,16.867,16.867,16.867s16.867-7.567,16.867-16.867
		c0-13.682,11.092-24.774,24.774-24.774c13.682,0,24.774,11.092,24.774,24.774C1199.866,965.024,1170.073,994.818,1133.451,994.818z
		"/>
	<path style="fill:#3A4875;" d="M1024,1537.507c-65.263,0-128.841-12.08-188.977-35.903c-0.195-0.072-0.39-0.146-0.583-0.224
		c-49.639-19.733-95.784-47.048-137.155-81.188c-0.165-0.135-0.327-0.273-0.488-0.413
		c-118.412-97.98-186.304-242.195-186.304-395.778c0-69.314,13.58-136.566,40.363-199.89
		c25.864-61.151,62.886-116.065,110.037-163.216c47.151-47.151,102.065-84.173,163.216-110.037
		c63.324-26.783,130.577-40.363,199.89-40.363c69.308,0,136.558,13.58,199.881,40.363c61.151,25.864,116.064,62.886,163.217,110.037
		c47.153,47.152,84.177,102.066,110.042,163.216c26.785,63.325,40.367,130.578,40.367,199.891c0,73.6-15.25,144.667-45.326,211.227
		c-29.05,64.29-70.343,121.047-122.73,168.694l0,0c-5.24,4.77-10.728,9.552-16.31,14.216
		c-45.204,37.789-96.021,67.273-151.034,87.624C1145.165,1526.826,1085.241,1537.507,1024,1537.507z M852.21,1455.124
		c0.185,0.068,0.37,0.14,0.554,0.213c54.452,21.646,112.065,32.622,171.235,32.622c108.575,0,214.182-38.299,297.369-107.843
		c5.052-4.221,10.005-8.537,14.728-12.837c0.003-0.002,0.006-0.005,0.009-0.008c96.504-87.766,151.853-212.884,151.853-343.271
		c0-255.828-208.131-463.959-463.959-463.959S560.041,768.172,560.041,1024c0,138.952,61.519,269.425,168.783,357.968
		c0.156,0.128,0.309,0.258,0.461,0.39C766.406,1412.909,807.758,1437.389,852.21,1455.124z"/>
	<path style="fill:#D8D8FF;" d="M1183.67,680.588l-0.01,0.062c-2.147,37.977-33.621,103.608-72.134,103.608h-175.05
		c-38.514,0-69.987-65.631-72.134-103.608v-0.041c5.223-0.619,10.539-0.939,15.928-0.939h137.239h13.172h137.239
		C1173.244,679.67,1178.508,679.979,1183.67,680.588z"/>
</g>
</svg>
