<?xml version="1.0" encoding="iso-8859-1"?>
<!-- Generator: Adobe Illustrator 25.2.0, SVG Export Plug-In . SVG Version: 6.00 Build 0)  -->
<svg version="1.1" id="Layer_1" xmlns="http://www.w3.org/2000/svg" xmlns:xlink="http://www.w3.org/1999/xlink" x="0px" y="0px"
	 viewBox="0 0 2048 2048" style="enable-background:new 0 0 2048 2048;" xml:space="preserve">
<g>
	<path style="fill:#C9C9F2;" d="M1450.942,1385.672c-6.647,0-13.292-2.535-18.364-7.606l-140.16-140.161
		c-10.141-10.142-10.141-26.585,0-36.727c10.141-10.14,26.586-10.141,36.727,0l140.16,140.161c10.141,10.142,10.141,26.585,0,36.727
		C1464.235,1383.136,1457.587,1385.672,1450.942,1385.672z"/>
	<path style="fill:#C9C9F2;" d="M601.235,1381.484c-6.647,0-13.293-2.535-18.364-7.607c-10.141-10.142-10.141-26.585,0.002-36.727
		l136.179-136.168c10.141-10.142,26.585-10.142,36.727,0.002c10.141,10.142,10.141,26.585-0.002,36.727l-136.179,136.168
		C614.527,1378.949,607.88,1381.484,601.235,1381.484z"/>
	<path style="fill:#C9C9F2;" d="M1501.193,958.73h-223.144c-14.343,0-25.97-11.627-25.97-25.97s11.627-25.97,25.97-25.97h223.144
		c14.343,0,25.97,11.627,25.97,25.97S1515.536,958.73,1501.193,958.73z"/>
	<path style="fill:#C9C9F2;" d="M770.146,958.73H546.807c-14.343,0-25.97-11.627-25.97-25.97s11.627-25.97,25.97-25.97h223.339
		c14.343,0,25.97,11.627,25.97,25.97S784.489,958.73,770.146,958.73z"/>
	<rect x="900.601" y="1352.008" style="fill:#D8D8FF;" width="246.799" height="167.148"/>
	<path style="fill:#FDC424;" d="M1509.114,1317.241c55.586,0,100.643,45.057,100.643,100.633s-45.057,100.633-100.643,100.633
		c-55.575,0-100.633-45.057-100.633-100.633c0-27.788,11.264-52.946,29.476-71.157
		C1456.168,1328.506,1481.327,1317.241,1509.114,1317.241z"/>
	<path style="fill:#FDC424;" d="M614.22,1342.529c18.211,18.211,29.476,43.369,29.476,71.157
		c0,55.586-45.057,100.643-100.633,100.643c-55.575,0-100.633-45.057-100.633-100.643c0-55.575,45.057-100.633,100.633-100.633
		C570.85,1313.054,596.008,1324.318,614.22,1342.529z"/>
	<path style="fill:#F06561;" d="M1639.157,781.8c83.363,0,150.949,67.586,150.949,150.949c0,83.374-67.586,150.96-150.949,150.96
		s-150.938-67.575-150.949-150.949v-0.011C1488.208,849.386,1555.795,781.8,1639.157,781.8z"/>
	<path style="fill:#F06561;" d="M559.792,932.749v0.011c-0.011,83.374-67.586,150.949-150.949,150.949
		s-150.949-67.586-150.949-150.96c0-83.363,67.586-150.949,150.949-150.949S559.792,849.386,559.792,932.749z"/>
	<path style="fill:#91DE97;" d="M1375.219,320.372V577.84c0,35.405-28.978,64.372-64.372,64.372h-186.657l-96.553,96.553
		l-96.553-96.553H744.414c-35.405,0-64.362-28.978-64.362-64.372V320.372c0-35.395,28.956-64.372,64.362-64.372h566.432
		C1346.252,256,1375.219,284.967,1375.219,320.372z"/>
	<path style="fill:#E8E8FF;" d="M1363.402,1554.507V1792h-660.41v-237.493c0-39.268,31.845-71.103,71.114-71.103h126.494h246.799
		h144.9C1331.568,1483.404,1363.402,1515.239,1363.402,1554.507z"/>
	<path style="fill:#D8D8FF;" d="M1413.318,1059.708v111.388c0,16.772-13.591,30.374-30.374,30.374h-72.163v-172.147h72.163
		C1399.728,1029.324,1413.318,1042.925,1413.318,1059.708z"/>
	<path style="fill:#D8D8FF;" d="M737.413,1029.324v172.147h-72.358c-16.772,0-30.374-13.602-30.374-30.374v-111.388
		c0-16.783,13.602-30.385,30.374-30.385H737.413z"/>
	<path style="fill:#E8E8FF;" d="M1304.018,932.76c-16.404-50.403-61.007-88.091-115.186-94.443l-0.011,0.065H859.179v-0.032
		c-54.093,6.406-98.62,44.062-115.002,94.411c-4.393,13.483-6.763,27.874-6.763,42.818v53.746v172.147v17.876v31.196
		c0,75.788,61.44,137.217,137.217,137.217h25.97h246.799h26.164c32.451,0,62.273-11.264,85.765-30.092
		c10.204-8.18,18.374-18.623,23.979-30.439l19.077-40.177c5.378-11.34,8.375-23.719,8.397-36.271c0-0.076,0-0.162,0-0.238v-31.001
		v-18.071v-172.147v-53.746C1310.781,960.634,1308.412,946.242,1304.018,932.76z"/>
	<path style="fill:#D8D8FF;" d="M1058.994,1288.004h-69.988c-14.343,0-25.97-11.627-25.97-25.97c0-14.343,11.627-25.97,25.97-25.97
		h69.988c14.343,0,25.97,11.627,25.97,25.97C1084.964,1276.377,1073.337,1288.004,1058.994,1288.004z"/>
	<path style="fill:#D8D8FF;" d="M911.01,1163.1c-38.025,0-68.96-30.931-68.96-68.949c0-14.343,11.627-25.97,25.97-25.97
		c14.343,0,25.97,11.627,25.97,25.97c0,9.379,7.636,17.01,17.021,17.01c9.379,0,17.01-7.63,17.01-17.01
		c0-14.343,11.627-25.97,25.97-25.97c14.343,0,25.97,11.627,25.97,25.97C979.959,1132.169,949.029,1163.1,911.01,1163.1z"/>
	<path style="fill:#D8D8FF;" d="M1136.99,1163.1c-38.018,0-68.949-30.931-68.949-68.949c0-14.343,11.627-25.97,25.97-25.97
		c14.343,0,25.97,11.627,25.97,25.97c0,9.379,7.63,17.01,17.01,17.01c9.386,0,17.021-7.63,17.021-17.01
		c0-14.343,11.627-25.97,25.97-25.97c14.343,0,25.97,11.627,25.97,25.97C1205.951,1132.169,1175.016,1163.1,1136.99,1163.1z"/>
	<path style="fill:#71C877;" d="M1254.979,419.977H811.611c-14.343,0-25.97-11.627-25.97-25.97c0-14.343,11.627-25.97,25.97-25.97
		h443.368c14.343,0,25.97,11.627,25.97,25.97C1280.949,408.35,1269.322,419.977,1254.979,419.977z"/>
	<path style="fill:#71C877;" d="M1254.979,546.655H811.611c-14.343,0-25.97-11.627-25.97-25.97c0-14.343,11.627-25.97,25.97-25.97
		h443.368c14.343,0,25.97,11.627,25.97,25.97C1280.949,535.028,1269.322,546.655,1254.979,546.655z"/>
	<path style="fill:#D8D8FF;" d="M1188.832,838.317l-0.011,0.065c-2.218,39.214-34.702,106.963-74.468,106.963H933.647
		c-39.766,0-72.25-67.748-74.468-106.963v-0.032c5.389-0.649,10.875-0.974,16.437-0.974h141.686h13.591h141.676
		C1178.076,837.375,1183.497,837.7,1188.832,838.317z"/>
	<path style="fill:#ED4A46;" d="M1639.157,882.443c27.788,0,50.316,22.518,50.316,50.305c0,27.798-22.529,50.316-50.316,50.316
		s-50.316-22.518-50.316-50.316C1588.841,904.961,1611.37,882.443,1639.157,882.443z"/>
	<path style="fill:#ED4A46;" d="M408.843,882.443c27.788,0,50.316,22.518,50.316,50.305c0,27.798-22.529,50.316-50.316,50.316
		c-27.788,0-50.316-22.518-50.316-50.316C358.526,904.961,381.055,882.443,408.843,882.443z"/>
</g>
</svg>
