<?xml version="1.0" encoding="iso-8859-1"?>
<!-- Generator: Adobe Illustrator 25.2.0, SVG Export Plug-In . SVG Version: 6.00 Build 0)  -->
<svg version="1.1" id="Layer_1" xmlns="http://www.w3.org/2000/svg" xmlns:xlink="http://www.w3.org/1999/xlink" x="0px" y="0px"
	 viewBox="0 0 2048 2048" style="enable-background:new 0 0 2048 2048;" xml:space="preserve">
<g>
	<path style="fill:#E8E8FF;" d="M1024,1420.387c-13.682,0-24.774-11.092-24.774-24.774v-99.097
		c0-13.682,11.092-24.774,24.774-24.774c13.682,0,24.774,11.092,24.774,24.774v99.097
		C1048.774,1409.295,1037.682,1420.387,1024,1420.387z"/>
	<path style="fill:#E8E8FF;" d="M404.645,1420.387c-13.682,0-24.774-11.092-24.774-24.774v-372.718
		c0-13.682,11.092-24.774,24.774-24.774h272.382c13.682,0,24.774,11.092,24.774,24.774c0,13.682-11.092,24.774-24.774,24.774
		H429.419v347.944C429.419,1409.295,418.328,1420.387,404.645,1420.387z"/>
	<path style="fill:#E8E8FF;" d="M1643.355,1420.387c-13.682,0-24.774-11.092-24.774-24.774v-347.944h-247.608
		c-13.682,0-24.774-11.092-24.774-24.774c0-13.682,11.092-24.774,24.774-24.774h272.382c13.682,0,24.774,11.092,24.774,24.774
		v372.718C1668.129,1409.295,1657.037,1420.387,1643.355,1420.387z"/>
	<path style="fill:#4B5A99;" d="M1544.258,705.311v141.894h-100.48c-10.859,64.671-36.284,124.397-72.805,175.69l71.071,71.071
		l-100.315,102.906l-71.092-73.641c-51.293,36.521-111.019,61.956-175.69,72.805v100.48H1024h-70.947v-100.48
		c-45.523-7.639-88.588-22.493-127.99-43.365c-16.588-8.785-32.506-18.622-47.701-29.44l-71.071,71.071l-100.336-100.335
		l71.071-71.071c-36.521-51.293-61.956-111.019-72.805-175.69h-100.48V705.311h100.48c10.849-64.671,36.284-124.397,72.805-175.69
		l-71.071-71.071l100.336-100.335l71.071,71.071c51.272-36.521,111.009-61.956,175.69-72.805V256h141.894v100.48
		c64.671,10.849,124.397,36.284,175.69,72.805l71.071-71.071l100.335,100.335l-71.071,71.071
		c36.521,51.293,61.946,111.019,72.805,175.69H1544.258z M1236.212,1030.369c72.65-60.707,118.865-152.021,118.865-254.111
		c0-182.854-148.243-331.076-331.076-331.076c-182.854,0-331.076,148.222-331.076,331.076c0,139.695,86.503,259.169,208.867,307.788
		h0.01c37.801,15.03,79.04,23.288,122.199,23.288C1104.743,1107.334,1178.735,1078.421,1236.212,1030.369z"/>
	<path style="fill:#3A4875;" d="M1024,1132.109c-45.219,0-89.271-8.37-130.939-24.877c-0.14-0.053-0.279-0.107-0.418-0.162
		c-65.478-26.016-121.342-70.512-161.551-128.675c-41.177-59.565-62.943-129.462-62.943-202.136
		c0-48.03,9.412-94.636,27.974-138.523c17.923-42.378,43.578-80.431,76.25-113.104c32.672-32.672,70.726-58.327,113.104-76.25
		c43.887-18.562,90.492-27.974,138.523-27.974c48.025,0,94.628,9.412,138.514,27.974c42.377,17.924,80.431,43.578,113.105,76.249
		c32.673,32.673,58.33,70.726,76.255,113.103c18.564,43.888,27.977,90.494,27.977,138.524c0,105.73-46.565,205.279-127.753,273.122
		c-31.329,26.19-66.546,46.622-104.671,60.726C1107.962,1124.706,1066.435,1132.109,1024,1132.109z M910.554,1060.87
		c0.134,0.05,0.268,0.102,0.401,0.155c35.939,14.29,73.973,21.535,113.045,21.535c71.681,0,141.403-25.285,196.322-71.199
		c0.001-0.001,0.003-0.003,0.005-0.004c69.891-58.402,109.976-144.093,109.976-235.1c0-168.895-137.406-306.302-306.302-306.302
		c-168.895,0-306.302,137.407-306.302,306.302C717.698,902.465,793.385,1014.136,910.554,1060.87z"/>
	<g>
		<path style="fill:#91DE97;" d="M924.903,664.774c-13.682,0-24.774,11.092-24.774,24.774v80.131l-52.812-92.422
			c-5.573-9.753-17.011-14.536-27.869-11.653c-10.857,2.883-18.415,12.711-18.415,23.944v173.419
			c0,13.682,11.092,24.774,24.774,24.774c13.682,0,24.774-11.092,24.774-24.774v-80.13l52.812,92.422
			c4.488,7.854,12.779,12.485,21.508,12.485c2.11,0,4.247-0.271,6.361-0.832c10.857-2.883,18.415-12.711,18.415-23.944V689.548
			C949.677,675.866,938.586,664.774,924.903,664.774z"/>
		<path style="fill:#91DE97;" d="M1073.548,838.194H1024V689.548c0-13.682-11.092-24.774-24.774-24.774
			c-13.682,0-24.774,11.092-24.774,24.774v173.419c0,13.682,11.092,24.774,24.774,24.774h74.323
			c13.682,0,24.774-11.092,24.774-24.774C1098.323,849.285,1087.231,838.194,1073.548,838.194z"/>
		<path style="fill:#91DE97;" d="M1197.419,664.774h-49.548c-13.682,0-24.774,11.092-24.774,24.774v99.097v74.323
			c0,13.682,11.092,24.774,24.774,24.774s24.774-11.092,24.774-24.774v-49.548h24.774c19.866,0,38.533-7.735,52.544-21.761
			c14.043-14.029,21.778-32.696,21.778-52.562C1271.742,698.115,1238.401,664.774,1197.419,664.774z M1214.927,756.623
			c-4.669,4.674-10.887,7.248-17.508,7.248h-24.774v-49.548h24.774c13.66,0,24.774,11.113,24.774,24.774
			C1222.194,745.718,1219.62,751.935,1214.927,756.623z"/>
	</g>
	<polygon style="fill:#F06561;" points="1792,1395.613 1792,1792 1494.71,1792 1494.71,1395.613 1643.355,1395.613 	"/>
	<polygon style="fill:#FDC424;" points="553.29,1395.613 553.29,1792 256,1792 256,1395.613 404.645,1395.613 	"/>
	<polygon style="fill:#69BEF9;" points="1172.645,1395.613 1172.645,1792 875.355,1792 875.355,1395.613 1024,1395.613 	"/>
	<path style="fill:#F9AC00;" d="M478.968,1519.484H330.323c-13.682,0-24.774-11.092-24.774-24.774
		c0-13.682,11.092-24.774,24.774-24.774h148.645c13.682,0,24.774,11.092,24.774,24.774
		C503.742,1508.392,492.65,1519.484,478.968,1519.484z"/>
	<path style="fill:#F9AC00;" d="M478.968,1618.581H330.323c-13.682,0-24.774-11.092-24.774-24.774
		c0-13.682,11.092-24.774,24.774-24.774h148.645c13.682,0,24.774,11.092,24.774,24.774
		C503.742,1607.489,492.65,1618.581,478.968,1618.581z"/>
	<path style="fill:#F9AC00;" d="M478.968,1717.677H330.323c-13.682,0-24.774-11.092-24.774-24.774
		c0-13.682,11.092-24.774,24.774-24.774h148.645c13.682,0,24.774,11.092,24.774,24.774
		C503.742,1706.586,492.65,1717.677,478.968,1717.677z"/>
	<path style="fill:#3CB6F6;" d="M1098.323,1519.484H949.677c-13.682,0-24.774-11.092-24.774-24.774
		c0-13.682,11.092-24.774,24.774-24.774h148.645c13.682,0,24.774,11.092,24.774,24.774
		C1123.097,1508.392,1112.005,1519.484,1098.323,1519.484z"/>
	<path style="fill:#3CB6F6;" d="M1098.323,1618.581H949.677c-13.682,0-24.774-11.092-24.774-24.774
		c0-13.682,11.092-24.774,24.774-24.774h148.645c13.682,0,24.774,11.092,24.774,24.774
		C1123.097,1607.489,1112.005,1618.581,1098.323,1618.581z"/>
	<path style="fill:#3CB6F6;" d="M1098.323,1717.677H949.677c-13.682,0-24.774-11.092-24.774-24.774
		c0-13.682,11.092-24.774,24.774-24.774h148.645c13.682,0,24.774,11.092,24.774,24.774
		C1123.097,1706.586,1112.005,1717.677,1098.323,1717.677z"/>
	<path style="fill:#ED4A46;" d="M1717.677,1519.484h-148.645c-13.682,0-24.774-11.092-24.774-24.774
		c0-13.682,11.092-24.774,24.774-24.774h148.645c13.682,0,24.774,11.092,24.774,24.774
		C1742.452,1508.392,1731.36,1519.484,1717.677,1519.484z"/>
	<path style="fill:#ED4A46;" d="M1717.677,1618.581h-148.645c-13.682,0-24.774-11.092-24.774-24.774
		c0-13.682,11.092-24.774,24.774-24.774h148.645c13.682,0,24.774,11.092,24.774,24.774
		C1742.452,1607.489,1731.36,1618.581,1717.677,1618.581z"/>
	<path style="fill:#ED4A46;" d="M1717.677,1717.677h-148.645c-13.682,0-24.774-11.092-24.774-24.774
		c0-13.682,11.092-24.774,24.774-24.774h148.645c13.682,0,24.774,11.092,24.774,24.774
		C1742.452,1706.586,1731.36,1717.677,1717.677,1717.677z"/>
</g>
</svg>
