<?xml version="1.0" encoding="iso-8859-1"?>
<!-- Generator: Adobe Illustrator 25.2.0, SVG Export Plug-In . SVG Version: 6.00 Build 0)  -->
<svg version="1.1" id="Layer_1" xmlns="http://www.w3.org/2000/svg" xmlns:xlink="http://www.w3.org/1999/xlink" x="0px" y="0px"
	 viewBox="0 0 2048 2048" style="enable-background:new 0 0 2048 2048;" xml:space="preserve">
<g>
	<path style="fill:#4B5A99;" d="M1663.35,479.938v849.548L256,1322.849V479.938c0-42.674,34.601-77.265,77.265-77.265h1252.81
		C1628.748,402.673,1663.35,437.264,1663.35,479.938z"/>
	<path style="fill:#69BEF9;" d="M1353.135,852.315h-403.2c-19.706,0-35.675,15.969-35.675,35.675v306.622v28.779v99.458H364.253
		V510.926h1190.833v341.388H1353.135z"/>
	<path style="fill:#D8D8FF;" d="M1353.125,877.079c-13.682,0-24.774-11.092-24.774-24.774v-35.675
		c0-13.882-11.294-25.176-25.176-25.176h-74.932c-19.956,0-38.722-7.775-52.842-21.893c-14.116-14.133-21.884-32.896-21.884-52.843
		c0-41.204,33.522-74.725,74.726-74.725h124.882c13.682,0,24.774,11.092,24.774,24.774c0,13.682-11.092,24.774-24.774,24.774
		h-124.882c-13.883,0-25.177,11.294-25.177,25.176c0,6.724,2.621,13.051,7.381,17.817c4.75,4.749,11.075,7.371,17.796,7.371h74.932
		c41.204,0,74.725,33.522,74.725,74.725v35.675C1377.899,865.987,1366.807,877.079,1353.125,877.079z"/>
	<path style="fill:#E8E8FF;" d="M1792,887.99c0-19.706-15.979-35.675-35.675-35.675h-92.975h-108.263h-201.951h-403.2
		c-19.706,0-35.675,15.969-35.675,35.675v306.622l261.925,241.755c0,2.343,116.067-118.586,115.592-116.201l-0.526,2.684
		l-0.495,2.488h124.748l-1.022-5.172c-0.475-2.385,95.959,82.126,95.959,79.783L1792,1194.612V887.99z"/>
	<rect x="1624.299" y="937.941" style="fill:#D8D8FF;" width="85.636" height="78.493"/>
	<rect x="1467.303" y="937.941" style="fill:#D8D8FF;" width="85.636" height="78.493"/>
	<rect x="1310.307" y="937.941" style="fill:#D8D8FF;" width="85.636" height="78.493"/>
	<polygon style="fill:#D8D8FF;" points="1505.899,1113.424 1505.899,1173.43 1395.943,1173.43 1395.943,1094.937 1505.899,1094.937 
			"/>
	<polygon style="fill:#D8D8FF;" points="1310.317,1094.937 1310.317,1173.43 1200.351,1173.43 1200.351,1113.435 1200.351,1094.937 
			"/>
	<rect x="1153.321" y="937.941" style="fill:#D8D8FF;" width="85.626" height="78.493"/>
	<rect x="996.325" y="937.941" style="fill:#D8D8FF;" width="85.626" height="78.493"/>
	<path style="fill:#4B5A99;" d="M1130.56,1544.506l45.626,76.046H797.285l81.197-135.319h57.074
		c4.769,7.298,10.302,14.152,16.547,20.428l38.648,38.844H1130.56z"/>
	<path style="fill:#3A4875;" d="M1546.436,1428.058l-24.154-105.209H914.261h-60.073H364.253H256v85.12
		c0,42.663,34.601,77.265,77.264,77.265h545.218h57.074h240.63h401.239C1561.924,1468.659,1551.257,1449.046,1546.436,1428.058z"/>
	<path style="fill:#3A4875;" d="M1257.383,1645.327H716.098c-13.682,0-24.774-11.092-24.774-24.774
		c0-13.682,11.092-24.774,24.774-24.774h541.285c13.682,0,24.774,11.092,24.774,24.774
		C1282.157,1634.235,1271.066,1645.327,1257.383,1645.327z"/>
	<path style="fill:#E8E8FF;" d="M619.035,941.657c13.682,0,24.774-11.092,24.774-24.774c0-13.682-11.092-24.774-24.774-24.774
		h-37.677V812.8c0-20.775,16.902-37.677,37.677-37.677c13.682,0,24.774-11.092,24.774-24.774s-11.092-24.774-24.774-24.774
		c-24.466,0-46.597,10.139-62.452,26.419c-15.855-16.28-37.986-26.419-62.452-26.419c-13.682,0-24.774,11.092-24.774,24.774
		s11.092,24.774,24.774,24.774c20.775,0,37.677,16.902,37.677,37.677v79.308h-37.677c-13.682,0-24.774,11.092-24.774,24.774
		c0,13.682,11.092,24.774,24.774,24.774h37.677v79.319c0,20.769-16.902,37.666-37.677,37.666c-13.682,0-24.774,11.092-24.774,24.774
		s11.092,24.774,24.774,24.774c24.466,0,46.597-10.137,62.452-26.415c15.855,16.278,37.986,26.415,62.452,26.415
		c13.682,0,24.774-11.092,24.774-24.774s-11.092-24.774-24.774-24.774c-20.775,0-37.677-16.897-37.677-37.666v-79.319H619.035z"/>
	<g>
		<path style="fill:#FFD3C5;" d="M1292.48,1313.063c0,2.343-0.227,4.717-0.702,7.102l-0.526,2.684l-0.495,2.488l-20.428,103.587
			c-4.078,20.676-13.099,39.979-26.219,56.299c-2.849,3.572-5.915,6.999-9.167,10.271l-48.743,49.012H990.751l-38.648-38.844
			c-6.245-6.276-11.778-13.13-16.547-20.428c-13.801-21.037-21.296-45.791-21.296-71.319v-219.303
			c0-14.885,9.084-27.644,22.008-33.032c4.232-1.765,8.877-2.736,13.75-2.736c9.879,0,18.818,3.995,25.29,10.467
			c6.472,6.483,10.467,15.422,10.467,25.301v-81.177c0-0.537,0.01-1.084,0.041-1.61c0.619-14.173,9.497-26.199,21.935-31.401
			c4.243-1.776,8.898-2.756,13.791-2.756c9.868,0,18.818,3.995,25.29,10.467c6.472,6.472,10.467,15.422,10.467,25.301v-61.234
			c0-19.747,16.01-35.758,35.768-35.758c9.879,0,18.818,4.005,25.29,10.477c6.472,6.472,10.467,15.401,10.467,25.28v61.234
			c0-0.31,0-0.619,0.01-0.919c0.237-9.517,4.201-18.116,10.467-24.382c6.472-6.472,15.401-10.467,25.28-10.467
			c4.893,0,9.548,0.981,13.801,2.756c12.903,5.399,21.967,18.147,21.967,33.012v272.805l15.535-63.391l4.532-18.457
			c4.583-18.694,22.885-30.637,41.848-27.283C1280.021,1280.237,1292.48,1295.69,1292.48,1313.063z"/>
		<path style="fill:#F2C3B6;" d="M1057.301,1113.435v191.277c0,13.688-11.097,24.774-24.774,24.774
			c-13.688,0-24.774-11.086-24.774-24.774v-224.289c4.243-1.776,8.898-2.756,13.791-2.756c9.868,0,18.818,3.995,25.29,10.467
			C1053.306,1094.606,1057.301,1103.556,1057.301,1113.435z"/>
		<path style="fill:#F2C3B6;" d="M985.817,1111.824v192.888c0,13.688-11.097,24.774-24.774,24.774s-24.774-11.086-24.774-24.774
			v-143.133c4.232-1.765,8.877-2.736,13.75-2.736c9.879,0,18.818,3.995,25.29,10.467c6.472,6.483,10.467,15.422,10.467,25.301
			v-81.177C985.775,1112.898,985.786,1112.351,985.817,1111.824z"/>
		<path style="fill:#F2C3B6;" d="M1178.385,1080.423v224.289c0,13.688-11.086,24.774-24.774,24.774
			c-13.677,0-24.774-11.086-24.774-24.774v-192.196c0.237-9.517,4.201-18.116,10.467-24.382c6.472-6.472,15.401-10.467,25.28-10.467
			C1169.476,1077.667,1174.132,1078.648,1178.385,1080.423z"/>
	</g>
	<g>
		<path style="fill:#FFD3C5;" d="M1413.781,1313.063c0,2.343,0.227,4.717,0.702,7.102l0.526,2.684l0.496,2.488l20.428,103.587
			c4.078,20.676,13.099,39.979,26.219,56.299c2.849,3.572,5.915,6.999,9.167,10.271l48.743,49.012h195.448l38.648-38.844
			c6.245-6.276,11.778-13.13,16.547-20.428c13.801-21.037,21.296-45.791,21.296-71.319v-219.303
			c0-14.885-9.084-27.644-22.008-33.032c-4.232-1.765-8.877-2.736-13.75-2.736c-9.879,0-18.818,3.995-25.29,10.467
			c-6.472,6.483-10.467,15.422-10.467,25.301v-81.177c0-0.537-0.01-1.084-0.041-1.61c-0.619-14.173-9.497-26.199-21.935-31.401
			c-4.243-1.776-8.898-2.756-13.791-2.756c-9.868,0-18.818,3.995-25.29,10.467c-6.472,6.472-10.467,15.422-10.467,25.301v-61.234
			c0-19.747-16.01-35.758-35.768-35.758c-9.879,0-18.818,4.005-25.29,10.477c-6.472,6.472-10.467,15.401-10.467,25.28v61.234
			c0-0.31,0-0.619-0.01-0.919c-0.237-9.517-4.201-18.116-10.467-24.382c-6.472-6.472-15.401-10.467-25.28-10.467
			c-4.893,0-9.548,0.981-13.801,2.756c-12.903,5.399-21.967,18.147-21.967,33.012v272.805l-15.535-63.391l-4.532-18.457
			c-4.583-18.694-22.885-30.637-41.848-27.283C1426.24,1280.237,1413.781,1295.69,1413.781,1313.063z"/>
		<path style="fill:#F2C3B6;" d="M1648.96,1113.435v191.277c0,13.688,11.097,24.774,24.774,24.774
			c13.688,0,24.774-11.086,24.774-24.774v-224.289c-4.243-1.776-8.898-2.756-13.791-2.756c-9.868,0-18.818,3.995-25.29,10.467
			C1652.955,1094.606,1648.96,1103.556,1648.96,1113.435z"/>
		<path style="fill:#F2C3B6;" d="M1720.444,1111.824v192.888c0,13.688,11.097,24.774,24.774,24.774
			c13.677,0,24.774-11.086,24.774-24.774v-143.133c-4.232-1.765-8.877-2.736-13.75-2.736c-9.879,0-18.818,3.995-25.29,10.467
			c-6.472,6.483-10.467,15.422-10.467,25.301v-81.177C1720.485,1112.898,1720.475,1112.351,1720.444,1111.824z"/>
		<path style="fill:#F2C3B6;" d="M1527.876,1080.423v224.289c0,13.688,11.086,24.774,24.774,24.774
			c13.677,0,24.774-11.086,24.774-24.774v-192.196c-0.237-9.517-4.201-18.116-10.467-24.382
			c-6.472-6.472-15.401-10.467-25.28-10.467C1536.785,1077.667,1532.129,1078.648,1527.876,1080.423z"/>
	</g>
</g>
</svg>
