<?xml version="1.0" encoding="iso-8859-1"?>
<!-- Generator: Adobe Illustrator 25.2.0, SVG Export Plug-In . SVG Version: 6.00 Build 0)  -->
<svg version="1.1" id="Layer_1" xmlns="http://www.w3.org/2000/svg" xmlns:xlink="http://www.w3.org/1999/xlink" x="0px" y="0px"
	 viewBox="0 0 2048 2048" style="enable-background:new 0 0 2048 2048;" xml:space="preserve">
<g>
	<path style="fill:#E8E8FF;" d="M1217.435,420.79C1178.24,324.15,1083.448,256,972.748,256
		c-105.094,0-195.85,61.419-238.317,150.328c-16.434,34.415-25.641,72.95-25.641,113.641v256.96v214.937l438.214,43.654
		l89.703-192.506V519.969C1236.707,484.883,1229.863,451.406,1217.435,420.79z"/>
	<path style="fill:#4B5A99;" d="M919.288,1703.525v-281.26l0.103-0.65c35.221,7.678,71.69,6.69,106.818-2.301v284.212H919.288z"/>
	<path style="fill:#E8E8FF;" d="M1066.735,1064.506l-357.946,38.152c0.506,24.206-1.528,94.121,1.941,117.616
		c2.323,16.888,6.803,38.152,15.763,61.595c10.426,27.283,23.494,48.557,34.467,63.732c40,56.908,97.332,89.424,158.431,100.418
		c35.221,6.338,71.69,5.522,106.818-1.899c54.833-11.582,106.374-39.267,144.733-80.95L1066.735,1064.506z"/>
	<path style="fill:#FDC424;" d="M1047.422,1102.658c2.395-39.494,12.47-76.924,28.769-110.792
		c32.588-67.778,90.034-121.332,160.516-148.852c33.621-13.141,70.204-20.346,108.48-20.346
		c164.748,0,298.323,133.564,298.323,298.323c0,91.995-41.641,174.276-107.107,228.975
		c-51.788,43.293-118.452,69.347-191.215,69.347c-38.885,0-76.047-7.443-110.111-20.986h-0.01
		c-22.906-9.104-44.418-20.955-64.124-35.159c-75.148-54.163-124.077-142.452-124.077-242.178
		C1046.865,1114.839,1047.05,1108.717,1047.422,1102.658z"/>
	<path style="fill:#3A4875;" d="M1026.209,1678.73v-0.01h220.305c24.867,0,45.027,20.16,45.027,45.027v47.288
		c0,11.582-9.394,20.965-20.965,20.965H674.921c-11.582,0-20.965-9.383-20.965-20.965v-47.288c0-24.867,20.16-45.027,45.027-45.027
		h220.305v0.01H1026.209z"/>
	<path style="fill:#4B5A99;" d="M1022.163,991.866h54.028c-16.299,33.868-26.374,71.298-28.769,110.792H708.79h-17.414
		c-12.614,0-22.844-10.23-22.844-22.844v-65.105c0-12.614,10.23-22.844,22.844-22.844h17.414h214.544H1022.163z"/>
	<rect x="923.334" y="628.697" style="fill:#D8D8FF;" width="98.828" height="363.169"/>
	<path style="fill:#69BEF9;" d="M1353.699,670.938c-7.305,0-14.539-3.216-19.429-9.385c-8.5-10.722-6.7-26.304,4.023-34.804
		c5.366-4.254,8.443-10.61,8.443-17.438c0-6.532-3.15-12.83-8.644-17.278c-10.633-8.61-12.273-24.211-3.662-34.844
		c8.611-10.633,24.212-12.271,34.844-3.663c17.166,13.9,27.011,34.233,27.011,55.785c0,22.048-9.918,42.556-27.212,56.266
		C1364.52,669.186,1359.09,670.938,1353.699,670.938z"/>
	<path style="fill:#69BEF9;" d="M1413.652,743.619c-7.304,0-14.536-3.214-19.427-9.382c-8.502-10.721-6.703-26.303,4.018-34.805
		c27.796-22.042,43.739-55.003,43.739-90.43c0-34.352-16.016-67.03-43.94-89.654c-10.632-8.613-12.268-24.214-3.655-34.845
		c8.613-10.631,24.213-12.268,34.846-3.654c39.592,32.076,62.298,78.785,62.298,128.153c0,50.645-22.78,97.756-62.501,129.254
		C1424.477,741.866,1419.044,743.619,1413.652,743.619z"/>
	<path style="fill:#69BEF9;" d="M591.798,670.938c-5.392,0-10.822-1.752-15.375-5.362c-17.292-13.71-27.21-34.217-27.21-56.265
		c0-21.552,9.845-41.885,27.011-55.785c10.634-8.61,26.233-6.97,34.844,3.663c8.61,10.634,6.97,26.234-3.663,34.844
		c-5.493,4.448-8.644,10.745-8.644,17.278c0,6.828,3.078,13.184,8.444,17.439c10.722,8.5,12.523,24.083,4.022,34.804
		C606.337,667.722,599.102,670.938,591.798,670.938z"/>
	<path style="fill:#69BEF9;" d="M531.845,743.619c-5.393,0-10.823-1.753-15.377-5.363c-39.727-31.503-62.512-78.614-62.512-129.254
		c0-49.362,22.711-96.073,62.309-128.153c10.633-8.613,26.232-6.976,34.845,3.654c8.613,10.632,6.976,26.232-3.655,34.845
		c-27.932,22.629-43.952,55.306-43.952,89.653c0,35.422,15.946,68.383,43.749,90.43c10.721,8.502,12.52,24.084,4.019,34.805
		C546.382,740.404,539.148,743.619,531.845,743.619z"/>
	<g>
		<path style="fill:#F9AC00;" d="M1456.805,1216.96h-9.724v-191.948h9.724c13.682,0,24.774-11.092,24.774-24.775
			c0-13.682-11.092-24.774-24.774-24.774h-69.007c-13.682,0-24.774,11.092-24.774,24.774c0,13.682,11.092,24.775,24.774,24.775
			h9.735v191.948h-9.735c-13.682,0-24.774,11.092-24.774,24.774s11.092,24.774,24.774,24.774h69.007
			c13.682,0,24.774-11.092,24.774-24.774S1470.488,1216.96,1456.805,1216.96z"/>
		<path style="fill:#F9AC00;" d="M1345.5,1135.944c-0.063-0.689-0.157-1.369-0.276-2.041c-0.009-0.053-0.019-0.105-0.028-0.158
			c-0.129-0.704-0.287-1.397-0.474-2.078c-0.003-0.01-0.005-0.019-0.008-0.028c-0.211-0.764-0.456-1.513-0.736-2.245
			l-51.702-137.856c-3.626-9.669-12.87-16.075-23.198-16.075c-10.327,0-19.571,6.406-23.196,16.076l-51.684,137.835
			c-0.284,0.741-0.533,1.498-0.746,2.271c-0.002,0.006-0.003,0.012-0.005,0.018c-0.188,0.683-0.346,1.379-0.475,2.084
			c-0.009,0.051-0.018,0.102-0.027,0.154c-0.119,0.672-0.213,1.353-0.277,2.043c-0.007,0.072-0.01,0.144-0.016,0.216
			c-0.057,0.686-0.094,1.379-0.094,2.08v103.494c0,13.682,11.092,24.774,24.774,24.774s24.774-11.092,24.774-24.774v-78.72h53.956
			v78.72c0,13.682,11.092,24.774,24.774,24.774s24.774-11.092,24.774-24.774V1138.24c0-0.701-0.036-1.393-0.094-2.079
			C1345.51,1136.089,1345.507,1136.016,1345.5,1135.944z M1269.081,1070.793l16.004,42.672h-32.005L1269.081,1070.793z"/>
	</g>
	<path style="fill:#D8D8FF;" d="M488.846,939.716c-6.34,0-12.68-2.418-17.517-7.256c-9.675-9.674-9.676-25.36-0.002-35.036
		L609.33,759.412c4.646-4.647,10.948-7.257,17.519-7.257h197.657c13.682,0,24.774,11.092,24.774,24.774
		c0,13.682-11.092,24.774-24.774,24.774H637.111L506.365,932.459C501.528,937.297,495.186,939.716,488.846,939.716z"/>
	<path style="fill:#D8D8FF;" d="M1145.678,532.284c-5.562,0-11.157-1.863-15.777-5.686c-10.543-8.722-12.019-24.338-3.297-34.881
		l126-152.291c4.188-5.061,10.215-8.253,16.756-8.87l194.312-18.364c13.614-1.283,25.708,8.711,26.995,22.333
		c1.287,13.622-8.712,25.708-22.334,26.995l-184.098,17.399l-119.455,144.382C1159.882,529.223,1152.807,532.284,1145.678,532.284z"
		/>
	<path style="fill:#D8D8FF;" d="M898.632,431.102H528.021c-13.682,0-24.774-11.092-24.774-24.774
		c0-13.682,11.092-24.774,24.774-24.774h370.611c13.682,0,24.774,11.092,24.774,24.774
		C923.406,420.01,912.315,431.102,898.632,431.102z"/>
	<path style="fill:#F06561;" d="M488.846,914.942c8.939,8.939,14.472,21.295,14.472,34.942c0,27.283-22.121,49.414-49.414,49.414
		s-49.414-22.132-49.414-49.414c0-27.293,22.121-49.414,49.414-49.414C467.551,900.47,479.907,906.003,488.846,914.942z"/>
	<path style="fill:#F06561;" d="M1546.694,294.142c21.027,17.394,23.969,48.537,6.565,69.564
		c-17.394,21.027-48.537,23.979-69.564,6.575c-10.519-8.692-16.516-20.831-17.693-33.424c-1.187-12.594,2.426-25.631,11.117-36.139
		C1494.514,279.69,1525.667,276.738,1546.694,294.142z"/>
	<path style="fill:#F06561;" d="M478.606,356.914c27.293,0,49.414,22.132,49.414,49.414c0,27.293-22.121,49.414-49.414,49.414
		c-27.283,0-49.404-22.121-49.404-49.414C429.203,379.045,451.324,356.914,478.606,356.914z"/>
</g>
</svg>
