<?xml version="1.0" encoding="iso-8859-1"?>
<!-- Generator: Adobe Illustrator 25.2.0, SVG Export Plug-In . SVG Version: 6.00 Build 0)  -->
<svg version="1.1" id="Layer_1" xmlns="http://www.w3.org/2000/svg" xmlns:xlink="http://www.w3.org/1999/xlink" x="0px" y="0px"
	 viewBox="0 0 2048 2048" style="enable-background:new 0 0 2048 2048;" xml:space="preserve">
<g>
	<path style="fill:#E8E8FF;" d="M1475.992,1531.15l-118.272-118.293l-448.255-25.783c-3.664-3.664-7.215-7.38-10.672-11.168H618.95
		h-0.01l0.01,279.925h750.794c38.653,0,73.643-15.657,98.992-40.976c5.46-5.47,10.466-11.374,14.966-17.68L1475.992,1531.15z"/>
	<polygon style="fill:#E8E8FF;" points="618.95,851.79 618.939,851.79 618.939,1131.725 618.95,1131.725 811.05,1131.725 
		987.235,851.79 	"/>
	<path style="fill:#E8E8FF;" d="M1369.744,327.662H618.95l-0.01,0.01v279.935h0.01h750.794c38.643,0,73.643-15.657,98.992-40.976
		c25.318-25.359,40.976-60.349,40.976-98.992C1509.712,390.344,1447.071,327.662,1369.744,327.662z"/>
	<path style="fill:#4B5A99;" d="M1767.972,1648.132c32.037,32.037,32.037,83.974,0,116.022l-0.64,0.63
		c-32.037,32.048-83.985,32.048-116.022,0l-167.608-167.608l-36.868-36.868l29.158-29.158l58.336-58.336l29.168-29.168
		L1767.972,1648.132z"/>
	<path style="fill:#D8D8FF;" d="M1534.328,1472.814l-58.336,58.336l-118.272-118.293c9.991-7.937,19.641-16.535,28.889-25.783
		c10.497-10.497,20.168-21.52,28.982-32.987L1534.328,1472.814z"/>
	<path style="fill:#4B5A99;" d="M811.05,1131.725c3.994-80.672,36.796-160.187,98.414-221.795
		c23.605-23.605,49.842-42.988,77.771-58.14c127.912-69.39,291.216-50.017,399.374,58.14
		c121.265,121.255,130.926,311.849,28.982,444.158c-8.814,11.467-18.485,22.49-28.982,32.987
		c-9.248,9.248-18.898,17.846-28.889,25.783c-132.443,105.319-325.741,96.721-448.255-25.783c-3.664-3.664-7.215-7.38-10.672-11.168
		C835.997,1307.188,806.746,1218.786,811.05,1131.725z"/>
	<path style="fill:#FDC424;" d="M618.939,1375.907c33.544,37.002,53.97,86.101,53.97,139.968c0,53.867-20.426,102.955-53.96,139.957
		c-38.148,42.07-93.233,68.492-154.5,68.492c-115.124,0-208.45-93.326-208.45-208.45c0-115.124,93.325-208.46,208.45-208.46
		C525.707,1307.415,580.792,1333.837,618.939,1375.907z"/>
	<path style="fill:#FDC424;" d="M618.939,851.79c33.544,37.002,53.97,86.101,53.97,139.968c0,53.867-20.426,102.966-53.97,139.968
		c-38.148,42.059-93.233,68.482-154.49,68.482c-115.124,0-208.45-93.325-208.45-208.45s93.325-208.46,208.45-208.46
		C525.707,783.297,580.792,809.72,618.939,851.79z"/>
	<path style="fill:#FDC424;" d="M618.939,327.673c33.544,37.002,53.97,86.101,53.97,139.968s-20.426,102.966-53.97,139.968
		c-38.148,42.059-93.233,68.482-154.49,68.482C349.325,676.09,256,582.764,256,467.64s93.325-208.46,208.45-208.46
		C525.707,259.18,580.792,285.603,618.939,327.673z"/>
	<path style="fill:#F9AC00;" d="M464.45,605.575c-76.051,0-137.924-61.877-137.924-137.934c0-13.681,11.09-24.771,24.771-24.771
		c13.681,0,24.771,11.09,24.771,24.771c0,48.74,39.648,88.392,88.381,88.392c48.739,0,88.392-39.652,88.392-88.392
		c0-13.681,11.09-24.771,24.771-24.771c13.681,0,24.771,11.09,24.771,24.771C602.384,543.698,540.507,605.575,464.45,605.575z"/>
	<path style="fill:#F9AC00;" d="M512.103,1074.07h-95.297c-13.681,0-24.771-11.09-24.771-24.771
		c0-13.681,11.09-24.771,24.771-24.771h95.297c13.681,0,24.771,11.09,24.771,24.771
		C536.874,1062.979,525.784,1074.07,512.103,1074.07z"/>
	<path style="fill:#F9AC00;" d="M549.332,1615.424c-6.863,0.001-13.69-2.834-18.587-8.385
		c-16.815-19.065-40.979-29.999-66.295-29.999c-25.316,0-49.479,10.934-66.295,29.999c-9.049,10.259-24.703,11.242-34.963,2.191
		c-10.26-9.049-11.242-24.703-2.192-34.964c26.216-29.722,63.922-46.77,103.45-46.77s77.234,17.047,103.45,46.77
		c9.05,10.261,8.069,25.914-2.192,34.964C560.999,1613.383,555.152,1615.424,549.332,1615.424z"/>
	<path style="fill:#F9AC00;" d="M402.057,414.723c-13.681,0-24.771-11.09-24.771-24.771v-20.178
		c0-13.681,11.09-24.771,24.771-24.771c13.681,0,24.771,11.09,24.771,24.771v20.178
		C426.828,403.632,415.738,414.723,402.057,414.723z"/>
	<path style="fill:#F9AC00;" d="M526.842,414.723c-13.681,0-24.771-11.09-24.771-24.771v-20.178
		c0-13.681,11.09-24.771,24.771-24.771c13.681,0,24.771,11.09,24.771,24.771v20.178
		C551.613,403.632,540.523,414.723,526.842,414.723z"/>
	<path style="fill:#F9AC00;" d="M402.057,954.714c-13.681,0-24.771-11.09-24.771-24.771v-20.179
		c0-13.681,11.09-24.771,24.771-24.771c13.681,0,24.771,11.09,24.771,24.771v20.179
		C426.828,943.624,415.738,954.714,402.057,954.714z"/>
	<path style="fill:#F9AC00;" d="M526.842,954.714c-13.681,0-24.771-11.09-24.771-24.771v-20.179
		c0-13.681,11.09-24.771,24.771-24.771c13.681,0,24.771,11.09,24.771,24.771v20.179
		C551.613,943.624,540.523,954.714,526.842,954.714z"/>
	<path style="fill:#F9AC00;" d="M402.057,1482.258c-13.681,0-24.771-11.09-24.771-24.771v-20.178
		c0-13.681,11.09-24.771,24.771-24.771c13.681,0,24.771,11.09,24.771,24.771v20.178
		C426.828,1471.168,415.738,1482.258,402.057,1482.258z"/>
	<path style="fill:#F9AC00;" d="M526.842,1482.258c-13.681,0-24.771-11.09-24.771-24.771v-20.178
		c0-13.681,11.09-24.771,24.771-24.771c13.681,0,24.771,11.09,24.771,24.771v20.178
		C551.613,1471.168,540.523,1482.258,526.842,1482.258z"/>
	<ellipse style="fill:#69BEF9;" cx="1148.037" cy="1148.497" rx="231.39" ry="231.387"/>
</g>
</svg>
