<?xml version="1.0" encoding="iso-8859-1"?>
<!-- Generator: Adobe Illustrator 25.2.0, SVG Export Plug-In . SVG Version: 6.00 Build 0)  -->
<svg version="1.1" id="Layer_1" xmlns="http://www.w3.org/2000/svg" xmlns:xlink="http://www.w3.org/1999/xlink" x="0px" y="0px"
	 viewBox="0 0 2048 2048" style="enable-background:new 0 0 2048 2048;" xml:space="preserve">
<g>
	<path style="fill:#E8E8FF;" d="M775.019,532.263v95.639c-41.858,51.695-105.837,84.748-177.538,84.748
		c-72.557,0-137.208-33.848-179.024-86.606v-93.781c0-86.534,70.142-156.666,156.666-156.666h43.231
		C704.877,375.597,775.019,445.729,775.019,532.263z"/>
	<path style="fill:#E8E8FF;" d="M775.019,1611.613v95.639C733.161,1758.947,669.182,1792,597.481,1792
		c-72.557,0-137.208-33.848-179.024-86.606v-93.781c0-86.524,70.142-156.666,156.666-156.666h43.231
		C704.877,1454.947,775.019,1525.089,775.019,1611.613z"/>
	<path style="fill:#E8E8FF;" d="M1628.057,1071.938v95.639c-41.858,51.695-105.837,84.748-177.538,84.748
		c-72.557,0-137.208-33.848-179.025-86.606v-93.781c0-86.524,70.142-156.666,156.666-156.666h43.231
		C1557.915,915.272,1628.057,985.414,1628.057,1071.938z"/>
	<ellipse style="fill:#D8D8FF;" cx="596.738" cy="1617.022" rx="113.455" ry="97.249"/>
	<path style="fill:#D8D8FF;" d="M1449.776,980.098c62.658,0,113.455,43.541,113.455,97.249c0,53.708-50.797,97.239-113.455,97.239
		s-113.456-43.53-113.456-97.239C1336.32,1023.639,1387.117,980.098,1449.776,980.098z"/>
	<path style="fill:#D8D8FF;" d="M596.738,440.423c62.658,0,113.456,43.541,113.456,97.249s-50.797,97.239-113.456,97.239
		s-113.455-43.53-113.455-97.239S534.08,440.423,596.738,440.423z"/>
	<polygon style="fill:#91DE97;" points="1667.458,1335.35 1667.458,1584.434 1107.025,1584.434 961.734,1688.217 1003.241,1584.434 
		920.217,1584.434 920.217,1335.35 	"/>
	<polygon style="fill:#F06561;" points="1127.783,795.675 1127.783,1044.759 878.699,1044.759 920.217,1148.542 774.916,1044.759 
		380.542,1044.759 380.542,795.675 	"/>
	<polygon style="fill:#FDC424;" points="1667.458,256 1667.458,505.084 1107.025,505.084 961.734,608.867 1003.241,505.084 
		920.217,505.084 920.217,256 	"/>
	<path style="fill:#4B5A99;" d="M825.806,1563.675c0,54.4-19.025,104.361-50.787,143.577v-95.639
		c0-86.524-70.142-156.666-156.666-156.666h-43.231c-86.524,0-156.666,70.142-156.666,156.666v93.781
		c-30.865-38.937-49.301-88.176-49.301-141.719c0-126.101,102.225-228.325,228.325-228.325S825.806,1437.574,825.806,1563.675z"/>
	<path style="fill:#4B5A99;" d="M1678.844,1024c0,54.4-19.025,104.361-50.787,143.577v-95.639
		c0-86.524-70.142-156.666-156.666-156.666h-43.231c-86.524,0-156.666,70.142-156.666,156.666v93.781
		c-30.865-38.937-49.301-88.176-49.301-141.719c0-126.101,102.224-228.325,228.325-228.325S1678.844,897.899,1678.844,1024z"/>
	<path style="fill:#4B5A99;" d="M825.806,484.325c0,54.4-19.025,104.361-50.787,143.577v-95.639
		c0-86.534-70.142-156.666-156.666-156.666h-43.231c-86.524,0-156.666,70.132-156.666,156.666v93.781
		c-30.865-38.937-49.301-88.175-49.301-141.719C369.156,358.225,471.381,256,597.481,256S825.806,358.225,825.806,484.325z"/>
	<path style="fill:#F9AC00;" d="M1584.433,363.799h-581.192c-13.682,0-24.774-11.092-24.774-24.774s11.092-24.774,24.774-24.774
		h581.192c13.682,0,24.774,11.092,24.774,24.774S1598.116,363.799,1584.433,363.799z"/>
	<path style="fill:#F9AC00;" d="M1584.433,446.823h-581.192c-13.682,0-24.774-11.092-24.774-24.774s11.092-24.774,24.774-24.774
		h581.192c13.682,0,24.774,11.092,24.774,24.774S1598.116,446.823,1584.433,446.823z"/>
	<path style="fill:#ED4A46;" d="M712.65,903.474H463.567c-13.682,0-24.774-11.092-24.774-24.774
		c0-13.682,11.092-24.774,24.774-24.774H712.65c13.682,0,24.774,11.092,24.774,24.774
		C737.424,892.382,726.333,903.474,712.65,903.474z"/>
	<path style="fill:#ED4A46;" d="M1044.759,986.509H463.567c-13.682,0-24.774-11.092-24.774-24.774s11.092-24.774,24.774-24.774
		h581.193c13.682,0,24.774,11.092,24.774,24.774S1058.442,986.509,1044.759,986.509z"/>
	<path style="fill:#C9C9F2;" d="M1462.162,1123.097h-24.774c-13.682,0-24.774-11.092-24.774-24.774
		c0-13.682,11.092-24.774,24.774-24.774h24.774c13.682,0,24.774,11.092,24.774,24.774
		C1486.937,1112.005,1475.845,1123.097,1462.162,1123.097z"/>
	<path style="fill:#C9C9F2;" d="M609.125,1662.771h-24.774c-13.682,0-24.774-11.092-24.774-24.774
		c0-13.682,11.092-24.774,24.774-24.774h24.774c13.682,0,24.774,11.092,24.774,24.774
		C633.899,1651.679,622.807,1662.771,609.125,1662.771z"/>
	<path style="fill:#C9C9F2;" d="M609.125,583.422h-24.774c-13.682,0-24.774-11.092-24.774-24.774
		c0-13.682,11.092-24.774,24.774-24.774h24.774c13.682,0,24.774,11.092,24.774,24.774
		C633.899,572.33,622.807,583.422,609.125,583.422z"/>
	<path style="fill:#71C877;" d="M1044.759,1418.374c22.927,0,41.507,18.591,41.507,41.517c0,22.927-18.581,41.517-41.507,41.517
		c-22.926,0-41.517-18.591-41.517-41.517C1003.241,1436.965,1021.832,1418.374,1044.759,1418.374z"/>
	<path style="fill:#71C877;" d="M1210.808,1418.374c22.927,0,41.517,18.591,41.517,41.517c0,22.927-18.591,41.517-41.517,41.517
		c-22.926,0-41.507-18.591-41.507-41.517C1169.301,1436.965,1187.881,1418.374,1210.808,1418.374z"/>
	<path style="fill:#71C877;" d="M1376.867,1418.374c22.927,0,41.507,18.591,41.507,41.517c0,22.927-18.581,41.517-41.507,41.517
		c-22.926,0-41.517-18.591-41.517-41.517C1335.35,1436.965,1353.941,1418.374,1376.867,1418.374z"/>
	<path style="fill:#71C877;" d="M1542.916,1418.374c22.926,0,41.517,18.591,41.517,41.517c0,22.927-18.591,41.517-41.517,41.517
		c-22.927,0-41.507-18.591-41.507-41.517C1501.409,1436.965,1519.99,1418.374,1542.916,1418.374z"/>
</g>
</svg>
