<?xml version="1.0" encoding="iso-8859-1"?>
<!-- Generator: Adobe Illustrator 25.2.0, SVG Export Plug-In . SVG Version: 6.00 Build 0)  -->
<svg version="1.1" id="Layer_1" xmlns="http://www.w3.org/2000/svg" xmlns:xlink="http://www.w3.org/1999/xlink" x="0px" y="0px"
	 viewBox="0 0 2048 2048" style="enable-background:new 0 0 2048 2048;" xml:space="preserve">
<g>
	<path style="fill:#E8E8FF;" d="M1792,506.777v1191.185c0,51.933-42.106,94.039-94.039,94.039H350.039
		c-51.933,0-94.039-42.106-94.039-94.039V381.388l726.751-51.066L1792,506.777z"/>
	<path style="fill:#F06561;" d="M1457.466,992.392v366.668c0,26.942-22.173,49.115-49.115,49.115h-57.714V941.409l61.203-18.395
		L1457.466,992.392z"/>
	<path style="fill:#F06561;" d="M780.325,825.806h438.565l15.443,59.954l-83.83,38.699l-589.481-1.321v-0.124v-47.659
		c0-27.004,22.101-49.548,49.115-49.548H780.325z"/>
	<path style="fill:#69BEF9;" d="M1350.637,1408.176v57.714c0,26.952-22.173,49.115-49.115,49.115H849.28l-257.363,140.501v-140.501
		h-88.609c-27.014,0-49.115-22.101-49.115-49.115v-493.76c0-27.014,22.101-49.115,49.115-49.115l57.714,0.124l589.481,1.321
		l96.093-6.369l104.041,23.319V1408.176z"/>
	<path style="fill:#FDC424;" d="M1630.452,843.025c17.208,10.323,17.208,35.262,0,45.574l-172.986,103.794l-14.503,8.702
		c-17.703,10.612-40.237-2.137-40.237-22.792v-36.893h-52.088h-41.414c-42.137,0-81.373,21.492-104.062,57.001l-38.297,59.933
		c-6.772,10.601-23.164,5.812-23.164-6.751v-77.399c0-17.228,2.374-33.91,6.802-49.734c11.231-40.083,35.696-74.643,68.387-98.653
		c30.462-22.379,68.077-35.592,108.779-35.592h75.056v-36.893c0-20.655,22.534-33.404,40.237-22.792L1630.452,843.025z"/>
	<path style="fill:#4B5A99;" d="M1792,350.039v156.738h-720.981l-94.039-125.388H256v-31.35C256,298.106,298.106,256,350.039,256
		h1347.923C1749.894,256,1792,298.106,1792,350.039z"/>
	<path style="fill:#3CB6F6;" d="M1146.467,1160.351c32.279,0,58.591,26.374,58.591,58.653c0,32.289-26.312,58.663-58.591,58.663
		c-32.279,0-58.663-26.374-58.663-58.663C1087.804,1186.725,1114.188,1160.351,1146.467,1160.351z"/>
	<path style="fill:#3CB6F6;" d="M902.41,1160.351c32.289,0,58.663,26.374,58.663,58.653c0,32.289-26.374,58.663-58.663,58.663
		c-32.279,0-58.653-26.374-58.653-58.663C843.757,1186.725,870.132,1160.351,902.41,1160.351z"/>
	<path style="fill:#3CB6F6;" d="M658.364,1160.351c32.279,0,58.663,26.374,58.663,58.653c0,32.289-26.385,58.663-58.663,58.663
		c-32.279,0-58.591-26.374-58.591-58.663C599.773,1186.725,626.085,1160.351,658.364,1160.351z"/>
	<circle style="fill:#91DE97;" cx="1643.355" cy="379.871" r="49.548"/>
	<circle style="fill:#FDC424;" cx="1445.161" cy="379.871" r="49.548"/>
	<circle style="fill:#F06561;" cx="1246.968" cy="379.871" r="49.548"/>
</g>
</svg>
