<?xml version="1.0" encoding="iso-8859-1"?>
<!-- Generator: Adobe Illustrator 25.2.0, SVG Export Plug-In . SVG Version: 6.00 Build 0)  -->
<svg version="1.1" id="Layer_1" xmlns="http://www.w3.org/2000/svg" xmlns:xlink="http://www.w3.org/1999/xlink" x="0px" y="0px"
	 viewBox="0 0 2048 2048" style="enable-background:new 0 0 2048 2048;" xml:space="preserve">
<g>
	<path style="fill:#F06561;" d="M970.545,821.455c-46.486-46.486-78.608-107.357-89.102-175.36H425.204
		c-32.853,0-59.49,26.636-59.49,59.49v466.164c0,32.853,26.636,59.49,59.49,59.49H512v170.667l170.667-170.667h170.667
		l341.333-195.048V914.286C1107.139,914.286,1027.901,878.811,970.545,821.455z"/>
	<path style="fill:#ED4A46;" d="M780.19,768H463.238c-13.465,0-24.381-10.916-24.381-24.381c0-13.465,10.916-24.381,24.381-24.381
		H780.19c13.465,0,24.381,10.916,24.381,24.381C804.571,757.084,793.656,768,780.19,768z"/>
	<path style="fill:#ED4A46;" d="M828.952,865.524H463.238c-13.465,0-24.381-10.916-24.381-24.381
		c0-13.465,10.916-24.381,24.381-24.381h365.714c13.465,0,24.381,10.916,24.381,24.381
		C853.333,854.608,842.418,865.524,828.952,865.524z"/>
	<path style="fill:#ED4A46;" d="M999.619,963.048H463.238c-13.465,0-24.381-10.916-24.381-24.381s10.916-24.381,24.381-24.381
		h536.381c13.465,0,24.381,10.916,24.381,24.381S1013.084,963.048,999.619,963.048z"/>
	<path style="fill:#ED4A46;" d="M731.429,1060.571h-268.19c-13.465,0-24.381-10.916-24.381-24.381
		c0-13.465,10.916-24.381,24.381-24.381h268.19c13.465,0,24.381,10.916,24.381,24.381
		C755.81,1049.656,744.894,1060.571,731.429,1060.571z"/>
	<path style="fill:#ED4A46;" d="M731.429,1158.095h-268.19c-13.465,0-24.381-10.916-24.381-24.381
		c0-13.465,10.916-24.381,24.381-24.381h268.19c13.465,0,24.381,10.916,24.381,24.381
		C755.81,1147.18,744.894,1158.095,731.429,1158.095z"/>
	<path style="fill:#91DE97;" d="M1682.286,1095.68v466.164c0,32.853-26.636,59.49-59.49,59.49H1536V1792l-170.667-170.667h-452.51
		c-32.853,0-59.49-26.636-59.49-59.49v-330.606V1095.68c0-32.853,26.636-59.49,59.49-59.49h281.844h428.13
		C1655.65,1036.19,1682.286,1062.827,1682.286,1095.68z"/>
	<path style="fill:#E8E8FF;" d="M1213.877,552.503c-5.892-2.53-12.384-3.931-19.21-3.931c-26.931,0-48.762,21.831-48.762,48.762
		s21.831,48.762,48.762,48.762c11.53,0,22.116-3.992,30.456-10.687c11.154-8.93,18.306-22.664,18.306-38.075
		C1243.429,577.219,1231.258,559.949,1213.877,552.503z M1418.789,821.455c-57.356,57.356-136.594,92.83-224.122,92.83
		c-87.528,0-166.766-35.474-224.122-92.83c-46.486-46.486-78.608-107.357-89.102-175.36c-2.458-15.898-3.728-32.183-3.728-48.762
		c0-87.528,35.474-166.766,92.83-224.122c57.356-57.356,136.594-92.83,224.122-92.83c87.528,0,166.766,35.474,224.122,92.83
		s92.83,136.594,92.83,224.122S1476.145,764.099,1418.789,821.455z"/>
	<path style="fill:#71C877;" d="M1584.762,1158.095H950.857c-13.465,0-24.381-10.916-24.381-24.381
		c0-13.465,10.916-24.381,24.381-24.381h633.905c13.465,0,24.381,10.916,24.381,24.381
		C1609.143,1147.18,1598.227,1158.095,1584.762,1158.095z"/>
	<path style="fill:#71C877;" d="M1584.762,1255.619H950.857c-13.465,0-24.381-10.916-24.381-24.381
		c0-13.465,10.916-24.381,24.381-24.381h633.905c13.465,0,24.381,10.916,24.381,24.381
		C1609.143,1244.703,1598.227,1255.619,1584.762,1255.619z"/>
	<path style="fill:#71C877;" d="M1584.762,1353.143H950.857c-13.465,0-24.381-10.916-24.381-24.381
		c0-13.465,10.916-24.381,24.381-24.381h633.905c13.465,0,24.381,10.916,24.381,24.381
		C1609.143,1342.227,1598.227,1353.143,1584.762,1353.143z"/>
	<path style="fill:#71C877;" d="M1584.762,1450.667H950.857c-13.465,0-24.381-10.916-24.381-24.381
		c0-13.465,10.916-24.381,24.381-24.381h633.905c13.465,0,24.381,10.916,24.381,24.381
		C1609.143,1439.751,1598.227,1450.667,1584.762,1450.667z"/>
	<path style="fill:#71C877;" d="M1584.762,1548.19H950.857c-13.465,0-24.381-10.916-24.381-24.381
		c0-13.465,10.916-24.381,24.381-24.381h633.905c13.465,0,24.381,10.916,24.381,24.381
		C1609.143,1537.275,1598.227,1548.19,1584.762,1548.19z"/>
	<path style="fill:#D8D8FF;" d="M1194.667,377.905c-13.465,0-24.381-10.916-24.381-24.381v-73.143
		c0-13.465,10.916-24.381,24.381-24.381c13.465,0,24.381,10.916,24.381,24.381v73.143
		C1219.048,366.989,1208.132,377.905,1194.667,377.905z"/>
	<path style="fill:#D8D8FF;" d="M1194.667,938.667c-13.465,0-24.381-10.916-24.381-24.381v-73.143
		c0-13.465,10.916-24.381,24.381-24.381c13.465,0,24.381,10.916,24.381,24.381v73.143
		C1219.048,927.751,1208.132,938.667,1194.667,938.667z"/>
	<path style="fill:#D8D8FF;" d="M1367.07,449.311c-6.24,0-12.479-2.38-17.24-7.141c-9.521-9.521-9.521-24.959,0-34.48l51.718-51.718
		c9.522-9.521,24.958-9.521,34.48,0c9.521,9.521,9.521,24.959,0,34.48l-51.718,51.718
		C1379.55,446.93,1373.311,449.311,1367.07,449.311z"/>
	<path style="fill:#D8D8FF;" d="M970.545,845.836c-6.24,0-12.479-2.38-17.24-7.141c-9.521-9.521-9.521-24.959,0-34.48l51.718-51.718
		c9.523-9.521,24.958-9.52,34.48,0c9.521,9.521,9.521,24.959,0,34.48l-51.718,51.718
		C983.024,843.456,976.784,845.836,970.545,845.836z"/>
	<path style="fill:#D8D8FF;" d="M1511.619,621.714h-73.143c-13.465,0-24.381-10.916-24.381-24.381s10.916-24.381,24.381-24.381
		h73.143c13.465,0,24.381,10.916,24.381,24.381S1525.084,621.714,1511.619,621.714z"/>
	<path style="fill:#D8D8FF;" d="M950.857,621.714h-73.143c-13.465,0-24.381-10.916-24.381-24.381s10.916-24.381,24.381-24.381
		h73.143c13.465,0,24.381,10.916,24.381,24.381S964.322,621.714,950.857,621.714z"/>
	<path style="fill:#D8D8FF;" d="M1418.789,845.836c-6.24,0-12.479-2.38-17.24-7.141l-51.718-51.718
		c-9.521-9.521-9.521-24.959,0-34.48c9.522-9.521,24.958-9.521,34.48,0l51.718,51.718c9.521,9.521,9.521,24.959,0,34.48
		C1431.268,843.456,1425.029,845.836,1418.789,845.836z"/>
	<path style="fill:#D8D8FF;" d="M1022.263,449.311c-6.24,0-12.479-2.38-17.24-7.141l-51.718-51.718
		c-9.521-9.521-9.521-24.959,0-34.48c9.522-9.521,24.958-9.521,34.48,0l51.718,51.718c9.521,9.521,9.521,24.959,0,34.48
		C1034.742,446.93,1028.503,449.311,1022.263,449.311z"/>
	<path style="fill:#D8D8FF;" d="M1292.206,743.62c-7.153,0-14.238-3.132-19.053-9.151l-67.068-83.83
		c-8.412-10.514-6.707-25.857,3.807-34.269c10.516-8.412,25.858-6.706,34.269,3.807l67.067,83.83
		c8.412,10.514,6.707,25.857-3.807,34.269C1302.927,741.872,1297.548,743.62,1292.206,743.62z"/>
	<path style="fill:#D8D8FF;" d="M1213.865,576.89c-3.204,0-6.46-0.635-9.592-1.978c-12.377-5.304-18.11-19.637-12.806-32.014
		l53.932-125.836c5.305-12.376,19.638-18.11,32.014-12.805c12.377,5.304,18.11,19.637,12.806,32.014l-53.932,125.836
		C1232.324,571.352,1223.324,576.89,1213.865,576.89z"/>
	<path style="fill:#4B5A99;" d="M1194.667,938.667c-46.07,0-90.776-9.028-132.873-26.832c-40.649-17.193-77.15-41.8-108.489-73.139
		c-25.231-25.232-46.259-54.072-62.5-85.72c-16.642-32.432-27.899-67.14-33.458-103.162c-2.663-17.22-4.013-34.879-4.013-52.48
		c0-46.071,9.028-90.776,26.832-132.872c17.193-40.649,41.8-77.15,73.139-108.49c31.339-31.339,67.84-55.946,108.489-73.139
		c42.097-17.805,86.802-26.832,132.873-26.832s90.776,9.028,132.873,26.832c40.649,17.192,77.15,41.8,108.489,73.139
		c31.339,31.339,55.946,67.84,73.139,108.49c17.805,42.097,26.832,86.802,26.832,132.872s-9.028,90.776-26.832,132.873
		c-17.192,40.649-41.8,77.15-73.139,108.49c-31.339,31.339-67.84,55.946-108.489,73.139
		C1285.443,929.639,1240.737,938.667,1194.667,938.667z M1194.667,304.762c-78.153,0-151.624,30.432-206.882,85.689
		c-55.258,55.257-85.69,128.73-85.69,206.882c0,15.114,1.158,30.266,3.442,45.036c9.502,61.578,37.943,117.541,82.247,161.846
		c55.258,55.258,128.729,85.69,206.882,85.69c78.153,0,151.624-30.432,206.882-85.69c55.258-55.257,85.689-128.73,85.689-206.882
		s-30.432-151.624-85.689-206.882C1346.291,335.193,1272.819,304.762,1194.667,304.762z"/>
	<path style="fill:#FDC424;" d="M1218.583,541.519c21.64,9.271,36.792,30.772,36.792,55.814c0,19.186-8.904,36.286-22.791,47.403
		c-10.384,8.335-23.562,13.305-37.918,13.305c-33.529,0-60.708-27.18-60.708-60.709c0-33.529,27.18-60.709,60.708-60.709
		C1203.166,536.625,1211.248,538.37,1218.583,541.519z"/>
</g>
</svg>
