<?xml version="1.0" encoding="iso-8859-1"?>
<!-- Generator: Adobe Illustrator 25.2.0, SVG Export Plug-In . SVG Version: 6.00 Build 0)  -->
<svg version="1.1" id="Layer_1" xmlns="http://www.w3.org/2000/svg" xmlns:xlink="http://www.w3.org/1999/xlink" x="0px" y="0px"
	 viewBox="0 0 2048 2048" style="enable-background:new 0 0 2048 2048;" xml:space="preserve">
<g>
	<path style="fill:#E8E8FF;" d="M1150.555,832.588H732.986h-20.883c-160.464,0-291.324,126.751-297.941,285.595
		c-0.175,4.191-0.268,8.403-0.268,12.635v347.541c0,4.232,0.093,8.444,0.268,12.635c6.617,158.844,137.476,285.595,297.941,285.595
		h148.883h252.263h37.306c83.943,0,159.794-34.694,213.977-90.519c52.139-53.708,84.243-126.957,84.243-207.711v-347.541
		C1448.774,966.101,1315.252,832.588,1150.555,832.588z"/>
	<path style="fill:#D8D8FF;" d="M732.986,857.362c-13.682,0-24.774-11.092-24.774-24.774V680.805
		c0-13.682,11.092-24.774,24.774-24.774c13.682,0,24.774,11.092,24.774,24.774v151.783
		C757.76,846.271,746.668,857.362,732.986,857.362z"/>
	<circle style="fill:#F06561;" cx="732.986" cy="614.059" r="66.746"/>
	<path style="fill:#4B5A99;" d="M413.884,1118.173l0.279,0.01c-0.175,4.191-0.268,8.403-0.268,12.635v347.541
		c0,4.232,0.093,8.444,0.268,12.635l-0.279,0.01h-63.112c-38.049,0-68.893-30.844-68.893-68.893v-235.045
		c0-38.049,30.844-68.893,68.883-68.893H413.884z"/>
	<path style="fill:#D8D8FF;" d="M1095.236,1001.001l-0.083,0.681H764.883l-0.083-0.681
		c-131.19,15.886-232.816,127.618-232.816,263.092v260.408c0,53.781,43.592,97.383,97.373,97.383h203.892h307.737h89.703
		c53.781,0,97.373-43.603,97.373-97.383v-260.408C1328.062,1128.619,1226.416,1016.888,1095.236,1001.001z"/>
	<path style="fill:#91DE97;" d="M1766.121,326.926v283.603c0,39.174-31.752,70.926-70.927,70.926h-297.59l-158.895,77.719v-77.719
		h-103.112c-39.174,0-70.926-31.752-70.926-70.926V326.926c0-39.174,31.752-70.926,70.926-70.926h559.597
		C1734.369,256,1766.121,287.752,1766.121,326.926z"/>
	<g>
		<path style="fill:#71C877;" d="M1425.889,370.034c-13.682,0-24.774,11.092-24.774,24.774v56.454h-66.87v-56.454
			c0-13.682-11.092-24.774-24.774-24.774c-13.682,0-24.774,11.092-24.774,24.774v168.227c0,13.682,11.092,24.774,24.774,24.774
			c13.682,0,24.774-11.092,24.774-24.774V500.81h66.87v62.224c0,13.682,11.092,24.774,24.774,24.774
			c13.682,0,24.774-11.092,24.774-24.774V394.808C1450.663,381.126,1439.572,370.034,1425.889,370.034z"/>
		<path style="fill:#71C877;" d="M1521.332,474.343c-13.682,0-24.774,11.092-24.774,24.774v63.917
			c0,13.682,11.092,24.774,24.774,24.774s24.774-11.092,24.774-24.774v-63.917C1546.106,485.435,1535.014,474.343,1521.332,474.343z
			"/>
		<path style="fill:#71C877;" d="M1521.332,387.262c-13.682,0-24.774,11.092-24.774,24.774v6.885
			c0,13.682,11.092,24.774,24.774,24.774s24.774-11.092,24.774-24.774v-6.885C1546.106,398.354,1535.014,387.262,1521.332,387.262z"
			/>
	</g>
	<path style="fill:#C9C9F2;" d="M754.219,1344.433c-40.657,0-73.734-33.077-73.734-73.734c0-13.682,11.092-24.774,24.774-24.774
		c13.682,0,24.774,11.092,24.774,24.774c0,13.336,10.85,24.186,24.185,24.186c13.336,0,24.186-10.85,24.186-24.186
		c0-13.682,11.092-24.774,24.774-24.774c13.682,0,24.774,11.092,24.774,24.774C827.954,1311.357,794.877,1344.433,754.219,1344.433z
		"/>
	<path style="fill:#C9C9F2;" d="M1105.817,1344.433c-40.657,0-73.734-33.077-73.734-73.734c0-13.682,11.092-24.774,24.774-24.774
		c13.682,0,24.774,11.092,24.774,24.774c0,13.336,10.85,24.186,24.185,24.186c13.337,0,24.187-10.85,24.187-24.186
		c0-13.682,11.092-24.774,24.774-24.774s24.774,11.092,24.774,24.774C1179.551,1311.357,1146.474,1344.433,1105.817,1344.433z"/>
	<path style="fill:#C9C9F2;" d="M1010.085,1480.165H852.562c-13.682,0-24.774-11.092-24.774-24.774s11.092-24.774,24.774-24.774
		h157.523c13.682,0,24.775,11.092,24.775,24.774S1023.767,1480.165,1010.085,1480.165z"/>
	<path style="fill:#C9C9F2;" d="M1408.403,1710.844h-273.93c-13.682,0-24.774-11.092-24.774-24.774s11.092-24.774,24.774-24.774
		h273.93c67.728,0,122.828-55.101,122.828-122.829v-116.356c0-13.682,11.092-24.774,24.774-24.774
		c13.682,0,24.774,11.092,24.774,24.774v116.356C1580.779,1633.516,1503.452,1710.844,1408.403,1710.844z"/>
	<path style="fill:#FDC424;" d="M1113.249,1776.588c-15.339,9.765-33.559,15.412-53.089,15.412H914.075
		c-19.53,0-37.75-5.646-53.089-15.412c-27.654-17.579-46.008-48.485-46.008-83.685v-13.667c0-21.378,6.772-41.166,18.271-57.352
		c17.961-25.27,47.474-41.745,80.826-41.745h146.085c33.352,0,62.865,16.475,80.826,41.745
		c11.499,16.186,18.271,35.974,18.271,57.352v6.834v6.833C1159.257,1728.103,1140.903,1759.009,1113.249,1776.588z"/>
	<path style="fill:#4B5A99;" d="M1580.779,1187.066v235.045c0,38.049-30.844,68.883-68.883,68.883h-63.386l0.263-12.635v-347.541
		l-0.263-12.645h63.386C1549.935,1118.173,1580.779,1149.017,1580.779,1187.066z"/>
	<path style="fill:#4B5A99;" d="M1095.236,1001.001l-0.083,0.681l-30.255,69.347c-7.071,16.217-23.092,26.705-40.785,26.705H835.923
		c-17.703,0-33.714-10.488-40.795-26.705l-30.245-69.347l-0.083-0.681c10.56-1.28,21.306-1.941,32.206-1.941h266.023
		C1073.93,999.061,1084.676,999.721,1095.236,1001.001z"/>
</g>
</svg>
