<?xml version="1.0" encoding="utf-8"?>
<!-- Generator: Adobe Illustrator 26.0.3, SVG Export Plug-In . SVG Version: 6.00 Build 0)  -->
<svg version="1.1" id="Layer_1" xmlns="http://www.w3.org/2000/svg" xmlns:xlink="http://www.w3.org/1999/xlink" x="0px" y="0px"
	 viewBox="0 0 3000 3000" enable-background="new 0 0 3000 3000" xml:space="preserve">
<g>
	<rect x="0" y="0" fill="#F8FEFF" width="3000" height="3000"/>
	<g>
		<path fill="#433C9D" d="M2687.54,377.66h-528.3c-17.64,0-31.93,14.3-31.93,31.93v844.97c0,17.64,14.3,31.93,31.93,31.93h528.3
			c17.64,0,31.93-14.3,31.93-31.93V409.59C2719.47,391.96,2705.18,377.66,2687.54,377.66z"/>
		<rect x="2204.04" y="535.28" fill="#E4F6FC" width="197.22" height="15.34"/>
		<rect x="2204.04" y="838.7" fill="#E4F6FC" width="197.22" height="15.34"/>
		<rect x="2204.04" y="606.15" fill="#E4F6FC" width="448.43" height="15.34"/>
		<rect x="2204.04" y="677.01" fill="#E4F6FC" width="448.43" height="15.34"/>
		<rect x="2204.04" y="928.76" fill="#E4F6FC" width="448.43" height="15.34"/>
		<rect x="2204.04" y="999.62" fill="#E4F6FC" width="448.43" height="15.34"/>
	</g>
	<g>
		<polygon fill="#241A70" points="2503.92,1820.23 2654.92,2597.09 2161.99,2597.09 2078.54,2144.08 2078.54,2597.09 
			1628.86,2597.09 1703.72,1853.03 		"/>
		<path fill="#3C35D3" d="M2078.54,2145.58c-0.57,0-1.11-0.32-1.36-0.87l-61.41-132.08c-0.35-0.75-0.02-1.64,0.73-1.99
			c0.75-0.35,1.64-0.02,1.99,0.73l61.41,132.08c0.35,0.75,0.02,1.64-0.73,1.99C2078.97,2145.54,2078.75,2145.58,2078.54,2145.58z"/>
		<path fill="#020C0D" d="M2543.17,2064.02c-33.05,0-63.42-5.6-90.46-16.69c-24.46-10.04-46.24-24.57-64.75-43.18
			c-31.51-31.7-42.73-64.79-42.84-65.12c-0.26-0.79,0.17-1.63,0.95-1.9c0.79-0.26,1.63,0.16,1.9,0.95
			c0.11,0.32,11.16,32.84,42.22,64.05c28.64,28.77,80.66,62.29,165.86,58.61c0.85-0.04,1.53,0.61,1.56,1.43
			c0.04,0.83-0.61,1.53-1.43,1.56C2551.8,2063.93,2547.46,2064.02,2543.17,2064.02z"/>
		<path fill="#3C35D3" d="M2529.77,2598.59c-0.73,0-1.37-0.53-1.48-1.28l-83.68-554.28c-0.12-0.82,0.44-1.58,1.26-1.71
			c0.82-0.12,1.58,0.44,1.71,1.26l83.68,554.28c0.12,0.82-0.44,1.58-1.26,1.71C2529.92,2598.58,2529.84,2598.59,2529.77,2598.59z"/>
		<path fill="#4A2827" d="M2154,725.26c0,0,25.83,10.21,33-15.97c0,0,18.57-4.22,19.42-28.71c0,0,37.57-66.7-1.69-105.96
			c0,0,1.69-22.37-13.09-29.13c0,0,3.8-54.03-52.34-55.72c0,0-8.44-47.7-60.37-24.06c0,0-44.32-56.14-94.56-19
			c0,0-24.06-6.75-34.62,12.24c0,0-45.59,0-41.37,40.95c0,0-43.9,46.86-11.82,92.87c0,0-14.42,48.47,16.22,71.72
			C1943.42,687.77,2154,725.26,2154,725.26z"/>
		<polygon fill="#FFC2CE" points="2149.01,702.26 2183.41,860.84 1971.92,967.57 1963.84,887.46 1978.88,744.75 		"/>
		<path fill="#23B5FF" d="M2186.25,842.41c0,0-28.58,21.21-70.39,38.35l162.31,1371.8c188.7-21.95,322.99-56.21,322.99-56.21
			l-71.41-636.41c0,0,199.39,60.4,201.19-136.76c1.02-113.19-195.44-367.94-284.85-448.39
			C2356.67,894.31,2186.25,842.41,2186.25,842.41z"/>
		<path fill="#23B5FF" d="M1455.59,1610.61c74.13,63.86,229.91-35.78,229.91-35.78l-56.63,660.2
			c69.3,15.67,141.17,25.33,213.04,30.56l124.73-1387.82c-4.66-7.23-5.96-13.27-5.96-13.27c-81.89,10.13-169.57,54.62-232.13,87.72
			c-77.34,40.93-127.8,128.19-184.99,224.97C1444.61,1344.53,1401.6,1564.1,1455.59,1610.61z"/>
		<path fill="#E9F9FF" d="M1868.67,1967.85c153.8,11.22,245.91,3.78,374.48-11.18l-127.3-1075.92
			c-28.4,11.64-36.03,50.43-71.84,50.43c-29,0-70.39-42.56-77.38-53.43L1868.67,1967.85z"/>
		<path fill="#FFC2CE" d="M2349.82,1158.37l-35.34-17.43c0,0-66.65-76.48-97.94-81.27c-33.14-5.07-33.14,25.33-33.14,25.33
			s-98.78-19.42-108.38-5.91c-9.6,13.51,86.64,213.6,86.64,213.6l81.89,21.11l34.91,22.05
			C2278.47,1335.84,2308.33,1245.24,2349.82,1158.37z"/>
		<path fill="#FFC2CE" d="M1928.23,702.23v0.02c7.6,31.32,31.38,61.11,45.47,75.54c19.23,19.7,47.61,27.65,74.83,24.86
			c43.47-4.45,90.09-57.83,100.48-100.39v-0.02c10.34,10.75,26.39-7,31.23-13.37c29.02-38.19,17.89-79.66-9.7-76.13
			c-0.61-38.45-8.28-77.25-34.17-80.48c-0.02,0-0.02-0.01-0.04-0.02c-1.51-0.9-46.08-19.66-97.59-19.66
			c-51.51,0-76.5,8.95-97.59,19.66c-21.15,10.74-21.99,42.05-22.6,80.5C1890.96,609.21,1922.78,704.85,1928.23,702.23z"/>
		<polygon fill="#4A2827" points="1818.86,979.68 2131.31,979.68 2215.4,1374.66 1902.95,1374.66 		"/>
		<path fill="#4A2827" d="M2170.54,612.73c0,0-10.98,57.3-21.11,62.79c-10.13,5.49-20.68-81.47-20.68-81.47s-30.82-5.07-40.95-35.04
			c0,0-42.21,17.73-77.67-16.89c0,0-18.57,19.84-42.21,21.11c0,0-4.14,16.04-21.7,20.26c0,0-4.38,16.53-15.41,24.73
			c0,0,5.11,58.85,0,61.39s-12.26-56.88-12.26-56.88s-26.62-73.56,34.59-91.29S2185.74,464.67,2170.54,612.73z"/>
		<path fill="#020C0D" d="M2034.11,804.89c-21.68,0-42.31-8.72-61.42-25.99c-0.61-0.56-0.66-1.5-0.11-2.12
			c0.55-0.61,1.5-0.66,2.12-0.11c20.37,18.41,42.45,26.81,65.66,24.97c43.14-3.42,73.5-39.7,76.82-43.83
			c24.82-30.84,30.3-55.62,30.35-55.87c0.17-0.81,0.97-1.33,1.78-1.16c0.81,0.17,1.33,0.97,1.16,1.78
			c-0.22,1.03-5.64,25.67-30.95,57.13c-3.4,4.23-34.53,41.42-78.92,44.94C2038.43,804.81,2036.26,804.89,2034.11,804.89z"/>
		<path fill="#4A2827" d="M2040.58,611.03c-0.58-1.48,3.19-15.52,18.29-16.32c16.47-0.87,23.65,12.55,23.06,14.03
			c-0.45,1.14-7.34,0.03-19.95-0.11C2048.85,608.48,2041.11,612.36,2040.58,611.03z"/>
		<path fill="#4A2827" d="M1981.38,615.57c0.42-1.53-4.81-15.1-19.91-14.3c-16.47,0.87-22.19,14.97-21.45,16.38
			c0.57,1.09,7.31-0.74,19.83-2.21C1972.9,613.9,1981,616.95,1981.38,615.57z"/>
		<ellipse fill="#4A2827" cx="2053.81" cy="634.47" rx="5.28" ry="10.76"/>
		<ellipse fill="#4A2827" cx="1971.92" cy="634.47" rx="5.28" ry="10.76"/>
		<path fill="#020C0D" d="M2016.88,681.67c-0.18,0-0.37-0.03-0.55-0.1c-11.87-4.64-18.15-10.32-18.67-16.9
			c-0.81-10.26,12.81-18.38,13.39-18.72c0.71-0.42,1.63-0.18,2.05,0.53c0.42,0.71,0.18,1.63-0.53,2.05
			c-0.13,0.07-12.59,7.51-11.92,15.9c0.43,5.33,6.07,10.15,16.77,14.34c0.77,0.3,1.15,1.17,0.85,1.94
			C2018.04,681.31,2017.48,681.67,2016.88,681.67z"/>
		<path fill="#020C0D" d="M2021.65,721.14c-10.13,0-17.69-3.57-17.85-3.65c-0.74-0.36-1.05-1.26-0.69-2c0.36-0.74,1.26-1.05,2-0.69
			c1.29,0.63,31.92,14.96,51.23-19.23c0.41-0.72,1.32-0.98,2.04-0.57c0.72,0.41,0.98,1.32,0.57,2.04
			C2047.94,716.54,2033.14,721.14,2021.65,721.14z"/>
		<path fill="#020C0D" d="M2159.67,676.82c-0.1,0-0.2-0.01-0.31-0.03c-0.81-0.17-1.33-0.96-1.16-1.77
			c0.29-1.4,7.37-34.47,27.54-41.95c0.78-0.29,1.64,0.11,1.93,0.88c0.29,0.78-0.11,1.64-0.88,1.93
			c-18.62,6.91-25.58,39.42-25.65,39.75C2160.99,676.33,2160.36,676.82,2159.67,676.82z"/>
		<path fill="#FFC2CE" d="M1853.56,1140.93l9.97,46.85c0,0,135.18-47.91,149.66-33.56c13.93,13.81-68.41,59.01-68.41,59.01
			s30.47-17.03,58.7-29.04c21.97-9.35,42.28-14.73,47.7-12.66c14.77,5.63-7.18,35.46-7.18,35.46s23.66,5.45,14.15,26.86
			c-9.51,21.41-91.18,52.33-91.18,52.33s76.09-28.31,83.78-19.24c11.82,13.93-80.21,84.01-182.88,89.8l-36.93,13.8
			c-9.7-49.65-26.18-98.6-48.1-146.91l51.73-41.31L1853.56,1140.93z"/>
		<path fill="#020C0D" d="M1685.48,1576.35c-0.37,0-0.73-0.13-1.02-0.4c-0.61-0.57-0.64-1.51-0.07-2.12l152.95-163.84
			c-22.84-132.44-58.65-191.73-64.13-200.21c-15.15,7.61-171.08,87.09-253.44,173.04c-0.57,0.6-1.52,0.62-2.12,0.05
			c-0.6-0.57-0.62-1.52-0.04-2.12c86.56-90.33,253.78-173.42,255.46-174.24c0.66-0.33,1.46-0.12,1.89,0.48
			c0.4,0.57,40.69,58.93,65.47,203.24c0.08,0.46-0.06,0.93-0.38,1.28l-153.46,164.39
			C1686.28,1576.19,1685.88,1576.35,1685.48,1576.35z"/>
		<path fill="#020C0D" d="M1662.59,1272.22c-0.11,0-0.23-0.01-0.35-0.04c-0.81-0.19-1.3-1-1.11-1.81
			c0.29-1.21,28.89-122.73,37.23-232.77c0.06-0.83,0.78-1.45,1.61-1.38c0.83,0.06,1.44,0.78,1.38,1.61
			c-8.35,110.29-37.01,232.02-37.3,233.24C1663.88,1271.76,1663.27,1272.22,1662.59,1272.22z"/>
		<path fill="#020C0D" d="M2529.75,1561.45c-0.17,0-0.35-0.03-0.52-0.09c-0.43-0.16-43.83-16.39-97.27-48.93
			c-49.34-30.05-117.61-80.57-162.63-150.6c-0.23-0.37-0.3-0.81-0.18-1.23c0.34-1.16,34.43-117.09,87.91-219.8
			c0.22-0.42,0.62-0.71,1.09-0.79c0.47-0.08,0.94,0.07,1.28,0.4c0.17,0.17,17.52,16.75,50.34,36.38
			c30.28,18.12,80.31,42.62,146.67,56.43c0.81,0.17,1.33,0.96,1.16,1.77c-0.17,0.81-0.96,1.33-1.77,1.16
			c-66.82-13.91-117.2-38.59-147.69-56.85c-27.67-16.57-44.46-31.01-49.31-35.39c-50.75,98-83.78,207.39-86.6,216.86
			c44.71,69.25,112.35,119.28,161.3,149.08c53.2,32.4,96.33,48.52,96.76,48.68c0.78,0.29,1.17,1.15,0.89,1.93
			C2530.93,1561.07,2530.35,1561.45,2529.75,1561.45z"/>
		<path fill="#020C0D" d="M2441.52,1197.18c-0.54,0-1.05-0.29-1.32-0.79c-0.64-1.2-64.59-121.25-77.55-199.45
			c-0.14-0.82,0.42-1.59,1.23-1.72c0.82-0.13,1.59,0.42,1.73,1.23c12.88,77.71,76.59,197.32,77.23,198.52
			c0.39,0.73,0.12,1.64-0.61,2.03C2442.01,1197.12,2441.76,1197.18,2441.52,1197.18z"/>
		<path fill="#020C0D" d="M2230.9,1104.23c-0.17,0-0.35-0.03-0.52-0.1l-47.49-17.73c-0.78-0.29-1.17-1.15-0.88-1.93
			s1.15-1.17,1.93-0.88l47.49,17.73c0.78,0.29,1.17,1.15,0.88,1.93C2232.08,1103.85,2231.51,1104.23,2230.9,1104.23z"/>
		<path fill="#020C0D" d="M1921.64,1224.96c-0.58,0-1.13-0.33-1.37-0.89c-0.33-0.76,0.01-1.64,0.77-1.98l23.15-10.22
			c0.76-0.33,1.64,0.01,1.98,0.77s-0.01,1.64-0.77,1.98l-23.15,10.22C1922.05,1224.92,1921.84,1224.96,1921.64,1224.96z"/>
		<path fill="#020C0D" d="M1927.8,1257.24c-0.66,0-1.26-0.44-1.45-1.1c-0.22-0.8,0.25-1.62,1.05-1.84
			c50.74-13.95,115.25-48.28,115.9-48.62c0.73-0.39,1.64-0.11,2.03,0.62c0.39,0.73,0.12,1.64-0.62,2.03
			c-0.65,0.35-65.45,34.83-116.52,48.87C1928.07,1257.22,1927.94,1257.24,1927.8,1257.24z"/>
		<path fill="#020C0D" d="M1933.21,1299.57c-0.65,0-1.25-0.43-1.44-1.08c-0.23-0.8,0.23-1.63,1.02-1.86
			c16.12-4.68,44.78-16.28,45.06-16.4c0.77-0.31,1.64,0.06,1.95,0.83c0.31,0.77-0.06,1.64-0.83,1.95
			c-0.29,0.12-29.09,11.78-45.36,16.5C1933.49,1299.55,1933.35,1299.57,1933.21,1299.57z"/>
		<path fill="#E9F9FF" d="M2202.35,847.66l-30.87-69.7l-127.47,153.23c0,0,58.01,44.67,119.33,41.91L2202.35,847.66z"/>
		<path fill="#E9F9FF" d="M1912.79,873.89l59.13-63.08L2043,931.19c0,0-58.01,44.67-119.33,41.91L1912.79,873.89z"/>
		<path fill="#020C0D" d="M1932.96,975.12c-3.2,0-6.35-0.17-9.46-0.53c-0.69-0.08-1.24-0.63-1.32-1.33l-10-91.14
			c-0.09-0.82,0.5-1.56,1.33-1.65c0.83-0.09,1.56,0.5,1.65,1.33l9.87,89.94c49.82,4.98,116.44-41.3,117.11-41.77
			c0.55-0.38,1.28-0.36,1.8,0.06c0.53,0.43,53.69,42.46,118.29,41.6l38.69-124.4c0.25-0.79,1.08-1.23,1.88-0.99
			c0.79,0.25,1.23,1.09,0.99,1.88l-39.01,125.44c-0.19,0.62-0.76,1.04-1.4,1.05c-61.57,1.28-113.09-35.99-120.42-41.55
			C2034.9,938.56,1979.73,975.11,1932.96,975.12z"/>
		<path fill="#020C0D" d="M2451.12,2076.65c-13.15,0-27.16-1.66-41.43-5.94c-41.88-12.58-76.32-44.48-102.36-94.82
			c-0.38-0.74-0.09-1.64,0.64-2.02c0.74-0.38,1.64-0.09,2.02,0.64c25.64,49.58,59.47,80.97,100.53,93.32
			c61.25,18.41,117.96-12.65,118.52-12.96c0.72-0.4,1.64-0.15,2.04,0.58c0.4,0.72,0.15,1.64-0.58,2.04
			C2530.06,2057.74,2495.56,2076.65,2451.12,2076.65z"/>
		<path fill="#020C0D" d="M1706.45,2076.71c-0.75,0-1.4-0.56-1.49-1.32c-0.1-0.82,0.49-1.57,1.31-1.67
			c53.58-6.41,86.37-42.83,104.45-72.25c19.67-32.01,26.69-62.93,26.76-63.24c0.18-0.81,0.98-1.32,1.79-1.14
			c0.81,0.18,1.32,0.98,1.14,1.79c-0.07,0.31-7.17,31.65-27.08,64.08c-18.43,30.02-51.9,67.18-106.69,73.74
			C1706.57,2076.71,1706.51,2076.71,1706.45,2076.71z"/>
	</g>
	<g>
		<path fill="#009EFF" d="M877.56,1613.59H663.04c-6.76,0-12.25-5.48-12.25-12.25v-49.28c0-6.76,5.48-12.25,12.25-12.25h214.52
			c6.76,0,12.25,5.48,12.25,12.25v49.28C889.81,1608.11,884.32,1613.59,877.56,1613.59z"/>
		<path fill="#8DDEFD" d="M1031.98,1269.7H508.62c-15.09,0-27.33,12.23-27.33,27.33v254.87c0,15.09,12.23,27.33,27.33,27.33h523.36
			c15.09,0,27.33-12.23,27.33-27.33v-254.87C1059.31,1281.94,1047.07,1269.7,1031.98,1269.7z"/>
		<path fill="#8DDEFD" d="M949.17,1607.83H591.43c-10.32,0-18.68,6.92-18.68,15.46v144.17c0,8.54,8.36,15.46,18.68,15.46h357.74
			c10.32,0,18.68-6.92,18.68-15.46v-144.17C967.85,1614.76,959.49,1607.83,949.17,1607.83z"/>
		<path fill="#433C9D" d="M990.07,1302.64H550.53c-12.68,0-22.95,9.63-22.95,21.51v200.63c0,11.88,10.28,21.51,22.95,21.51h439.55
			c12.67,0,22.95-9.63,22.95-21.51v-200.63C1013.02,1312.27,1002.75,1302.64,990.07,1302.64z"/>
		<g>
			<path fill="#009EFF" d="M419.1,1360.53v127.86c0,15.84,12.84,28.68,28.68,28.68h33.51v-185.22h-33.51
				C431.94,1331.85,419.1,1344.69,419.1,1360.53z"/>
			<path fill="#009EFF" d="M1092.82,1331.85h-33.51v185.22h33.51c15.84,0,28.68-12.84,28.68-28.68v-127.86
				C1121.5,1344.69,1108.66,1331.85,1092.82,1331.85z"/>
		</g>
		<polygon fill="#009EFF" points="481.29,1142.89 456.9,1331.85 481.29,1331.85 		"/>
		<polygon fill="#009EFF" points="1059.31,1142.89 1059.31,1331.85 1083.7,1331.85 		"/>
		<path fill="#433C9D" d="M522.61,1679.97h50.14v153.76c0,3.3-2.68,5.98-5.98,5.98h-58.56c-6.11,0-11.07-4.96-11.07-11.07v-123.21
			C497.15,1691.37,508.55,1679.97,522.61,1679.97z"/>
		<path fill="#433C9D" d="M967.85,1679.97h50.14c14.06,0,25.46,11.4,25.46,25.46v123.21c0,6.11-4.96,11.07-11.07,11.07h-58.56
			c-3.3,0-5.98-2.68-5.98-5.98V1679.97z"/>
		<path fill="#433C9D" d="M900.38,1739.6H640.22c-3.14,0-5.69-2.55-5.69-5.69v-77.08c0-3.14,2.55-5.69,5.69-5.69h260.15
			c3.14,0,5.69,2.55,5.69,5.69v77.08C906.06,1737.05,903.52,1739.6,900.38,1739.6z"/>
		<rect x="650.8" y="1403.72" fill="#8DDEFD" width="62.45" height="62.45"/>
		<rect x="827.35" y="1403.72" fill="#8DDEFD" width="62.45" height="62.45"/>
	</g>
	<g>
		<path fill="#8DDEFD" d="M1383.38,390.78H369.26c-26.9,0-48.7,21.8-48.7,48.7v525.56c0,26.9,21.8,48.7,48.7,48.7h1014.12
			c26.9,0,48.7-21.8,48.7-48.7V439.48C1432.08,412.58,1410.27,390.78,1383.38,390.78z"/>
		<rect x="392.25" y="466.69" fill="#433C9D" width="242.98" height="20.35"/>
		<rect x="392.25" y="523.04" fill="#433C9D" width="363.42" height="20.35"/>
		<rect x="392.25" y="579.39" fill="#433C9D" width="363.42" height="20.35"/>
		<rect x="392.25" y="635.74" fill="#433C9D" width="363.42" height="20.35"/>
		<rect x="392.25" y="692.08" fill="#433C9D" width="363.42" height="20.35"/>
		<rect x="392.25" y="748.43" fill="#433C9D" width="363.42" height="20.35"/>
		<rect x="392.25" y="804.78" fill="#433C9D" width="363.42" height="20.35"/>
		<rect x="392.25" y="861.13" fill="#433C9D" width="363.42" height="20.35"/>
		<rect x="392.25" y="917.48" fill="#433C9D" width="363.42" height="20.35"/>
		<g>
			<path fill="#27B8FF" d="M1347.45,519.48v366.64c0,23.53-19.1,42.63-42.63,42.63H938.18c-23.53,0-42.63-19.1-42.63-42.63V519.48
				c0-23.53,19.1-42.63,42.63-42.63h366.64C1328.35,476.84,1347.45,495.94,1347.45,519.48z"/>
			<path fill="#E4F6FC" d="M1347.45,702.79v183.32c0,23.53-19.1,42.63-42.63,42.63H938.18c-23.53,0-42.63-19.1-42.63-42.63v-22.73
				c0,0,65.37-142.1,164.83-73.9c99.5,68.2,159.17,63.88,196.1,2.1C1293.45,729.78,1347.45,702.79,1347.45,702.79z"/>
			<circle fill="#E4F6FC" cx="1178.34" cy="685.74" r="55.42"/>
			<path fill="#27B8FF" d="M1304.82,937.82H938.18c-28.51,0-51.71-23.2-51.71-51.71V519.48c0-28.52,23.2-51.71,51.71-51.71h366.64
				c28.51,0,51.71,23.2,51.71,51.71v366.64C1356.53,914.63,1333.33,937.82,1304.82,937.82z M938.18,485.92
				c-18.5,0-33.56,15.05-33.56,33.56v366.64c0,18.5,15.05,33.55,33.56,33.55h366.64c18.5,0,33.55-15.05,33.55-33.55V519.48
				c0-18.5-15.05-33.56-33.55-33.56H938.18z"/>
		</g>
	</g>
	<g>
		<rect x="320.56" y="1840.99" fill="#433C9D" width="2358.88" height="112.36"/>
		<rect x="438.65" y="1953.35" fill="#433C9D" width="2122.69" height="46.37"/>
		<path fill="#433C9D" d="M320.56,2599.59c-0.15,0-0.3-0.01-0.45-0.04c-1.36-0.25-2.26-1.55-2.01-2.91l118.09-643.74
			c0.25-1.36,1.55-2.26,2.91-2.01c1.36,0.25,2.26,1.55,2.01,2.91l-118.09,643.74C322.8,2598.74,321.75,2599.59,320.56,2599.59z"/>
		<path fill="#433C9D" d="M2679.44,2599.59c-1.18,0-2.23-0.84-2.46-2.05l-118.09-643.74c-0.25-1.36,0.65-2.66,2.01-2.91
			c1.36-0.25,2.66,0.65,2.91,2.01l118.09,643.74c0.25,1.36-0.65,2.66-2.01,2.91C2679.74,2599.58,2679.59,2599.59,2679.44,2599.59z"
			/>
	</g>
	<path fill="#433C9D" d="M2840.1,2612.09H159.9c-8.28,0-15-6.72-15-15s6.72-15,15-15h2680.2c8.28,0,15,6.72,15,15
		S2848.39,2612.09,2840.1,2612.09z"/>
	<g>
		<path fill="#433C9D" d="M1610.48,594.54c-7.67,0-13.61-2.11-17.54-6.35c-18.65-20.13,15.71-81.28,78.24-139.23
			s126.12-87.57,144.77-67.44c18.65,20.13-15.71,81.28-78.24,139.23c-29.47,27.31-60.52,49.44-87.41,62.31
			C1634.35,590.69,1620.84,594.54,1610.48,594.54z M1798.37,380.04c-26.02,0-76.42,28.68-123.79,72.59
			c-58.45,54.17-94.16,114.69-77.97,132.16c7.51,8.11,26.29,5.83,51.53-6.24c26.46-12.66,57.06-34.49,86.17-61.47
			c58.45-54.17,94.16-114.69,77.97-132.16C1809.21,381.61,1804.46,380.04,1798.37,380.04z"/>
		<path fill="#433C9D" d="M1792.79,601.42c-27.52,0-76.95-32.27-124.24-83.31c-27.31-29.47-49.44-60.52-62.31-87.41
			c-13.28-27.75-15.1-48.12-5.13-57.35c20.12-18.65,81.28,15.71,139.23,78.24c27.31,29.47,49.44,60.52,62.31,87.41
			c13.28,27.75,15.1,48.12,5.13,57.35C1804.08,599.79,1798.99,601.42,1792.79,601.42z M1616.31,373.11c-4.94,0-8.95,1.26-11.8,3.91
			c-8.11,7.51-5.83,26.3,6.24,51.53c12.66,26.46,34.49,57.06,61.47,86.17c45.31,48.9,95.07,81.88,120.36,81.88
			c4.94,0,8.95-1.26,11.8-3.91c8.11-7.51,5.83-26.3-6.24-51.53c-12.66-26.46-34.49-57.06-61.47-86.17
			C1691.36,406.09,1641.6,373.11,1616.31,373.11z"/>
		<circle fill="#433C9D" cx="1594.77" cy="586.49" r="14.65"/>
		<circle fill="#433C9D" cx="563.67" cy="2221.23" r="14.65"/>
		<circle fill="#433C9D" cx="737.92" cy="2149.31" r="14.65"/>
		<circle fill="#433C9D" cx="278.16" cy="442.57" r="17.41"/>
		<circle fill="#433C9D" cx="360.32" cy="300.46" r="17.41"/>
		<circle fill="#433C9D" cx="2738.78" cy="1593.92" r="17.41"/>
		<circle fill="#433C9D" cx="2828.3" cy="1627.99" r="17.41"/>
		<circle fill="#433C9D" cx="2695.16" cy="1751.17" r="17.41"/>
		<circle fill="#433C9D" cx="1706.76" cy="424.05" r="14.65"/>
		<path fill="#433C9D" d="M278.16,445.07c-1.37,0-2.49-1.1-2.5-2.48l-1-104.54c-0.01-0.98,0.56-1.88,1.45-2.29l82.62-38.07
			c1.25-0.58,2.74-0.03,3.32,1.22c0.58,1.25,0.03,2.74-1.22,3.32l-81.15,37.39l0.98,102.92c0.01,1.38-1.1,2.51-2.48,2.52
			C278.18,445.07,278.17,445.07,278.16,445.07z"/>
		<path fill="#433C9D" d="M2695.16,1753.67c-0.7,0-1.4-0.29-1.89-0.86c-0.9-1.04-0.79-2.62,0.26-3.53l67.58-58.45l-29.51-98.6
			c-0.4-1.32,0.36-2.72,1.68-3.11c1.32-0.4,2.72,0.36,3.11,1.68l29.98,100.15c0.28,0.94-0.02,1.96-0.76,2.61l-68.8,59.51
			C2696.32,1753.47,2695.74,1753.67,2695.16,1753.67z"/>
		<path fill="#433C9D" d="M2763.96,1694.16c-0.64,0-1.29-0.25-1.78-0.74c-0.97-0.98-0.96-2.56,0.02-3.54l64.34-63.67
			c0.98-0.97,2.56-0.96,3.54,0.02c0.97,0.98,0.96,2.56-0.02,3.54l-64.34,63.67C2765.23,1693.92,2764.6,1694.16,2763.96,1694.16z"/>
		<path fill="#433C9D" d="M563.67,2223.73c-0.98,0-1.91-0.58-2.31-1.55c-0.53-1.28,0.08-2.74,1.36-3.26L736.97,2147
			c1.28-0.53,2.74,0.08,3.26,1.36c0.53,1.28-0.08,2.74-1.36,3.26l-174.25,71.92C564.31,2223.67,563.99,2223.73,563.67,2223.73z"/>
		<circle fill="#433C9D" cx="1449.04" cy="2268.97" r="14.65"/>
		<circle fill="#433C9D" cx="1324.13" cy="2127.77" r="14.65"/>
		<path fill="#433C9D" d="M1449.04,2271.47c-0.69,0-1.38-0.29-1.87-0.84l-124.9-141.2c-0.91-1.03-0.82-2.61,0.22-3.53
			c1.03-0.91,2.61-0.82,3.53,0.22l124.9,141.2c0.91,1.03,0.82,2.61-0.22,3.53C1450.22,2271.26,1449.63,2271.47,1449.04,2271.47z"/>
	</g>
</g>
</svg>
